<svg width="989" height="239" viewBox="0 0 989 239" fill="none" xmlns="http://www.w3.org/2000/svg">
<path d="M845.271 232.563H883.683V150.747C883.683 131.233 892.502 106.689 921.476 106.689C941.002 106.689 949.811 116.132 949.811 138.16V232.563H988.224V127.151C988.224 80.8878 957.052 69.5591 929.976 69.5591C908.243 69.5591 892.812 78.0532 884.312 89.0724H883.683V2.2156H845.271V232.563ZM833.305 114.874C823.547 90.9589 804.651 69.5591 765.919 69.5591C714.283 69.5591 684.37 105.432 684.37 152.943C684.37 200.463 714.283 236.336 763.082 236.336C806.229 236.336 824.486 210.854 835.193 187.558L802.444 170.26C796.461 184.733 786.703 201.092 763.721 201.092C736.955 201.092 724.67 177.816 724.67 152.943C724.67 128.089 738.523 104.803 765.919 104.803C781.03 104.803 794.573 114.555 799.617 130.295L833.305 114.874ZM553.798 132.491C557.893 115.503 572.694 101.03 595.047 101.03C620.865 101.03 631.252 123.997 631.252 132.491H553.798ZM671.562 162.075C671.562 105.113 648.261 69.5591 595.047 69.5591C543.401 69.5591 513.488 105.432 513.488 152.943C513.488 200.463 543.401 236.336 595.047 236.336C638.493 236.336 661.485 215.575 673.45 197.319L641.02 178.445C637.235 183.785 625.27 201.092 595.047 201.092C574.263 201.092 554.427 185.681 553.798 162.075H671.562ZM438.764 38.6591V196.062C438.764 220.296 449.47 234.45 480.952 234.45C492.926 234.45 502.365 232.563 511.503 230.677V199.206C505.831 199.835 499.848 201.092 494.495 201.092C479.693 201.092 477.176 194.175 477.176 181.589V101.03H511.503V73.3321H477.176V0.222665L438.764 38.6591ZM374.397 232.563H412.81V2.2156H374.397V232.563ZM308.482 175.61C308.482 196.062 285.501 204.875 267.543 204.875C253.69 204.875 242.674 197 242.674 185.042C242.674 169.941 254.639 165.848 269.121 163.024L290.215 158.612C297.146 157.354 303.448 155.468 308.482 152.943V175.61ZM346.895 121.801C346.895 76.486 312.577 69.5591 278.25 69.5591C243.303 69.5591 210.234 84.032 210.234 121.482L248.656 123.059C248.656 105.751 255.897 99.1434 278.25 99.1434C294.939 99.1434 308.482 103.545 308.482 119.276V123.997C298.724 127.46 280.767 130.605 266.914 133.439L250.854 136.583C227.243 141.304 202.364 155.158 202.364 186.31C202.364 217.142 226.294 236.336 256.527 236.336C276.362 236.336 293.681 230.048 308.482 218.09C308.482 222.182 309.741 228.79 312.258 232.563H352.877C350.68 229.1 346.895 222.182 346.895 205.813V121.801ZM196.575 73.3321C185.868 26.45 151.541 2.84443 106.516 2.84443C39.4493 2.84443 0.223633 57.2823 0.223633 120.534C0.223633 183.785 34.7252 238.223 106.516 238.223C151.231 238.223 181.144 216.513 199.092 171.518L160.679 153.891C152.489 180.012 135.8 199.206 106.516 199.206C61.8018 199.206 43.2248 159.56 43.2248 120.534C43.2248 81.5167 61.8018 41.871 106.516 41.871C132.025 41.871 152.489 58.8592 155.955 83.7224L196.575 73.3321Z" fill="#F58427" fill-opacity="0.52"/>
</svg>
