<svg width="988" height="238" viewBox="0 0 988 238" fill="none" xmlns="http://www.w3.org/2000/svg">
<g clip-path="url(#clip0_23_2)">
<path d="M845.047 232.341H883.459V150.524C883.459 131.011 892.278 106.467 921.252 106.467C940.778 106.467 949.587 115.909 949.587 137.938V232.341H988V126.928C988 80.6653 956.829 69.3366 929.752 69.3366C908.019 69.3366 892.588 77.8307 884.089 88.8498H883.459V1.99307H845.047V232.341ZM833.082 114.651C823.324 90.7364 804.427 69.3366 765.695 69.3366C714.059 69.3366 684.146 105.209 684.146 152.72C684.146 200.241 714.059 236.114 762.859 236.114C806.005 236.114 824.263 210.631 834.969 187.335L802.22 170.037C796.237 184.51 786.479 200.87 763.498 200.87C736.731 200.87 724.446 177.593 724.446 152.72C724.446 127.867 738.299 104.58 765.695 104.58C780.807 104.58 794.35 114.332 799.393 130.072L833.082 114.651ZM553.574 132.269C557.669 115.28 572.471 100.807 594.823 100.807C620.641 100.807 631.029 123.774 631.029 132.269H553.574ZM671.339 161.853C671.339 104.89 648.037 69.3366 594.823 69.3366C543.177 69.3366 513.264 105.209 513.264 152.72C513.264 200.241 543.177 236.114 594.823 236.114C638.27 236.114 661.261 215.352 673.226 197.097L640.796 178.222C637.011 183.562 625.046 200.87 594.823 200.87C574.039 200.87 554.204 185.458 553.574 161.853H671.339ZM438.54 38.4365V195.839C438.54 220.073 449.247 234.227 480.728 234.227C492.703 234.227 502.141 232.341 511.28 230.454V198.983C505.607 199.612 499.624 200.87 494.271 200.87C479.469 200.87 476.953 193.953 476.953 181.366V100.807H511.28V73.1096H476.953V0.000130802L438.54 38.4365ZM374.174 232.341H412.586V1.99307H374.174V232.341ZM308.259 175.387C308.259 195.839 285.277 204.652 267.32 204.652C253.467 204.652 242.45 196.777 242.45 184.82C242.45 169.718 254.415 165.626 268.897 162.801L289.991 158.389C296.923 157.132 303.225 155.245 308.259 152.72V175.387ZM346.671 121.578C346.671 76.2634 312.354 69.3366 278.026 69.3366C243.079 69.3366 210.011 83.8095 210.011 121.259L248.433 122.836C248.433 105.529 255.674 98.9209 278.026 98.9209C294.716 98.9209 308.259 103.323 308.259 119.053V123.774C298.501 127.238 280.543 130.382 266.69 133.217L250.63 136.361C227.019 141.082 202.14 154.936 202.14 186.087C202.14 216.92 226.071 236.114 256.303 236.114C276.139 236.114 293.457 229.825 308.259 217.868C308.259 221.96 309.517 228.568 312.034 232.341H352.654C350.456 228.877 346.671 221.96 346.671 205.591V121.578ZM196.351 73.1096C185.644 26.2274 151.317 2.62189 106.293 2.62189C39.2257 2.62189 0 57.0598 0 120.311C0 183.562 34.5015 238 106.293 238C151.007 238 180.92 216.291 198.868 171.295L160.456 153.668C152.266 179.789 135.576 198.983 106.293 198.983C61.5781 198.983 43.0011 159.338 43.0011 120.311C43.0011 81.2941 61.5781 41.6484 106.293 41.6484C131.801 41.6484 152.266 58.6367 155.731 83.4999L196.351 73.1096Z" fill="#886FED"/>
</g>
<defs>
<clipPath id="clip0_23_2">
<rect width="988" height="238" fill="white"/>
</clipPath>
</defs>
</svg>
