<?xml version="1.0" encoding="utf-8" standalone="no"?>
<!DOCTYPE svg PUBLIC "-//W3C//DTD SVG 1.1//EN"
  "http://www.w3.org/Graphics/SVG/1.1/DTD/svg11.dtd">
<svg xmlns:xlink="http://www.w3.org/1999/xlink" width="892.475pt" height="231.585313pt" viewBox="0 0 892.475 231.585313" xmlns="http://www.w3.org/2000/svg" version="1.1">
 <metadata>
  <rdf:RDF xmlns:dc="http://purl.org/dc/elements/1.1/" xmlns:cc="http://creativecommons.org/ns#" xmlns:rdf="http://www.w3.org/1999/02/22-rdf-syntax-ns#">
   <cc:Work>
    <dc:type rdf:resource="http://purl.org/dc/dcmitype/StillImage"/>
    <dc:date>2023-11-28T15:51:25.639906</dc:date>
    <dc:format>image/svg+xml</dc:format>
    <dc:creator>
     <cc:Agent>
      <dc:title>Matplotlib v3.8.1, https://matplotlib.org/</dc:title>
     </cc:Agent>
    </dc:creator>
   </cc:Work>
  </rdf:RDF>
 </metadata>
 <defs>
  <style type="text/css">*{stroke-linejoin: round; stroke-linecap: butt}</style>
 </defs>
 <g id="figure_1">
  <g id="patch_1">
   <path d="M -0 231.585313 
L 892.475 231.585313 
L 892.475 0 
L -0 0 
L -0 231.585313 
z
" style="fill: none"/>
  </g>
  <g id="axes_1">
   <g id="patch_2">
    <path d="M 48.275 190.157813 
L 294.451471 190.157813 
L 294.451471 23.837813 
L 48.275 23.837813 
z
" style="fill: #fdfeff; fill-opacity: 0.6"/>
   </g>
   <g id="matplotlib.axis_1">
    <g id="xtick_1">
     <g id="line2d_1">
      <defs>
       <path id="m3164a187d7" d="M 0 0 
L 0 4 
" style="stroke: #333333; stroke-width: 1.2"/>
      </defs>
      <g>
       <use xlink:href="#m3164a187d7" x="58.163541" y="190.157813" style="fill: #333333; stroke: #333333; stroke-width: 1.2"/>
      </g>
     </g>
     <g id="text_1">
      <!-- 0 -->
      <g style="fill: #333333" transform="translate(54.664166 205.516094) scale(0.11 -0.11)">
       <defs>
        <path id="DejaVuSans-30" d="M 2034 4250 
Q 1547 4250 1301 3770 
Q 1056 3291 1056 2328 
Q 1056 1369 1301 889 
Q 1547 409 2034 409 
Q 2525 409 2770 889 
Q 3016 1369 3016 2328 
Q 3016 3291 2770 3770 
Q 2525 4250 2034 4250 
z
M 2034 4750 
Q 2819 4750 3233 4129 
Q 3647 3509 3647 2328 
Q 3647 1150 3233 529 
Q 2819 -91 2034 -91 
Q 1250 -91 836 529 
Q 422 1150 422 2328 
Q 422 3509 836 4129 
Q 1250 4750 2034 4750 
z
" transform="scale(0.015625)"/>
       </defs>
       <use xlink:href="#DejaVuSans-30"/>
      </g>
     </g>
    </g>
    <g id="xtick_2">
     <g id="line2d_2">
      <g>
       <use xlink:href="#m3164a187d7" x="94.679571" y="190.157813" style="fill: #333333; stroke: #333333; stroke-width: 1.2"/>
      </g>
     </g>
     <g id="text_2">
      <!-- 5 -->
      <g style="fill: #333333" transform="translate(91.180196 205.516094) scale(0.11 -0.11)">
       <defs>
        <path id="DejaVuSans-35" d="M 691 4666 
L 3169 4666 
L 3169 4134 
L 1269 4134 
L 1269 2991 
Q 1406 3038 1543 3061 
Q 1681 3084 1819 3084 
Q 2600 3084 3056 2656 
Q 3513 2228 3513 1497 
Q 3513 744 3044 326 
Q 2575 -91 1722 -91 
Q 1428 -91 1123 -41 
Q 819 9 494 109 
L 494 744 
Q 775 591 1075 516 
Q 1375 441 1709 441 
Q 2250 441 2565 725 
Q 2881 1009 2881 1497 
Q 2881 1984 2565 2268 
Q 2250 2553 1709 2553 
Q 1456 2553 1204 2497 
Q 953 2441 691 2322 
L 691 4666 
z
" transform="scale(0.015625)"/>
       </defs>
       <use xlink:href="#DejaVuSans-35"/>
      </g>
     </g>
    </g>
    <g id="xtick_3">
     <g id="line2d_3">
      <g>
       <use xlink:href="#m3164a187d7" x="131.195602" y="190.157813" style="fill: #333333; stroke: #333333; stroke-width: 1.2"/>
      </g>
     </g>
     <g id="text_3">
      <!-- 10 -->
      <g style="fill: #333333" transform="translate(124.196852 205.516094) scale(0.11 -0.11)">
       <defs>
        <path id="DejaVuSans-31" d="M 794 531 
L 1825 531 
L 1825 4091 
L 703 3866 
L 703 4441 
L 1819 4666 
L 2450 4666 
L 2450 531 
L 3481 531 
L 3481 0 
L 794 0 
L 794 531 
z
" transform="scale(0.015625)"/>
       </defs>
       <use xlink:href="#DejaVuSans-31"/>
       <use xlink:href="#DejaVuSans-30" x="63.623047"/>
      </g>
     </g>
    </g>
    <g id="xtick_4">
     <g id="line2d_4">
      <g>
       <use xlink:href="#m3164a187d7" x="167.711632" y="190.157813" style="fill: #333333; stroke: #333333; stroke-width: 1.2"/>
      </g>
     </g>
     <g id="text_4">
      <!-- 15 -->
      <g style="fill: #333333" transform="translate(160.712882 205.516094) scale(0.11 -0.11)">
       <use xlink:href="#DejaVuSans-31"/>
       <use xlink:href="#DejaVuSans-35" x="63.623047"/>
      </g>
     </g>
    </g>
    <g id="xtick_5">
     <g id="line2d_5">
      <g>
       <use xlink:href="#m3164a187d7" x="204.227663" y="190.157813" style="fill: #333333; stroke: #333333; stroke-width: 1.2"/>
      </g>
     </g>
     <g id="text_5">
      <!-- 20 -->
      <g style="fill: #333333" transform="translate(197.228913 205.516094) scale(0.11 -0.11)">
       <defs>
        <path id="DejaVuSans-32" d="M 1228 531 
L 3431 531 
L 3431 0 
L 469 0 
L 469 531 
Q 828 903 1448 1529 
Q 2069 2156 2228 2338 
Q 2531 2678 2651 2914 
Q 2772 3150 2772 3378 
Q 2772 3750 2511 3984 
Q 2250 4219 1831 4219 
Q 1534 4219 1204 4116 
Q 875 4013 500 3803 
L 500 4441 
Q 881 4594 1212 4672 
Q 1544 4750 1819 4750 
Q 2544 4750 2975 4387 
Q 3406 4025 3406 3419 
Q 3406 3131 3298 2873 
Q 3191 2616 2906 2266 
Q 2828 2175 2409 1742 
Q 1991 1309 1228 531 
z
" transform="scale(0.015625)"/>
       </defs>
       <use xlink:href="#DejaVuSans-32"/>
       <use xlink:href="#DejaVuSans-30" x="63.623047"/>
      </g>
     </g>
    </g>
    <g id="xtick_6">
     <g id="line2d_6">
      <g>
       <use xlink:href="#m3164a187d7" x="240.743693" y="190.157813" style="fill: #333333; stroke: #333333; stroke-width: 1.2"/>
      </g>
     </g>
     <g id="text_6">
      <!-- 25 -->
      <g style="fill: #333333" transform="translate(233.744943 205.516094) scale(0.11 -0.11)">
       <use xlink:href="#DejaVuSans-32"/>
       <use xlink:href="#DejaVuSans-35" x="63.623047"/>
      </g>
     </g>
    </g>
    <g id="xtick_7">
     <g id="line2d_7">
      <g>
       <use xlink:href="#m3164a187d7" x="277.259723" y="190.157813" style="fill: #333333; stroke: #333333; stroke-width: 1.2"/>
      </g>
     </g>
     <g id="text_7">
      <!-- 30 -->
      <g style="fill: #333333" transform="translate(270.260973 205.516094) scale(0.11 -0.11)">
       <defs>
        <path id="DejaVuSans-33" d="M 2597 2516 
Q 3050 2419 3304 2112 
Q 3559 1806 3559 1356 
Q 3559 666 3084 287 
Q 2609 -91 1734 -91 
Q 1441 -91 1130 -33 
Q 819 25 488 141 
L 488 750 
Q 750 597 1062 519 
Q 1375 441 1716 441 
Q 2309 441 2620 675 
Q 2931 909 2931 1356 
Q 2931 1769 2642 2001 
Q 2353 2234 1838 2234 
L 1294 2234 
L 1294 2753 
L 1863 2753 
Q 2328 2753 2575 2939 
Q 2822 3125 2822 3475 
Q 2822 3834 2567 4026 
Q 2313 4219 1838 4219 
Q 1578 4219 1281 4162 
Q 984 4106 628 3988 
L 628 4550 
Q 988 4650 1302 4700 
Q 1616 4750 1894 4750 
Q 2613 4750 3031 4423 
Q 3450 4097 3450 3541 
Q 3450 3153 3228 2886 
Q 3006 2619 2597 2516 
z
" transform="scale(0.015625)"/>
       </defs>
       <use xlink:href="#DejaVuSans-33"/>
       <use xlink:href="#DejaVuSans-30" x="63.623047"/>
      </g>
     </g>
    </g>
    <g id="text_8">
     <!-- wire number -->
     <g style="fill: #333333" transform="translate(130.28222 221.681719) scale(0.13 -0.13)">
      <defs>
       <path id="DejaVuSans-77" d="M 269 3500 
L 844 3500 
L 1563 769 
L 2278 3500 
L 2956 3500 
L 3675 769 
L 4391 3500 
L 4966 3500 
L 4050 0 
L 3372 0 
L 2619 2869 
L 1863 0 
L 1184 0 
L 269 3500 
z
" transform="scale(0.015625)"/>
       <path id="DejaVuSans-69" d="M 603 3500 
L 1178 3500 
L 1178 0 
L 603 0 
L 603 3500 
z
M 603 4863 
L 1178 4863 
L 1178 4134 
L 603 4134 
L 603 4863 
z
" transform="scale(0.015625)"/>
       <path id="DejaVuSans-72" d="M 2631 2963 
Q 2534 3019 2420 3045 
Q 2306 3072 2169 3072 
Q 1681 3072 1420 2755 
Q 1159 2438 1159 1844 
L 1159 0 
L 581 0 
L 581 3500 
L 1159 3500 
L 1159 2956 
Q 1341 3275 1631 3429 
Q 1922 3584 2338 3584 
Q 2397 3584 2469 3576 
Q 2541 3569 2628 3553 
L 2631 2963 
z
" transform="scale(0.015625)"/>
       <path id="DejaVuSans-65" d="M 3597 1894 
L 3597 1613 
L 953 1613 
Q 991 1019 1311 708 
Q 1631 397 2203 397 
Q 2534 397 2845 478 
Q 3156 559 3463 722 
L 3463 178 
Q 3153 47 2828 -22 
Q 2503 -91 2169 -91 
Q 1331 -91 842 396 
Q 353 884 353 1716 
Q 353 2575 817 3079 
Q 1281 3584 2069 3584 
Q 2775 3584 3186 3129 
Q 3597 2675 3597 1894 
z
M 3022 2063 
Q 3016 2534 2758 2815 
Q 2500 3097 2075 3097 
Q 1594 3097 1305 2825 
Q 1016 2553 972 2059 
L 3022 2063 
z
" transform="scale(0.015625)"/>
       <path id="DejaVuSans-20" transform="scale(0.015625)"/>
       <path id="DejaVuSans-6e" d="M 3513 2113 
L 3513 0 
L 2938 0 
L 2938 2094 
Q 2938 2591 2744 2837 
Q 2550 3084 2163 3084 
Q 1697 3084 1428 2787 
Q 1159 2491 1159 1978 
L 1159 0 
L 581 0 
L 581 3500 
L 1159 3500 
L 1159 2956 
Q 1366 3272 1645 3428 
Q 1925 3584 2291 3584 
Q 2894 3584 3203 3211 
Q 3513 2838 3513 2113 
z
" transform="scale(0.015625)"/>
       <path id="DejaVuSans-75" d="M 544 1381 
L 544 3500 
L 1119 3500 
L 1119 1403 
Q 1119 906 1312 657 
Q 1506 409 1894 409 
Q 2359 409 2629 706 
Q 2900 1003 2900 1516 
L 2900 3500 
L 3475 3500 
L 3475 0 
L 2900 0 
L 2900 538 
Q 2691 219 2414 64 
Q 2138 -91 1772 -91 
Q 1169 -91 856 284 
Q 544 659 544 1381 
z
M 1991 3584 
L 1991 3584 
z
" transform="scale(0.015625)"/>
       <path id="DejaVuSans-6d" d="M 3328 2828 
Q 3544 3216 3844 3400 
Q 4144 3584 4550 3584 
Q 5097 3584 5394 3201 
Q 5691 2819 5691 2113 
L 5691 0 
L 5113 0 
L 5113 2094 
Q 5113 2597 4934 2840 
Q 4756 3084 4391 3084 
Q 3944 3084 3684 2787 
Q 3425 2491 3425 1978 
L 3425 0 
L 2847 0 
L 2847 2094 
Q 2847 2600 2669 2842 
Q 2491 3084 2119 3084 
Q 1678 3084 1418 2786 
Q 1159 2488 1159 1978 
L 1159 0 
L 581 0 
L 581 3500 
L 1159 3500 
L 1159 2956 
Q 1356 3278 1631 3431 
Q 1906 3584 2284 3584 
Q 2666 3584 2933 3390 
Q 3200 3197 3328 2828 
z
" transform="scale(0.015625)"/>
       <path id="DejaVuSans-62" d="M 3116 1747 
Q 3116 2381 2855 2742 
Q 2594 3103 2138 3103 
Q 1681 3103 1420 2742 
Q 1159 2381 1159 1747 
Q 1159 1113 1420 752 
Q 1681 391 2138 391 
Q 2594 391 2855 752 
Q 3116 1113 3116 1747 
z
M 1159 2969 
Q 1341 3281 1617 3432 
Q 1894 3584 2278 3584 
Q 2916 3584 3314 3078 
Q 3713 2572 3713 1747 
Q 3713 922 3314 415 
Q 2916 -91 2278 -91 
Q 1894 -91 1617 61 
Q 1341 213 1159 525 
L 1159 0 
L 581 0 
L 581 4863 
L 1159 4863 
L 1159 2969 
z
" transform="scale(0.015625)"/>
      </defs>
      <use xlink:href="#DejaVuSans-77"/>
      <use xlink:href="#DejaVuSans-69" x="81.787109"/>
      <use xlink:href="#DejaVuSans-72" x="109.570312"/>
      <use xlink:href="#DejaVuSans-65" x="148.433594"/>
      <use xlink:href="#DejaVuSans-20" x="209.957031"/>
      <use xlink:href="#DejaVuSans-6e" x="241.744141"/>
      <use xlink:href="#DejaVuSans-75" x="305.123047"/>
      <use xlink:href="#DejaVuSans-6d" x="368.501953"/>
      <use xlink:href="#DejaVuSans-62" x="465.914062"/>
      <use xlink:href="#DejaVuSans-65" x="529.390625"/>
      <use xlink:href="#DejaVuSans-72" x="590.914062"/>
     </g>
    </g>
   </g>
   <g id="matplotlib.axis_2">
    <g id="ytick_1">
     <g id="line2d_8">
      <defs>
       <path id="mf7abb0a130" d="M 0 0 
L -4 0 
" style="stroke: #333333; stroke-width: 1.2"/>
      </defs>
      <g>
       <use xlink:href="#mf7abb0a130" x="48.275" y="190.157813" style="fill: #333333; stroke: #333333; stroke-width: 1.2"/>
      </g>
     </g>
     <g id="text_9">
      <!-- 0.0 -->
      <g style="fill: #333333" transform="translate(23.781563 194.336953) scale(0.11 -0.11)">
       <defs>
        <path id="DejaVuSans-2e" d="M 684 794 
L 1344 794 
L 1344 0 
L 684 0 
L 684 794 
z
" transform="scale(0.015625)"/>
       </defs>
       <use xlink:href="#DejaVuSans-30"/>
       <use xlink:href="#DejaVuSans-2e" x="63.623047"/>
       <use xlink:href="#DejaVuSans-30" x="95.410156"/>
      </g>
     </g>
    </g>
    <g id="ytick_2">
     <g id="line2d_9">
      <g>
       <use xlink:href="#mf7abb0a130" x="48.275" y="153.702769" style="fill: #333333; stroke: #333333; stroke-width: 1.2"/>
      </g>
     </g>
     <g id="text_10">
      <!-- 0.1 -->
      <g style="fill: #333333" transform="translate(23.781563 157.88191) scale(0.11 -0.11)">
       <use xlink:href="#DejaVuSans-30"/>
       <use xlink:href="#DejaVuSans-2e" x="63.623047"/>
       <use xlink:href="#DejaVuSans-31" x="95.410156"/>
      </g>
     </g>
    </g>
    <g id="ytick_3">
     <g id="line2d_10">
      <g>
       <use xlink:href="#mf7abb0a130" x="48.275" y="117.247726" style="fill: #333333; stroke: #333333; stroke-width: 1.2"/>
      </g>
     </g>
     <g id="text_11">
      <!-- 0.2 -->
      <g style="fill: #333333" transform="translate(23.781563 121.426867) scale(0.11 -0.11)">
       <use xlink:href="#DejaVuSans-30"/>
       <use xlink:href="#DejaVuSans-2e" x="63.623047"/>
       <use xlink:href="#DejaVuSans-32" x="95.410156"/>
      </g>
     </g>
    </g>
    <g id="ytick_4">
     <g id="line2d_11">
      <g>
       <use xlink:href="#mf7abb0a130" x="48.275" y="80.792683" style="fill: #333333; stroke: #333333; stroke-width: 1.2"/>
      </g>
     </g>
     <g id="text_12">
      <!-- 0.3 -->
      <g style="fill: #333333" transform="translate(23.781563 84.971823) scale(0.11 -0.11)">
       <use xlink:href="#DejaVuSans-30"/>
       <use xlink:href="#DejaVuSans-2e" x="63.623047"/>
       <use xlink:href="#DejaVuSans-33" x="95.410156"/>
      </g>
     </g>
    </g>
    <g id="ytick_5">
     <g id="line2d_12">
      <g>
       <use xlink:href="#mf7abb0a130" x="48.275" y="44.337639" style="fill: #333333; stroke: #333333; stroke-width: 1.2"/>
      </g>
     </g>
     <g id="text_13">
      <!-- 0.4 -->
      <g style="fill: #333333" transform="translate(23.781563 48.51678) scale(0.11 -0.11)">
       <defs>
        <path id="DejaVuSans-34" d="M 2419 4116 
L 825 1625 
L 2419 1625 
L 2419 4116 
z
M 2253 4666 
L 3047 4666 
L 3047 1625 
L 3713 1625 
L 3713 1100 
L 3047 1100 
L 3047 0 
L 2419 0 
L 2419 1100 
L 313 1100 
L 313 1709 
L 2253 4666 
z
" transform="scale(0.015625)"/>
       </defs>
       <use xlink:href="#DejaVuSans-30"/>
       <use xlink:href="#DejaVuSans-2e" x="63.623047"/>
       <use xlink:href="#DejaVuSans-34" x="95.410156"/>
      </g>
     </g>
    </g>
    <g id="text_14">
     <!-- count rate (Mcps) -->
     <g style="fill: #333333" transform="translate(17.077969 164.4375) rotate(-90) scale(0.13 -0.13)">
      <defs>
       <path id="DejaVuSans-63" d="M 3122 3366 
L 3122 2828 
Q 2878 2963 2633 3030 
Q 2388 3097 2138 3097 
Q 1578 3097 1268 2742 
Q 959 2388 959 1747 
Q 959 1106 1268 751 
Q 1578 397 2138 397 
Q 2388 397 2633 464 
Q 2878 531 3122 666 
L 3122 134 
Q 2881 22 2623 -34 
Q 2366 -91 2075 -91 
Q 1284 -91 818 406 
Q 353 903 353 1747 
Q 353 2603 823 3093 
Q 1294 3584 2113 3584 
Q 2378 3584 2631 3529 
Q 2884 3475 3122 3366 
z
" transform="scale(0.015625)"/>
       <path id="DejaVuSans-6f" d="M 1959 3097 
Q 1497 3097 1228 2736 
Q 959 2375 959 1747 
Q 959 1119 1226 758 
Q 1494 397 1959 397 
Q 2419 397 2687 759 
Q 2956 1122 2956 1747 
Q 2956 2369 2687 2733 
Q 2419 3097 1959 3097 
z
M 1959 3584 
Q 2709 3584 3137 3096 
Q 3566 2609 3566 1747 
Q 3566 888 3137 398 
Q 2709 -91 1959 -91 
Q 1206 -91 779 398 
Q 353 888 353 1747 
Q 353 2609 779 3096 
Q 1206 3584 1959 3584 
z
" transform="scale(0.015625)"/>
       <path id="DejaVuSans-74" d="M 1172 4494 
L 1172 3500 
L 2356 3500 
L 2356 3053 
L 1172 3053 
L 1172 1153 
Q 1172 725 1289 603 
Q 1406 481 1766 481 
L 2356 481 
L 2356 0 
L 1766 0 
Q 1100 0 847 248 
Q 594 497 594 1153 
L 594 3053 
L 172 3053 
L 172 3500 
L 594 3500 
L 594 4494 
L 1172 4494 
z
" transform="scale(0.015625)"/>
       <path id="DejaVuSans-61" d="M 2194 1759 
Q 1497 1759 1228 1600 
Q 959 1441 959 1056 
Q 959 750 1161 570 
Q 1363 391 1709 391 
Q 2188 391 2477 730 
Q 2766 1069 2766 1631 
L 2766 1759 
L 2194 1759 
z
M 3341 1997 
L 3341 0 
L 2766 0 
L 2766 531 
Q 2569 213 2275 61 
Q 1981 -91 1556 -91 
Q 1019 -91 701 211 
Q 384 513 384 1019 
Q 384 1609 779 1909 
Q 1175 2209 1959 2209 
L 2766 2209 
L 2766 2266 
Q 2766 2663 2505 2880 
Q 2244 3097 1772 3097 
Q 1472 3097 1187 3025 
Q 903 2953 641 2809 
L 641 3341 
Q 956 3463 1253 3523 
Q 1550 3584 1831 3584 
Q 2591 3584 2966 3190 
Q 3341 2797 3341 1997 
z
" transform="scale(0.015625)"/>
       <path id="DejaVuSans-28" d="M 1984 4856 
Q 1566 4138 1362 3434 
Q 1159 2731 1159 2009 
Q 1159 1288 1364 580 
Q 1569 -128 1984 -844 
L 1484 -844 
Q 1016 -109 783 600 
Q 550 1309 550 2009 
Q 550 2706 781 3412 
Q 1013 4119 1484 4856 
L 1984 4856 
z
" transform="scale(0.015625)"/>
       <path id="DejaVuSans-4d" d="M 628 4666 
L 1569 4666 
L 2759 1491 
L 3956 4666 
L 4897 4666 
L 4897 0 
L 4281 0 
L 4281 4097 
L 3078 897 
L 2444 897 
L 1241 4097 
L 1241 0 
L 628 0 
L 628 4666 
z
" transform="scale(0.015625)"/>
       <path id="DejaVuSans-70" d="M 1159 525 
L 1159 -1331 
L 581 -1331 
L 581 3500 
L 1159 3500 
L 1159 2969 
Q 1341 3281 1617 3432 
Q 1894 3584 2278 3584 
Q 2916 3584 3314 3078 
Q 3713 2572 3713 1747 
Q 3713 922 3314 415 
Q 2916 -91 2278 -91 
Q 1894 -91 1617 61 
Q 1341 213 1159 525 
z
M 3116 1747 
Q 3116 2381 2855 2742 
Q 2594 3103 2138 3103 
Q 1681 3103 1420 2742 
Q 1159 2381 1159 1747 
Q 1159 1113 1420 752 
Q 1681 391 2138 391 
Q 2594 391 2855 752 
Q 3116 1113 3116 1747 
z
" transform="scale(0.015625)"/>
       <path id="DejaVuSans-73" d="M 2834 3397 
L 2834 2853 
Q 2591 2978 2328 3040 
Q 2066 3103 1784 3103 
Q 1356 3103 1142 2972 
Q 928 2841 928 2578 
Q 928 2378 1081 2264 
Q 1234 2150 1697 2047 
L 1894 2003 
Q 2506 1872 2764 1633 
Q 3022 1394 3022 966 
Q 3022 478 2636 193 
Q 2250 -91 1575 -91 
Q 1294 -91 989 -36 
Q 684 19 347 128 
L 347 722 
Q 666 556 975 473 
Q 1284 391 1588 391 
Q 1994 391 2212 530 
Q 2431 669 2431 922 
Q 2431 1156 2273 1281 
Q 2116 1406 1581 1522 
L 1381 1569 
Q 847 1681 609 1914 
Q 372 2147 372 2553 
Q 372 3047 722 3315 
Q 1072 3584 1716 3584 
Q 2034 3584 2315 3537 
Q 2597 3491 2834 3397 
z
" transform="scale(0.015625)"/>
       <path id="DejaVuSans-29" d="M 513 4856 
L 1013 4856 
Q 1481 4119 1714 3412 
Q 1947 2706 1947 2009 
Q 1947 1309 1714 600 
Q 1481 -109 1013 -844 
L 513 -844 
Q 928 -128 1133 580 
Q 1338 1288 1338 2009 
Q 1338 2731 1133 3434 
Q 928 4138 513 4856 
z
" transform="scale(0.015625)"/>
      </defs>
      <use xlink:href="#DejaVuSans-63"/>
      <use xlink:href="#DejaVuSans-6f" x="54.980469"/>
      <use xlink:href="#DejaVuSans-75" x="116.162109"/>
      <use xlink:href="#DejaVuSans-6e" x="179.541016"/>
      <use xlink:href="#DejaVuSans-74" x="242.919922"/>
      <use xlink:href="#DejaVuSans-20" x="282.128906"/>
      <use xlink:href="#DejaVuSans-72" x="313.916016"/>
      <use xlink:href="#DejaVuSans-61" x="355.029297"/>
      <use xlink:href="#DejaVuSans-74" x="416.308594"/>
      <use xlink:href="#DejaVuSans-65" x="455.517578"/>
      <use xlink:href="#DejaVuSans-20" x="517.041016"/>
      <use xlink:href="#DejaVuSans-28" x="548.828125"/>
      <use xlink:href="#DejaVuSans-4d" x="587.841797"/>
      <use xlink:href="#DejaVuSans-63" x="674.121094"/>
      <use xlink:href="#DejaVuSans-70" x="729.101562"/>
      <use xlink:href="#DejaVuSans-73" x="792.578125"/>
      <use xlink:href="#DejaVuSans-29" x="844.677734"/>
     </g>
    </g>
   </g>
   <g id="patch_3">
    <path d="M 55.242259 190.157813 
L 61.084823 190.157813 
L 61.084823 177.992765 
L 55.242259 177.992765 
z
" clip-path="url(#p5bf72a748d)" style="fill: #a3a2a2; opacity: 0.5"/>
   </g>
   <g id="patch_4">
    <path d="M 62.545465 190.157813 
L 68.38803 190.157813 
L 68.38803 173.3298 
L 62.545465 173.3298 
z
" clip-path="url(#p5bf72a748d)" style="fill: #a3a2a2; opacity: 0.5"/>
   </g>
   <g id="patch_5">
    <path d="M 69.848671 190.157813 
L 75.691236 190.157813 
L 75.691236 167.695673 
L 69.848671 167.695673 
z
" clip-path="url(#p5bf72a748d)" style="fill: #a3a2a2; opacity: 0.5"/>
   </g>
   <g id="patch_6">
    <path d="M 77.151877 190.157813 
L 82.994442 190.157813 
L 82.994442 159.430221 
L 77.151877 159.430221 
z
" clip-path="url(#p5bf72a748d)" style="fill: #a3a2a2; opacity: 0.5"/>
   </g>
   <g id="patch_7">
    <path d="M 84.455083 190.157813 
L 90.297648 190.157813 
L 90.297648 149.517366 
L 84.455083 149.517366 
z
" clip-path="url(#p5bf72a748d)" style="fill: #a3a2a2; opacity: 0.5"/>
   </g>
   <g id="patch_8">
    <path d="M 91.758289 190.157813 
L 97.600854 190.157813 
L 97.600854 139.998589 
L 91.758289 139.998589 
z
" clip-path="url(#p5bf72a748d)" style="fill: #a3a2a2; opacity: 0.5"/>
   </g>
   <g id="patch_9">
    <path d="M 99.061495 190.157813 
L 104.90406 190.157813 
L 104.90406 125.698369 
L 99.061495 125.698369 
z
" clip-path="url(#p5bf72a748d)" style="fill: #a3a2a2; opacity: 0.5"/>
   </g>
   <g id="patch_10">
    <path d="M 106.364701 190.157813 
L 112.207266 190.157813 
L 112.207266 110.493335 
L 106.364701 110.493335 
z
" clip-path="url(#p5bf72a748d)" style="fill: #a3a2a2; opacity: 0.5"/>
   </g>
   <g id="patch_11">
    <path d="M 113.667907 190.157813 
L 119.510472 190.157813 
L 119.510472 98.286364 
L 113.667907 98.286364 
z
" clip-path="url(#p5bf72a748d)" style="fill: #a3a2a2; opacity: 0.5"/>
   </g>
   <g id="patch_12">
    <path d="M 120.971113 190.157813 
L 126.813678 190.157813 
L 126.813678 81.292846 
L 120.971113 81.292846 
z
" clip-path="url(#p5bf72a748d)" style="fill: #a3a2a2; opacity: 0.5"/>
   </g>
   <g id="patch_13">
    <path d="M 128.274319 190.157813 
L 134.116884 190.157813 
L 134.116884 65.494324 
L 128.274319 65.494324 
z
" clip-path="url(#p5bf72a748d)" style="fill: #a3a2a2; opacity: 0.5"/>
   </g>
   <g id="patch_14">
    <path d="M 135.577525 190.157813 
L 141.42009 190.157813 
L 141.42009 55.125416 
L 135.577525 55.125416 
z
" clip-path="url(#p5bf72a748d)" style="fill: #a3a2a2; opacity: 0.5"/>
   </g>
   <g id="patch_15">
    <path d="M 142.880732 190.157813 
L 148.723296 190.157813 
L 148.723296 41.342128 
L 142.880732 41.342128 
z
" clip-path="url(#p5bf72a748d)" style="fill: #a3a2a2; opacity: 0.5"/>
   </g>
   <g id="patch_16">
    <path d="M 150.183938 190.157813 
L 156.026503 190.157813 
L 156.026503 32.880184 
L 150.183938 32.880184 
z
" clip-path="url(#p5bf72a748d)" style="fill: #a3a2a2; opacity: 0.5"/>
   </g>
   <g id="patch_17">
    <path d="M 157.487144 190.157813 
L 163.329709 190.157813 
L 163.329709 35.406883 
L 157.487144 35.406883 
z
" clip-path="url(#p5bf72a748d)" style="fill: #a3a2a2; opacity: 0.5"/>
   </g>
   <g id="patch_18">
    <path d="M 164.79035 190.157813 
L 170.632915 190.157813 
L 170.632915 33.684382 
L 164.79035 33.684382 
z
" clip-path="url(#p5bf72a748d)" style="fill: #a3a2a2; opacity: 0.5"/>
   </g>
   <g id="patch_19">
    <path d="M 172.093556 190.157813 
L 177.936121 190.157813 
L 177.936121 35.895745 
L 172.093556 35.895745 
z
" clip-path="url(#p5bf72a748d)" style="fill: #a3a2a2; opacity: 0.5"/>
   </g>
   <g id="patch_20">
    <path d="M 179.396762 190.157813 
L 185.239327 190.157813 
L 185.239327 45.576746 
L 179.396762 45.576746 
z
" clip-path="url(#p5bf72a748d)" style="fill: #a3a2a2; opacity: 0.5"/>
   </g>
   <g id="patch_21">
    <path d="M 186.699968 190.157813 
L 192.542533 190.157813 
L 192.542533 57.450883 
L 186.699968 57.450883 
z
" clip-path="url(#p5bf72a748d)" style="fill: #a3a2a2; opacity: 0.5"/>
   </g>
   <g id="patch_22">
    <path d="M 194.003174 190.157813 
L 199.845739 190.157813 
L 199.845739 75.503056 
L 194.003174 75.503056 
z
" clip-path="url(#p5bf72a748d)" style="fill: #a3a2a2; opacity: 0.5"/>
   </g>
   <g id="patch_23">
    <path d="M 201.30638 190.157813 
L 207.148945 190.157813 
L 207.148945 87.73591 
L 201.30638 87.73591 
z
" clip-path="url(#p5bf72a748d)" style="fill: #a3a2a2; opacity: 0.5"/>
   </g>
   <g id="patch_24">
    <path d="M 208.609586 190.157813 
L 214.452151 190.157813 
L 214.452151 107.362212 
L 208.609586 107.362212 
z
" clip-path="url(#p5bf72a748d)" style="fill: #a3a2a2; opacity: 0.5"/>
   </g>
   <g id="patch_25">
    <path d="M 215.912792 190.157813 
L 221.755357 190.157813 
L 221.755357 116.12163 
L 215.912792 116.12163 
z
" clip-path="url(#p5bf72a748d)" style="fill: #a3a2a2; opacity: 0.5"/>
   </g>
   <g id="patch_26">
    <path d="M 223.215998 190.157813 
L 229.058563 190.157813 
L 229.058563 130.619436 
L 223.215998 130.619436 
z
" clip-path="url(#p5bf72a748d)" style="fill: #a3a2a2; opacity: 0.5"/>
   </g>
   <g id="patch_27">
    <path d="M 230.519205 190.157813 
L 236.361769 190.157813 
L 236.361769 143.641906 
L 230.519205 143.641906 
z
" clip-path="url(#p5bf72a748d)" style="fill: #a3a2a2; opacity: 0.5"/>
   </g>
   <g id="patch_28">
    <path d="M 237.822411 190.157813 
L 243.664975 190.157813 
L 243.664975 154.861675 
L 237.822411 154.861675 
z
" clip-path="url(#p5bf72a748d)" style="fill: #a3a2a2; opacity: 0.5"/>
   </g>
   <g id="patch_29">
    <path d="M 245.125617 190.157813 
L 250.968182 190.157813 
L 250.968182 163.307215 
L 245.125617 163.307215 
z
" clip-path="url(#p5bf72a748d)" style="fill: #a3a2a2; opacity: 0.5"/>
   </g>
   <g id="patch_30">
    <path d="M 252.428823 190.157813 
L 258.271388 190.157813 
L 258.271388 168.747401 
L 252.428823 168.747401 
z
" clip-path="url(#p5bf72a748d)" style="fill: #a3a2a2; opacity: 0.5"/>
   </g>
   <g id="patch_31">
    <path d="M 259.732029 190.157813 
L 265.574594 190.157813 
L 265.574594 175.039177 
L 259.732029 175.039177 
z
" clip-path="url(#p5bf72a748d)" style="fill: #a3a2a2; opacity: 0.5"/>
   </g>
   <g id="patch_32">
    <path d="M 267.035235 190.157813 
L 272.8778 190.157813 
L 272.8778 179.18047 
L 267.035235 179.18047 
z
" clip-path="url(#p5bf72a748d)" style="fill: #a3a2a2; opacity: 0.5"/>
   </g>
   <g id="patch_33">
    <path d="M 274.338441 190.157813 
L 280.181006 190.157813 
L 280.181006 182.0061 
L 274.338441 182.0061 
z
" clip-path="url(#p5bf72a748d)" style="fill: #a3a2a2; opacity: 0.5"/>
   </g>
   <g id="patch_34">
    <path d="M 281.641647 190.157813 
L 287.484212 190.157813 
L 287.484212 184.357451 
L 281.641647 184.357451 
z
" clip-path="url(#p5bf72a748d)" style="fill: #a3a2a2; opacity: 0.5"/>
   </g>
   <g id="patch_35">
    <path d="M 56.7029 190.157813 
L 59.624182 190.157813 
L 59.624182 149.950128 
L 56.7029 149.950128 
z
" clip-path="url(#p5bf72a748d)" style="fill: #3c5da6; opacity: 0.7"/>
   </g>
   <g id="patch_36">
    <path d="M 64.006106 190.157813 
L 66.927388 190.157813 
L 66.927388 149.950128 
L 64.006106 149.950128 
z
" clip-path="url(#p5bf72a748d)" style="fill: #3c5da6; opacity: 0.7"/>
   </g>
   <g id="patch_37">
    <path d="M 71.309312 190.157813 
L 74.230594 190.157813 
L 74.230594 149.950128 
L 71.309312 149.950128 
z
" clip-path="url(#p5bf72a748d)" style="fill: #3c5da6; opacity: 0.7"/>
   </g>
   <g id="patch_38">
    <path d="M 78.612518 190.157813 
L 81.5338 190.157813 
L 81.5338 149.950128 
L 78.612518 149.950128 
z
" clip-path="url(#p5bf72a748d)" style="fill: #3c5da6; opacity: 0.7"/>
   </g>
   <g id="patch_39">
    <path d="M 85.915724 190.157813 
L 88.837007 190.157813 
L 88.837007 149.950128 
L 85.915724 149.950128 
z
" clip-path="url(#p5bf72a748d)" style="fill: #3c5da6; opacity: 0.7"/>
   </g>
   <g id="patch_40">
    <path d="M 93.21893 190.157813 
L 96.140213 190.157813 
L 96.140213 139.162624 
L 93.21893 139.162624 
z
" clip-path="url(#p5bf72a748d)" style="fill: #3c5da6; opacity: 0.7"/>
   </g>
   <g id="patch_41">
    <path d="M 100.522136 190.157813 
L 103.443419 190.157813 
L 103.443419 124.773279 
L 100.522136 124.773279 
z
" clip-path="url(#p5bf72a748d)" style="fill: #3c5da6; opacity: 0.7"/>
   </g>
   <g id="patch_42">
    <path d="M 107.825342 190.157813 
L 110.746625 190.157813 
L 110.746625 109.590173 
L 107.825342 109.590173 
z
" clip-path="url(#p5bf72a748d)" style="fill: #3c5da6; opacity: 0.7"/>
   </g>
   <g id="patch_43">
    <path d="M 115.128548 190.157813 
L 118.049831 190.157813 
L 118.049831 97.139466 
L 115.128548 97.139466 
z
" clip-path="url(#p5bf72a748d)" style="fill: #3c5da6; opacity: 0.7"/>
   </g>
   <g id="patch_44">
    <path d="M 122.431755 190.157813 
L 125.353037 190.157813 
L 125.353037 76.103622 
L 122.431755 76.103622 
z
" clip-path="url(#p5bf72a748d)" style="fill: #3c5da6; opacity: 0.7"/>
   </g>
   <g id="patch_45">
    <path d="M 129.734961 190.157813 
L 132.656243 190.157813 
L 132.656243 58.809821 
L 129.734961 58.809821 
z
" clip-path="url(#p5bf72a748d)" style="fill: #3c5da6; opacity: 0.7"/>
   </g>
   <g id="patch_46">
    <path d="M 137.038167 190.157813 
L 139.959449 190.157813 
L 139.959449 58.809821 
L 137.038167 58.809821 
z
" clip-path="url(#p5bf72a748d)" style="fill: #3c5da6; opacity: 0.7"/>
   </g>
   <g id="patch_47">
    <path d="M 144.341373 190.157813 
L 147.262655 190.157813 
L 147.262655 44.776244 
L 144.341373 44.776244 
z
" clip-path="url(#p5bf72a748d)" style="fill: #3c5da6; opacity: 0.7"/>
   </g>
   <g id="patch_48">
    <path d="M 151.644579 190.157813 
L 154.565861 190.157813 
L 154.565861 28.682084 
L 151.644579 28.682084 
z
" clip-path="url(#p5bf72a748d)" style="fill: #3c5da6; opacity: 0.7"/>
   </g>
   <g id="patch_49">
    <path d="M 158.947785 190.157813 
L 161.869067 190.157813 
L 161.869067 28.682084 
L 158.947785 28.682084 
z
" clip-path="url(#p5bf72a748d)" style="fill: #3c5da6; opacity: 0.7"/>
   </g>
   <g id="patch_50">
    <path d="M 166.250991 190.157813 
L 169.172273 190.157813 
L 169.172273 28.682084 
L 166.250991 28.682084 
z
" clip-path="url(#p5bf72a748d)" style="fill: #3c5da6; opacity: 0.7"/>
   </g>
   <g id="patch_51">
    <path d="M 173.554197 190.157813 
L 176.47548 190.157813 
L 176.47548 28.682084 
L 173.554197 28.682084 
z
" clip-path="url(#p5bf72a748d)" style="fill: #3c5da6; opacity: 0.7"/>
   </g>
   <g id="patch_52">
    <path d="M 180.857403 190.157813 
L 183.778686 190.157813 
L 183.778686 44.776244 
L 180.857403 44.776244 
z
" clip-path="url(#p5bf72a748d)" style="fill: #3c5da6; opacity: 0.7"/>
   </g>
   <g id="patch_53">
    <path d="M 188.160609 190.157813 
L 191.081892 190.157813 
L 191.081892 58.809821 
L 188.160609 58.809821 
z
" clip-path="url(#p5bf72a748d)" style="fill: #3c5da6; opacity: 0.7"/>
   </g>
   <g id="patch_54">
    <path d="M 195.463815 190.157813 
L 198.385098 190.157813 
L 198.385098 76.103622 
L 195.463815 76.103622 
z
" clip-path="url(#p5bf72a748d)" style="fill: #3c5da6; opacity: 0.7"/>
   </g>
   <g id="patch_55">
    <path d="M 202.767021 190.157813 
L 205.688304 190.157813 
L 205.688304 86.784631 
L 202.767021 86.784631 
z
" clip-path="url(#p5bf72a748d)" style="fill: #3c5da6; opacity: 0.7"/>
   </g>
   <g id="patch_56">
    <path d="M 210.070228 190.157813 
L 212.99151 190.157813 
L 212.99151 109.590173 
L 210.070228 109.590173 
z
" clip-path="url(#p5bf72a748d)" style="fill: #3c5da6; opacity: 0.7"/>
   </g>
   <g id="patch_57">
    <path d="M 217.373434 190.157813 
L 220.294716 190.157813 
L 220.294716 117.776869 
L 217.373434 117.776869 
z
" clip-path="url(#p5bf72a748d)" style="fill: #3c5da6; opacity: 0.7"/>
   </g>
   <g id="patch_58">
    <path d="M 224.67664 190.157813 
L 227.597922 190.157813 
L 227.597922 133.39799 
L 224.67664 133.39799 
z
" clip-path="url(#p5bf72a748d)" style="fill: #3c5da6; opacity: 0.7"/>
   </g>
   <g id="patch_59">
    <path d="M 231.979846 190.157813 
L 234.901128 190.157813 
L 234.901128 144.072056 
L 231.979846 144.072056 
z
" clip-path="url(#p5bf72a748d)" style="fill: #3c5da6; opacity: 0.7"/>
   </g>
   <g id="patch_60">
    <path d="M 239.283052 190.157813 
L 242.204334 190.157813 
L 242.204334 149.950128 
L 239.283052 149.950128 
z
" clip-path="url(#p5bf72a748d)" style="fill: #3c5da6; opacity: 0.7"/>
   </g>
   <g id="patch_61">
    <path d="M 246.586258 190.157813 
L 249.50754 190.157813 
L 249.50754 149.950128 
L 246.586258 149.950128 
z
" clip-path="url(#p5bf72a748d)" style="fill: #3c5da6; opacity: 0.7"/>
   </g>
   <g id="patch_62">
    <path d="M 253.889464 190.157813 
L 256.810746 190.157813 
L 256.810746 149.950128 
L 253.889464 149.950128 
z
" clip-path="url(#p5bf72a748d)" style="fill: #3c5da6; opacity: 0.7"/>
   </g>
   <g id="patch_63">
    <path d="M 261.19267 190.157813 
L 264.113953 190.157813 
L 264.113953 149.950128 
L 261.19267 149.950128 
z
" clip-path="url(#p5bf72a748d)" style="fill: #3c5da6; opacity: 0.7"/>
   </g>
   <g id="patch_64">
    <path d="M 268.495876 190.157813 
L 271.417159 190.157813 
L 271.417159 149.950128 
L 268.495876 149.950128 
z
" clip-path="url(#p5bf72a748d)" style="fill: #3c5da6; opacity: 0.7"/>
   </g>
   <g id="patch_65">
    <path d="M 275.799082 190.157813 
L 278.720365 190.157813 
L 278.720365 149.950128 
L 275.799082 149.950128 
z
" clip-path="url(#p5bf72a748d)" style="fill: #3c5da6; opacity: 0.7"/>
   </g>
   <g id="patch_66">
    <path d="M 283.102288 190.157813 
L 286.023571 190.157813 
L 286.023571 149.950128 
L 283.102288 149.950128 
z
" clip-path="url(#p5bf72a748d)" style="fill: #3c5da6; opacity: 0.7"/>
   </g>
   <g id="patch_67">
    <path d="M 48.275 190.157813 
L 48.275 23.837813 
" style="fill: none; stroke: #333333; stroke-width: 1.2; stroke-linejoin: miter; stroke-linecap: square"/>
   </g>
   <g id="patch_68">
    <path d="M 48.275 190.157813 
L 294.451471 190.157813 
" style="fill: none; stroke: #333333; stroke-width: 1.2; stroke-linejoin: miter; stroke-linecap: square"/>
   </g>
   <g id="text_15">
    <!-- 7 Mcps -->
    <g style="fill: #333333" transform="translate(146.705735 17.837813) scale(0.14 -0.14)">
     <defs>
      <path id="DejaVuSans-37" d="M 525 4666 
L 3525 4666 
L 3525 4397 
L 1831 0 
L 1172 0 
L 2766 4134 
L 525 4134 
L 525 4666 
z
" transform="scale(0.015625)"/>
     </defs>
     <use xlink:href="#DejaVuSans-37"/>
     <use xlink:href="#DejaVuSans-20" x="63.623047"/>
     <use xlink:href="#DejaVuSans-4d" x="95.410156"/>
     <use xlink:href="#DejaVuSans-63" x="181.689453"/>
     <use xlink:href="#DejaVuSans-70" x="236.669922"/>
     <use xlink:href="#DejaVuSans-73" x="300.146484"/>
    </g>
   </g>
   <g id="legend_1">
    <g id="patch_69">
     <path d="M 208.790064 35.456719 
L 222.790064 35.456719 
L 222.790064 30.556719 
L 208.790064 30.556719 
z
" style="fill: #a3a2a2; opacity: 0.5"/>
    </g>
    <g id="text_16">
     <!-- input rate -->
     <g style="fill: #333333" transform="translate(228.390064 35.456719) scale(0.07 -0.07)">
      <use xlink:href="#DejaVuSans-69"/>
      <use xlink:href="#DejaVuSans-6e" x="27.783203"/>
      <use xlink:href="#DejaVuSans-70" x="91.162109"/>
      <use xlink:href="#DejaVuSans-75" x="154.638672"/>
      <use xlink:href="#DejaVuSans-74" x="218.017578"/>
      <use xlink:href="#DejaVuSans-20" x="257.226562"/>
      <use xlink:href="#DejaVuSans-72" x="289.013672"/>
      <use xlink:href="#DejaVuSans-61" x="330.126953"/>
      <use xlink:href="#DejaVuSans-74" x="391.40625"/>
      <use xlink:href="#DejaVuSans-65" x="430.615234"/>
     </g>
    </g>
    <g id="patch_70">
     <path d="M 208.790064 45.731406 
L 222.790064 45.731406 
L 222.790064 40.831406 
L 208.790064 40.831406 
z
" style="fill: #3c5da6; opacity: 0.7"/>
    </g>
    <g id="text_17">
     <!-- rate used for sim -->
     <g style="fill: #333333" transform="translate(228.390064 45.731406) scale(0.07 -0.07)">
      <defs>
       <path id="DejaVuSans-64" d="M 2906 2969 
L 2906 4863 
L 3481 4863 
L 3481 0 
L 2906 0 
L 2906 525 
Q 2725 213 2448 61 
Q 2172 -91 1784 -91 
Q 1150 -91 751 415 
Q 353 922 353 1747 
Q 353 2572 751 3078 
Q 1150 3584 1784 3584 
Q 2172 3584 2448 3432 
Q 2725 3281 2906 2969 
z
M 947 1747 
Q 947 1113 1208 752 
Q 1469 391 1925 391 
Q 2381 391 2643 752 
Q 2906 1113 2906 1747 
Q 2906 2381 2643 2742 
Q 2381 3103 1925 3103 
Q 1469 3103 1208 2742 
Q 947 2381 947 1747 
z
" transform="scale(0.015625)"/>
       <path id="DejaVuSans-66" d="M 2375 4863 
L 2375 4384 
L 1825 4384 
Q 1516 4384 1395 4259 
Q 1275 4134 1275 3809 
L 1275 3500 
L 2222 3500 
L 2222 3053 
L 1275 3053 
L 1275 0 
L 697 0 
L 697 3053 
L 147 3053 
L 147 3500 
L 697 3500 
L 697 3744 
Q 697 4328 969 4595 
Q 1241 4863 1831 4863 
L 2375 4863 
z
" transform="scale(0.015625)"/>
      </defs>
      <use xlink:href="#DejaVuSans-72"/>
      <use xlink:href="#DejaVuSans-61" x="41.113281"/>
      <use xlink:href="#DejaVuSans-74" x="102.392578"/>
      <use xlink:href="#DejaVuSans-65" x="141.601562"/>
      <use xlink:href="#DejaVuSans-20" x="203.125"/>
      <use xlink:href="#DejaVuSans-75" x="234.912109"/>
      <use xlink:href="#DejaVuSans-73" x="298.291016"/>
      <use xlink:href="#DejaVuSans-65" x="350.390625"/>
      <use xlink:href="#DejaVuSans-64" x="411.914062"/>
      <use xlink:href="#DejaVuSans-20" x="475.390625"/>
      <use xlink:href="#DejaVuSans-66" x="507.177734"/>
      <use xlink:href="#DejaVuSans-6f" x="542.382812"/>
      <use xlink:href="#DejaVuSans-72" x="603.564453"/>
      <use xlink:href="#DejaVuSans-20" x="644.677734"/>
      <use xlink:href="#DejaVuSans-73" x="676.464844"/>
      <use xlink:href="#DejaVuSans-69" x="728.564453"/>
      <use xlink:href="#DejaVuSans-6d" x="756.347656"/>
     </g>
    </g>
   </g>
  </g>
  <g id="axes_2">
   <g id="patch_71">
    <path d="M 343.686765 190.157813 
L 589.863235 190.157813 
L 589.863235 23.837813 
L 343.686765 23.837813 
z
" style="fill: #fdfeff; fill-opacity: 0.6"/>
   </g>
   <g id="matplotlib.axis_3">
    <g id="xtick_8">
     <g id="line2d_13">
      <g>
       <use xlink:href="#m3164a187d7" x="353.575306" y="190.157813" style="fill: #333333; stroke: #333333; stroke-width: 1.2"/>
      </g>
     </g>
     <g id="text_18">
      <!-- 0 -->
      <g style="fill: #333333" transform="translate(350.075931 205.516094) scale(0.11 -0.11)">
       <use xlink:href="#DejaVuSans-30"/>
      </g>
     </g>
    </g>
    <g id="xtick_9">
     <g id="line2d_14">
      <g>
       <use xlink:href="#m3164a187d7" x="390.091336" y="190.157813" style="fill: #333333; stroke: #333333; stroke-width: 1.2"/>
      </g>
     </g>
     <g id="text_19">
      <!-- 5 -->
      <g style="fill: #333333" transform="translate(386.591961 205.516094) scale(0.11 -0.11)">
       <use xlink:href="#DejaVuSans-35"/>
      </g>
     </g>
    </g>
    <g id="xtick_10">
     <g id="line2d_15">
      <g>
       <use xlink:href="#m3164a187d7" x="426.607367" y="190.157813" style="fill: #333333; stroke: #333333; stroke-width: 1.2"/>
      </g>
     </g>
     <g id="text_20">
      <!-- 10 -->
      <g style="fill: #333333" transform="translate(419.608617 205.516094) scale(0.11 -0.11)">
       <use xlink:href="#DejaVuSans-31"/>
       <use xlink:href="#DejaVuSans-30" x="63.623047"/>
      </g>
     </g>
    </g>
    <g id="xtick_11">
     <g id="line2d_16">
      <g>
       <use xlink:href="#m3164a187d7" x="463.123397" y="190.157813" style="fill: #333333; stroke: #333333; stroke-width: 1.2"/>
      </g>
     </g>
     <g id="text_21">
      <!-- 15 -->
      <g style="fill: #333333" transform="translate(456.124647 205.516094) scale(0.11 -0.11)">
       <use xlink:href="#DejaVuSans-31"/>
       <use xlink:href="#DejaVuSans-35" x="63.623047"/>
      </g>
     </g>
    </g>
    <g id="xtick_12">
     <g id="line2d_17">
      <g>
       <use xlink:href="#m3164a187d7" x="499.639427" y="190.157813" style="fill: #333333; stroke: #333333; stroke-width: 1.2"/>
      </g>
     </g>
     <g id="text_22">
      <!-- 20 -->
      <g style="fill: #333333" transform="translate(492.640677 205.516094) scale(0.11 -0.11)">
       <use xlink:href="#DejaVuSans-32"/>
       <use xlink:href="#DejaVuSans-30" x="63.623047"/>
      </g>
     </g>
    </g>
    <g id="xtick_13">
     <g id="line2d_18">
      <g>
       <use xlink:href="#m3164a187d7" x="536.155458" y="190.157813" style="fill: #333333; stroke: #333333; stroke-width: 1.2"/>
      </g>
     </g>
     <g id="text_23">
      <!-- 25 -->
      <g style="fill: #333333" transform="translate(529.156708 205.516094) scale(0.11 -0.11)">
       <use xlink:href="#DejaVuSans-32"/>
       <use xlink:href="#DejaVuSans-35" x="63.623047"/>
      </g>
     </g>
    </g>
    <g id="xtick_14">
     <g id="line2d_19">
      <g>
       <use xlink:href="#m3164a187d7" x="572.671488" y="190.157813" style="fill: #333333; stroke: #333333; stroke-width: 1.2"/>
      </g>
     </g>
     <g id="text_24">
      <!-- 30 -->
      <g style="fill: #333333" transform="translate(565.672738 205.516094) scale(0.11 -0.11)">
       <use xlink:href="#DejaVuSans-33"/>
       <use xlink:href="#DejaVuSans-30" x="63.623047"/>
      </g>
     </g>
    </g>
    <g id="text_25">
     <!-- wire number -->
     <g style="fill: #333333" transform="translate(425.693984 221.681719) scale(0.13 -0.13)">
      <use xlink:href="#DejaVuSans-77"/>
      <use xlink:href="#DejaVuSans-69" x="81.787109"/>
      <use xlink:href="#DejaVuSans-72" x="109.570312"/>
      <use xlink:href="#DejaVuSans-65" x="148.433594"/>
      <use xlink:href="#DejaVuSans-20" x="209.957031"/>
      <use xlink:href="#DejaVuSans-6e" x="241.744141"/>
      <use xlink:href="#DejaVuSans-75" x="305.123047"/>
      <use xlink:href="#DejaVuSans-6d" x="368.501953"/>
      <use xlink:href="#DejaVuSans-62" x="465.914062"/>
      <use xlink:href="#DejaVuSans-65" x="529.390625"/>
      <use xlink:href="#DejaVuSans-72" x="590.914062"/>
     </g>
    </g>
   </g>
   <g id="matplotlib.axis_4">
    <g id="ytick_6">
     <g id="line2d_20">
      <g>
       <use xlink:href="#mf7abb0a130" x="343.686765" y="190.157813" style="fill: #333333; stroke: #333333; stroke-width: 1.2"/>
      </g>
     </g>
     <g id="text_26">
      <!-- 0 -->
      <g style="fill: #333333" transform="translate(329.688015 194.336953) scale(0.11 -0.11)">
       <use xlink:href="#DejaVuSans-30"/>
      </g>
     </g>
    </g>
    <g id="ytick_7">
     <g id="line2d_21">
      <g>
       <use xlink:href="#mf7abb0a130" x="343.686765" y="144.120157" style="fill: #333333; stroke: #333333; stroke-width: 1.2"/>
      </g>
     </g>
     <g id="text_27">
      <!-- 5 -->
      <g style="fill: #333333" transform="translate(329.688015 148.299297) scale(0.11 -0.11)">
       <use xlink:href="#DejaVuSans-35"/>
      </g>
     </g>
    </g>
    <g id="ytick_8">
     <g id="line2d_22">
      <g>
       <use xlink:href="#mf7abb0a130" x="343.686765" y="98.082501" style="fill: #333333; stroke: #333333; stroke-width: 1.2"/>
      </g>
     </g>
     <g id="text_28">
      <!-- 10 -->
      <g style="fill: #333333" transform="translate(322.689265 102.261642) scale(0.11 -0.11)">
       <use xlink:href="#DejaVuSans-31"/>
       <use xlink:href="#DejaVuSans-30" x="63.623047"/>
      </g>
     </g>
    </g>
    <g id="ytick_9">
     <g id="line2d_23">
      <g>
       <use xlink:href="#mf7abb0a130" x="343.686765" y="52.044845" style="fill: #333333; stroke: #333333; stroke-width: 1.2"/>
      </g>
     </g>
     <g id="text_29">
      <!-- 15 -->
      <g style="fill: #333333" transform="translate(322.689265 56.223986) scale(0.11 -0.11)">
       <use xlink:href="#DejaVuSans-31"/>
       <use xlink:href="#DejaVuSans-35" x="63.623047"/>
      </g>
     </g>
    </g>
    <g id="text_30">
     <!-- count rate (Mcps) -->
     <g style="fill: #333333" transform="translate(315.985671 164.4375) rotate(-90) scale(0.13 -0.13)">
      <use xlink:href="#DejaVuSans-63"/>
      <use xlink:href="#DejaVuSans-6f" x="54.980469"/>
      <use xlink:href="#DejaVuSans-75" x="116.162109"/>
      <use xlink:href="#DejaVuSans-6e" x="179.541016"/>
      <use xlink:href="#DejaVuSans-74" x="242.919922"/>
      <use xlink:href="#DejaVuSans-20" x="282.128906"/>
      <use xlink:href="#DejaVuSans-72" x="313.916016"/>
      <use xlink:href="#DejaVuSans-61" x="355.029297"/>
      <use xlink:href="#DejaVuSans-74" x="416.308594"/>
      <use xlink:href="#DejaVuSans-65" x="455.517578"/>
      <use xlink:href="#DejaVuSans-20" x="517.041016"/>
      <use xlink:href="#DejaVuSans-28" x="548.828125"/>
      <use xlink:href="#DejaVuSans-4d" x="587.841797"/>
      <use xlink:href="#DejaVuSans-63" x="674.121094"/>
      <use xlink:href="#DejaVuSans-70" x="729.101562"/>
      <use xlink:href="#DejaVuSans-73" x="792.578125"/>
      <use xlink:href="#DejaVuSans-29" x="844.677734"/>
     </g>
    </g>
   </g>
   <g id="patch_72">
    <path d="M 350.654023 190.157813 
L 356.496588 190.157813 
L 356.496588 177.747948 
L 350.654023 177.747948 
z
" clip-path="url(#p184702c961)" style="fill: #a3a2a2; opacity: 0.5"/>
   </g>
   <g id="patch_73">
    <path d="M 357.957229 190.157813 
L 363.799794 190.157813 
L 363.799794 173.012929 
L 357.957229 173.012929 
z
" clip-path="url(#p184702c961)" style="fill: #a3a2a2; opacity: 0.5"/>
   </g>
   <g id="patch_74">
    <path d="M 365.260435 190.157813 
L 371.103 190.157813 
L 371.103 167.502249 
L 365.260435 167.502249 
z
" clip-path="url(#p184702c961)" style="fill: #a3a2a2; opacity: 0.5"/>
   </g>
   <g id="patch_75">
    <path d="M 372.563642 190.157813 
L 378.406206 190.157813 
L 378.406206 159.57962 
L 372.563642 159.57962 
z
" clip-path="url(#p184702c961)" style="fill: #a3a2a2; opacity: 0.5"/>
   </g>
   <g id="patch_76">
    <path d="M 379.866848 190.157813 
L 385.709412 190.157813 
L 385.709412 149.852922 
L 379.866848 149.852922 
z
" clip-path="url(#p184702c961)" style="fill: #a3a2a2; opacity: 0.5"/>
   </g>
   <g id="patch_77">
    <path d="M 387.170054 190.157813 
L 393.012619 190.157813 
L 393.012619 140.651846 
L 387.170054 140.651846 
z
" clip-path="url(#p184702c961)" style="fill: #a3a2a2; opacity: 0.5"/>
   </g>
   <g id="patch_78">
    <path d="M 394.47326 190.157813 
L 400.315825 190.157813 
L 400.315825 127.694584 
L 394.47326 127.694584 
z
" clip-path="url(#p184702c961)" style="fill: #a3a2a2; opacity: 0.5"/>
   </g>
   <g id="patch_79">
    <path d="M 401.776466 190.157813 
L 407.619031 190.157813 
L 407.619031 115.610537 
L 401.776466 115.610537 
z
" clip-path="url(#p184702c961)" style="fill: #a3a2a2; opacity: 0.5"/>
   </g>
   <g id="patch_80">
    <path d="M 409.079672 190.157813 
L 414.922237 190.157813 
L 414.922237 102.554286 
L 409.079672 102.554286 
z
" clip-path="url(#p184702c961)" style="fill: #a3a2a2; opacity: 0.5"/>
   </g>
   <g id="patch_81">
    <path d="M 416.382878 190.157813 
L 422.225443 190.157813 
L 422.225443 88.572825 
L 416.382878 88.572825 
z
" clip-path="url(#p184702c961)" style="fill: #a3a2a2; opacity: 0.5"/>
   </g>
   <g id="patch_82">
    <path d="M 423.686084 190.157813 
L 429.528649 190.157813 
L 429.528649 73.55815 
L 423.686084 73.55815 
z
" clip-path="url(#p184702c961)" style="fill: #a3a2a2; opacity: 0.5"/>
   </g>
   <g id="patch_83">
    <path d="M 430.98929 190.157813 
L 436.831855 190.157813 
L 436.831855 64.867824 
L 430.98929 64.867824 
z
" clip-path="url(#p184702c961)" style="fill: #a3a2a2; opacity: 0.5"/>
   </g>
   <g id="patch_84">
    <path d="M 438.292496 190.157813 
L 444.135061 190.157813 
L 444.135061 52.967458 
L 438.292496 52.967458 
z
" clip-path="url(#p184702c961)" style="fill: #a3a2a2; opacity: 0.5"/>
   </g>
   <g id="patch_85">
    <path d="M 445.595702 190.157813 
L 451.438267 190.157813 
L 451.438267 34.75998 
L 445.595702 34.75998 
z
" clip-path="url(#p184702c961)" style="fill: #a3a2a2; opacity: 0.5"/>
   </g>
   <g id="patch_86">
    <path d="M 452.898908 190.157813 
L 458.741473 190.157813 
L 458.741473 48.788712 
L 452.898908 48.788712 
z
" clip-path="url(#p184702c961)" style="fill: #a3a2a2; opacity: 0.5"/>
   </g>
   <g id="patch_87">
    <path d="M 460.202115 190.157813 
L 466.044679 190.157813 
L 466.044679 40.73947 
L 460.202115 40.73947 
z
" clip-path="url(#p184702c961)" style="fill: #a3a2a2; opacity: 0.5"/>
   </g>
   <g id="patch_88">
    <path d="M 467.505321 190.157813 
L 473.347885 190.157813 
L 473.347885 49.756148 
L 467.505321 49.756148 
z
" clip-path="url(#p184702c961)" style="fill: #a3a2a2; opacity: 0.5"/>
   </g>
   <g id="patch_89">
    <path d="M 474.808527 190.157813 
L 480.651092 190.157813 
L 480.651092 61.624941 
L 474.808527 61.624941 
z
" clip-path="url(#p184702c961)" style="fill: #a3a2a2; opacity: 0.5"/>
   </g>
   <g id="patch_90">
    <path d="M 482.111733 190.157813 
L 487.954298 190.157813 
L 487.954298 66.082859 
L 482.111733 66.082859 
z
" clip-path="url(#p184702c961)" style="fill: #a3a2a2; opacity: 0.5"/>
   </g>
   <g id="patch_91">
    <path d="M 489.414939 190.157813 
L 495.257504 190.157813 
L 495.257504 81.903718 
L 489.414939 81.903718 
z
" clip-path="url(#p184702c961)" style="fill: #a3a2a2; opacity: 0.5"/>
   </g>
   <g id="patch_92">
    <path d="M 496.718145 190.157813 
L 502.56071 190.157813 
L 502.56071 92.886378 
L 496.718145 92.886378 
z
" clip-path="url(#p184702c961)" style="fill: #a3a2a2; opacity: 0.5"/>
   </g>
   <g id="patch_93">
    <path d="M 504.021351 190.157813 
L 509.863916 190.157813 
L 509.863916 112.141932 
L 504.021351 112.141932 
z
" clip-path="url(#p184702c961)" style="fill: #a3a2a2; opacity: 0.5"/>
   </g>
   <g id="patch_94">
    <path d="M 511.324557 190.157813 
L 517.167122 190.157813 
L 517.167122 118.589165 
L 511.324557 118.589165 
z
" clip-path="url(#p184702c961)" style="fill: #a3a2a2; opacity: 0.5"/>
   </g>
   <g id="patch_95">
    <path d="M 518.627763 190.157813 
L 524.470328 190.157813 
L 524.470328 131.67163 
L 518.627763 131.67163 
z
" clip-path="url(#p184702c961)" style="fill: #a3a2a2; opacity: 0.5"/>
   </g>
   <g id="patch_96">
    <path d="M 525.930969 190.157813 
L 531.773534 190.157813 
L 531.773534 143.594315 
L 525.930969 143.594315 
z
" clip-path="url(#p184702c961)" style="fill: #a3a2a2; opacity: 0.5"/>
   </g>
   <g id="patch_97">
    <path d="M 533.234175 190.157813 
L 539.07674 190.157813 
L 539.07674 154.754874 
L 533.234175 154.754874 
z
" clip-path="url(#p184702c961)" style="fill: #a3a2a2; opacity: 0.5"/>
   </g>
   <g id="patch_98">
    <path d="M 540.537381 190.157813 
L 546.379946 190.157813 
L 546.379946 163.099401 
L 540.537381 163.099401 
z
" clip-path="url(#p184702c961)" style="fill: #a3a2a2; opacity: 0.5"/>
   </g>
   <g id="patch_99">
    <path d="M 547.840588 190.157813 
L 553.683152 190.157813 
L 553.683152 168.614952 
L 547.840588 168.614952 
z
" clip-path="url(#p184702c961)" style="fill: #a3a2a2; opacity: 0.5"/>
   </g>
   <g id="patch_100">
    <path d="M 555.143794 190.157813 
L 560.986358 190.157813 
L 560.986358 174.668904 
L 555.143794 174.668904 
z
" clip-path="url(#p184702c961)" style="fill: #a3a2a2; opacity: 0.5"/>
   </g>
   <g id="patch_101">
    <path d="M 562.447 190.157813 
L 568.289565 190.157813 
L 568.289565 178.876856 
L 562.447 178.876856 
z
" clip-path="url(#p184702c961)" style="fill: #a3a2a2; opacity: 0.5"/>
   </g>
   <g id="patch_102">
    <path d="M 569.750206 190.157813 
L 575.592771 190.157813 
L 575.592771 181.801904 
L 569.750206 181.801904 
z
" clip-path="url(#p184702c961)" style="fill: #a3a2a2; opacity: 0.5"/>
   </g>
   <g id="patch_103">
    <path d="M 577.053412 190.157813 
L 582.895977 190.157813 
L 582.895977 184.172438 
L 577.053412 184.172438 
z
" clip-path="url(#p184702c961)" style="fill: #a3a2a2; opacity: 0.5"/>
   </g>
   <g id="patch_104">
    <path d="M 352.114665 190.157813 
L 355.035947 190.157813 
L 355.035947 177.010115 
L 352.114665 177.010115 
z
" clip-path="url(#p184702c961)" style="fill: #3c5da6; opacity: 0.7"/>
   </g>
   <g id="patch_105">
    <path d="M 359.417871 190.157813 
L 362.339153 190.157813 
L 362.339153 171.851057 
L 359.417871 171.851057 
z
" clip-path="url(#p184702c961)" style="fill: #3c5da6; opacity: 0.7"/>
   </g>
   <g id="patch_106">
    <path d="M 366.721077 190.157813 
L 369.642359 190.157813 
L 369.642359 167.372538 
L 366.721077 167.372538 
z
" clip-path="url(#p184702c961)" style="fill: #3c5da6; opacity: 0.7"/>
   </g>
   <g id="patch_107">
    <path d="M 374.024283 190.157813 
L 376.945565 190.157813 
L 376.945565 158.164086 
L 374.024283 158.164086 
z
" clip-path="url(#p184702c961)" style="fill: #3c5da6; opacity: 0.7"/>
   </g>
   <g id="patch_108">
    <path d="M 381.327489 190.157813 
L 384.248771 190.157813 
L 384.248771 149.536353 
L 381.327489 149.536353 
z
" clip-path="url(#p184702c961)" style="fill: #3c5da6; opacity: 0.7"/>
   </g>
   <g id="patch_109">
    <path d="M 388.630695 190.157813 
L 391.551977 190.157813 
L 391.551977 139.002006 
L 388.630695 139.002006 
z
" clip-path="url(#p184702c961)" style="fill: #3c5da6; opacity: 0.7"/>
   </g>
   <g id="patch_110">
    <path d="M 395.933901 190.157813 
L 398.855183 190.157813 
L 398.855183 127.700156 
L 395.933901 127.700156 
z
" clip-path="url(#p184702c961)" style="fill: #3c5da6; opacity: 0.7"/>
   </g>
   <g id="patch_111">
    <path d="M 403.237107 190.157813 
L 406.15839 190.157813 
L 406.15839 113.089041 
L 403.237107 113.089041 
z
" clip-path="url(#p184702c961)" style="fill: #3c5da6; opacity: 0.7"/>
   </g>
   <g id="patch_112">
    <path d="M 410.540313 190.157813 
L 413.461596 190.157813 
L 413.461596 104.694729 
L 410.540313 104.694729 
z
" clip-path="url(#p184702c961)" style="fill: #3c5da6; opacity: 0.7"/>
   </g>
   <g id="patch_113">
    <path d="M 417.843519 190.157813 
L 420.764802 190.157813 
L 420.764802 93.141878 
L 417.843519 93.141878 
z
" clip-path="url(#p184702c961)" style="fill: #3c5da6; opacity: 0.7"/>
   </g>
   <g id="patch_114">
    <path d="M 425.146725 190.157813 
L 428.068008 190.157813 
L 428.068008 72.818648 
L 425.146725 72.818648 
z
" clip-path="url(#p184702c961)" style="fill: #3c5da6; opacity: 0.7"/>
   </g>
   <g id="patch_115">
    <path d="M 432.449931 190.157813 
L 435.371214 190.157813 
L 435.371214 57.004899 
L 432.449931 57.004899 
z
" clip-path="url(#p184702c961)" style="fill: #3c5da6; opacity: 0.7"/>
   </g>
   <g id="patch_116">
    <path d="M 439.753137 190.157813 
L 442.67442 190.157813 
L 442.67442 57.004899 
L 439.753137 57.004899 
z
" clip-path="url(#p184702c961)" style="fill: #3c5da6; opacity: 0.7"/>
   </g>
   <g id="patch_117">
    <path d="M 447.056344 190.157813 
L 449.977626 190.157813 
L 449.977626 28.682084 
L 447.056344 28.682084 
z
" clip-path="url(#p184702c961)" style="fill: #3c5da6; opacity: 0.7"/>
   </g>
   <g id="patch_118">
    <path d="M 454.35955 190.157813 
L 457.280832 190.157813 
L 457.280832 43.971609 
L 454.35955 43.971609 
z
" clip-path="url(#p184702c961)" style="fill: #3c5da6; opacity: 0.7"/>
   </g>
   <g id="patch_119">
    <path d="M 461.662756 190.157813 
L 464.584038 190.157813 
L 464.584038 43.971609 
L 461.662756 43.971609 
z
" clip-path="url(#p184702c961)" style="fill: #3c5da6; opacity: 0.7"/>
   </g>
   <g id="patch_120">
    <path d="M 468.965962 190.157813 
L 471.887244 190.157813 
L 471.887244 43.971609 
L 468.965962 43.971609 
z
" clip-path="url(#p184702c961)" style="fill: #3c5da6; opacity: 0.7"/>
   </g>
   <g id="patch_121">
    <path d="M 476.269168 190.157813 
L 479.19045 190.157813 
L 479.19045 57.004899 
L 476.269168 57.004899 
z
" clip-path="url(#p184702c961)" style="fill: #3c5da6; opacity: 0.7"/>
   </g>
   <g id="patch_122">
    <path d="M 483.572374 190.157813 
L 486.493656 190.157813 
L 486.493656 72.818648 
L 483.572374 72.818648 
z
" clip-path="url(#p184702c961)" style="fill: #3c5da6; opacity: 0.7"/>
   </g>
   <g id="patch_123">
    <path d="M 490.87558 190.157813 
L 493.796863 190.157813 
L 493.796863 83.44872 
L 490.87558 83.44872 
z
" clip-path="url(#p184702c961)" style="fill: #3c5da6; opacity: 0.7"/>
   </g>
   <g id="patch_124">
    <path d="M 498.178786 190.157813 
L 501.100069 190.157813 
L 501.100069 93.141878 
L 498.178786 93.141878 
z
" clip-path="url(#p184702c961)" style="fill: #3c5da6; opacity: 0.7"/>
   </g>
   <g id="patch_125">
    <path d="M 505.481992 190.157813 
L 508.403275 190.157813 
L 508.403275 113.089041 
L 505.481992 113.089041 
z
" clip-path="url(#p184702c961)" style="fill: #3c5da6; opacity: 0.7"/>
   </g>
   <g id="patch_126">
    <path d="M 512.785198 190.157813 
L 515.706481 190.157813 
L 515.706481 119.880161 
L 512.785198 119.880161 
z
" clip-path="url(#p184702c961)" style="fill: #3c5da6; opacity: 0.7"/>
   </g>
   <g id="patch_127">
    <path d="M 520.088404 190.157813 
L 523.009687 190.157813 
L 523.009687 133.72018 
L 520.088404 133.72018 
z
" clip-path="url(#p184702c961)" style="fill: #3c5da6; opacity: 0.7"/>
   </g>
   <g id="patch_128">
    <path d="M 527.39161 190.157813 
L 530.312893 190.157813 
L 530.312893 145.430336 
L 527.39161 145.430336 
z
" clip-path="url(#p184702c961)" style="fill: #3c5da6; opacity: 0.7"/>
   </g>
   <g id="patch_129">
    <path d="M 534.694817 190.157813 
L 537.616099 190.157813 
L 537.616099 153.454614 
L 534.694817 153.454614 
z
" clip-path="url(#p184702c961)" style="fill: #3c5da6; opacity: 0.7"/>
   </g>
   <g id="patch_130">
    <path d="M 541.998023 190.157813 
L 544.919305 190.157813 
L 544.919305 164.001448 
L 541.998023 164.001448 
z
" clip-path="url(#p184702c961)" style="fill: #3c5da6; opacity: 0.7"/>
   </g>
   <g id="patch_131">
    <path d="M 549.301229 190.157813 
L 552.222511 190.157813 
L 552.222511 169.749402 
L 549.301229 169.749402 
z
" clip-path="url(#p184702c961)" style="fill: #3c5da6; opacity: 0.7"/>
   </g>
   <g id="patch_132">
    <path d="M 556.604435 190.157813 
L 559.525717 190.157813 
L 559.525717 174.179344 
L 556.604435 174.179344 
z
" clip-path="url(#p184702c961)" style="fill: #3c5da6; opacity: 0.7"/>
   </g>
   <g id="patch_133">
    <path d="M 563.907641 190.157813 
L 566.828923 190.157813 
L 566.828923 178.819765 
L 563.907641 178.819765 
z
" clip-path="url(#p184702c961)" style="fill: #3c5da6; opacity: 0.7"/>
   </g>
   <g id="patch_134">
    <path d="M 571.210847 190.157813 
L 574.132129 190.157813 
L 574.132129 182.087215 
L 571.210847 182.087215 
z
" clip-path="url(#p184702c961)" style="fill: #3c5da6; opacity: 0.7"/>
   </g>
   <g id="patch_135">
    <path d="M 578.514053 190.157813 
L 581.435335 190.157813 
L 581.435335 184.431867 
L 578.514053 184.431867 
z
" clip-path="url(#p184702c961)" style="fill: #3c5da6; opacity: 0.7"/>
   </g>
   <g id="patch_136">
    <path d="M 343.686765 190.157813 
L 343.686765 23.837813 
" style="fill: none; stroke: #333333; stroke-width: 1.2; stroke-linejoin: miter; stroke-linecap: square"/>
   </g>
   <g id="patch_137">
    <path d="M 343.686765 190.157813 
L 589.863235 190.157813 
" style="fill: none; stroke: #333333; stroke-width: 1.2; stroke-linejoin: miter; stroke-linecap: square"/>
   </g>
   <g id="text_31">
    <!-- 250 Mcps -->
    <g style="fill: #333333" transform="translate(433.21 17.837813) scale(0.14 -0.14)">
     <use xlink:href="#DejaVuSans-32"/>
     <use xlink:href="#DejaVuSans-35" x="63.623047"/>
     <use xlink:href="#DejaVuSans-30" x="127.246094"/>
     <use xlink:href="#DejaVuSans-20" x="190.869141"/>
     <use xlink:href="#DejaVuSans-4d" x="222.65625"/>
     <use xlink:href="#DejaVuSans-63" x="308.935547"/>
     <use xlink:href="#DejaVuSans-70" x="363.916016"/>
     <use xlink:href="#DejaVuSans-73" x="427.392578"/>
    </g>
   </g>
  </g>
  <g id="axes_3">
   <g id="patch_138">
    <path d="M 639.098529 190.157813 
L 885.275 190.157813 
L 885.275 23.837813 
L 639.098529 23.837813 
z
" style="fill: #fdfeff; fill-opacity: 0.6"/>
   </g>
   <g id="matplotlib.axis_5">
    <g id="xtick_15">
     <g id="line2d_24">
      <g>
       <use xlink:href="#m3164a187d7" x="648.98707" y="190.157813" style="fill: #333333; stroke: #333333; stroke-width: 1.2"/>
      </g>
     </g>
     <g id="text_32">
      <!-- 0 -->
      <g style="fill: #333333" transform="translate(645.487695 205.516094) scale(0.11 -0.11)">
       <use xlink:href="#DejaVuSans-30"/>
      </g>
     </g>
    </g>
    <g id="xtick_16">
     <g id="line2d_25">
      <g>
       <use xlink:href="#m3164a187d7" x="685.503101" y="190.157813" style="fill: #333333; stroke: #333333; stroke-width: 1.2"/>
      </g>
     </g>
     <g id="text_33">
      <!-- 5 -->
      <g style="fill: #333333" transform="translate(682.003726 205.516094) scale(0.11 -0.11)">
       <use xlink:href="#DejaVuSans-35"/>
      </g>
     </g>
    </g>
    <g id="xtick_17">
     <g id="line2d_26">
      <g>
       <use xlink:href="#m3164a187d7" x="722.019131" y="190.157813" style="fill: #333333; stroke: #333333; stroke-width: 1.2"/>
      </g>
     </g>
     <g id="text_34">
      <!-- 10 -->
      <g style="fill: #333333" transform="translate(715.020381 205.516094) scale(0.11 -0.11)">
       <use xlink:href="#DejaVuSans-31"/>
       <use xlink:href="#DejaVuSans-30" x="63.623047"/>
      </g>
     </g>
    </g>
    <g id="xtick_18">
     <g id="line2d_27">
      <g>
       <use xlink:href="#m3164a187d7" x="758.535162" y="190.157813" style="fill: #333333; stroke: #333333; stroke-width: 1.2"/>
      </g>
     </g>
     <g id="text_35">
      <!-- 15 -->
      <g style="fill: #333333" transform="translate(751.536412 205.516094) scale(0.11 -0.11)">
       <use xlink:href="#DejaVuSans-31"/>
       <use xlink:href="#DejaVuSans-35" x="63.623047"/>
      </g>
     </g>
    </g>
    <g id="xtick_19">
     <g id="line2d_28">
      <g>
       <use xlink:href="#m3164a187d7" x="795.051192" y="190.157813" style="fill: #333333; stroke: #333333; stroke-width: 1.2"/>
      </g>
     </g>
     <g id="text_36">
      <!-- 20 -->
      <g style="fill: #333333" transform="translate(788.052442 205.516094) scale(0.11 -0.11)">
       <use xlink:href="#DejaVuSans-32"/>
       <use xlink:href="#DejaVuSans-30" x="63.623047"/>
      </g>
     </g>
    </g>
    <g id="xtick_20">
     <g id="line2d_29">
      <g>
       <use xlink:href="#m3164a187d7" x="831.567222" y="190.157813" style="fill: #333333; stroke: #333333; stroke-width: 1.2"/>
      </g>
     </g>
     <g id="text_37">
      <!-- 25 -->
      <g style="fill: #333333" transform="translate(824.568472 205.516094) scale(0.11 -0.11)">
       <use xlink:href="#DejaVuSans-32"/>
       <use xlink:href="#DejaVuSans-35" x="63.623047"/>
      </g>
     </g>
    </g>
    <g id="xtick_21">
     <g id="line2d_30">
      <g>
       <use xlink:href="#m3164a187d7" x="868.083253" y="190.157813" style="fill: #333333; stroke: #333333; stroke-width: 1.2"/>
      </g>
     </g>
     <g id="text_38">
      <!-- 30 -->
      <g style="fill: #333333" transform="translate(861.084503 205.516094) scale(0.11 -0.11)">
       <use xlink:href="#DejaVuSans-33"/>
       <use xlink:href="#DejaVuSans-30" x="63.623047"/>
      </g>
     </g>
    </g>
    <g id="text_39">
     <!-- wire number -->
     <g style="fill: #333333" transform="translate(721.105749 221.681719) scale(0.13 -0.13)">
      <use xlink:href="#DejaVuSans-77"/>
      <use xlink:href="#DejaVuSans-69" x="81.787109"/>
      <use xlink:href="#DejaVuSans-72" x="109.570312"/>
      <use xlink:href="#DejaVuSans-65" x="148.433594"/>
      <use xlink:href="#DejaVuSans-20" x="209.957031"/>
      <use xlink:href="#DejaVuSans-6e" x="241.744141"/>
      <use xlink:href="#DejaVuSans-75" x="305.123047"/>
      <use xlink:href="#DejaVuSans-6d" x="368.501953"/>
      <use xlink:href="#DejaVuSans-62" x="465.914062"/>
      <use xlink:href="#DejaVuSans-65" x="529.390625"/>
      <use xlink:href="#DejaVuSans-72" x="590.914062"/>
     </g>
    </g>
   </g>
   <g id="matplotlib.axis_6">
    <g id="ytick_10">
     <g id="line2d_31">
      <g>
       <use xlink:href="#mf7abb0a130" x="639.098529" y="190.157813" style="fill: #333333; stroke: #333333; stroke-width: 1.2"/>
      </g>
     </g>
     <g id="text_40">
      <!-- 0 -->
      <g style="fill: #333333" transform="translate(625.099779 194.336953) scale(0.11 -0.11)">
       <use xlink:href="#DejaVuSans-30"/>
      </g>
     </g>
    </g>
    <g id="ytick_11">
     <g id="line2d_32">
      <g>
       <use xlink:href="#mf7abb0a130" x="639.098529" y="165.422805" style="fill: #333333; stroke: #333333; stroke-width: 1.2"/>
      </g>
     </g>
     <g id="text_41">
      <!-- 10 -->
      <g style="fill: #333333" transform="translate(618.101029 169.601945) scale(0.11 -0.11)">
       <use xlink:href="#DejaVuSans-31"/>
       <use xlink:href="#DejaVuSans-30" x="63.623047"/>
      </g>
     </g>
    </g>
    <g id="ytick_12">
     <g id="line2d_33">
      <g>
       <use xlink:href="#mf7abb0a130" x="639.098529" y="140.687797" style="fill: #333333; stroke: #333333; stroke-width: 1.2"/>
      </g>
     </g>
     <g id="text_42">
      <!-- 20 -->
      <g style="fill: #333333" transform="translate(618.101029 144.866938) scale(0.11 -0.11)">
       <use xlink:href="#DejaVuSans-32"/>
       <use xlink:href="#DejaVuSans-30" x="63.623047"/>
      </g>
     </g>
    </g>
    <g id="ytick_13">
     <g id="line2d_34">
      <g>
       <use xlink:href="#mf7abb0a130" x="639.098529" y="115.952789" style="fill: #333333; stroke: #333333; stroke-width: 1.2"/>
      </g>
     </g>
     <g id="text_43">
      <!-- 30 -->
      <g style="fill: #333333" transform="translate(618.101029 120.13193) scale(0.11 -0.11)">
       <use xlink:href="#DejaVuSans-33"/>
       <use xlink:href="#DejaVuSans-30" x="63.623047"/>
      </g>
     </g>
    </g>
    <g id="ytick_14">
     <g id="line2d_35">
      <g>
       <use xlink:href="#mf7abb0a130" x="639.098529" y="91.217781" style="fill: #333333; stroke: #333333; stroke-width: 1.2"/>
      </g>
     </g>
     <g id="text_44">
      <!-- 40 -->
      <g style="fill: #333333" transform="translate(618.101029 95.396922) scale(0.11 -0.11)">
       <use xlink:href="#DejaVuSans-34"/>
       <use xlink:href="#DejaVuSans-30" x="63.623047"/>
      </g>
     </g>
    </g>
    <g id="ytick_15">
     <g id="line2d_36">
      <g>
       <use xlink:href="#mf7abb0a130" x="639.098529" y="66.482774" style="fill: #333333; stroke: #333333; stroke-width: 1.2"/>
      </g>
     </g>
     <g id="text_45">
      <!-- 50 -->
      <g style="fill: #333333" transform="translate(618.101029 70.661914) scale(0.11 -0.11)">
       <use xlink:href="#DejaVuSans-35"/>
       <use xlink:href="#DejaVuSans-30" x="63.623047"/>
      </g>
     </g>
    </g>
    <g id="ytick_16">
     <g id="line2d_37">
      <g>
       <use xlink:href="#mf7abb0a130" x="639.098529" y="41.747766" style="fill: #333333; stroke: #333333; stroke-width: 1.2"/>
      </g>
     </g>
     <g id="text_46">
      <!-- 60 -->
      <g style="fill: #333333" transform="translate(618.101029 45.926907) scale(0.11 -0.11)">
       <defs>
        <path id="DejaVuSans-36" d="M 2113 2584 
Q 1688 2584 1439 2293 
Q 1191 2003 1191 1497 
Q 1191 994 1439 701 
Q 1688 409 2113 409 
Q 2538 409 2786 701 
Q 3034 994 3034 1497 
Q 3034 2003 2786 2293 
Q 2538 2584 2113 2584 
z
M 3366 4563 
L 3366 3988 
Q 3128 4100 2886 4159 
Q 2644 4219 2406 4219 
Q 1781 4219 1451 3797 
Q 1122 3375 1075 2522 
Q 1259 2794 1537 2939 
Q 1816 3084 2150 3084 
Q 2853 3084 3261 2657 
Q 3669 2231 3669 1497 
Q 3669 778 3244 343 
Q 2819 -91 2113 -91 
Q 1303 -91 875 529 
Q 447 1150 447 2328 
Q 447 3434 972 4092 
Q 1497 4750 2381 4750 
Q 2619 4750 2861 4703 
Q 3103 4656 3366 4563 
z
" transform="scale(0.015625)"/>
       </defs>
       <use xlink:href="#DejaVuSans-36"/>
       <use xlink:href="#DejaVuSans-30" x="63.623047"/>
      </g>
     </g>
    </g>
    <g id="text_47">
     <!-- count rate (Mcps) -->
     <g style="fill: #333333" transform="translate(611.397436 164.4375) rotate(-90) scale(0.13 -0.13)">
      <use xlink:href="#DejaVuSans-63"/>
      <use xlink:href="#DejaVuSans-6f" x="54.980469"/>
      <use xlink:href="#DejaVuSans-75" x="116.162109"/>
      <use xlink:href="#DejaVuSans-6e" x="179.541016"/>
      <use xlink:href="#DejaVuSans-74" x="242.919922"/>
      <use xlink:href="#DejaVuSans-20" x="282.128906"/>
      <use xlink:href="#DejaVuSans-72" x="313.916016"/>
      <use xlink:href="#DejaVuSans-61" x="355.029297"/>
      <use xlink:href="#DejaVuSans-74" x="416.308594"/>
      <use xlink:href="#DejaVuSans-65" x="455.517578"/>
      <use xlink:href="#DejaVuSans-20" x="517.041016"/>
      <use xlink:href="#DejaVuSans-28" x="548.828125"/>
      <use xlink:href="#DejaVuSans-4d" x="587.841797"/>
      <use xlink:href="#DejaVuSans-63" x="674.121094"/>
      <use xlink:href="#DejaVuSans-70" x="729.101562"/>
      <use xlink:href="#DejaVuSans-73" x="792.578125"/>
      <use xlink:href="#DejaVuSans-29" x="844.677734"/>
     </g>
    </g>
   </g>
   <g id="patch_139">
    <path d="M 646.065788 190.157813 
L 651.908353 190.157813 
L 651.908353 172.619567 
L 646.065788 172.619567 
z
" clip-path="url(#pc232028867)" style="fill: #a3a2a2; opacity: 0.5"/>
   </g>
   <g id="patch_140">
    <path d="M 653.368994 190.157813 
L 659.211559 190.157813 
L 659.211559 166.593762 
L 653.368994 166.593762 
z
" clip-path="url(#pc232028867)" style="fill: #a3a2a2; opacity: 0.5"/>
   </g>
   <g id="patch_141">
    <path d="M 660.6722 190.157813 
L 666.514765 190.157813 
L 666.514765 159.484291 
L 660.6722 159.484291 
z
" clip-path="url(#pc232028867)" style="fill: #a3a2a2; opacity: 0.5"/>
   </g>
   <g id="patch_142">
    <path d="M 667.975406 190.157813 
L 673.817971 190.157813 
L 673.817971 150.36575 
L 667.975406 150.36575 
z
" clip-path="url(#pc232028867)" style="fill: #a3a2a2; opacity: 0.5"/>
   </g>
   <g id="patch_143">
    <path d="M 675.278612 190.157813 
L 681.121177 190.157813 
L 681.121177 139.356752 
L 675.278612 139.356752 
z
" clip-path="url(#pc232028867)" style="fill: #a3a2a2; opacity: 0.5"/>
   </g>
   <g id="patch_144">
    <path d="M 682.581818 190.157813 
L 688.424383 190.157813 
L 688.424383 129.519827 
L 682.581818 129.519827 
z
" clip-path="url(#pc232028867)" style="fill: #a3a2a2; opacity: 0.5"/>
   </g>
   <g id="patch_145">
    <path d="M 689.885025 190.157813 
L 695.727589 190.157813 
L 695.727589 117.890307 
L 689.885025 117.890307 
z
" clip-path="url(#pc232028867)" style="fill: #a3a2a2; opacity: 0.5"/>
   </g>
   <g id="patch_146">
    <path d="M 697.188231 190.157813 
L 703.030795 190.157813 
L 703.030795 109.466768 
L 697.188231 109.466768 
z
" clip-path="url(#pc232028867)" style="fill: #a3a2a2; opacity: 0.5"/>
   </g>
   <g id="patch_147">
    <path d="M 704.491437 190.157813 
L 710.334002 190.157813 
L 710.334002 93.624842 
L 704.491437 93.624842 
z
" clip-path="url(#pc232028867)" style="fill: #a3a2a2; opacity: 0.5"/>
   </g>
   <g id="patch_148">
    <path d="M 711.794643 190.157813 
L 717.637208 190.157813 
L 717.637208 84.010198 
L 711.794643 84.010198 
z
" clip-path="url(#pc232028867)" style="fill: #a3a2a2; opacity: 0.5"/>
   </g>
   <g id="patch_149">
    <path d="M 719.097849 190.157813 
L 724.940414 190.157813 
L 724.940414 69.673981 
L 719.097849 69.673981 
z
" clip-path="url(#pc232028867)" style="fill: #a3a2a2; opacity: 0.5"/>
   </g>
   <g id="patch_150">
    <path d="M 726.401055 190.157813 
L 732.24362 190.157813 
L 732.24362 63.083053 
L 726.401055 63.083053 
z
" clip-path="url(#pc232028867)" style="fill: #a3a2a2; opacity: 0.5"/>
   </g>
   <g id="patch_151">
    <path d="M 733.704261 190.157813 
L 739.546826 190.157813 
L 739.546826 53.715945 
L 733.704261 53.715945 
z
" clip-path="url(#pc232028867)" style="fill: #a3a2a2; opacity: 0.5"/>
   </g>
   <g id="patch_152">
    <path d="M 741.007467 190.157813 
L 746.850032 190.157813 
L 746.850032 40.948823 
L 741.007467 40.948823 
z
" clip-path="url(#pc232028867)" style="fill: #a3a2a2; opacity: 0.5"/>
   </g>
   <g id="patch_153">
    <path d="M 748.310673 190.157813 
L 754.153238 190.157813 
L 754.153238 52.329501 
L 748.310673 52.329501 
z
" clip-path="url(#pc232028867)" style="fill: #a3a2a2; opacity: 0.5"/>
   </g>
   <g id="patch_154">
    <path d="M 755.613879 190.157813 
L 761.456444 190.157813 
L 761.456444 28.682084 
L 755.613879 28.682084 
z
" clip-path="url(#pc232028867)" style="fill: #a3a2a2; opacity: 0.5"/>
   </g>
   <g id="patch_155">
    <path d="M 762.917085 190.157813 
L 768.75965 190.157813 
L 768.75965 53.52628 
L 762.917085 53.52628 
z
" clip-path="url(#pc232028867)" style="fill: #a3a2a2; opacity: 0.5"/>
   </g>
   <g id="patch_156">
    <path d="M 770.220291 190.157813 
L 776.062856 190.157813 
L 776.062856 69.84272 
L 770.220291 69.84272 
z
" clip-path="url(#pc232028867)" style="fill: #a3a2a2; opacity: 0.5"/>
   </g>
   <g id="patch_157">
    <path d="M 777.523497 190.157813 
L 783.366062 190.157813 
L 783.366062 62.03071 
L 777.523497 62.03071 
z
" clip-path="url(#pc232028867)" style="fill: #a3a2a2; opacity: 0.5"/>
   </g>
   <g id="patch_158">
    <path d="M 784.826704 190.157813 
L 790.669268 190.157813 
L 790.669268 75.05384 
L 784.826704 75.05384 
z
" clip-path="url(#pc232028867)" style="fill: #a3a2a2; opacity: 0.5"/>
   </g>
   <g id="patch_159">
    <path d="M 792.12991 190.157813 
L 797.972475 190.157813 
L 797.972475 84.311473 
L 792.12991 84.311473 
z
" clip-path="url(#pc232028867)" style="fill: #a3a2a2; opacity: 0.5"/>
   </g>
   <g id="patch_160">
    <path d="M 799.433116 190.157813 
L 805.275681 190.157813 
L 805.275681 107.260114 
L 799.433116 107.260114 
z
" clip-path="url(#pc232028867)" style="fill: #a3a2a2; opacity: 0.5"/>
   </g>
   <g id="patch_161">
    <path d="M 806.736322 190.157813 
L 812.578887 190.157813 
L 812.578887 106.758035 
L 806.736322 106.758035 
z
" clip-path="url(#pc232028867)" style="fill: #a3a2a2; opacity: 0.5"/>
   </g>
   <g id="patch_162">
    <path d="M 814.039528 190.157813 
L 819.882093 190.157813 
L 819.882093 119.147555 
L 814.039528 119.147555 
z
" clip-path="url(#pc232028867)" style="fill: #a3a2a2; opacity: 0.5"/>
   </g>
   <g id="patch_163">
    <path d="M 821.342734 190.157813 
L 827.185299 190.157813 
L 827.185299 130.982245 
L 821.342734 130.982245 
z
" clip-path="url(#pc232028867)" style="fill: #a3a2a2; opacity: 0.5"/>
   </g>
   <g id="patch_164">
    <path d="M 828.64594 190.157813 
L 834.488505 190.157813 
L 834.488505 143.686363 
L 828.64594 143.686363 
z
" clip-path="url(#pc232028867)" style="fill: #a3a2a2; opacity: 0.5"/>
   </g>
   <g id="patch_165">
    <path d="M 835.949146 190.157813 
L 841.791711 190.157813 
L 841.791711 153.774004 
L 835.949146 153.774004 
z
" clip-path="url(#pc232028867)" style="fill: #a3a2a2; opacity: 0.5"/>
   </g>
   <g id="patch_166">
    <path d="M 843.252352 190.157813 
L 849.094917 190.157813 
L 849.094917 160.678366 
L 843.252352 160.678366 
z
" clip-path="url(#pc232028867)" style="fill: #a3a2a2; opacity: 0.5"/>
   </g>
   <g id="patch_167">
    <path d="M 850.555558 190.157813 
L 856.398123 190.157813 
L 856.398123 168.484269 
L 850.555558 168.484269 
z
" clip-path="url(#pc232028867)" style="fill: #a3a2a2; opacity: 0.5"/>
   </g>
   <g id="patch_168">
    <path d="M 857.858764 190.157813 
L 863.701329 190.157813 
L 863.701329 174.149372 
L 857.858764 174.149372 
z
" clip-path="url(#pc232028867)" style="fill: #a3a2a2; opacity: 0.5"/>
   </g>
   <g id="patch_169">
    <path d="M 865.16197 190.157813 
L 871.004535 190.157813 
L 871.004535 178.15306 
L 865.16197 178.15306 
z
" clip-path="url(#pc232028867)" style="fill: #a3a2a2; opacity: 0.5"/>
   </g>
   <g id="patch_170">
    <path d="M 872.465177 190.157813 
L 878.307741 190.157813 
L 878.307741 181.490272 
L 872.465177 181.490272 
z
" clip-path="url(#pc232028867)" style="fill: #a3a2a2; opacity: 0.5"/>
   </g>
   <g id="patch_171">
    <path d="M 647.526429 190.157813 
L 650.447712 190.157813 
L 650.447712 173.379258 
L 647.526429 173.379258 
z
" clip-path="url(#pc232028867)" style="fill: #3c5da6; opacity: 0.7"/>
   </g>
   <g id="patch_172">
    <path d="M 654.829635 190.157813 
L 657.750918 190.157813 
L 657.750918 167.199106 
L 654.829635 167.199106 
z
" clip-path="url(#pc232028867)" style="fill: #3c5da6; opacity: 0.7"/>
   </g>
   <g id="patch_173">
    <path d="M 662.132841 190.157813 
L 665.054124 190.157813 
L 665.054124 158.635952 
L 662.132841 158.635952 
z
" clip-path="url(#pc232028867)" style="fill: #3c5da6; opacity: 0.7"/>
   </g>
   <g id="patch_174">
    <path d="M 669.436047 190.157813 
L 672.35733 190.157813 
L 672.35733 150.886516 
L 669.436047 150.886516 
z
" clip-path="url(#pc232028867)" style="fill: #3c5da6; opacity: 0.7"/>
   </g>
   <g id="patch_175">
    <path d="M 676.739254 190.157813 
L 679.660536 190.157813 
L 679.660536 141.198205 
L 676.739254 141.198205 
z
" clip-path="url(#pc232028867)" style="fill: #3c5da6; opacity: 0.7"/>
   </g>
   <g id="patch_176">
    <path d="M 684.04246 190.157813 
L 686.963742 190.157813 
L 686.963742 131.780771 
L 684.04246 131.780771 
z
" clip-path="url(#pc232028867)" style="fill: #3c5da6; opacity: 0.7"/>
   </g>
   <g id="patch_177">
    <path d="M 691.345666 190.157813 
L 694.266948 190.157813 
L 694.266948 119.524326 
L 691.345666 119.524326 
z
" clip-path="url(#pc232028867)" style="fill: #3c5da6; opacity: 0.7"/>
   </g>
   <g id="patch_178">
    <path d="M 698.648872 190.157813 
L 701.570154 190.157813 
L 701.570154 113.366975 
L 698.648872 113.366975 
z
" clip-path="url(#pc232028867)" style="fill: #3c5da6; opacity: 0.7"/>
   </g>
   <g id="patch_179">
    <path d="M 705.952078 190.157813 
L 708.87336 190.157813 
L 708.87336 90.649433 
L 705.952078 90.649433 
z
" clip-path="url(#pc232028867)" style="fill: #3c5da6; opacity: 0.7"/>
   </g>
   <g id="patch_180">
    <path d="M 713.255284 190.157813 
L 716.176566 190.157813 
L 716.176566 79.656347 
L 713.255284 79.656347 
z
" clip-path="url(#pc232028867)" style="fill: #3c5da6; opacity: 0.7"/>
   </g>
   <g id="patch_181">
    <path d="M 720.55849 190.157813 
L 723.479772 190.157813 
L 723.479772 71.029747 
L 720.55849 71.029747 
z
" clip-path="url(#pc232028867)" style="fill: #3c5da6; opacity: 0.7"/>
   </g>
   <g id="patch_182">
    <path d="M 727.861696 190.157813 
L 730.782979 190.157813 
L 730.782979 62.693771 
L 727.861696 62.693771 
z
" clip-path="url(#pc232028867)" style="fill: #3c5da6; opacity: 0.7"/>
   </g>
   <g id="patch_183">
    <path d="M 735.164902 190.157813 
L 738.086185 190.157813 
L 738.086185 50.990952 
L 735.164902 50.990952 
z
" clip-path="url(#pc232028867)" style="fill: #3c5da6; opacity: 0.7"/>
   </g>
   <g id="patch_184">
    <path d="M 742.468108 190.157813 
L 745.389391 190.157813 
L 745.389391 41.300831 
L 742.468108 41.300831 
z
" clip-path="url(#pc232028867)" style="fill: #3c5da6; opacity: 0.7"/>
   </g>
   <g id="patch_185">
    <path d="M 749.771314 190.157813 
L 752.692597 190.157813 
L 752.692597 50.990952 
L 749.771314 50.990952 
z
" clip-path="url(#pc232028867)" style="fill: #3c5da6; opacity: 0.7"/>
   </g>
   <g id="patch_186">
    <path d="M 757.07452 190.157813 
L 759.995803 190.157813 
L 759.995803 41.300831 
L 757.07452 41.300831 
z
" clip-path="url(#pc232028867)" style="fill: #3c5da6; opacity: 0.7"/>
   </g>
   <g id="patch_187">
    <path d="M 764.377727 190.157813 
L 767.299009 190.157813 
L 767.299009 50.990952 
L 764.377727 50.990952 
z
" clip-path="url(#pc232028867)" style="fill: #3c5da6; opacity: 0.7"/>
   </g>
   <g id="patch_188">
    <path d="M 771.680933 190.157813 
L 774.602215 190.157813 
L 774.602215 71.029747 
L 771.680933 71.029747 
z
" clip-path="url(#pc232028867)" style="fill: #3c5da6; opacity: 0.7"/>
   </g>
   <g id="patch_189">
    <path d="M 778.984139 190.157813 
L 781.905421 190.157813 
L 781.905421 62.693771 
L 778.984139 62.693771 
z
" clip-path="url(#pc232028867)" style="fill: #3c5da6; opacity: 0.7"/>
   </g>
   <g id="patch_190">
    <path d="M 786.287345 190.157813 
L 789.208627 190.157813 
L 789.208627 71.029747 
L 786.287345 71.029747 
z
" clip-path="url(#pc232028867)" style="fill: #3c5da6; opacity: 0.7"/>
   </g>
   <g id="patch_191">
    <path d="M 793.590551 190.157813 
L 796.511833 190.157813 
L 796.511833 79.656347 
L 793.590551 79.656347 
z
" clip-path="url(#pc232028867)" style="fill: #3c5da6; opacity: 0.7"/>
   </g>
   <g id="patch_192">
    <path d="M 800.893757 190.157813 
L 803.815039 190.157813 
L 803.815039 104.91709 
L 800.893757 104.91709 
z
" clip-path="url(#pc232028867)" style="fill: #3c5da6; opacity: 0.7"/>
   </g>
   <g id="patch_193">
    <path d="M 808.196963 190.157813 
L 811.118245 190.157813 
L 811.118245 104.91709 
L 808.196963 104.91709 
z
" clip-path="url(#pc232028867)" style="fill: #3c5da6; opacity: 0.7"/>
   </g>
   <g id="patch_194">
    <path d="M 815.500169 190.157813 
L 818.421452 190.157813 
L 818.421452 119.524326 
L 815.500169 119.524326 
z
" clip-path="url(#pc232028867)" style="fill: #3c5da6; opacity: 0.7"/>
   </g>
   <g id="patch_195">
    <path d="M 822.803375 190.157813 
L 825.724658 190.157813 
L 825.724658 131.780771 
L 822.803375 131.780771 
z
" clip-path="url(#pc232028867)" style="fill: #3c5da6; opacity: 0.7"/>
   </g>
   <g id="patch_196">
    <path d="M 830.106581 190.157813 
L 833.027864 190.157813 
L 833.027864 141.198205 
L 830.106581 141.198205 
z
" clip-path="url(#pc232028867)" style="fill: #3c5da6; opacity: 0.7"/>
   </g>
   <g id="patch_197">
    <path d="M 837.409787 190.157813 
L 840.33107 190.157813 
L 840.33107 154.387764 
L 837.409787 154.387764 
z
" clip-path="url(#pc232028867)" style="fill: #3c5da6; opacity: 0.7"/>
   </g>
   <g id="patch_198">
    <path d="M 844.712993 190.157813 
L 847.634276 190.157813 
L 847.634276 161.491602 
L 844.712993 161.491602 
z
" clip-path="url(#pc232028867)" style="fill: #3c5da6; opacity: 0.7"/>
   </g>
   <g id="patch_199">
    <path d="M 852.0162 190.157813 
L 854.937482 190.157813 
L 854.937482 169.454145 
L 852.0162 169.454145 
z
" clip-path="url(#pc232028867)" style="fill: #3c5da6; opacity: 0.7"/>
   </g>
   <g id="patch_200">
    <path d="M 859.319406 190.157813 
L 862.240688 190.157813 
L 862.240688 173.379258 
L 859.319406 173.379258 
z
" clip-path="url(#pc232028867)" style="fill: #3c5da6; opacity: 0.7"/>
   </g>
   <g id="patch_201">
    <path d="M 866.622612 190.157813 
L 869.543894 190.157813 
L 869.543894 178.142274 
L 866.622612 178.142274 
z
" clip-path="url(#pc232028867)" style="fill: #3c5da6; opacity: 0.7"/>
   </g>
   <g id="patch_202">
    <path d="M 873.925818 190.157813 
L 876.8471 190.157813 
L 876.8471 181.563054 
L 873.925818 181.563054 
z
" clip-path="url(#pc232028867)" style="fill: #3c5da6; opacity: 0.7"/>
   </g>
   <g id="patch_203">
    <path d="M 639.098529 190.157813 
L 639.098529 23.837813 
" style="fill: none; stroke: #333333; stroke-width: 1.2; stroke-linejoin: miter; stroke-linecap: square"/>
   </g>
   <g id="patch_204">
    <path d="M 639.098529 190.157813 
L 885.275 190.157813 
" style="fill: none; stroke: #333333; stroke-width: 1.2; stroke-linejoin: miter; stroke-linecap: square"/>
   </g>
   <g id="text_48">
    <!-- 1 Gcps -->
    <g style="fill: #333333" transform="translate(738.145046 17.837813) scale(0.14 -0.14)">
     <defs>
      <path id="DejaVuSans-47" d="M 3809 666 
L 3809 1919 
L 2778 1919 
L 2778 2438 
L 4434 2438 
L 4434 434 
Q 4069 175 3628 42 
Q 3188 -91 2688 -91 
Q 1594 -91 976 548 
Q 359 1188 359 2328 
Q 359 3472 976 4111 
Q 1594 4750 2688 4750 
Q 3144 4750 3555 4637 
Q 3966 4525 4313 4306 
L 4313 3634 
Q 3963 3931 3569 4081 
Q 3175 4231 2741 4231 
Q 1884 4231 1454 3753 
Q 1025 3275 1025 2328 
Q 1025 1384 1454 906 
Q 1884 428 2741 428 
Q 3075 428 3337 486 
Q 3600 544 3809 666 
z
" transform="scale(0.015625)"/>
     </defs>
     <use xlink:href="#DejaVuSans-31"/>
     <use xlink:href="#DejaVuSans-20" x="63.623047"/>
     <use xlink:href="#DejaVuSans-47" x="95.410156"/>
     <use xlink:href="#DejaVuSans-63" x="172.900391"/>
     <use xlink:href="#DejaVuSans-70" x="227.880859"/>
     <use xlink:href="#DejaVuSans-73" x="291.357422"/>
    </g>
   </g>
  </g>
 </g>
 <defs>
  <clipPath id="p5bf72a748d">
   <rect x="48.275" y="23.837813" width="246.176471" height="166.32"/>
  </clipPath>
  <clipPath id="p184702c961">
   <rect x="343.686765" y="23.837813" width="246.176471" height="166.32"/>
  </clipPath>
  <clipPath id="pc232028867">
   <rect x="639.098529" y="23.837813" width="246.176471" height="166.32"/>
  </clipPath>
 </defs>
</svg>
