<?xml version="1.0" encoding="utf-8" standalone="no"?>
<!DOCTYPE svg PUBLIC "-//W3C//DTD SVG 1.1//EN"
  "http://www.w3.org/Graphics/SVG/1.1/DTD/svg11.dtd">
<svg xmlns:xlink="http://www.w3.org/1999/xlink" width="855.401563pt" height="276.945312pt" viewBox="0 0 855.401563 276.945312" xmlns="http://www.w3.org/2000/svg" version="1.1">
 <metadata>
  <rdf:RDF xmlns:dc="http://purl.org/dc/elements/1.1/" xmlns:cc="http://creativecommons.org/ns#" xmlns:rdf="http://www.w3.org/1999/02/22-rdf-syntax-ns#">
   <cc:Work>
    <dc:type rdf:resource="http://purl.org/dc/dcmitype/StillImage"/>
    <dc:date>2023-11-28T15:20:25.766420</dc:date>
    <dc:format>image/svg+xml</dc:format>
    <dc:creator>
     <cc:Agent>
      <dc:title>Matplotlib v3.8.1, https://matplotlib.org/</dc:title>
     </cc:Agent>
    </dc:creator>
   </cc:Work>
  </rdf:RDF>
 </metadata>
 <defs>
  <style type="text/css">*{stroke-linejoin: round; stroke-linecap: butt}</style>
 </defs>
 <g id="figure_1">
  <g id="patch_1">
   <path d="M 0 276.945312 
L 855.401563 276.945312 
L 855.401563 0 
L 0 0 
L 0 276.945312 
z
" style="fill: none"/>
  </g>
  <g id="axes_1">
   <g id="patch_2">
    <path d="M 67.001563 235.517812 
L 274.76752 235.517812 
L 274.76752 23.837812 
L 67.001563 23.837812 
z
" style="fill: #a3a3ff; fill-opacity: 0.04"/>
   </g>
   <g id="matplotlib.axis_1">
    <g id="xtick_1">
     <g id="line2d_1">
      <path d="M 69.834377 235.517812 
L 69.834377 23.837812 
" clip-path="url(#pd8ce024dba)" style="fill: none; stroke: #b0b0b0; stroke-opacity: 0.2; stroke-width: 0.8; stroke-linecap: square"/>
     </g>
     <g id="line2d_2">
      <defs>
       <path id="mc62caae663" d="M 0 0 
L 0 4 
" style="stroke: #b6bccf; stroke-width: 1.2"/>
      </defs>
      <g>
       <use xlink:href="#mc62caae663" x="69.834377" y="235.517812" style="fill: #b6bccf; stroke: #b6bccf; stroke-width: 1.2"/>
      </g>
     </g>
     <g id="text_1">
      <!-- $\mathdefault{10^{5}}$ -->
      <g style="fill: #b6bccf" transform="translate(60.154377 250.876094) scale(0.11 -0.11)">
       <defs>
        <path id="DejaVuSans-31" d="M 794 531 
L 1825 531 
L 1825 4091 
L 703 3866 
L 703 4441 
L 1819 4666 
L 2450 4666 
L 2450 531 
L 3481 531 
L 3481 0 
L 794 0 
L 794 531 
z
" transform="scale(0.015625)"/>
        <path id="DejaVuSans-30" d="M 2034 4250 
Q 1547 4250 1301 3770 
Q 1056 3291 1056 2328 
Q 1056 1369 1301 889 
Q 1547 409 2034 409 
Q 2525 409 2770 889 
Q 3016 1369 3016 2328 
Q 3016 3291 2770 3770 
Q 2525 4250 2034 4250 
z
M 2034 4750 
Q 2819 4750 3233 4129 
Q 3647 3509 3647 2328 
Q 3647 1150 3233 529 
Q 2819 -91 2034 -91 
Q 1250 -91 836 529 
Q 422 1150 422 2328 
Q 422 3509 836 4129 
Q 1250 4750 2034 4750 
z
" transform="scale(0.015625)"/>
        <path id="DejaVuSans-35" d="M 691 4666 
L 3169 4666 
L 3169 4134 
L 1269 4134 
L 1269 2991 
Q 1406 3038 1543 3061 
Q 1681 3084 1819 3084 
Q 2600 3084 3056 2656 
Q 3513 2228 3513 1497 
Q 3513 744 3044 326 
Q 2575 -91 1722 -91 
Q 1428 -91 1123 -41 
Q 819 9 494 109 
L 494 744 
Q 775 591 1075 516 
Q 1375 441 1709 441 
Q 2250 441 2565 725 
Q 2881 1009 2881 1497 
Q 2881 1984 2565 2268 
Q 2250 2553 1709 2553 
Q 1456 2553 1204 2497 
Q 953 2441 691 2322 
L 691 4666 
z
" transform="scale(0.015625)"/>
       </defs>
       <use xlink:href="#DejaVuSans-31" transform="translate(0 0.684375)"/>
       <use xlink:href="#DejaVuSans-30" transform="translate(63.623047 0.684375)"/>
       <use xlink:href="#DejaVuSans-35" transform="translate(128.203125 38.965625) scale(0.7)"/>
      </g>
     </g>
    </g>
    <g id="xtick_2">
     <g id="line2d_3">
      <path d="M 141.45015 235.517812 
L 141.45015 23.837812 
" clip-path="url(#pd8ce024dba)" style="fill: none; stroke: #b0b0b0; stroke-opacity: 0.2; stroke-width: 0.8; stroke-linecap: square"/>
     </g>
     <g id="line2d_4">
      <g>
       <use xlink:href="#mc62caae663" x="141.45015" y="235.517812" style="fill: #b6bccf; stroke: #b6bccf; stroke-width: 1.2"/>
      </g>
     </g>
     <g id="text_2">
      <!-- $\mathdefault{10^{6}}$ -->
      <g style="fill: #b6bccf" transform="translate(131.77015 250.876094) scale(0.11 -0.11)">
       <defs>
        <path id="DejaVuSans-36" d="M 2113 2584 
Q 1688 2584 1439 2293 
Q 1191 2003 1191 1497 
Q 1191 994 1439 701 
Q 1688 409 2113 409 
Q 2538 409 2786 701 
Q 3034 994 3034 1497 
Q 3034 2003 2786 2293 
Q 2538 2584 2113 2584 
z
M 3366 4563 
L 3366 3988 
Q 3128 4100 2886 4159 
Q 2644 4219 2406 4219 
Q 1781 4219 1451 3797 
Q 1122 3375 1075 2522 
Q 1259 2794 1537 2939 
Q 1816 3084 2150 3084 
Q 2853 3084 3261 2657 
Q 3669 2231 3669 1497 
Q 3669 778 3244 343 
Q 2819 -91 2113 -91 
Q 1303 -91 875 529 
Q 447 1150 447 2328 
Q 447 3434 972 4092 
Q 1497 4750 2381 4750 
Q 2619 4750 2861 4703 
Q 3103 4656 3366 4563 
z
" transform="scale(0.015625)"/>
       </defs>
       <use xlink:href="#DejaVuSans-31" transform="translate(0 0.765625)"/>
       <use xlink:href="#DejaVuSans-30" transform="translate(63.623047 0.765625)"/>
       <use xlink:href="#DejaVuSans-36" transform="translate(128.203125 39.046875) scale(0.7)"/>
      </g>
     </g>
    </g>
    <g id="xtick_3">
     <g id="line2d_5">
      <path d="M 213.065924 235.517812 
L 213.065924 23.837812 
" clip-path="url(#pd8ce024dba)" style="fill: none; stroke: #b0b0b0; stroke-opacity: 0.2; stroke-width: 0.8; stroke-linecap: square"/>
     </g>
     <g id="line2d_6">
      <g>
       <use xlink:href="#mc62caae663" x="213.065924" y="235.517812" style="fill: #b6bccf; stroke: #b6bccf; stroke-width: 1.2"/>
      </g>
     </g>
     <g id="text_3">
      <!-- $\mathdefault{10^{7}}$ -->
      <g style="fill: #b6bccf" transform="translate(203.385924 250.876094) scale(0.11 -0.11)">
       <defs>
        <path id="DejaVuSans-37" d="M 525 4666 
L 3525 4666 
L 3525 4397 
L 1831 0 
L 1172 0 
L 2766 4134 
L 525 4134 
L 525 4666 
z
" transform="scale(0.015625)"/>
       </defs>
       <use xlink:href="#DejaVuSans-31" transform="translate(0 0.684375)"/>
       <use xlink:href="#DejaVuSans-30" transform="translate(63.623047 0.684375)"/>
       <use xlink:href="#DejaVuSans-37" transform="translate(128.203125 38.965625) scale(0.7)"/>
      </g>
     </g>
    </g>
    <g id="xtick_4">
     <g id="line2d_7">
      <path d="M 91.392873 235.517812 
L 91.392873 23.837812 
" clip-path="url(#pd8ce024dba)" style="fill: none; stroke: #b0b0b0; stroke-opacity: 0.2; stroke-width: 0.8; stroke-linecap: square"/>
     </g>
     <g id="line2d_8"/>
    </g>
    <g id="xtick_5">
     <g id="line2d_9">
      <path d="M 104.003784 235.517812 
L 104.003784 23.837812 
" clip-path="url(#pd8ce024dba)" style="fill: none; stroke: #b0b0b0; stroke-opacity: 0.2; stroke-width: 0.8; stroke-linecap: square"/>
     </g>
     <g id="line2d_10"/>
    </g>
    <g id="xtick_6">
     <g id="line2d_11">
      <path d="M 112.951369 235.517812 
L 112.951369 23.837812 
" clip-path="url(#pd8ce024dba)" style="fill: none; stroke: #b0b0b0; stroke-opacity: 0.2; stroke-width: 0.8; stroke-linecap: square"/>
     </g>
     <g id="line2d_12"/>
    </g>
    <g id="xtick_7">
     <g id="line2d_13">
      <path d="M 119.891654 235.517812 
L 119.891654 23.837812 
" clip-path="url(#pd8ce024dba)" style="fill: none; stroke: #b0b0b0; stroke-opacity: 0.2; stroke-width: 0.8; stroke-linecap: square"/>
     </g>
     <g id="line2d_14"/>
    </g>
    <g id="xtick_8">
     <g id="line2d_15">
      <path d="M 125.56228 235.517812 
L 125.56228 23.837812 
" clip-path="url(#pd8ce024dba)" style="fill: none; stroke: #b0b0b0; stroke-opacity: 0.2; stroke-width: 0.8; stroke-linecap: square"/>
     </g>
     <g id="line2d_16"/>
    </g>
    <g id="xtick_9">
     <g id="line2d_17">
      <path d="M 130.356727 235.517812 
L 130.356727 23.837812 
" clip-path="url(#pd8ce024dba)" style="fill: none; stroke: #b0b0b0; stroke-opacity: 0.2; stroke-width: 0.8; stroke-linecap: square"/>
     </g>
     <g id="line2d_18"/>
    </g>
    <g id="xtick_10">
     <g id="line2d_19">
      <path d="M 134.509865 235.517812 
L 134.509865 23.837812 
" clip-path="url(#pd8ce024dba)" style="fill: none; stroke: #b0b0b0; stroke-opacity: 0.2; stroke-width: 0.8; stroke-linecap: square"/>
     </g>
     <g id="line2d_20"/>
    </g>
    <g id="xtick_11">
     <g id="line2d_21">
      <path d="M 138.173192 235.517812 
L 138.173192 23.837812 
" clip-path="url(#pd8ce024dba)" style="fill: none; stroke: #b0b0b0; stroke-opacity: 0.2; stroke-width: 0.8; stroke-linecap: square"/>
     </g>
     <g id="line2d_22"/>
    </g>
    <g id="xtick_12">
     <g id="line2d_23">
      <path d="M 163.008646 235.517812 
L 163.008646 23.837812 
" clip-path="url(#pd8ce024dba)" style="fill: none; stroke: #b0b0b0; stroke-opacity: 0.2; stroke-width: 0.8; stroke-linecap: square"/>
     </g>
     <g id="line2d_24"/>
    </g>
    <g id="xtick_13">
     <g id="line2d_25">
      <path d="M 175.619558 235.517812 
L 175.619558 23.837812 
" clip-path="url(#pd8ce024dba)" style="fill: none; stroke: #b0b0b0; stroke-opacity: 0.2; stroke-width: 0.8; stroke-linecap: square"/>
     </g>
     <g id="line2d_26"/>
    </g>
    <g id="xtick_14">
     <g id="line2d_27">
      <path d="M 184.567142 235.517812 
L 184.567142 23.837812 
" clip-path="url(#pd8ce024dba)" style="fill: none; stroke: #b0b0b0; stroke-opacity: 0.2; stroke-width: 0.8; stroke-linecap: square"/>
     </g>
     <g id="line2d_28"/>
    </g>
    <g id="xtick_15">
     <g id="line2d_29">
      <path d="M 191.507428 235.517812 
L 191.507428 23.837812 
" clip-path="url(#pd8ce024dba)" style="fill: none; stroke: #b0b0b0; stroke-opacity: 0.2; stroke-width: 0.8; stroke-linecap: square"/>
     </g>
     <g id="line2d_30"/>
    </g>
    <g id="xtick_16">
     <g id="line2d_31">
      <path d="M 197.178054 235.517812 
L 197.178054 23.837812 
" clip-path="url(#pd8ce024dba)" style="fill: none; stroke: #b0b0b0; stroke-opacity: 0.2; stroke-width: 0.8; stroke-linecap: square"/>
     </g>
     <g id="line2d_32"/>
    </g>
    <g id="xtick_17">
     <g id="line2d_33">
      <path d="M 201.9725 235.517812 
L 201.9725 23.837812 
" clip-path="url(#pd8ce024dba)" style="fill: none; stroke: #b0b0b0; stroke-opacity: 0.2; stroke-width: 0.8; stroke-linecap: square"/>
     </g>
     <g id="line2d_34"/>
    </g>
    <g id="xtick_18">
     <g id="line2d_35">
      <path d="M 206.125638 235.517812 
L 206.125638 23.837812 
" clip-path="url(#pd8ce024dba)" style="fill: none; stroke: #b0b0b0; stroke-opacity: 0.2; stroke-width: 0.8; stroke-linecap: square"/>
     </g>
     <g id="line2d_36"/>
    </g>
    <g id="xtick_19">
     <g id="line2d_37">
      <path d="M 209.788966 235.517812 
L 209.788966 23.837812 
" clip-path="url(#pd8ce024dba)" style="fill: none; stroke: #b0b0b0; stroke-opacity: 0.2; stroke-width: 0.8; stroke-linecap: square"/>
     </g>
     <g id="line2d_38"/>
    </g>
    <g id="xtick_20">
     <g id="line2d_39">
      <path d="M 234.62442 235.517812 
L 234.62442 23.837812 
" clip-path="url(#pd8ce024dba)" style="fill: none; stroke: #b0b0b0; stroke-opacity: 0.2; stroke-width: 0.8; stroke-linecap: square"/>
     </g>
     <g id="line2d_40"/>
    </g>
    <g id="xtick_21">
     <g id="line2d_41">
      <path d="M 247.235332 235.517812 
L 247.235332 23.837812 
" clip-path="url(#pd8ce024dba)" style="fill: none; stroke: #b0b0b0; stroke-opacity: 0.2; stroke-width: 0.8; stroke-linecap: square"/>
     </g>
     <g id="line2d_42"/>
    </g>
    <g id="xtick_22">
     <g id="line2d_43">
      <path d="M 256.182916 235.517812 
L 256.182916 23.837812 
" clip-path="url(#pd8ce024dba)" style="fill: none; stroke: #b0b0b0; stroke-opacity: 0.2; stroke-width: 0.8; stroke-linecap: square"/>
     </g>
     <g id="line2d_44"/>
    </g>
    <g id="xtick_23">
     <g id="line2d_45">
      <path d="M 263.123202 235.517812 
L 263.123202 23.837812 
" clip-path="url(#pd8ce024dba)" style="fill: none; stroke: #b0b0b0; stroke-opacity: 0.2; stroke-width: 0.8; stroke-linecap: square"/>
     </g>
     <g id="line2d_46"/>
    </g>
    <g id="xtick_24">
     <g id="line2d_47">
      <path d="M 268.793828 235.517812 
L 268.793828 23.837812 
" clip-path="url(#pd8ce024dba)" style="fill: none; stroke: #b0b0b0; stroke-opacity: 0.2; stroke-width: 0.8; stroke-linecap: square"/>
     </g>
     <g id="line2d_48"/>
    </g>
    <g id="xtick_25">
     <g id="line2d_49">
      <path d="M 273.588274 235.517812 
L 273.588274 23.837812 
" clip-path="url(#pd8ce024dba)" style="fill: none; stroke: #b0b0b0; stroke-opacity: 0.2; stroke-width: 0.8; stroke-linecap: square"/>
     </g>
     <g id="line2d_50"/>
    </g>
    <g id="text_4">
     <!-- count rate -->
     <g style="fill: #b6bccf" transform="translate(137.27751 267.041719) scale(0.13 -0.13)">
      <defs>
       <path id="DejaVuSans-63" d="M 3122 3366 
L 3122 2828 
Q 2878 2963 2633 3030 
Q 2388 3097 2138 3097 
Q 1578 3097 1268 2742 
Q 959 2388 959 1747 
Q 959 1106 1268 751 
Q 1578 397 2138 397 
Q 2388 397 2633 464 
Q 2878 531 3122 666 
L 3122 134 
Q 2881 22 2623 -34 
Q 2366 -91 2075 -91 
Q 1284 -91 818 406 
Q 353 903 353 1747 
Q 353 2603 823 3093 
Q 1294 3584 2113 3584 
Q 2378 3584 2631 3529 
Q 2884 3475 3122 3366 
z
" transform="scale(0.015625)"/>
       <path id="DejaVuSans-6f" d="M 1959 3097 
Q 1497 3097 1228 2736 
Q 959 2375 959 1747 
Q 959 1119 1226 758 
Q 1494 397 1959 397 
Q 2419 397 2687 759 
Q 2956 1122 2956 1747 
Q 2956 2369 2687 2733 
Q 2419 3097 1959 3097 
z
M 1959 3584 
Q 2709 3584 3137 3096 
Q 3566 2609 3566 1747 
Q 3566 888 3137 398 
Q 2709 -91 1959 -91 
Q 1206 -91 779 398 
Q 353 888 353 1747 
Q 353 2609 779 3096 
Q 1206 3584 1959 3584 
z
" transform="scale(0.015625)"/>
       <path id="DejaVuSans-75" d="M 544 1381 
L 544 3500 
L 1119 3500 
L 1119 1403 
Q 1119 906 1312 657 
Q 1506 409 1894 409 
Q 2359 409 2629 706 
Q 2900 1003 2900 1516 
L 2900 3500 
L 3475 3500 
L 3475 0 
L 2900 0 
L 2900 538 
Q 2691 219 2414 64 
Q 2138 -91 1772 -91 
Q 1169 -91 856 284 
Q 544 659 544 1381 
z
M 1991 3584 
L 1991 3584 
z
" transform="scale(0.015625)"/>
       <path id="DejaVuSans-6e" d="M 3513 2113 
L 3513 0 
L 2938 0 
L 2938 2094 
Q 2938 2591 2744 2837 
Q 2550 3084 2163 3084 
Q 1697 3084 1428 2787 
Q 1159 2491 1159 1978 
L 1159 0 
L 581 0 
L 581 3500 
L 1159 3500 
L 1159 2956 
Q 1366 3272 1645 3428 
Q 1925 3584 2291 3584 
Q 2894 3584 3203 3211 
Q 3513 2838 3513 2113 
z
" transform="scale(0.015625)"/>
       <path id="DejaVuSans-74" d="M 1172 4494 
L 1172 3500 
L 2356 3500 
L 2356 3053 
L 1172 3053 
L 1172 1153 
Q 1172 725 1289 603 
Q 1406 481 1766 481 
L 2356 481 
L 2356 0 
L 1766 0 
Q 1100 0 847 248 
Q 594 497 594 1153 
L 594 3053 
L 172 3053 
L 172 3500 
L 594 3500 
L 594 4494 
L 1172 4494 
z
" transform="scale(0.015625)"/>
       <path id="DejaVuSans-20" transform="scale(0.015625)"/>
       <path id="DejaVuSans-72" d="M 2631 2963 
Q 2534 3019 2420 3045 
Q 2306 3072 2169 3072 
Q 1681 3072 1420 2755 
Q 1159 2438 1159 1844 
L 1159 0 
L 581 0 
L 581 3500 
L 1159 3500 
L 1159 2956 
Q 1341 3275 1631 3429 
Q 1922 3584 2338 3584 
Q 2397 3584 2469 3576 
Q 2541 3569 2628 3553 
L 2631 2963 
z
" transform="scale(0.015625)"/>
       <path id="DejaVuSans-61" d="M 2194 1759 
Q 1497 1759 1228 1600 
Q 959 1441 959 1056 
Q 959 750 1161 570 
Q 1363 391 1709 391 
Q 2188 391 2477 730 
Q 2766 1069 2766 1631 
L 2766 1759 
L 2194 1759 
z
M 3341 1997 
L 3341 0 
L 2766 0 
L 2766 531 
Q 2569 213 2275 61 
Q 1981 -91 1556 -91 
Q 1019 -91 701 211 
Q 384 513 384 1019 
Q 384 1609 779 1909 
Q 1175 2209 1959 2209 
L 2766 2209 
L 2766 2266 
Q 2766 2663 2505 2880 
Q 2244 3097 1772 3097 
Q 1472 3097 1187 3025 
Q 903 2953 641 2809 
L 641 3341 
Q 956 3463 1253 3523 
Q 1550 3584 1831 3584 
Q 2591 3584 2966 3190 
Q 3341 2797 3341 1997 
z
" transform="scale(0.015625)"/>
       <path id="DejaVuSans-65" d="M 3597 1894 
L 3597 1613 
L 953 1613 
Q 991 1019 1311 708 
Q 1631 397 2203 397 
Q 2534 397 2845 478 
Q 3156 559 3463 722 
L 3463 178 
Q 3153 47 2828 -22 
Q 2503 -91 2169 -91 
Q 1331 -91 842 396 
Q 353 884 353 1716 
Q 353 2575 817 3079 
Q 1281 3584 2069 3584 
Q 2775 3584 3186 3129 
Q 3597 2675 3597 1894 
z
M 3022 2063 
Q 3016 2534 2758 2815 
Q 2500 3097 2075 3097 
Q 1594 3097 1305 2825 
Q 1016 2553 972 2059 
L 3022 2063 
z
" transform="scale(0.015625)"/>
      </defs>
      <use xlink:href="#DejaVuSans-63"/>
      <use xlink:href="#DejaVuSans-6f" x="54.980469"/>
      <use xlink:href="#DejaVuSans-75" x="116.162109"/>
      <use xlink:href="#DejaVuSans-6e" x="179.541016"/>
      <use xlink:href="#DejaVuSans-74" x="242.919922"/>
      <use xlink:href="#DejaVuSans-20" x="282.128906"/>
      <use xlink:href="#DejaVuSans-72" x="313.916016"/>
      <use xlink:href="#DejaVuSans-61" x="355.029297"/>
      <use xlink:href="#DejaVuSans-74" x="416.308594"/>
      <use xlink:href="#DejaVuSans-65" x="455.517578"/>
     </g>
    </g>
   </g>
   <g id="matplotlib.axis_2">
    <g id="ytick_1">
     <g id="line2d_51">
      <path d="M 67.001563 65.779864 
L 274.76752 65.779864 
" clip-path="url(#pd8ce024dba)" style="fill: none; stroke: #b0b0b0; stroke-opacity: 0.2; stroke-width: 0.8; stroke-linecap: square"/>
     </g>
     <g id="line2d_52">
      <defs>
       <path id="ma640287362" d="M 0 0 
L -4 0 
" style="stroke: #b6bccf; stroke-width: 1.2"/>
      </defs>
      <g>
       <use xlink:href="#ma640287362" x="67.001563" y="65.779864" style="fill: #b6bccf; stroke: #b6bccf; stroke-width: 1.2"/>
      </g>
     </g>
     <g id="text_5">
      <!-- $\mathdefault{10^{2}}$ -->
      <g style="fill: #b6bccf" transform="translate(40.641563 69.959005) scale(0.11 -0.11)">
       <defs>
        <path id="DejaVuSans-32" d="M 1228 531 
L 3431 531 
L 3431 0 
L 469 0 
L 469 531 
Q 828 903 1448 1529 
Q 2069 2156 2228 2338 
Q 2531 2678 2651 2914 
Q 2772 3150 2772 3378 
Q 2772 3750 2511 3984 
Q 2250 4219 1831 4219 
Q 1534 4219 1204 4116 
Q 875 4013 500 3803 
L 500 4441 
Q 881 4594 1212 4672 
Q 1544 4750 1819 4750 
Q 2544 4750 2975 4387 
Q 3406 4025 3406 3419 
Q 3406 3131 3298 2873 
Q 3191 2616 2906 2266 
Q 2828 2175 2409 1742 
Q 1991 1309 1228 531 
z
" transform="scale(0.015625)"/>
       </defs>
       <use xlink:href="#DejaVuSans-31" transform="translate(0 0.765625)"/>
       <use xlink:href="#DejaVuSans-30" transform="translate(63.623047 0.765625)"/>
       <use xlink:href="#DejaVuSans-32" transform="translate(128.203125 39.046875) scale(0.7)"/>
      </g>
     </g>
    </g>
    <g id="ytick_2">
     <g id="line2d_53">
      <path d="M 67.001563 232.710703 
L 274.76752 232.710703 
" clip-path="url(#pd8ce024dba)" style="fill: none; stroke: #b0b0b0; stroke-opacity: 0.2; stroke-width: 0.8; stroke-linecap: square"/>
     </g>
     <g id="line2d_54"/>
     <g id="text_6">
      <!-- $\mathdefault{2\times10^{1}}$ -->
      <g style="fill: #b6bccf" transform="translate(23.781563 236.889844) scale(0.11 -0.11)">
       <defs>
        <path id="DejaVuSans-d7" d="M 4488 3438 
L 3059 2003 
L 4488 575 
L 4116 197 
L 2681 1631 
L 1247 197 
L 878 575 
L 2303 2003 
L 878 3438 
L 1247 3816 
L 2681 2381 
L 4116 3816 
L 4488 3438 
z
" transform="scale(0.015625)"/>
       </defs>
       <use xlink:href="#DejaVuSans-32" transform="translate(0 0.684375)"/>
       <use xlink:href="#DejaVuSans-d7" transform="translate(83.105469 0.684375)"/>
       <use xlink:href="#DejaVuSans-31" transform="translate(186.376953 0.684375)"/>
       <use xlink:href="#DejaVuSans-30" transform="translate(250 0.684375)"/>
       <use xlink:href="#DejaVuSans-31" transform="translate(314.580078 38.965625) scale(0.7)"/>
      </g>
     </g>
    </g>
    <g id="ytick_3">
     <g id="line2d_55">
      <path d="M 67.001563 190.655878 
L 274.76752 190.655878 
" clip-path="url(#pd8ce024dba)" style="fill: none; stroke: #b0b0b0; stroke-opacity: 0.2; stroke-width: 0.8; stroke-linecap: square"/>
     </g>
     <g id="line2d_56"/>
     <g id="text_7">
      <!-- $\mathdefault{3\times10^{1}}$ -->
      <g style="fill: #b6bccf" transform="translate(23.781563 194.835018) scale(0.11 -0.11)">
       <defs>
        <path id="DejaVuSans-33" d="M 2597 2516 
Q 3050 2419 3304 2112 
Q 3559 1806 3559 1356 
Q 3559 666 3084 287 
Q 2609 -91 1734 -91 
Q 1441 -91 1130 -33 
Q 819 25 488 141 
L 488 750 
Q 750 597 1062 519 
Q 1375 441 1716 441 
Q 2309 441 2620 675 
Q 2931 909 2931 1356 
Q 2931 1769 2642 2001 
Q 2353 2234 1838 2234 
L 1294 2234 
L 1294 2753 
L 1863 2753 
Q 2328 2753 2575 2939 
Q 2822 3125 2822 3475 
Q 2822 3834 2567 4026 
Q 2313 4219 1838 4219 
Q 1578 4219 1281 4162 
Q 984 4106 628 3988 
L 628 4550 
Q 988 4650 1302 4700 
Q 1616 4750 1894 4750 
Q 2613 4750 3031 4423 
Q 3450 4097 3450 3541 
Q 3450 3153 3228 2886 
Q 3006 2619 2597 2516 
z
" transform="scale(0.015625)"/>
       </defs>
       <use xlink:href="#DejaVuSans-33" transform="translate(0 0.684375)"/>
       <use xlink:href="#DejaVuSans-d7" transform="translate(83.105469 0.684375)"/>
       <use xlink:href="#DejaVuSans-31" transform="translate(186.376953 0.684375)"/>
       <use xlink:href="#DejaVuSans-30" transform="translate(250 0.684375)"/>
       <use xlink:href="#DejaVuSans-31" transform="translate(314.580078 38.965625) scale(0.7)"/>
      </g>
     </g>
    </g>
    <g id="ytick_4">
     <g id="line2d_57">
      <path d="M 67.001563 160.817504 
L 274.76752 160.817504 
" clip-path="url(#pd8ce024dba)" style="fill: none; stroke: #b0b0b0; stroke-opacity: 0.2; stroke-width: 0.8; stroke-linecap: square"/>
     </g>
     <g id="line2d_58"/>
     <g id="text_8">
      <!-- $\mathdefault{4\times10^{1}}$ -->
      <g style="fill: #b6bccf" transform="translate(23.781563 164.996645) scale(0.11 -0.11)">
       <defs>
        <path id="DejaVuSans-34" d="M 2419 4116 
L 825 1625 
L 2419 1625 
L 2419 4116 
z
M 2253 4666 
L 3047 4666 
L 3047 1625 
L 3713 1625 
L 3713 1100 
L 3047 1100 
L 3047 0 
L 2419 0 
L 2419 1100 
L 313 1100 
L 313 1709 
L 2253 4666 
z
" transform="scale(0.015625)"/>
       </defs>
       <use xlink:href="#DejaVuSans-34" transform="translate(0 0.684375)"/>
       <use xlink:href="#DejaVuSans-d7" transform="translate(83.105469 0.684375)"/>
       <use xlink:href="#DejaVuSans-31" transform="translate(186.376953 0.684375)"/>
       <use xlink:href="#DejaVuSans-30" transform="translate(250 0.684375)"/>
       <use xlink:href="#DejaVuSans-31" transform="translate(314.580078 38.965625) scale(0.7)"/>
      </g>
     </g>
    </g>
    <g id="ytick_5">
     <g id="line2d_59">
      <path d="M 67.001563 137.673064 
L 274.76752 137.673064 
" clip-path="url(#pd8ce024dba)" style="fill: none; stroke: #b0b0b0; stroke-opacity: 0.2; stroke-width: 0.8; stroke-linecap: square"/>
     </g>
     <g id="line2d_60"/>
    </g>
    <g id="ytick_6">
     <g id="line2d_61">
      <path d="M 67.001563 118.762679 
L 274.76752 118.762679 
" clip-path="url(#pd8ce024dba)" style="fill: none; stroke: #b0b0b0; stroke-opacity: 0.2; stroke-width: 0.8; stroke-linecap: square"/>
     </g>
     <g id="line2d_62"/>
     <g id="text_9">
      <!-- $\mathdefault{6\times10^{1}}$ -->
      <g style="fill: #b6bccf" transform="translate(23.781563 122.941819) scale(0.11 -0.11)">
       <use xlink:href="#DejaVuSans-36" transform="translate(0 0.684375)"/>
       <use xlink:href="#DejaVuSans-d7" transform="translate(83.105469 0.684375)"/>
       <use xlink:href="#DejaVuSans-31" transform="translate(186.376953 0.684375)"/>
       <use xlink:href="#DejaVuSans-30" transform="translate(250 0.684375)"/>
       <use xlink:href="#DejaVuSans-31" transform="translate(314.580078 38.965625) scale(0.7)"/>
      </g>
     </g>
    </g>
    <g id="ytick_7">
     <g id="line2d_63">
      <path d="M 67.001563 102.774176 
L 274.76752 102.774176 
" clip-path="url(#pd8ce024dba)" style="fill: none; stroke: #b0b0b0; stroke-opacity: 0.2; stroke-width: 0.8; stroke-linecap: square"/>
     </g>
     <g id="line2d_64"/>
    </g>
    <g id="ytick_8">
     <g id="line2d_65">
      <path d="M 67.001563 88.924305 
L 274.76752 88.924305 
" clip-path="url(#pd8ce024dba)" style="fill: none; stroke: #b0b0b0; stroke-opacity: 0.2; stroke-width: 0.8; stroke-linecap: square"/>
     </g>
     <g id="line2d_66"/>
    </g>
    <g id="ytick_9">
     <g id="line2d_67">
      <path d="M 67.001563 76.707853 
L 274.76752 76.707853 
" clip-path="url(#pd8ce024dba)" style="fill: none; stroke: #b0b0b0; stroke-opacity: 0.2; stroke-width: 0.8; stroke-linecap: square"/>
     </g>
     <g id="line2d_68"/>
    </g>
    <g id="text_10">
     <!-- fwhm (ps) -->
     <g style="fill: #b6bccf" transform="translate(17.077969 162.269219) rotate(-90) scale(0.13 -0.13)">
      <defs>
       <path id="DejaVuSans-66" d="M 2375 4863 
L 2375 4384 
L 1825 4384 
Q 1516 4384 1395 4259 
Q 1275 4134 1275 3809 
L 1275 3500 
L 2222 3500 
L 2222 3053 
L 1275 3053 
L 1275 0 
L 697 0 
L 697 3053 
L 147 3053 
L 147 3500 
L 697 3500 
L 697 3744 
Q 697 4328 969 4595 
Q 1241 4863 1831 4863 
L 2375 4863 
z
" transform="scale(0.015625)"/>
       <path id="DejaVuSans-77" d="M 269 3500 
L 844 3500 
L 1563 769 
L 2278 3500 
L 2956 3500 
L 3675 769 
L 4391 3500 
L 4966 3500 
L 4050 0 
L 3372 0 
L 2619 2869 
L 1863 0 
L 1184 0 
L 269 3500 
z
" transform="scale(0.015625)"/>
       <path id="DejaVuSans-68" d="M 3513 2113 
L 3513 0 
L 2938 0 
L 2938 2094 
Q 2938 2591 2744 2837 
Q 2550 3084 2163 3084 
Q 1697 3084 1428 2787 
Q 1159 2491 1159 1978 
L 1159 0 
L 581 0 
L 581 4863 
L 1159 4863 
L 1159 2956 
Q 1366 3272 1645 3428 
Q 1925 3584 2291 3584 
Q 2894 3584 3203 3211 
Q 3513 2838 3513 2113 
z
" transform="scale(0.015625)"/>
       <path id="DejaVuSans-6d" d="M 3328 2828 
Q 3544 3216 3844 3400 
Q 4144 3584 4550 3584 
Q 5097 3584 5394 3201 
Q 5691 2819 5691 2113 
L 5691 0 
L 5113 0 
L 5113 2094 
Q 5113 2597 4934 2840 
Q 4756 3084 4391 3084 
Q 3944 3084 3684 2787 
Q 3425 2491 3425 1978 
L 3425 0 
L 2847 0 
L 2847 2094 
Q 2847 2600 2669 2842 
Q 2491 3084 2119 3084 
Q 1678 3084 1418 2786 
Q 1159 2488 1159 1978 
L 1159 0 
L 581 0 
L 581 3500 
L 1159 3500 
L 1159 2956 
Q 1356 3278 1631 3431 
Q 1906 3584 2284 3584 
Q 2666 3584 2933 3390 
Q 3200 3197 3328 2828 
z
" transform="scale(0.015625)"/>
       <path id="DejaVuSans-28" d="M 1984 4856 
Q 1566 4138 1362 3434 
Q 1159 2731 1159 2009 
Q 1159 1288 1364 580 
Q 1569 -128 1984 -844 
L 1484 -844 
Q 1016 -109 783 600 
Q 550 1309 550 2009 
Q 550 2706 781 3412 
Q 1013 4119 1484 4856 
L 1984 4856 
z
" transform="scale(0.015625)"/>
       <path id="DejaVuSans-70" d="M 1159 525 
L 1159 -1331 
L 581 -1331 
L 581 3500 
L 1159 3500 
L 1159 2969 
Q 1341 3281 1617 3432 
Q 1894 3584 2278 3584 
Q 2916 3584 3314 3078 
Q 3713 2572 3713 1747 
Q 3713 922 3314 415 
Q 2916 -91 2278 -91 
Q 1894 -91 1617 61 
Q 1341 213 1159 525 
z
M 3116 1747 
Q 3116 2381 2855 2742 
Q 2594 3103 2138 3103 
Q 1681 3103 1420 2742 
Q 1159 2381 1159 1747 
Q 1159 1113 1420 752 
Q 1681 391 2138 391 
Q 2594 391 2855 752 
Q 3116 1113 3116 1747 
z
" transform="scale(0.015625)"/>
       <path id="DejaVuSans-73" d="M 2834 3397 
L 2834 2853 
Q 2591 2978 2328 3040 
Q 2066 3103 1784 3103 
Q 1356 3103 1142 2972 
Q 928 2841 928 2578 
Q 928 2378 1081 2264 
Q 1234 2150 1697 2047 
L 1894 2003 
Q 2506 1872 2764 1633 
Q 3022 1394 3022 966 
Q 3022 478 2636 193 
Q 2250 -91 1575 -91 
Q 1294 -91 989 -36 
Q 684 19 347 128 
L 347 722 
Q 666 556 975 473 
Q 1284 391 1588 391 
Q 1994 391 2212 530 
Q 2431 669 2431 922 
Q 2431 1156 2273 1281 
Q 2116 1406 1581 1522 
L 1381 1569 
Q 847 1681 609 1914 
Q 372 2147 372 2553 
Q 372 3047 722 3315 
Q 1072 3584 1716 3584 
Q 2034 3584 2315 3537 
Q 2597 3491 2834 3397 
z
" transform="scale(0.015625)"/>
       <path id="DejaVuSans-29" d="M 513 4856 
L 1013 4856 
Q 1481 4119 1714 3412 
Q 1947 2706 1947 2009 
Q 1947 1309 1714 600 
Q 1481 -109 1013 -844 
L 513 -844 
Q 928 -128 1133 580 
Q 1338 1288 1338 2009 
Q 1338 2731 1133 3434 
Q 928 4138 513 4856 
z
" transform="scale(0.015625)"/>
      </defs>
      <use xlink:href="#DejaVuSans-66"/>
      <use xlink:href="#DejaVuSans-77" x="33.455078"/>
      <use xlink:href="#DejaVuSans-68" x="115.242188"/>
      <use xlink:href="#DejaVuSans-6d" x="178.621094"/>
      <use xlink:href="#DejaVuSans-20" x="276.033203"/>
      <use xlink:href="#DejaVuSans-28" x="307.820312"/>
      <use xlink:href="#DejaVuSans-70" x="346.833984"/>
      <use xlink:href="#DejaVuSans-73" x="410.310547"/>
      <use xlink:href="#DejaVuSans-29" x="462.410156"/>
     </g>
    </g>
   </g>
   <g id="line2d_69">
    <path d="M 268.887351 29.828756 
L 266.79378 36.5971 
L 264.061771 43.536101 
L 261.958159 49.209763 
L 259.620186 58.206508 
L 256.361068 76.318375 
L 254.001386 94.680211 
L 251.547591 108.826762 
L 248.300695 121.459269 
L 245.701131 125.957384 
L 242.989622 133.363294 
L 239.773596 170.768212 
L 237.056411 183.443341 
L 234.301854 191.964642 
L 230.537598 197.281973 
L 227.443735 198.54477 
L 224.539306 204.74947 
L 220.60705 209.03913 
L 217.653504 209.211269 
L 214.691593 212.520357 
L 210.748105 213.446423 
L 207.532548 216.52084 
L 204.663535 217.616258 
L 200.994547 216.141718 
L 197.842243 220.227831 
L 194.786122 221.070417 
L 190.609452 221.0027 
L 187.614561 221.238199 
L 184.459771 220.912691 
L 180.188671 223.991468 
L 177.121012 224.650587 
L 173.92319 224.802285 
L 169.63175 225.677682 
L 166.205287 224.121323 
L 162.825181 224.385394 
L 158.59439 225.903532 
L 155.776301 227.005018 
L 152.529578 226.468263 
L 147.923862 225.726623 
L 144.832079 226.022311 
L 141.578464 226.951242 
L 137.351042 226.113823 
L 134.167393 227.284404 
L 130.844518 226.797972 
L 126.676102 228.620457 
L 123.539636 227.786606 
L 120.74025 225.729327 
L 116.123206 228.06543 
L 112.857677 225.156035 
L 109.70043 228.89839 
L 105.30951 226.830574 
L 102.251276 226.121049 
L 98.968461 226.778607 
L 94.499065 226.374287 
L 91.166325 227.464985 
L 88.004545 228.239407 
L 83.604902 228.45755 
L 80.273921 222.788965 
L 77.125514 228.962954 
L 72.881731 228.047518 
" clip-path="url(#pd8ce024dba)" style="fill: none; stroke: #bddf26; stroke-width: 2; stroke-linecap: square"/>
   </g>
   <g id="line2d_70">
    <path d="M 268.887351 84.358466 
L 266.79378 112.642453 
L 264.061771 131.677056 
L 261.958159 143.064185 
L 259.620186 153.570192 
L 256.361068 165.429503 
L 254.001386 172.343506 
L 251.547591 178.856417 
L 248.300695 188.208909 
L 245.701131 191.272002 
L 242.989622 198.387317 
L 239.773596 202.684682 
L 237.056411 206.754053 
L 234.301854 207.514879 
L 230.537598 212.593878 
L 227.443735 212.251732 
L 224.539306 215.613253 
L 220.60705 216.27789 
L 217.653504 219.752439 
L 214.691593 219.403653 
L 210.748105 222.689701 
L 207.532548 221.749561 
L 204.663535 222.210141 
L 200.994547 223.420151 
L 197.842243 226.456263 
L 194.786122 226.929539 
L 190.609452 223.916669 
L 187.614561 224.492169 
L 184.459771 224.769104 
L 180.188671 227.52065 
L 177.121012 227.926335 
L 173.92319 227.950462 
L 169.63175 228.187474 
L 166.205287 226.174267 
L 162.825181 227.044298 
L 158.59439 228.350989 
L 155.776301 229.194821 
L 152.529578 228.265869 
L 147.923862 227.395115 
L 144.832079 227.568175 
L 141.578464 228.503518 
L 137.351042 227.177455 
L 134.167393 228.307396 
L 130.844518 227.613905 
L 126.676102 229.447007 
L 123.539636 228.684786 
L 120.74025 226.848895 
L 116.123206 228.874497 
L 112.857677 226.212321 
L 109.70043 229.526869 
L 105.30951 227.621328 
L 102.251276 227.097303 
L 98.968461 227.427395 
L 94.499065 227.05324 
L 91.166325 227.471003 
L 88.004545 228.219045 
L 83.604902 228.698136 
L 80.273921 223.18828 
L 77.125514 228.788718 
L 72.881731 228.241559 
" clip-path="url(#pd8ce024dba)" style="fill: none; stroke: #38d7ac; stroke-width: 2; stroke-linecap: square"/>
   </g>
   <g id="line2d_71">
    <path d="M 268.887351 140.637984 
L 266.79378 149.717159 
L 264.061771 159.283307 
L 261.958159 166.119432 
L 259.620186 172.935625 
L 256.361068 182.174434 
L 254.001386 189.469727 
L 251.547591 192.385417 
L 248.300695 202.206525 
L 245.701131 201.107456 
L 242.989622 205.565906 
L 239.773596 210.567445 
L 237.056411 211.686535 
L 234.301854 213.916556 
L 230.537598 216.788514 
L 227.443735 214.22121 
L 224.539306 217.294514 
L 220.60705 217.071873 
L 217.653504 220.171288 
L 214.691593 219.653596 
L 210.748105 222.316017 
L 207.532548 220.910909 
L 204.663535 222.718497 
L 200.994547 222.351992 
L 197.842243 225.709249 
L 194.786122 225.693626 
L 190.609452 223.650121 
L 187.614561 223.475257 
L 184.459771 223.984518 
L 180.188671 227.249441 
L 177.121012 226.928886 
L 173.92319 226.673468 
L 169.63175 227.127002 
L 166.205287 225.232749 
L 162.825181 226.263207 
L 158.59439 227.442799 
L 155.776301 228.269709 
L 152.529578 227.45095 
L 147.923862 226.874833 
L 144.832079 227.114482 
L 141.578464 227.729056 
L 137.351042 226.944594 
L 134.167393 227.977006 
L 130.844518 227.368661 
L 126.676102 229.174673 
L 123.539636 228.254593 
L 120.74025 226.12514 
L 116.123206 228.360354 
L 112.857677 225.457025 
L 109.70043 229.100743 
L 105.30951 226.976457 
L 102.251276 226.272328 
L 98.968461 226.927828 
L 94.499065 226.484259 
L 91.166325 227.568352 
L 88.004545 228.302557 
L 83.604902 228.603042 
L 80.273921 222.919148 
L 77.125514 228.918946 
L 72.881731 228.108345 
" clip-path="url(#pd8ce024dba)" style="fill: none; stroke: #5386be; stroke-width: 2; stroke-linecap: square"/>
   </g>
   <g id="patch_3">
    <path d="M 67.001563 235.517812 
L 67.001563 23.837812 
" style="fill: none; stroke: #b6bccf; stroke-width: 1.2; stroke-linejoin: miter; stroke-linecap: square"/>
   </g>
   <g id="patch_4">
    <path d="M 67.001562 235.517812 
L 274.76752 235.517812 
" style="fill: none; stroke: #b6bccf; stroke-width: 1.2; stroke-linejoin: miter; stroke-linecap: square"/>
   </g>
   <g id="text_11">
    <!-- FWHM -->
    <g style="fill: #b6bccf" transform="translate(148.633291 17.837812) scale(0.14 -0.14)">
     <defs>
      <path id="DejaVuSans-46" d="M 628 4666 
L 3309 4666 
L 3309 4134 
L 1259 4134 
L 1259 2759 
L 3109 2759 
L 3109 2228 
L 1259 2228 
L 1259 0 
L 628 0 
L 628 4666 
z
" transform="scale(0.015625)"/>
      <path id="DejaVuSans-57" d="M 213 4666 
L 850 4666 
L 1831 722 
L 2809 4666 
L 3519 4666 
L 4500 722 
L 5478 4666 
L 6119 4666 
L 4947 0 
L 4153 0 
L 3169 4050 
L 2175 0 
L 1381 0 
L 213 4666 
z
" transform="scale(0.015625)"/>
      <path id="DejaVuSans-48" d="M 628 4666 
L 1259 4666 
L 1259 2753 
L 3553 2753 
L 3553 4666 
L 4184 4666 
L 4184 0 
L 3553 0 
L 3553 2222 
L 1259 2222 
L 1259 0 
L 628 0 
L 628 4666 
z
" transform="scale(0.015625)"/>
      <path id="DejaVuSans-4d" d="M 628 4666 
L 1569 4666 
L 2759 1491 
L 3956 4666 
L 4897 4666 
L 4897 0 
L 4281 0 
L 4281 4097 
L 3078 897 
L 2444 897 
L 1241 4097 
L 1241 0 
L 628 0 
L 628 4666 
z
" transform="scale(0.015625)"/>
     </defs>
     <use xlink:href="#DejaVuSans-46"/>
     <use xlink:href="#DejaVuSans-57" x="57.519531"/>
     <use xlink:href="#DejaVuSans-48" x="156.396484"/>
     <use xlink:href="#DejaVuSans-4d" x="231.591797"/>
    </g>
   </g>
   <g id="legend_1">
    <g id="line2d_72">
     <path d="M 77.801563 39.555938 
L 89.801563 39.555938 
L 101.801563 39.555938 
" style="fill: none; stroke: #bddf26; stroke-width: 2; stroke-linecap: square"/>
    </g>
    <g id="text_12">
     <!-- uncorrected -->
     <g style="fill: #b6bccf" transform="translate(111.401563 43.755938) scale(0.12 -0.12)">
      <defs>
       <path id="DejaVuSans-64" d="M 2906 2969 
L 2906 4863 
L 3481 4863 
L 3481 0 
L 2906 0 
L 2906 525 
Q 2725 213 2448 61 
Q 2172 -91 1784 -91 
Q 1150 -91 751 415 
Q 353 922 353 1747 
Q 353 2572 751 3078 
Q 1150 3584 1784 3584 
Q 2172 3584 2448 3432 
Q 2725 3281 2906 2969 
z
M 947 1747 
Q 947 1113 1208 752 
Q 1469 391 1925 391 
Q 2381 391 2643 752 
Q 2906 1113 2906 1747 
Q 2906 2381 2643 2742 
Q 2381 3103 1925 3103 
Q 1469 3103 1208 2742 
Q 947 2381 947 1747 
z
" transform="scale(0.015625)"/>
      </defs>
      <use xlink:href="#DejaVuSans-75"/>
      <use xlink:href="#DejaVuSans-6e" x="63.378906"/>
      <use xlink:href="#DejaVuSans-63" x="126.757812"/>
      <use xlink:href="#DejaVuSans-6f" x="181.738281"/>
      <use xlink:href="#DejaVuSans-72" x="242.919922"/>
      <use xlink:href="#DejaVuSans-72" x="282.283203"/>
      <use xlink:href="#DejaVuSans-65" x="321.146484"/>
      <use xlink:href="#DejaVuSans-63" x="382.669922"/>
      <use xlink:href="#DejaVuSans-74" x="437.650391"/>
      <use xlink:href="#DejaVuSans-65" x="476.859375"/>
      <use xlink:href="#DejaVuSans-64" x="538.382812"/>
     </g>
    </g>
    <g id="line2d_73">
     <path d="M 77.801563 57.169688 
L 89.801563 57.169688 
L 101.801563 57.169688 
" style="fill: none; stroke: #38d7ac; stroke-width: 2; stroke-linecap: square"/>
    </g>
    <g id="text_13">
     <!-- 1D corrected -->
     <g style="fill: #b6bccf" transform="translate(111.401563 61.369688) scale(0.12 -0.12)">
      <defs>
       <path id="DejaVuSans-44" d="M 1259 4147 
L 1259 519 
L 2022 519 
Q 2988 519 3436 956 
Q 3884 1394 3884 2338 
Q 3884 3275 3436 3711 
Q 2988 4147 2022 4147 
L 1259 4147 
z
M 628 4666 
L 1925 4666 
Q 3281 4666 3915 4102 
Q 4550 3538 4550 2338 
Q 4550 1131 3912 565 
Q 3275 0 1925 0 
L 628 0 
L 628 4666 
z
" transform="scale(0.015625)"/>
      </defs>
      <use xlink:href="#DejaVuSans-31"/>
      <use xlink:href="#DejaVuSans-44" x="63.623047"/>
      <use xlink:href="#DejaVuSans-20" x="140.625"/>
      <use xlink:href="#DejaVuSans-63" x="172.412109"/>
      <use xlink:href="#DejaVuSans-6f" x="227.392578"/>
      <use xlink:href="#DejaVuSans-72" x="288.574219"/>
      <use xlink:href="#DejaVuSans-72" x="327.9375"/>
      <use xlink:href="#DejaVuSans-65" x="366.800781"/>
      <use xlink:href="#DejaVuSans-63" x="428.324219"/>
      <use xlink:href="#DejaVuSans-74" x="483.304688"/>
      <use xlink:href="#DejaVuSans-65" x="522.513672"/>
      <use xlink:href="#DejaVuSans-64" x="584.037109"/>
     </g>
    </g>
    <g id="line2d_74">
     <path d="M 77.801563 74.783438 
L 89.801563 74.783438 
L 101.801563 74.783438 
" style="fill: none; stroke: #5386be; stroke-width: 2; stroke-linecap: square"/>
    </g>
    <g id="text_14">
     <!-- 2D corrected -->
     <g style="fill: #b6bccf" transform="translate(111.401563 78.983438) scale(0.12 -0.12)">
      <use xlink:href="#DejaVuSans-32"/>
      <use xlink:href="#DejaVuSans-44" x="63.623047"/>
      <use xlink:href="#DejaVuSans-20" x="140.625"/>
      <use xlink:href="#DejaVuSans-63" x="172.412109"/>
      <use xlink:href="#DejaVuSans-6f" x="227.392578"/>
      <use xlink:href="#DejaVuSans-72" x="288.574219"/>
      <use xlink:href="#DejaVuSans-72" x="327.9375"/>
      <use xlink:href="#DejaVuSans-65" x="366.800781"/>
      <use xlink:href="#DejaVuSans-63" x="428.324219"/>
      <use xlink:href="#DejaVuSans-74" x="483.304688"/>
      <use xlink:href="#DejaVuSans-65" x="522.513672"/>
      <use xlink:href="#DejaVuSans-64" x="584.037109"/>
     </g>
    </g>
   </g>
  </g>
  <g id="axes_2">
   <g id="patch_5">
    <path d="M 353.718584 235.517812 
L 561.484541 235.517812 
L 561.484541 23.837812 
L 353.718584 23.837812 
z
" style="fill: #a3a3ff; fill-opacity: 0.04"/>
   </g>
   <g id="matplotlib.axis_3">
    <g id="xtick_26">
     <g id="line2d_75">
      <path d="M 356.551398 235.517812 
L 356.551398 23.837812 
" clip-path="url(#p905cbceeed)" style="fill: none; stroke: #b0b0b0; stroke-opacity: 0.2; stroke-width: 0.8; stroke-linecap: square"/>
     </g>
     <g id="line2d_76">
      <g>
       <use xlink:href="#mc62caae663" x="356.551398" y="235.517812" style="fill: #b6bccf; stroke: #b6bccf; stroke-width: 1.2"/>
      </g>
     </g>
     <g id="text_15">
      <!-- $\mathdefault{10^{5}}$ -->
      <g style="fill: #b6bccf" transform="translate(346.871398 250.876094) scale(0.11 -0.11)">
       <use xlink:href="#DejaVuSans-31" transform="translate(0 0.684375)"/>
       <use xlink:href="#DejaVuSans-30" transform="translate(63.623047 0.684375)"/>
       <use xlink:href="#DejaVuSans-35" transform="translate(128.203125 38.965625) scale(0.7)"/>
      </g>
     </g>
    </g>
    <g id="xtick_27">
     <g id="line2d_77">
      <path d="M 428.167172 235.517812 
L 428.167172 23.837812 
" clip-path="url(#p905cbceeed)" style="fill: none; stroke: #b0b0b0; stroke-opacity: 0.2; stroke-width: 0.8; stroke-linecap: square"/>
     </g>
     <g id="line2d_78">
      <g>
       <use xlink:href="#mc62caae663" x="428.167172" y="235.517812" style="fill: #b6bccf; stroke: #b6bccf; stroke-width: 1.2"/>
      </g>
     </g>
     <g id="text_16">
      <!-- $\mathdefault{10^{6}}$ -->
      <g style="fill: #b6bccf" transform="translate(418.487172 250.876094) scale(0.11 -0.11)">
       <use xlink:href="#DejaVuSans-31" transform="translate(0 0.765625)"/>
       <use xlink:href="#DejaVuSans-30" transform="translate(63.623047 0.765625)"/>
       <use xlink:href="#DejaVuSans-36" transform="translate(128.203125 39.046875) scale(0.7)"/>
      </g>
     </g>
    </g>
    <g id="xtick_28">
     <g id="line2d_79">
      <path d="M 499.782945 235.517812 
L 499.782945 23.837812 
" clip-path="url(#p905cbceeed)" style="fill: none; stroke: #b0b0b0; stroke-opacity: 0.2; stroke-width: 0.8; stroke-linecap: square"/>
     </g>
     <g id="line2d_80">
      <g>
       <use xlink:href="#mc62caae663" x="499.782945" y="235.517812" style="fill: #b6bccf; stroke: #b6bccf; stroke-width: 1.2"/>
      </g>
     </g>
     <g id="text_17">
      <!-- $\mathdefault{10^{7}}$ -->
      <g style="fill: #b6bccf" transform="translate(490.102945 250.876094) scale(0.11 -0.11)">
       <use xlink:href="#DejaVuSans-31" transform="translate(0 0.684375)"/>
       <use xlink:href="#DejaVuSans-30" transform="translate(63.623047 0.684375)"/>
       <use xlink:href="#DejaVuSans-37" transform="translate(128.203125 38.965625) scale(0.7)"/>
      </g>
     </g>
    </g>
    <g id="xtick_29">
     <g id="line2d_81">
      <path d="M 378.109894 235.517812 
L 378.109894 23.837812 
" clip-path="url(#p905cbceeed)" style="fill: none; stroke: #b0b0b0; stroke-opacity: 0.2; stroke-width: 0.8; stroke-linecap: square"/>
     </g>
     <g id="line2d_82"/>
    </g>
    <g id="xtick_30">
     <g id="line2d_83">
      <path d="M 390.720806 235.517812 
L 390.720806 23.837812 
" clip-path="url(#p905cbceeed)" style="fill: none; stroke: #b0b0b0; stroke-opacity: 0.2; stroke-width: 0.8; stroke-linecap: square"/>
     </g>
     <g id="line2d_84"/>
    </g>
    <g id="xtick_31">
     <g id="line2d_85">
      <path d="M 399.66839 235.517812 
L 399.66839 23.837812 
" clip-path="url(#p905cbceeed)" style="fill: none; stroke: #b0b0b0; stroke-opacity: 0.2; stroke-width: 0.8; stroke-linecap: square"/>
     </g>
     <g id="line2d_86"/>
    </g>
    <g id="xtick_32">
     <g id="line2d_87">
      <path d="M 406.608675 235.517812 
L 406.608675 23.837812 
" clip-path="url(#p905cbceeed)" style="fill: none; stroke: #b0b0b0; stroke-opacity: 0.2; stroke-width: 0.8; stroke-linecap: square"/>
     </g>
     <g id="line2d_88"/>
    </g>
    <g id="xtick_33">
     <g id="line2d_89">
      <path d="M 412.279302 235.517812 
L 412.279302 23.837812 
" clip-path="url(#p905cbceeed)" style="fill: none; stroke: #b0b0b0; stroke-opacity: 0.2; stroke-width: 0.8; stroke-linecap: square"/>
     </g>
     <g id="line2d_90"/>
    </g>
    <g id="xtick_34">
     <g id="line2d_91">
      <path d="M 417.073748 235.517812 
L 417.073748 23.837812 
" clip-path="url(#p905cbceeed)" style="fill: none; stroke: #b0b0b0; stroke-opacity: 0.2; stroke-width: 0.8; stroke-linecap: square"/>
     </g>
     <g id="line2d_92"/>
    </g>
    <g id="xtick_35">
     <g id="line2d_93">
      <path d="M 421.226886 235.517812 
L 421.226886 23.837812 
" clip-path="url(#p905cbceeed)" style="fill: none; stroke: #b0b0b0; stroke-opacity: 0.2; stroke-width: 0.8; stroke-linecap: square"/>
     </g>
     <g id="line2d_94"/>
    </g>
    <g id="xtick_36">
     <g id="line2d_95">
      <path d="M 424.890213 235.517812 
L 424.890213 23.837812 
" clip-path="url(#p905cbceeed)" style="fill: none; stroke: #b0b0b0; stroke-opacity: 0.2; stroke-width: 0.8; stroke-linecap: square"/>
     </g>
     <g id="line2d_96"/>
    </g>
    <g id="xtick_37">
     <g id="line2d_97">
      <path d="M 449.725668 235.517812 
L 449.725668 23.837812 
" clip-path="url(#p905cbceeed)" style="fill: none; stroke: #b0b0b0; stroke-opacity: 0.2; stroke-width: 0.8; stroke-linecap: square"/>
     </g>
     <g id="line2d_98"/>
    </g>
    <g id="xtick_38">
     <g id="line2d_99">
      <path d="M 462.336579 235.517812 
L 462.336579 23.837812 
" clip-path="url(#p905cbceeed)" style="fill: none; stroke: #b0b0b0; stroke-opacity: 0.2; stroke-width: 0.8; stroke-linecap: square"/>
     </g>
     <g id="line2d_100"/>
    </g>
    <g id="xtick_39">
     <g id="line2d_101">
      <path d="M 471.284164 235.517812 
L 471.284164 23.837812 
" clip-path="url(#p905cbceeed)" style="fill: none; stroke: #b0b0b0; stroke-opacity: 0.2; stroke-width: 0.8; stroke-linecap: square"/>
     </g>
     <g id="line2d_102"/>
    </g>
    <g id="xtick_40">
     <g id="line2d_103">
      <path d="M 478.224449 235.517812 
L 478.224449 23.837812 
" clip-path="url(#p905cbceeed)" style="fill: none; stroke: #b0b0b0; stroke-opacity: 0.2; stroke-width: 0.8; stroke-linecap: square"/>
     </g>
     <g id="line2d_104"/>
    </g>
    <g id="xtick_41">
     <g id="line2d_105">
      <path d="M 483.895075 235.517812 
L 483.895075 23.837812 
" clip-path="url(#p905cbceeed)" style="fill: none; stroke: #b0b0b0; stroke-opacity: 0.2; stroke-width: 0.8; stroke-linecap: square"/>
     </g>
     <g id="line2d_106"/>
    </g>
    <g id="xtick_42">
     <g id="line2d_107">
      <path d="M 488.689521 235.517812 
L 488.689521 23.837812 
" clip-path="url(#p905cbceeed)" style="fill: none; stroke: #b0b0b0; stroke-opacity: 0.2; stroke-width: 0.8; stroke-linecap: square"/>
     </g>
     <g id="line2d_108"/>
    </g>
    <g id="xtick_43">
     <g id="line2d_109">
      <path d="M 492.84266 235.517812 
L 492.84266 23.837812 
" clip-path="url(#p905cbceeed)" style="fill: none; stroke: #b0b0b0; stroke-opacity: 0.2; stroke-width: 0.8; stroke-linecap: square"/>
     </g>
     <g id="line2d_110"/>
    </g>
    <g id="xtick_44">
     <g id="line2d_111">
      <path d="M 496.505987 235.517812 
L 496.505987 23.837812 
" clip-path="url(#p905cbceeed)" style="fill: none; stroke: #b0b0b0; stroke-opacity: 0.2; stroke-width: 0.8; stroke-linecap: square"/>
     </g>
     <g id="line2d_112"/>
    </g>
    <g id="xtick_45">
     <g id="line2d_113">
      <path d="M 521.341441 235.517812 
L 521.341441 23.837812 
" clip-path="url(#p905cbceeed)" style="fill: none; stroke: #b0b0b0; stroke-opacity: 0.2; stroke-width: 0.8; stroke-linecap: square"/>
     </g>
     <g id="line2d_114"/>
    </g>
    <g id="xtick_46">
     <g id="line2d_115">
      <path d="M 533.952353 235.517812 
L 533.952353 23.837812 
" clip-path="url(#p905cbceeed)" style="fill: none; stroke: #b0b0b0; stroke-opacity: 0.2; stroke-width: 0.8; stroke-linecap: square"/>
     </g>
     <g id="line2d_116"/>
    </g>
    <g id="xtick_47">
     <g id="line2d_117">
      <path d="M 542.899937 235.517812 
L 542.899937 23.837812 
" clip-path="url(#p905cbceeed)" style="fill: none; stroke: #b0b0b0; stroke-opacity: 0.2; stroke-width: 0.8; stroke-linecap: square"/>
     </g>
     <g id="line2d_118"/>
    </g>
    <g id="xtick_48">
     <g id="line2d_119">
      <path d="M 549.840223 235.517812 
L 549.840223 23.837812 
" clip-path="url(#p905cbceeed)" style="fill: none; stroke: #b0b0b0; stroke-opacity: 0.2; stroke-width: 0.8; stroke-linecap: square"/>
     </g>
     <g id="line2d_120"/>
    </g>
    <g id="xtick_49">
     <g id="line2d_121">
      <path d="M 555.510849 235.517812 
L 555.510849 23.837812 
" clip-path="url(#p905cbceeed)" style="fill: none; stroke: #b0b0b0; stroke-opacity: 0.2; stroke-width: 0.8; stroke-linecap: square"/>
     </g>
     <g id="line2d_122"/>
    </g>
    <g id="xtick_50">
     <g id="line2d_123">
      <path d="M 560.305295 235.517812 
L 560.305295 23.837812 
" clip-path="url(#p905cbceeed)" style="fill: none; stroke: #b0b0b0; stroke-opacity: 0.2; stroke-width: 0.8; stroke-linecap: square"/>
     </g>
     <g id="line2d_124"/>
    </g>
    <g id="text_18">
     <!-- count rate -->
     <g style="fill: #b6bccf" transform="translate(423.994531 267.041719) scale(0.13 -0.13)">
      <use xlink:href="#DejaVuSans-63"/>
      <use xlink:href="#DejaVuSans-6f" x="54.980469"/>
      <use xlink:href="#DejaVuSans-75" x="116.162109"/>
      <use xlink:href="#DejaVuSans-6e" x="179.541016"/>
      <use xlink:href="#DejaVuSans-74" x="242.919922"/>
      <use xlink:href="#DejaVuSans-20" x="282.128906"/>
      <use xlink:href="#DejaVuSans-72" x="313.916016"/>
      <use xlink:href="#DejaVuSans-61" x="355.029297"/>
      <use xlink:href="#DejaVuSans-74" x="416.308594"/>
      <use xlink:href="#DejaVuSans-65" x="455.517578"/>
     </g>
    </g>
   </g>
   <g id="matplotlib.axis_4">
    <g id="ytick_10">
     <g id="line2d_125">
      <path d="M 353.718584 131.814214 
L 561.484541 131.814214 
" clip-path="url(#p905cbceeed)" style="fill: none; stroke: #b0b0b0; stroke-opacity: 0.2; stroke-width: 0.8; stroke-linecap: square"/>
     </g>
     <g id="line2d_126">
      <g>
       <use xlink:href="#ma640287362" x="353.718584" y="131.814214" style="fill: #b6bccf; stroke: #b6bccf; stroke-width: 1.2"/>
      </g>
     </g>
     <g id="text_19">
      <!-- $\mathdefault{10^{2}}$ -->
      <g style="fill: #b6bccf" transform="translate(327.358584 135.993354) scale(0.11 -0.11)">
       <use xlink:href="#DejaVuSans-31" transform="translate(0 0.765625)"/>
       <use xlink:href="#DejaVuSans-30" transform="translate(63.623047 0.765625)"/>
       <use xlink:href="#DejaVuSans-32" transform="translate(128.203125 39.046875) scale(0.7)"/>
      </g>
     </g>
    </g>
    <g id="ytick_11">
     <g id="line2d_127">
      <path d="M 353.718584 232.897771 
L 561.484541 232.897771 
" clip-path="url(#p905cbceeed)" style="fill: none; stroke: #b0b0b0; stroke-opacity: 0.2; stroke-width: 0.8; stroke-linecap: square"/>
     </g>
     <g id="line2d_128"/>
     <g id="text_20">
      <!-- $\mathdefault{4\times10^{1}}$ -->
      <g style="fill: #b6bccf" transform="translate(310.498584 237.076911) scale(0.11 -0.11)">
       <use xlink:href="#DejaVuSans-34" transform="translate(0 0.684375)"/>
       <use xlink:href="#DejaVuSans-d7" transform="translate(83.105469 0.684375)"/>
       <use xlink:href="#DejaVuSans-31" transform="translate(186.376953 0.684375)"/>
       <use xlink:href="#DejaVuSans-30" transform="translate(250 0.684375)"/>
       <use xlink:href="#DejaVuSans-31" transform="translate(314.580078 38.965625) scale(0.7)"/>
      </g>
     </g>
    </g>
    <g id="ytick_12">
     <g id="line2d_129">
      <path d="M 353.718584 208.280973 
L 561.484541 208.280973 
" clip-path="url(#p905cbceeed)" style="fill: none; stroke: #b0b0b0; stroke-opacity: 0.2; stroke-width: 0.8; stroke-linecap: square"/>
     </g>
     <g id="line2d_130"/>
    </g>
    <g id="ytick_13">
     <g id="line2d_131">
      <path d="M 353.718584 188.167584 
L 561.484541 188.167584 
" clip-path="url(#p905cbceeed)" style="fill: none; stroke: #b0b0b0; stroke-opacity: 0.2; stroke-width: 0.8; stroke-linecap: square"/>
     </g>
     <g id="line2d_132"/>
     <g id="text_21">
      <!-- $\mathdefault{6\times10^{1}}$ -->
      <g style="fill: #b6bccf" transform="translate(310.498584 192.346725) scale(0.11 -0.11)">
       <use xlink:href="#DejaVuSans-36" transform="translate(0 0.684375)"/>
       <use xlink:href="#DejaVuSans-d7" transform="translate(83.105469 0.684375)"/>
       <use xlink:href="#DejaVuSans-31" transform="translate(186.376953 0.684375)"/>
       <use xlink:href="#DejaVuSans-30" transform="translate(250 0.684375)"/>
       <use xlink:href="#DejaVuSans-31" transform="translate(314.580078 38.965625) scale(0.7)"/>
      </g>
     </g>
    </g>
    <g id="ytick_14">
     <g id="line2d_133">
      <path d="M 353.718584 171.161957 
L 561.484541 171.161957 
" clip-path="url(#p905cbceeed)" style="fill: none; stroke: #b0b0b0; stroke-opacity: 0.2; stroke-width: 0.8; stroke-linecap: square"/>
     </g>
     <g id="line2d_134"/>
    </g>
    <g id="ytick_15">
     <g id="line2d_135">
      <path d="M 353.718584 156.431012 
L 561.484541 156.431012 
" clip-path="url(#p905cbceeed)" style="fill: none; stroke: #b0b0b0; stroke-opacity: 0.2; stroke-width: 0.8; stroke-linecap: square"/>
     </g>
     <g id="line2d_136"/>
    </g>
    <g id="ytick_16">
     <g id="line2d_137">
      <path d="M 353.718584 143.437398 
L 561.484541 143.437398 
" clip-path="url(#p905cbceeed)" style="fill: none; stroke: #b0b0b0; stroke-opacity: 0.2; stroke-width: 0.8; stroke-linecap: square"/>
     </g>
     <g id="line2d_138"/>
    </g>
    <g id="ytick_17">
     <g id="line2d_139">
      <path d="M 353.718584 55.347455 
L 561.484541 55.347455 
" clip-path="url(#p905cbceeed)" style="fill: none; stroke: #b0b0b0; stroke-opacity: 0.2; stroke-width: 0.8; stroke-linecap: square"/>
     </g>
     <g id="line2d_140"/>
     <g id="text_22">
      <!-- $\mathdefault{2\times10^{2}}$ -->
      <g style="fill: #b6bccf" transform="translate(310.498584 59.526596) scale(0.11 -0.11)">
       <use xlink:href="#DejaVuSans-32" transform="translate(0 0.765625)"/>
       <use xlink:href="#DejaVuSans-d7" transform="translate(83.105469 0.765625)"/>
       <use xlink:href="#DejaVuSans-31" transform="translate(186.376953 0.765625)"/>
       <use xlink:href="#DejaVuSans-30" transform="translate(250 0.765625)"/>
       <use xlink:href="#DejaVuSans-32" transform="translate(314.580078 39.046875) scale(0.7)"/>
      </g>
     </g>
    </g>
    <g id="text_23">
     <!-- fw(1/10)m (ps) -->
     <g style="fill: #b6bccf" transform="translate(303.79499 177.818438) rotate(-90) scale(0.13 -0.13)">
      <defs>
       <path id="DejaVuSans-2f" d="M 1625 4666 
L 2156 4666 
L 531 -594 
L 0 -594 
L 1625 4666 
z
" transform="scale(0.015625)"/>
      </defs>
      <use xlink:href="#DejaVuSans-66"/>
      <use xlink:href="#DejaVuSans-77" x="33.455078"/>
      <use xlink:href="#DejaVuSans-28" x="115.242188"/>
      <use xlink:href="#DejaVuSans-31" x="154.255859"/>
      <use xlink:href="#DejaVuSans-2f" x="217.878906"/>
      <use xlink:href="#DejaVuSans-31" x="251.570312"/>
      <use xlink:href="#DejaVuSans-30" x="315.193359"/>
      <use xlink:href="#DejaVuSans-29" x="378.816406"/>
      <use xlink:href="#DejaVuSans-6d" x="417.830078"/>
      <use xlink:href="#DejaVuSans-20" x="515.242188"/>
      <use xlink:href="#DejaVuSans-28" x="547.029297"/>
      <use xlink:href="#DejaVuSans-70" x="586.042969"/>
      <use xlink:href="#DejaVuSans-73" x="649.519531"/>
      <use xlink:href="#DejaVuSans-29" x="701.619141"/>
     </g>
    </g>
   </g>
   <g id="line2d_141">
    <path d="M 555.604373 29.828756 
L 553.510801 36.902371 
L 550.778793 44.855507 
L 548.67518 50.585443 
L 546.337208 57.031909 
L 543.078089 64.402698 
L 540.718407 69.874054 
L 538.264612 76.006115 
L 535.017716 85.65479 
L 532.418153 90.852481 
L 529.706643 95.885869 
L 526.490618 101.068438 
L 523.773432 104.544392 
L 521.018875 109.079726 
L 517.25462 117.788224 
L 514.160757 136.262996 
L 511.256328 150.358511 
L 507.324071 158.168546 
L 504.370525 161.856878 
L 501.408614 166.357308 
L 497.465127 171.437788 
L 494.24957 178.444391 
L 491.380556 185.591114 
L 487.711569 197.563412 
L 484.559264 208.120166 
L 481.503143 211.296009 
L 477.326473 213.351758 
L 474.331582 215.363731 
L 471.176792 216.610236 
L 466.905692 219.816207 
L 463.838034 220.263078 
L 460.640211 221.409779 
L 456.348771 222.733291 
L 452.922309 222.877145 
L 449.542202 222.764912 
L 445.311411 223.601879 
L 442.493322 224.583059 
L 439.246599 224.773506 
L 434.640884 224.77304 
L 431.5491 225.191217 
L 428.295485 225.920112 
L 424.068064 225.80344 
L 420.884414 226.866709 
L 417.561539 226.484814 
L 413.393123 227.877883 
L 410.256658 226.830686 
L 407.457271 226.153684 
L 402.840227 227.577193 
L 399.574698 226.26495 
L 396.417451 227.76053 
L 392.026531 227.243137 
L 388.968297 227.274233 
L 385.685482 227.547915 
L 381.216087 227.796778 
L 377.883346 227.965577 
L 374.721567 228.53672 
L 370.321923 228.625705 
L 366.990942 222.519616 
L 363.842535 227.992666 
L 359.598752 227.831329 
" clip-path="url(#p905cbceeed)" style="fill: none; stroke-dasharray: 7.4,3.2; stroke-dashoffset: 0; stroke: #bddf26; stroke-width: 2; stroke-linecap: round"/>
   </g>
   <g id="line2d_142">
    <path d="M 555.604373 31.137854 
L 553.510801 39.896209 
L 550.778793 53.161085 
L 548.67518 66.636117 
L 546.337208 84.076676 
L 543.078089 111.225975 
L 540.718407 128.971388 
L 538.264612 147.270034 
L 535.017716 167.344236 
L 532.418153 175.922833 
L 529.706643 186.037334 
L 526.490618 193.69637 
L 523.773432 199.48539 
L 521.018875 203.257481 
L 517.25462 209.048434 
L 514.160757 210.350729 
L 511.256328 214.187756 
L 507.324071 215.806114 
L 504.370525 218.297106 
L 501.408614 219.119526 
L 497.465127 221.373686 
L 494.24957 222.273783 
L 491.380556 222.937118 
L 487.711569 223.482554 
L 484.559264 225.764682 
L 481.503143 226.229057 
L 477.326473 225.005269 
L 474.331582 225.653914 
L 471.176792 226.029124 
L 466.905692 227.31954 
L 463.838034 227.348798 
L 460.640211 227.775135 
L 456.348771 228.154595 
L 452.922309 227.904542 
L 449.542202 227.560836 
L 445.311411 227.817627 
L 442.493322 228.505973 
L 439.246599 228.200199 
L 434.640884 227.851974 
L 431.5491 227.966981 
L 428.295485 228.503248 
L 424.068064 227.988481 
L 420.884414 228.902457 
L 417.561539 228.27292 
L 413.393123 229.526869 
L 410.256658 228.394522 
L 407.457271 227.669021 
L 402.840227 228.917069 
L 399.574698 227.4991 
L 396.417451 228.75346 
L 392.026531 228.315605 
L 388.968297 228.410632 
L 385.685482 228.409608 
L 381.216087 228.548854 
L 377.883346 228.478208 
L 374.721567 228.899822 
L 370.321923 229.10572 
L 366.990942 223.047255 
L 363.842535 228.351801 
L 359.598752 228.069088 
" clip-path="url(#p905cbceeed)" style="fill: none; stroke-dasharray: 7.4,3.2; stroke-dashoffset: 0; stroke: #38d7ac; stroke-width: 2; stroke-linecap: round"/>
   </g>
   <g id="line2d_143">
    <path d="M 555.604373 113.98936 
L 553.510801 128.83164 
L 550.778793 143.994314 
L 548.67518 153.802053 
L 546.337208 163.314178 
L 543.078089 174.272572 
L 540.718407 182.001819 
L 538.264612 187.032143 
L 535.017716 196.657093 
L 532.418153 198.521342 
L 529.706643 203.407651 
L 526.490618 208.321795 
L 523.773432 210.386227 
L 521.018875 213.124226 
L 517.25462 215.988605 
L 514.160757 214.03817 
L 511.256328 217.097012 
L 507.324071 217.765948 
L 504.370525 219.590425 
L 501.408614 219.960849 
L 497.465127 221.320269 
L 494.24957 221.802015 
L 491.380556 222.973489 
L 487.711569 222.760777 
L 484.559264 225.052244 
L 481.503143 224.891279 
L 477.326473 224.016078 
L 474.331582 224.682008 
L 471.176792 225.18203 
L 466.905692 226.973954 
L 463.838034 226.413696 
L 460.640211 226.816365 
L 456.348771 227.484013 
L 452.922309 227.036406 
L 449.542202 226.776547 
L 445.311411 227.042742 
L 442.493322 227.701288 
L 439.246599 227.528556 
L 434.640884 227.259876 
L 431.5491 227.374705 
L 428.295485 227.851516 
L 424.068064 227.533572 
L 420.884414 228.442542 
L 417.561539 227.872433 
L 413.393123 229.117607 
L 410.256658 227.973177 
L 407.457271 227.142509 
L 402.840227 228.479813 
L 399.574698 227.082055 
L 396.417451 228.500557 
L 392.026531 227.900188 
L 388.968297 227.814277 
L 385.685482 228.049344 
L 381.216087 228.244429 
L 377.883346 228.348206 
L 374.721567 228.908216 
L 370.321923 228.916289 
L 366.990942 222.817328 
L 363.842535 228.282731 
L 359.598752 228.023835 
" clip-path="url(#p905cbceeed)" style="fill: none; stroke-dasharray: 7.4,3.2; stroke-dashoffset: 0; stroke: #5386be; stroke-width: 2; stroke-linecap: round"/>
   </g>
   <g id="patch_6">
    <path d="M 353.718584 235.517812 
L 353.718584 23.837812 
" style="fill: none; stroke: #b6bccf; stroke-width: 1.2; stroke-linejoin: miter; stroke-linecap: square"/>
   </g>
   <g id="patch_7">
    <path d="M 353.718584 235.517812 
L 561.484541 235.517812 
" style="fill: none; stroke: #b6bccf; stroke-width: 1.2; stroke-linejoin: miter; stroke-linecap: square"/>
   </g>
   <g id="text_24">
    <!-- FW(1/10)M -->
    <g style="fill: #b6bccf" transform="translate(419.432969 17.837812) scale(0.14 -0.14)">
     <use xlink:href="#DejaVuSans-46"/>
     <use xlink:href="#DejaVuSans-57" x="57.519531"/>
     <use xlink:href="#DejaVuSans-28" x="156.396484"/>
     <use xlink:href="#DejaVuSans-31" x="195.410156"/>
     <use xlink:href="#DejaVuSans-2f" x="259.033203"/>
     <use xlink:href="#DejaVuSans-31" x="292.724609"/>
     <use xlink:href="#DejaVuSans-30" x="356.347656"/>
     <use xlink:href="#DejaVuSans-29" x="419.970703"/>
     <use xlink:href="#DejaVuSans-4d" x="458.984375"/>
    </g>
   </g>
  </g>
  <g id="axes_3">
   <g id="patch_8">
    <path d="M 640.435605 235.517812 
L 848.201563 235.517812 
L 848.201563 23.837812 
L 640.435605 23.837812 
z
" style="fill: #a3a3ff; fill-opacity: 0.04"/>
   </g>
   <g id="matplotlib.axis_5">
    <g id="xtick_51">
     <g id="line2d_144">
      <path d="M 643.268419 235.517812 
L 643.268419 23.837812 
" clip-path="url(#pcca92f0e66)" style="fill: none; stroke: #b0b0b0; stroke-opacity: 0.2; stroke-width: 0.8; stroke-linecap: square"/>
     </g>
     <g id="line2d_145">
      <g>
       <use xlink:href="#mc62caae663" x="643.268419" y="235.517812" style="fill: #b6bccf; stroke: #b6bccf; stroke-width: 1.2"/>
      </g>
     </g>
     <g id="text_25">
      <!-- $\mathdefault{10^{5}}$ -->
      <g style="fill: #b6bccf" transform="translate(633.588419 250.876094) scale(0.11 -0.11)">
       <use xlink:href="#DejaVuSans-31" transform="translate(0 0.684375)"/>
       <use xlink:href="#DejaVuSans-30" transform="translate(63.623047 0.684375)"/>
       <use xlink:href="#DejaVuSans-35" transform="translate(128.203125 38.965625) scale(0.7)"/>
      </g>
     </g>
    </g>
    <g id="xtick_52">
     <g id="line2d_146">
      <path d="M 714.884193 235.517812 
L 714.884193 23.837812 
" clip-path="url(#pcca92f0e66)" style="fill: none; stroke: #b0b0b0; stroke-opacity: 0.2; stroke-width: 0.8; stroke-linecap: square"/>
     </g>
     <g id="line2d_147">
      <g>
       <use xlink:href="#mc62caae663" x="714.884193" y="235.517812" style="fill: #b6bccf; stroke: #b6bccf; stroke-width: 1.2"/>
      </g>
     </g>
     <g id="text_26">
      <!-- $\mathdefault{10^{6}}$ -->
      <g style="fill: #b6bccf" transform="translate(705.204193 250.876094) scale(0.11 -0.11)">
       <use xlink:href="#DejaVuSans-31" transform="translate(0 0.765625)"/>
       <use xlink:href="#DejaVuSans-30" transform="translate(63.623047 0.765625)"/>
       <use xlink:href="#DejaVuSans-36" transform="translate(128.203125 39.046875) scale(0.7)"/>
      </g>
     </g>
    </g>
    <g id="xtick_53">
     <g id="line2d_148">
      <path d="M 786.499966 235.517812 
L 786.499966 23.837812 
" clip-path="url(#pcca92f0e66)" style="fill: none; stroke: #b0b0b0; stroke-opacity: 0.2; stroke-width: 0.8; stroke-linecap: square"/>
     </g>
     <g id="line2d_149">
      <g>
       <use xlink:href="#mc62caae663" x="786.499966" y="235.517812" style="fill: #b6bccf; stroke: #b6bccf; stroke-width: 1.2"/>
      </g>
     </g>
     <g id="text_27">
      <!-- $\mathdefault{10^{7}}$ -->
      <g style="fill: #b6bccf" transform="translate(776.819966 250.876094) scale(0.11 -0.11)">
       <use xlink:href="#DejaVuSans-31" transform="translate(0 0.684375)"/>
       <use xlink:href="#DejaVuSans-30" transform="translate(63.623047 0.684375)"/>
       <use xlink:href="#DejaVuSans-37" transform="translate(128.203125 38.965625) scale(0.7)"/>
      </g>
     </g>
    </g>
    <g id="xtick_54">
     <g id="line2d_150">
      <path d="M 664.826915 235.517812 
L 664.826915 23.837812 
" clip-path="url(#pcca92f0e66)" style="fill: none; stroke: #b0b0b0; stroke-opacity: 0.2; stroke-width: 0.8; stroke-linecap: square"/>
     </g>
     <g id="line2d_151"/>
    </g>
    <g id="xtick_55">
     <g id="line2d_152">
      <path d="M 677.437827 235.517812 
L 677.437827 23.837812 
" clip-path="url(#pcca92f0e66)" style="fill: none; stroke: #b0b0b0; stroke-opacity: 0.2; stroke-width: 0.8; stroke-linecap: square"/>
     </g>
     <g id="line2d_153"/>
    </g>
    <g id="xtick_56">
     <g id="line2d_154">
      <path d="M 686.385411 235.517812 
L 686.385411 23.837812 
" clip-path="url(#pcca92f0e66)" style="fill: none; stroke: #b0b0b0; stroke-opacity: 0.2; stroke-width: 0.8; stroke-linecap: square"/>
     </g>
     <g id="line2d_155"/>
    </g>
    <g id="xtick_57">
     <g id="line2d_156">
      <path d="M 693.325697 235.517812 
L 693.325697 23.837812 
" clip-path="url(#pcca92f0e66)" style="fill: none; stroke: #b0b0b0; stroke-opacity: 0.2; stroke-width: 0.8; stroke-linecap: square"/>
     </g>
     <g id="line2d_157"/>
    </g>
    <g id="xtick_58">
     <g id="line2d_158">
      <path d="M 698.996323 235.517812 
L 698.996323 23.837812 
" clip-path="url(#pcca92f0e66)" style="fill: none; stroke: #b0b0b0; stroke-opacity: 0.2; stroke-width: 0.8; stroke-linecap: square"/>
     </g>
     <g id="line2d_159"/>
    </g>
    <g id="xtick_59">
     <g id="line2d_160">
      <path d="M 703.790769 235.517812 
L 703.790769 23.837812 
" clip-path="url(#pcca92f0e66)" style="fill: none; stroke: #b0b0b0; stroke-opacity: 0.2; stroke-width: 0.8; stroke-linecap: square"/>
     </g>
     <g id="line2d_161"/>
    </g>
    <g id="xtick_60">
     <g id="line2d_162">
      <path d="M 707.943907 235.517812 
L 707.943907 23.837812 
" clip-path="url(#pcca92f0e66)" style="fill: none; stroke: #b0b0b0; stroke-opacity: 0.2; stroke-width: 0.8; stroke-linecap: square"/>
     </g>
     <g id="line2d_163"/>
    </g>
    <g id="xtick_61">
     <g id="line2d_164">
      <path d="M 711.607235 235.517812 
L 711.607235 23.837812 
" clip-path="url(#pcca92f0e66)" style="fill: none; stroke: #b0b0b0; stroke-opacity: 0.2; stroke-width: 0.8; stroke-linecap: square"/>
     </g>
     <g id="line2d_165"/>
    </g>
    <g id="xtick_62">
     <g id="line2d_166">
      <path d="M 736.442689 235.517812 
L 736.442689 23.837812 
" clip-path="url(#pcca92f0e66)" style="fill: none; stroke: #b0b0b0; stroke-opacity: 0.2; stroke-width: 0.8; stroke-linecap: square"/>
     </g>
     <g id="line2d_167"/>
    </g>
    <g id="xtick_63">
     <g id="line2d_168">
      <path d="M 749.053601 235.517812 
L 749.053601 23.837812 
" clip-path="url(#pcca92f0e66)" style="fill: none; stroke: #b0b0b0; stroke-opacity: 0.2; stroke-width: 0.8; stroke-linecap: square"/>
     </g>
     <g id="line2d_169"/>
    </g>
    <g id="xtick_64">
     <g id="line2d_170">
      <path d="M 758.001185 235.517812 
L 758.001185 23.837812 
" clip-path="url(#pcca92f0e66)" style="fill: none; stroke: #b0b0b0; stroke-opacity: 0.2; stroke-width: 0.8; stroke-linecap: square"/>
     </g>
     <g id="line2d_171"/>
    </g>
    <g id="xtick_65">
     <g id="line2d_172">
      <path d="M 764.94147 235.517812 
L 764.94147 23.837812 
" clip-path="url(#pcca92f0e66)" style="fill: none; stroke: #b0b0b0; stroke-opacity: 0.2; stroke-width: 0.8; stroke-linecap: square"/>
     </g>
     <g id="line2d_173"/>
    </g>
    <g id="xtick_66">
     <g id="line2d_174">
      <path d="M 770.612097 235.517812 
L 770.612097 23.837812 
" clip-path="url(#pcca92f0e66)" style="fill: none; stroke: #b0b0b0; stroke-opacity: 0.2; stroke-width: 0.8; stroke-linecap: square"/>
     </g>
     <g id="line2d_175"/>
    </g>
    <g id="xtick_67">
     <g id="line2d_176">
      <path d="M 775.406543 235.517812 
L 775.406543 23.837812 
" clip-path="url(#pcca92f0e66)" style="fill: none; stroke: #b0b0b0; stroke-opacity: 0.2; stroke-width: 0.8; stroke-linecap: square"/>
     </g>
     <g id="line2d_177"/>
    </g>
    <g id="xtick_68">
     <g id="line2d_178">
      <path d="M 779.559681 235.517812 
L 779.559681 23.837812 
" clip-path="url(#pcca92f0e66)" style="fill: none; stroke: #b0b0b0; stroke-opacity: 0.2; stroke-width: 0.8; stroke-linecap: square"/>
     </g>
     <g id="line2d_179"/>
    </g>
    <g id="xtick_69">
     <g id="line2d_180">
      <path d="M 783.223008 235.517812 
L 783.223008 23.837812 
" clip-path="url(#pcca92f0e66)" style="fill: none; stroke: #b0b0b0; stroke-opacity: 0.2; stroke-width: 0.8; stroke-linecap: square"/>
     </g>
     <g id="line2d_181"/>
    </g>
    <g id="xtick_70">
     <g id="line2d_182">
      <path d="M 808.058462 235.517812 
L 808.058462 23.837812 
" clip-path="url(#pcca92f0e66)" style="fill: none; stroke: #b0b0b0; stroke-opacity: 0.2; stroke-width: 0.8; stroke-linecap: square"/>
     </g>
     <g id="line2d_183"/>
    </g>
    <g id="xtick_71">
     <g id="line2d_184">
      <path d="M 820.669374 235.517812 
L 820.669374 23.837812 
" clip-path="url(#pcca92f0e66)" style="fill: none; stroke: #b0b0b0; stroke-opacity: 0.2; stroke-width: 0.8; stroke-linecap: square"/>
     </g>
     <g id="line2d_185"/>
    </g>
    <g id="xtick_72">
     <g id="line2d_186">
      <path d="M 829.616959 235.517812 
L 829.616959 23.837812 
" clip-path="url(#pcca92f0e66)" style="fill: none; stroke: #b0b0b0; stroke-opacity: 0.2; stroke-width: 0.8; stroke-linecap: square"/>
     </g>
     <g id="line2d_187"/>
    </g>
    <g id="xtick_73">
     <g id="line2d_188">
      <path d="M 836.557244 235.517812 
L 836.557244 23.837812 
" clip-path="url(#pcca92f0e66)" style="fill: none; stroke: #b0b0b0; stroke-opacity: 0.2; stroke-width: 0.8; stroke-linecap: square"/>
     </g>
     <g id="line2d_189"/>
    </g>
    <g id="xtick_74">
     <g id="line2d_190">
      <path d="M 842.22787 235.517812 
L 842.22787 23.837812 
" clip-path="url(#pcca92f0e66)" style="fill: none; stroke: #b0b0b0; stroke-opacity: 0.2; stroke-width: 0.8; stroke-linecap: square"/>
     </g>
     <g id="line2d_191"/>
    </g>
    <g id="xtick_75">
     <g id="line2d_192">
      <path d="M 847.022316 235.517812 
L 847.022316 23.837812 
" clip-path="url(#pcca92f0e66)" style="fill: none; stroke: #b0b0b0; stroke-opacity: 0.2; stroke-width: 0.8; stroke-linecap: square"/>
     </g>
     <g id="line2d_193"/>
    </g>
    <g id="text_28">
     <!-- count rate -->
     <g style="fill: #b6bccf" transform="translate(710.711553 267.041719) scale(0.13 -0.13)">
      <use xlink:href="#DejaVuSans-63"/>
      <use xlink:href="#DejaVuSans-6f" x="54.980469"/>
      <use xlink:href="#DejaVuSans-75" x="116.162109"/>
      <use xlink:href="#DejaVuSans-6e" x="179.541016"/>
      <use xlink:href="#DejaVuSans-74" x="242.919922"/>
      <use xlink:href="#DejaVuSans-20" x="282.128906"/>
      <use xlink:href="#DejaVuSans-72" x="313.916016"/>
      <use xlink:href="#DejaVuSans-61" x="355.029297"/>
      <use xlink:href="#DejaVuSans-74" x="416.308594"/>
      <use xlink:href="#DejaVuSans-65" x="455.517578"/>
     </g>
    </g>
   </g>
   <g id="matplotlib.axis_6">
    <g id="ytick_18">
     <g id="line2d_194">
      <path d="M 640.435605 180.293111 
L 848.201563 180.293111 
" clip-path="url(#pcca92f0e66)" style="fill: none; stroke: #b0b0b0; stroke-opacity: 0.2; stroke-width: 0.8; stroke-linecap: square"/>
     </g>
     <g id="line2d_195">
      <g>
       <use xlink:href="#ma640287362" x="640.435605" y="180.293111" style="fill: #b6bccf; stroke: #b6bccf; stroke-width: 1.2"/>
      </g>
     </g>
     <g id="text_29">
      <!-- $\mathdefault{10^{2}}$ -->
      <g style="fill: #b6bccf" transform="translate(614.075605 184.472252) scale(0.11 -0.11)">
       <use xlink:href="#DejaVuSans-31" transform="translate(0 0.765625)"/>
       <use xlink:href="#DejaVuSans-30" transform="translate(63.623047 0.765625)"/>
       <use xlink:href="#DejaVuSans-32" transform="translate(128.203125 39.046875) scale(0.7)"/>
      </g>
     </g>
    </g>
    <g id="ytick_19">
     <g id="line2d_196">
      <path d="M 640.435605 222.026207 
L 848.201563 222.026207 
" clip-path="url(#pcca92f0e66)" style="fill: none; stroke: #b0b0b0; stroke-opacity: 0.2; stroke-width: 0.8; stroke-linecap: square"/>
     </g>
     <g id="line2d_197"/>
    </g>
    <g id="ytick_20">
     <g id="line2d_198">
      <path d="M 640.435605 206.402238 
L 848.201563 206.402238 
" clip-path="url(#pcca92f0e66)" style="fill: none; stroke: #b0b0b0; stroke-opacity: 0.2; stroke-width: 0.8; stroke-linecap: square"/>
     </g>
     <g id="line2d_199"/>
    </g>
    <g id="ytick_21">
     <g id="line2d_200">
      <path d="M 640.435605 192.62092 
L 848.201563 192.62092 
" clip-path="url(#pcca92f0e66)" style="fill: none; stroke: #b0b0b0; stroke-opacity: 0.2; stroke-width: 0.8; stroke-linecap: square"/>
     </g>
     <g id="line2d_201"/>
    </g>
    <g id="ytick_22">
     <g id="line2d_202">
      <path d="M 640.435605 99.190757 
L 848.201563 99.190757 
" clip-path="url(#pcca92f0e66)" style="fill: none; stroke: #b0b0b0; stroke-opacity: 0.2; stroke-width: 0.8; stroke-linecap: square"/>
     </g>
     <g id="line2d_203"/>
     <g id="text_30">
      <!-- $\mathdefault{2\times10^{2}}$ -->
      <g style="fill: #b6bccf" transform="translate(597.215605 103.369898) scale(0.11 -0.11)">
       <use xlink:href="#DejaVuSans-32" transform="translate(0 0.765625)"/>
       <use xlink:href="#DejaVuSans-d7" transform="translate(83.105469 0.765625)"/>
       <use xlink:href="#DejaVuSans-31" transform="translate(186.376953 0.765625)"/>
       <use xlink:href="#DejaVuSans-30" transform="translate(250 0.765625)"/>
       <use xlink:href="#DejaVuSans-32" transform="translate(314.580078 39.046875) scale(0.7)"/>
      </g>
     </g>
    </g>
    <g id="ytick_23">
     <g id="line2d_204">
      <path d="M 640.435605 51.748922 
L 848.201563 51.748922 
" clip-path="url(#pcca92f0e66)" style="fill: none; stroke: #b0b0b0; stroke-opacity: 0.2; stroke-width: 0.8; stroke-linecap: square"/>
     </g>
     <g id="line2d_205"/>
     <g id="text_31">
      <!-- $\mathdefault{3\times10^{2}}$ -->
      <g style="fill: #b6bccf" transform="translate(597.215605 55.928062) scale(0.11 -0.11)">
       <use xlink:href="#DejaVuSans-33" transform="translate(0 0.765625)"/>
       <use xlink:href="#DejaVuSans-d7" transform="translate(83.105469 0.765625)"/>
       <use xlink:href="#DejaVuSans-31" transform="translate(186.376953 0.765625)"/>
       <use xlink:href="#DejaVuSans-30" transform="translate(250 0.765625)"/>
       <use xlink:href="#DejaVuSans-32" transform="translate(314.580078 39.046875) scale(0.7)"/>
      </g>
     </g>
    </g>
    <g id="text_32">
     <!-- fw(1/100)m (ps) -->
     <g style="fill: #b6bccf" transform="translate(590.512011 181.954063) rotate(-90) scale(0.13 -0.13)">
      <use xlink:href="#DejaVuSans-66"/>
      <use xlink:href="#DejaVuSans-77" x="33.455078"/>
      <use xlink:href="#DejaVuSans-28" x="115.242188"/>
      <use xlink:href="#DejaVuSans-31" x="154.255859"/>
      <use xlink:href="#DejaVuSans-2f" x="217.878906"/>
      <use xlink:href="#DejaVuSans-31" x="251.570312"/>
      <use xlink:href="#DejaVuSans-30" x="315.193359"/>
      <use xlink:href="#DejaVuSans-30" x="378.816406"/>
      <use xlink:href="#DejaVuSans-29" x="442.439453"/>
      <use xlink:href="#DejaVuSans-6d" x="481.453125"/>
      <use xlink:href="#DejaVuSans-20" x="578.865234"/>
      <use xlink:href="#DejaVuSans-28" x="610.652344"/>
      <use xlink:href="#DejaVuSans-70" x="649.666016"/>
      <use xlink:href="#DejaVuSans-73" x="713.142578"/>
      <use xlink:href="#DejaVuSans-29" x="765.242188"/>
     </g>
    </g>
   </g>
   <g id="line2d_206">
    <path d="M 842.321394 29.828756 
L 840.227823 34.839488 
L 837.495814 41.803746 
L 835.392201 46.259701 
L 833.054229 50.75215 
L 829.795111 56.510566 
L 827.435428 60.957938 
L 824.981633 64.952122 
L 821.734737 72.853861 
L 819.135174 78.119473 
L 816.423665 83.52078 
L 813.207639 88.696464 
L 810.490453 93.094721 
L 807.735896 97.389668 
L 803.971641 103.283475 
L 800.877778 108.085033 
L 797.973349 112.965925 
L 794.041093 118.928121 
L 791.087546 121.480518 
L 788.125636 124.698843 
L 784.182148 127.819304 
L 780.966591 130.708602 
L 778.097577 133.378247 
L 774.42859 134.263218 
L 771.276286 137.205323 
L 768.220165 138.337209 
L 764.043494 139.814583 
L 761.048603 141.312375 
L 757.893813 142.235357 
L 753.622714 144.811332 
L 750.555055 146.135037 
L 747.357232 147.447843 
L 743.065792 168.837277 
L 739.63933 175.323787 
L 736.259223 180.285887 
L 732.028433 185.184052 
L 729.210343 189.523009 
L 725.96362 191.3456 
L 721.357905 195.251124 
L 718.266122 198.267156 
L 715.012507 200.610436 
L 710.785085 204.556966 
L 707.601435 209.111031 
L 704.278561 210.472614 
L 700.110145 217.363244 
L 696.973679 218.538644 
L 694.174292 218.260581 
L 689.557248 221.035066 
L 686.291719 221.398564 
L 683.134472 223.435973 
L 678.743553 224.07802 
L 675.685318 224.620297 
L 672.402503 225.117702 
L 667.933108 226.409401 
L 664.600368 226.25665 
L 661.438588 226.126466 
L 657.038944 227.850062 
L 653.707964 220.85051 
L 650.559557 226.431007 
L 646.315774 226.894712 
" clip-path="url(#pcca92f0e66)" style="fill: none; stroke-dasharray: 2,3.3; stroke-dashoffset: 0; stroke: #bddf26; stroke-width: 2; stroke-linecap: round"/>
   </g>
   <g id="line2d_207">
    <path d="M 842.321394 32.347088 
L 840.227823 37.952915 
L 837.495814 44.693617 
L 835.392201 49.903088 
L 833.054229 55.154685 
L 829.795111 62.216398 
L 827.435428 66.533724 
L 824.981633 71.830068 
L 821.734737 79.523443 
L 819.135174 85.545198 
L 816.423665 93.702616 
L 813.207639 103.765308 
L 810.490453 112.763147 
L 807.735896 120.3787 
L 803.971641 131.90221 
L 800.877778 150.627735 
L 797.973349 164.297477 
L 794.041093 178.131981 
L 791.087546 187.148393 
L 788.125636 191.99412 
L 784.182148 199.544296 
L 780.966591 203.188962 
L 778.097577 206.797459 
L 774.42859 210.646274 
L 771.276286 215.280051 
L 768.220165 217.037116 
L 764.043494 217.496141 
L 761.048603 219.434734 
L 757.893813 220.072787 
L 753.622714 222.717996 
L 750.555055 223.173108 
L 747.357232 223.952747 
L 743.065792 224.914803 
L 739.63933 225.187207 
L 736.259223 225.00935 
L 732.028433 225.236309 
L 729.210343 226.403416 
L 725.96362 226.510789 
L 721.357905 227.11366 
L 718.266122 226.417162 
L 715.012507 227.833157 
L 710.785085 227.43031 
L 707.601435 227.865046 
L 704.278561 227.747991 
L 700.110145 229.198835 
L 696.973679 227.917155 
L 694.174292 227.488364 
L 689.557248 228.278998 
L 686.291719 227.95438 
L 683.134472 228.781774 
L 678.743553 228.68088 
L 675.685318 228.391295 
L 672.402503 228.394801 
L 667.933108 229.526869 
L 664.600368 228.559843 
L 661.438588 228.397447 
L 657.038944 229.424282 
L 653.707964 222.403048 
L 650.559557 228.697485 
L 646.315774 228.415506 
" clip-path="url(#pcca92f0e66)" style="fill: none; stroke-dasharray: 2,3.3; stroke-dashoffset: 0; stroke: #38d7ac; stroke-width: 2; stroke-linecap: round"/>
   </g>
   <g id="line2d_208">
    <path d="M 842.321394 51.644833 
L 840.227823 61.759558 
L 837.495814 72.687599 
L 835.392201 81.558306 
L 833.054229 91.326341 
L 829.795111 105.310452 
L 827.435428 117.04186 
L 824.981633 132.148743 
L 821.734737 147.610414 
L 819.135174 153.641868 
L 816.423665 161.126415 
L 813.207639 169.439594 
L 810.490453 174.720352 
L 807.735896 179.240454 
L 803.971641 185.206551 
L 800.877778 187.448124 
L 797.973349 191.300172 
L 794.041093 194.240243 
L 791.087546 197.916101 
L 788.125636 199.506521 
L 784.182148 202.804972 
L 780.966591 204.167441 
L 778.097577 208.147055 
L 774.42859 209.543039 
L 771.276286 213.501385 
L 768.220165 214.520414 
L 764.043494 215.61071 
L 761.048603 217.454743 
L 757.893813 218.452346 
L 753.622714 222.177319 
L 750.555055 221.932925 
L 747.357232 222.590883 
L 743.065792 223.868299 
L 739.63933 224.011609 
L 736.259223 224.132288 
L 732.028433 224.357111 
L 729.210343 225.322104 
L 725.96362 225.408325 
L 721.357905 226.037339 
L 718.266122 225.792917 
L 715.012507 226.978472 
L 710.785085 226.735816 
L 707.601435 227.52279 
L 704.278561 227.163177 
L 700.110145 228.995535 
L 696.973679 227.520813 
L 694.174292 226.863544 
L 689.557248 227.946273 
L 686.291719 227.549615 
L 683.134472 228.426971 
L 678.743553 228.220514 
L 675.685318 228.018371 
L 672.402503 228.064912 
L 667.933108 228.933892 
L 664.600368 228.277168 
L 661.438588 228.602917 
L 657.038944 229.34481 
L 653.707964 222.524362 
L 650.559557 228.146031 
L 646.315774 228.139035 
" clip-path="url(#pcca92f0e66)" style="fill: none; stroke-dasharray: 2,3.3; stroke-dashoffset: 0; stroke: #5386be; stroke-width: 2; stroke-linecap: round"/>
   </g>
   <g id="patch_9">
    <path d="M 640.435605 235.517813 
L 640.435605 23.837813 
" style="fill: none; stroke: #b6bccf; stroke-width: 1.2; stroke-linejoin: miter; stroke-linecap: square"/>
   </g>
   <g id="patch_10">
    <path d="M 640.435605 235.517812 
L 848.201563 235.517812 
" style="fill: none; stroke: #b6bccf; stroke-width: 1.2; stroke-linejoin: miter; stroke-linecap: square"/>
   </g>
   <g id="text_33">
    <!-- FW(1/100)M -->
    <g style="fill: #b6bccf" transform="translate(701.69624 17.837812) scale(0.14 -0.14)">
     <use xlink:href="#DejaVuSans-46"/>
     <use xlink:href="#DejaVuSans-57" x="57.519531"/>
     <use xlink:href="#DejaVuSans-28" x="156.396484"/>
     <use xlink:href="#DejaVuSans-31" x="195.410156"/>
     <use xlink:href="#DejaVuSans-2f" x="259.033203"/>
     <use xlink:href="#DejaVuSans-31" x="292.724609"/>
     <use xlink:href="#DejaVuSans-30" x="356.347656"/>
     <use xlink:href="#DejaVuSans-30" x="419.970703"/>
     <use xlink:href="#DejaVuSans-29" x="483.59375"/>
     <use xlink:href="#DejaVuSans-4d" x="522.607422"/>
    </g>
   </g>
  </g>
 </g>
 <defs>
  <clipPath id="pd8ce024dba">
   <rect x="67.001563" y="23.837812" width="207.765957" height="211.68"/>
  </clipPath>
  <clipPath id="p905cbceeed">
   <rect x="353.718584" y="23.837812" width="207.765957" height="211.68"/>
  </clipPath>
  <clipPath id="pcca92f0e66">
   <rect x="640.435605" y="23.837812" width="207.765957" height="211.68"/>
  </clipPath>
 </defs>
</svg>
