<svg width="1510" height="434" viewBox="0 0 1510 434" fill="none" xmlns="http://www.w3.org/2000/svg">
<path d="M1376 321.5V415H1093V49H1063.5V3H1405V49H1376V274" stroke="#E3E3E3" stroke-width="5" stroke-linejoin="round"/>
<path d="M555.5 321.5V415H272.5V49H243V3H584.5V49H555.5V274" stroke="#E3E3E3" stroke-width="5" stroke-linejoin="round"/>
<rect x="386" y="96" width="26.5" height="90" fill="#C4C4C4" fill-opacity="0.26"/>
<rect x="1157" y="96" width="26.5" height="90" fill="#C4C4C4" fill-opacity="0.26"/>
<rect x="386" y="196" width="26.5" height="33.5" fill="#C4C4C4" fill-opacity="0.26"/>
<rect x="1157" y="196" width="26.5" height="33.5" fill="#C4C4C4" fill-opacity="0.26"/>
<rect x="374.5" y="229.5" width="53" height="131.5" rx="2" fill="#E8B76D"/>
<rect x="296.5" y="186" width="234" height="10" rx="2" fill="#E8B76D" fill-opacity="0.35"/>
<rect x="1117" y="186" width="237" height="10" rx="2" fill="#E8B76D" fill-opacity="0.35"/>
<rect x="286.5" y="79" width="257" height="17" rx="2" fill="#E8B76D" fill-opacity="0.35"/>
<rect x="1107" y="79" width="257" height="17" rx="2" fill="#E8B76D" fill-opacity="0.35"/>
<rect x="1143.75" y="229.5" width="53" height="131.5" rx="2" fill="#E8B76D"/>
<ellipse cx="412.5" cy="296.5" rx="6.8125" ry="11.6875" fill="#754600"/>
<ellipse cx="1183" cy="296.5" rx="6.8125" ry="11.6875" fill="#754600"/>
<path d="M1183.15 303.25L1180.08 303.25C1179.7 303.25 1179.4 302.746 1179.4 302.125C1179.4 301.504 1179.7 301 1180.08 301L1185.92 301C1186.3 301 1186.6 300.496 1186.6 299.875C1186.6 299.254 1186.3 298.75 1185.92 298.75L1180.08 298.75C1179.7 298.75 1179.4 298.246 1179.4 297.625C1179.4 297.004 1179.7 296.5 1180.08 296.5L1185.92 296.5C1186.3 296.5 1186.6 295.996 1186.6 295.375C1186.6 294.754 1186.3 294.25 1185.92 294.25L1180.08 294.25C1179.7 294.25 1179.4 293.746 1179.4 293.125C1179.4 292.504 1179.7 292 1180.08 292L1185.92 292C1186.3 292 1186.6 291.496 1186.6 290.875C1186.6 290.254 1186.3 289.75 1185.92 289.75L1183.15 289.75" stroke="#383838" stroke-width="2"/>
<path d="M412.651 303.25L409.583 303.25C409.204 303.25 408.896 302.746 408.896 302.125C408.896 301.504 409.204 301 409.583 301L415.416 301C415.796 301 416.104 300.496 416.104 299.875C416.104 299.254 415.796 298.75 415.416 298.75L409.583 298.75C409.204 298.75 408.896 298.246 408.896 297.625C408.896 297.004 409.204 296.5 409.583 296.5L415.416 296.5C415.796 296.5 416.104 295.996 416.104 295.375C416.104 294.754 415.796 294.25 415.416 294.25L409.583 294.25C409.204 294.25 408.896 293.746 408.896 293.125C408.896 292.504 409.204 292 409.583 292L415.416 292C415.796 292 416.104 291.496 416.104 290.875C416.104 290.254 415.796 289.75 415.416 289.75L412.651 289.75" stroke="#383838" stroke-width="2"/>
<path d="M1229 275C1228.45 275 1228 275.448 1228 276V320C1228 320.552 1228.45 321 1229 321C1229.51 321 1230.17 320.815 1230.85 320.556C1231.57 320.284 1232.42 319.886 1233.36 319.366C1235.23 318.328 1237.47 316.785 1239.63 314.747C1243.94 310.675 1248 304.555 1248 296.5C1248 288.428 1244.02 283.033 1239.69 279.689C1237.54 278.022 1235.29 276.858 1233.39 276.109C1231.53 275.374 1229.91 275 1229 275Z" stroke="white" stroke-width="2" stroke-linejoin="round"/>
<path d="M572.375 275C571.823 275 571.375 275.448 571.375 276V320C571.375 320.552 571.823 321 572.375 321C572.682 321 572.953 320.891 573.131 320.804C573.331 320.706 573.536 320.575 573.738 320.426C574.143 320.127 574.607 319.704 575.1 319.172C576.089 318.104 577.253 316.54 578.364 314.498C580.59 310.408 582.625 304.37 582.625 296.5C582.625 288.633 580.636 283.311 578.388 279.927C577.266 278.239 576.082 277.037 575.054 276.247C574.541 275.852 574.057 275.553 573.63 275.348C573.234 275.158 572.787 275 572.375 275ZM572.217 319.022C572.217 319.022 572.22 319.021 572.226 319.019C572.22 319.022 572.217 319.023 572.217 319.022Z" stroke="white" stroke-width="2" stroke-linejoin="round"/>
<g filter="url(#filter0_f_16_17)">
<path d="M1224.5 284.812L1183 294.36V298.64L1224.5 308.188H1474V284.812H1224.5Z" fill="#FF6363" fill-opacity="0.58"/>
</g>
<g filter="url(#filter1_f_16_17)">
<path d="M585 284.812L413.5 294.36V298.64L585 308.188H852.5V284.812H585Z" fill="#FF6363" fill-opacity="0.58"/>
</g>
<path d="M1364 273.5V79H1107V398H1364V322" stroke="#757575" stroke-width="4" stroke-linejoin="round"/>
<path d="M543.5 273.5V79H286.5V398H543.5V322" stroke="#757575" stroke-width="4" stroke-linejoin="round"/>
<path d="M1354 273.5V186H1117V389H1354V322" stroke="#757575" stroke-width="4" stroke-linejoin="round"/>
<path d="M533.5 273.5V186H296.5V389H533.5V322" stroke="#757575" stroke-width="4" stroke-linejoin="round"/>
<g filter="url(#filter2_f_16_17)">
<rect x="698.5" y="152" width="220" height="262" fill="#2E303E"/>
</g>
<g filter="url(#filter3_f_16_17)">
<rect x="1437.25" y="152" width="52.75" height="262" fill="#2E303E"/>
</g>
<g filter="url(#filter4_f_16_17)">
<rect x="32.7557" y="149.875" width="158.744" height="199" fill="#2E303E"/>
</g>
<path d="M671.098 121V106.455H676.283C677.409 106.455 678.345 106.649 679.088 107.037C679.836 107.425 680.395 107.963 680.764 108.649C681.133 109.331 681.318 110.119 681.318 111.014C681.318 111.904 681.131 112.688 680.757 113.365C680.388 114.037 679.829 114.561 679.081 114.935C678.337 115.309 677.402 115.496 676.275 115.496H672.348V113.607H676.077C676.787 113.607 677.364 113.505 677.81 113.301C678.259 113.098 678.588 112.802 678.797 112.413C679.005 112.025 679.109 111.559 679.109 111.014C679.109 110.465 679.003 109.989 678.79 109.587C678.581 109.184 678.252 108.876 677.802 108.663C677.357 108.446 676.773 108.337 676.048 108.337H673.292V121H671.098ZM678.278 114.438L681.872 121H679.372L675.849 114.438H678.278ZM686.993 121.241C686.301 121.241 685.676 121.114 685.118 120.858C684.559 120.598 684.116 120.221 683.79 119.729C683.468 119.236 683.307 118.633 683.307 117.918C683.307 117.302 683.425 116.795 683.662 116.398C683.899 116 684.218 115.685 684.621 115.453C685.023 115.221 685.473 115.046 685.97 114.928C686.467 114.809 686.974 114.719 687.49 114.658C688.143 114.582 688.674 114.52 689.081 114.473C689.488 114.421 689.784 114.338 689.969 114.224C690.153 114.111 690.246 113.926 690.246 113.67V113.621C690.246 113 690.07 112.52 689.72 112.179C689.374 111.838 688.858 111.668 688.172 111.668C687.457 111.668 686.893 111.826 686.481 112.143C686.074 112.456 685.792 112.804 685.636 113.188L683.641 112.733C683.877 112.07 684.223 111.535 684.677 111.128C685.137 110.716 685.665 110.418 686.261 110.233C686.858 110.044 687.485 109.949 688.143 109.949C688.579 109.949 689.041 110.001 689.528 110.105C690.021 110.205 690.48 110.389 690.906 110.659C691.337 110.929 691.69 111.315 691.964 111.817C692.239 112.314 692.376 112.96 692.376 113.756V121H690.302V119.509H690.217C690.08 119.783 689.874 120.053 689.599 120.318C689.325 120.583 688.972 120.804 688.541 120.979C688.11 121.154 687.594 121.241 686.993 121.241ZM687.454 119.537C688.042 119.537 688.543 119.421 688.96 119.189C689.382 118.957 689.701 118.654 689.919 118.28C690.141 117.901 690.253 117.496 690.253 117.065V115.659C690.177 115.735 690.03 115.806 689.812 115.872C689.599 115.934 689.355 115.988 689.081 116.036C688.806 116.078 688.539 116.118 688.278 116.156C688.018 116.189 687.8 116.218 687.625 116.241C687.213 116.294 686.837 116.381 686.496 116.504C686.159 116.627 685.89 116.805 685.686 117.037C685.487 117.264 685.388 117.567 685.388 117.946C685.388 118.472 685.582 118.869 685.97 119.139C686.358 119.404 686.853 119.537 687.454 119.537ZM699.289 121.213C698.408 121.213 697.622 120.988 696.931 120.538C696.244 120.084 695.704 119.437 695.311 118.599C694.923 117.757 694.729 116.746 694.729 115.567C694.729 114.388 694.925 113.379 695.318 112.541C695.716 111.703 696.261 111.062 696.952 110.616C697.643 110.171 698.427 109.949 699.303 109.949C699.98 109.949 700.524 110.062 700.936 110.29C701.353 110.512 701.675 110.773 701.902 111.071C702.134 111.369 702.314 111.632 702.442 111.859H702.57V106.455H704.693V121H702.62V119.303H702.442C702.314 119.535 702.129 119.8 701.888 120.098C701.651 120.396 701.325 120.657 700.908 120.879C700.491 121.102 699.951 121.213 699.289 121.213ZM699.757 119.402C700.368 119.402 700.884 119.241 701.306 118.919C701.732 118.592 702.054 118.14 702.272 117.562C702.494 116.985 702.605 116.312 702.605 115.545C702.605 114.788 702.496 114.125 702.279 113.557C702.061 112.989 701.741 112.546 701.32 112.229C700.898 111.911 700.378 111.753 699.757 111.753C699.118 111.753 698.585 111.919 698.159 112.25C697.733 112.581 697.411 113.034 697.193 113.607C696.98 114.179 696.874 114.826 696.874 115.545C696.874 116.275 696.983 116.93 697.201 117.513C697.418 118.095 697.74 118.557 698.166 118.898C698.597 119.234 699.128 119.402 699.757 119.402ZM707.724 121V110.091H709.848V121H707.724ZM708.797 108.408C708.427 108.408 708.11 108.285 707.845 108.038C707.585 107.787 707.454 107.489 707.454 107.143C707.454 106.793 707.585 106.495 707.845 106.249C708.11 105.998 708.427 105.872 708.797 105.872C709.166 105.872 709.481 105.998 709.741 106.249C710.007 106.495 710.139 106.793 710.139 107.143C710.139 107.489 710.007 107.787 709.741 108.038C709.481 108.285 709.166 108.408 708.797 108.408ZM715.879 121.241C715.188 121.241 714.563 121.114 714.004 120.858C713.446 120.598 713.003 120.221 712.676 119.729C712.354 119.236 712.193 118.633 712.193 117.918C712.193 117.302 712.312 116.795 712.549 116.398C712.785 116 713.105 115.685 713.507 115.453C713.91 115.221 714.36 115.046 714.857 114.928C715.354 114.809 715.861 114.719 716.377 114.658C717.03 114.582 717.56 114.52 717.968 114.473C718.375 114.421 718.671 114.338 718.855 114.224C719.04 114.111 719.132 113.926 719.132 113.67V113.621C719.132 113 718.957 112.52 718.607 112.179C718.261 111.838 717.745 111.668 717.058 111.668C716.344 111.668 715.78 111.826 715.368 112.143C714.961 112.456 714.679 112.804 714.523 113.188L712.527 112.733C712.764 112.07 713.11 111.535 713.564 111.128C714.023 110.716 714.551 110.418 715.148 110.233C715.745 110.044 716.372 109.949 717.03 109.949C717.466 109.949 717.927 110.001 718.415 110.105C718.907 110.205 719.367 110.389 719.793 110.659C720.224 110.929 720.576 111.315 720.851 111.817C721.126 112.314 721.263 112.96 721.263 113.756V121H719.189V119.509H719.104C718.967 119.783 718.761 120.053 718.486 120.318C718.211 120.583 717.859 120.804 717.428 120.979C716.997 121.154 716.481 121.241 715.879 121.241ZM716.341 119.537C716.928 119.537 717.43 119.421 717.847 119.189C718.268 118.957 718.588 118.654 718.806 118.28C719.028 117.901 719.139 117.496 719.139 117.065V115.659C719.064 115.735 718.917 115.806 718.699 115.872C718.486 115.934 718.242 115.988 717.968 116.036C717.693 116.078 717.425 116.118 717.165 116.156C716.905 116.189 716.687 116.218 716.512 116.241C716.1 116.294 715.723 116.381 715.382 116.504C715.046 116.627 714.776 116.805 714.573 117.037C714.374 117.264 714.274 117.567 714.274 117.946C714.274 118.472 714.469 118.869 714.857 119.139C715.245 119.404 715.74 119.537 716.341 119.537ZM729.184 110.091V111.795H723.225V110.091H729.184ZM724.823 107.477H726.947V117.797C726.947 118.209 727.008 118.519 727.131 118.727C727.254 118.931 727.413 119.071 727.607 119.146C727.806 119.217 728.021 119.253 728.253 119.253C728.424 119.253 728.573 119.241 728.701 119.217C728.829 119.194 728.928 119.175 728.999 119.161L729.383 120.915C729.26 120.962 729.084 121.009 728.857 121.057C728.63 121.109 728.346 121.137 728.005 121.142C727.446 121.152 726.925 121.052 726.442 120.844C725.959 120.635 725.569 120.313 725.27 119.878C724.972 119.442 724.823 118.895 724.823 118.237V107.477ZM731.533 121V110.091H733.656V121H731.533ZM732.605 108.408C732.236 108.408 731.919 108.285 731.654 108.038C731.393 107.787 731.263 107.489 731.263 107.143C731.263 106.793 731.393 106.495 731.654 106.249C731.919 105.998 732.236 105.872 732.605 105.872C732.975 105.872 733.29 105.998 733.55 106.249C733.815 106.495 733.948 106.793 733.948 107.143C733.948 107.489 733.815 107.787 733.55 108.038C733.29 108.285 732.975 108.408 732.605 108.408ZM741.109 121.22C740.086 121.22 739.193 120.986 738.431 120.517C737.669 120.048 737.077 119.393 736.655 118.55C736.234 117.707 736.023 116.722 736.023 115.595C736.023 114.464 736.234 113.474 736.655 112.626C737.077 111.779 737.669 111.121 738.431 110.652C739.193 110.183 740.086 109.949 741.109 109.949C742.131 109.949 743.024 110.183 743.786 110.652C744.548 111.121 745.14 111.779 745.562 112.626C745.983 113.474 746.194 114.464 746.194 115.595C746.194 116.722 745.983 117.707 745.562 118.55C745.14 119.393 744.548 120.048 743.786 120.517C743.024 120.986 742.131 121.22 741.109 121.22ZM741.116 119.438C741.779 119.438 742.328 119.262 742.763 118.912C743.199 118.562 743.521 118.095 743.729 117.513C743.942 116.93 744.049 116.289 744.049 115.588C744.049 114.892 743.942 114.253 743.729 113.67C743.521 113.083 743.199 112.612 742.763 112.257C742.328 111.902 741.779 111.724 741.116 111.724C740.448 111.724 739.894 111.902 739.454 112.257C739.018 112.612 738.694 113.083 738.481 113.67C738.272 114.253 738.168 114.892 738.168 115.588C738.168 116.289 738.272 116.93 738.481 117.513C738.694 118.095 739.018 118.562 739.454 118.912C739.894 119.262 740.448 119.438 741.116 119.438ZM750.688 114.523V121H748.564V110.091H750.603V111.866H750.737C750.988 111.289 751.381 110.825 751.916 110.474C752.456 110.124 753.136 109.949 753.955 109.949C754.698 109.949 755.349 110.105 755.908 110.418C756.467 110.725 756.9 111.185 757.208 111.795C757.515 112.406 757.669 113.161 757.669 114.061V121H755.546V114.317C755.546 113.526 755.34 112.908 754.928 112.463C754.516 112.013 753.95 111.788 753.23 111.788C752.738 111.788 752.3 111.895 751.916 112.108C751.538 112.321 751.237 112.634 751.014 113.045C750.797 113.453 750.688 113.945 750.688 114.523ZM773.914 110.276C773.838 109.603 773.526 109.082 772.976 108.713C772.427 108.339 771.736 108.152 770.903 108.152C770.306 108.152 769.79 108.247 769.354 108.436C768.919 108.621 768.58 108.876 768.339 109.203C768.102 109.525 767.984 109.892 767.984 110.304C767.984 110.65 768.064 110.948 768.225 111.199C768.391 111.45 768.606 111.661 768.871 111.831C769.141 111.997 769.43 112.136 769.738 112.25C770.046 112.359 770.341 112.449 770.626 112.52L772.046 112.889C772.51 113.003 772.986 113.157 773.474 113.351C773.961 113.545 774.413 113.801 774.83 114.118C775.247 114.435 775.583 114.828 775.839 115.297C776.099 115.766 776.229 116.327 776.229 116.98C776.229 117.804 776.016 118.536 775.59 119.175C775.169 119.814 774.556 120.318 773.751 120.688C772.95 121.057 771.982 121.241 770.846 121.241C769.757 121.241 768.815 121.069 768.019 120.723C767.224 120.377 766.601 119.887 766.151 119.253C765.701 118.614 765.453 117.856 765.405 116.98H767.607C767.65 117.506 767.82 117.944 768.118 118.294C768.422 118.64 768.807 118.898 769.276 119.068C769.75 119.234 770.268 119.317 770.832 119.317C771.452 119.317 772.003 119.22 772.486 119.026C772.974 118.827 773.358 118.552 773.637 118.202C773.916 117.847 774.056 117.432 774.056 116.959C774.056 116.528 773.933 116.175 773.687 115.901C773.445 115.626 773.116 115.399 772.699 115.219C772.288 115.039 771.821 114.88 771.3 114.743L769.582 114.274C768.417 113.957 767.493 113.491 766.812 112.875C766.135 112.259 765.796 111.445 765.796 110.432C765.796 109.594 766.023 108.862 766.478 108.237C766.932 107.612 767.548 107.127 768.324 106.781C769.101 106.431 769.977 106.256 770.952 106.256C771.937 106.256 772.806 106.429 773.559 106.774C774.316 107.12 774.913 107.596 775.349 108.202C775.784 108.803 776.011 109.494 776.03 110.276H773.914ZM780.805 114.523V121H778.681V106.455H780.777V111.866H780.911C781.167 111.279 781.558 110.813 782.083 110.467C782.609 110.122 783.295 109.949 784.143 109.949C784.891 109.949 785.545 110.103 786.103 110.411C786.667 110.718 787.102 111.178 787.41 111.788C787.723 112.394 787.879 113.152 787.879 114.061V121H785.755V114.317C785.755 113.517 785.549 112.896 785.137 112.456C784.725 112.011 784.152 111.788 783.419 111.788C782.917 111.788 782.467 111.895 782.069 112.108C781.676 112.321 781.366 112.634 781.139 113.045C780.916 113.453 780.805 113.945 780.805 114.523ZM790.713 121V110.091H792.836V121H790.713ZM791.785 108.408C791.416 108.408 791.098 108.285 790.833 108.038C790.573 107.787 790.443 107.489 790.443 107.143C790.443 106.793 790.573 106.495 790.833 106.249C791.098 105.998 791.416 105.872 791.785 105.872C792.154 105.872 792.469 105.998 792.73 106.249C792.995 106.495 793.127 106.793 793.127 107.143C793.127 107.489 792.995 107.787 792.73 108.038C792.469 108.285 792.154 108.408 791.785 108.408ZM800.395 121.22C799.32 121.22 798.394 120.991 797.618 120.531C796.846 120.067 796.249 119.416 795.828 118.578C795.411 117.735 795.203 116.748 795.203 115.616C795.203 114.499 795.411 113.514 795.828 112.662C796.249 111.81 796.837 111.144 797.589 110.666C798.347 110.188 799.232 109.949 800.246 109.949C800.861 109.949 801.458 110.051 802.035 110.254C802.613 110.458 803.132 110.777 803.591 111.213C804.05 111.649 804.412 112.214 804.677 112.911C804.943 113.602 805.075 114.442 805.075 115.432V116.185H796.403V114.594H802.994C802.994 114.035 802.881 113.54 802.653 113.109C802.426 112.674 802.106 112.33 801.694 112.08C801.287 111.829 800.809 111.703 800.26 111.703C799.663 111.703 799.142 111.85 798.697 112.143C798.257 112.432 797.916 112.811 797.675 113.28C797.438 113.744 797.319 114.248 797.319 114.793V116.036C797.319 116.765 797.447 117.385 797.703 117.896C797.963 118.408 798.326 118.798 798.79 119.068C799.254 119.333 799.796 119.466 800.416 119.466C800.819 119.466 801.185 119.409 801.517 119.295C801.848 119.177 802.135 119.002 802.376 118.77C802.618 118.538 802.802 118.251 802.93 117.911L804.94 118.273C804.779 118.865 804.49 119.383 804.074 119.828C803.662 120.268 803.143 120.612 802.518 120.858C801.898 121.099 801.19 121.22 800.395 121.22ZM809.555 106.455V121H807.431V106.455H809.555ZM816.496 121.213C815.615 121.213 814.829 120.988 814.138 120.538C813.451 120.084 812.911 119.437 812.518 118.599C812.13 117.757 811.936 116.746 811.936 115.567C811.936 114.388 812.132 113.379 812.525 112.541C812.923 111.703 813.468 111.062 814.159 110.616C814.85 110.171 815.634 109.949 816.51 109.949C817.187 109.949 817.731 110.062 818.143 110.29C818.56 110.512 818.882 110.773 819.109 111.071C819.341 111.369 819.521 111.632 819.649 111.859H819.777V106.455H821.9V121H819.827V119.303H819.649C819.521 119.535 819.337 119.8 819.095 120.098C818.858 120.396 818.532 120.657 818.115 120.879C817.698 121.102 817.158 121.213 816.496 121.213ZM816.964 119.402C817.575 119.402 818.091 119.241 818.513 118.919C818.939 118.592 819.261 118.14 819.479 117.562C819.701 116.985 819.812 116.312 819.812 115.545C819.812 114.788 819.703 114.125 819.486 113.557C819.268 112.989 818.948 112.546 818.527 112.229C818.105 111.911 817.585 111.753 816.964 111.753C816.325 111.753 815.792 111.919 815.366 112.25C814.94 112.581 814.618 113.034 814.4 113.607C814.187 114.179 814.081 114.826 814.081 115.545C814.081 116.275 814.19 116.93 814.408 117.513C814.625 118.095 814.947 118.557 815.373 118.898C815.804 119.234 816.335 119.402 816.964 119.402ZM833.106 112.754L831.181 113.095C831.101 112.849 830.973 112.615 830.798 112.392C830.627 112.17 830.395 111.987 830.102 111.845C829.808 111.703 829.441 111.632 829.001 111.632C828.4 111.632 827.898 111.767 827.495 112.037C827.093 112.302 826.892 112.645 826.892 113.067C826.892 113.431 827.027 113.725 827.296 113.947C827.566 114.17 828.002 114.352 828.603 114.494L830.336 114.892C831.34 115.124 832.088 115.482 832.58 115.964C833.073 116.447 833.319 117.075 833.319 117.847C833.319 118.5 833.13 119.082 832.751 119.594C832.377 120.1 831.854 120.498 831.181 120.787C830.514 121.076 829.74 121.22 828.859 121.22C827.637 121.22 826.641 120.96 825.869 120.439C825.097 119.913 824.624 119.168 824.448 118.202L826.501 117.889C826.629 118.424 826.892 118.829 827.289 119.104C827.687 119.374 828.205 119.509 828.845 119.509C829.541 119.509 830.097 119.364 830.514 119.075C830.93 118.782 831.139 118.424 831.139 118.003C831.139 117.662 831.011 117.375 830.755 117.143C830.504 116.911 830.118 116.736 829.598 116.618L827.751 116.213C826.733 115.981 825.98 115.612 825.492 115.105C825.009 114.598 824.768 113.957 824.768 113.18C824.768 112.536 824.948 111.973 825.308 111.49C825.668 111.007 826.165 110.631 826.799 110.361C827.434 110.086 828.161 109.949 828.98 109.949C830.159 109.949 831.087 110.205 831.764 110.716C832.441 111.223 832.888 111.902 833.106 112.754Z" fill="#C2C2C2"/>
<path d="M612.179 150.185H609.963C609.878 149.711 609.719 149.295 609.487 148.935C609.255 148.575 608.971 148.269 608.635 148.018C608.299 147.768 607.922 147.578 607.506 147.45C607.094 147.322 606.656 147.259 606.192 147.259C605.354 147.259 604.603 147.469 603.94 147.891C603.282 148.312 602.761 148.93 602.378 149.744C601.999 150.559 601.81 151.553 601.81 152.727C601.81 153.911 601.999 154.91 602.378 155.724C602.761 156.539 603.284 157.154 603.947 157.571C604.61 157.988 605.356 158.196 606.185 158.196C606.644 158.196 607.079 158.134 607.491 158.011C607.908 157.884 608.284 157.696 608.621 157.45C608.957 157.204 609.241 156.903 609.473 156.548C609.71 156.188 609.873 155.777 609.963 155.312L612.179 155.32C612.06 156.035 611.831 156.693 611.49 157.294C611.154 157.891 610.721 158.407 610.19 158.842C609.665 159.273 609.063 159.607 608.386 159.844C607.709 160.08 606.971 160.199 606.17 160.199C604.911 160.199 603.789 159.901 602.804 159.304C601.819 158.703 601.042 157.843 600.474 156.726C599.911 155.608 599.629 154.276 599.629 152.727C599.629 151.174 599.913 149.841 600.481 148.729C601.05 147.611 601.826 146.754 602.811 146.158C603.796 145.556 604.916 145.256 606.17 145.256C606.942 145.256 607.662 145.367 608.329 145.589C609.002 145.807 609.605 146.129 610.141 146.555C610.676 146.977 611.118 147.493 611.469 148.104C611.819 148.71 612.056 149.403 612.179 150.185ZM614.634 160V149.091H616.687V150.824H616.801C617 150.237 617.35 149.775 617.852 149.439C618.358 149.098 618.931 148.928 619.571 148.928C619.703 148.928 619.859 148.932 620.039 148.942C620.224 148.951 620.368 148.963 620.473 148.977V151.009C620.387 150.985 620.236 150.959 620.018 150.93C619.8 150.897 619.582 150.881 619.365 150.881C618.863 150.881 618.415 150.987 618.022 151.2C617.634 151.409 617.326 151.7 617.099 152.074C616.872 152.443 616.758 152.865 616.758 153.338V160H614.634ZM623.985 164.091C623.667 164.091 623.379 164.065 623.118 164.013C622.858 163.965 622.664 163.913 622.536 163.857L623.047 162.116C623.435 162.221 623.781 162.266 624.084 162.251C624.387 162.237 624.655 162.124 624.887 161.911C625.123 161.697 625.332 161.349 625.512 160.866L625.774 160.142L621.783 149.091H624.056L626.818 157.557H626.932L629.695 149.091H631.975L627.479 161.456C627.271 162.024 627.005 162.505 626.683 162.898C626.362 163.295 625.978 163.594 625.533 163.793C625.088 163.991 624.572 164.091 623.985 164.091ZM638.194 160.22C637.172 160.22 636.279 159.986 635.517 159.517C634.755 159.048 634.163 158.393 633.741 157.55C633.32 156.707 633.109 155.722 633.109 154.595C633.109 153.464 633.32 152.474 633.741 151.626C634.163 150.779 634.755 150.121 635.517 149.652C636.279 149.183 637.172 148.949 638.194 148.949C639.217 148.949 640.11 149.183 640.872 149.652C641.634 150.121 642.226 150.779 642.648 151.626C643.069 152.474 643.28 153.464 643.28 154.595C643.28 155.722 643.069 156.707 642.648 157.55C642.226 158.393 641.634 159.048 640.872 159.517C640.11 159.986 639.217 160.22 638.194 160.22ZM638.202 158.438C638.864 158.438 639.414 158.262 639.849 157.912C640.285 157.562 640.607 157.095 640.815 156.513C641.028 155.93 641.135 155.289 641.135 154.588C641.135 153.892 641.028 153.253 640.815 152.67C640.607 152.083 640.285 151.612 639.849 151.257C639.414 150.902 638.864 150.724 638.202 150.724C637.534 150.724 636.98 150.902 636.54 151.257C636.104 151.612 635.78 152.083 635.567 152.67C635.358 153.253 635.254 153.892 635.254 154.588C635.254 155.289 635.358 155.93 635.567 156.513C635.78 157.095 636.104 157.562 636.54 157.912C636.98 158.262 637.534 158.438 638.202 158.438ZM653.825 151.754L651.9 152.095C651.82 151.849 651.692 151.615 651.517 151.392C651.346 151.17 651.114 150.987 650.821 150.845C650.527 150.703 650.16 150.632 649.72 150.632C649.118 150.632 648.616 150.767 648.214 151.037C647.812 151.302 647.61 151.645 647.61 152.067C647.61 152.431 647.745 152.725 648.015 152.947C648.285 153.17 648.721 153.352 649.322 153.494L651.055 153.892C652.059 154.124 652.807 154.482 653.299 154.964C653.792 155.447 654.038 156.075 654.038 156.847C654.038 157.5 653.848 158.082 653.47 158.594C653.096 159.1 652.572 159.498 651.9 159.787C651.232 160.076 650.458 160.22 649.578 160.22C648.356 160.22 647.359 159.96 646.588 159.439C645.816 158.913 645.342 158.168 645.167 157.202L647.22 156.889C647.348 157.424 647.61 157.829 648.008 158.104C648.406 158.374 648.924 158.509 649.563 158.509C650.259 158.509 650.816 158.364 651.232 158.075C651.649 157.782 651.857 157.424 651.857 157.003C651.857 156.662 651.73 156.375 651.474 156.143C651.223 155.911 650.837 155.736 650.316 155.618L648.47 155.213C647.452 154.981 646.699 154.612 646.211 154.105C645.728 153.598 645.487 152.957 645.487 152.18C645.487 151.536 645.667 150.973 646.027 150.49C646.386 150.007 646.884 149.631 647.518 149.361C648.152 149.086 648.879 148.949 649.698 148.949C650.877 148.949 651.805 149.205 652.482 149.716C653.16 150.223 653.607 150.902 653.825 151.754ZM661.465 149.091V150.795H655.506V149.091H661.465ZM657.104 146.477H659.228V156.797C659.228 157.209 659.289 157.519 659.413 157.727C659.536 157.931 659.694 158.071 659.888 158.146C660.087 158.217 660.303 158.253 660.535 158.253C660.705 158.253 660.854 158.241 660.982 158.217C661.11 158.194 661.209 158.175 661.28 158.161L661.664 159.915C661.541 159.962 661.366 160.009 661.138 160.057C660.911 160.109 660.627 160.137 660.286 160.142C659.727 160.152 659.207 160.052 658.724 159.844C658.241 159.635 657.85 159.313 657.552 158.878C657.253 158.442 657.104 157.895 657.104 157.237V146.477ZM666.989 160.241C666.298 160.241 665.673 160.114 665.114 159.858C664.555 159.598 664.112 159.221 663.786 158.729C663.464 158.236 663.303 157.633 663.303 156.918C663.303 156.302 663.421 155.795 663.658 155.398C663.895 155 664.214 154.685 664.617 154.453C665.019 154.221 665.469 154.046 665.966 153.928C666.463 153.809 666.97 153.719 667.486 153.658C668.139 153.582 668.67 153.52 669.077 153.473C669.484 153.421 669.78 153.338 669.965 153.224C670.149 153.111 670.242 152.926 670.242 152.67V152.621C670.242 152 670.067 151.52 669.716 151.179C669.37 150.838 668.854 150.668 668.168 150.668C667.453 150.668 666.889 150.826 666.478 151.143C666.07 151.456 665.789 151.804 665.632 152.188L663.637 151.733C663.873 151.07 664.219 150.535 664.674 150.128C665.133 149.716 665.661 149.418 666.257 149.233C666.854 149.044 667.481 148.949 668.139 148.949C668.575 148.949 669.037 149.001 669.524 149.105C670.017 149.205 670.476 149.389 670.902 149.659C671.333 149.929 671.686 150.315 671.96 150.817C672.235 151.314 672.372 151.96 672.372 152.756V160H670.299V158.509H670.213C670.076 158.783 669.87 159.053 669.595 159.318C669.321 159.583 668.968 159.804 668.537 159.979C668.106 160.154 667.59 160.241 666.989 160.241ZM667.451 158.537C668.038 158.537 668.54 158.421 668.956 158.189C669.378 157.957 669.697 157.654 669.915 157.28C670.138 156.901 670.249 156.496 670.249 156.065V154.659C670.173 154.735 670.026 154.806 669.808 154.872C669.595 154.934 669.352 154.988 669.077 155.036C668.802 155.078 668.535 155.118 668.274 155.156C668.014 155.189 667.796 155.218 667.621 155.241C667.209 155.294 666.833 155.381 666.492 155.504C666.156 155.627 665.886 155.805 665.682 156.037C665.483 156.264 665.384 156.567 665.384 156.946C665.384 157.472 665.578 157.869 665.966 158.139C666.354 158.404 666.849 158.537 667.451 158.537ZM680.293 149.091V150.795H674.334V149.091H680.293ZM675.932 146.477H678.056V156.797C678.056 157.209 678.118 157.519 678.241 157.727C678.364 157.931 678.522 158.071 678.716 158.146C678.915 158.217 679.131 158.253 679.363 158.253C679.533 158.253 679.682 158.241 679.81 158.217C679.938 158.194 680.038 158.175 680.109 158.161L680.492 159.915C680.369 159.962 680.194 160.009 679.966 160.057C679.739 160.109 679.455 160.137 679.114 160.142C678.556 160.152 678.035 160.052 677.552 159.844C677.069 159.635 676.678 159.313 676.38 158.878C676.082 158.442 675.932 157.895 675.932 157.237V146.477ZM688.106 160V145.455H690.3V151.776H697.552V145.455H699.753V160H697.552V153.658H690.3V160H688.106ZM707.374 160.22C706.351 160.22 705.459 159.986 704.697 159.517C703.934 159.048 703.342 158.393 702.921 157.55C702.5 156.707 702.289 155.722 702.289 154.595C702.289 153.464 702.5 152.474 702.921 151.626C703.342 150.779 703.934 150.121 704.697 149.652C705.459 149.183 706.351 148.949 707.374 148.949C708.397 148.949 709.289 149.183 710.052 149.652C710.814 150.121 711.406 150.779 711.827 151.626C712.249 152.474 712.459 153.464 712.459 154.595C712.459 155.722 712.249 156.707 711.827 157.55C711.406 158.393 710.814 159.048 710.052 159.517C709.289 159.986 708.397 160.22 707.374 160.22ZM707.381 158.438C708.044 158.438 708.593 158.262 709.029 157.912C709.465 157.562 709.787 157.095 709.995 156.513C710.208 155.93 710.315 155.289 710.315 154.588C710.315 153.892 710.208 153.253 709.995 152.67C709.787 152.083 709.465 151.612 709.029 151.257C708.593 150.902 708.044 150.724 707.381 150.724C706.714 150.724 706.16 150.902 705.719 151.257C705.284 151.612 704.959 152.083 704.746 152.67C704.538 153.253 704.434 153.892 704.434 154.588C704.434 155.289 704.538 155.93 704.746 156.513C704.959 157.095 705.284 157.562 705.719 157.912C706.16 158.262 706.714 158.438 707.381 158.438ZM721.74 155.476V149.091H723.871V160H721.783V158.111H721.669C721.418 158.693 721.016 159.179 720.462 159.567C719.913 159.95 719.228 160.142 718.409 160.142C717.709 160.142 717.088 159.988 716.549 159.68C716.013 159.368 715.592 158.906 715.284 158.295C714.981 157.685 714.83 156.929 714.83 156.03V149.091H716.953V155.774C716.953 156.518 717.159 157.109 717.571 157.55C717.983 157.99 718.518 158.21 719.176 158.21C719.574 158.21 719.969 158.111 720.362 157.912C720.76 157.713 721.089 157.412 721.35 157.01C721.615 156.607 721.745 156.096 721.74 155.476ZM734.899 151.754L732.974 152.095C732.894 151.849 732.766 151.615 732.591 151.392C732.42 151.17 732.188 150.987 731.895 150.845C731.601 150.703 731.234 150.632 730.794 150.632C730.193 150.632 729.691 150.767 729.288 151.037C728.886 151.302 728.685 151.645 728.685 152.067C728.685 152.431 728.819 152.725 729.089 152.947C729.359 153.17 729.795 153.352 730.396 153.494L732.129 153.892C733.133 154.124 733.881 154.482 734.373 154.964C734.866 155.447 735.112 156.075 735.112 156.847C735.112 157.5 734.923 158.082 734.544 158.594C734.17 159.1 733.647 159.498 732.974 159.787C732.307 160.076 731.533 160.22 730.652 160.22C729.43 160.22 728.434 159.96 727.662 159.439C726.89 158.913 726.417 158.168 726.241 157.202L728.294 156.889C728.422 157.424 728.685 157.829 729.082 158.104C729.48 158.374 729.998 158.509 730.638 158.509C731.334 158.509 731.89 158.364 732.307 158.075C732.723 157.782 732.932 157.424 732.932 157.003C732.932 156.662 732.804 156.375 732.548 156.143C732.297 155.911 731.911 155.736 731.391 155.618L729.544 155.213C728.526 154.981 727.773 154.612 727.285 154.105C726.802 153.598 726.561 152.957 726.561 152.18C726.561 151.536 726.741 150.973 727.101 150.49C727.461 150.007 727.958 149.631 728.592 149.361C729.227 149.086 729.953 148.949 730.773 148.949C731.952 148.949 732.88 149.205 733.557 149.716C734.234 150.223 734.681 150.902 734.899 151.754ZM737.447 160V149.091H739.571V160H737.447ZM738.519 147.408C738.15 147.408 737.833 147.285 737.568 147.038C737.307 146.787 737.177 146.489 737.177 146.143C737.177 145.793 737.307 145.495 737.568 145.249C737.833 144.998 738.15 144.872 738.519 144.872C738.889 144.872 739.204 144.998 739.464 145.249C739.729 145.495 739.862 145.793 739.862 146.143C739.862 146.489 739.729 146.787 739.464 147.038C739.204 147.285 738.889 147.408 738.519 147.408ZM744.551 153.523V160H742.427V149.091H744.466V150.866H744.601C744.852 150.289 745.245 149.825 745.78 149.474C746.319 149.124 746.999 148.949 747.818 148.949C748.561 148.949 749.212 149.105 749.771 149.418C750.33 149.725 750.763 150.185 751.071 150.795C751.379 151.406 751.533 152.161 751.533 153.061V160H749.409V153.317C749.409 152.526 749.203 151.908 748.791 151.463C748.379 151.013 747.813 150.788 747.094 150.788C746.601 150.788 746.163 150.895 745.78 151.108C745.401 151.321 745.1 151.634 744.878 152.045C744.66 152.453 744.551 152.945 744.551 153.523ZM758.954 164.318C758.088 164.318 757.342 164.205 756.717 163.977C756.097 163.75 755.59 163.449 755.197 163.075C754.804 162.701 754.511 162.292 754.317 161.847L756.142 161.094C756.27 161.302 756.44 161.522 756.653 161.754C756.871 161.991 757.165 162.192 757.534 162.358C757.908 162.524 758.389 162.607 758.976 162.607C759.781 162.607 760.446 162.41 760.971 162.017C761.497 161.629 761.76 161.009 761.76 160.156V158.011H761.625C761.497 158.243 761.312 158.501 761.071 158.786C760.834 159.07 760.507 159.316 760.091 159.524C759.674 159.732 759.132 159.837 758.464 159.837C757.603 159.837 756.826 159.635 756.135 159.233C755.448 158.826 754.904 158.227 754.501 157.436C754.104 156.641 753.905 155.663 753.905 154.503C753.905 153.343 754.101 152.348 754.494 151.52C754.892 150.691 755.436 150.057 756.128 149.616C756.819 149.171 757.603 148.949 758.479 148.949C759.156 148.949 759.703 149.062 760.119 149.29C760.536 149.512 760.86 149.773 761.092 150.071C761.329 150.369 761.511 150.632 761.639 150.859H761.795V149.091H763.876V160.241C763.876 161.179 763.658 161.948 763.223 162.55C762.787 163.151 762.198 163.596 761.454 163.885C760.716 164.174 759.882 164.318 758.954 164.318ZM758.933 158.075C759.544 158.075 760.06 157.933 760.481 157.649C760.908 157.36 761.23 156.948 761.447 156.413C761.67 155.874 761.781 155.227 761.781 154.474C761.781 153.741 761.672 153.094 761.454 152.536C761.237 151.977 760.917 151.541 760.496 151.229C760.074 150.911 759.553 150.753 758.933 150.753C758.294 150.753 757.761 150.919 757.335 151.25C756.909 151.577 756.587 152.022 756.369 152.585C756.156 153.149 756.05 153.778 756.05 154.474C756.05 155.189 756.158 155.817 756.376 156.357C756.594 156.896 756.916 157.318 757.342 157.621C757.773 157.924 758.303 158.075 758.933 158.075Z" fill="#E3E3E3"/>
<path d="M114.772 244.455V259H112.57V246.656H112.485L109.005 248.929V246.827L112.634 244.455H114.772ZM124.198 259V244.455H126.393V251.401H126.57L132.671 244.455H135.434L129.567 251.003L135.455 259H132.813L128.111 252.501L126.393 254.476V259H124.198ZM141.21 259.22C140.135 259.22 139.209 258.991 138.433 258.531C137.661 258.067 137.064 257.416 136.643 256.578C136.226 255.735 136.018 254.748 136.018 253.616C136.018 252.499 136.226 251.514 136.643 250.662C137.064 249.81 137.652 249.144 138.404 248.666C139.162 248.188 140.047 247.949 141.061 247.949C141.676 247.949 142.273 248.051 142.85 248.254C143.428 248.458 143.947 248.777 144.406 249.213C144.865 249.649 145.227 250.214 145.492 250.911C145.758 251.602 145.89 252.442 145.89 253.432V254.185H137.218V252.594H143.809C143.809 252.035 143.696 251.54 143.468 251.109C143.241 250.674 142.921 250.33 142.51 250.08C142.102 249.829 141.624 249.703 141.075 249.703C140.478 249.703 139.957 249.85 139.512 250.143C139.072 250.432 138.731 250.811 138.49 251.28C138.253 251.744 138.135 252.248 138.135 252.793V254.036C138.135 254.765 138.262 255.385 138.518 255.896C138.778 256.408 139.141 256.798 139.605 257.068C140.069 257.333 140.611 257.466 141.231 257.466C141.634 257.466 142.001 257.409 142.332 257.295C142.663 257.177 142.95 257.002 143.191 256.77C143.433 256.538 143.617 256.251 143.745 255.911L145.755 256.273C145.594 256.865 145.305 257.383 144.889 257.828C144.477 258.268 143.958 258.612 143.333 258.858C142.713 259.099 142.005 259.22 141.21 259.22ZM150.37 244.455V259H148.246V244.455H150.37ZM162.559 248.091L158.603 259H156.331L152.367 248.091H154.647L157.41 256.486H157.524L160.279 248.091H162.559ZM164.555 259V248.091H166.679V259H164.555ZM165.627 246.408C165.258 246.408 164.941 246.285 164.676 246.038C164.415 245.787 164.285 245.489 164.285 245.143C164.285 244.793 164.415 244.495 164.676 244.249C164.941 243.998 165.258 243.872 165.627 243.872C165.997 243.872 166.312 243.998 166.572 244.249C166.837 244.495 166.97 244.793 166.97 245.143C166.97 245.489 166.837 245.787 166.572 246.038C166.312 246.285 165.997 246.408 165.627 246.408ZM171.659 252.523V259H169.535V248.091H171.574V249.866H171.709C171.96 249.289 172.353 248.825 172.888 248.474C173.428 248.124 174.107 247.949 174.926 247.949C175.669 247.949 176.321 248.105 176.879 248.418C177.438 248.725 177.871 249.185 178.179 249.795C178.487 250.406 178.641 251.161 178.641 252.061V259H176.517V252.317C176.517 251.526 176.311 250.908 175.899 250.463C175.487 250.013 174.921 249.788 174.202 249.788C173.709 249.788 173.271 249.895 172.888 250.108C172.509 250.321 172.208 250.634 171.986 251.045C171.768 251.453 171.659 251.945 171.659 252.523ZM194.885 248.276C194.809 247.603 194.497 247.082 193.948 246.713C193.399 246.339 192.707 246.152 191.874 246.152C191.277 246.152 190.761 246.247 190.326 246.436C189.89 246.621 189.551 246.876 189.31 247.203C189.073 247.525 188.955 247.892 188.955 248.304C188.955 248.65 189.035 248.948 189.196 249.199C189.362 249.45 189.577 249.661 189.843 249.831C190.113 249.997 190.401 250.136 190.709 250.25C191.017 250.359 191.313 250.449 191.597 250.52L193.017 250.889C193.481 251.003 193.957 251.157 194.445 251.351C194.933 251.545 195.385 251.801 195.801 252.118C196.218 252.435 196.554 252.828 196.81 253.297C197.07 253.766 197.201 254.327 197.201 254.98C197.201 255.804 196.988 256.536 196.561 257.175C196.14 257.814 195.527 258.318 194.722 258.688C193.922 259.057 192.953 259.241 191.817 259.241C190.728 259.241 189.786 259.069 188.99 258.723C188.195 258.377 187.572 257.887 187.122 257.253C186.673 256.614 186.424 255.856 186.377 254.98H188.578C188.621 255.506 188.792 255.944 189.09 256.294C189.393 256.64 189.779 256.898 190.247 257.068C190.721 257.234 191.239 257.317 191.803 257.317C192.423 257.317 192.975 257.22 193.458 257.026C193.945 256.827 194.329 256.552 194.608 256.202C194.888 255.847 195.027 255.432 195.027 254.959C195.027 254.528 194.904 254.175 194.658 253.901C194.417 253.626 194.087 253.399 193.671 253.219C193.259 253.039 192.792 252.88 192.272 252.743L190.553 252.274C189.388 251.957 188.465 251.491 187.783 250.875C187.106 250.259 186.767 249.445 186.767 248.432C186.767 247.594 186.995 246.862 187.449 246.237C187.904 245.612 188.519 245.127 189.296 244.781C190.072 244.431 190.948 244.256 191.924 244.256C192.908 244.256 193.777 244.429 194.53 244.774C195.288 245.12 195.884 245.596 196.32 246.202C196.756 246.803 196.983 247.494 197.002 248.276H194.885ZM204.745 248.091V249.795H198.786V248.091H204.745ZM200.384 245.477H202.508V255.797C202.508 256.209 202.569 256.519 202.692 256.727C202.816 256.931 202.974 257.071 203.168 257.146C203.367 257.217 203.583 257.253 203.815 257.253C203.985 257.253 204.134 257.241 204.262 257.217C204.39 257.194 204.489 257.175 204.56 257.161L204.944 258.915C204.821 258.962 204.646 259.009 204.418 259.057C204.191 259.109 203.907 259.137 203.566 259.142C203.007 259.152 202.486 259.052 202.004 258.844C201.521 258.635 201.13 258.313 200.832 257.878C200.533 257.442 200.384 256.895 200.384 256.237V245.477ZM210.269 259.241C209.577 259.241 208.952 259.114 208.394 258.858C207.835 258.598 207.392 258.221 207.066 257.729C206.744 257.236 206.583 256.633 206.583 255.918C206.583 255.302 206.701 254.795 206.938 254.398C207.175 254 207.494 253.685 207.897 253.453C208.299 253.221 208.749 253.046 209.246 252.928C209.743 252.809 210.25 252.719 210.766 252.658C211.419 252.582 211.95 252.52 212.357 252.473C212.764 252.421 213.06 252.338 213.245 252.224C213.429 252.111 213.522 251.926 213.522 251.67V251.621C213.522 251 213.346 250.52 212.996 250.179C212.65 249.838 212.134 249.668 211.448 249.668C210.733 249.668 210.169 249.826 209.757 250.143C209.35 250.456 209.068 250.804 208.912 251.188L206.917 250.733C207.153 250.07 207.499 249.535 207.953 249.128C208.413 248.716 208.941 248.418 209.537 248.233C210.134 248.044 210.761 247.949 211.419 247.949C211.855 247.949 212.317 248.001 212.804 248.105C213.297 248.205 213.756 248.389 214.182 248.659C214.613 248.929 214.966 249.315 215.24 249.817C215.515 250.314 215.652 250.96 215.652 251.756V259H213.578V257.509H213.493C213.356 257.783 213.15 258.053 212.875 258.318C212.601 258.583 212.248 258.804 211.817 258.979C211.386 259.154 210.87 259.241 210.269 259.241ZM210.73 257.537C211.318 257.537 211.819 257.421 212.236 257.189C212.658 256.957 212.977 256.654 213.195 256.28C213.417 255.901 213.529 255.496 213.529 255.065V253.659C213.453 253.735 213.306 253.806 213.088 253.872C212.875 253.934 212.631 253.988 212.357 254.036C212.082 254.078 211.815 254.118 211.554 254.156C211.294 254.189 211.076 254.218 210.901 254.241C210.489 254.294 210.113 254.381 209.772 254.504C209.435 254.627 209.166 254.805 208.962 255.037C208.763 255.264 208.664 255.567 208.664 255.946C208.664 256.472 208.858 256.869 209.246 257.139C209.634 257.404 210.129 257.537 210.73 257.537ZM223.055 263.318C222.188 263.318 221.442 263.205 220.817 262.977C220.197 262.75 219.691 262.449 219.298 262.075C218.905 261.701 218.611 261.292 218.417 260.847L220.242 260.094C220.37 260.302 220.54 260.522 220.754 260.754C220.971 260.991 221.265 261.192 221.634 261.358C222.008 261.524 222.489 261.607 223.076 261.607C223.881 261.607 224.546 261.41 225.072 261.017C225.597 260.629 225.86 260.009 225.86 259.156V257.011H225.725C225.597 257.243 225.413 257.501 225.171 257.786C224.934 258.07 224.608 258.316 224.191 258.524C223.774 258.732 223.232 258.837 222.565 258.837C221.703 258.837 220.926 258.635 220.235 258.233C219.548 257.826 219.004 257.227 218.602 256.436C218.204 255.641 218.005 254.663 218.005 253.503C218.005 252.343 218.201 251.348 218.594 250.52C218.992 249.691 219.537 249.057 220.228 248.616C220.919 248.171 221.703 247.949 222.579 247.949C223.256 247.949 223.803 248.062 224.219 248.29C224.636 248.512 224.96 248.773 225.192 249.071C225.429 249.369 225.611 249.632 225.739 249.859H225.896V248.091H227.977V259.241C227.977 260.179 227.759 260.948 227.323 261.55C226.888 262.151 226.298 262.596 225.555 262.885C224.816 263.174 223.983 263.318 223.055 263.318ZM223.033 257.075C223.644 257.075 224.16 256.933 224.582 256.649C225.008 256.36 225.33 255.948 225.548 255.413C225.77 254.874 225.881 254.227 225.881 253.474C225.881 252.741 225.772 252.094 225.555 251.536C225.337 250.977 225.017 250.541 224.596 250.229C224.174 249.911 223.654 249.753 223.033 249.753C222.394 249.753 221.861 249.919 221.435 250.25C221.009 250.577 220.687 251.022 220.469 251.585C220.256 252.149 220.15 252.778 220.15 253.474C220.15 254.189 220.259 254.817 220.477 255.357C220.694 255.896 221.016 256.318 221.442 256.621C221.873 256.924 222.404 257.075 223.033 257.075ZM235.526 259.22C234.451 259.22 233.526 258.991 232.749 258.531C231.977 258.067 231.381 257.416 230.959 256.578C230.543 255.735 230.334 254.748 230.334 253.616C230.334 252.499 230.543 251.514 230.959 250.662C231.381 249.81 231.968 249.144 232.721 248.666C233.478 248.188 234.364 247.949 235.377 247.949C235.993 247.949 236.589 248.051 237.167 248.254C237.745 248.458 238.263 248.777 238.722 249.213C239.182 249.649 239.544 250.214 239.809 250.911C240.074 251.602 240.207 252.442 240.207 253.432V254.185H231.535V252.594H238.126C238.126 252.035 238.012 251.54 237.785 251.109C237.557 250.674 237.238 250.33 236.826 250.08C236.419 249.829 235.941 249.703 235.391 249.703C234.795 249.703 234.274 249.85 233.829 250.143C233.388 250.432 233.048 250.811 232.806 251.28C232.569 251.744 232.451 252.248 232.451 252.793V254.036C232.451 254.765 232.579 255.385 232.834 255.896C233.095 256.408 233.457 256.798 233.921 257.068C234.385 257.333 234.927 257.466 235.548 257.466C235.95 257.466 236.317 257.409 236.648 257.295C236.98 257.177 237.266 257.002 237.508 256.77C237.749 256.538 237.934 256.251 238.062 255.911L240.072 256.273C239.911 256.865 239.622 257.383 239.205 257.828C238.793 258.268 238.275 258.612 237.65 258.858C237.03 259.099 236.322 259.22 235.526 259.22Z" fill="#E8B76D"/>
<path d="M597.292 196L594.082 185.091H596.277L598.415 193.102H598.521L600.666 185.091H602.861L604.991 193.067H605.098L607.221 185.091H609.416L606.213 196H604.047L601.831 188.124H601.667L599.452 196H597.292ZM611.431 196V185.091H613.555V196H611.431ZM612.504 183.408C612.134 183.408 611.817 183.285 611.552 183.038C611.292 182.787 611.161 182.489 611.161 182.143C611.161 181.793 611.292 181.495 611.552 181.249C611.817 180.998 612.134 180.872 612.504 180.872C612.873 180.872 613.188 180.998 613.448 181.249C613.714 181.495 613.846 181.793 613.846 182.143C613.846 182.489 613.714 182.787 613.448 183.038C613.188 183.285 612.873 183.408 612.504 183.408ZM618.535 189.523V196H616.412V185.091H618.45V186.866H618.585C618.836 186.289 619.229 185.825 619.764 185.474C620.304 185.124 620.983 184.949 621.802 184.949C622.546 184.949 623.197 185.105 623.756 185.418C624.314 185.725 624.748 186.185 625.055 186.795C625.363 187.406 625.517 188.161 625.517 189.061V196H623.393V189.317C623.393 188.526 623.187 187.908 622.775 187.463C622.364 187.013 621.798 186.788 621.078 186.788C620.586 186.788 620.148 186.895 619.764 187.108C619.385 187.321 619.085 187.634 618.862 188.045C618.644 188.453 618.535 188.945 618.535 189.523ZM632.449 196.213C631.568 196.213 630.782 195.988 630.091 195.538C629.404 195.084 628.864 194.437 628.471 193.599C628.083 192.757 627.889 191.746 627.889 190.567C627.889 189.388 628.086 188.379 628.479 187.541C628.876 186.703 629.421 186.062 630.112 185.616C630.803 185.171 631.587 184.949 632.463 184.949C633.14 184.949 633.685 185.062 634.096 185.29C634.513 185.512 634.835 185.773 635.062 186.071C635.294 186.369 635.474 186.632 635.602 186.859H635.73V181.455H637.854V196H635.78V194.303H635.602C635.474 194.535 635.29 194.8 635.048 195.098C634.811 195.396 634.485 195.657 634.068 195.879C633.651 196.102 633.112 196.213 632.449 196.213ZM632.917 194.402C633.528 194.402 634.044 194.241 634.466 193.919C634.892 193.592 635.214 193.14 635.432 192.562C635.654 191.985 635.766 191.312 635.766 190.545C635.766 189.788 635.657 189.125 635.439 188.557C635.221 187.989 634.901 187.546 634.48 187.229C634.059 186.911 633.538 186.753 632.917 186.753C632.278 186.753 631.746 186.919 631.319 187.25C630.893 187.581 630.571 188.034 630.354 188.607C630.141 189.179 630.034 189.826 630.034 190.545C630.034 191.275 630.143 191.93 630.361 192.513C630.578 193.095 630.9 193.557 631.327 193.898C631.757 194.234 632.288 194.402 632.917 194.402ZM645.48 196.22C644.457 196.22 643.564 195.986 642.802 195.517C642.04 195.048 641.448 194.393 641.027 193.55C640.605 192.707 640.394 191.722 640.394 190.595C640.394 189.464 640.605 188.474 641.027 187.626C641.448 186.779 642.04 186.121 642.802 185.652C643.564 185.183 644.457 184.949 645.48 184.949C646.502 184.949 647.395 185.183 648.157 185.652C648.92 186.121 649.511 186.779 649.933 187.626C650.354 188.474 650.565 189.464 650.565 190.595C650.565 191.722 650.354 192.707 649.933 193.55C649.511 194.393 648.92 195.048 648.157 195.517C647.395 195.986 646.502 196.22 645.48 196.22ZM645.487 194.438C646.15 194.438 646.699 194.262 647.134 193.912C647.57 193.562 647.892 193.095 648.1 192.513C648.313 191.93 648.42 191.289 648.42 190.588C648.42 189.892 648.313 189.253 648.1 188.67C647.892 188.083 647.57 187.612 647.134 187.257C646.699 186.902 646.15 186.724 645.487 186.724C644.819 186.724 644.265 186.902 643.825 187.257C643.389 187.612 643.065 188.083 642.852 188.67C642.643 189.253 642.539 189.892 642.539 190.588C642.539 191.289 642.643 191.93 642.852 192.513C643.065 193.095 643.389 193.562 643.825 193.912C644.265 194.262 644.819 194.438 645.487 194.438ZM654.968 196L651.758 185.091H653.953L656.09 193.102H656.197L658.342 185.091H660.536L662.667 193.067H662.774L664.897 185.091H667.092L663.889 196H661.723L659.507 188.124H659.343L657.127 196H654.968ZM677.282 187.754L675.357 188.095C675.277 187.849 675.149 187.615 674.974 187.392C674.803 187.17 674.571 186.987 674.278 186.845C673.984 186.703 673.617 186.632 673.177 186.632C672.575 186.632 672.074 186.767 671.671 187.037C671.269 187.302 671.067 187.645 671.067 188.067C671.067 188.431 671.202 188.725 671.472 188.947C671.742 189.17 672.178 189.352 672.779 189.494L674.512 189.892C675.516 190.124 676.264 190.482 676.756 190.964C677.249 191.447 677.495 192.075 677.495 192.847C677.495 193.5 677.306 194.082 676.927 194.594C676.553 195.1 676.029 195.498 675.357 195.787C674.69 196.076 673.915 196.22 673.035 196.22C671.813 196.22 670.816 195.96 670.045 195.439C669.273 194.913 668.799 194.168 668.624 193.202L670.677 192.889C670.805 193.424 671.067 193.829 671.465 194.104C671.863 194.374 672.381 194.509 673.02 194.509C673.716 194.509 674.273 194.364 674.69 194.075C675.106 193.782 675.315 193.424 675.315 193.003C675.315 192.662 675.187 192.375 674.931 192.143C674.68 191.911 674.294 191.736 673.773 191.618L671.927 191.213C670.909 190.981 670.156 190.612 669.668 190.105C669.185 189.598 668.944 188.957 668.944 188.18C668.944 187.536 669.124 186.973 669.484 186.49C669.843 186.007 670.341 185.631 670.975 185.361C671.609 185.086 672.336 184.949 673.155 184.949C674.334 184.949 675.262 185.205 675.94 185.716C676.617 186.223 677.064 186.902 677.282 187.754Z" fill="#99E4D7"/>
<path d="M454.848 215V200.455H463.868V202.344H457.042V206.776H463.221V208.658H457.042V215H454.848ZM466.396 215V204.091H468.52V215H466.396ZM467.469 202.408C467.099 202.408 466.782 202.285 466.517 202.038C466.257 201.787 466.126 201.489 466.126 201.143C466.126 200.793 466.257 200.495 466.517 200.249C466.782 199.998 467.099 199.872 467.469 199.872C467.838 199.872 468.153 199.998 468.413 200.249C468.678 200.495 468.811 200.793 468.811 201.143C468.811 201.489 468.678 201.787 468.413 202.038C468.153 202.285 467.838 202.408 467.469 202.408ZM473.5 200.455V215H471.377V200.455H473.5ZM481.449 204.091V205.795H475.491V204.091H481.449ZM477.089 201.477H479.212V211.797C479.212 212.209 479.274 212.519 479.397 212.727C479.52 212.931 479.679 213.071 479.873 213.146C480.072 213.217 480.287 213.253 480.519 213.253C480.69 213.253 480.839 213.241 480.966 213.217C481.094 213.194 481.194 213.175 481.265 213.161L481.648 214.915C481.525 214.962 481.35 215.009 481.123 215.057C480.895 215.109 480.611 215.137 480.27 215.142C479.712 215.152 479.191 215.052 478.708 214.844C478.225 214.635 477.834 214.313 477.536 213.878C477.238 213.442 477.089 212.895 477.089 212.237V201.477ZM488.383 215.22C487.308 215.22 486.383 214.991 485.606 214.531C484.834 214.067 484.238 213.416 483.816 212.578C483.4 211.735 483.191 210.748 483.191 209.616C483.191 208.499 483.4 207.514 483.816 206.662C484.238 205.81 484.825 205.144 485.578 204.666C486.335 204.188 487.221 203.949 488.234 203.949C488.849 203.949 489.446 204.051 490.024 204.254C490.601 204.458 491.12 204.777 491.579 205.213C492.038 205.649 492.401 206.214 492.666 206.911C492.931 207.602 493.063 208.442 493.063 209.432V210.185H484.392V208.594H490.982C490.982 208.035 490.869 207.54 490.642 207.109C490.414 206.674 490.095 206.33 489.683 206.08C489.276 205.829 488.797 205.703 488.248 205.703C487.652 205.703 487.131 205.85 486.686 206.143C486.245 206.432 485.904 206.811 485.663 207.28C485.426 207.744 485.308 208.248 485.308 208.793V210.036C485.308 210.765 485.436 211.385 485.691 211.896C485.952 212.408 486.314 212.798 486.778 213.068C487.242 213.333 487.784 213.466 488.404 213.466C488.807 213.466 489.174 213.409 489.505 213.295C489.837 213.177 490.123 213.002 490.365 212.77C490.606 212.538 490.791 212.251 490.919 211.911L492.929 212.273C492.768 212.865 492.479 213.383 492.062 213.828C491.65 214.268 491.132 214.612 490.507 214.858C489.886 215.099 489.179 215.22 488.383 215.22ZM495.42 215V204.091H497.472V205.824H497.586C497.785 205.237 498.135 204.775 498.637 204.439C499.144 204.098 499.716 203.928 500.356 203.928C500.488 203.928 500.645 203.932 500.824 203.942C501.009 203.951 501.154 203.963 501.258 203.977V206.009C501.172 205.985 501.021 205.959 500.803 205.93C500.585 205.897 500.368 205.881 500.15 205.881C499.648 205.881 499.2 205.987 498.807 206.2C498.419 206.409 498.111 206.7 497.884 207.074C497.657 207.443 497.543 207.865 497.543 208.338V215H495.42ZM454.848 239V224.455H460.033C461.159 224.455 462.095 224.649 462.838 225.037C463.586 225.425 464.145 225.963 464.514 226.649C464.883 227.331 465.068 228.119 465.068 229.014C465.068 229.904 464.881 230.688 464.507 231.365C464.138 232.037 463.579 232.561 462.831 232.935C462.087 233.309 461.152 233.496 460.025 233.496H456.098V231.607H459.827C460.537 231.607 461.114 231.505 461.56 231.301C462.009 231.098 462.338 230.802 462.547 230.413C462.755 230.025 462.859 229.559 462.859 229.014C462.859 228.465 462.753 227.989 462.54 227.587C462.331 227.184 462.002 226.876 461.552 226.663C461.107 226.446 460.523 226.337 459.798 226.337H457.042V239H454.848ZM462.028 232.438L465.622 239H463.122L459.599 232.438H462.028ZM472.133 239.22C471.058 239.22 470.133 238.991 469.356 238.531C468.584 238.067 467.988 237.416 467.566 236.578C467.15 235.735 466.941 234.748 466.941 233.616C466.941 232.499 467.15 231.514 467.566 230.662C467.988 229.81 468.575 229.144 469.328 228.666C470.085 228.188 470.971 227.949 471.984 227.949C472.599 227.949 473.196 228.051 473.774 228.254C474.351 228.458 474.87 228.777 475.329 229.213C475.788 229.649 476.151 230.214 476.416 230.911C476.681 231.602 476.813 232.442 476.813 233.432V234.185H468.142V232.594H474.732C474.732 232.035 474.619 231.54 474.392 231.109C474.164 230.674 473.845 230.33 473.433 230.08C473.026 229.829 472.547 229.703 471.998 229.703C471.402 229.703 470.881 229.85 470.436 230.143C469.995 230.432 469.654 230.811 469.413 231.28C469.176 231.744 469.058 232.248 469.058 232.793V234.036C469.058 234.765 469.186 235.385 469.441 235.896C469.702 236.408 470.064 236.798 470.528 237.068C470.992 237.333 471.534 237.466 472.154 237.466C472.557 237.466 472.924 237.409 473.255 237.295C473.587 237.177 473.873 237.002 474.115 236.77C474.356 236.538 474.541 236.251 474.669 235.911L476.679 236.273C476.518 236.865 476.229 237.383 475.812 237.828C475.4 238.268 474.882 238.612 474.257 238.858C473.636 239.099 472.929 239.22 472.133 239.22ZM483.743 243.318C482.877 243.318 482.131 243.205 481.506 242.977C480.886 242.75 480.379 242.449 479.986 242.075C479.593 241.701 479.3 241.292 479.106 240.847L480.931 240.094C481.059 240.302 481.229 240.522 481.442 240.754C481.66 240.991 481.954 241.192 482.323 241.358C482.697 241.524 483.178 241.607 483.765 241.607C484.57 241.607 485.235 241.41 485.761 241.017C486.286 240.629 486.549 240.009 486.549 239.156V237.011H486.414C486.286 237.243 486.101 237.501 485.86 237.786C485.623 238.07 485.297 238.316 484.88 238.524C484.463 238.732 483.921 238.837 483.253 238.837C482.392 238.837 481.615 238.635 480.924 238.233C480.237 237.826 479.693 237.227 479.29 236.436C478.893 235.641 478.694 234.663 478.694 233.503C478.694 232.343 478.89 231.348 479.283 230.52C479.681 229.691 480.225 229.057 480.917 228.616C481.608 228.171 482.392 227.949 483.268 227.949C483.945 227.949 484.492 228.062 484.908 228.29C485.325 228.512 485.649 228.773 485.881 229.071C486.118 229.369 486.3 229.632 486.428 229.859H486.584V228.091H488.665V239.241C488.665 240.179 488.448 240.948 488.012 241.55C487.576 242.151 486.987 242.596 486.243 242.885C485.505 243.174 484.672 243.318 483.743 243.318ZM483.722 237.075C484.333 237.075 484.849 236.933 485.27 236.649C485.697 236.36 486.019 235.948 486.236 235.413C486.459 234.874 486.57 234.227 486.57 233.474C486.57 232.741 486.461 232.094 486.243 231.536C486.026 230.977 485.706 230.541 485.285 230.229C484.863 229.911 484.342 229.753 483.722 229.753C483.083 229.753 482.55 229.919 482.124 230.25C481.698 230.577 481.376 231.022 481.158 231.585C480.945 232.149 480.839 232.778 480.839 233.474C480.839 234.189 480.948 234.817 481.165 235.357C481.383 235.896 481.705 236.318 482.131 236.621C482.562 236.924 483.092 237.075 483.722 237.075ZM491.513 239V228.091H493.637V239H491.513ZM492.586 226.408C492.216 226.408 491.899 226.285 491.634 226.038C491.374 225.787 491.243 225.489 491.243 225.143C491.243 224.793 491.374 224.495 491.634 224.249C491.899 223.998 492.216 223.872 492.586 223.872C492.955 223.872 493.27 223.998 493.53 224.249C493.796 224.495 493.928 224.793 493.928 225.143C493.928 225.489 493.796 225.787 493.53 226.038C493.27 226.285 492.955 226.408 492.586 226.408ZM501.089 239.22C500.066 239.22 499.174 238.986 498.411 238.517C497.649 238.048 497.057 237.393 496.636 236.55C496.214 235.707 496.004 234.722 496.004 233.595C496.004 232.464 496.214 231.474 496.636 230.626C497.057 229.779 497.649 229.121 498.411 228.652C499.174 228.183 500.066 227.949 501.089 227.949C502.112 227.949 503.004 228.183 503.767 228.652C504.529 229.121 505.121 229.779 505.542 230.626C505.964 231.474 506.174 232.464 506.174 233.595C506.174 234.722 505.964 235.707 505.542 236.55C505.121 237.393 504.529 238.048 503.767 238.517C503.004 238.986 502.112 239.22 501.089 239.22ZM501.096 237.438C501.759 237.438 502.308 237.262 502.744 236.912C503.179 236.562 503.501 236.095 503.71 235.513C503.923 234.93 504.029 234.289 504.029 233.588C504.029 232.892 503.923 232.253 503.71 231.67C503.501 231.083 503.179 230.612 502.744 230.257C502.308 229.902 501.759 229.724 501.096 229.724C500.429 229.724 499.875 229.902 499.434 230.257C498.999 230.612 498.674 231.083 498.461 231.67C498.253 232.253 498.149 232.892 498.149 233.588C498.149 234.289 498.253 234.93 498.461 235.513C498.674 236.095 498.999 236.562 499.434 236.912C499.875 237.262 500.429 237.438 501.096 237.438ZM510.668 232.523V239H508.545V228.091H510.583V229.866H510.718C510.969 229.289 511.362 228.825 511.897 228.474C512.437 228.124 513.116 227.949 513.935 227.949C514.679 227.949 515.33 228.105 515.888 228.418C516.447 228.725 516.88 229.185 517.188 229.795C517.496 230.406 517.65 231.161 517.65 232.061V239H515.526V232.317C515.526 231.526 515.32 230.908 514.908 230.463C514.496 230.013 513.931 229.788 513.211 229.788C512.718 229.788 512.28 229.895 511.897 230.108C511.518 230.321 511.217 230.634 510.995 231.045C510.777 231.453 510.668 231.945 510.668 232.523Z" fill="#70A9FF"/>
<path d="M365.065 256.553C365.648 255.965 365.644 255.016 365.056 254.432L355.472 244.925C354.883 244.342 353.934 244.346 353.35 244.934C352.767 245.522 352.771 246.472 353.359 247.055L361.879 255.506L353.428 264.025C352.845 264.614 352.848 265.563 353.437 266.147C354.025 266.73 354.975 266.726 355.558 266.138L365.065 256.553ZM363.994 253.997L240.494 254.5L240.506 257.5L364.006 256.997L363.994 253.997Z" fill="#E8B76D"/>
<path d="M546.439 114.939C545.853 115.525 545.853 116.475 546.439 117.061L555.985 126.607C556.571 127.192 557.521 127.192 558.106 126.607C558.692 126.021 558.692 125.071 558.106 124.485L549.621 116L558.106 107.515C558.692 106.929 558.692 105.979 558.106 105.393C557.521 104.808 556.571 104.808 555.985 105.393L546.439 114.939ZM547.5 117.5H655.5V114.5H547.5V117.5Z" fill="#C2C2C2"/>
<path d="M561.439 153.939C560.853 154.525 560.853 155.475 561.439 156.061L570.985 165.607C571.571 166.192 572.521 166.192 573.106 165.607C573.692 165.021 573.692 164.071 573.106 163.485L564.621 155L573.106 146.515C573.692 145.929 573.692 144.979 573.106 144.393C572.521 143.808 571.571 143.808 570.985 144.393L561.439 153.939ZM562.5 156.5L593.5 156.5L593.5 153.5L562.5 153.5L562.5 156.5Z" fill="white"/>
<path d="M560.386 271.249C560.731 272.003 561.621 272.334 562.374 271.989L574.649 266.369C575.402 266.024 575.733 265.134 575.388 264.38C575.043 263.627 574.153 263.296 573.4 263.641L562.489 268.637L557.494 257.726C557.149 256.973 556.258 256.642 555.505 256.987C554.752 257.332 554.421 258.222 554.766 258.975L560.386 271.249ZM563.156 271.148L590.906 196.523L588.094 195.477L560.344 270.102L563.156 271.148Z" fill="#99E4D7"/>
<path d="M480.793 281.707C481.183 282.098 481.816 282.098 482.207 281.707L488.571 275.343C488.961 274.953 488.961 274.319 488.571 273.929C488.18 273.538 487.547 273.538 487.157 273.929L481.5 279.586L475.843 273.929C475.452 273.538 474.819 273.538 474.429 273.929C474.038 274.319 474.038 274.953 474.429 275.343L480.793 281.707ZM482.5 281V247H480.5V281H482.5Z" fill="#70A9FF"/>
<rect x="1258" y="276" width="89" height="44" fill="#488DF4" fill-opacity="0.08"/>
<rect x="1257" y="275" width="91" height="46" stroke="#3970C3" stroke-opacity="0.42" stroke-width="2" stroke-linejoin="round"/>
<rect x="436.5" y="276" width="89" height="44" fill="#488DF4" fill-opacity="0.08"/>
<rect x="435.5" y="275" width="91" height="46" stroke="#3970C3" stroke-opacity="0.42" stroke-width="2" stroke-linejoin="round"/>
<rect x="1351" y="273" width="7" height="49" rx="1" fill="#4CD0B8" fill-opacity="0.61"/>
<rect x="530.5" y="273" width="7" height="49" rx="1" fill="#4CD0B8" fill-opacity="0.61"/>
<rect x="1361" y="273" width="7" height="49" rx="1" fill="#4CD0B8" fill-opacity="0.61"/>
<rect x="540.5" y="273" width="7" height="49" rx="1" fill="#4CD0B8" fill-opacity="0.61"/>
<rect x="1373" y="273" width="7" height="49" rx="1" fill="#4CD0B8" fill-opacity="0.61"/>
<rect x="552.5" y="273" width="7" height="49" rx="1" fill="#4CD0B8" fill-opacity="0.61"/>
<path d="M136.418 32.187V14.7325H147.241V16.9995H139.051V22.3177H146.466V24.5762H139.051V32.187H136.418ZM150.276 32.187V19.0961H152.824V32.187H150.276ZM151.562 17.0762C151.119 17.0762 150.739 16.9285 150.42 16.633C150.108 16.3319 149.952 15.9739 149.952 15.5592C149.952 15.1387 150.108 14.7808 150.42 14.4853C150.739 14.1842 151.119 14.0336 151.562 14.0336C152.006 14.0336 152.384 14.1842 152.696 14.4853C153.014 14.7808 153.173 15.1387 153.173 15.5592C153.173 15.9739 153.014 16.3319 152.696 16.633C152.384 16.9285 152.006 17.0762 151.562 17.0762ZM161.741 37.3688C160.701 37.3688 159.806 37.2325 159.056 36.9597C158.312 36.687 157.704 36.3262 157.232 35.8774C156.761 35.4285 156.408 34.937 156.175 34.4029L158.366 33.4995C158.519 33.7495 158.724 34.0137 158.979 34.2921C159.241 34.5762 159.593 34.8177 160.036 35.0166C160.485 35.2154 161.062 35.3149 161.766 35.3149C162.732 35.3149 163.531 35.0791 164.161 34.6075C164.792 34.1416 165.107 33.3972 165.107 32.3745V29.8006H164.945C164.792 30.0791 164.57 30.3887 164.281 30.7296C163.996 31.0705 163.604 31.366 163.104 31.616C162.604 31.866 161.954 31.991 161.153 31.991C160.119 31.991 159.187 31.7495 158.357 31.2666C157.533 30.7779 156.88 30.0592 156.397 29.1103C155.92 28.1558 155.681 26.9825 155.681 25.5904C155.681 24.1984 155.917 23.0052 156.388 22.0109C156.866 21.0166 157.519 20.2552 158.349 19.7268C159.178 19.1927 160.119 18.9256 161.17 18.9256C161.982 18.9256 162.638 19.062 163.138 19.3347C163.638 19.6018 164.028 19.9143 164.306 20.2722C164.59 20.6302 164.809 20.9455 164.962 21.2183H165.15V19.0961H167.647V32.4768C167.647 33.6018 167.386 34.5251 166.863 35.2467C166.34 35.9683 165.633 36.5024 164.741 36.8489C163.854 37.1955 162.854 37.3688 161.741 37.3688ZM161.715 29.8774C162.448 29.8774 163.067 29.7069 163.573 29.366C164.085 29.0194 164.471 28.5251 164.732 27.883C164.999 27.2353 165.133 26.4597 165.133 25.5563C165.133 24.6756 165.002 23.9001 164.741 23.2296C164.479 22.5592 164.096 22.0364 163.59 21.6614C163.085 21.2808 162.46 21.0904 161.715 21.0904C160.948 21.0904 160.309 21.2893 159.798 21.687C159.286 22.0791 158.9 22.6131 158.638 23.2893C158.383 23.9654 158.255 24.7211 158.255 25.5563C158.255 26.4143 158.386 27.1671 158.647 27.8149C158.908 28.4626 159.295 28.9683 159.806 29.3319C160.323 29.6955 160.96 29.8774 161.715 29.8774ZM172.744 32.3489C172.278 32.3489 171.877 32.1842 171.542 31.8546C171.207 31.5194 171.039 31.116 171.039 30.6444C171.039 30.1785 171.207 29.7808 171.542 29.4512C171.877 29.116 172.278 28.9484 172.744 28.9484C173.21 28.9484 173.61 29.116 173.945 29.4512C174.281 29.7808 174.448 30.1785 174.448 30.6444C174.448 30.9569 174.369 31.2438 174.21 31.5052C174.056 31.7609 173.852 31.9654 173.596 32.1188C173.34 32.2722 173.056 32.3489 172.744 32.3489ZM190.52 14.7325V32.187H187.878V17.3745H187.776L183.599 20.1018V17.5791L187.955 14.7325H190.52ZM199.085 32.4768C198.256 32.4768 197.506 32.3234 196.835 32.0166C196.165 31.7041 195.634 31.2524 195.241 30.6614C194.855 30.0705 194.662 29.3461 194.662 28.4881C194.662 27.7495 194.804 27.1416 195.088 26.6643C195.372 26.187 195.756 25.8092 196.239 25.5308C196.722 25.2524 197.261 25.0421 197.858 24.9001C198.455 24.758 199.063 24.6501 199.682 24.5762C200.466 24.4853 201.102 24.4114 201.591 24.3546C202.08 24.2921 202.435 24.1927 202.656 24.0563C202.878 23.92 202.989 23.6984 202.989 23.3916V23.3319C202.989 22.5876 202.778 22.0109 202.358 21.6018C201.943 21.1927 201.324 20.9881 200.5 20.9881C199.642 20.9881 198.966 21.1785 198.472 21.5592C197.983 21.9342 197.645 22.3518 197.457 22.812L195.062 22.2666C195.347 21.4711 195.761 20.8291 196.307 20.3404C196.858 19.8461 197.491 19.4881 198.207 19.2666C198.923 19.0393 199.676 18.9256 200.466 18.9256C200.989 18.9256 201.543 18.9881 202.128 19.1131C202.719 19.2325 203.27 19.4541 203.781 19.7779C204.298 20.1018 204.722 20.5649 205.051 21.1671C205.381 21.7637 205.545 22.5393 205.545 23.4938V32.187H203.057V30.3972H202.955C202.79 30.7268 202.543 31.0506 202.213 31.3688C201.884 31.687 201.46 31.9512 200.943 32.1614C200.426 32.3717 199.807 32.4768 199.085 32.4768ZM199.639 30.4313C200.344 30.4313 200.946 30.2921 201.446 30.0137C201.952 29.7353 202.335 29.3717 202.597 28.9228C202.864 28.4683 202.997 27.9825 202.997 27.4654V25.7779C202.906 25.8688 202.73 25.9541 202.469 26.0336C202.213 26.1075 201.92 26.1728 201.591 26.2296C201.261 26.2808 200.94 26.3291 200.628 26.3745C200.315 26.4143 200.054 26.4484 199.844 26.4768C199.349 26.5393 198.898 26.6444 198.489 26.7921C198.085 26.9399 197.761 27.1529 197.517 27.4313C197.278 27.7041 197.159 28.0677 197.159 28.5222C197.159 29.1529 197.392 29.6302 197.858 29.9541C198.324 30.2722 198.918 30.4313 199.639 30.4313Z" fill="#E3E3E3"/>
<path d="M954.417 32.187V14.7325H965.241V16.9995H957.051V22.3177H964.466V24.5762H957.051V32.187H954.417ZM968.275 32.187V19.0961H970.824V32.187H968.275ZM969.562 17.0762C969.119 17.0762 968.739 16.9285 968.42 16.633C968.108 16.3319 967.952 15.9739 967.952 15.5592C967.952 15.1387 968.108 14.7808 968.42 14.4853C968.739 14.1842 969.119 14.0336 969.562 14.0336C970.006 14.0336 970.383 14.1842 970.696 14.4853C971.014 14.7808 971.173 15.1387 971.173 15.5592C971.173 15.9739 971.014 16.3319 970.696 16.633C970.383 16.9285 970.006 17.0762 969.562 17.0762ZM979.741 37.3688C978.701 37.3688 977.806 37.2325 977.056 36.9597C976.312 36.687 975.704 36.3262 975.232 35.8774C974.761 35.4285 974.408 34.937 974.175 34.4029L976.366 33.4995C976.519 33.7495 976.724 34.0137 976.979 34.2921C977.241 34.5762 977.593 34.8177 978.036 35.0166C978.485 35.2154 979.062 35.3149 979.766 35.3149C980.732 35.3149 981.53 35.0791 982.161 34.6075C982.792 34.1416 983.107 33.3972 983.107 32.3745V29.8006H982.945C982.792 30.0791 982.57 30.3887 982.28 30.7296C981.996 31.0705 981.604 31.366 981.104 31.616C980.604 31.866 979.954 31.991 979.153 31.991C978.118 31.991 977.187 31.7495 976.357 31.2666C975.533 30.7779 974.88 30.0592 974.397 29.1103C973.92 28.1558 973.681 26.9825 973.681 25.5904C973.681 24.1984 973.917 23.0052 974.388 22.0109C974.866 21.0166 975.519 20.2552 976.349 19.7268C977.178 19.1927 978.118 18.9256 979.17 18.9256C979.982 18.9256 980.638 19.062 981.138 19.3347C981.638 19.6018 982.028 19.9143 982.306 20.2722C982.59 20.6302 982.809 20.9455 982.962 21.2183H983.15V19.0961H985.647V32.4768C985.647 33.6018 985.386 34.5251 984.863 35.2467C984.34 35.9683 983.633 36.5024 982.741 36.8489C981.854 37.1955 980.854 37.3688 979.741 37.3688ZM979.715 29.8774C980.448 29.8774 981.067 29.7069 981.573 29.366C982.084 29.0194 982.471 28.5251 982.732 27.883C982.999 27.2353 983.133 26.4597 983.133 25.5563C983.133 24.6756 983.002 23.9001 982.741 23.2296C982.479 22.5592 982.096 22.0364 981.59 21.6614C981.084 21.2808 980.459 21.0904 979.715 21.0904C978.948 21.0904 978.309 21.2893 977.797 21.687C977.286 22.0791 976.9 22.6131 976.638 23.2893C976.383 23.9654 976.255 24.7211 976.255 25.5563C976.255 26.4143 976.386 27.1671 976.647 27.8149C976.908 28.4626 977.295 28.9683 977.806 29.3319C978.323 29.6955 978.959 29.8774 979.715 29.8774ZM990.743 32.3489C990.278 32.3489 989.877 32.1842 989.542 31.8546C989.207 31.5194 989.039 31.116 989.039 30.6444C989.039 30.1785 989.207 29.7808 989.542 29.4512C989.877 29.116 990.278 28.9484 990.743 28.9484C991.209 28.9484 991.61 29.116 991.945 29.4512C992.28 29.7808 992.448 30.1785 992.448 30.6444C992.448 30.9569 992.368 31.2438 992.209 31.5052C992.056 31.7609 991.851 31.9654 991.596 32.1188C991.34 32.2722 991.056 32.3489 990.743 32.3489ZM1008.52 14.7325V32.187H1005.88V17.3745H1005.78L1001.6 20.1018V17.5791L1005.95 14.7325H1008.52ZM1013.48 32.187V14.7325H1016.03V21.2183H1016.18C1016.33 20.9455 1016.54 20.6302 1016.82 20.2722C1017.1 19.9143 1017.49 19.6018 1017.98 19.3347C1018.47 19.062 1019.13 18.9256 1019.94 18.9256C1021 18.9256 1021.94 19.1927 1022.77 19.7268C1023.6 20.2609 1024.25 21.0308 1024.72 22.0364C1025.2 23.0421 1025.44 24.2524 1025.44 25.6671C1025.44 27.0819 1025.2 28.295 1024.73 29.3063C1024.26 30.312 1023.61 31.0876 1022.79 31.633C1021.96 32.1728 1021.02 32.4427 1019.97 32.4427C1019.17 32.4427 1018.52 32.3092 1018.01 32.0421C1017.51 31.7751 1017.12 31.4626 1016.84 31.1046C1016.55 30.7467 1016.34 30.4285 1016.18 30.1501H1015.97V32.187H1013.48ZM1015.98 25.6416C1015.98 26.562 1016.11 27.3688 1016.38 28.062C1016.64 28.7552 1017.03 29.2978 1017.54 29.6899C1018.04 30.0762 1018.66 30.2694 1019.39 30.2694C1020.16 30.2694 1020.79 30.0677 1021.3 29.6643C1021.82 29.2552 1022.2 28.7012 1022.46 28.0024C1022.73 27.3035 1022.86 26.5166 1022.86 25.6416C1022.86 24.7779 1022.73 24.0024 1022.47 23.3149C1022.22 22.6274 1021.83 22.0847 1021.31 21.687C1020.8 21.2893 1020.16 21.0904 1019.39 21.0904C1018.66 21.0904 1018.03 21.2808 1017.52 21.6614C1017.01 22.0421 1016.63 22.5734 1016.37 23.2552C1016.11 23.937 1015.98 24.7325 1015.98 25.6416Z" fill="#E3E3E3"/>
<path d="M632.363 290.386C632.715 290.738 633.285 290.738 633.636 290.386L639.364 284.659C639.715 284.307 639.715 283.738 639.364 283.386C639.012 283.035 638.443 283.035 638.091 283.386L633 288.477L627.909 283.386C627.557 283.035 626.987 283.035 626.636 283.386C626.284 283.738 626.284 284.307 626.636 284.659L632.363 290.386ZM633.9 289.75L633.9 262.75L632.1 262.75L632.1 289.75L633.9 289.75Z" fill="white"/>
<path d="M633.636 305.364C633.285 305.012 632.715 305.012 632.363 305.364L626.636 311.091C626.284 311.443 626.284 312.012 626.636 312.364C626.987 312.715 627.557 312.715 627.909 312.364L633 307.273L638.091 312.364C638.443 312.715 639.012 312.715 639.364 312.364C639.715 312.012 639.715 311.443 639.364 311.091L633.636 305.364ZM632.1 306L632.1 333L633.9 333L633.9 306L632.1 306Z" fill="white"/>
<path d="M411.293 375.105C410.902 375.496 410.902 376.129 411.293 376.52L417.657 382.884C418.047 383.274 418.681 383.274 419.071 382.884C419.462 382.493 419.462 381.86 419.071 381.469L413.414 375.812L419.071 370.156C419.462 369.765 419.462 369.132 419.071 368.741C418.681 368.351 418.047 368.351 417.657 368.741L411.293 375.105ZM573.207 376.52C573.598 376.129 573.598 375.496 573.207 375.105L566.843 368.741C566.453 368.351 565.819 368.351 565.429 368.741C565.038 369.132 565.038 369.765 565.429 370.156L571.086 375.812L565.429 381.469C565.038 381.86 565.038 382.493 565.429 382.884C565.819 383.274 566.453 383.274 566.843 382.884L573.207 376.52ZM412 376.812H572.5V374.812H412V376.812Z" fill="#C2C2C2"/>
<path d="M572.5 375.812V284.812" stroke="#444444" stroke-opacity="0.32" stroke-width="2" stroke-dasharray="4 4"/>
<path d="M412 378V287" stroke="white" stroke-opacity="0.25" stroke-width="2" stroke-dasharray="4 4"/>
<path d="M631.274 245.854C631.274 245.481 631.441 245.143 631.775 244.838C632.109 244.533 632.469 244.372 632.856 244.355C633.19 244.355 633.489 244.508 633.753 244.813C634.016 245.117 634.148 245.633 634.148 246.361C634.148 246.869 634.043 247.597 633.832 248.545C633.621 249.493 633.296 250.534 632.856 251.668C632.416 252.802 631.783 253.793 630.957 254.639C630.131 255.485 629.199 255.9 628.162 255.883C626.755 255.883 625.788 255.231 625.26 253.928C625.243 253.894 625.181 253.936 625.076 254.055C624.038 255.274 622.852 255.883 621.515 255.883C619.581 255.883 618.614 254.614 618.614 252.074C618.614 250.534 618.975 248.96 619.696 247.352C620.417 245.744 621.006 244.821 621.463 244.584C621.674 244.465 621.885 244.449 622.096 244.533C622.324 244.652 622.438 244.804 622.438 244.99C622.438 245.193 622.263 245.523 621.911 245.981C621.559 246.438 621.155 247.055 620.698 247.834C620.241 248.613 619.959 249.442 619.854 250.322C619.836 250.424 619.827 250.602 619.827 250.856C619.827 251.922 620.038 252.658 620.46 253.065C620.882 253.471 621.392 253.674 621.99 253.674C623.01 253.674 623.907 253.225 624.68 252.328L624.891 252.125V251.643C624.979 249.256 625.542 248.063 626.579 248.063C627.124 248.063 627.397 248.367 627.397 248.977C627.397 249.281 627.309 249.688 627.133 250.195C626.957 250.703 626.781 251.169 626.605 251.592L626.342 252.176C626.359 252.21 626.377 252.261 626.394 252.328C626.412 252.396 626.482 252.515 626.605 252.684C626.729 252.853 626.869 253.005 627.027 253.141C627.186 253.276 627.397 253.395 627.66 253.496C627.924 253.598 628.232 253.657 628.583 253.674C629.691 253.674 630.641 253.065 631.432 251.846C632.223 250.627 632.619 249.561 632.619 248.647C632.619 248.122 632.504 247.69 632.276 247.352C632.047 247.013 631.827 246.742 631.616 246.539C631.405 246.336 631.291 246.107 631.274 245.854Z" fill="white"/>
<path d="M636.413 248.911C637.109 247.941 638.06 247.457 639.266 247.457C639.863 247.457 640.459 247.612 641.056 247.923C641.653 248.235 642.137 248.785 642.51 249.575C642.97 250.568 643.2 251.933 643.2 253.668C643.2 255.523 642.933 256.941 642.398 257.922C642.15 258.425 641.808 258.826 641.373 259.125C640.938 259.424 640.559 259.61 640.235 259.682C639.912 259.754 639.595 259.795 639.285 259.807C638.961 259.807 638.638 259.772 638.315 259.7C637.992 259.628 637.613 259.436 637.178 259.125C636.742 258.814 636.401 258.413 636.152 257.922C635.617 256.941 635.35 255.523 635.35 253.668C635.35 251.586 635.704 250 636.413 248.911ZM640.608 248.695C640.235 248.312 639.794 248.121 639.285 248.121C638.762 248.121 638.315 248.312 637.942 248.695C637.631 249.007 637.426 249.437 637.327 249.988C637.227 250.538 637.178 251.687 637.178 253.435C637.178 255.325 637.227 256.57 637.327 257.169C637.426 257.767 637.65 258.24 637.998 258.587C638.346 258.946 638.775 259.125 639.285 259.125C639.782 259.125 640.204 258.946 640.552 258.587C640.913 258.228 641.137 257.725 641.224 257.079C641.311 256.433 641.36 255.218 641.373 253.435C641.373 251.699 641.323 250.556 641.224 250.006C641.124 249.455 640.919 249.019 640.608 248.695Z" fill="white"/>
<g clip-path="url(#clip0_16_17)">
<path d="M580.862 388.625C580.905 388.625 580.971 388.646 581.058 388.689C581.145 388.731 581.265 388.763 581.418 388.784C581.571 388.805 581.702 388.816 581.811 388.816C582.094 388.816 582.356 388.678 582.596 388.402C582.836 388.126 583.011 387.818 583.12 387.478C583.338 386.905 583.709 385.28 584.233 382.604C584.756 379.928 585.258 377.38 585.738 374.958C586.218 372.537 586.458 371.316 586.458 371.295V371.199H584.92C583.894 371.199 583.349 371.178 583.284 371.136C583.196 371.072 583.153 370.966 583.153 370.817L583.382 369.925C583.425 369.819 583.513 369.766 583.644 369.766C583.774 369.766 584.287 369.755 585.182 369.734C586.229 369.734 586.753 369.723 586.753 369.702C586.753 369.66 586.851 369.129 587.047 368.109C587.244 367.09 587.374 366.474 587.44 366.262C588.247 362.757 589.84 361.005 592.218 361.005C593.025 361.048 593.691 361.281 594.214 361.706C594.738 362.131 595 362.694 595 363.394C595 364.159 594.771 364.711 594.313 365.051C593.854 365.391 593.396 365.571 592.938 365.593C591.978 365.593 591.498 365.147 591.498 364.255C591.498 363.851 591.618 363.501 591.858 363.203C592.098 362.906 592.36 362.683 592.644 362.534L592.938 362.375C592.589 362.248 592.262 362.184 591.956 362.184C591.694 362.184 591.444 362.29 591.204 362.503C590.964 362.715 590.8 363.012 590.713 363.394C590.56 364.01 590.385 364.839 590.189 365.879C589.993 366.92 589.818 367.801 589.665 368.523C589.513 369.245 589.436 369.628 589.436 369.67C589.436 369.713 590.036 369.734 591.236 369.734C592.218 369.734 592.785 369.745 592.938 369.766C593.091 369.787 593.211 369.851 593.298 369.957C593.32 370.042 593.298 370.222 593.233 370.499C593.167 370.775 593.113 370.945 593.069 371.008C593.025 371.114 592.927 371.168 592.774 371.168C592.622 371.168 592.033 371.178 591.007 371.199H589.174L588.422 375.086C587.374 380.353 586.644 383.645 586.229 384.961C585.64 386.767 584.876 388.105 583.938 388.975C583.131 389.655 582.334 389.995 581.549 389.995C580.851 389.995 580.218 389.793 579.651 389.389C579.084 388.986 578.8 388.413 578.8 387.669C578.8 386.883 579.029 386.31 579.487 385.949C579.945 385.588 580.404 385.407 580.862 385.407C581.822 385.407 582.302 385.853 582.302 386.745C582.302 387.149 582.182 387.499 581.942 387.797C581.702 388.094 581.44 388.317 581.156 388.466L580.862 388.625Z" fill="white"/>
</g>
<defs>
<filter id="filter0_f_16_17" x="1177" y="278.812" width="303" height="35.375" filterUnits="userSpaceOnUse" color-interpolation-filters="sRGB">
<feFlood flood-opacity="0" result="BackgroundImageFix"/>
<feBlend mode="normal" in="SourceGraphic" in2="BackgroundImageFix" result="shape"/>
<feGaussianBlur stdDeviation="3" result="effect1_foregroundBlur_16_17"/>
</filter>
<filter id="filter1_f_16_17" x="407.5" y="278.812" width="451" height="35.375" filterUnits="userSpaceOnUse" color-interpolation-filters="sRGB">
<feFlood flood-opacity="0" result="BackgroundImageFix"/>
<feBlend mode="normal" in="SourceGraphic" in2="BackgroundImageFix" result="shape"/>
<feGaussianBlur stdDeviation="3" result="effect1_foregroundBlur_16_17"/>
</filter>
<filter id="filter2_f_16_17" x="678.5" y="132" width="260" height="302" filterUnits="userSpaceOnUse" color-interpolation-filters="sRGB">
<feFlood flood-opacity="0" result="BackgroundImageFix"/>
<feBlend mode="normal" in="SourceGraphic" in2="BackgroundImageFix" result="shape"/>
<feGaussianBlur stdDeviation="10" result="effect1_foregroundBlur_16_17"/>
</filter>
<filter id="filter3_f_16_17" x="1417.25" y="132" width="92.75" height="302" filterUnits="userSpaceOnUse" color-interpolation-filters="sRGB">
<feFlood flood-opacity="0" result="BackgroundImageFix"/>
<feBlend mode="normal" in="SourceGraphic" in2="BackgroundImageFix" result="shape"/>
<feGaussianBlur stdDeviation="10" result="effect1_foregroundBlur_16_17"/>
</filter>
<filter id="filter4_f_16_17" x="0.755737" y="117.875" width="222.744" height="263" filterUnits="userSpaceOnUse" color-interpolation-filters="sRGB">
<feFlood flood-opacity="0" result="BackgroundImageFix"/>
<feBlend mode="normal" in="SourceGraphic" in2="BackgroundImageFix" result="shape"/>
<feGaussianBlur stdDeviation="16" result="effect1_foregroundBlur_16_17"/>
</filter>
<clipPath id="clip0_16_17">
<rect width="18" height="29" fill="white" transform="translate(577 361)"/>
</clipPath>
</defs>
</svg>
