<svg width="981" height="186" viewBox="0 0 981 186" fill="none" xmlns="http://www.w3.org/2000/svg">
<path fill-rule="evenodd" clip-rule="evenodd" d="M420.656 68.75C420.656 67.6454 421.551 66.75 422.656 66.75C423.242 66.75 423.879 66.9151 424.442 67.113C425.048 67.3263 425.735 67.6372 426.462 68.0468C427.918 68.8669 429.603 70.1192 431.206 71.8866C434.439 75.4523 437.278 81.0548 437.278 89.25C437.278 97.4374 434.385 103.722 431.235 107.962C429.665 110.077 428.02 111.699 426.614 112.811C425.913 113.365 425.248 113.811 424.657 114.131C424.362 114.29 424.06 114.432 423.763 114.538C423.495 114.634 423.099 114.75 422.656 114.75C421.551 114.75 420.656 113.855 420.656 112.75V68.75ZM424.656 111.777C423.731 112.423 423.011 112.75 422.656 112.75V68.75C423.047 68.75 423.76 68.9418 424.656 69.363C428.385 71.1162 435.278 76.8436 435.278 89.25C435.278 101.549 428.342 109.202 424.656 111.777ZM422.386 110.781C422.386 110.781 422.391 110.78 422.401 110.777C422.39 110.78 422.386 110.782 422.386 110.781Z" fill="white"/>
<path fill-rule="evenodd" clip-rule="evenodd" d="M743.219 68.6875C743.219 67.5829 744.114 66.6875 745.219 66.6875C745.805 66.6875 746.441 66.8526 747.004 67.0505C747.611 67.2638 748.297 67.5747 749.024 67.9843C750.48 68.8044 752.166 70.0567 753.769 71.8241C757.002 75.3898 759.841 80.9923 759.841 89.1875C759.841 97.3749 756.947 103.659 753.798 107.9C752.227 110.015 750.583 111.637 749.177 112.748C748.476 113.302 747.81 113.749 747.22 114.068C746.925 114.227 746.623 114.369 746.325 114.476C746.057 114.572 745.662 114.688 745.219 114.688C744.114 114.688 743.219 113.792 743.219 112.688V68.6875ZM747.219 111.714C746.294 112.361 745.573 112.688 745.219 112.688V68.6875C745.61 68.6875 746.323 68.8793 747.219 69.3005C750.947 71.0537 757.841 76.7811 757.841 89.1875C757.841 101.487 750.904 109.139 747.219 111.714ZM744.948 110.719C744.948 110.719 744.954 110.717 744.963 110.715C744.953 110.718 744.948 110.719 744.948 110.719Z" fill="white"/>
<rect x="389.203" y="68" width="7" height="46" fill="#4CD0B8" fill-opacity="0.61"/>
<rect x="61.8594" y="68" width="7" height="46" fill="#4CD0B8" fill-opacity="0.61"/>
<rect x="874.703" y="68" width="7" height="46" fill="#4CD0B8" fill-opacity="0.61"/>
<rect x="401.203" y="68" width="7" height="46" fill="#4CD0B8" fill-opacity="0.61"/>
<rect x="73.8594" y="68" width="7" height="46" fill="#4CD0B8" fill-opacity="0.61"/>
<rect x="886.703" y="68" width="7" height="46" fill="#4CD0B8" fill-opacity="0.61"/>
<rect x="413.203" y="68" width="7" height="46" fill="#4CD0B8" fill-opacity="0.61"/>
<rect x="85.8594" y="68" width="7" height="46" fill="#4CD0B8" fill-opacity="0.61"/>
<rect x="898.703" y="68" width="7" height="46" fill="#4CD0B8" fill-opacity="0.61"/>
<ellipse cx="359.016" cy="92.5" rx="6.8125" ry="11.6875" fill="#754600"/>
<path d="M359.167 99.25L356.099 99.25C355.719 99.25 355.411 98.7463 355.411 98.125C355.411 97.5037 355.719 97 356.099 97L361.932 97C362.312 97 362.62 96.4963 362.62 95.875C362.62 95.2537 362.312 94.75 361.932 94.75L356.099 94.75C355.719 94.75 355.411 94.2463 355.411 93.625C355.411 93.0037 355.719 92.5 356.099 92.5L361.932 92.5C362.312 92.5 362.62 91.9963 362.62 91.375C362.62 90.7537 362.312 90.25 361.932 90.25L356.099 90.25C355.719 90.25 355.411 89.7463 355.411 89.125C355.411 88.5037 355.719 88 356.099 88L361.932 88C362.312 88 362.62 87.4963 362.62 86.875C362.62 86.2537 362.312 85.75 361.932 85.75L359.167 85.75" stroke="#383838" stroke-width="2"/>
<ellipse cx="31.6719" cy="92.5" rx="6.8125" ry="11.6875" fill="#754600"/>
<path fill-rule="evenodd" clip-rule="evenodd" d="M34.2668 86.75L31.8228 86.75L31.8228 84.75L34.5884 84.75C35.2584 84.75 35.7031 85.1902 35.9279 85.5579C36.1632 85.9428 36.2761 86.4109 36.2761 86.875C36.2761 87.3391 36.1632 87.8072 35.9279 88.1921C35.7031 88.5598 35.2584 89 34.5884 89L29.077 89C29.0714 89.0358 29.0676 89.0775 29.0676 89.125C29.0676 89.1725 29.0714 89.2142 29.077 89.25L34.5884 89.25C35.2584 89.25 35.7031 89.6902 35.9279 90.0579C36.1632 90.4428 36.2761 90.9109 36.2761 91.375C36.2761 91.8391 36.1632 92.3072 35.9279 92.6921C35.7031 93.0598 35.2584 93.5 34.5884 93.5L29.077 93.5C29.0714 93.5358 29.0676 93.5775 29.0676 93.625C29.0676 93.6725 29.0714 93.7142 29.077 93.75L34.5884 93.75C35.2584 93.75 35.7031 94.1902 35.9279 94.5579C36.1632 94.9428 36.2761 95.4109 36.2761 95.875C36.2761 96.3391 36.1632 96.8072 35.9279 97.1921C35.7031 97.5598 35.2584 98 34.5884 98L29.077 98C29.0714 98.0358 29.0676 98.0775 29.0676 98.125C29.0676 98.1725 29.0714 98.2142 29.077 98.25L31.8228 98.25L31.8228 100.25L28.7553 100.25C28.0854 100.25 27.6406 99.8098 27.4158 99.4421C27.1806 99.0572 27.0676 98.5891 27.0676 98.125C27.0676 97.6609 27.1806 97.1928 27.4158 96.8079C27.6406 96.4402 28.0854 96 28.7553 96L34.2668 96C34.2724 95.9642 34.2761 95.9225 34.2761 95.875C34.2761 95.8275 34.2724 95.7858 34.2668 95.75L28.7553 95.75C28.0854 95.75 27.6406 95.3098 27.4158 94.9421C27.1806 94.5572 27.0676 94.0891 27.0676 93.625C27.0676 93.1609 27.1806 92.6928 27.4158 92.3079C27.6406 91.9402 28.0854 91.5 28.7553 91.5L34.2668 91.5C34.2724 91.4642 34.2761 91.4225 34.2761 91.375C34.2761 91.3275 34.2724 91.2858 34.2668 91.25L28.7553 91.25C28.0854 91.25 27.6406 90.8098 27.4158 90.4421C27.1806 90.0572 27.0676 89.5891 27.0676 89.125C27.0676 88.6609 27.1806 88.1928 27.4158 87.8079C27.6406 87.4402 28.0854 87 28.7553 87L34.2668 87C34.2724 86.9642 34.2761 86.9225 34.2761 86.875C34.2761 86.8275 34.2724 86.7858 34.2668 86.75Z" fill="#383838"/>
<ellipse cx="681.578" cy="92.5" rx="6.8125" ry="11.6875" fill="#754600"/>
<path fill-rule="evenodd" clip-rule="evenodd" d="M684.173 86.75L681.729 86.75L681.729 84.75L684.495 84.75C685.165 84.75 685.609 85.1902 685.834 85.5579C686.069 85.9428 686.182 86.4109 686.182 86.875C686.182 87.3391 686.069 87.8072 685.834 88.1921C685.609 88.5598 685.165 89 684.495 89L678.983 89C678.978 89.0358 678.974 89.0775 678.974 89.125C678.974 89.1725 678.978 89.2142 678.983 89.25L684.495 89.25C685.165 89.25 685.609 89.6902 685.834 90.0579C686.069 90.4428 686.182 90.9109 686.182 91.375C686.182 91.8391 686.069 92.3072 685.834 92.6921C685.609 93.0598 685.165 93.5 684.495 93.5L678.983 93.5C678.978 93.5358 678.974 93.5775 678.974 93.625C678.974 93.6725 678.978 93.7142 678.983 93.75L684.495 93.75C685.165 93.75 685.609 94.1902 685.834 94.5579C686.069 94.9428 686.182 95.4109 686.182 95.875C686.182 96.3391 686.069 96.8072 685.834 97.1921C685.609 97.5598 685.165 98 684.495 98L678.983 98C678.978 98.0358 678.974 98.0775 678.974 98.125C678.974 98.1725 678.978 98.2142 678.983 98.25L681.729 98.25L681.729 100.25L678.662 100.25C677.992 100.25 677.547 99.8098 677.322 99.4421C677.087 99.0572 676.974 98.5891 676.974 98.125C676.974 97.6609 677.087 97.1928 677.322 96.8079C677.547 96.4402 677.992 96 678.662 96L684.173 96C684.179 95.9642 684.182 95.9225 684.182 95.875C684.182 95.8275 684.179 95.7858 684.173 95.75L678.662 95.75C677.992 95.75 677.547 95.3098 677.322 94.9421C677.087 94.5572 676.974 94.0891 676.974 93.625C676.974 93.1609 677.087 92.6928 677.322 92.3079C677.547 91.9402 677.992 91.5 678.662 91.5L684.173 91.5C684.179 91.4642 684.182 91.4225 684.182 91.375C684.182 91.3275 684.179 91.2858 684.173 91.25L678.662 91.25C677.992 91.25 677.547 90.8098 677.322 90.4421C677.087 90.0572 676.974 89.5891 676.974 89.125C676.974 88.6609 677.087 88.1928 677.322 87.8079C677.547 87.4402 677.992 87 678.662 87L684.173 87C684.179 86.9642 684.182 86.9225 684.182 86.875C684.182 86.8275 684.179 86.7858 684.173 86.75Z" fill="#383838"/>
<path d="M2.03693 43.687V32.7779H4.16051V43.687H2.03693ZM3.10938 31.0947C2.74006 31.0947 2.42282 30.9716 2.15767 30.7254C1.89725 30.4744 1.76705 30.1761 1.76705 29.8305C1.76705 29.4801 1.89725 29.1818 2.15767 28.9356C2.42282 28.6846 2.74006 28.5592 3.10938 28.5592C3.47869 28.5592 3.79356 28.6846 4.05398 28.9356C4.31913 29.1818 4.4517 29.4801 4.4517 29.8305C4.4517 30.1761 4.31913 30.4744 4.05398 30.7254C3.79356 30.9716 3.47869 31.0947 3.10938 31.0947ZM11.7848 37.6501C11.7848 39.4351 11.5504 41.0757 11.0817 42.572C10.6129 44.0682 9.92874 45.4484 9.02912 46.7126H7.0831C7.43348 46.2438 7.76018 45.6685 8.06321 44.9867C8.36624 44.3049 8.63139 43.5592 8.85866 42.7495C9.08594 41.9351 9.26349 41.0923 9.39134 40.2211C9.51918 39.3499 9.5831 38.4929 9.5831 37.6501C9.5831 36.5279 9.47183 35.3892 9.24929 34.2339C9.02675 33.0786 8.72609 32.0061 8.3473 31.0166C7.96851 30.027 7.54711 29.2197 7.0831 28.5947H9.02912C9.92874 29.8589 10.6129 31.2391 11.0817 32.7353C11.5504 34.2315 11.7848 35.8698 11.7848 37.6501Z" fill="white"/>
<path d="M324.896 43.687V32.7779H327.02V43.687H324.896ZM325.969 31.0947C325.599 31.0947 325.282 30.9716 325.017 30.7254C324.757 30.4744 324.626 30.1761 324.626 29.8305C324.626 29.4801 324.757 29.1818 325.017 28.9356C325.282 28.6846 325.599 28.5592 325.969 28.5592C326.338 28.5592 326.653 28.6846 326.913 28.9356C327.179 29.1818 327.311 29.4801 327.311 29.8305C327.311 30.1761 327.179 30.4744 326.913 30.7254C326.653 30.9716 326.338 31.0947 325.969 31.0947ZM329.877 43.687V32.7779H332V43.687H329.877ZM330.949 31.0947C330.58 31.0947 330.263 30.9716 329.998 30.7254C329.737 30.4744 329.607 30.1761 329.607 29.8305C329.607 29.4801 329.737 29.1818 329.998 28.9356C330.263 28.6846 330.58 28.5592 330.949 28.5592C331.319 28.5592 331.633 28.6846 331.894 28.9356C332.159 29.1818 332.292 29.4801 332.292 29.8305C332.292 30.1761 332.159 30.4744 331.894 30.7254C331.633 30.9716 331.319 31.0947 330.949 31.0947ZM339.625 37.6501C339.625 39.4351 339.39 41.0757 338.922 42.572C338.453 44.0682 337.769 45.4484 336.869 46.7126H334.923C335.273 46.2438 335.6 45.6685 335.903 44.9867C336.206 44.3049 336.471 43.5592 336.699 42.7495C336.926 41.9351 337.103 41.0923 337.231 40.2211C337.359 39.3499 337.423 38.4929 337.423 37.6501C337.423 36.5279 337.312 35.3892 337.089 34.2339C336.867 33.0786 336.566 32.0061 336.187 31.0166C335.808 30.027 335.387 29.2197 334.923 28.5947H336.869C337.769 29.8589 338.453 31.2391 338.922 32.7353C339.39 34.2315 339.625 35.8698 339.625 37.6501Z" fill="white"/>
<path d="M658.901 43.687V32.7779H661.025V43.687H658.901ZM659.974 31.0947C659.605 31.0947 659.287 30.9716 659.022 30.7254C658.762 30.4744 658.632 30.1761 658.632 29.8305C658.632 29.4801 658.762 29.1818 659.022 28.9356C659.287 28.6846 659.605 28.5592 659.974 28.5592C660.343 28.5592 660.658 28.6846 660.918 28.9356C661.184 29.1818 661.316 29.4801 661.316 29.8305C661.316 30.1761 661.184 30.4744 660.918 30.7254C660.658 30.9716 660.343 31.0947 659.974 31.0947ZM663.882 43.687V32.7779H666.005V43.687H663.882ZM664.954 31.0947C664.585 31.0947 664.268 30.9716 664.003 30.7254C663.742 30.4744 663.612 30.1761 663.612 29.8305C663.612 29.4801 663.742 29.1818 664.003 28.9356C664.268 28.6846 664.585 28.5592 664.954 28.5592C665.324 28.5592 665.639 28.6846 665.899 28.9356C666.164 29.1818 666.297 29.4801 666.297 29.8305C666.297 30.1761 666.164 30.4744 665.899 30.7254C665.639 30.9716 665.324 31.0947 664.954 31.0947ZM668.862 43.687V32.7779H670.986V43.687H668.862ZM669.935 31.0947C669.565 31.0947 669.248 30.9716 668.983 30.7254C668.723 30.4744 668.592 30.1761 668.592 29.8305C668.592 29.4801 668.723 29.1818 668.983 28.9356C669.248 28.6846 669.565 28.5592 669.935 28.5592C670.304 28.5592 670.619 28.6846 670.879 28.9356C671.145 29.1818 671.277 29.4801 671.277 29.8305C671.277 30.1761 671.145 30.4744 670.879 30.7254C670.619 30.9716 670.304 31.0947 669.935 31.0947ZM678.61 37.6501C678.61 39.4351 678.376 41.0757 677.907 42.572C677.438 44.0682 676.754 45.4484 675.855 46.7126H673.909C674.259 46.2438 674.586 45.6685 674.889 44.9867C675.192 44.3049 675.457 43.5592 675.684 42.7495C675.911 41.9351 676.089 41.0923 676.217 40.2211C676.345 39.3499 676.409 38.4929 676.409 37.6501C676.409 36.5279 676.297 35.3892 676.075 34.2339C675.852 33.0786 675.552 32.0061 675.173 31.0166C674.794 30.027 674.373 29.2197 673.909 28.5947H675.855C676.754 29.8589 677.438 31.2391 677.907 32.7353C678.376 34.2315 678.61 35.8698 678.61 37.6501Z" fill="white"/>
<path d="M56.5001 114.5H157.25" stroke="#818181" stroke-opacity="0.44" stroke-dasharray="2 2"/>
<path d="M30.8751 89.5L30.8751 164.875" stroke="#818181" stroke-opacity="0.28" stroke-dasharray="2 2"/>
<path d="M56.5001 68H157.25" stroke="#818181" stroke-opacity="0.44" stroke-dasharray="2 2"/>
<path d="M126.755 68.245C127.029 68.5183 127.472 68.5183 127.745 68.245L132.2 63.7902C132.473 63.5168 132.473 63.0736 132.2 62.8003C131.927 62.5269 131.483 62.5269 131.21 62.8003L127.25 66.7601L123.29 62.8003C123.017 62.5269 122.574 62.5269 122.3 62.8003C122.027 63.0736 122.027 63.5168 122.3 63.7902L126.755 68.245ZM127.95 67.75L127.95 40.75L126.55 40.75L126.55 67.75L127.95 67.75Z" fill="white"/>
<path d="M127.745 114.005C127.472 113.732 127.029 113.732 126.755 114.005L122.3 118.46C122.027 118.733 122.027 119.176 122.3 119.45C122.574 119.723 123.017 119.723 123.29 119.45L127.25 115.49L131.21 119.45C131.483 119.723 131.927 119.723 132.2 119.45C132.473 119.176 132.473 118.733 132.2 118.46L127.745 114.005ZM126.55 114.5L126.55 141.5L127.95 141.5L127.95 114.5L126.55 114.5Z" fill="white"/>
<path d="M30.3801 160.005C30.1068 160.278 30.1068 160.722 30.3801 160.995L34.8349 165.45C35.1083 165.723 35.5515 165.723 35.8249 165.45C36.0982 165.176 36.0982 164.733 35.8249 164.46L31.8651 160.5L35.8249 156.54C36.0982 156.267 36.0982 155.824 35.8249 155.55C35.5515 155.277 35.1083 155.277 34.8349 155.55L30.3801 160.005ZM91.9951 160.995C92.2685 160.722 92.2685 160.278 91.9951 160.005L87.5403 155.55C87.267 155.277 86.8237 155.277 86.5504 155.55C86.277 155.824 86.277 156.267 86.5504 156.54L90.5102 160.5L86.5504 164.46C86.277 164.733 86.277 165.176 86.5504 165.45C86.8237 165.723 87.267 165.723 87.5403 165.45L91.9951 160.995ZM30.8751 161.2H91.5001V159.8H30.8751V161.2Z" fill="white"/>
<path d="M131.966 18.3019C131.983 18.3019 132.63 18.257 133.904 18.1671C135.178 18.0772 135.833 18.0232 135.869 18.0052C136.085 18.0052 136.192 18.0772 136.192 18.221C136.192 18.3469 135.537 21.0623 134.227 26.3671C132.917 31.6719 132.244 34.3783 132.208 34.4862C132.172 34.5941 132.163 34.729 132.181 34.8908C132.181 35.6461 132.432 36.0237 132.935 36.0237C133.096 36.0057 133.276 35.9248 133.473 35.7809C133.85 35.4213 134.218 34.5581 134.577 33.1915C134.685 32.8318 134.774 32.643 134.846 32.625C134.882 32.607 134.972 32.598 135.116 32.598H135.223H135.331C135.6 32.598 135.735 32.67 135.735 32.8138C135.735 32.9037 135.708 33.0476 135.654 33.2454C135.421 34.1445 135.151 34.8728 134.846 35.4303C134.541 35.9877 134.29 36.3474 134.092 36.5092C133.895 36.6711 133.644 36.8149 133.339 36.9408C133.195 36.9768 132.98 36.9948 132.692 36.9948C132.082 36.9948 131.571 36.8599 131.158 36.5902C130.745 36.3204 130.476 36.0417 130.35 35.754L130.189 35.3494C130.171 35.3314 130.135 35.3404 130.081 35.3763C130.045 35.4123 130.009 35.4483 129.973 35.4842C128.914 36.4913 127.837 36.9948 126.742 36.9948C125.755 36.9948 124.885 36.6351 124.131 35.9158C123.377 35.1965 123 34.0546 123 32.4901C123 31.627 123.18 30.7458 123.539 29.8467C123.898 28.9476 124.328 28.1743 124.831 27.527C125.674 26.502 126.518 25.7917 127.362 25.396C128.205 25.0004 128.968 24.8026 129.65 24.8026C130.655 24.8026 131.409 25.1802 131.912 25.9355C132.001 26.0434 132.046 26.0794 132.046 26.0434C132.064 25.9715 132.307 24.9914 132.773 23.1033C133.24 21.2151 133.491 20.2171 133.527 20.1092C133.527 19.8754 133.464 19.7315 133.339 19.6776C133.213 19.6237 132.863 19.5787 132.289 19.5427H131.723C131.616 19.4348 131.562 19.3629 131.562 19.3269C131.562 19.291 131.58 19.1201 131.616 18.8144C131.705 18.4728 131.822 18.3019 131.966 18.3019ZM131.589 27.9316C131.176 26.511 130.503 25.8006 129.569 25.8006C128.941 25.8006 128.34 26.0794 127.766 26.6368C127.191 27.1943 126.742 27.9226 126.419 28.8217C125.899 30.2423 125.531 31.7169 125.316 33.2454C125.316 33.2994 125.316 33.3983 125.316 33.5421C125.316 33.686 125.307 33.7939 125.289 33.8658C125.289 34.675 125.45 35.2325 125.773 35.5382C126.096 35.8439 126.482 36.0057 126.931 36.0237C127.9 36.0237 128.896 35.3763 129.919 34.0816L130.135 33.7849L131.589 27.9316Z" fill="white"/>
<path d="M58.3189 184.111C58.3189 184.704 58.6265 185 59.2418 185C60.1523 185 60.9274 184.057 61.5673 182.171C61.7149 181.812 61.838 181.624 61.9364 181.606C61.9856 181.588 62.1086 181.579 62.3055 181.579H62.4532C62.6746 181.579 62.8223 181.579 62.8961 181.579C62.9699 181.579 63.0315 181.597 63.0807 181.633C63.1299 181.668 63.1545 181.731 63.1545 181.821C63.1299 181.929 63.093 182.073 63.0438 182.252C62.9946 182.432 62.8592 182.773 62.6377 183.276C62.4163 183.779 62.1702 184.201 61.8995 184.542C61.6288 184.884 61.2474 185.216 60.7552 185.539C60.263 185.862 59.697 186.015 59.0572 185.997C58.1713 185.997 57.3469 185.8 56.584 185.404C55.8212 185.009 55.4274 184.345 55.4028 183.411C55.4028 183.195 55.4151 183.043 55.4397 182.953L57.8391 176.002C59.3894 171.421 60.1646 169.059 60.1646 168.916C60.1646 168.862 60.1523 168.817 60.1277 168.781C60.1031 168.745 60.0538 168.709 59.98 168.673C59.9062 168.637 59.8447 168.619 59.7955 168.619C59.7462 168.619 59.6478 168.61 59.5001 168.592C59.3525 168.574 59.2541 168.565 59.2048 168.565C59.1556 168.565 59.0449 168.556 58.8726 168.539C58.7004 168.521 58.5773 168.521 58.5035 168.539C58.2574 168.539 58.0975 168.539 58.0236 168.539C57.9498 168.539 57.8514 168.53 57.7283 168.512C57.6053 168.494 57.5315 168.467 57.5069 168.431C57.4823 168.395 57.4699 168.341 57.4699 168.269C57.4699 168.233 57.4946 168.107 57.5438 167.892C57.6668 167.551 57.8022 167.362 57.9498 167.326C58.0975 167.29 58.9834 167.236 60.6075 167.164C60.9767 167.146 61.395 167.129 61.8626 167.111C62.3301 167.093 62.6993 167.066 62.9699 167.03C63.2406 166.994 63.376 166.985 63.376 167.003C63.6713 167.003 63.8189 167.075 63.8189 167.218C63.8189 167.416 62.9207 170.11 61.1243 175.301C59.3279 180.492 58.4051 183.213 58.3559 183.465C58.3559 183.501 58.3559 183.572 58.3559 183.68C58.3559 183.788 58.3435 183.878 58.3189 183.95V184.111Z" fill="white"/>
<mask id="mask0_208_49" style="mask-type:alpha" maskUnits="userSpaceOnUse" x="876" y="0" width="29" height="68">
<path d="M902.203 68V0" stroke="white" stroke-width="4"/>
<path d="M890.203 68V0" stroke="#A4A4A4" stroke-width="4"/>
<path d="M878.203 68V0" stroke="#A4A4A4" stroke-width="4"/>
</mask>
<g mask="url(#mask0_208_49)">
<g filter="url(#filter0_f_208_49)">
<rect x="843" y="47" width="102" height="94" fill="#D9D9D9"/>
</g>
</g>
<mask id="mask1_208_49" style="mask-type:alpha" maskUnits="userSpaceOnUse" x="391" y="0" width="28" height="68">
<path d="M417 68V0" stroke="white" stroke-width="4"/>
<path d="M405 68V0" stroke="#A4A4A4" stroke-width="4"/>
<path d="M393 68V0" stroke="#A4A4A4" stroke-width="4"/>
</mask>
<g mask="url(#mask1_208_49)">
<g filter="url(#filter1_f_208_49)">
<rect x="357.797" y="47" width="102" height="94" fill="#D9D9D9"/>
</g>
</g>
<mask id="mask2_208_49" style="mask-type:alpha" maskUnits="userSpaceOnUse" x="63" y="0" width="28" height="68">
<path d="M89 68V0" stroke="white" stroke-width="4"/>
<path d="M77 68V0" stroke="#A4A4A4" stroke-width="4"/>
<path d="M65 68V0" stroke="#A4A4A4" stroke-width="4"/>
</mask>
<g mask="url(#mask2_208_49)">
<g filter="url(#filter2_f_208_49)">
<rect x="29.797" y="47" width="102" height="94" fill="#D9D9D9"/>
</g>
</g>
<mask id="mask3_208_49" style="mask-type:alpha" maskUnits="userSpaceOnUse" x="391" y="114" width="28" height="68">
<path d="M393 114L393 182" stroke="white" stroke-width="4"/>
<path d="M405 114L405 182" stroke="#A4A4A4" stroke-width="4"/>
<path d="M417 114L417 182" stroke="#A4A4A4" stroke-width="4"/>
</mask>
<g mask="url(#mask3_208_49)">
<g filter="url(#filter3_f_208_49)">
<rect x="452.203" y="135" width="102" height="94" transform="rotate(-180 452.203 135)" fill="#D9D9D9"/>
</g>
</g>
<mask id="mask4_208_49" style="mask-type:alpha" maskUnits="userSpaceOnUse" x="63" y="114" width="28" height="68">
<path d="M65 114L65 182" stroke="white" stroke-width="4"/>
<path d="M77 114L77 182" stroke="#A4A4A4" stroke-width="4"/>
<path d="M89 114L89 182" stroke="#A4A4A4" stroke-width="4"/>
</mask>
<g mask="url(#mask4_208_49)">
<g filter="url(#filter4_f_208_49)">
<rect x="124.203" y="135" width="102" height="94" transform="rotate(-180 124.203 135)" fill="#D9D9D9"/>
</g>
</g>
<mask id="mask5_208_49" style="mask-type:alpha" maskUnits="userSpaceOnUse" x="876" y="114" width="29" height="68">
<path d="M878.203 114L878.203 182" stroke="white" stroke-width="4"/>
<path d="M890.203 114L890.203 182" stroke="#A4A4A4" stroke-width="4"/>
<path d="M902.203 114L902.203 182" stroke="#A4A4A4" stroke-width="4"/>
</mask>
<g mask="url(#mask5_208_49)">
<g filter="url(#filter5_f_208_49)">
<rect x="937" y="138" width="102" height="97" transform="rotate(-180 937 138)" fill="#D9D9D9"/>
</g>
</g>
<mask id="mask6_208_49" style="mask-type:alpha" maskUnits="userSpaceOnUse" x="675" y="68" width="306" height="45">
<path d="M681.953 103.764C673.453 103.764 673.703 82.3838 681.953 82.3838L741.703 68.75H980.953V112.75H741.703L681.953 103.764Z" fill="#FF7455" fill-opacity="0.45"/>
</mask>
<g mask="url(#mask6_208_49)">
<g filter="url(#filter6_f_208_49)">
<path d="M553 17H956V175H553V17Z" fill="#FF7455"/>
</g>
</g>
<mask id="mask7_208_49" style="mask-type:alpha" maskUnits="userSpaceOnUse" x="355" y="68" width="139" height="45">
<path d="M361.282 103.764C352.782 103.764 353.032 82.3838 361.282 82.3838L421.032 68.75H494V112.75H421.032L361.282 103.764Z" fill="#FF7455" fill-opacity="0.45"/>
</mask>
<g mask="url(#mask7_208_49)">
<g filter="url(#filter7_f_208_49)">
<path d="M323 30H460V148H323V30Z" fill="#FF7455"/>
</g>
</g>
<mask id="mask8_208_49" style="mask-type:alpha" maskUnits="userSpaceOnUse" x="28" y="50" width="149" height="82">
<path d="M34.3492 103.801C25.8492 103.801 26.0992 82.36 34.3492 82.36L176.912 50.5V68.6875V112.812V131.5C156.662 127.875 34.3492 103.801 34.3492 103.801Z" fill="#FF7455" fill-opacity="0.6"/>
</mask>
<g mask="url(#mask8_208_49)">
<g filter="url(#filter8_f_208_49)">
<rect x="-41" y="-17" width="200" height="218" fill="#FF7455" fill-opacity="0.6"/>
</g>
</g>
<defs>
<filter id="filter0_f_208_49" x="822" y="26" width="144" height="136" filterUnits="userSpaceOnUse" color-interpolation-filters="sRGB">
<feFlood flood-opacity="0" result="BackgroundImageFix"/>
<feBlend mode="normal" in="SourceGraphic" in2="BackgroundImageFix" result="shape"/>
<feGaussianBlur stdDeviation="10.5" result="effect1_foregroundBlur_208_49"/>
</filter>
<filter id="filter1_f_208_49" x="336.797" y="26" width="144" height="136" filterUnits="userSpaceOnUse" color-interpolation-filters="sRGB">
<feFlood flood-opacity="0" result="BackgroundImageFix"/>
<feBlend mode="normal" in="SourceGraphic" in2="BackgroundImageFix" result="shape"/>
<feGaussianBlur stdDeviation="10.5" result="effect1_foregroundBlur_208_49"/>
</filter>
<filter id="filter2_f_208_49" x="8.797" y="26" width="144" height="136" filterUnits="userSpaceOnUse" color-interpolation-filters="sRGB">
<feFlood flood-opacity="0" result="BackgroundImageFix"/>
<feBlend mode="normal" in="SourceGraphic" in2="BackgroundImageFix" result="shape"/>
<feGaussianBlur stdDeviation="10.5" result="effect1_foregroundBlur_208_49"/>
</filter>
<filter id="filter3_f_208_49" x="329.203" y="20" width="144" height="136" filterUnits="userSpaceOnUse" color-interpolation-filters="sRGB">
<feFlood flood-opacity="0" result="BackgroundImageFix"/>
<feBlend mode="normal" in="SourceGraphic" in2="BackgroundImageFix" result="shape"/>
<feGaussianBlur stdDeviation="10.5" result="effect1_foregroundBlur_208_49"/>
</filter>
<filter id="filter4_f_208_49" x="1.203" y="20" width="144" height="136" filterUnits="userSpaceOnUse" color-interpolation-filters="sRGB">
<feFlood flood-opacity="0" result="BackgroundImageFix"/>
<feBlend mode="normal" in="SourceGraphic" in2="BackgroundImageFix" result="shape"/>
<feGaussianBlur stdDeviation="10.5" result="effect1_foregroundBlur_208_49"/>
</filter>
<filter id="filter5_f_208_49" x="814" y="20" width="144" height="139" filterUnits="userSpaceOnUse" color-interpolation-filters="sRGB">
<feFlood flood-opacity="0" result="BackgroundImageFix"/>
<feBlend mode="normal" in="SourceGraphic" in2="BackgroundImageFix" result="shape"/>
<feGaussianBlur stdDeviation="10.5" result="effect1_foregroundBlur_208_49"/>
</filter>
<filter id="filter6_f_208_49" x="528" y="-8" width="453" height="208" filterUnits="userSpaceOnUse" color-interpolation-filters="sRGB">
<feFlood flood-opacity="0" result="BackgroundImageFix"/>
<feBlend mode="normal" in="SourceGraphic" in2="BackgroundImageFix" result="shape"/>
<feGaussianBlur stdDeviation="12.5" result="effect1_foregroundBlur_208_49"/>
</filter>
<filter id="filter7_f_208_49" x="298" y="5" width="187" height="168" filterUnits="userSpaceOnUse" color-interpolation-filters="sRGB">
<feFlood flood-opacity="0" result="BackgroundImageFix"/>
<feBlend mode="normal" in="SourceGraphic" in2="BackgroundImageFix" result="shape"/>
<feGaussianBlur stdDeviation="12.5" result="effect1_foregroundBlur_208_49"/>
</filter>
<filter id="filter8_f_208_49" x="-62" y="-38" width="242" height="260" filterUnits="userSpaceOnUse" color-interpolation-filters="sRGB">
<feFlood flood-opacity="0" result="BackgroundImageFix"/>
<feBlend mode="normal" in="SourceGraphic" in2="BackgroundImageFix" result="shape"/>
<feGaussianBlur stdDeviation="10.5" result="effect1_foregroundBlur_208_49"/>
</filter>
</defs>
</svg>
