<svg width="534" height="270" viewBox="0 0 534 270" fill="none" xmlns="http://www.w3.org/2000/svg">
<g filter="url(#filter0_d_134_3)">
<path d="M48.8173 97.5967H309.474" stroke="#D0D0D0" stroke-width="3.5"/>
<path d="M48.8173 97.5968C96.4062 97.5968 96.4062 26.6309 133.141 26.6309C169.877 26.6309 173.216 97.5968 212.456 97.5968C251.696 97.5968 241.678 26.6309 287.597 26.6309H309.474" stroke="#D0D0D0" stroke-width="3.5"/>
</g>
<g filter="url(#filter1_d_134_3)">
<path d="M48.8173 247.234H309.474" stroke="#D0D0D0" stroke-width="3.5"/>
<path d="M48.8173 247.234C96.4062 247.234 96.4062 176.268 133.141 176.268C169.877 176.268 173.216 247.234 212.456 247.234C251.696 247.234 241.678 176.268 287.597 176.268H309.474" stroke="#D0D0D0" stroke-width="3.5"/>
</g>
<path d="M23.208 176.522V194.704H21.0063V176.522H23.208ZM29.4336 186.501V194.704H27.3384V181.068H29.3626V183.198H29.5401C29.8597 182.506 30.3451 181.95 30.9961 181.529C31.6471 181.103 32.4876 180.89 33.5174 180.89C34.4407 180.89 35.2486 181.08 35.9411 181.458C36.6335 181.831 37.1721 182.399 37.5568 183.163C37.9415 183.92 38.1339 184.879 38.1339 186.039V194.704H36.0387V186.181C36.0387 185.11 35.7605 184.276 35.2042 183.678C34.6479 183.074 33.8844 182.772 32.9137 182.772C32.2449 182.772 31.6471 182.917 31.1204 183.207C30.5996 183.497 30.1882 183.92 29.8864 184.477C29.5845 185.033 29.4336 185.708 29.4336 186.501ZM47.8929 181.068V182.843H40.8261V181.068H47.8929ZM42.8858 177.801H44.9809V190.798C44.9809 191.39 45.0667 191.834 45.2384 192.13C45.4159 192.42 45.6408 192.615 45.9131 192.715C46.1913 192.81 46.4842 192.858 46.792 192.858C47.0228 192.858 47.2122 192.846 47.3602 192.822C47.5082 192.792 47.6265 192.769 47.7153 192.751L48.1414 194.633C47.9994 194.686 47.8011 194.74 47.5466 194.793C47.2921 194.852 46.9696 194.882 46.5789 194.882C45.9871 194.882 45.4071 194.754 44.8389 194.5C44.2766 194.245 43.8091 193.858 43.4362 193.337C43.0692 192.816 42.8858 192.159 42.8858 191.366V177.801ZM57.1169 181.068V182.843H49.7661V181.068H57.1169ZM51.9678 194.704V179.186C51.9678 178.404 52.1513 177.753 52.5182 177.233C52.8852 176.712 53.3616 176.321 53.9475 176.061C54.5335 175.8 55.152 175.67 55.803 175.67C56.3179 175.67 56.7381 175.711 57.0637 175.794C57.3892 175.877 57.6318 175.954 57.7916 176.025L57.188 177.836C57.0814 177.801 56.9335 177.756 56.7441 177.703C56.5606 177.65 56.3179 177.623 56.0161 177.623C55.3236 177.623 54.8235 177.798 54.5157 178.147C54.2139 178.496 54.063 179.008 54.063 179.683V194.704H51.9678ZM60.1643 194.846C59.7263 194.846 59.3505 194.689 59.0368 194.376C58.7231 194.062 58.5662 193.686 58.5662 193.248C58.5662 192.81 58.7231 192.434 59.0368 192.121C59.3505 191.807 59.7263 191.65 60.1643 191.65C60.6022 191.65 60.9781 191.807 61.2917 192.121C61.6054 192.434 61.7623 192.81 61.7623 193.248C61.7623 193.538 61.6883 193.804 61.5403 194.047C61.3983 194.29 61.2059 194.485 60.9633 194.633C60.7265 194.775 60.4602 194.846 60.1643 194.846ZM72.8374 194.704V176.522H79.1939C80.4605 176.522 81.5051 176.741 82.3278 177.179C83.1505 177.611 83.763 178.194 84.1655 178.928C84.568 179.656 84.7692 180.464 84.7692 181.352C84.7692 182.133 84.6301 182.778 84.3519 183.287C84.0797 183.796 83.7186 184.199 83.2688 184.495C82.8249 184.791 82.3426 185.009 81.8217 185.152V185.329C82.3781 185.365 82.9374 185.56 83.4997 185.915C84.0619 186.27 84.5324 186.779 84.9112 187.442C85.29 188.105 85.4794 188.916 85.4794 189.875C85.4794 190.786 85.2723 191.606 84.858 192.334C84.4437 193.062 83.7897 193.639 82.896 194.065C82.0023 194.491 80.8393 194.704 79.407 194.704H72.8374ZM75.0391 192.751H79.407C80.8452 192.751 81.8661 192.473 82.4698 191.916C83.0794 191.354 83.3842 190.674 83.3842 189.875C83.3842 189.259 83.2274 188.691 82.9137 188.17C82.6 187.643 82.1532 187.223 81.5732 186.909C80.9931 186.59 80.3066 186.43 79.5135 186.43H75.0391V192.751ZM75.0391 184.512H79.1229C79.7858 184.512 80.3835 184.382 80.9162 184.122C81.4548 183.861 81.8809 183.494 82.1946 183.021C82.5142 182.547 82.674 181.991 82.674 181.352C82.674 180.553 82.3958 179.875 81.8395 179.319C81.2832 178.757 80.4013 178.475 79.1939 178.475H75.0391V184.512Z" fill="#B6BCCF"/>
<path d="M23.208 14.1473V32.3291H21.0063V14.1473H23.208ZM29.4336 24.126V32.3291H27.3384V18.6927H29.3626V20.8234H29.5401C29.8597 20.1309 30.3451 19.5746 30.9961 19.1544C31.6471 18.7282 32.4876 18.5152 33.5174 18.5152C34.4407 18.5152 35.2486 18.7046 35.9411 19.0834C36.6335 19.4562 37.1721 20.0244 37.5568 20.7879C37.9415 21.5455 38.1339 22.5043 38.1339 23.6643V32.3291H36.0387V23.8064C36.0387 22.7351 35.7605 21.9006 35.2042 21.3028C34.6479 20.6991 33.8844 20.3973 32.9137 20.3973C32.2449 20.3973 31.6471 20.5423 31.1204 20.8323C30.5996 21.1223 30.1882 21.5455 29.8864 22.1018C29.5845 22.6582 29.4336 23.3329 29.4336 24.126ZM47.8929 18.6927V20.4683H40.8261V18.6927H47.8929ZM42.8858 15.4257H44.9809V28.4229C44.9809 29.0147 45.0667 29.4586 45.2384 29.7545C45.4159 30.0445 45.6408 30.2398 45.9131 30.3405C46.1913 30.4352 46.4842 30.4825 46.792 30.4825C47.0228 30.4825 47.2122 30.4707 47.3602 30.447C47.5082 30.4174 47.6265 30.3937 47.7153 30.376L48.1414 32.2581C47.9994 32.3113 47.8011 32.3646 47.5466 32.4179C47.2921 32.4771 46.9696 32.5067 46.5789 32.5067C45.9871 32.5067 45.4071 32.3794 44.8389 32.1249C44.2766 31.8704 43.8091 31.4827 43.4362 30.9619C43.0692 30.4411 42.8858 29.7841 42.8858 28.991V15.4257ZM57.1169 18.6927V20.4683H49.7661V18.6927H57.1169ZM51.9678 32.3291V16.8106C51.9678 16.0294 52.1513 15.3783 52.5182 14.8575C52.8852 14.3367 53.3616 13.9461 53.9475 13.6856C54.5335 13.4252 55.152 13.295 55.803 13.295C56.3179 13.295 56.7381 13.3364 57.0637 13.4193C57.3892 13.5022 57.6318 13.5791 57.7916 13.6501L57.188 15.4612C57.0814 15.4257 56.9335 15.3813 56.7441 15.328C56.5606 15.2748 56.3179 15.2481 56.0161 15.2481C55.3236 15.2481 54.8235 15.4227 54.5157 15.7719C54.2139 16.1211 54.063 16.6331 54.063 17.3078V32.3291H51.9678ZM60.1643 32.4711C59.7263 32.4711 59.3505 32.3143 59.0368 32.0006C58.7231 31.6869 58.5662 31.3111 58.5662 30.8731C58.5662 30.4352 58.7231 30.0593 59.0368 29.7456C59.3505 29.432 59.7263 29.2751 60.1643 29.2751C60.6022 29.2751 60.9781 29.432 61.2917 29.7456C61.6054 30.0593 61.7623 30.4352 61.7623 30.8731C61.7623 31.1631 61.6883 31.4295 61.5403 31.6721C61.3983 31.9148 61.2059 32.1101 60.9633 32.2581C60.7265 32.4001 60.4602 32.4711 60.1643 32.4711ZM73.5831 32.3291H71.2749L77.951 14.1473H80.2237L86.8999 32.3291H84.5916L79.1584 17.0237H79.0163L73.5831 32.3291ZM74.4354 25.2268H83.7394V27.18H74.4354V25.2268Z" fill="#B6BCCF"/>
<rect x="320.416" y="13.709" width="8.15152" height="7.35822" fill="#247888"/>
<rect x="320.416" y="84.6748" width="8.15152" height="7.35822" fill="#D088BF"/>
<rect x="320.416" y="247.234" width="8.15152" height="7.35822" fill="#F4A596"/>
<rect x="320.416" y="27.6147" width="8.15152" height="7.35822" fill="#6275CE"/>
<rect x="320.416" y="98.5806" width="8.15152" height="7.35822" fill="#F4A596"/>
<rect x="320.416" y="177.252" width="8.15152" height="7.35822" fill="#D088BF"/>
<rect x="320.416" y="233.328" width="8.15152" height="7.35822" fill="#6275CE"/>
<rect x="320.416" y="163.346" width="8.15152" height="7.35822" fill="#247888"/>
<path d="M292.502 18.6375H290.84L295.647 5.54654H297.283L302.09 18.6375H300.428L296.516 7.61756H296.414L292.502 18.6375ZM293.115 13.5238H299.814V14.9301H293.115V13.5238ZM307.759 16.3363V7.89881H309.191V16.3363H307.759ZM304.257 12.8335V11.4017H312.694V12.8335H304.257Z" fill="#B6BCCF"/>
<path d="M2.36852 102.675V92.8566H3.87704V102.675H2.36852ZM3.13557 91.2203C2.84153 91.2203 2.58798 91.1201 2.37491 90.9198C2.16611 90.7195 2.0617 90.4788 2.0617 90.1975C2.0617 89.9163 2.16611 89.6755 2.37491 89.4752C2.58798 89.2749 2.84153 89.1748 3.13557 89.1748C3.4296 89.1748 3.68102 89.2749 3.88983 89.4752C4.1029 89.6755 4.20943 89.9163 4.20943 90.1975C4.20943 90.4788 4.1029 90.7195 3.88983 90.9198C3.68102 91.1201 3.4296 91.2203 3.13557 91.2203ZM8.14853 96.7686V102.675H6.64V92.8566H8.09739V94.3907H8.22523C8.45535 93.8921 8.80478 93.4916 9.27353 93.189C9.74228 92.8822 10.3474 92.7288 11.0889 92.7288C11.7536 92.7288 12.3353 92.8651 12.8339 93.1379C13.3325 93.4063 13.7203 93.8154 13.9972 94.3651C14.2742 94.9106 14.4127 95.6009 14.4127 96.4362V102.675H12.9042V96.5384C12.9042 95.7671 12.7039 95.1663 12.3034 94.7359C11.9028 94.3012 11.3531 94.0839 10.6542 94.0839C10.1727 94.0839 9.74228 94.1883 9.36302 94.3971C8.98802 94.6059 8.69185 94.9106 8.47452 95.3112C8.25719 95.7117 8.14853 96.1975 8.14853 96.7686ZM17.1693 106.357V92.8566H18.6267V94.4163H18.8057C18.9165 94.2458 19.0699 94.0285 19.2659 93.7643C19.4662 93.4958 19.7517 93.2572 20.1224 93.0484C20.4974 92.8353 21.0045 92.7288 21.6437 92.7288C22.4704 92.7288 23.1991 92.9355 23.8298 93.3488C24.4605 93.7622 24.9527 94.3481 25.3064 95.1066C25.6601 95.8651 25.8369 96.76 25.8369 97.7913C25.8369 98.8311 25.6601 99.7323 25.3064 100.495C24.9527 101.254 24.4626 101.842 23.8362 102.259C23.2098 102.673 22.4875 102.879 21.6693 102.879C21.0386 102.879 20.5336 102.775 20.1544 102.566C19.7751 102.353 19.4832 102.112 19.2787 101.844C19.0741 101.571 18.9165 101.345 18.8057 101.166H18.6778V106.357H17.1693ZM18.6523 97.7657C18.6523 98.5072 18.7609 99.1613 18.9783 99.7281C19.1956 100.291 19.5131 100.732 19.9307 101.051C20.3483 101.367 20.8596 101.524 21.4648 101.524C22.0954 101.524 22.6217 101.358 23.0436 101.026C23.4697 100.689 23.7893 100.237 24.0024 99.6705C24.2197 99.0995 24.3284 98.4646 24.3284 97.7657C24.3284 97.0754 24.2219 96.4532 24.0088 95.8992C23.8 95.341 23.4825 94.8999 23.0564 94.5761C22.6345 94.248 22.104 94.0839 21.4648 94.0839C20.8511 94.0839 20.3355 94.2394 19.9179 94.5505C19.5003 94.8573 19.1849 95.2877 18.9719 95.8417C18.7588 96.3914 18.6523 97.0328 18.6523 97.7657ZM34.3256 98.6606V92.8566H35.8341V102.675H34.3256V101.013H34.2233C33.9932 101.511 33.6352 101.935 33.1494 102.285C32.6636 102.63 32.05 102.803 31.3085 102.803C30.6949 102.803 30.1494 102.668 29.6721 102.4C29.1949 102.127 28.8199 101.718 28.5471 101.173C28.2744 100.623 28.1381 99.9305 28.1381 99.0953V92.8566H29.6466V98.993C29.6466 99.7089 29.8469 100.28 30.2474 100.706C30.6523 101.132 31.1679 101.345 31.7943 101.345C32.1693 101.345 32.5507 101.249 32.9385 101.058C33.3305 100.866 33.6586 100.572 33.9229 100.176C34.1913 99.7792 34.3256 99.2742 34.3256 98.6606ZM42.8669 92.8566V94.135H37.7789V92.8566H42.8669ZM39.2618 90.5043H40.7703V99.8623C40.7703 100.288 40.8321 100.608 40.9557 100.821C41.0835 101.03 41.2455 101.171 41.4415 101.243C41.6418 101.311 41.8527 101.345 42.0743 101.345C42.2405 101.345 42.3769 101.337 42.4834 101.32C42.5899 101.298 42.6752 101.281 42.7391 101.269L43.0459 102.624C42.9436 102.662 42.8009 102.7 42.6176 102.739C42.4344 102.781 42.2022 102.803 41.9209 102.803C41.4948 102.803 41.0771 102.711 40.6681 102.528C40.2632 102.345 39.9266 102.065 39.6581 101.69C39.3939 101.315 39.2618 100.842 39.2618 100.271V90.5043Z" fill="#B6BCCF"/>
<path d="M2.36852 252.681V242.863H3.87704V252.681H2.36852ZM3.13557 241.227C2.84153 241.227 2.58798 241.126 2.37491 240.926C2.16611 240.726 2.0617 240.485 2.0617 240.204C2.0617 239.923 2.16611 239.682 2.37491 239.482C2.58798 239.281 2.84153 239.181 3.13557 239.181C3.4296 239.181 3.68102 239.281 3.88983 239.482C4.1029 239.682 4.20943 239.923 4.20943 240.204C4.20943 240.485 4.1029 240.726 3.88983 240.926C3.68102 241.126 3.4296 241.227 3.13557 241.227ZM8.14853 246.775V252.681H6.64V242.863H8.09739V244.397H8.22523C8.45535 243.898 8.80478 243.498 9.27353 243.195C9.74228 242.889 10.3474 242.735 11.0889 242.735C11.7536 242.735 12.3353 242.871 12.8339 243.144C13.3325 243.413 13.7203 243.822 13.9972 244.371C14.2742 244.917 14.4127 245.607 14.4127 246.443V252.681H12.9042V246.545C12.9042 245.773 12.7039 245.173 12.3034 244.742C11.9028 244.308 11.3531 244.09 10.6542 244.09C10.1727 244.09 9.74228 244.195 9.36302 244.403C8.98802 244.612 8.69185 244.917 8.47452 245.318C8.25719 245.718 8.14853 246.204 8.14853 246.775ZM17.1693 256.363V242.863H18.6267V244.423H18.8057C18.9165 244.252 19.0699 244.035 19.2659 243.771C19.4662 243.502 19.7517 243.264 20.1224 243.055C20.4974 242.842 21.0045 242.735 21.6437 242.735C22.4704 242.735 23.1991 242.942 23.8298 243.355C24.4605 243.769 24.9527 244.354 25.3064 245.113C25.6601 245.871 25.8369 246.766 25.8369 247.798C25.8369 248.837 25.6601 249.739 25.3064 250.501C24.9527 251.26 24.4626 251.848 23.8362 252.266C23.2098 252.679 22.4875 252.886 21.6693 252.886C21.0386 252.886 20.5336 252.781 20.1544 252.572C19.7751 252.359 19.4832 252.119 19.2787 251.85C19.0741 251.577 18.9165 251.352 18.8057 251.173H18.6778V256.363H17.1693ZM18.6523 247.772C18.6523 248.514 18.7609 249.168 18.9783 249.734C19.1956 250.297 19.5131 250.738 19.9307 251.058C20.3483 251.373 20.8596 251.531 21.4648 251.531C22.0954 251.531 22.6217 251.364 23.0436 251.032C23.4697 250.695 23.7893 250.244 24.0024 249.677C24.2197 249.106 24.3284 248.471 24.3284 247.772C24.3284 247.082 24.2219 246.46 24.0088 245.906C23.8 245.347 23.4825 244.906 23.0564 244.582C22.6345 244.254 22.104 244.09 21.4648 244.09C20.8511 244.09 20.3355 244.246 19.9179 244.557C19.5003 244.864 19.1849 245.294 18.9719 245.848C18.7588 246.398 18.6523 247.039 18.6523 247.772ZM34.3256 248.667V242.863H35.8341V252.681H34.3256V251.019H34.2233C33.9932 251.518 33.6352 251.942 33.1494 252.291C32.6636 252.636 32.05 252.809 31.3085 252.809C30.6949 252.809 30.1494 252.675 29.6721 252.406C29.1949 252.134 28.8199 251.724 28.5471 251.179C28.2744 250.629 28.1381 249.937 28.1381 249.102V242.863H29.6466V248.999C29.6466 249.715 29.8469 250.286 30.2474 250.712C30.6523 251.139 31.1679 251.352 31.7943 251.352C32.1693 251.352 32.5507 251.256 32.9385 251.064C33.3305 250.872 33.6586 250.578 33.9229 250.182C34.1913 249.786 34.3256 249.281 34.3256 248.667ZM42.8669 242.863V244.141H37.7789V242.863H42.8669ZM39.2618 240.511H40.7703V249.869C40.7703 250.295 40.8321 250.614 40.9557 250.827C41.0835 251.036 41.2455 251.177 41.4415 251.249C41.6418 251.318 41.8527 251.352 42.0743 251.352C42.2405 251.352 42.3769 251.343 42.4834 251.326C42.5899 251.305 42.6752 251.288 42.7391 251.275L43.0459 252.63C42.9436 252.668 42.8009 252.707 42.6176 252.745C42.4344 252.788 42.2022 252.809 41.9209 252.809C41.4948 252.809 41.0771 252.717 40.6681 252.534C40.2632 252.351 39.9266 252.072 39.6581 251.697C39.3939 251.322 39.2618 250.849 39.2618 250.278V240.511Z" fill="#B6BCCF"/>
<path d="M292.502 90.644H290.84L295.647 77.5531H297.283L302.09 90.644H300.428L296.516 79.6242H296.414L292.502 90.644ZM293.115 85.5304H299.814V86.9367H293.115V85.5304ZM309.549 83.3955V84.8017H303.822V83.3955H309.549Z" fill="#B6BCCF"/>
<path d="M291.965 169.315V156.224H296.541C297.453 156.224 298.205 156.382 298.798 156.697C299.39 157.008 299.831 157.428 300.121 157.956C300.411 158.48 300.556 159.062 300.556 159.701C300.556 160.264 300.455 160.728 300.255 161.095C300.059 161.461 299.799 161.751 299.475 161.964C299.156 162.177 298.808 162.335 298.433 162.437V162.565C298.834 162.591 299.237 162.731 299.642 162.987C300.046 163.242 300.385 163.609 300.658 164.086C300.931 164.564 301.067 165.147 301.067 165.838C301.067 166.494 300.918 167.084 300.62 167.608C300.321 168.132 299.85 168.548 299.207 168.855C298.563 169.162 297.726 169.315 296.695 169.315H291.965ZM293.55 167.909H296.695C297.73 167.909 298.465 167.708 298.9 167.308C299.339 166.903 299.558 166.413 299.558 165.838C299.558 165.394 299.446 164.985 299.22 164.61C298.994 164.231 298.672 163.929 298.254 163.703C297.837 163.473 297.343 163.358 296.772 163.358H293.55V167.909ZM293.55 161.977H296.49C296.968 161.977 297.398 161.883 297.781 161.696C298.169 161.508 298.476 161.244 298.702 160.903C298.932 160.562 299.047 160.162 299.047 159.701C299.047 159.126 298.847 158.638 298.446 158.238C298.046 157.833 297.411 157.63 296.541 157.63H293.55V161.977ZM307.302 167.014V158.576H308.734V167.014H307.302ZM303.8 163.511V162.079H312.237V163.511H303.8Z" fill="#B6BCCF"/>
<path d="M291.965 241.322V228.231H296.541C297.453 228.231 298.205 228.388 298.798 228.704C299.39 229.015 299.831 229.434 300.121 229.963C300.411 230.487 300.556 231.069 300.556 231.708C300.556 232.27 300.455 232.735 300.255 233.101C300.059 233.468 299.799 233.758 299.475 233.971C299.156 234.184 298.808 234.341 298.433 234.444V234.572C298.834 234.597 299.237 234.738 299.642 234.993C300.046 235.249 300.385 235.616 300.658 236.093C300.931 236.57 301.067 237.154 301.067 237.844C301.067 238.501 300.918 239.091 300.62 239.615C300.321 240.139 299.85 240.554 299.207 240.861C298.563 241.168 297.726 241.322 296.695 241.322H291.965ZM293.55 239.915H296.695C297.73 239.915 298.465 239.715 298.9 239.314C299.339 238.91 299.558 238.42 299.558 237.844C299.558 237.401 299.446 236.992 299.22 236.617C298.994 236.238 298.672 235.935 298.254 235.709C297.837 235.479 297.343 235.364 296.772 235.364H293.55V239.915ZM293.55 233.983H296.49C296.968 233.983 297.398 233.89 297.781 233.702C298.169 233.515 298.476 233.251 298.702 232.91C298.932 232.569 299.047 232.168 299.047 231.708C299.047 231.133 298.847 230.645 298.446 230.244C298.046 229.839 297.411 229.637 296.541 229.637H293.55V233.983ZM309.092 234.073V235.479H303.365V234.073H309.092Z" fill="#B6BCCF"/>
<path d="M320.416 16.9814C426.809 16.9814 421.651 167.291 324.93 167.291" stroke="#247888" stroke-opacity="0.41" stroke-width="3"/>
<path d="M320.416 102.26C426.809 102.26 421.651 251.108 324.93 251.108" stroke="#F4A596" stroke-opacity="0.42" stroke-width="3"/>
<path d="M320.416 30.2898C451.63 30.2898 445.268 237.007 325.983 237.007" stroke="#6275CE" stroke-opacity="0.42" stroke-width="3"/>
<path d="M320.416 88.1909C426.809 88.1909 421.651 180.931 324.93 180.931" stroke="#D088BF" stroke-opacity="0.42" stroke-width="3"/>
<path d="M433.337 48.5782C432.914 48.5782 432.663 48.5704 432.584 48.5547C432.506 48.539 432.466 48.4527 432.466 48.2958C432.466 47.8721 432.553 47.6132 432.725 47.5191C432.757 47.5034 434.122 47.4955 436.821 47.4955C439.519 47.5112 440.979 47.5348 441.198 47.5661C442.077 47.6917 442.814 47.9113 443.411 48.2252C444.007 48.539 444.431 48.8999 444.682 49.3078C444.933 49.7158 445.097 50.0531 445.176 50.3199C445.254 50.5866 445.301 50.8534 445.317 51.1201C445.317 51.8262 445.09 52.4852 444.635 53.0971C444.18 53.7091 443.654 54.1798 443.058 54.5093C442.461 54.8388 441.936 55.1055 441.481 55.3095C441.026 55.5135 440.728 55.6155 440.586 55.6155L440.751 55.7332C441.802 56.3294 442.328 57.1924 442.328 58.3221C442.328 58.4947 442.289 58.9733 442.21 59.7578C442.132 60.5424 442.093 61.1857 442.093 61.6878V61.8996C442.093 62.1821 442.101 62.4017 442.116 62.5586C442.132 62.7155 442.218 62.8568 442.375 62.9823C442.532 63.1078 442.736 63.1784 442.987 63.1941C443.426 63.1941 443.787 63.0215 444.07 62.6763C444.352 62.3311 444.556 61.9624 444.682 61.5701C444.76 61.3504 444.823 61.2171 444.87 61.17C444.917 61.1229 445.035 61.0994 445.223 61.0994C445.537 61.0994 445.694 61.1935 445.694 61.3818C445.694 61.6643 445.505 62.1114 445.129 62.7234C444.533 63.6178 443.827 64.0649 443.011 64.0649H442.799C441.842 64.0649 441.049 63.8688 440.422 63.4765C439.794 63.0843 439.449 62.4723 439.386 61.6407C439.386 61.2171 439.504 60.5581 439.739 59.6637C439.974 58.7693 440.092 58.1966 440.092 57.9456C440.092 57.1453 439.755 56.5648 439.08 56.2039C438.845 56.0941 438.649 56.0313 438.492 56.0156C438.335 55.9999 437.778 55.9842 436.821 55.9685H435.197L434.443 59.0282C433.926 61.0994 433.667 62.1507 433.667 62.1821C433.667 62.2448 433.675 62.284 433.69 62.2997C433.706 62.3154 433.761 62.3468 433.855 62.3939C433.949 62.441 434.083 62.4566 434.255 62.441C434.428 62.4253 434.687 62.441 435.032 62.488H435.762C435.856 62.6135 435.903 62.6842 435.903 62.6998C435.903 62.7155 435.879 62.8568 435.832 63.1235C435.769 63.3275 435.691 63.4765 435.597 63.5707H435.244C434.679 63.5393 433.651 63.5236 432.16 63.5236C431.627 63.5236 431.133 63.5236 430.678 63.5236C430.223 63.5236 429.862 63.5236 429.595 63.5236C429.328 63.5236 429.164 63.5315 429.101 63.5471C428.834 63.5471 428.701 63.4765 428.701 63.3353C428.701 63.3039 428.724 63.1941 428.771 63.0058C428.85 62.7077 428.928 62.5429 429.007 62.5116C429.069 62.4959 429.187 62.488 429.36 62.488H429.501C429.925 62.488 430.395 62.4645 430.913 62.4174C431.133 62.3703 431.282 62.2762 431.36 62.135C431.407 62.0722 431.972 59.8912 433.055 55.592C434.138 51.2927 434.679 49.0254 434.679 48.79C434.679 48.6802 434.232 48.6096 433.337 48.5782ZM442.752 50.5317C442.752 50.0296 442.587 49.6059 442.257 49.2607C441.928 48.9155 441.253 48.6959 440.233 48.6017C440.202 48.6017 440.022 48.6017 439.692 48.6017C439.363 48.6017 439.064 48.5939 438.798 48.5782H438.28C437.542 48.5782 437.119 48.6567 437.009 48.8136C436.993 48.8606 436.726 49.9041 436.209 51.9439C435.691 53.9837 435.432 55.0271 435.432 55.0742C435.432 55.0898 435.973 55.0977 437.056 55.0977C438.28 55.082 439.096 55.0271 439.504 54.9329C440.508 54.776 441.292 54.3132 441.857 53.5443C442.108 53.1834 442.32 52.7127 442.493 52.1321C442.665 51.5516 442.752 51.0181 442.752 50.5317Z" fill="#B6BCCF"/>
<path d="M449.249 65.9332C449.249 66.1994 449.504 66.3547 450.014 66.3991C450.214 66.3991 450.314 66.4601 450.314 66.5822C450.314 66.5932 450.303 66.6654 450.281 66.7985C450.247 66.9538 450.214 67.0536 450.181 67.098C450.148 67.1424 450.075 67.1646 449.965 67.1646C449.942 67.1646 449.876 67.1646 449.765 67.1646C449.654 67.1646 449.465 67.159 449.199 67.1479C448.933 67.1368 448.578 67.1313 448.134 67.1313C447.347 67.1313 446.842 67.1424 446.62 67.1646H446.487C446.409 67.0869 446.37 67.0259 446.37 66.9815C446.392 66.682 446.465 66.4879 446.587 66.3991H446.82C447.596 66.3658 448.162 66.0885 448.517 65.5671C448.583 65.5005 449.587 63.8088 451.529 60.4919C453.47 57.175 454.457 55.4944 454.491 55.45C454.568 55.3169 454.701 55.2503 454.89 55.2503H455.023H455.306C455.373 55.3501 455.406 55.4056 455.406 55.4167L455.872 60.7914C456.182 64.3746 456.349 66.1828 456.371 66.2161C456.426 66.3381 456.787 66.3991 457.453 66.3991C457.73 66.3991 457.869 66.4546 457.869 66.5655C457.869 66.5877 457.852 66.6654 457.819 66.7985C457.785 66.9649 457.758 67.0647 457.735 67.098C457.713 67.1313 457.636 67.1535 457.502 67.1646C457.469 67.1646 457.392 67.1646 457.27 67.1646C457.147 67.1646 456.931 67.159 456.621 67.1479C456.31 67.1368 455.905 67.1313 455.406 67.1313C454.363 67.1313 453.681 67.1424 453.359 67.1646H453.159C453.093 67.098 453.06 67.0481 453.06 67.0148C453.06 66.9815 453.071 66.8817 453.093 66.7153C453.137 66.5711 453.171 66.4823 453.193 66.449L453.259 66.3991H453.592C454.191 66.3658 454.546 66.2715 454.657 66.1162L454.457 63.6202H450.497L449.931 64.5853C449.476 65.3508 449.249 65.8001 449.249 65.9332ZM454.374 62.8381C454.374 62.7161 454.308 61.8508 454.174 60.2423C454.041 58.6338 453.964 57.824 453.942 57.8129L453.492 58.5284C453.315 58.8279 452.965 59.4214 452.444 60.3089L450.946 62.8381L452.66 62.8548C453.803 62.8548 454.374 62.8492 454.374 62.8381Z" fill="#B6BCCF"/>
<path d="M467.302 55.4037C467.302 55.1997 467.412 55.0428 467.632 54.933H482.624C482.86 55.0585 482.977 55.2154 482.977 55.4037C482.977 55.5763 482.867 55.7254 482.648 55.8509L475.163 55.8744H467.679C467.428 55.796 467.302 55.6391 467.302 55.4037ZM467.302 59.9697C467.302 59.7343 467.428 59.5774 467.679 59.499H482.648C482.867 59.6559 482.977 59.8128 482.977 59.9697C482.977 60.1737 482.86 60.3306 482.624 60.4404H467.632C467.412 60.3306 467.302 60.1737 467.302 59.9697Z" fill="#B6BCCF"/>
<path d="M496.623 38.5987C496.514 38.4888 496.459 38.4104 496.459 38.3633C496.459 38.3005 496.482 38.175 496.529 37.9867C496.576 37.7984 496.616 37.6886 496.647 37.6572C496.678 37.5788 496.749 37.5395 496.859 37.5395C496.969 37.5395 497.369 37.5317 498.059 37.516H499.307L499.754 35.6331C499.801 35.4605 499.856 35.233 499.918 34.9506C499.981 34.6681 500.036 34.4642 500.083 34.3386C500.13 34.2131 500.177 34.0562 500.224 33.8679C500.272 33.6796 500.334 33.5462 500.413 33.4678C500.491 33.3893 500.57 33.2952 500.648 33.1854C500.727 33.0755 500.836 33.0049 500.978 32.9735C501.119 32.9422 501.26 32.9265 501.401 32.9265C501.684 32.9422 501.88 33.0285 501.99 33.1854C502.099 33.3423 502.154 33.4913 502.154 33.6325C502.154 33.7424 502.084 34.1111 501.943 34.7387C501.801 35.3664 501.644 35.9862 501.472 36.5981L501.237 37.4689C501.237 37.5003 501.629 37.516 502.413 37.516H503.614C503.723 37.6258 503.778 37.7121 503.778 37.7749C503.778 38.1201 503.676 38.3947 503.472 38.5987H500.954L500.107 42.0114C499.495 44.5219 499.189 45.8713 499.189 46.0596C499.189 46.7186 499.401 47.0481 499.824 47.0481C500.374 47.0481 500.907 46.7814 501.425 46.2479C501.943 45.7144 502.358 45.0554 502.672 44.2709C502.704 44.1767 502.743 44.1218 502.79 44.1061C502.837 44.0904 502.955 44.0747 503.143 44.059H503.237C503.472 44.059 503.59 44.1218 503.59 44.2473C503.59 44.2944 503.567 44.3885 503.52 44.5297C503.441 44.7808 503.3 45.0789 503.096 45.4241C502.892 45.7693 502.625 46.138 502.296 46.5303C501.966 46.9226 501.566 47.2521 501.095 47.5188C500.625 47.7856 500.146 47.9189 499.66 47.9189C499.189 47.9189 498.742 47.8013 498.318 47.5659C497.894 47.3305 497.588 46.9226 497.4 46.342C497.369 46.2165 497.353 46.0047 497.353 45.7066V45.2829L498.177 41.9879C498.726 39.7755 499.008 38.6614 499.024 38.6457C499.024 38.6143 498.624 38.5987 497.824 38.5987H496.623Z" fill="#B6BCCF"/>
<path d="M507.969 50.0228C507.969 50.289 508.224 50.4443 508.735 50.4887C508.934 50.4887 509.034 50.5497 509.034 50.6717C509.034 50.6828 509.023 50.755 509.001 50.8881C508.968 51.0434 508.934 51.1432 508.901 51.1876C508.868 51.232 508.796 51.2542 508.685 51.2542C508.662 51.2542 508.596 51.2542 508.485 51.2542C508.374 51.2542 508.185 51.2486 507.919 51.2375C507.653 51.2264 507.298 51.2209 506.854 51.2209C506.067 51.2209 505.562 51.232 505.34 51.2542H505.207C505.129 51.1765 505.09 51.1155 505.09 51.0711C505.113 50.7716 505.185 50.5775 505.307 50.4887H505.54C506.316 50.4554 506.882 50.1781 507.237 49.6567C507.304 49.5901 508.307 47.8984 510.249 44.5815C512.19 41.2646 513.177 39.584 513.211 39.5396C513.288 39.4065 513.421 39.3399 513.61 39.3399H513.743H514.026C514.093 39.4397 514.126 39.4952 514.126 39.5063L514.592 44.881C514.902 48.4642 515.069 50.2724 515.091 50.3057C515.147 50.4277 515.507 50.4887 516.173 50.4887C516.45 50.4887 516.589 50.5442 516.589 50.6551C516.589 50.6773 516.572 50.755 516.539 50.8881C516.505 51.0545 516.478 51.1543 516.456 51.1876C516.433 51.2209 516.356 51.2431 516.223 51.2542C516.189 51.2542 516.112 51.2542 515.99 51.2542C515.868 51.2542 515.651 51.2486 515.341 51.2375C515.03 51.2264 514.625 51.2209 514.126 51.2209C513.083 51.2209 512.401 51.232 512.079 51.2542H511.88C511.813 51.1876 511.78 51.1377 511.78 51.1044C511.78 51.0711 511.791 50.9713 511.813 50.8049C511.857 50.6607 511.891 50.5719 511.913 50.5386L511.979 50.4887H512.312C512.911 50.4554 513.266 50.3611 513.377 50.2058L513.177 47.7098H509.217L508.651 48.6749C508.197 49.4404 507.969 49.8897 507.969 50.0228ZM513.094 46.9277C513.094 46.8057 513.028 45.9404 512.895 44.3319C512.761 42.7234 512.684 41.9136 512.662 41.9025L512.212 42.618C512.035 42.9175 511.685 43.511 511.164 44.3985L509.666 46.9277L511.38 46.9444C512.523 46.9444 513.094 46.9388 513.094 46.9277Z" fill="#B6BCCF"/>
<path d="M518.386 47.3105C518.386 47.3105 518.386 47.2384 518.386 47.0942C518.386 46.95 518.463 46.8391 518.619 46.7614H528.287C528.453 46.8501 528.536 46.9611 528.536 47.0942C528.536 47.2273 528.453 47.3383 528.287 47.427H518.619C518.463 47.3493 518.386 47.2384 518.386 47.0942V47.3105Z" fill="#B6BCCF"/>
<path d="M496.623 70.6551C496.514 70.5452 496.459 70.4668 496.459 70.4197C496.459 70.3569 496.482 70.2314 496.529 70.0431C496.576 69.8548 496.616 69.745 496.647 69.7136C496.678 69.6352 496.749 69.5959 496.859 69.5959C496.969 69.5959 497.369 69.5881 498.059 69.5724H499.307L499.754 67.6895C499.801 67.5169 499.856 67.2894 499.918 67.007C499.981 66.7245 500.036 66.5205 500.083 66.395C500.13 66.2695 500.177 66.1126 500.224 65.9243C500.272 65.736 500.334 65.6026 500.413 65.5242C500.491 65.4457 500.57 65.3516 500.648 65.2418C500.727 65.1319 500.836 65.0613 500.978 65.0299C501.119 64.9985 501.26 64.9829 501.401 64.9829C501.684 64.9985 501.88 65.0848 501.99 65.2418C502.099 65.3987 502.154 65.5477 502.154 65.6889C502.154 65.7988 502.084 66.1675 501.943 66.7951C501.801 67.4228 501.644 68.0425 501.472 68.6545L501.237 69.5253C501.237 69.5567 501.629 69.5724 502.413 69.5724H503.614C503.723 69.6822 503.778 69.7685 503.778 69.8313C503.778 70.1765 503.676 70.4511 503.472 70.6551H500.954L500.107 74.0678C499.495 76.5783 499.189 77.9277 499.189 78.116C499.189 78.775 499.401 79.1045 499.824 79.1045C500.374 79.1045 500.907 78.8378 501.425 78.3043C501.943 77.7708 502.358 77.1118 502.672 76.3272C502.704 76.2331 502.743 76.1782 502.79 76.1625C502.837 76.1468 502.955 76.1311 503.143 76.1154H503.237C503.472 76.1154 503.59 76.1782 503.59 76.3037C503.59 76.3508 503.567 76.4449 503.52 76.5861C503.441 76.8372 503.3 77.1353 503.096 77.4805C502.892 77.8257 502.625 78.1944 502.296 78.5867C501.966 78.979 501.566 79.3085 501.095 79.5752C500.625 79.842 500.146 79.9753 499.66 79.9753C499.189 79.9753 498.742 79.8577 498.318 79.6223C497.894 79.3869 497.588 78.979 497.4 78.3984C497.369 78.2729 497.353 78.0611 497.353 77.763V77.3393L498.177 74.0442C498.726 71.8319 499.008 70.7178 499.024 70.7021C499.024 70.6707 498.624 70.6551 497.824 70.6551H496.623Z" fill="#B6BCCF"/>
<path d="M507.969 82.0789C507.969 82.3452 508.224 82.5005 508.735 82.5449C508.934 82.5449 509.034 82.6059 509.034 82.7279C509.034 82.739 509.023 82.8111 509.001 82.9442C508.968 83.0995 508.934 83.1994 508.901 83.2437C508.868 83.2881 508.796 83.3103 508.685 83.3103C508.662 83.3103 508.596 83.3103 508.485 83.3103C508.374 83.3103 508.185 83.3048 507.919 83.2937C507.653 83.2826 507.298 83.277 506.854 83.277C506.067 83.277 505.562 83.2881 505.34 83.3103H505.207C505.129 83.2326 505.09 83.1716 505.09 83.1273C505.113 82.8277 505.185 82.6336 505.307 82.5449H505.54C506.316 82.5116 506.882 82.2342 507.237 81.7129C507.304 81.6463 508.307 79.9546 510.249 76.6377C512.19 73.3207 513.177 71.6401 513.211 71.5957C513.288 71.4626 513.421 71.3961 513.61 71.3961H513.743H514.026C514.093 71.4959 514.126 71.5514 514.126 71.5625L514.592 76.9372C514.902 80.5203 515.069 82.3285 515.091 82.3618C515.147 82.4838 515.507 82.5449 516.173 82.5449C516.45 82.5449 516.589 82.6003 516.589 82.7113C516.589 82.7334 516.572 82.8111 516.539 82.9442C516.505 83.1106 516.478 83.2105 516.456 83.2437C516.433 83.277 516.356 83.2992 516.223 83.3103C516.189 83.3103 516.112 83.3103 515.99 83.3103C515.868 83.3103 515.651 83.3048 515.341 83.2937C515.03 83.2826 514.625 83.277 514.126 83.277C513.083 83.277 512.401 83.2881 512.079 83.3103H511.88C511.813 83.2437 511.78 83.1938 511.78 83.1605C511.78 83.1273 511.791 83.0274 511.813 82.861C511.857 82.7168 511.891 82.6281 511.913 82.5948L511.979 82.5449H512.312C512.911 82.5116 513.266 82.4173 513.377 82.262L513.177 79.766H509.217L508.651 80.7311C508.197 81.4965 507.969 81.9458 507.969 82.0789ZM513.094 78.9839C513.094 78.8619 513.028 77.9966 512.895 76.3881C512.761 74.7795 512.684 73.9697 512.662 73.9586L512.212 74.6741C512.035 74.9737 511.685 75.5672 511.164 76.4546L509.666 78.9839L511.38 79.0005C512.523 79.0005 513.094 78.995 513.094 78.9839Z" fill="#B6BCCF"/>
<path d="M517.92 79.3666C517.92 79.3666 517.92 79.2945 517.92 79.1503C517.92 79.0061 517.998 78.8952 518.153 78.8175H523.128V76.3215L523.145 73.8255C523.256 73.6813 523.361 73.6092 523.461 73.6092C523.605 73.6092 523.716 73.6924 523.794 73.8588V78.8175H528.753C528.919 78.9063 529.002 79.0172 529.002 79.1503C529.002 79.2834 528.919 79.3944 528.753 79.4831H523.794V84.4418C523.705 84.5972 523.605 84.6748 523.494 84.6748H523.461H523.428C523.295 84.6748 523.195 84.5972 523.128 84.4418V79.4831H518.153C517.998 79.4055 517.92 79.2945 517.92 79.1503V79.3666Z" fill="#B6BCCF"/>
<path d="M533.469 58.3926H493.658V56.9804H533.469V58.3926Z" fill="#B6BCCF"/>
<path d="M433.343 196.602C432.919 196.602 432.667 196.594 432.589 196.578C432.51 196.562 432.471 196.476 432.471 196.319C432.471 195.895 432.557 195.635 432.73 195.541C432.762 195.526 434.128 195.518 436.831 195.518C439.533 195.533 440.994 195.557 441.214 195.588C442.093 195.714 442.832 195.934 443.429 196.248C444.026 196.562 444.45 196.924 444.701 197.332C444.953 197.741 445.118 198.078 445.196 198.345C445.275 198.613 445.322 198.88 445.338 199.147C445.338 199.854 445.11 200.513 444.654 201.126C444.199 201.739 443.672 202.21 443.075 202.54C442.478 202.87 441.952 203.137 441.496 203.341C441.041 203.545 440.742 203.648 440.601 203.648L440.766 203.765C441.819 204.362 442.345 205.226 442.345 206.358C442.345 206.53 442.306 207.01 442.227 207.795C442.148 208.581 442.109 209.225 442.109 209.727V209.939C442.109 210.222 442.117 210.442 442.133 210.599C442.148 210.756 442.235 210.898 442.392 211.023C442.549 211.149 442.753 211.22 443.005 211.236C443.445 211.236 443.806 211.063 444.089 210.717C444.371 210.371 444.576 210.002 444.701 209.61C444.78 209.39 444.843 209.256 444.89 209.209C444.937 209.162 445.055 209.138 445.243 209.138C445.558 209.138 445.715 209.232 445.715 209.421C445.715 209.704 445.526 210.152 445.149 210.764C444.552 211.66 443.845 212.107 443.028 212.107H442.816C441.858 212.107 441.064 211.911 440.436 211.518C439.808 211.126 439.462 210.513 439.399 209.68C439.399 209.256 439.517 208.596 439.753 207.701C439.988 206.805 440.106 206.232 440.106 205.981C440.106 205.179 439.768 204.598 439.093 204.237C438.857 204.127 438.661 204.064 438.504 204.048C438.347 204.032 437.789 204.017 436.831 204.001H435.205L434.451 207.065C433.932 209.138 433.673 210.191 433.673 210.222C433.673 210.285 433.681 210.324 433.696 210.34C433.712 210.356 433.767 210.387 433.861 210.434C433.956 210.481 434.089 210.497 434.262 210.481C434.435 210.466 434.694 210.481 435.04 210.529H435.77C435.864 210.654 435.912 210.725 435.912 210.741C435.912 210.756 435.888 210.898 435.841 211.165C435.778 211.369 435.699 211.518 435.605 211.613H435.252C434.686 211.581 433.657 211.565 432.165 211.565C431.631 211.565 431.136 211.565 430.68 211.565C430.225 211.565 429.863 211.565 429.596 211.565C429.329 211.565 429.164 211.573 429.101 211.589C428.834 211.589 428.701 211.518 428.701 211.377C428.701 211.345 428.724 211.236 428.771 211.047C428.85 210.749 428.928 210.584 429.007 210.552C429.07 210.536 429.188 210.529 429.361 210.529H429.502C429.926 210.529 430.397 210.505 430.916 210.458C431.136 210.411 431.285 210.316 431.364 210.175C431.411 210.112 431.976 207.929 433.06 203.624C434.144 199.319 434.686 197.049 434.686 196.814C434.686 196.704 434.238 196.633 433.343 196.602ZM442.769 198.558C442.769 198.055 442.604 197.631 442.274 197.285C441.944 196.939 441.269 196.719 440.248 196.625C440.216 196.625 440.035 196.625 439.706 196.625C439.376 196.625 439.077 196.617 438.81 196.602H438.292C437.553 196.602 437.129 196.68 437.019 196.837C437.003 196.884 436.736 197.929 436.218 199.971C435.699 202.014 435.44 203.058 435.44 203.106C435.44 203.121 435.982 203.129 437.066 203.129C438.292 203.113 439.109 203.058 439.517 202.964C440.522 202.807 441.308 202.344 441.874 201.574C442.125 201.213 442.337 200.741 442.51 200.16C442.683 199.579 442.769 199.045 442.769 198.558Z" fill="#B6BCCF"/>
<path d="M449.657 204.535C449.358 204.535 449.18 204.529 449.124 204.518C449.069 204.507 449.041 204.446 449.041 204.335C449.041 204.035 449.102 203.852 449.224 203.785C449.235 203.774 449.957 203.768 451.39 203.768C454.267 203.768 455.783 203.779 455.938 203.802C456.638 203.913 457.221 204.163 457.688 204.551C458.154 204.94 458.393 205.451 458.404 206.084C458.404 206.795 458.082 207.434 457.438 208C456.794 208.567 456.055 208.95 455.222 209.15L455.055 209.2C455.766 209.3 456.349 209.555 456.805 209.966C457.26 210.377 457.493 210.888 457.505 211.499C457.505 212.31 457.105 213.093 456.305 213.848C455.505 214.603 454.522 215.031 453.356 215.131C453.278 215.142 452.107 215.147 449.841 215.147C447.619 215.147 446.492 215.136 446.459 215.114C446.414 215.081 446.392 215.036 446.392 214.981C446.392 214.903 446.403 214.825 446.425 214.748C446.481 214.537 446.536 214.42 446.592 214.398C446.636 214.387 446.72 214.381 446.842 214.381H446.942C447.242 214.381 447.575 214.364 447.941 214.331C448.097 214.298 448.202 214.231 448.258 214.131C448.291 214.087 448.691 212.543 449.458 209.5C450.224 206.456 450.607 204.851 450.607 204.685C450.607 204.607 450.291 204.557 449.657 204.535ZM456.622 206.084C456.622 205.751 456.538 205.44 456.372 205.151C456.205 204.862 455.933 204.674 455.555 204.585C455.478 204.563 454.967 204.546 454.023 204.535C453.8 204.535 453.567 204.535 453.323 204.535C453.078 204.535 452.884 204.54 452.74 204.551H452.523C452.356 204.563 452.251 204.618 452.207 204.718C452.184 204.762 452.007 205.429 451.673 206.717C451.673 206.751 451.668 206.784 451.657 206.817L451.14 208.916H452.49C453.389 208.916 453.906 208.905 454.039 208.883C454.706 208.772 455.3 208.45 455.822 207.917C456.344 207.384 456.61 206.773 456.622 206.084ZM455.722 211.332C455.722 210.844 455.594 210.438 455.339 210.116C455.083 209.794 454.75 209.605 454.339 209.55C454.272 209.538 453.811 209.533 452.956 209.533C451.646 209.533 450.985 209.538 450.974 209.55C450.974 209.572 450.879 209.977 450.69 210.766C450.502 211.554 450.307 212.337 450.107 213.115L449.807 214.281C449.807 214.326 449.874 214.348 450.007 214.348C450.141 214.348 450.59 214.359 451.357 214.381C452.345 214.381 452.879 214.376 452.956 214.364C453.645 214.287 454.278 213.965 454.856 213.398C455.433 212.832 455.722 212.143 455.722 211.332Z" fill="#B6BCCF"/>
<path d="M467.5 203.436C467.5 203.231 467.61 203.074 467.83 202.964H482.841C483.077 203.09 483.195 203.247 483.195 203.436C483.195 203.608 483.085 203.758 482.865 203.883L475.371 203.907H467.878C467.626 203.828 467.5 203.671 467.5 203.436ZM467.5 208.007C467.5 207.772 467.626 207.614 467.878 207.536H482.865C483.085 207.693 483.195 207.85 483.195 208.007C483.195 208.211 483.077 208.369 482.841 208.479H467.83C467.61 208.369 467.5 208.211 467.5 208.007Z" fill="#B6BCCF"/>
<path d="M496.855 186.61C496.745 186.5 496.69 186.422 496.69 186.374C496.69 186.312 496.714 186.186 496.761 185.997C496.808 185.809 496.848 185.699 496.879 185.668C496.91 185.589 496.981 185.55 497.091 185.55C497.201 185.55 497.602 185.542 498.293 185.526H499.542L499.99 183.641C500.037 183.468 500.092 183.24 500.155 182.958C500.217 182.675 500.272 182.471 500.32 182.345C500.367 182.219 500.414 182.062 500.461 181.874C500.508 181.685 500.571 181.552 500.649 181.473C500.728 181.394 500.807 181.3 500.885 181.19C500.964 181.08 501.074 181.01 501.215 180.978C501.356 180.947 501.498 180.931 501.639 180.931C501.922 180.947 502.118 181.033 502.228 181.19C502.338 181.347 502.393 181.497 502.393 181.638C502.393 181.748 502.323 182.117 502.181 182.745C502.04 183.374 501.883 183.994 501.71 184.607L501.474 185.479C501.474 185.51 501.867 185.526 502.652 185.526H503.854C503.964 185.636 504.019 185.723 504.019 185.785C504.019 186.131 503.917 186.406 503.713 186.61H501.191L500.343 190.027C499.73 192.541 499.424 193.892 499.424 194.08C499.424 194.74 499.636 195.07 500.06 195.07C500.61 195.07 501.144 194.803 501.663 194.269C502.181 193.735 502.597 193.075 502.912 192.289C502.943 192.195 502.982 192.14 503.029 192.124C503.077 192.109 503.194 192.093 503.383 192.077H503.477C503.713 192.077 503.831 192.14 503.831 192.266C503.831 192.313 503.807 192.407 503.76 192.549C503.681 192.8 503.54 193.098 503.336 193.444C503.132 193.79 502.865 194.159 502.535 194.552C502.205 194.944 501.804 195.274 501.333 195.541C500.861 195.808 500.382 195.942 499.895 195.942C499.424 195.942 498.976 195.824 498.552 195.588C498.128 195.353 497.822 194.944 497.633 194.363C497.602 194.237 497.586 194.025 497.586 193.727V193.303L498.411 190.004C498.961 187.788 499.243 186.673 499.259 186.657C499.259 186.626 498.858 186.61 498.057 186.61H496.855Z" fill="#B6BCCF"/>
<path d="M508.598 188.605C508.298 188.605 508.121 188.599 508.065 188.588C508.01 188.577 507.982 188.516 507.982 188.405C507.982 188.105 508.043 187.922 508.165 187.855C508.176 187.844 508.898 187.838 510.331 187.838C513.208 187.838 514.724 187.85 514.879 187.872C515.579 187.983 516.162 188.233 516.629 188.621C517.095 189.01 517.334 189.521 517.345 190.154C517.345 190.865 517.023 191.504 516.379 192.07C515.735 192.637 514.996 193.02 514.163 193.22L513.996 193.27C514.707 193.37 515.29 193.625 515.746 194.036C516.201 194.447 516.434 194.958 516.445 195.569C516.445 196.38 516.046 197.163 515.246 197.918C514.446 198.673 513.463 199.101 512.297 199.201C512.219 199.212 511.047 199.218 508.782 199.218C506.56 199.218 505.433 199.206 505.399 199.184C505.355 199.151 505.333 199.106 505.333 199.051C505.333 198.973 505.344 198.895 505.366 198.818C505.422 198.607 505.477 198.49 505.533 198.468C505.577 198.457 505.66 198.451 505.783 198.451H505.883C506.183 198.451 506.516 198.434 506.882 198.401C507.038 198.368 507.143 198.301 507.199 198.201C507.232 198.157 507.632 196.613 508.398 193.57C509.165 190.526 509.548 188.921 509.548 188.755C509.548 188.677 509.231 188.627 508.598 188.605ZM515.562 190.154C515.562 189.821 515.479 189.51 515.312 189.221C515.146 188.932 514.874 188.744 514.496 188.655C514.418 188.633 513.907 188.616 512.963 188.605C512.741 188.605 512.508 188.605 512.264 188.605C512.019 188.605 511.825 188.61 511.68 188.621H511.464C511.297 188.633 511.192 188.688 511.147 188.788C511.125 188.833 510.947 189.499 510.614 190.787C510.614 190.821 510.609 190.854 510.598 190.887L510.081 192.987H511.431C512.33 192.987 512.847 192.975 512.98 192.953C513.646 192.842 514.241 192.52 514.763 191.987C515.285 191.454 515.551 190.843 515.562 190.154ZM514.663 195.402C514.663 194.914 514.535 194.508 514.279 194.186C514.024 193.864 513.691 193.675 513.28 193.62C513.213 193.609 512.752 193.603 511.897 193.603C510.586 193.603 509.926 193.609 509.914 193.62C509.914 193.642 509.82 194.047 509.631 194.836C509.442 195.624 509.248 196.407 509.048 197.185L508.748 198.351C508.748 198.396 508.815 198.418 508.948 198.418C509.081 198.418 509.531 198.429 510.298 198.451C511.286 198.451 511.819 198.446 511.897 198.434C512.586 198.357 513.219 198.035 513.796 197.468C514.374 196.902 514.663 196.213 514.663 195.402Z" fill="#B6BCCF"/>
<path d="M518.794 195.269C518.794 195.269 518.794 195.197 518.794 195.052C518.794 194.908 518.872 194.797 519.028 194.719H528.707C528.874 194.808 528.957 194.919 528.957 195.052C528.957 195.186 528.874 195.297 528.707 195.385H519.028C518.872 195.308 518.794 195.197 518.794 195.052V195.269Z" fill="#B6BCCF"/>
<path d="M496.855 218.706C496.745 218.596 496.69 218.517 496.69 218.47C496.69 218.407 496.714 218.282 496.761 218.093C496.808 217.905 496.848 217.795 496.879 217.763C496.91 217.685 496.981 217.645 497.091 217.645C497.201 217.645 497.602 217.638 498.293 217.622H499.542L499.99 215.737C500.037 215.564 500.092 215.336 500.155 215.053C500.217 214.77 500.272 214.566 500.32 214.441C500.367 214.315 500.414 214.158 500.461 213.969C500.508 213.781 500.571 213.647 500.649 213.569C500.728 213.49 500.807 213.396 500.885 213.286C500.964 213.176 501.074 213.105 501.215 213.074C501.356 213.042 501.498 213.027 501.639 213.027C501.922 213.042 502.118 213.129 502.228 213.286C502.338 213.443 502.393 213.592 502.393 213.734C502.393 213.844 502.323 214.213 502.181 214.841C502.04 215.47 501.883 216.09 501.71 216.703L501.474 217.575C501.474 217.606 501.867 217.622 502.652 217.622H503.854C503.964 217.732 504.019 217.818 504.019 217.881C504.019 218.227 503.917 218.502 503.713 218.706H501.191L500.343 222.123C499.73 224.636 499.424 225.987 499.424 226.176C499.424 226.836 499.636 227.166 500.06 227.166C500.61 227.166 501.144 226.899 501.663 226.364C502.181 225.83 502.597 225.171 502.912 224.385C502.943 224.291 502.982 224.236 503.029 224.22C503.077 224.204 503.194 224.189 503.383 224.173H503.477C503.713 224.173 503.831 224.236 503.831 224.361C503.831 224.409 503.807 224.503 503.76 224.644C503.681 224.896 503.54 225.194 503.336 225.54C503.132 225.885 502.865 226.255 502.535 226.647C502.205 227.04 501.804 227.37 501.333 227.637C500.861 227.904 500.382 228.038 499.895 228.038C499.424 228.038 498.976 227.92 498.552 227.684C498.128 227.448 497.822 227.04 497.633 226.459C497.602 226.333 497.586 226.121 497.586 225.822V225.398L498.411 222.099C498.961 219.884 499.243 218.769 499.259 218.753C499.259 218.722 498.858 218.706 498.057 218.706H496.855Z" fill="#B6BCCF"/>
<path d="M508.598 220.7C508.298 220.7 508.121 220.695 508.065 220.684C508.01 220.673 507.982 220.611 507.982 220.5C507.982 220.2 508.043 220.017 508.165 219.951C508.176 219.939 508.898 219.934 510.331 219.934C513.208 219.934 514.724 219.945 514.879 219.967C515.579 220.078 516.162 220.328 516.629 220.717C517.095 221.106 517.334 221.617 517.345 222.25C517.345 222.961 517.023 223.599 516.379 224.166C515.735 224.732 514.996 225.115 514.163 225.315L513.996 225.365C514.707 225.465 515.29 225.721 515.746 226.132C516.201 226.543 516.434 227.053 516.445 227.664C516.445 228.475 516.046 229.258 515.246 230.013C514.446 230.769 513.463 231.196 512.297 231.296C512.219 231.307 511.047 231.313 508.782 231.313C506.56 231.313 505.433 231.302 505.399 231.28C505.355 231.246 505.333 231.202 505.333 231.146C505.333 231.069 505.344 230.991 505.366 230.913C505.422 230.702 505.477 230.585 505.533 230.563C505.577 230.552 505.66 230.547 505.783 230.547H505.883C506.183 230.547 506.516 230.53 506.882 230.497C507.038 230.463 507.143 230.397 507.199 230.297C507.232 230.252 507.632 228.708 508.398 225.665C509.165 222.622 509.548 221.017 509.548 220.85C509.548 220.772 509.231 220.722 508.598 220.7ZM515.562 222.25C515.562 221.916 515.479 221.605 515.312 221.317C515.146 221.028 514.874 220.839 514.496 220.75C514.418 220.728 513.907 220.711 512.963 220.7C512.741 220.7 512.508 220.7 512.264 220.7C512.019 220.7 511.825 220.706 511.68 220.717H511.464C511.297 220.728 511.192 220.784 511.147 220.884C511.125 220.928 510.947 221.594 510.614 222.883C510.614 222.916 510.609 222.949 510.598 222.983L510.081 225.082H511.431C512.33 225.082 512.847 225.071 512.98 225.049C513.646 224.938 514.241 224.615 514.763 224.082C515.285 223.549 515.551 222.938 515.562 222.25ZM514.663 227.498C514.663 227.009 514.535 226.604 514.279 226.282C514.024 225.959 513.691 225.771 513.28 225.715C513.213 225.704 512.752 225.698 511.897 225.698C510.586 225.698 509.926 225.704 509.914 225.715C509.914 225.737 509.82 226.143 509.631 226.931C509.442 227.72 509.248 228.503 509.048 229.28L508.748 230.447C508.748 230.491 508.815 230.513 508.948 230.513C509.081 230.513 509.531 230.524 510.298 230.547C511.286 230.547 511.819 230.541 511.897 230.53C512.586 230.452 513.219 230.13 513.796 229.564C514.374 228.997 514.663 228.309 514.663 227.498Z" fill="#B6BCCF"/>
<path d="M518.328 227.365C518.328 227.365 518.328 227.292 518.328 227.148C518.328 227.004 518.406 226.892 518.561 226.815H523.543V224.316L523.559 221.817C523.67 221.672 523.776 221.6 523.876 221.6C524.02 221.6 524.131 221.683 524.209 221.85V226.815H529.174C529.341 226.904 529.424 227.015 529.424 227.148C529.424 227.281 529.341 227.392 529.174 227.481H524.209V232.446C524.12 232.601 524.02 232.679 523.909 232.679H523.876H523.843C523.709 232.679 523.609 232.601 523.543 232.446V227.481H518.561C518.406 227.403 518.328 227.292 518.328 227.148V227.365Z" fill="#B6BCCF"/>
<path d="M533.895 206.428H493.886V205.015H533.895V206.428Z" fill="#B6BCCF"/>
<defs>
<filter id="filter0_d_134_3" x="31.8173" y="11.8809" width="294.656" height="108.466" filterUnits="userSpaceOnUse" color-interpolation-filters="sRGB">
<feFlood flood-opacity="0" result="BackgroundImageFix"/>
<feColorMatrix in="SourceAlpha" type="matrix" values="0 0 0 0 0 0 0 0 0 0 0 0 0 0 0 0 0 0 127 0" result="hardAlpha"/>
<feOffset dy="4"/>
<feGaussianBlur stdDeviation="8.5"/>
<feComposite in2="hardAlpha" operator="out"/>
<feColorMatrix type="matrix" values="0 0 0 0 0 0 0 0 0 0 0 0 0 0 0 0 0 0 0.07 0"/>
<feBlend mode="normal" in2="BackgroundImageFix" result="effect1_dropShadow_134_3"/>
<feBlend mode="normal" in="SourceGraphic" in2="effect1_dropShadow_134_3" result="shape"/>
</filter>
<filter id="filter1_d_134_3" x="31.8173" y="161.518" width="294.656" height="108.466" filterUnits="userSpaceOnUse" color-interpolation-filters="sRGB">
<feFlood flood-opacity="0" result="BackgroundImageFix"/>
<feColorMatrix in="SourceAlpha" type="matrix" values="0 0 0 0 0 0 0 0 0 0 0 0 0 0 0 0 0 0 127 0" result="hardAlpha"/>
<feOffset dy="4"/>
<feGaussianBlur stdDeviation="8.5"/>
<feComposite in2="hardAlpha" operator="out"/>
<feColorMatrix type="matrix" values="0 0 0 0 0 0 0 0 0 0 0 0 0 0 0 0 0 0 0.07 0"/>
<feBlend mode="normal" in2="BackgroundImageFix" result="effect1_dropShadow_134_3"/>
<feBlend mode="normal" in="SourceGraphic" in2="effect1_dropShadow_134_3" result="shape"/>
</filter>
</defs>
</svg>
