<svg width="68" height="88" viewBox="0 0 68 88" fill="none" xmlns="http://www.w3.org/2000/svg">
<path d="M35.0924 82.0471L11.3027 82.0471C8.35706 82.0471 5.96917 79.2174 5.96917 75.7268C5.96917 72.2361 8.35706 69.4064 11.3027 69.4064L56.5415 69.4064C59.4871 69.4064 61.875 66.5767 61.875 63.0861C61.875 59.5954 59.4871 56.7657 56.5415 56.7657L11.3027 56.7657C8.35706 56.7657 5.96917 53.936 5.96917 50.4454C5.96917 46.9547 8.35706 44.125 11.3027 44.125L56.5415 44.125C59.4871 44.125 61.875 41.2953 61.875 37.8047C61.875 34.314 59.4871 31.4843 56.5415 31.4843L11.3027 31.4843C8.35706 31.4843 5.96917 28.6546 5.96917 25.164C5.96917 21.6733 8.35706 18.8436 11.3027 18.8436L56.5415 18.8436C59.4871 18.8436 61.875 16.0139 61.875 12.5233C61.875 9.03263 59.4871 6.20291 56.5415 6.20291L35.0924 6.20291" stroke="white" stroke-width="11"/>
</svg>
