<svg width="1367" height="418" viewBox="0 0 1367 418" fill="none" xmlns="http://www.w3.org/2000/svg">
<path d="M1269 321.5V415H986V49H956.5V3H1298V49H1269V274" stroke="#282828" stroke-width="5" stroke-linejoin="round"/>
<path d="M448.5 321.5V415H165.5V49H136V3H477.5V49H448.5V274" stroke="#282828" stroke-width="5" stroke-linejoin="round"/>
<rect x="279" y="96" width="26.5" height="90" fill="#7E7E7E" fill-opacity="0.26"/>
<rect x="1050" y="96" width="26.5" height="90" fill="#7E7E7E" fill-opacity="0.26"/>
<rect x="279" y="196" width="26.5" height="33.5" fill="#7E7E7E" fill-opacity="0.26"/>
<rect x="1050" y="196" width="26.5" height="33.5" fill="#7E7E7E" fill-opacity="0.26"/>
<rect x="267.5" y="229.5" width="53" height="131.5" rx="2" fill="#EBC183"/>
<rect x="189.5" y="186" width="234" height="10" rx="2" fill="#E6D4B7"/>
<rect x="1010" y="186" width="237" height="10" rx="2" fill="#E6D4B7"/>
<rect x="179.5" y="79" width="257" height="17" rx="2" fill="#D59F4E" fill-opacity="0.35"/>
<rect x="1000" y="79" width="257" height="17" rx="2" fill="#E6D4B7"/>
<rect x="1036.75" y="229.5" width="53" height="131.5" rx="2" fill="#EBC183"/>
<ellipse cx="305.5" cy="296.5" rx="6.8125" ry="11.6875" fill="#8E5500"/>
<ellipse cx="1076" cy="296.5" rx="6.8125" ry="11.6875" fill="#8E5500"/>
<path d="M1076.15 303.25L1073.08 303.25C1072.7 303.25 1072.4 302.746 1072.4 302.125C1072.4 301.504 1072.7 301 1073.08 301L1078.92 301C1079.3 301 1079.6 300.496 1079.6 299.875C1079.6 299.254 1079.3 298.75 1078.92 298.75L1073.08 298.75C1072.7 298.75 1072.4 298.246 1072.4 297.625C1072.4 297.004 1072.7 296.5 1073.08 296.5L1078.92 296.5C1079.3 296.5 1079.6 295.996 1079.6 295.375C1079.6 294.754 1079.3 294.25 1078.92 294.25L1073.08 294.25C1072.7 294.25 1072.4 293.746 1072.4 293.125C1072.4 292.504 1072.7 292 1073.08 292L1078.92 292C1079.3 292 1079.6 291.496 1079.6 290.875C1079.6 290.254 1079.3 289.75 1078.92 289.75L1076.15 289.75" stroke="#383838" stroke-width="2"/>
<path d="M305.651 303.25L302.583 303.25C302.204 303.25 301.896 302.746 301.896 302.125C301.896 301.504 302.204 301 302.583 301L308.416 301C308.796 301 309.104 300.496 309.104 299.875C309.104 299.254 308.796 298.75 308.416 298.75L302.583 298.75C302.204 298.75 301.896 298.246 301.896 297.625C301.896 297.004 302.204 296.5 302.583 296.5L308.416 296.5C308.796 296.5 309.104 295.996 309.104 295.375C309.104 294.754 308.796 294.25 308.416 294.25L302.583 294.25C302.204 294.25 301.896 293.746 301.896 293.125C301.896 292.504 302.204 292 302.583 292L308.416 292C308.796 292 309.104 291.496 309.104 290.875C309.104 290.254 308.796 289.75 308.416 289.75L305.651 289.75" stroke="#383838" stroke-width="2"/>
<path d="M1122 275C1121.45 275 1121 275.448 1121 276V320C1121 320.552 1121.45 321 1122 321C1122.51 321 1123.17 320.815 1123.85 320.556C1124.57 320.284 1125.42 319.886 1126.36 319.366C1128.23 318.328 1130.47 316.785 1132.63 314.747C1136.94 310.675 1141 304.555 1141 296.5C1141 288.428 1137.02 283.033 1132.69 279.689C1130.54 278.022 1128.29 276.858 1126.39 276.109C1124.53 275.374 1122.91 275 1122 275Z" stroke="#0D0D0D" stroke-width="2" stroke-linejoin="round"/>
<path d="M465.375 275C464.823 275 464.375 275.448 464.375 276V320C464.375 320.552 464.823 321 465.375 321C465.682 321 465.953 320.891 466.131 320.804C466.331 320.706 466.536 320.575 466.738 320.426C467.143 320.127 467.607 319.704 468.1 319.172C469.089 318.104 470.253 316.54 471.364 314.498C473.59 310.408 475.625 304.37 475.625 296.5C475.625 288.633 473.636 283.311 471.388 279.927C470.266 278.239 469.082 277.037 468.054 276.247C467.541 275.852 467.057 275.553 466.63 275.348C466.234 275.158 465.787 275 465.375 275ZM465.217 319.022C465.217 319.022 465.22 319.021 465.226 319.019C465.22 319.022 465.217 319.023 465.217 319.022Z" stroke="#0D0D0D" stroke-width="2" stroke-linejoin="round"/>
<path d="M1257 273.5V79H1000V398H1257V322" stroke="#757575" stroke-width="4" stroke-linejoin="round"/>
<path d="M436.5 273.5V79H179.5V398H436.5V322" stroke="#757575" stroke-width="4" stroke-linejoin="round"/>
<path d="M1247 273.5V186H1010V389H1247V322" stroke="#757575" stroke-width="4" stroke-linejoin="round"/>
<path d="M426.5 273.5V186H189.5V389H426.5V322" stroke="#757575" stroke-width="4" stroke-linejoin="round"/>
<path d="M564.098 121V106.455H569.283C570.409 106.455 571.345 106.649 572.088 107.037C572.836 107.425 573.395 107.963 573.764 108.649C574.133 109.331 574.318 110.119 574.318 111.014C574.318 111.904 574.131 112.688 573.757 113.365C573.388 114.037 572.829 114.561 572.081 114.935C571.337 115.309 570.402 115.496 569.275 115.496H565.348V113.607H569.077C569.787 113.607 570.364 113.505 570.81 113.301C571.259 113.098 571.588 112.802 571.797 112.413C572.005 112.025 572.109 111.559 572.109 111.014C572.109 110.465 572.003 109.989 571.79 109.587C571.581 109.184 571.252 108.876 570.802 108.663C570.357 108.446 569.773 108.337 569.048 108.337H566.292V121H564.098ZM571.278 114.438L574.872 121H572.372L568.849 114.438H571.278ZM579.993 121.241C579.301 121.241 578.676 121.114 578.118 120.858C577.559 120.598 577.116 120.221 576.79 119.729C576.468 119.236 576.307 118.633 576.307 117.918C576.307 117.302 576.425 116.795 576.662 116.398C576.899 116 577.218 115.685 577.621 115.453C578.023 115.221 578.473 115.046 578.97 114.928C579.467 114.809 579.974 114.719 580.49 114.658C581.143 114.582 581.674 114.52 582.081 114.473C582.488 114.421 582.784 114.338 582.969 114.224C583.153 114.111 583.246 113.926 583.246 113.67V113.621C583.246 113 583.07 112.52 582.72 112.179C582.374 111.838 581.858 111.668 581.172 111.668C580.457 111.668 579.893 111.826 579.481 112.143C579.074 112.456 578.792 112.804 578.636 113.188L576.641 112.733C576.877 112.07 577.223 111.535 577.677 111.128C578.137 110.716 578.665 110.418 579.261 110.233C579.858 110.044 580.485 109.949 581.143 109.949C581.579 109.949 582.041 110.001 582.528 110.105C583.021 110.205 583.48 110.389 583.906 110.659C584.337 110.929 584.69 111.315 584.964 111.817C585.239 112.314 585.376 112.96 585.376 113.756V121H583.302V119.509H583.217C583.08 119.783 582.874 120.053 582.599 120.318C582.325 120.583 581.972 120.804 581.541 120.979C581.11 121.154 580.594 121.241 579.993 121.241ZM580.454 119.537C581.042 119.537 581.543 119.421 581.96 119.189C582.382 118.957 582.701 118.654 582.919 118.28C583.141 117.901 583.253 117.496 583.253 117.065V115.659C583.177 115.735 583.03 115.806 582.812 115.872C582.599 115.934 582.355 115.988 582.081 116.036C581.806 116.078 581.539 116.118 581.278 116.156C581.018 116.189 580.8 116.218 580.625 116.241C580.213 116.294 579.837 116.381 579.496 116.504C579.159 116.627 578.89 116.805 578.686 117.037C578.487 117.264 578.388 117.567 578.388 117.946C578.388 118.472 578.582 118.869 578.97 119.139C579.358 119.404 579.853 119.537 580.454 119.537ZM592.289 121.213C591.408 121.213 590.622 120.988 589.931 120.538C589.244 120.084 588.704 119.437 588.311 118.599C587.923 117.757 587.729 116.746 587.729 115.567C587.729 114.388 587.925 113.379 588.318 112.541C588.716 111.703 589.261 111.062 589.952 110.616C590.643 110.171 591.427 109.949 592.303 109.949C592.98 109.949 593.524 110.062 593.936 110.29C594.353 110.512 594.675 110.773 594.902 111.071C595.134 111.369 595.314 111.632 595.442 111.859H595.57V106.455H597.693V121H595.62V119.303H595.442C595.314 119.535 595.129 119.8 594.888 120.098C594.651 120.396 594.325 120.657 593.908 120.879C593.491 121.102 592.951 121.213 592.289 121.213ZM592.757 119.402C593.368 119.402 593.884 119.241 594.306 118.919C594.732 118.592 595.054 118.14 595.272 117.562C595.494 116.985 595.605 116.312 595.605 115.545C595.605 114.788 595.496 114.125 595.279 113.557C595.061 112.989 594.741 112.546 594.32 112.229C593.898 111.911 593.378 111.753 592.757 111.753C592.118 111.753 591.585 111.919 591.159 112.25C590.733 112.581 590.411 113.034 590.193 113.607C589.98 114.179 589.874 114.826 589.874 115.545C589.874 116.275 589.983 116.93 590.201 117.513C590.418 118.095 590.74 118.557 591.166 118.898C591.597 119.234 592.128 119.402 592.757 119.402ZM600.724 121V110.091H602.848V121H600.724ZM601.797 108.408C601.427 108.408 601.11 108.285 600.845 108.038C600.585 107.787 600.454 107.489 600.454 107.143C600.454 106.793 600.585 106.495 600.845 106.249C601.11 105.998 601.427 105.872 601.797 105.872C602.166 105.872 602.481 105.998 602.741 106.249C603.007 106.495 603.139 106.793 603.139 107.143C603.139 107.489 603.007 107.787 602.741 108.038C602.481 108.285 602.166 108.408 601.797 108.408ZM608.879 121.241C608.188 121.241 607.563 121.114 607.004 120.858C606.446 120.598 606.003 120.221 605.676 119.729C605.354 119.236 605.193 118.633 605.193 117.918C605.193 117.302 605.312 116.795 605.549 116.398C605.785 116 606.105 115.685 606.507 115.453C606.91 115.221 607.36 115.046 607.857 114.928C608.354 114.809 608.861 114.719 609.377 114.658C610.03 114.582 610.56 114.52 610.968 114.473C611.375 114.421 611.671 114.338 611.855 114.224C612.04 114.111 612.132 113.926 612.132 113.67V113.621C612.132 113 611.957 112.52 611.607 112.179C611.261 111.838 610.745 111.668 610.058 111.668C609.344 111.668 608.78 111.826 608.368 112.143C607.961 112.456 607.679 112.804 607.523 113.188L605.527 112.733C605.764 112.07 606.11 111.535 606.564 111.128C607.023 110.716 607.551 110.418 608.148 110.233C608.745 110.044 609.372 109.949 610.03 109.949C610.466 109.949 610.927 110.001 611.415 110.105C611.907 110.205 612.367 110.389 612.793 110.659C613.224 110.929 613.576 111.315 613.851 111.817C614.126 112.314 614.263 112.96 614.263 113.756V121H612.189V119.509H612.104C611.967 119.783 611.761 120.053 611.486 120.318C611.211 120.583 610.859 120.804 610.428 120.979C609.997 121.154 609.481 121.241 608.879 121.241ZM609.341 119.537C609.928 119.537 610.43 119.421 610.847 119.189C611.268 118.957 611.588 118.654 611.806 118.28C612.028 117.901 612.139 117.496 612.139 117.065V115.659C612.064 115.735 611.917 115.806 611.699 115.872C611.486 115.934 611.242 115.988 610.968 116.036C610.693 116.078 610.425 116.118 610.165 116.156C609.905 116.189 609.687 116.218 609.512 116.241C609.1 116.294 608.723 116.381 608.382 116.504C608.046 116.627 607.776 116.805 607.573 117.037C607.374 117.264 607.274 117.567 607.274 117.946C607.274 118.472 607.469 118.869 607.857 119.139C608.245 119.404 608.74 119.537 609.341 119.537ZM622.184 110.091V111.795H616.225V110.091H622.184ZM617.823 107.477H619.947V117.797C619.947 118.209 620.008 118.519 620.131 118.727C620.254 118.931 620.413 119.071 620.607 119.146C620.806 119.217 621.021 119.253 621.253 119.253C621.424 119.253 621.573 119.241 621.701 119.217C621.829 119.194 621.928 119.175 621.999 119.161L622.383 120.915C622.26 120.962 622.084 121.009 621.857 121.057C621.63 121.109 621.346 121.137 621.005 121.142C620.446 121.152 619.925 121.052 619.442 120.844C618.959 120.635 618.569 120.313 618.27 119.878C617.972 119.442 617.823 118.895 617.823 118.237V107.477ZM624.533 121V110.091H626.656V121H624.533ZM625.605 108.408C625.236 108.408 624.919 108.285 624.654 108.038C624.393 107.787 624.263 107.489 624.263 107.143C624.263 106.793 624.393 106.495 624.654 106.249C624.919 105.998 625.236 105.872 625.605 105.872C625.975 105.872 626.29 105.998 626.55 106.249C626.815 106.495 626.948 106.793 626.948 107.143C626.948 107.489 626.815 107.787 626.55 108.038C626.29 108.285 625.975 108.408 625.605 108.408ZM634.109 121.22C633.086 121.22 632.193 120.986 631.431 120.517C630.669 120.048 630.077 119.393 629.655 118.55C629.234 117.707 629.023 116.722 629.023 115.595C629.023 114.464 629.234 113.474 629.655 112.626C630.077 111.779 630.669 111.121 631.431 110.652C632.193 110.183 633.086 109.949 634.109 109.949C635.131 109.949 636.024 110.183 636.786 110.652C637.548 111.121 638.14 111.779 638.562 112.626C638.983 113.474 639.194 114.464 639.194 115.595C639.194 116.722 638.983 117.707 638.562 118.55C638.14 119.393 637.548 120.048 636.786 120.517C636.024 120.986 635.131 121.22 634.109 121.22ZM634.116 119.438C634.779 119.438 635.328 119.262 635.763 118.912C636.199 118.562 636.521 118.095 636.729 117.513C636.942 116.93 637.049 116.289 637.049 115.588C637.049 114.892 636.942 114.253 636.729 113.67C636.521 113.083 636.199 112.612 635.763 112.257C635.328 111.902 634.779 111.724 634.116 111.724C633.448 111.724 632.894 111.902 632.454 112.257C632.018 112.612 631.694 113.083 631.481 113.67C631.272 114.253 631.168 114.892 631.168 115.588C631.168 116.289 631.272 116.93 631.481 117.513C631.694 118.095 632.018 118.562 632.454 118.912C632.894 119.262 633.448 119.438 634.116 119.438ZM643.688 114.523V121H641.564V110.091H643.603V111.866H643.737C643.988 111.289 644.381 110.825 644.916 110.474C645.456 110.124 646.136 109.949 646.955 109.949C647.698 109.949 648.349 110.105 648.908 110.418C649.467 110.725 649.9 111.185 650.208 111.795C650.515 112.406 650.669 113.161 650.669 114.061V121H648.546V114.317C648.546 113.526 648.34 112.908 647.928 112.463C647.516 112.013 646.95 111.788 646.23 111.788C645.738 111.788 645.3 111.895 644.916 112.108C644.538 112.321 644.237 112.634 644.014 113.045C643.797 113.453 643.688 113.945 643.688 114.523ZM666.914 110.276C666.838 109.603 666.526 109.082 665.976 108.713C665.427 108.339 664.736 108.152 663.903 108.152C663.306 108.152 662.79 108.247 662.354 108.436C661.919 108.621 661.58 108.876 661.339 109.203C661.102 109.525 660.984 109.892 660.984 110.304C660.984 110.65 661.064 110.948 661.225 111.199C661.391 111.45 661.606 111.661 661.871 111.831C662.141 111.997 662.43 112.136 662.738 112.25C663.046 112.359 663.341 112.449 663.626 112.52L665.046 112.889C665.51 113.003 665.986 113.157 666.474 113.351C666.961 113.545 667.413 113.801 667.83 114.118C668.247 114.435 668.583 114.828 668.839 115.297C669.099 115.766 669.229 116.327 669.229 116.98C669.229 117.804 669.016 118.536 668.59 119.175C668.169 119.814 667.556 120.318 666.751 120.688C665.95 121.057 664.982 121.241 663.846 121.241C662.757 121.241 661.815 121.069 661.019 120.723C660.224 120.377 659.601 119.887 659.151 119.253C658.701 118.614 658.453 117.856 658.405 116.98H660.607C660.65 117.506 660.82 117.944 661.118 118.294C661.422 118.64 661.807 118.898 662.276 119.068C662.75 119.234 663.268 119.317 663.832 119.317C664.452 119.317 665.003 119.22 665.486 119.026C665.974 118.827 666.358 118.552 666.637 118.202C666.916 117.847 667.056 117.432 667.056 116.959C667.056 116.528 666.933 116.175 666.687 115.901C666.445 115.626 666.116 115.399 665.699 115.219C665.288 115.039 664.821 114.88 664.3 114.743L662.582 114.274C661.417 113.957 660.493 113.491 659.812 112.875C659.135 112.259 658.796 111.445 658.796 110.432C658.796 109.594 659.023 108.862 659.478 108.237C659.932 107.612 660.548 107.127 661.324 106.781C662.101 106.431 662.977 106.256 663.952 106.256C664.937 106.256 665.806 106.429 666.559 106.774C667.316 107.12 667.913 107.596 668.349 108.202C668.784 108.803 669.011 109.494 669.03 110.276H666.914ZM673.805 114.523V121H671.681V106.455H673.777V111.866H673.911C674.167 111.279 674.558 110.813 675.083 110.467C675.609 110.122 676.295 109.949 677.143 109.949C677.891 109.949 678.545 110.103 679.103 110.411C679.667 110.718 680.102 111.178 680.41 111.788C680.723 112.394 680.879 113.152 680.879 114.061V121H678.755V114.317C678.755 113.517 678.549 112.896 678.137 112.456C677.725 112.011 677.152 111.788 676.419 111.788C675.917 111.788 675.467 111.895 675.069 112.108C674.676 112.321 674.366 112.634 674.139 113.045C673.916 113.453 673.805 113.945 673.805 114.523ZM683.713 121V110.091H685.836V121H683.713ZM684.785 108.408C684.416 108.408 684.098 108.285 683.833 108.038C683.573 107.787 683.443 107.489 683.443 107.143C683.443 106.793 683.573 106.495 683.833 106.249C684.098 105.998 684.416 105.872 684.785 105.872C685.154 105.872 685.469 105.998 685.73 106.249C685.995 106.495 686.127 106.793 686.127 107.143C686.127 107.489 685.995 107.787 685.73 108.038C685.469 108.285 685.154 108.408 684.785 108.408ZM693.395 121.22C692.32 121.22 691.394 120.991 690.618 120.531C689.846 120.067 689.249 119.416 688.828 118.578C688.411 117.735 688.203 116.748 688.203 115.616C688.203 114.499 688.411 113.514 688.828 112.662C689.249 111.81 689.837 111.144 690.589 110.666C691.347 110.188 692.232 109.949 693.246 109.949C693.861 109.949 694.458 110.051 695.035 110.254C695.613 110.458 696.132 110.777 696.591 111.213C697.05 111.649 697.412 112.214 697.677 112.911C697.943 113.602 698.075 114.442 698.075 115.432V116.185H689.403V114.594H695.994C695.994 114.035 695.881 113.54 695.653 113.109C695.426 112.674 695.106 112.33 694.694 112.08C694.287 111.829 693.809 111.703 693.26 111.703C692.663 111.703 692.142 111.85 691.697 112.143C691.257 112.432 690.916 112.811 690.675 113.28C690.438 113.744 690.319 114.248 690.319 114.793V116.036C690.319 116.765 690.447 117.385 690.703 117.896C690.963 118.408 691.326 118.798 691.79 119.068C692.254 119.333 692.796 119.466 693.416 119.466C693.819 119.466 694.185 119.409 694.517 119.295C694.848 119.177 695.135 119.002 695.376 118.77C695.618 118.538 695.802 118.251 695.93 117.911L697.94 118.273C697.779 118.865 697.49 119.383 697.074 119.828C696.662 120.268 696.143 120.612 695.518 120.858C694.898 121.099 694.19 121.22 693.395 121.22ZM702.555 106.455V121H700.431V106.455H702.555ZM709.496 121.213C708.615 121.213 707.829 120.988 707.138 120.538C706.451 120.084 705.911 119.437 705.518 118.599C705.13 117.757 704.936 116.746 704.936 115.567C704.936 114.388 705.132 113.379 705.525 112.541C705.923 111.703 706.468 111.062 707.159 110.616C707.85 110.171 708.634 109.949 709.51 109.949C710.187 109.949 710.731 110.062 711.143 110.29C711.56 110.512 711.882 110.773 712.109 111.071C712.341 111.369 712.521 111.632 712.649 111.859H712.777V106.455H714.9V121H712.827V119.303H712.649C712.521 119.535 712.337 119.8 712.095 120.098C711.858 120.396 711.532 120.657 711.115 120.879C710.698 121.102 710.158 121.213 709.496 121.213ZM709.964 119.402C710.575 119.402 711.091 119.241 711.513 118.919C711.939 118.592 712.261 118.14 712.479 117.562C712.701 116.985 712.812 116.312 712.812 115.545C712.812 114.788 712.703 114.125 712.486 113.557C712.268 112.989 711.948 112.546 711.527 112.229C711.105 111.911 710.585 111.753 709.964 111.753C709.325 111.753 708.792 111.919 708.366 112.25C707.94 112.581 707.618 113.034 707.4 113.607C707.187 114.179 707.081 114.826 707.081 115.545C707.081 116.275 707.19 116.93 707.408 117.513C707.625 118.095 707.947 118.557 708.373 118.898C708.804 119.234 709.335 119.402 709.964 119.402ZM726.106 112.754L724.181 113.095C724.101 112.849 723.973 112.615 723.798 112.392C723.627 112.17 723.395 111.987 723.102 111.845C722.808 111.703 722.441 111.632 722.001 111.632C721.4 111.632 720.898 111.767 720.495 112.037C720.093 112.302 719.892 112.645 719.892 113.067C719.892 113.431 720.027 113.725 720.296 113.947C720.566 114.17 721.002 114.352 721.603 114.494L723.336 114.892C724.34 115.124 725.088 115.482 725.58 115.964C726.073 116.447 726.319 117.075 726.319 117.847C726.319 118.5 726.13 119.082 725.751 119.594C725.377 120.1 724.854 120.498 724.181 120.787C723.514 121.076 722.74 121.22 721.859 121.22C720.637 121.22 719.641 120.96 718.869 120.439C718.097 119.913 717.624 119.168 717.448 118.202L719.501 117.889C719.629 118.424 719.892 118.829 720.289 119.104C720.687 119.374 721.205 119.509 721.845 119.509C722.541 119.509 723.097 119.364 723.514 119.075C723.93 118.782 724.139 118.424 724.139 118.003C724.139 117.662 724.011 117.375 723.755 117.143C723.504 116.911 723.118 116.736 722.598 116.618L720.751 116.213C719.733 115.981 718.98 115.612 718.492 115.105C718.009 114.598 717.768 113.957 717.768 113.18C717.768 112.536 717.948 111.973 718.308 111.49C718.668 111.007 719.165 110.631 719.799 110.361C720.434 110.086 721.161 109.949 721.98 109.949C723.159 109.949 724.087 110.205 724.764 110.716C725.441 111.223 725.888 111.902 726.106 112.754Z" fill="#C2C2C2"/>
<path d="M505.179 150.185H502.963C502.878 149.711 502.719 149.295 502.487 148.935C502.255 148.575 501.971 148.269 501.635 148.018C501.299 147.768 500.922 147.578 500.506 147.45C500.094 147.322 499.656 147.259 499.192 147.259C498.354 147.259 497.603 147.469 496.94 147.891C496.282 148.312 495.761 148.93 495.378 149.744C494.999 150.559 494.81 151.553 494.81 152.727C494.81 153.911 494.999 154.91 495.378 155.724C495.761 156.539 496.284 157.154 496.947 157.571C497.61 157.988 498.356 158.196 499.185 158.196C499.644 158.196 500.079 158.134 500.491 158.011C500.908 157.884 501.284 157.696 501.621 157.45C501.957 157.204 502.241 156.903 502.473 156.548C502.71 156.188 502.873 155.777 502.963 155.312L505.179 155.32C505.06 156.035 504.831 156.693 504.49 157.294C504.154 157.891 503.721 158.407 503.19 158.842C502.665 159.273 502.063 159.607 501.386 159.844C500.709 160.08 499.971 160.199 499.17 160.199C497.911 160.199 496.789 159.901 495.804 159.304C494.819 158.703 494.042 157.843 493.474 156.726C492.911 155.608 492.629 154.276 492.629 152.727C492.629 151.174 492.913 149.841 493.481 148.729C494.05 147.611 494.826 146.754 495.811 146.158C496.796 145.556 497.916 145.256 499.17 145.256C499.942 145.256 500.662 145.367 501.329 145.589C502.002 145.807 502.605 146.129 503.141 146.555C503.676 146.977 504.118 147.493 504.469 148.104C504.819 148.71 505.056 149.403 505.179 150.185ZM507.634 160V149.091H509.687V150.824H509.801C510 150.237 510.35 149.775 510.852 149.439C511.358 149.098 511.931 148.928 512.571 148.928C512.703 148.928 512.859 148.932 513.039 148.942C513.224 148.951 513.368 148.963 513.473 148.977V151.009C513.387 150.985 513.236 150.959 513.018 150.93C512.8 150.897 512.582 150.881 512.365 150.881C511.863 150.881 511.415 150.987 511.022 151.2C510.634 151.409 510.326 151.7 510.099 152.074C509.872 152.443 509.758 152.865 509.758 153.338V160H507.634ZM516.985 164.091C516.667 164.091 516.379 164.065 516.118 164.013C515.858 163.965 515.664 163.913 515.536 163.857L516.047 162.116C516.435 162.221 516.781 162.266 517.084 162.251C517.387 162.237 517.655 162.124 517.887 161.911C518.123 161.697 518.332 161.349 518.512 160.866L518.774 160.142L514.783 149.091H517.056L519.818 157.557H519.932L522.695 149.091H524.975L520.479 161.456C520.271 162.024 520.005 162.505 519.683 162.898C519.362 163.295 518.978 163.594 518.533 163.793C518.088 163.991 517.572 164.091 516.985 164.091ZM531.194 160.22C530.172 160.22 529.279 159.986 528.517 159.517C527.755 159.048 527.163 158.393 526.741 157.55C526.32 156.707 526.109 155.722 526.109 154.595C526.109 153.464 526.32 152.474 526.741 151.626C527.163 150.779 527.755 150.121 528.517 149.652C529.279 149.183 530.172 148.949 531.194 148.949C532.217 148.949 533.11 149.183 533.872 149.652C534.634 150.121 535.226 150.779 535.648 151.626C536.069 152.474 536.28 153.464 536.28 154.595C536.28 155.722 536.069 156.707 535.648 157.55C535.226 158.393 534.634 159.048 533.872 159.517C533.11 159.986 532.217 160.22 531.194 160.22ZM531.202 158.438C531.864 158.438 532.414 158.262 532.849 157.912C533.285 157.562 533.607 157.095 533.815 156.513C534.028 155.93 534.135 155.289 534.135 154.588C534.135 153.892 534.028 153.253 533.815 152.67C533.607 152.083 533.285 151.612 532.849 151.257C532.414 150.902 531.864 150.724 531.202 150.724C530.534 150.724 529.98 150.902 529.54 151.257C529.104 151.612 528.78 152.083 528.567 152.67C528.358 153.253 528.254 153.892 528.254 154.588C528.254 155.289 528.358 155.93 528.567 156.513C528.78 157.095 529.104 157.562 529.54 157.912C529.98 158.262 530.534 158.438 531.202 158.438ZM546.825 151.754L544.9 152.095C544.82 151.849 544.692 151.615 544.517 151.392C544.346 151.17 544.114 150.987 543.821 150.845C543.527 150.703 543.16 150.632 542.72 150.632C542.118 150.632 541.616 150.767 541.214 151.037C540.812 151.302 540.61 151.645 540.61 152.067C540.61 152.431 540.745 152.725 541.015 152.947C541.285 153.17 541.721 153.352 542.322 153.494L544.055 153.892C545.059 154.124 545.807 154.482 546.299 154.964C546.792 155.447 547.038 156.075 547.038 156.847C547.038 157.5 546.848 158.082 546.47 158.594C546.096 159.1 545.572 159.498 544.9 159.787C544.232 160.076 543.458 160.22 542.578 160.22C541.356 160.22 540.359 159.96 539.588 159.439C538.816 158.913 538.342 158.168 538.167 157.202L540.22 156.889C540.348 157.424 540.61 157.829 541.008 158.104C541.406 158.374 541.924 158.509 542.563 158.509C543.259 158.509 543.816 158.364 544.232 158.075C544.649 157.782 544.857 157.424 544.857 157.003C544.857 156.662 544.73 156.375 544.474 156.143C544.223 155.911 543.837 155.736 543.316 155.618L541.47 155.213C540.452 154.981 539.699 154.612 539.211 154.105C538.728 153.598 538.487 152.957 538.487 152.18C538.487 151.536 538.667 150.973 539.027 150.49C539.386 150.007 539.884 149.631 540.518 149.361C541.152 149.086 541.879 148.949 542.698 148.949C543.877 148.949 544.805 149.205 545.482 149.716C546.16 150.223 546.607 150.902 546.825 151.754ZM554.465 149.091V150.795H548.506V149.091H554.465ZM550.104 146.477H552.228V156.797C552.228 157.209 552.289 157.519 552.413 157.727C552.536 157.931 552.694 158.071 552.888 158.146C553.087 158.217 553.303 158.253 553.535 158.253C553.705 158.253 553.854 158.241 553.982 158.217C554.11 158.194 554.209 158.175 554.28 158.161L554.664 159.915C554.541 159.962 554.366 160.009 554.138 160.057C553.911 160.109 553.627 160.137 553.286 160.142C552.727 160.152 552.207 160.052 551.724 159.844C551.241 159.635 550.85 159.313 550.552 158.878C550.253 158.442 550.104 157.895 550.104 157.237V146.477ZM559.989 160.241C559.298 160.241 558.673 160.114 558.114 159.858C557.555 159.598 557.112 159.221 556.786 158.729C556.464 158.236 556.303 157.633 556.303 156.918C556.303 156.302 556.421 155.795 556.658 155.398C556.895 155 557.214 154.685 557.617 154.453C558.019 154.221 558.469 154.046 558.966 153.928C559.463 153.809 559.97 153.719 560.486 153.658C561.139 153.582 561.67 153.52 562.077 153.473C562.484 153.421 562.78 153.338 562.965 153.224C563.149 153.111 563.242 152.926 563.242 152.67V152.621C563.242 152 563.067 151.52 562.716 151.179C562.37 150.838 561.854 150.668 561.168 150.668C560.453 150.668 559.889 150.826 559.478 151.143C559.07 151.456 558.789 151.804 558.632 152.188L556.637 151.733C556.873 151.07 557.219 150.535 557.674 150.128C558.133 149.716 558.661 149.418 559.257 149.233C559.854 149.044 560.481 148.949 561.139 148.949C561.575 148.949 562.037 149.001 562.524 149.105C563.017 149.205 563.476 149.389 563.902 149.659C564.333 149.929 564.686 150.315 564.96 150.817C565.235 151.314 565.372 151.96 565.372 152.756V160H563.299V158.509H563.213C563.076 158.783 562.87 159.053 562.595 159.318C562.321 159.583 561.968 159.804 561.537 159.979C561.106 160.154 560.59 160.241 559.989 160.241ZM560.451 158.537C561.038 158.537 561.54 158.421 561.956 158.189C562.378 157.957 562.697 157.654 562.915 157.28C563.138 156.901 563.249 156.496 563.249 156.065V154.659C563.173 154.735 563.026 154.806 562.808 154.872C562.595 154.934 562.352 154.988 562.077 155.036C561.802 155.078 561.535 155.118 561.274 155.156C561.014 155.189 560.796 155.218 560.621 155.241C560.209 155.294 559.833 155.381 559.492 155.504C559.156 155.627 558.886 155.805 558.682 156.037C558.483 156.264 558.384 156.567 558.384 156.946C558.384 157.472 558.578 157.869 558.966 158.139C559.354 158.404 559.849 158.537 560.451 158.537ZM573.293 149.091V150.795H567.334V149.091H573.293ZM568.932 146.477H571.056V156.797C571.056 157.209 571.118 157.519 571.241 157.727C571.364 157.931 571.522 158.071 571.716 158.146C571.915 158.217 572.131 158.253 572.363 158.253C572.533 158.253 572.682 158.241 572.81 158.217C572.938 158.194 573.038 158.175 573.109 158.161L573.492 159.915C573.369 159.962 573.194 160.009 572.966 160.057C572.739 160.109 572.455 160.137 572.114 160.142C571.556 160.152 571.035 160.052 570.552 159.844C570.069 159.635 569.678 159.313 569.38 158.878C569.082 158.442 568.932 157.895 568.932 157.237V146.477ZM581.106 160V145.455H583.3V151.776H590.552V145.455H592.753V160H590.552V153.658H583.3V160H581.106ZM600.374 160.22C599.351 160.22 598.459 159.986 597.697 159.517C596.934 159.048 596.342 158.393 595.921 157.55C595.5 156.707 595.289 155.722 595.289 154.595C595.289 153.464 595.5 152.474 595.921 151.626C596.342 150.779 596.934 150.121 597.697 149.652C598.459 149.183 599.351 148.949 600.374 148.949C601.397 148.949 602.289 149.183 603.052 149.652C603.814 150.121 604.406 150.779 604.827 151.626C605.249 152.474 605.459 153.464 605.459 154.595C605.459 155.722 605.249 156.707 604.827 157.55C604.406 158.393 603.814 159.048 603.052 159.517C602.289 159.986 601.397 160.22 600.374 160.22ZM600.381 158.438C601.044 158.438 601.593 158.262 602.029 157.912C602.465 157.562 602.787 157.095 602.995 156.513C603.208 155.93 603.315 155.289 603.315 154.588C603.315 153.892 603.208 153.253 602.995 152.67C602.787 152.083 602.465 151.612 602.029 151.257C601.593 150.902 601.044 150.724 600.381 150.724C599.714 150.724 599.16 150.902 598.719 151.257C598.284 151.612 597.959 152.083 597.746 152.67C597.538 153.253 597.434 153.892 597.434 154.588C597.434 155.289 597.538 155.93 597.746 156.513C597.959 157.095 598.284 157.562 598.719 157.912C599.16 158.262 599.714 158.438 600.381 158.438ZM614.74 155.476V149.091H616.871V160H614.783V158.111H614.669C614.418 158.693 614.016 159.179 613.462 159.567C612.913 159.95 612.228 160.142 611.409 160.142C610.709 160.142 610.088 159.988 609.549 159.68C609.013 159.368 608.592 158.906 608.284 158.295C607.981 157.685 607.83 156.929 607.83 156.03V149.091H609.953V155.774C609.953 156.518 610.159 157.109 610.571 157.55C610.983 157.99 611.518 158.21 612.176 158.21C612.574 158.21 612.969 158.111 613.362 157.912C613.76 157.713 614.089 157.412 614.35 157.01C614.615 156.607 614.745 156.096 614.74 155.476ZM627.899 151.754L625.974 152.095C625.894 151.849 625.766 151.615 625.591 151.392C625.42 151.17 625.188 150.987 624.895 150.845C624.601 150.703 624.234 150.632 623.794 150.632C623.193 150.632 622.691 150.767 622.288 151.037C621.886 151.302 621.685 151.645 621.685 152.067C621.685 152.431 621.819 152.725 622.089 152.947C622.359 153.17 622.795 153.352 623.396 153.494L625.129 153.892C626.133 154.124 626.881 154.482 627.373 154.964C627.866 155.447 628.112 156.075 628.112 156.847C628.112 157.5 627.923 158.082 627.544 158.594C627.17 159.1 626.647 159.498 625.974 159.787C625.307 160.076 624.533 160.22 623.652 160.22C622.43 160.22 621.434 159.96 620.662 159.439C619.89 158.913 619.417 158.168 619.241 157.202L621.294 156.889C621.422 157.424 621.685 157.829 622.082 158.104C622.48 158.374 622.998 158.509 623.638 158.509C624.334 158.509 624.89 158.364 625.307 158.075C625.723 157.782 625.932 157.424 625.932 157.003C625.932 156.662 625.804 156.375 625.548 156.143C625.297 155.911 624.911 155.736 624.391 155.618L622.544 155.213C621.526 154.981 620.773 154.612 620.285 154.105C619.802 153.598 619.561 152.957 619.561 152.18C619.561 151.536 619.741 150.973 620.101 150.49C620.461 150.007 620.958 149.631 621.592 149.361C622.227 149.086 622.953 148.949 623.773 148.949C624.952 148.949 625.88 149.205 626.557 149.716C627.234 150.223 627.681 150.902 627.899 151.754ZM630.447 160V149.091H632.571V160H630.447ZM631.519 147.408C631.15 147.408 630.833 147.285 630.568 147.038C630.307 146.787 630.177 146.489 630.177 146.143C630.177 145.793 630.307 145.495 630.568 145.249C630.833 144.998 631.15 144.872 631.519 144.872C631.889 144.872 632.204 144.998 632.464 145.249C632.729 145.495 632.862 145.793 632.862 146.143C632.862 146.489 632.729 146.787 632.464 147.038C632.204 147.285 631.889 147.408 631.519 147.408ZM637.551 153.523V160H635.427V149.091H637.466V150.866H637.601C637.852 150.289 638.245 149.825 638.78 149.474C639.319 149.124 639.999 148.949 640.818 148.949C641.561 148.949 642.212 149.105 642.771 149.418C643.33 149.725 643.763 150.185 644.071 150.795C644.379 151.406 644.533 152.161 644.533 153.061V160H642.409V153.317C642.409 152.526 642.203 151.908 641.791 151.463C641.379 151.013 640.813 150.788 640.094 150.788C639.601 150.788 639.163 150.895 638.78 151.108C638.401 151.321 638.1 151.634 637.878 152.045C637.66 152.453 637.551 152.945 637.551 153.523ZM651.954 164.318C651.088 164.318 650.342 164.205 649.717 163.977C649.097 163.75 648.59 163.449 648.197 163.075C647.804 162.701 647.511 162.292 647.317 161.847L649.142 161.094C649.27 161.302 649.44 161.522 649.653 161.754C649.871 161.991 650.165 162.192 650.534 162.358C650.908 162.524 651.389 162.607 651.976 162.607C652.781 162.607 653.446 162.41 653.971 162.017C654.497 161.629 654.76 161.009 654.76 160.156V158.011H654.625C654.497 158.243 654.312 158.501 654.071 158.786C653.834 159.07 653.507 159.316 653.091 159.524C652.674 159.732 652.132 159.837 651.464 159.837C650.603 159.837 649.826 159.635 649.135 159.233C648.448 158.826 647.904 158.227 647.501 157.436C647.104 156.641 646.905 155.663 646.905 154.503C646.905 153.343 647.101 152.348 647.494 151.52C647.892 150.691 648.436 150.057 649.128 149.616C649.819 149.171 650.603 148.949 651.479 148.949C652.156 148.949 652.703 149.062 653.119 149.29C653.536 149.512 653.86 149.773 654.092 150.071C654.329 150.369 654.511 150.632 654.639 150.859H654.795V149.091H656.876V160.241C656.876 161.179 656.658 161.948 656.223 162.55C655.787 163.151 655.198 163.596 654.454 163.885C653.716 164.174 652.882 164.318 651.954 164.318ZM651.933 158.075C652.544 158.075 653.06 157.933 653.481 157.649C653.908 157.36 654.23 156.948 654.447 156.413C654.67 155.874 654.781 155.227 654.781 154.474C654.781 153.741 654.672 153.094 654.454 152.536C654.237 151.977 653.917 151.541 653.496 151.229C653.074 150.911 652.553 150.753 651.933 150.753C651.294 150.753 650.761 150.919 650.335 151.25C649.909 151.577 649.587 152.022 649.369 152.585C649.156 153.149 649.05 153.778 649.05 154.474C649.05 155.189 649.158 155.817 649.376 156.357C649.594 156.896 649.916 157.318 650.342 157.621C650.773 157.924 651.303 158.075 651.933 158.075Z" fill="#282828"/>
<path d="M7.77162 244.455V259H5.56991V246.656H5.48469L2.00457 248.929V246.827L5.63383 244.455H7.77162ZM17.1981 259V244.455H19.3927V251.401H19.5703L25.6711 244.455H28.4339L22.5674 251.003L28.4552 259H25.8132L21.1115 252.501L19.3927 254.476V259H17.1981ZM34.2098 259.22C33.135 259.22 32.2094 258.991 31.4328 258.531C30.6611 258.067 30.0645 257.416 29.6431 256.578C29.2264 255.735 29.0181 254.748 29.0181 253.616C29.0181 252.499 29.2264 251.514 29.6431 250.662C30.0645 249.81 30.6516 249.144 31.4044 248.666C32.162 248.188 33.0474 247.949 34.0607 247.949C34.6762 247.949 35.2728 248.051 35.8505 248.254C36.4281 248.458 36.9466 248.777 37.4059 249.213C37.8651 249.649 38.2273 250.214 38.4925 250.911C38.7577 251.602 38.8902 252.442 38.8902 253.432V254.185H30.2184V252.594H36.8093C36.8093 252.035 36.6956 251.54 36.4684 251.109C36.2411 250.674 35.9215 250.33 35.5095 250.08C35.1023 249.829 34.6241 249.703 34.0749 249.703C33.4783 249.703 32.9575 249.85 32.5124 250.143C32.072 250.432 31.7311 250.811 31.4897 251.28C31.2529 251.744 31.1345 252.248 31.1345 252.793V254.036C31.1345 254.765 31.2624 255.385 31.5181 255.896C31.7785 256.408 32.1407 256.798 32.6047 257.068C33.0687 257.333 33.6109 257.466 34.2311 257.466C34.6336 257.466 35.0005 257.409 35.332 257.295C35.6634 257.177 35.9499 257.002 36.1914 256.77C36.4328 256.538 36.6175 256.251 36.7453 255.911L38.7553 256.273C38.5943 256.865 38.3055 257.383 37.8888 257.828C37.4769 258.268 36.9584 258.612 36.3334 258.858C35.7131 259.099 35.0053 259.22 34.2098 259.22ZM43.37 244.455V259H41.2464V244.455H43.37ZM55.5593 248.091L51.6033 259H49.3306L45.3675 248.091H47.6473L50.4101 256.486H50.5237L53.2794 248.091H55.5593ZM57.555 259V248.091H59.6786V259H57.555ZM58.6274 246.408C58.2581 246.408 57.9409 246.285 57.6757 246.038C57.4153 245.787 57.2851 245.489 57.2851 245.143C57.2851 244.793 57.4153 244.495 57.6757 244.249C57.9409 243.998 58.2581 243.872 58.6274 243.872C58.9968 243.872 59.3116 243.998 59.572 244.249C59.8372 244.495 59.9698 244.793 59.9698 245.143C59.9698 245.489 59.8372 245.787 59.572 246.038C59.3116 246.285 58.9968 246.408 58.6274 246.408ZM64.659 252.523V259H62.5355V248.091H64.5738V249.866H64.7088C64.9597 249.289 65.3527 248.825 65.8877 248.474C66.4275 248.124 67.107 247.949 67.9261 247.949C68.6695 247.949 69.3205 248.105 69.8792 248.418C70.4379 248.725 70.8712 249.185 71.1789 249.795C71.4867 250.406 71.6406 251.161 71.6406 252.061V259H69.517V252.317C69.517 251.526 69.311 250.908 68.8991 250.463C68.4872 250.013 67.9214 249.788 67.2017 249.788C66.7092 249.788 66.2713 249.895 65.8877 250.108C65.509 250.321 65.2083 250.634 64.9858 251.045C64.7679 251.453 64.659 251.945 64.659 252.523ZM87.8853 248.276C87.8095 247.603 87.497 247.082 86.9478 246.713C86.3985 246.339 85.7072 246.152 84.8739 246.152C84.2773 246.152 83.7612 246.247 83.3256 246.436C82.89 246.621 82.5514 246.876 82.31 247.203C82.0732 247.525 81.9549 247.892 81.9549 248.304C81.9549 248.65 82.0353 248.948 82.1963 249.199C82.3621 249.45 82.5775 249.661 82.8426 249.831C83.1125 249.997 83.4014 250.136 83.7091 250.25C84.0169 250.359 84.3128 250.449 84.5969 250.52L86.0174 250.889C86.4814 251.003 86.9572 251.157 87.4449 251.351C87.9326 251.545 88.3848 251.801 88.8014 252.118C89.2181 252.435 89.5543 252.828 89.81 253.297C90.0704 253.766 90.2006 254.327 90.2006 254.98C90.2006 255.804 89.9875 256.536 89.5614 257.175C89.14 257.814 88.5268 258.318 87.7219 258.688C86.9217 259.057 85.9534 259.241 84.8171 259.241C83.7281 259.241 82.7858 259.069 81.9904 258.723C81.1949 258.377 80.5723 257.887 80.1225 257.253C79.6727 256.614 79.4241 255.856 79.3767 254.98H81.5784C81.621 255.506 81.7915 255.944 82.0898 256.294C82.3928 256.64 82.7787 256.898 83.2475 257.068C83.721 257.234 84.2394 257.317 84.8029 257.317C85.4231 257.317 85.9747 257.22 86.4577 257.026C86.9454 256.827 87.3289 256.552 87.6083 256.202C87.8876 255.847 88.0273 255.432 88.0273 254.959C88.0273 254.528 87.9042 254.175 87.658 253.901C87.4165 253.626 87.0874 253.399 86.6708 253.219C86.2588 253.039 85.7925 252.88 85.2716 252.743L83.5529 252.274C82.3881 251.957 81.4648 251.491 80.783 250.875C80.1059 250.259 79.7674 249.445 79.7674 248.432C79.7674 247.594 79.9946 246.862 80.4492 246.237C80.9037 245.612 81.5193 245.127 82.2958 244.781C83.0723 244.431 83.9482 244.256 84.9236 244.256C85.9085 244.256 86.7773 244.429 87.5301 244.774C88.2877 245.12 88.8843 245.596 89.3199 246.202C89.7555 246.803 89.9828 247.494 90.0017 248.276H87.8853ZM97.745 248.091V249.795H91.7862V248.091H97.745ZM93.3842 245.477H95.5078V255.797C95.5078 256.209 95.5693 256.519 95.6924 256.727C95.8155 256.931 95.9742 257.071 96.1683 257.146C96.3671 257.217 96.5826 257.253 96.8146 257.253C96.985 257.253 97.1342 257.241 97.262 257.217C97.3899 257.194 97.4893 257.175 97.5603 257.161L97.9438 258.915C97.8207 258.962 97.6456 259.009 97.4183 259.057C97.191 259.109 96.9069 259.137 96.566 259.142C96.0073 259.152 95.4865 259.052 95.0035 258.844C94.5206 258.635 94.1299 258.313 93.8316 257.878C93.5333 257.442 93.3842 256.895 93.3842 256.237V245.477ZM103.269 259.241C102.577 259.241 101.952 259.114 101.394 258.858C100.835 258.598 100.392 258.221 100.066 257.729C99.7437 257.236 99.5827 256.633 99.5827 255.918C99.5827 255.302 99.7011 254.795 99.9378 254.398C100.175 254 100.494 253.685 100.897 253.453C101.299 253.221 101.749 253.046 102.246 252.928C102.743 252.809 103.25 252.719 103.766 252.658C104.419 252.582 104.95 252.52 105.357 252.473C105.764 252.421 106.06 252.338 106.245 252.224C106.429 252.111 106.522 251.926 106.522 251.67V251.621C106.522 251 106.346 250.52 105.996 250.179C105.65 249.838 105.134 249.668 104.448 249.668C103.733 249.668 103.169 249.826 102.757 250.143C102.35 250.456 102.068 250.804 101.912 251.188L99.9165 250.733C100.153 250.07 100.499 249.535 100.953 249.128C101.413 248.716 101.941 248.418 102.537 248.233C103.134 248.044 103.761 247.949 104.419 247.949C104.855 247.949 105.317 248.001 105.804 248.105C106.297 248.205 106.756 248.389 107.182 248.659C107.613 248.929 107.966 249.315 108.24 249.817C108.515 250.314 108.652 250.96 108.652 251.756V259H106.578V257.509H106.493C106.356 257.783 106.15 258.053 105.875 258.318C105.601 258.583 105.248 258.804 104.817 258.979C104.386 259.154 103.87 259.241 103.269 259.241ZM103.73 257.537C104.318 257.537 104.819 257.421 105.236 257.189C105.658 256.957 105.977 256.654 106.195 256.28C106.417 255.901 106.529 255.496 106.529 255.065V253.659C106.453 253.735 106.306 253.806 106.088 253.872C105.875 253.934 105.631 253.988 105.357 254.036C105.082 254.078 104.815 254.118 104.554 254.156C104.294 254.189 104.076 254.218 103.901 254.241C103.489 254.294 103.113 254.381 102.772 254.504C102.435 254.627 102.166 254.805 101.962 255.037C101.763 255.264 101.664 255.567 101.664 255.946C101.664 256.472 101.858 256.869 102.246 257.139C102.634 257.404 103.129 257.537 103.73 257.537ZM116.055 263.318C115.188 263.318 114.442 263.205 113.817 262.977C113.197 262.75 112.691 262.449 112.298 262.075C111.905 261.701 111.611 261.292 111.417 260.847L113.242 260.094C113.37 260.302 113.54 260.522 113.754 260.754C113.971 260.991 114.265 261.192 114.634 261.358C115.008 261.524 115.489 261.607 116.076 261.607C116.881 261.607 117.546 261.41 118.072 261.017C118.597 260.629 118.86 260.009 118.86 259.156V257.011H118.725C118.597 257.243 118.413 257.501 118.171 257.786C117.934 258.07 117.608 258.316 117.191 258.524C116.774 258.732 116.232 258.837 115.565 258.837C114.703 258.837 113.926 258.635 113.235 258.233C112.548 257.826 112.004 257.227 111.602 256.436C111.204 255.641 111.005 254.663 111.005 253.503C111.005 252.343 111.201 251.348 111.594 250.52C111.992 249.691 112.537 249.057 113.228 248.616C113.919 248.171 114.703 247.949 115.579 247.949C116.256 247.949 116.803 248.062 117.219 248.29C117.636 248.512 117.96 248.773 118.192 249.071C118.429 249.369 118.611 249.632 118.739 249.859H118.896V248.091H120.977V259.241C120.977 260.179 120.759 260.948 120.323 261.55C119.888 262.151 119.298 262.596 118.555 262.885C117.816 263.174 116.983 263.318 116.055 263.318ZM116.033 257.075C116.644 257.075 117.16 256.933 117.582 256.649C118.008 256.36 118.33 255.948 118.548 255.413C118.77 254.874 118.881 254.227 118.881 253.474C118.881 252.741 118.772 252.094 118.555 251.536C118.337 250.977 118.017 250.541 117.596 250.229C117.174 249.911 116.654 249.753 116.033 249.753C115.394 249.753 114.861 249.919 114.435 250.25C114.009 250.577 113.687 251.022 113.469 251.585C113.256 252.149 113.15 252.778 113.15 253.474C113.15 254.189 113.259 254.817 113.477 255.357C113.694 255.896 114.016 256.318 114.442 256.621C114.873 256.924 115.404 257.075 116.033 257.075ZM128.526 259.22C127.451 259.22 126.526 258.991 125.749 258.531C124.977 258.067 124.381 257.416 123.959 256.578C123.543 255.735 123.334 254.748 123.334 253.616C123.334 252.499 123.543 251.514 123.959 250.662C124.381 249.81 124.968 249.144 125.721 248.666C126.478 248.188 127.364 247.949 128.377 247.949C128.993 247.949 129.589 248.051 130.167 248.254C130.745 248.458 131.263 248.777 131.722 249.213C132.182 249.649 132.544 250.214 132.809 250.911C133.074 251.602 133.207 252.442 133.207 253.432V254.185H124.535V252.594H131.126C131.126 252.035 131.012 251.54 130.785 251.109C130.557 250.674 130.238 250.33 129.826 250.08C129.419 249.829 128.941 249.703 128.391 249.703C127.795 249.703 127.274 249.85 126.829 250.143C126.388 250.432 126.048 250.811 125.806 251.28C125.569 251.744 125.451 252.248 125.451 252.793V254.036C125.451 254.765 125.579 255.385 125.834 255.896C126.095 256.408 126.457 256.798 126.921 257.068C127.385 257.333 127.927 257.466 128.548 257.466C128.95 257.466 129.317 257.409 129.648 257.295C129.98 257.177 130.266 257.002 130.508 256.77C130.749 256.538 130.934 256.251 131.062 255.911L133.072 256.273C132.911 256.865 132.622 257.383 132.205 257.828C131.793 258.268 131.275 258.612 130.65 258.858C130.03 259.099 129.322 259.22 128.526 259.22Z" fill="#DDA85A"/>
<path d="M490.292 196L487.082 185.091H489.277L491.415 193.102H491.521L493.666 185.091H495.861L497.991 193.067H498.098L500.221 185.091H502.416L499.213 196H497.047L494.831 188.124H494.667L492.452 196H490.292ZM504.431 196V185.091H506.555V196H504.431ZM505.504 183.408C505.134 183.408 504.817 183.285 504.552 183.038C504.292 182.787 504.161 182.489 504.161 182.143C504.161 181.793 504.292 181.495 504.552 181.249C504.817 180.998 505.134 180.872 505.504 180.872C505.873 180.872 506.188 180.998 506.448 181.249C506.714 181.495 506.846 181.793 506.846 182.143C506.846 182.489 506.714 182.787 506.448 183.038C506.188 183.285 505.873 183.408 505.504 183.408ZM511.535 189.523V196H509.412V185.091H511.45V186.866H511.585C511.836 186.289 512.229 185.825 512.764 185.474C513.304 185.124 513.983 184.949 514.802 184.949C515.546 184.949 516.197 185.105 516.756 185.418C517.314 185.725 517.748 186.185 518.055 186.795C518.363 187.406 518.517 188.161 518.517 189.061V196H516.393V189.317C516.393 188.526 516.187 187.908 515.775 187.463C515.364 187.013 514.798 186.788 514.078 186.788C513.586 186.788 513.148 186.895 512.764 187.108C512.385 187.321 512.085 187.634 511.862 188.045C511.644 188.453 511.535 188.945 511.535 189.523ZM525.449 196.213C524.568 196.213 523.782 195.988 523.091 195.538C522.404 195.084 521.864 194.437 521.471 193.599C521.083 192.757 520.889 191.746 520.889 190.567C520.889 189.388 521.086 188.379 521.479 187.541C521.876 186.703 522.421 186.062 523.112 185.616C523.803 185.171 524.587 184.949 525.463 184.949C526.14 184.949 526.685 185.062 527.096 185.29C527.513 185.512 527.835 185.773 528.062 186.071C528.294 186.369 528.474 186.632 528.602 186.859H528.73V181.455H530.854V196H528.78V194.303H528.602C528.474 194.535 528.29 194.8 528.048 195.098C527.811 195.396 527.485 195.657 527.068 195.879C526.651 196.102 526.112 196.213 525.449 196.213ZM525.917 194.402C526.528 194.402 527.044 194.241 527.466 193.919C527.892 193.592 528.214 193.14 528.432 192.562C528.654 191.985 528.766 191.312 528.766 190.545C528.766 189.788 528.657 189.125 528.439 188.557C528.221 187.989 527.901 187.546 527.48 187.229C527.059 186.911 526.538 186.753 525.917 186.753C525.278 186.753 524.746 186.919 524.319 187.25C523.893 187.581 523.571 188.034 523.354 188.607C523.141 189.179 523.034 189.826 523.034 190.545C523.034 191.275 523.143 191.93 523.361 192.513C523.578 193.095 523.9 193.557 524.327 193.898C524.757 194.234 525.288 194.402 525.917 194.402ZM538.48 196.22C537.457 196.22 536.564 195.986 535.802 195.517C535.04 195.048 534.448 194.393 534.027 193.55C533.605 192.707 533.394 191.722 533.394 190.595C533.394 189.464 533.605 188.474 534.027 187.626C534.448 186.779 535.04 186.121 535.802 185.652C536.564 185.183 537.457 184.949 538.48 184.949C539.502 184.949 540.395 185.183 541.157 185.652C541.92 186.121 542.511 186.779 542.933 187.626C543.354 188.474 543.565 189.464 543.565 190.595C543.565 191.722 543.354 192.707 542.933 193.55C542.511 194.393 541.92 195.048 541.157 195.517C540.395 195.986 539.502 196.22 538.48 196.22ZM538.487 194.438C539.15 194.438 539.699 194.262 540.134 193.912C540.57 193.562 540.892 193.095 541.1 192.513C541.313 191.93 541.42 191.289 541.42 190.588C541.42 189.892 541.313 189.253 541.1 188.67C540.892 188.083 540.57 187.612 540.134 187.257C539.699 186.902 539.15 186.724 538.487 186.724C537.819 186.724 537.265 186.902 536.825 187.257C536.389 187.612 536.065 188.083 535.852 188.67C535.643 189.253 535.539 189.892 535.539 190.588C535.539 191.289 535.643 191.93 535.852 192.513C536.065 193.095 536.389 193.562 536.825 193.912C537.265 194.262 537.819 194.438 538.487 194.438ZM547.968 196L544.758 185.091H546.953L549.09 193.102H549.197L551.342 185.091H553.536L555.667 193.067H555.774L557.897 185.091H560.092L556.889 196H554.723L552.507 188.124H552.343L550.127 196H547.968ZM570.282 187.754L568.357 188.095C568.277 187.849 568.149 187.615 567.974 187.392C567.803 187.17 567.571 186.987 567.278 186.845C566.984 186.703 566.617 186.632 566.177 186.632C565.575 186.632 565.074 186.767 564.671 187.037C564.269 187.302 564.067 187.645 564.067 188.067C564.067 188.431 564.202 188.725 564.472 188.947C564.742 189.17 565.178 189.352 565.779 189.494L567.512 189.892C568.516 190.124 569.264 190.482 569.756 190.964C570.249 191.447 570.495 192.075 570.495 192.847C570.495 193.5 570.306 194.082 569.927 194.594C569.553 195.1 569.029 195.498 568.357 195.787C567.69 196.076 566.915 196.22 566.035 196.22C564.813 196.22 563.816 195.96 563.045 195.439C562.273 194.913 561.799 194.168 561.624 193.202L563.677 192.889C563.805 193.424 564.067 193.829 564.465 194.104C564.863 194.374 565.381 194.509 566.02 194.509C566.716 194.509 567.273 194.364 567.69 194.075C568.106 193.782 568.315 193.424 568.315 193.003C568.315 192.662 568.187 192.375 567.931 192.143C567.68 191.911 567.294 191.736 566.773 191.618L564.927 191.213C563.909 190.981 563.156 190.612 562.668 190.105C562.185 189.598 561.944 188.957 561.944 188.18C561.944 187.536 562.124 186.973 562.484 186.49C562.843 186.007 563.341 185.631 563.975 185.361C564.609 185.086 565.336 184.949 566.155 184.949C567.334 184.949 568.262 185.205 568.94 185.716C569.617 186.223 570.064 186.902 570.282 187.754Z" fill="#99E4D7"/>
<path d="M347.848 215V200.455H356.868V202.344H350.042V206.776H356.221V208.658H350.042V215H347.848ZM359.396 215V204.091H361.52V215H359.396ZM360.469 202.408C360.099 202.408 359.782 202.285 359.517 202.038C359.257 201.787 359.126 201.489 359.126 201.143C359.126 200.793 359.257 200.495 359.517 200.249C359.782 199.998 360.099 199.872 360.469 199.872C360.838 199.872 361.153 199.998 361.413 200.249C361.678 200.495 361.811 200.793 361.811 201.143C361.811 201.489 361.678 201.787 361.413 202.038C361.153 202.285 360.838 202.408 360.469 202.408ZM366.5 200.455V215H364.377V200.455H366.5ZM374.449 204.091V205.795H368.491V204.091H374.449ZM370.089 201.477H372.212V211.797C372.212 212.209 372.274 212.519 372.397 212.727C372.52 212.931 372.679 213.071 372.873 213.146C373.072 213.217 373.287 213.253 373.519 213.253C373.69 213.253 373.839 213.241 373.966 213.217C374.094 213.194 374.194 213.175 374.265 213.161L374.648 214.915C374.525 214.962 374.35 215.009 374.123 215.057C373.895 215.109 373.611 215.137 373.27 215.142C372.712 215.152 372.191 215.052 371.708 214.844C371.225 214.635 370.834 214.313 370.536 213.878C370.238 213.442 370.089 212.895 370.089 212.237V201.477ZM381.383 215.22C380.308 215.22 379.383 214.991 378.606 214.531C377.834 214.067 377.238 213.416 376.816 212.578C376.4 211.735 376.191 210.748 376.191 209.616C376.191 208.499 376.4 207.514 376.816 206.662C377.238 205.81 377.825 205.144 378.578 204.666C379.335 204.188 380.221 203.949 381.234 203.949C381.849 203.949 382.446 204.051 383.024 204.254C383.601 204.458 384.12 204.777 384.579 205.213C385.038 205.649 385.401 206.214 385.666 206.911C385.931 207.602 386.063 208.442 386.063 209.432V210.185H377.392V208.594H383.982C383.982 208.035 383.869 207.54 383.642 207.109C383.414 206.674 383.095 206.33 382.683 206.08C382.276 205.829 381.797 205.703 381.248 205.703C380.652 205.703 380.131 205.85 379.686 206.143C379.245 206.432 378.904 206.811 378.663 207.28C378.426 207.744 378.308 208.248 378.308 208.793V210.036C378.308 210.765 378.436 211.385 378.691 211.896C378.952 212.408 379.314 212.798 379.778 213.068C380.242 213.333 380.784 213.466 381.404 213.466C381.807 213.466 382.174 213.409 382.505 213.295C382.837 213.177 383.123 213.002 383.365 212.77C383.606 212.538 383.791 212.251 383.919 211.911L385.929 212.273C385.768 212.865 385.479 213.383 385.062 213.828C384.65 214.268 384.132 214.612 383.507 214.858C382.886 215.099 382.179 215.22 381.383 215.22ZM388.42 215V204.091H390.472V205.824H390.586C390.785 205.237 391.135 204.775 391.637 204.439C392.144 204.098 392.716 203.928 393.356 203.928C393.488 203.928 393.645 203.932 393.824 203.942C394.009 203.951 394.154 203.963 394.258 203.977V206.009C394.172 205.985 394.021 205.959 393.803 205.93C393.585 205.897 393.368 205.881 393.15 205.881C392.648 205.881 392.2 205.987 391.807 206.2C391.419 206.409 391.111 206.7 390.884 207.074C390.657 207.443 390.543 207.865 390.543 208.338V215H388.42ZM347.848 239V224.455H353.033C354.159 224.455 355.095 224.649 355.838 225.037C356.586 225.425 357.145 225.963 357.514 226.649C357.883 227.331 358.068 228.119 358.068 229.014C358.068 229.904 357.881 230.688 357.507 231.365C357.138 232.037 356.579 232.561 355.831 232.935C355.087 233.309 354.152 233.496 353.025 233.496H349.098V231.607H352.827C353.537 231.607 354.114 231.505 354.56 231.301C355.009 231.098 355.338 230.802 355.547 230.413C355.755 230.025 355.859 229.559 355.859 229.014C355.859 228.465 355.753 227.989 355.54 227.587C355.331 227.184 355.002 226.876 354.552 226.663C354.107 226.446 353.523 226.337 352.798 226.337H350.042V239H347.848ZM355.028 232.438L358.622 239H356.122L352.599 232.438H355.028ZM365.133 239.22C364.058 239.22 363.133 238.991 362.356 238.531C361.584 238.067 360.988 237.416 360.566 236.578C360.15 235.735 359.941 234.748 359.941 233.616C359.941 232.499 360.15 231.514 360.566 230.662C360.988 229.81 361.575 229.144 362.328 228.666C363.085 228.188 363.971 227.949 364.984 227.949C365.599 227.949 366.196 228.051 366.774 228.254C367.351 228.458 367.87 228.777 368.329 229.213C368.788 229.649 369.151 230.214 369.416 230.911C369.681 231.602 369.813 232.442 369.813 233.432V234.185H361.142V232.594H367.732C367.732 232.035 367.619 231.54 367.392 231.109C367.164 230.674 366.845 230.33 366.433 230.08C366.026 229.829 365.547 229.703 364.998 229.703C364.402 229.703 363.881 229.85 363.436 230.143C362.995 230.432 362.654 230.811 362.413 231.28C362.176 231.744 362.058 232.248 362.058 232.793V234.036C362.058 234.765 362.186 235.385 362.441 235.896C362.702 236.408 363.064 236.798 363.528 237.068C363.992 237.333 364.534 237.466 365.154 237.466C365.557 237.466 365.924 237.409 366.255 237.295C366.587 237.177 366.873 237.002 367.115 236.77C367.356 236.538 367.541 236.251 367.669 235.911L369.679 236.273C369.518 236.865 369.229 237.383 368.812 237.828C368.4 238.268 367.882 238.612 367.257 238.858C366.636 239.099 365.929 239.22 365.133 239.22ZM376.743 243.318C375.877 243.318 375.131 243.205 374.506 242.977C373.886 242.75 373.379 242.449 372.986 242.075C372.593 241.701 372.3 241.292 372.106 240.847L373.931 240.094C374.059 240.302 374.229 240.522 374.442 240.754C374.66 240.991 374.954 241.192 375.323 241.358C375.697 241.524 376.178 241.607 376.765 241.607C377.57 241.607 378.235 241.41 378.761 241.017C379.286 240.629 379.549 240.009 379.549 239.156V237.011H379.414C379.286 237.243 379.101 237.501 378.86 237.786C378.623 238.07 378.297 238.316 377.88 238.524C377.463 238.732 376.921 238.837 376.253 238.837C375.392 238.837 374.615 238.635 373.924 238.233C373.237 237.826 372.693 237.227 372.29 236.436C371.893 235.641 371.694 234.663 371.694 233.503C371.694 232.343 371.89 231.348 372.283 230.52C372.681 229.691 373.225 229.057 373.917 228.616C374.608 228.171 375.392 227.949 376.268 227.949C376.945 227.949 377.492 228.062 377.908 228.29C378.325 228.512 378.649 228.773 378.881 229.071C379.118 229.369 379.3 229.632 379.428 229.859H379.584V228.091H381.665V239.241C381.665 240.179 381.448 240.948 381.012 241.55C380.576 242.151 379.987 242.596 379.243 242.885C378.505 243.174 377.672 243.318 376.743 243.318ZM376.722 237.075C377.333 237.075 377.849 236.933 378.27 236.649C378.697 236.36 379.019 235.948 379.236 235.413C379.459 234.874 379.57 234.227 379.57 233.474C379.57 232.741 379.461 232.094 379.243 231.536C379.026 230.977 378.706 230.541 378.285 230.229C377.863 229.911 377.342 229.753 376.722 229.753C376.083 229.753 375.55 229.919 375.124 230.25C374.698 230.577 374.376 231.022 374.158 231.585C373.945 232.149 373.839 232.778 373.839 233.474C373.839 234.189 373.948 234.817 374.165 235.357C374.383 235.896 374.705 236.318 375.131 236.621C375.562 236.924 376.092 237.075 376.722 237.075ZM384.513 239V228.091H386.637V239H384.513ZM385.586 226.408C385.216 226.408 384.899 226.285 384.634 226.038C384.374 225.787 384.243 225.489 384.243 225.143C384.243 224.793 384.374 224.495 384.634 224.249C384.899 223.998 385.216 223.872 385.586 223.872C385.955 223.872 386.27 223.998 386.53 224.249C386.796 224.495 386.928 224.793 386.928 225.143C386.928 225.489 386.796 225.787 386.53 226.038C386.27 226.285 385.955 226.408 385.586 226.408ZM394.089 239.22C393.066 239.22 392.174 238.986 391.411 238.517C390.649 238.048 390.057 237.393 389.636 236.55C389.214 235.707 389.004 234.722 389.004 233.595C389.004 232.464 389.214 231.474 389.636 230.626C390.057 229.779 390.649 229.121 391.411 228.652C392.174 228.183 393.066 227.949 394.089 227.949C395.112 227.949 396.004 228.183 396.767 228.652C397.529 229.121 398.121 229.779 398.542 230.626C398.964 231.474 399.174 232.464 399.174 233.595C399.174 234.722 398.964 235.707 398.542 236.55C398.121 237.393 397.529 238.048 396.767 238.517C396.004 238.986 395.112 239.22 394.089 239.22ZM394.096 237.438C394.759 237.438 395.308 237.262 395.744 236.912C396.179 236.562 396.501 236.095 396.71 235.513C396.923 234.93 397.029 234.289 397.029 233.588C397.029 232.892 396.923 232.253 396.71 231.67C396.501 231.083 396.179 230.612 395.744 230.257C395.308 229.902 394.759 229.724 394.096 229.724C393.429 229.724 392.875 229.902 392.434 230.257C391.999 230.612 391.674 231.083 391.461 231.67C391.253 232.253 391.149 232.892 391.149 233.588C391.149 234.289 391.253 234.93 391.461 235.513C391.674 236.095 391.999 236.562 392.434 236.912C392.875 237.262 393.429 237.438 394.096 237.438ZM403.668 232.523V239H401.545V228.091H403.583V229.866H403.718C403.969 229.289 404.362 228.825 404.897 228.474C405.437 228.124 406.116 227.949 406.935 227.949C407.679 227.949 408.33 228.105 408.888 228.418C409.447 228.725 409.88 229.185 410.188 229.795C410.496 230.406 410.65 231.161 410.65 232.061V239H408.526V232.317C408.526 231.526 408.32 230.908 407.908 230.463C407.496 230.013 406.931 229.788 406.211 229.788C405.718 229.788 405.28 229.895 404.897 230.108C404.518 230.321 404.217 230.634 403.995 231.045C403.777 231.453 403.668 231.945 403.668 232.523Z" fill="#70A9FF"/>
<path d="M258.061 256.061C258.646 255.475 258.646 254.525 258.061 253.939L248.515 244.393C247.929 243.808 246.979 243.808 246.393 244.393C245.808 244.979 245.808 245.929 246.393 246.515L254.879 255L246.393 263.485C245.808 264.071 245.808 265.021 246.393 265.607C246.979 266.192 247.929 266.192 248.515 265.607L258.061 256.061ZM257 253.5L143 253.5L143 256.5L257 256.5L257 253.5Z" fill="#DDA85A"/>
<path d="M439.439 114.939C438.853 115.525 438.853 116.475 439.439 117.061L448.985 126.607C449.571 127.192 450.521 127.192 451.106 126.607C451.692 126.021 451.692 125.071 451.106 124.485L442.621 116L451.106 107.515C451.692 106.929 451.692 105.979 451.106 105.393C450.521 104.808 449.571 104.808 448.985 105.393L439.439 114.939ZM440.5 117.5H548.5V114.5H440.5V117.5Z" fill="#C2C2C2"/>
<path d="M454.439 153.939C453.853 154.525 453.853 155.475 454.439 156.061L463.985 165.607C464.571 166.192 465.521 166.192 466.106 165.607C466.692 165.021 466.692 164.071 466.106 163.485L457.621 155L466.106 146.515C466.692 145.929 466.692 144.979 466.106 144.393C465.521 143.808 464.571 143.808 463.985 144.393L454.439 153.939ZM455.5 156.5L486.5 156.5L486.5 153.5L455.5 153.5L455.5 156.5Z" fill="#0D0D0D"/>
<path d="M453.386 271.249C453.731 272.003 454.621 272.334 455.374 271.989L467.649 266.369C468.402 266.024 468.733 265.134 468.388 264.38C468.043 263.627 467.153 263.296 466.4 263.641L455.489 268.637L450.494 257.726C450.149 256.973 449.258 256.642 448.505 256.987C447.752 257.332 447.421 258.222 447.766 258.975L453.386 271.249ZM456.156 271.148L483.906 196.523L481.094 195.477L453.344 270.102L456.156 271.148Z" fill="#99E4D7"/>
<path d="M373.793 281.707C374.183 282.098 374.816 282.098 375.207 281.707L381.571 275.343C381.961 274.953 381.961 274.319 381.571 273.929C381.18 273.538 380.547 273.538 380.157 273.929L374.5 279.586L368.843 273.929C368.452 273.538 367.819 273.538 367.429 273.929C367.038 274.319 367.038 274.953 367.429 275.343L373.793 281.707ZM375.5 281V247H373.5V281H375.5Z" fill="#70A9FF"/>
<rect x="1151" y="276" width="89" height="44" fill="#609CF5" fill-opacity="0.08"/>
<rect x="1150" y="275" width="91" height="46" stroke="#4B7ECA" stroke-opacity="0.42" stroke-width="2" stroke-linejoin="round"/>
<rect x="329.5" y="276" width="89" height="44" fill="#609CF5" fill-opacity="0.08"/>
<rect x="328.5" y="275" width="91" height="46" stroke="#4B7ECA" stroke-opacity="0.42" stroke-width="2" stroke-linejoin="round"/>
<rect x="1244" y="273" width="7" height="49" rx="1" fill="#60D6C0" fill-opacity="0.61"/>
<rect x="423.5" y="273" width="7" height="49" rx="1" fill="#60D6C0" fill-opacity="0.61"/>
<rect x="1254" y="273" width="7" height="49" rx="1" fill="#60D6C0" fill-opacity="0.61"/>
<rect x="433.5" y="273" width="7" height="49" rx="1" fill="#60D6C0" fill-opacity="0.61"/>
<rect x="1266" y="273" width="7" height="49" rx="1" fill="#60D6C0" fill-opacity="0.61"/>
<rect x="445.5" y="273" width="7" height="49" rx="1" fill="#60D6C0" fill-opacity="0.61"/>
<path d="M29.4176 32.187V14.7325H40.2415V16.9995H32.0511V22.3177H39.4659V24.5762H32.0511V32.187H29.4176ZM43.2756 32.187V19.0961H45.8239V32.187H43.2756ZM44.5625 17.0762C44.1193 17.0762 43.7386 16.9285 43.4205 16.633C43.108 16.3319 42.9517 15.9739 42.9517 15.5592C42.9517 15.1387 43.108 14.7808 43.4205 14.4853C43.7386 14.1842 44.1193 14.0336 44.5625 14.0336C45.0057 14.0336 45.3835 14.1842 45.696 14.4853C46.0142 14.7808 46.1733 15.1387 46.1733 15.5592C46.1733 15.9739 46.0142 16.3319 45.696 16.633C45.3835 16.9285 45.0057 17.0762 44.5625 17.0762ZM54.7408 37.3688C53.701 37.3688 52.8061 37.2325 52.0561 36.9597C51.3118 36.687 50.7038 36.3262 50.2322 35.8774C49.7607 35.4285 49.4084 34.937 49.1754 34.4029L51.3658 33.4995C51.5192 33.7495 51.7237 34.0137 51.9794 34.2921C52.2408 34.5762 52.593 34.8177 53.0362 35.0166C53.4851 35.2154 54.0618 35.3149 54.7663 35.3149C55.7322 35.3149 56.5305 35.0791 57.1612 34.6075C57.7919 34.1416 58.1072 33.3972 58.1072 32.3745V29.8006H57.9453C57.7919 30.0791 57.5703 30.3887 57.2805 30.7296C56.9964 31.0705 56.6044 31.366 56.1044 31.616C55.6044 31.866 54.9538 31.991 54.1527 31.991C53.1186 31.991 52.1868 31.7495 51.3572 31.2666C50.5334 30.7779 49.88 30.0592 49.397 29.1103C48.9197 28.1558 48.6811 26.9825 48.6811 25.5904C48.6811 24.1984 48.9169 23.0052 49.3885 22.0109C49.8658 21.0166 50.5192 20.2552 51.3487 19.7268C52.1783 19.1927 53.1186 18.9256 54.1697 18.9256C54.9822 18.9256 55.6385 19.062 56.1385 19.3347C56.6385 19.6018 57.0277 19.9143 57.3061 20.2722C57.5902 20.6302 57.8089 20.9455 57.9624 21.2183H58.1499V19.0961H60.647V32.4768C60.647 33.6018 60.3857 34.5251 59.8629 35.2467C59.3402 35.9683 58.6328 36.5024 57.7408 36.8489C56.8544 37.1955 55.8544 37.3688 54.7408 37.3688ZM54.7152 29.8774C55.4482 29.8774 56.0675 29.7069 56.5732 29.366C57.0845 29.0194 57.4709 28.5251 57.7322 27.883C57.9993 27.2353 58.1328 26.4597 58.1328 25.5563C58.1328 24.6756 58.0021 23.9001 57.7408 23.2296C57.4794 22.5592 57.0959 22.0364 56.5902 21.6614C56.0845 21.2808 55.4595 21.0904 54.7152 21.0904C53.9482 21.0904 53.3089 21.2893 52.7976 21.687C52.2862 22.0791 51.8999 22.6131 51.6385 23.2893C51.3828 23.9654 51.255 24.7211 51.255 25.5563C51.255 26.4143 51.3857 27.1671 51.647 27.8149C51.9084 28.4626 52.2947 28.9683 52.8061 29.3319C53.3232 29.6955 53.9595 29.8774 54.7152 29.8774ZM65.7436 32.3489C65.2777 32.3489 64.8771 32.1842 64.5419 31.8546C64.2067 31.5194 64.0391 31.116 64.0391 30.6444C64.0391 30.1785 64.2067 29.7808 64.5419 29.4512C64.8771 29.116 65.2777 28.9484 65.7436 28.9484C66.2095 28.9484 66.6101 29.116 66.9453 29.4512C67.2805 29.7808 67.4482 30.1785 67.4482 30.6444C67.4482 30.9569 67.3686 31.2438 67.2095 31.5052C67.0561 31.7609 66.8516 31.9654 66.5959 32.1188C66.3402 32.2722 66.0561 32.3489 65.7436 32.3489ZM83.5199 14.7325V32.187H80.8778V17.3745H80.7756L76.5994 20.1018V17.5791L80.9545 14.7325H83.5199ZM92.0852 32.4768C91.2557 32.4768 90.5057 32.3234 89.8352 32.0166C89.1648 31.7041 88.6335 31.2524 88.2415 30.6614C87.8551 30.0705 87.6619 29.3461 87.6619 28.4881C87.6619 27.7495 87.804 27.1416 88.0881 26.6643C88.3722 26.187 88.7557 25.8092 89.2386 25.5308C89.7216 25.2524 90.2614 25.0421 90.858 24.9001C91.4545 24.758 92.0625 24.6501 92.6818 24.5762C93.4659 24.4853 94.1023 24.4114 94.5909 24.3546C95.0795 24.2921 95.4347 24.1927 95.6562 24.0563C95.8778 23.92 95.9886 23.6984 95.9886 23.3916V23.3319C95.9886 22.5876 95.7784 22.0109 95.358 21.6018C94.9432 21.1927 94.3239 20.9881 93.5 20.9881C92.642 20.9881 91.9659 21.1785 91.4716 21.5592C90.983 21.9342 90.6449 22.3518 90.4574 22.812L88.0625 22.2666C88.3466 21.4711 88.7614 20.8291 89.3068 20.3404C89.858 19.8461 90.4915 19.4881 91.2074 19.2666C91.9233 19.0393 92.6761 18.9256 93.4659 18.9256C93.9886 18.9256 94.5426 18.9881 95.1278 19.1131C95.7188 19.2325 96.2699 19.4541 96.7812 19.7779C97.2983 20.1018 97.7216 20.5649 98.0511 21.1671C98.3807 21.7637 98.5455 22.5393 98.5455 23.4938V32.187H96.0568V30.3972H95.9545C95.7898 30.7268 95.5426 31.0506 95.2131 31.3688C94.8835 31.687 94.4602 31.9512 93.9432 32.1614C93.4261 32.3717 92.8068 32.4768 92.0852 32.4768ZM92.6392 30.4313C93.3438 30.4313 93.946 30.2921 94.446 30.0137C94.9517 29.7353 95.3352 29.3717 95.5966 28.9228C95.8636 28.4683 95.9972 27.9825 95.9972 27.4654V25.7779C95.9063 25.8688 95.7301 25.9541 95.4688 26.0336C95.2131 26.1075 94.9205 26.1728 94.5909 26.2296C94.2614 26.2808 93.9403 26.3291 93.6278 26.3745C93.3153 26.4143 93.054 26.4484 92.8438 26.4768C92.3494 26.5393 91.8977 26.6444 91.4886 26.7921C91.0852 26.9399 90.7614 27.1529 90.517 27.4313C90.2784 27.7041 90.1591 28.0677 90.1591 28.5222C90.1591 29.1529 90.392 29.6302 90.858 29.9541C91.3239 30.2722 91.9176 30.4313 92.6392 30.4313Z" fill="#282828"/>
<path d="M847.417 32.187V14.7325H858.241V16.9995H850.051V22.3177H857.466V24.5762H850.051V32.187H847.417ZM861.275 32.187V19.0961H863.824V32.187H861.275ZM862.562 17.0762C862.119 17.0762 861.739 16.9285 861.42 16.633C861.108 16.3319 860.952 15.9739 860.952 15.5592C860.952 15.1387 861.108 14.7808 861.42 14.4853C861.739 14.1842 862.119 14.0336 862.562 14.0336C863.006 14.0336 863.383 14.1842 863.696 14.4853C864.014 14.7808 864.173 15.1387 864.173 15.5592C864.173 15.9739 864.014 16.3319 863.696 16.633C863.383 16.9285 863.006 17.0762 862.562 17.0762ZM872.741 37.3688C871.701 37.3688 870.806 37.2325 870.056 36.9597C869.312 36.687 868.704 36.3262 868.232 35.8774C867.761 35.4285 867.408 34.937 867.175 34.4029L869.366 33.4995C869.519 33.7495 869.724 34.0137 869.979 34.2921C870.241 34.5762 870.593 34.8177 871.036 35.0166C871.485 35.2154 872.062 35.3149 872.766 35.3149C873.732 35.3149 874.53 35.0791 875.161 34.6075C875.792 34.1416 876.107 33.3972 876.107 32.3745V29.8006H875.945C875.792 30.0791 875.57 30.3887 875.28 30.7296C874.996 31.0705 874.604 31.366 874.104 31.616C873.604 31.866 872.954 31.991 872.153 31.991C871.118 31.991 870.187 31.7495 869.357 31.2666C868.533 30.7779 867.88 30.0592 867.397 29.1103C866.92 28.1558 866.681 26.9825 866.681 25.5904C866.681 24.1984 866.917 23.0052 867.388 22.0109C867.866 21.0166 868.519 20.2552 869.349 19.7268C870.178 19.1927 871.118 18.9256 872.17 18.9256C872.982 18.9256 873.638 19.062 874.138 19.3347C874.638 19.6018 875.028 19.9143 875.306 20.2722C875.59 20.6302 875.809 20.9455 875.962 21.2183H876.15V19.0961H878.647V32.4768C878.647 33.6018 878.386 34.5251 877.863 35.2467C877.34 35.9683 876.633 36.5024 875.741 36.8489C874.854 37.1955 873.854 37.3688 872.741 37.3688ZM872.715 29.8774C873.448 29.8774 874.067 29.7069 874.573 29.366C875.084 29.0194 875.471 28.5251 875.732 27.883C875.999 27.2353 876.133 26.4597 876.133 25.5563C876.133 24.6756 876.002 23.9001 875.741 23.2296C875.479 22.5592 875.096 22.0364 874.59 21.6614C874.084 21.2808 873.459 21.0904 872.715 21.0904C871.948 21.0904 871.309 21.2893 870.797 21.687C870.286 22.0791 869.9 22.6131 869.638 23.2893C869.383 23.9654 869.255 24.7211 869.255 25.5563C869.255 26.4143 869.386 27.1671 869.647 27.8149C869.908 28.4626 870.295 28.9683 870.806 29.3319C871.323 29.6955 871.959 29.8774 872.715 29.8774ZM883.743 32.3489C883.278 32.3489 882.877 32.1842 882.542 31.8546C882.207 31.5194 882.039 31.116 882.039 30.6444C882.039 30.1785 882.207 29.7808 882.542 29.4512C882.877 29.116 883.278 28.9484 883.743 28.9484C884.209 28.9484 884.61 29.116 884.945 29.4512C885.28 29.7808 885.448 30.1785 885.448 30.6444C885.448 30.9569 885.368 31.2438 885.209 31.5052C885.056 31.7609 884.851 31.9654 884.596 32.1188C884.34 32.2722 884.056 32.3489 883.743 32.3489ZM901.52 14.7325V32.187H898.878V17.3745H898.775L894.599 20.1018V17.5791L898.954 14.7325H901.52ZM906.48 32.187V14.7325H909.028V21.2183H909.182C909.329 20.9455 909.542 20.6302 909.821 20.2722C910.099 19.9143 910.486 19.6018 910.98 19.3347C911.474 19.062 912.128 18.9256 912.94 18.9256C913.997 18.9256 914.94 19.1927 915.77 19.7268C916.599 20.2609 917.25 21.0308 917.721 22.0364C918.199 23.0421 918.437 24.2524 918.437 25.6671C918.437 27.0819 918.202 28.295 917.73 29.3063C917.258 30.312 916.611 31.0876 915.787 31.633C914.963 32.1728 914.023 32.4427 912.966 32.4427C912.17 32.4427 911.52 32.3092 911.014 32.0421C910.514 31.7751 910.122 31.4626 909.838 31.1046C909.554 30.7467 909.335 30.4285 909.182 30.1501H908.969V32.187H906.48ZM908.977 25.6416C908.977 26.562 909.111 27.3688 909.378 28.062C909.645 28.7552 910.031 29.2978 910.537 29.6899C911.042 30.0762 911.662 30.2694 912.395 30.2694C913.156 30.2694 913.792 30.0677 914.304 29.6643C914.815 29.2552 915.202 28.7012 915.463 28.0024C915.73 27.3035 915.864 26.5166 915.864 25.6416C915.864 24.7779 915.733 24.0024 915.471 23.3149C915.216 22.6274 914.829 22.0847 914.312 21.687C913.801 21.2893 913.162 21.0904 912.395 21.0904C911.656 21.0904 911.031 21.2808 910.52 21.6614C910.014 22.0421 909.631 22.5734 909.369 23.2552C909.108 23.937 908.977 24.7325 908.977 25.6416Z" fill="#282828"/>
<path d="M525.363 290.386C525.715 290.738 526.285 290.738 526.636 290.386L532.364 284.659C532.715 284.307 532.715 283.738 532.364 283.386C532.012 283.035 531.443 283.035 531.091 283.386L526 288.477L520.909 283.386C520.557 283.035 519.987 283.035 519.636 283.386C519.284 283.738 519.284 284.307 519.636 284.659L525.363 290.386ZM526.9 289.75L526.9 262.75L525.1 262.75L525.1 289.75L526.9 289.75Z" fill="#0D0D0D"/>
<path d="M526.636 305.364C526.285 305.012 525.715 305.012 525.363 305.364L519.636 311.091C519.284 311.443 519.284 312.012 519.636 312.364C519.987 312.715 520.557 312.715 520.909 312.364L526 307.273L531.091 312.364C531.443 312.715 532.012 312.715 532.364 312.364C532.715 312.012 532.715 311.443 532.364 311.091L526.636 305.364ZM525.1 306L525.1 333L526.9 333L526.9 306L525.1 306Z" fill="#0D0D0D"/>
<path d="M304.293 375.105C303.902 375.496 303.902 376.129 304.293 376.52L310.657 382.884C311.047 383.274 311.681 383.274 312.071 382.884C312.462 382.493 312.462 381.86 312.071 381.469L306.414 375.812L312.071 370.156C312.462 369.765 312.462 369.132 312.071 368.741C311.681 368.351 311.047 368.351 310.657 368.741L304.293 375.105ZM466.207 376.52C466.598 376.129 466.598 375.496 466.207 375.105L459.843 368.741C459.453 368.351 458.819 368.351 458.429 368.741C458.038 369.132 458.038 369.765 458.429 370.156L464.086 375.812L458.429 381.469C458.038 381.86 458.038 382.493 458.429 382.884C458.819 383.274 459.453 383.274 459.843 382.884L466.207 376.52ZM305 376.812H465.5V374.812H305V376.812Z" fill="#979797"/>
<path d="M465.5 375.812V284.812" stroke="black" stroke-opacity="0.32" stroke-width="2" stroke-dasharray="4 4"/>
<path d="M305 378V287" stroke="black" stroke-opacity="0.3" stroke-width="2" stroke-dasharray="4 4"/>
<path d="M524.274 245.854C524.274 245.481 524.441 245.143 524.775 244.838C525.109 244.533 525.469 244.372 525.856 244.355C526.19 244.355 526.489 244.508 526.753 244.813C527.016 245.117 527.148 245.633 527.148 246.361C527.148 246.869 527.043 247.597 526.832 248.545C526.621 249.493 526.296 250.534 525.856 251.668C525.416 252.802 524.783 253.793 523.957 254.639C523.131 255.485 522.199 255.9 521.162 255.883C519.755 255.883 518.788 255.231 518.26 253.928C518.243 253.894 518.181 253.936 518.076 254.055C517.038 255.274 515.852 255.883 514.515 255.883C512.581 255.883 511.614 254.614 511.614 252.074C511.614 250.534 511.975 248.96 512.696 247.352C513.417 245.744 514.006 244.821 514.463 244.584C514.674 244.465 514.885 244.449 515.096 244.533C515.324 244.652 515.438 244.804 515.438 244.99C515.438 245.193 515.263 245.523 514.911 245.981C514.559 246.438 514.155 247.055 513.698 247.834C513.241 248.613 512.959 249.442 512.854 250.322C512.836 250.424 512.827 250.602 512.827 250.856C512.827 251.922 513.038 252.658 513.46 253.065C513.882 253.471 514.392 253.674 514.99 253.674C516.01 253.674 516.907 253.225 517.68 252.328L517.891 252.125V251.643C517.979 249.256 518.542 248.063 519.579 248.063C520.124 248.063 520.397 248.367 520.397 248.977C520.397 249.281 520.309 249.688 520.133 250.195C519.957 250.703 519.781 251.169 519.605 251.592L519.342 252.176C519.359 252.21 519.377 252.261 519.394 252.328C519.412 252.396 519.482 252.515 519.605 252.684C519.729 252.853 519.869 253.005 520.027 253.141C520.186 253.276 520.397 253.395 520.66 253.496C520.924 253.598 521.232 253.657 521.583 253.674C522.691 253.674 523.641 253.065 524.432 251.846C525.223 250.627 525.619 249.561 525.619 248.647C525.619 248.122 525.504 247.69 525.276 247.352C525.047 247.013 524.827 246.742 524.616 246.539C524.405 246.336 524.291 246.107 524.274 245.854Z" fill="#0D0D0D"/>
<path d="M529.413 248.911C530.109 247.941 531.06 247.457 532.266 247.457C532.863 247.457 533.459 247.612 534.056 247.923C534.653 248.235 535.137 248.785 535.51 249.575C535.97 250.568 536.2 251.933 536.2 253.668C536.2 255.523 535.933 256.941 535.398 257.922C535.15 258.425 534.808 258.826 534.373 259.125C533.938 259.424 533.559 259.61 533.235 259.682C532.912 259.754 532.595 259.795 532.285 259.807C531.961 259.807 531.638 259.772 531.315 259.7C530.992 259.628 530.613 259.436 530.178 259.125C529.742 258.814 529.401 258.413 529.152 257.922C528.617 256.941 528.35 255.523 528.35 253.668C528.35 251.586 528.704 250 529.413 248.911ZM533.608 248.695C533.235 248.312 532.794 248.121 532.285 248.121C531.762 248.121 531.315 248.312 530.942 248.695C530.631 249.007 530.426 249.437 530.327 249.988C530.227 250.538 530.178 251.687 530.178 253.435C530.178 255.325 530.227 256.57 530.327 257.169C530.426 257.767 530.65 258.24 530.998 258.587C531.346 258.946 531.775 259.125 532.285 259.125C532.782 259.125 533.204 258.946 533.552 258.587C533.913 258.228 534.137 257.725 534.224 257.079C534.311 256.433 534.36 255.218 534.373 253.435C534.373 251.699 534.323 250.556 534.224 250.006C534.124 249.455 533.919 249.019 533.608 248.695Z" fill="#0D0D0D"/>
<g clip-path="url(#clip0_16_17)">
<path d="M473.862 388.625C473.905 388.625 473.971 388.646 474.058 388.689C474.145 388.731 474.265 388.763 474.418 388.784C474.571 388.805 474.702 388.816 474.811 388.816C475.094 388.816 475.356 388.678 475.596 388.402C475.836 388.126 476.011 387.818 476.12 387.478C476.338 386.905 476.709 385.28 477.233 382.604C477.756 379.928 478.258 377.38 478.738 374.958C479.218 372.537 479.458 371.316 479.458 371.295V371.199H477.92C476.894 371.199 476.349 371.178 476.284 371.136C476.196 371.072 476.153 370.966 476.153 370.817L476.382 369.925C476.425 369.819 476.513 369.766 476.644 369.766C476.774 369.766 477.287 369.755 478.182 369.734C479.229 369.734 479.753 369.723 479.753 369.702C479.753 369.66 479.851 369.129 480.047 368.109C480.244 367.09 480.374 366.474 480.44 366.262C481.247 362.757 482.84 361.005 485.218 361.005C486.025 361.048 486.691 361.281 487.214 361.706C487.738 362.131 488 362.694 488 363.394C488 364.159 487.771 364.711 487.313 365.051C486.854 365.391 486.396 365.571 485.938 365.593C484.978 365.593 484.498 365.147 484.498 364.255C484.498 363.851 484.618 363.501 484.858 363.203C485.098 362.906 485.36 362.683 485.644 362.534L485.938 362.375C485.589 362.248 485.262 362.184 484.956 362.184C484.694 362.184 484.444 362.29 484.204 362.503C483.964 362.715 483.8 363.012 483.713 363.394C483.56 364.01 483.385 364.839 483.189 365.879C482.993 366.92 482.818 367.801 482.665 368.523C482.513 369.245 482.436 369.628 482.436 369.67C482.436 369.713 483.036 369.734 484.236 369.734C485.218 369.734 485.785 369.745 485.938 369.766C486.091 369.787 486.211 369.851 486.298 369.957C486.32 370.042 486.298 370.222 486.233 370.499C486.167 370.775 486.113 370.945 486.069 371.008C486.025 371.114 485.927 371.168 485.774 371.168C485.622 371.168 485.033 371.178 484.007 371.199H482.174L481.422 375.086C480.374 380.353 479.644 383.645 479.229 384.961C478.64 386.767 477.876 388.105 476.938 388.975C476.131 389.655 475.334 389.995 474.549 389.995C473.851 389.995 473.218 389.793 472.651 389.389C472.084 388.986 471.8 388.413 471.8 387.669C471.8 386.883 472.029 386.31 472.487 385.949C472.945 385.588 473.404 385.407 473.862 385.407C474.822 385.407 475.302 385.853 475.302 386.745C475.302 387.149 475.182 387.499 474.942 387.797C474.702 388.094 474.44 388.317 474.156 388.466L473.862 388.625Z" fill="#0D0D0D"/>
</g>
<mask id="mask0_16_17" style="mask-type:alpha" maskUnits="userSpaceOnUse" x="306" y="284" width="440" height="25">
<path d="M465.5 284.812L306.5 294.36V298.64L465.5 308.188H745.5V284.812H465.5Z" fill="#FF7D7D"/>
</mask>
<g mask="url(#mask0_16_17)">
<g filter="url(#filter0_f_16_17)">
<rect x="267" y="229" width="379" height="132" fill="#FF7C7C" fill-opacity="0.58"/>
</g>
</g>
<mask id="mask1_16_17" style="mask-type:alpha" maskUnits="userSpaceOnUse" x="1076" y="284" width="291" height="25">
<path d="M1117.5 284.812L1076 294.36V298.64L1117.5 308.188H1367V284.812H1117.5Z" fill="#FF7D7D"/>
</mask>
<g mask="url(#mask1_16_17)">
<g filter="url(#filter1_f_16_17)">
<path d="M1014 238H1321V351H1014V238Z" fill="#FF7C7C" fill-opacity="0.58"/>
</g>
</g>
<defs>
<filter id="filter0_f_16_17" x="224" y="186" width="465" height="218" filterUnits="userSpaceOnUse" color-interpolation-filters="sRGB">
<feFlood flood-opacity="0" result="BackgroundImageFix"/>
<feBlend mode="normal" in="SourceGraphic" in2="BackgroundImageFix" result="shape"/>
<feGaussianBlur stdDeviation="21.5" result="effect1_foregroundBlur_16_17"/>
</filter>
<filter id="filter1_f_16_17" x="988" y="212" width="359" height="165" filterUnits="userSpaceOnUse" color-interpolation-filters="sRGB">
<feFlood flood-opacity="0" result="BackgroundImageFix"/>
<feBlend mode="normal" in="SourceGraphic" in2="BackgroundImageFix" result="shape"/>
<feGaussianBlur stdDeviation="13" result="effect1_foregroundBlur_16_17"/>
</filter>
<clipPath id="clip0_16_17">
<rect width="18" height="29" fill="white" transform="translate(470 361)"/>
</clipPath>
</defs>
</svg>
