<svg width="1094" height="184" viewBox="0 0 1094 184" fill="none" xmlns="http://www.w3.org/2000/svg">
<mask id="mask0_104_88" style="mask-type:alpha" maskUnits="userSpaceOnUse" x="0" y="0" width="1095" height="184">
<rect x="0.5" y="0.5625" width="1093.5" height="183.438" fill="#C4C4C4"/>
</mask>
<g mask="url(#mask0_104_88)">
<path fill-rule="evenodd" clip-rule="evenodd" d="M516.453 61.75C516.453 60.6454 517.348 59.75 518.453 59.75C519.039 59.75 519.676 59.9151 520.239 60.113C520.845 60.3263 521.532 60.6372 522.259 61.0468C523.715 61.8669 525.4 63.1192 527.003 64.8866C530.236 68.4523 533.075 74.0548 533.075 82.25C533.075 90.4374 530.182 96.7217 527.032 100.962C525.462 103.077 523.817 104.699 522.411 105.811C521.71 106.365 521.045 106.811 520.454 107.131C520.159 107.29 519.857 107.432 519.56 107.538C519.292 107.634 518.896 107.75 518.453 107.75C517.348 107.75 516.453 106.855 516.453 105.75V61.75ZM520.453 104.777C519.528 105.423 518.808 105.75 518.453 105.75V61.75C518.844 61.75 519.557 61.9418 520.453 62.363C524.182 64.1162 531.075 69.8436 531.075 82.25C531.075 94.5495 524.139 102.202 520.453 104.777ZM518.183 103.781C518.183 103.781 518.188 103.78 518.198 103.777C518.187 103.78 518.183 103.782 518.183 103.781Z" fill="white"/>
<path fill-rule="evenodd" clip-rule="evenodd" d="M839.016 61.6875C839.016 60.5829 839.911 59.6875 841.016 59.6875C841.602 59.6875 842.238 59.8526 842.801 60.0505C843.408 60.2638 844.094 60.5747 844.821 60.9843C846.277 61.8044 847.963 63.0567 849.566 64.8241C852.799 68.3898 855.638 73.9923 855.638 82.1875C855.638 90.3749 852.744 96.6592 849.595 100.9C848.024 103.015 846.38 104.637 844.974 105.748C844.273 106.302 843.607 106.749 843.017 107.068C842.722 107.227 842.42 107.369 842.122 107.476C841.854 107.572 841.459 107.688 841.016 107.688C839.911 107.688 839.016 106.792 839.016 105.688V61.6875ZM843.016 104.714C842.091 105.361 841.37 105.688 841.016 105.688V61.6875C841.407 61.6875 842.12 61.8793 843.016 62.3005C846.744 64.0537 853.638 69.7811 853.638 82.1875C853.638 94.487 846.701 102.139 843.016 104.714ZM840.745 103.719C840.745 103.719 840.751 103.717 840.76 103.715C840.75 103.718 840.745 103.719 840.745 103.719Z" fill="white"/>
<rect x="485" y="61" width="7" height="46" fill="#4CD0B8" fill-opacity="0.61"/>
<rect x="157.656" y="61" width="7" height="46" fill="#4CD0B8" fill-opacity="0.61"/>
<rect x="970.5" y="61" width="7" height="46" fill="#4CD0B8" fill-opacity="0.61"/>
<rect x="497" y="61" width="7" height="46" fill="#4CD0B8" fill-opacity="0.61"/>
<rect x="169.656" y="61" width="7" height="46" fill="#4CD0B8" fill-opacity="0.61"/>
<rect x="982.5" y="61" width="7" height="46" fill="#4CD0B8" fill-opacity="0.61"/>
<rect x="509" y="61" width="7" height="46" fill="#4CD0B8" fill-opacity="0.61"/>
<rect x="181.656" y="61" width="7" height="46" fill="#4CD0B8" fill-opacity="0.61"/>
<rect x="994.5" y="61" width="7" height="46" fill="#4CD0B8" fill-opacity="0.61"/>
<path d="M512.25 61.25V8.25" stroke="white" stroke-width="4"/>
<path d="M184.906 61.25V8.25" stroke="white" stroke-width="4"/>
<path d="M997.75 61.25V8.25" stroke="white" stroke-width="4"/>
<path d="M500.5 61.25V8.25" stroke="#A4A4A4" stroke-width="4"/>
<path d="M173.156 61.25V8.25" stroke="#A4A4A4" stroke-width="4"/>
<path d="M986 61.25V8.25" stroke="#A4A4A4" stroke-width="4"/>
<path d="M488.5 61.25V8.25" stroke="#A4A4A4" stroke-width="4"/>
<path d="M161.156 61.25V8.25" stroke="#A4A4A4" stroke-width="4"/>
<path d="M974 61.25V8.25" stroke="#A4A4A4" stroke-width="4"/>
<path d="M512.25 160V107" stroke="white" stroke-width="4"/>
<path d="M184.906 160V107" stroke="white" stroke-width="4"/>
<path d="M997.75 160V107" stroke="white" stroke-width="4"/>
<path d="M500.5 160V107" stroke="#A4A4A4" stroke-width="4"/>
<path d="M173.156 160V107" stroke="#A4A4A4" stroke-width="4"/>
<path d="M986 160V107" stroke="#A4A4A4" stroke-width="4"/>
<ellipse cx="454.813" cy="85.5" rx="6.8125" ry="11.6875" fill="#754600"/>
<path d="M454.964 92.25L451.896 92.25C451.516 92.25 451.208 91.7463 451.208 91.125C451.208 90.5037 451.516 90 451.896 90L457.729 90C458.109 90 458.417 89.4963 458.417 88.875C458.417 88.2537 458.109 87.75 457.729 87.75L451.896 87.75C451.516 87.75 451.208 87.2463 451.208 86.625C451.208 86.0037 451.516 85.5 451.896 85.5L457.729 85.5C458.109 85.5 458.417 84.9963 458.417 84.375C458.417 83.7537 458.109 83.25 457.729 83.25L451.896 83.25C451.516 83.25 451.208 82.7463 451.208 82.125C451.208 81.5037 451.516 81 451.896 81L457.729 81C458.109 81 458.417 80.4963 458.417 79.875C458.417 79.2537 458.109 78.75 457.729 78.75L454.964 78.75" stroke="#383838" stroke-width="2"/>
<ellipse cx="127.469" cy="85.5" rx="6.8125" ry="11.6875" fill="#754600"/>
<path fill-rule="evenodd" clip-rule="evenodd" d="M130.064 79.75L127.62 79.75L127.62 77.75L130.385 77.75C131.055 77.75 131.5 78.1902 131.725 78.5579C131.96 78.9428 132.073 79.4109 132.073 79.875C132.073 80.3391 131.96 80.8072 131.725 81.1921C131.5 81.5598 131.055 82 130.385 82L124.874 82C124.868 82.0358 124.865 82.0775 124.865 82.125C124.865 82.1725 124.868 82.2142 124.874 82.25L130.385 82.25C131.055 82.25 131.5 82.6902 131.725 83.0579C131.96 83.4428 132.073 83.9109 132.073 84.375C132.073 84.8391 131.96 85.3072 131.725 85.6921C131.5 86.0598 131.055 86.5 130.385 86.5L124.874 86.5C124.868 86.5358 124.865 86.5775 124.865 86.625C124.865 86.6725 124.868 86.7142 124.874 86.75L130.385 86.75C131.055 86.75 131.5 87.1902 131.725 87.5579C131.96 87.9428 132.073 88.4109 132.073 88.875C132.073 89.3391 131.96 89.8072 131.725 90.1921C131.5 90.5598 131.055 91 130.385 91L124.874 91C124.868 91.0358 124.865 91.0775 124.865 91.125C124.865 91.1725 124.868 91.2142 124.874 91.25L127.62 91.25L127.62 93.25L124.552 93.25C123.882 93.25 123.438 92.8098 123.213 92.4421C122.978 92.0572 122.865 91.5891 122.865 91.125C122.865 90.6609 122.978 90.1928 123.213 89.8079C123.438 89.4402 123.882 89 124.552 89L130.064 89C130.069 88.9642 130.073 88.9225 130.073 88.875C130.073 88.8275 130.069 88.7858 130.064 88.75L124.552 88.75C123.882 88.75 123.438 88.3098 123.213 87.9421C122.978 87.5572 122.865 87.0891 122.865 86.625C122.865 86.1609 122.978 85.6928 123.213 85.3079C123.438 84.9402 123.882 84.5 124.552 84.5L130.064 84.5C130.069 84.4642 130.073 84.4225 130.073 84.375C130.073 84.3275 130.069 84.2858 130.064 84.25L124.552 84.25C123.882 84.25 123.438 83.8098 123.213 83.4421C122.978 83.0572 122.865 82.5891 122.865 82.125C122.865 81.6609 122.978 81.1928 123.213 80.8079C123.438 80.4402 123.882 80 124.552 80L130.064 80C130.069 79.9642 130.073 79.9225 130.073 79.875C130.073 79.8275 130.069 79.7858 130.064 79.75Z" fill="#383838"/>
<ellipse cx="777.375" cy="85.5" rx="6.8125" ry="11.6875" fill="#754600"/>
<path fill-rule="evenodd" clip-rule="evenodd" d="M779.97 79.75L777.526 79.75L777.526 77.75L780.292 77.75C780.962 77.75 781.406 78.1902 781.631 78.5579C781.866 78.9428 781.979 79.4109 781.979 79.875C781.979 80.3391 781.866 80.8072 781.631 81.1921C781.406 81.5598 780.962 82 780.292 82L774.78 82C774.775 82.0358 774.771 82.0775 774.771 82.125C774.771 82.1725 774.775 82.2142 774.78 82.25L780.292 82.25C780.962 82.25 781.406 82.6902 781.631 83.0579C781.866 83.4428 781.979 83.9109 781.979 84.375C781.979 84.8391 781.866 85.3072 781.631 85.6921C781.406 86.0598 780.962 86.5 780.292 86.5L774.78 86.5C774.775 86.5358 774.771 86.5775 774.771 86.625C774.771 86.6725 774.775 86.7142 774.78 86.75L780.292 86.75C780.962 86.75 781.406 87.1902 781.631 87.5579C781.866 87.9428 781.979 88.4109 781.979 88.875C781.979 89.3391 781.866 89.8072 781.631 90.1921C781.406 90.5598 780.962 91 780.292 91L774.78 91C774.775 91.0358 774.771 91.0775 774.771 91.125C774.771 91.1725 774.775 91.2142 774.78 91.25L777.526 91.25L777.526 93.25L774.459 93.25C773.789 93.25 773.344 92.8098 773.119 92.4421C772.884 92.0572 772.771 91.5891 772.771 91.125C772.771 90.6609 772.884 90.1928 773.119 89.8079C773.344 89.4402 773.789 89 774.459 89L779.97 89C779.976 88.9642 779.979 88.9225 779.979 88.875C779.979 88.8275 779.976 88.7858 779.97 88.75L774.459 88.75C773.789 88.75 773.344 88.3098 773.119 87.9421C772.884 87.5572 772.771 87.0891 772.771 86.625C772.771 86.1609 772.884 85.6928 773.119 85.3079C773.344 84.9402 773.789 84.5 774.459 84.5L779.97 84.5C779.976 84.4642 779.979 84.4225 779.979 84.375C779.979 84.3275 779.976 84.2858 779.97 84.25L774.459 84.25C773.789 84.25 773.344 83.8098 773.119 83.4421C772.884 83.0572 772.771 82.5891 772.771 82.125C772.771 81.6609 772.884 81.1928 773.119 80.8079C773.344 80.4402 773.789 80 774.459 80L779.97 80C779.976 79.9642 779.979 79.9225 779.979 79.875C779.979 79.8275 779.976 79.7858 779.97 79.75Z" fill="#383838"/>
<path d="M488.5 160V107" stroke="#A4A4A4" stroke-width="4"/>
<path d="M161.156 160V107" stroke="#A4A4A4" stroke-width="4"/>
<path d="M974 160V107" stroke="#A4A4A4" stroke-width="4"/>
<g filter="url(#filter0_f_104_88)">
<path d="M777.75 96.7641C769.25 96.7641 769.5 75.3838 777.75 75.3838L837.5 61.75H1076.75V105.75H837.5L777.75 96.7641Z" fill="#FF7455" fill-opacity="0.45"/>
</g>
<g filter="url(#filter1_f_104_88)">
<path d="M457.49 96.8011C448.99 96.8011 449.24 75.36 457.49 75.36L516.552 61.6875H600.052V105.812H516.552C496.302 102.187 457.49 96.8011 457.49 96.8011Z" fill="#FF7455" fill-opacity="0.45"/>
</g>
<g filter="url(#filter2_f_104_88)">
<path d="M130.146 96.8011C121.646 96.8011 121.896 75.36 130.146 75.36L272.709 42.5V61.6875V105.812V119.25C252.459 115.625 130.146 96.8011 130.146 96.8011Z" fill="#FF7455" fill-opacity="0.45"/>
</g>
<g filter="url(#filter3_f_104_88)">
<path d="M555.375 12.2188H635.844V135.406H555.375V12.2188Z" fill="#2E303E"/>
</g>
<g filter="url(#filter4_f_104_88)">
<path d="M221.031 -37.375H301.5V185H221.031V-37.375Z" fill="#2E303E"/>
</g>
<g filter="url(#filter5_f_104_88)">
<path d="M-3.203 0.5625H57.5314V148H-3.203V0.5625Z" fill="#2E303E"/>
</g>
<g filter="url(#filter6_f_104_88)">
<path d="M132.922 -23.5312H213.391V47.9688H132.922V-23.5312Z" fill="#2E303E"/>
</g>
<g filter="url(#filter7_f_104_88)">
<path d="M460.266 -23.5312H540.734V47.9688H460.266V-23.5312Z" fill="#2E303E"/>
</g>
<g filter="url(#filter8_f_104_88)">
<path d="M947.388 -23.5312H1027.86V47.9688H947.388V-23.5312Z" fill="#2E303E"/>
</g>
<g filter="url(#filter9_f_104_88)">
<path d="M1027.95 27.5H1108.42V138.5H1027.95V27.5Z" fill="#2E303E"/>
</g>
<g filter="url(#filter10_f_104_88)">
<path d="M135.422 132.281H215.891V204.468H135.422V132.281Z" fill="#2E303E"/>
</g>
<g filter="url(#filter11_f_104_88)">
<path d="M460.266 123.906H540.734V196.094H460.266V123.906Z" fill="#2E303E"/>
</g>
<g filter="url(#filter12_f_104_88)">
<path d="M947.388 123.906H1027.86V196.094H947.388V123.906Z" fill="#2E303E"/>
</g>
<path d="M97.8339 36.687V25.7779H99.9575V36.687H97.8339ZM98.9064 24.0947C98.5371 24.0947 98.2198 23.9716 97.9547 23.7254C97.6943 23.4744 97.564 23.1761 97.564 22.8305C97.564 22.4801 97.6943 22.1818 97.9547 21.9356C98.2198 21.6846 98.5371 21.5592 98.9064 21.5592C99.2757 21.5592 99.5906 21.6846 99.851 21.9356C100.116 22.1818 100.249 22.4801 100.249 22.8305C100.249 23.1761 100.116 23.4744 99.851 23.7254C99.5906 23.9716 99.2757 24.0947 98.9064 24.0947ZM107.582 30.6501C107.582 32.4351 107.347 34.0757 106.879 35.572C106.41 37.0682 105.726 38.4484 104.826 39.7126H102.88C103.23 39.2438 103.557 38.6685 103.86 37.9867C104.163 37.3049 104.428 36.5592 104.656 35.7495C104.883 34.9351 105.06 34.0923 105.188 33.2211C105.316 32.3499 105.38 31.4929 105.38 30.6501C105.38 29.5279 105.269 28.3892 105.046 27.2339C104.824 26.0786 104.523 25.0061 104.144 24.0166C103.766 23.027 103.344 22.2197 102.88 21.5947H104.826C105.726 22.8589 106.41 24.2391 106.879 25.7353C107.347 27.2315 107.582 28.8698 107.582 30.6501Z" fill="white"/>
<path d="M420.693 36.687V25.7779H422.817V36.687H420.693ZM421.766 24.0947C421.396 24.0947 421.079 23.9716 420.814 23.7254C420.554 23.4744 420.423 23.1761 420.423 22.8305C420.423 22.4801 420.554 22.1818 420.814 21.9356C421.079 21.6846 421.396 21.5592 421.766 21.5592C422.135 21.5592 422.45 21.6846 422.71 21.9356C422.976 22.1818 423.108 22.4801 423.108 22.8305C423.108 23.1761 422.976 23.4744 422.71 23.7254C422.45 23.9716 422.135 24.0947 421.766 24.0947ZM425.674 36.687V25.7779H427.797V36.687H425.674ZM426.746 24.0947C426.377 24.0947 426.06 23.9716 425.795 23.7254C425.534 23.4744 425.404 23.1761 425.404 22.8305C425.404 22.4801 425.534 22.1818 425.795 21.9356C426.06 21.6846 426.377 21.5592 426.746 21.5592C427.116 21.5592 427.43 21.6846 427.691 21.9356C427.956 22.1818 428.089 22.4801 428.089 22.8305C428.089 23.1761 427.956 23.4744 427.691 23.7254C427.43 23.9716 427.116 24.0947 426.746 24.0947ZM435.422 30.6501C435.422 32.4351 435.187 34.0757 434.719 35.572C434.25 37.0682 433.566 38.4484 432.666 39.7126H430.72C431.07 39.2438 431.397 38.6685 431.7 37.9867C432.003 37.3049 432.268 36.5592 432.496 35.7495C432.723 34.9351 432.9 34.0923 433.028 33.2211C433.156 32.3499 433.22 31.4929 433.22 30.6501C433.22 29.5279 433.109 28.3892 432.886 27.2339C432.664 26.0786 432.363 25.0061 431.984 24.0166C431.605 23.027 431.184 22.2197 430.72 21.5947H432.666C433.566 22.8589 434.25 24.2391 434.719 25.7353C435.187 27.2315 435.422 28.8698 435.422 30.6501Z" fill="white"/>
<path d="M754.698 36.687V25.7779H756.822V36.687H754.698ZM755.771 24.0947C755.402 24.0947 755.084 23.9716 754.819 23.7254C754.559 23.4744 754.429 23.1761 754.429 22.8305C754.429 22.4801 754.559 22.1818 754.819 21.9356C755.084 21.6846 755.402 21.5592 755.771 21.5592C756.14 21.5592 756.455 21.6846 756.715 21.9356C756.981 22.1818 757.113 22.4801 757.113 22.8305C757.113 23.1761 756.981 23.4744 756.715 23.7254C756.455 23.9716 756.14 24.0947 755.771 24.0947ZM759.679 36.687V25.7779H761.802V36.687H759.679ZM760.751 24.0947C760.382 24.0947 760.065 23.9716 759.8 23.7254C759.539 23.4744 759.409 23.1761 759.409 22.8305C759.409 22.4801 759.539 22.1818 759.8 21.9356C760.065 21.6846 760.382 21.5592 760.751 21.5592C761.121 21.5592 761.436 21.6846 761.696 21.9356C761.961 22.1818 762.094 22.4801 762.094 22.8305C762.094 23.1761 761.961 23.4744 761.696 23.7254C761.436 23.9716 761.121 24.0947 760.751 24.0947ZM764.659 36.687V25.7779H766.783V36.687H764.659ZM765.732 24.0947C765.362 24.0947 765.045 23.9716 764.78 23.7254C764.52 23.4744 764.389 23.1761 764.389 22.8305C764.389 22.4801 764.52 22.1818 764.78 21.9356C765.045 21.6846 765.362 21.5592 765.732 21.5592C766.101 21.5592 766.416 21.6846 766.676 21.9356C766.942 22.1818 767.074 22.4801 767.074 22.8305C767.074 23.1761 766.942 23.4744 766.676 23.7254C766.416 23.9716 766.101 24.0947 765.732 24.0947ZM774.407 30.6501C774.407 32.4351 774.173 34.0757 773.704 35.572C773.235 37.0682 772.551 38.4484 771.652 39.7126H769.706C770.056 39.2438 770.383 38.6685 770.686 37.9867C770.989 37.3049 771.254 36.5592 771.481 35.7495C771.708 34.9351 771.886 34.0923 772.014 33.2211C772.142 32.3499 772.206 31.4929 772.206 30.6501C772.206 29.5279 772.094 28.3892 771.872 27.2339C771.649 26.0786 771.349 25.0061 770.97 24.0166C770.591 23.027 770.17 22.2197 769.706 21.5947H771.652C772.551 22.8589 773.235 24.2391 773.704 25.7353C774.173 27.2315 774.407 28.8698 774.407 30.6501Z" fill="white"/>
</g>
<g clip-path="url(#clip0_104_88)">
<path d="M154.319 177.111C154.319 177.704 154.627 178 155.242 178C156.152 178 156.927 177.057 157.567 175.171C157.715 174.812 157.838 174.624 157.936 174.606C157.986 174.588 158.109 174.579 158.306 174.579H158.453C158.675 174.579 158.822 174.579 158.896 174.579C158.97 174.579 159.031 174.597 159.081 174.633C159.13 174.668 159.155 174.731 159.155 174.821C159.13 174.929 159.093 175.073 159.044 175.252C158.995 175.432 158.859 175.773 158.638 176.276C158.416 176.779 158.17 177.201 157.899 177.542C157.629 177.884 157.247 178.216 156.755 178.539C156.263 178.862 155.697 179.015 155.057 178.997C154.171 178.997 153.347 178.8 152.584 178.404C151.821 178.009 151.427 177.345 151.403 176.411C151.403 176.195 151.415 176.043 151.44 175.953L153.839 169.002C155.389 164.421 156.165 162.059 156.165 161.916C156.165 161.862 156.152 161.817 156.128 161.781C156.103 161.745 156.054 161.709 155.98 161.673C155.906 161.637 155.845 161.619 155.795 161.619C155.746 161.619 155.648 161.61 155.5 161.592C155.352 161.574 155.254 161.565 155.205 161.565C155.156 161.565 155.045 161.556 154.873 161.539C154.7 161.521 154.577 161.521 154.504 161.539C154.257 161.539 154.097 161.539 154.024 161.539C153.95 161.539 153.851 161.53 153.728 161.512C153.605 161.494 153.531 161.467 153.507 161.431C153.482 161.395 153.47 161.341 153.47 161.269C153.47 161.233 153.495 161.107 153.544 160.892C153.667 160.551 153.802 160.362 153.95 160.326C154.097 160.29 154.983 160.236 156.608 160.164C156.977 160.146 157.395 160.129 157.863 160.111C158.33 160.093 158.699 160.066 158.97 160.03C159.241 159.994 159.376 159.985 159.376 160.003C159.671 160.003 159.819 160.075 159.819 160.218C159.819 160.416 158.921 163.11 157.124 168.301C155.328 173.492 154.405 176.213 154.356 176.465C154.356 176.501 154.356 176.572 154.356 176.68C154.356 176.788 154.344 176.878 154.319 176.95V177.111Z" fill="white"/>
</g>
<path d="M152.5 107.5H253.25" stroke="#818181" stroke-opacity="0.44" stroke-dasharray="2 2"/>
<path d="M126.875 82.5L126.875 157.875" stroke="#818181" stroke-opacity="0.28" stroke-dasharray="2 2"/>
<path d="M152.5 61H253.25" stroke="#818181" stroke-opacity="0.44" stroke-dasharray="2 2"/>
<path d="M222.755 61.245C223.029 61.5183 223.472 61.5183 223.745 61.245L228.2 56.7902C228.473 56.5168 228.473 56.0736 228.2 55.8003C227.927 55.5269 227.483 55.5269 227.21 55.8003L223.25 59.7601L219.29 55.8003C219.017 55.5269 218.574 55.5269 218.3 55.8003C218.027 56.0736 218.027 56.5168 218.3 56.7902L222.755 61.245ZM223.95 60.75L223.95 33.75L222.55 33.75L222.55 60.75L223.95 60.75Z" fill="white"/>
<path d="M223.745 107.005C223.472 106.732 223.029 106.732 222.755 107.005L218.3 111.46C218.027 111.733 218.027 112.176 218.3 112.45C218.574 112.723 219.017 112.723 219.29 112.45L223.25 108.49L227.21 112.45C227.483 112.723 227.927 112.723 228.2 112.45C228.473 112.176 228.473 111.733 228.2 111.46L223.745 107.005ZM222.55 107.5L222.55 134.5L223.95 134.5L223.95 107.5L222.55 107.5Z" fill="white"/>
<path d="M126.38 153.005C126.107 153.278 126.107 153.722 126.38 153.995L130.835 158.45C131.108 158.723 131.552 158.723 131.825 158.45C132.098 158.176 132.098 157.733 131.825 157.46L127.865 153.5L131.825 149.54C132.098 149.267 132.098 148.824 131.825 148.55C131.552 148.277 131.108 148.277 130.835 148.55L126.38 153.005ZM187.995 153.995C188.268 153.722 188.268 153.278 187.995 153.005L183.54 148.55C183.267 148.277 182.824 148.277 182.55 148.55C182.277 148.824 182.277 149.267 182.55 149.54L186.51 153.5L182.55 157.46C182.277 157.733 182.277 158.176 182.55 158.45C182.824 158.723 183.267 158.723 183.54 158.45L187.995 153.995ZM126.875 154.2H187.5V152.8H126.875V154.2Z" fill="white"/>
<g clip-path="url(#clip1_104_88)">
<path d="M227.966 11.3019C227.983 11.3019 228.63 11.257 229.904 11.1671C231.178 11.0772 231.833 11.0232 231.869 11.0052C232.085 11.0052 232.192 11.0772 232.192 11.221C232.192 11.3469 231.537 14.0623 230.227 19.3671C228.917 24.6719 228.244 27.3783 228.208 27.4862C228.172 27.5941 228.163 27.729 228.181 27.8908C228.181 28.6461 228.432 29.0237 228.935 29.0237C229.096 29.0057 229.276 28.9248 229.473 28.7809C229.85 28.4213 230.218 27.5581 230.577 26.1915C230.685 25.8318 230.774 25.643 230.846 25.625C230.882 25.607 230.972 25.598 231.116 25.598H231.223H231.331C231.6 25.598 231.735 25.67 231.735 25.8138C231.735 25.9037 231.708 26.0476 231.654 26.2454C231.421 27.1445 231.151 27.8728 230.846 28.4303C230.541 28.9877 230.29 29.3474 230.092 29.5092C229.895 29.6711 229.644 29.8149 229.339 29.9408C229.195 29.9768 228.98 29.9948 228.692 29.9948C228.082 29.9948 227.571 29.8599 227.158 29.5902C226.745 29.3204 226.476 29.0417 226.35 28.754L226.189 28.3494C226.171 28.3314 226.135 28.3404 226.081 28.3763C226.045 28.4123 226.009 28.4483 225.973 28.4842C224.914 29.4913 223.837 29.9948 222.742 29.9948C221.755 29.9948 220.885 29.6351 220.131 28.9158C219.377 28.1965 219 27.0546 219 25.4901C219 24.627 219.18 23.7458 219.539 22.8467C219.898 21.9476 220.328 21.1743 220.831 20.527C221.674 19.502 222.518 18.7917 223.362 18.396C224.205 18.0004 224.968 17.8026 225.65 17.8026C226.655 17.8026 227.409 18.1802 227.912 18.9355C228.001 19.0434 228.046 19.0794 228.046 19.0434C228.064 18.9715 228.307 17.9914 228.773 16.1033C229.24 14.2151 229.491 13.2171 229.527 13.1092C229.527 12.8754 229.464 12.7315 229.339 12.6776C229.213 12.6237 228.863 12.5787 228.289 12.5427H227.723C227.616 12.4348 227.562 12.3629 227.562 12.3269C227.562 12.291 227.58 12.1201 227.616 11.8144C227.705 11.4728 227.822 11.3019 227.966 11.3019ZM227.589 20.9316C227.176 19.511 226.503 18.8006 225.569 18.8006C224.941 18.8006 224.34 19.0794 223.766 19.6368C223.191 20.1943 222.742 20.9226 222.419 21.8217C221.899 23.2423 221.531 24.7169 221.316 26.2454C221.316 26.2994 221.316 26.3983 221.316 26.5421C221.316 26.686 221.307 26.7939 221.289 26.8658C221.289 27.675 221.45 28.2325 221.773 28.5382C222.096 28.8439 222.482 29.0057 222.931 29.0237C223.9 29.0237 224.896 28.3763 225.919 27.0816L226.135 26.7849L227.589 20.9316Z" fill="white"/>
</g>
<defs>
<filter id="filter0_f_104_88" x="769.469" y="59.75" width="309.282" height="48" filterUnits="userSpaceOnUse" color-interpolation-filters="sRGB">
<feFlood flood-opacity="0" result="BackgroundImageFix"/>
<feBlend mode="normal" in="SourceGraphic" in2="BackgroundImageFix" result="shape"/>
<feGaussianBlur stdDeviation="1" result="effect1_foregroundBlur_104_88"/>
</filter>
<filter id="filter1_f_104_88" x="449.208" y="59.6875" width="152.844" height="48.125" filterUnits="userSpaceOnUse" color-interpolation-filters="sRGB">
<feFlood flood-opacity="0" result="BackgroundImageFix"/>
<feBlend mode="normal" in="SourceGraphic" in2="BackgroundImageFix" result="shape"/>
<feGaussianBlur stdDeviation="1" result="effect1_foregroundBlur_104_88"/>
</filter>
<filter id="filter2_f_104_88" x="121.865" y="40.5" width="152.844" height="80.75" filterUnits="userSpaceOnUse" color-interpolation-filters="sRGB">
<feFlood flood-opacity="0" result="BackgroundImageFix"/>
<feBlend mode="normal" in="SourceGraphic" in2="BackgroundImageFix" result="shape"/>
<feGaussianBlur stdDeviation="1" result="effect1_foregroundBlur_104_88"/>
</filter>
<filter id="filter3_f_104_88" x="523.375" y="-19.7812" width="144.469" height="187.188" filterUnits="userSpaceOnUse" color-interpolation-filters="sRGB">
<feFlood flood-opacity="0" result="BackgroundImageFix"/>
<feBlend mode="normal" in="SourceGraphic" in2="BackgroundImageFix" result="shape"/>
<feGaussianBlur stdDeviation="16" result="effect1_foregroundBlur_104_88"/>
</filter>
<filter id="filter4_f_104_88" x="189.031" y="-69.375" width="144.469" height="286.375" filterUnits="userSpaceOnUse" color-interpolation-filters="sRGB">
<feFlood flood-opacity="0" result="BackgroundImageFix"/>
<feBlend mode="normal" in="SourceGraphic" in2="BackgroundImageFix" result="shape"/>
<feGaussianBlur stdDeviation="16" result="effect1_foregroundBlur_104_88"/>
</filter>
<filter id="filter5_f_104_88" x="-35.203" y="-31.4375" width="124.734" height="211.438" filterUnits="userSpaceOnUse" color-interpolation-filters="sRGB">
<feFlood flood-opacity="0" result="BackgroundImageFix"/>
<feBlend mode="normal" in="SourceGraphic" in2="BackgroundImageFix" result="shape"/>
<feGaussianBlur stdDeviation="16" result="effect1_foregroundBlur_104_88"/>
</filter>
<filter id="filter6_f_104_88" x="112.922" y="-43.5312" width="120.469" height="111.5" filterUnits="userSpaceOnUse" color-interpolation-filters="sRGB">
<feFlood flood-opacity="0" result="BackgroundImageFix"/>
<feBlend mode="normal" in="SourceGraphic" in2="BackgroundImageFix" result="shape"/>
<feGaussianBlur stdDeviation="10" result="effect1_foregroundBlur_104_88"/>
</filter>
<filter id="filter7_f_104_88" x="440.266" y="-43.5312" width="120.469" height="111.5" filterUnits="userSpaceOnUse" color-interpolation-filters="sRGB">
<feFlood flood-opacity="0" result="BackgroundImageFix"/>
<feBlend mode="normal" in="SourceGraphic" in2="BackgroundImageFix" result="shape"/>
<feGaussianBlur stdDeviation="10" result="effect1_foregroundBlur_104_88"/>
</filter>
<filter id="filter8_f_104_88" x="927.388" y="-43.5312" width="120.469" height="111.5" filterUnits="userSpaceOnUse" color-interpolation-filters="sRGB">
<feFlood flood-opacity="0" result="BackgroundImageFix"/>
<feBlend mode="normal" in="SourceGraphic" in2="BackgroundImageFix" result="shape"/>
<feGaussianBlur stdDeviation="10" result="effect1_foregroundBlur_104_88"/>
</filter>
<filter id="filter9_f_104_88" x="995.953" y="-4.5" width="144.469" height="175" filterUnits="userSpaceOnUse" color-interpolation-filters="sRGB">
<feFlood flood-opacity="0" result="BackgroundImageFix"/>
<feBlend mode="normal" in="SourceGraphic" in2="BackgroundImageFix" result="shape"/>
<feGaussianBlur stdDeviation="16" result="effect1_foregroundBlur_104_88"/>
</filter>
<filter id="filter10_f_104_88" x="117.422" y="114.281" width="116.469" height="108.187" filterUnits="userSpaceOnUse" color-interpolation-filters="sRGB">
<feFlood flood-opacity="0" result="BackgroundImageFix"/>
<feBlend mode="normal" in="SourceGraphic" in2="BackgroundImageFix" result="shape"/>
<feGaussianBlur stdDeviation="9" result="effect1_foregroundBlur_104_88"/>
</filter>
<filter id="filter11_f_104_88" x="442.266" y="105.906" width="116.469" height="108.187" filterUnits="userSpaceOnUse" color-interpolation-filters="sRGB">
<feFlood flood-opacity="0" result="BackgroundImageFix"/>
<feBlend mode="normal" in="SourceGraphic" in2="BackgroundImageFix" result="shape"/>
<feGaussianBlur stdDeviation="9" result="effect1_foregroundBlur_104_88"/>
</filter>
<filter id="filter12_f_104_88" x="929.388" y="105.906" width="116.469" height="108.187" filterUnits="userSpaceOnUse" color-interpolation-filters="sRGB">
<feFlood flood-opacity="0" result="BackgroundImageFix"/>
<feBlend mode="normal" in="SourceGraphic" in2="BackgroundImageFix" result="shape"/>
<feGaussianBlur stdDeviation="9" result="effect1_foregroundBlur_104_88"/>
</filter>
<clipPath id="clip0_104_88">
<rect width="11" height="19" fill="white" transform="translate(150 160)"/>
</clipPath>
<clipPath id="clip1_104_88">
<rect width="14" height="19" fill="white" transform="translate(219 11)"/>
</clipPath>
</defs>
</svg>
