<svg width="499" height="147" viewBox="0 0 499 147" fill="none" xmlns="http://www.w3.org/2000/svg">
<g clip-path="url(#clip0_505_86)">
<path d="M51.8999 30.2C51.9999 30.2 51.9999 30.2 52.0999 30.2H52.1999H52.2999H52.3999H52.4999H52.5999H52.6999H52.7999H52.8999H52.9999H53.0999H53.1999H53.2999H53.3999H53.4999H53.5999H53.6999H53.7999H53.8999H53.9999H54.0999H54.1999H54.2999H54.3999H54.4999H54.5999H54.6999H54.7999H54.8999H54.9999H55.0999H55.1999H55.2999H55.3999H55.4999H55.5999H55.6999H55.7999H55.8999C55.8999 30.2 55.9999 30.2 56.0999 30.2C56.1999 30.2 56.1999 30.2 56.2999 30.2C56.3999 30.2 56.3999 30.2 56.4999 30.2C56.5999 30.2 56.5999 30.2 56.6999 30.2C56.7999 30.2 56.7999 30.2 56.8999 30.2C56.9999 30.2 56.9999 30.2 57.0999 30.2C57.1999 30.2 57.1999 30.2 57.2999 30.2C57.3999 30.2 57.3999 30.2 57.4999 30.2C57.5999 30.2 57.5999 30.2 57.6999 30.2C57.7999 30.2 57.7999 30.2 57.8999 30.2C57.9999 30.2 57.9999 30.2 58.0999 30.2C58.1999 30.2 58.1999 30.2 58.2999 30.2C58.3999 30.2 58.3999 30.2 58.4999 30.2C58.5999 30.2 58.5999 30.2 58.6999 30.2C58.7999 30.2 58.7999 30.2 58.8999 30.2C58.9999 30.2 58.9999 30.2 59.0999 30.2C59.1999 30.2 59.1999 30.2 59.2999 30.2C59.3999 30.2 59.3999 30.2 59.4999 30.2C59.5999 30.2 59.5999 30.2 59.6999 30.2C59.7999 30.2 59.7999 30.2 59.8999 30.2C59.9999 30.2 59.9999 30.2 60.0999 30.2C60.1999 30.2 60.1999 30.2 60.2999 30.2C60.3999 30.2 60.3999 30.2 60.4999 30.2C60.5999 30.2 60.5999 30.2 60.6999 30.2C60.7999 30.2 60.7999 30.2 60.8999 30.2C60.9999 30.2 60.9999 30.2 61.0999 30.2C61.1999 30.2 61.1999 30.2 61.2999 30.2C61.3999 30.2 61.3999 30.2 61.4999 30.2C61.5999 30.2 61.5999 30.2 61.6999 30.2C61.7999 30.2 61.7999 30.2 61.8999 30.2C61.9999 30.2 61.9999 30.2 62.0999 30.2C62.1999 30.2 62.1999 30.2 62.2999 30.2C62.3999 30.2 62.3999 30.2 62.4999 30.2C62.5999 30.2 62.5999 30.2 62.6999 30.2C62.7999 30.2 62.7999 30.2 62.8999 30.2C62.9999 30.2 62.9999 30.2 63.0999 30.2C63.1999 30.2 63.1999 30.2 63.2999 30.2C63.3999 30.2 63.3999 30.2 63.4999 30.2C63.5999 30.2 63.5999 30.2 63.6999 30.2C63.7999 30.2 63.7999 30.2 63.8999 30.2C63.9999 30.2 63.9999 30.2 64.0999 30.2C64.1999 30.2 64.1999 30.2 64.2999 30.2C64.3999 30.2 64.3999 30.2 64.4999 30.2C64.5999 30.2 64.5999 30.2 64.6999 30.2C64.7999 30.2 64.7999 30.2 64.8999 30.2C64.9999 30.2 64.9999 30.2 65.0999 30.2C65.1999 30.2 65.1999 30.2 65.2999 30.2C65.3999 30.2 65.3999 30.2 65.4999 30.2C65.5999 30.2 65.5999 30.2 65.6999 30.2C65.7999 30.2 65.7999 30.2 65.8999 30.2C65.9999 30.2 65.9999 30.2 66.0999 30.2C66.1999 30.2 66.2999 30.2 66.2999 30.2C66.3999 30.2 66.4999 30.2 66.4999 30.2C66.5999 30.2 66.6999 30.2 66.6999 30.2H66.8999C66.9999 30.2 67.0999 30.2 67.0999 30.2C67.1999 30.2 67.2999 30.2 67.2999 30.2H67.4999C67.5999 30.2 67.6999 30.2 67.6999 30.2C67.7999 30.2 67.8999 30.2 67.8999 30.2H68.0999C68.1999 30.2 68.2999 30.2 68.2999 30.2C68.3999 30.2 68.4999 30.2 68.4999 30.2C68.5999 30.2 68.6999 30.2 68.6999 30.2H68.8999H69.0999H69.2999H69.4999H69.6999H69.8999C69.8999 30.2 70.0999 30.2 70.1999 30.2C70.2999 30.2 70.3999 30.2 70.4999 30.2C70.5999 30.2 70.6999 30.2 70.7999 30.2C70.8999 30.2 70.9999 30.2 71.0999 30.2C71.1999 30.2 71.2999 30.2 71.3999 30.2C71.4999 30.2 71.5999 30.2 71.6999 30.2C71.7999 30.2 71.8999 30.2 71.9999 30.2C72.0999 30.2 72.1999 30.2 72.2999 30.2C72.3999 30.2 72.4999 30.2 72.5999 30.2C72.6999 30.2 72.7999 30.2 72.8999 30.2C72.9999 30.2 73.0999 30.2 73.1999 30.2C73.2999 30.2 73.3999 30.2 73.4999 30.2C73.5999 30.2 73.6999 30.2 73.7999 30.2C73.8999 30.2 73.9999 30.2 74.0999 30.2C74.1999 30.2 74.2999 30.2 74.3999 30.2C74.4999 30.2 74.5999 30.2 74.6999 30.2C74.7999 30.2 74.8999 30.2 74.9999 30.2C75.0999 30.2 75.1999 30.2 75.2999 30.2C75.3999 30.2 75.4999 30.2 75.5999 30.2C75.6999 30.2 75.7999 30.2 75.8999 30.2C75.9999 30.2 76.0999 30.2 76.1999 30.2C76.2999 30.2 76.3999 30.2 76.4999 30.2C76.5999 30.2 76.6999 30.2 76.7999 30.2C76.8999 30.2 76.9999 30.2 77.0999 30.2C77.1999 30.2 77.2999 30.2 77.3999 30.2C77.4999 30.2 77.5999 30.2 77.6999 30.2C77.7999 30.2 77.8999 30.2 77.9999 30.2C78.0999 30.2 78.1999 30.2 78.2999 30.2C78.3999 30.2 78.4999 30.2 78.5999 30.2C78.6999 30.2 78.7999 30.2 78.8999 30.2C78.9999 30.2 79.0999 30.2 79.1999 30.2C79.2999 30.2 79.3999 30.2 79.4999 30.2C79.5999 30.2 79.6999 30.2 79.7999 30.2C79.8999 30.2 79.9999 30.2 80.0999 30.2C80.1999 30.2 80.2999 30.2 80.3999 30.2C80.4999 30.2 80.5999 30.2 80.6999 30.2C80.7999 30.2 80.8999 30.2 80.9999 30.2C81.0999 30.2 81.1999 30.2 81.2999 30.2C81.3999 30.2 81.4999 30.2 81.5999 30.2C81.6999 30.2 81.7999 30.2 81.8999 30.2C81.9999 30.2 82.0999 30.2 82.1999 30.2C82.2999 30.2 82.3999 30.2 82.4999 30.2C82.5999 30.2 82.6999 30.2 82.7999 30.2C82.8999 30.2 82.9999 30.2 83.0999 30.2C83.1999 30.2 83.2999 30.2 83.3999 30.2C83.4999 30.2 83.5999 30.2 83.6999 30.2C83.7999 30.2 83.8999 30.2 83.9999 30.2C84.0999 30.2 84.1999 30.2 84.2999 30.2C84.3999 30.2 84.4999 30.2 84.5999 30.2C84.6999 30.2 84.7999 30.2 84.8999 30.2C84.9999 30.2 85.0999 30.2 85.1999 30.2C85.2999 30.2 85.3999 30.2 85.4999 30.2C85.5999 30.2 85.6999 30.2 85.7999 30.2C85.8999 30.2 85.9999 30.2 86.0999 30.2C86.1999 30.2 86.2999 30.2 86.3999 30.2C86.4999 30.2 86.5999 30.2 86.6999 30.2C86.7999 30.2 86.8999 30.2 86.9999 30.2C87.0999 30.2 87.1999 30.2 87.2999 30.2C87.3999 30.2 87.4999 30.2 87.5999 30.2C87.6999 30.2 87.7999 30.2 87.8999 30.2C87.9999 30.2 88.0999 30.2 88.1999 30.2C88.2999 30.2 88.3999 30.2 88.4999 30.2C88.5999 30.2 88.6999 30.2 88.7999 30.2C88.8999 30.2 88.9999 30.2 89.0999 30.2C89.1999 30.2 89.2999 30.2 89.3999 30.2C89.4999 30.2 89.5999 30.2 89.6999 30.2C89.7999 30.2 89.8999 30.2 89.9999 30.2C90.0999 30.2 90.1999 30.2 90.2999 30.2C90.3999 30.2 90.4999 30.2 90.5999 30.2C90.6999 30.2 90.7999 30.2 90.8999 30.2C90.9999 30.2 91.0999 30.2 91.1999 30.2C91.2999 30.2 91.3999 30.2 91.4999 30.2C91.5999 30.2 91.6999 30.2 91.7999 30.2C91.8999 30.2 91.9999 30.2 92.0999 30.2C92.1999 30.2 92.2999 30.2 92.3999 30.2C92.4999 30.2 92.5999 30.2 92.6999 30.2C92.7999 30.2 92.8999 30.2 92.9999 30.2C93.0999 30.2 93.1999 30.2 93.2999 30.2C93.3999 30.2 93.4999 30.2 93.5999 30.2C93.6999 30.2 93.7999 30.2 93.8999 30.2C93.9999 30.2 94.0999 30.2 94.1999 30.2C94.2999 30.2 94.3999 30.2 94.4999 30.2C94.5999 30.2 94.6999 30.2 94.7999 30.2C94.8999 30.2 94.9999 30.2 95.0999 30.2C95.1999 30.2 95.2999 30.2 95.3999 30.2C95.4999 30.2 95.5999 30.2 95.6999 30.2C95.7999 30.2 95.8999 30.2 95.9999 30.2C96.0999 30.2 96.1999 30.2 96.2999 30.2C96.3999 30.2 96.4999 30.2 96.5999 30.2C96.6999 30.2 96.7999 30.2 96.8999 30.2C96.9999 30.2 97.0999 30.2 97.1999 30.2C97.2999 30.2 97.3999 30.2 97.4999 30.2C97.5999 30.2 97.6999 30.2 97.7999 30.2C97.8999 30.2 97.9999 30.2 98.0999 30.2C98.1999 30.2 98.2999 30.2 98.3999 30.2C98.4999 30.2 98.5999 30.2 98.6999 30.2C98.7999 30.2 98.8999 30.2 98.9999 30.2C99.0999 30.2 99.1999 30.2 99.2999 30.2C99.3999 30.2 99.4999 30.2 99.5999 30.2C99.6999 30.2 99.7999 30.2 99.8999 30.2C99.9999 30.2 100.1 30.2 100.2 30.2C100.3 30.2 100.4 30.2 100.5 30.2C100.6 30.2 100.7 30.2 100.8 30.2C100.9 30.2 101 30.2 101.1 30.2C101.2 30.2 101.3 30.2 101.4 30.2C101.5 30.2 101.6 30.2 101.7 30.2C101.8 30.2 101.9 30.2 102 30.2C102.1 30.2 102.2 30.2 102.3 30.2C102.4 30.2 102.5 30.2 102.6 30.2C102.7 30.2 102.8 30.2 102.9 30.2C103 30.2 103.1 30.2 103.2 30.2C103.3 30.2 103.4 30.2 103.5 30.2C103.6 30.2 103.7 30.2 103.8 30.2C103.9 30.2 104 30.2 104.1 30.2C104.2 30.2 104.3 30.2 104.4 30.2C104.5 30.2 104.6 30.2 104.7 30.2C104.8 30.2 104.9 30.2 105 30.2C105.1 30.2 105.2 30.2 105.3 30.2C105.4 30.2 105.5 30.2 105.6 30.2C105.7 30.2 105.8 30.2 105.9 30.2C106 30.2 106.1 30.2 106.2 30.2C106.3 30.2 106.4 30.2 106.5 30.2C106.6 30.2 106.7 30.2 106.8 30.2C106.9 30.2 107 30.2 107.1 30.2C107.2 30.2 107.3 30.2 107.4 30.2C107.5 30.2 107.6 30.2 107.7 30.2C107.8 30.2 107.9 30.2 108 30.2C108.1 30.2 108.2 30.2 108.3 30.2C108.4 30.2 108.5 30.2 108.6 30.2C108.7 30.2 108.8 30.2 108.9 30.2C109 30.2 109.1 30.2 109.2 30.2C109.3 30.2 109.4 30.2 109.5 30.2C109.6 30.2 109.7 30.2 109.8 30.2C109.9 30.2 110 30.2 110.1 30.2C110.2 30.2 110.3 30.2 110.4 30.2C110.5 30.2 110.6 30.2 110.7 30.2C110.8 30.2 110.9 30.2 111 30.2C111.1 30.2 111.2 30.2 111.3 30.2C111.4 30.2 111.5 30.2 111.6 30.2C111.7 30.2 111.8 30.2 111.9 30.2C112 30.2 112.1 30.2 112.2 30.2C112.3 30.2 112.4 30.2 112.5 30.2C112.6 30.2 112.7 30.2 112.8 30.2C112.9 30.2 113 30.2 113.1 30.2C113.2 30.2 113.3 30.2 113.4 30.2C113.5 30.2 113.6 30.2 113.7 30.2C113.8 30.2 113.9 30.2 114 30.2C114.1 30.2 114.2 30.2 114.3 30.2C114.4 30.2 114.5 30.2 114.6 30.2C114.7 30.2 114.8 30.2 114.9 30.2C115 30.2 115.1 30.2 115.2 30.2C115.3 30.2 115.4 30.2 115.5 30.2C115.6 30.2 115.7 30.2 115.8 30.2C115.9 30.2 116 30.2 116.1 30.2C116.2 30.2 116.3 30.2 116.4 30.2C116.5 30.2 116.6 30.2 116.7 30.2C116.8 30.2 116.9 30.2 117 30.2C117.1 30.2 117.2 30.2 117.3 30.2C117.4 30.2 117.5 30.2 117.6 30.2C117.7 30.2 117.8 30.2 117.9 30.2C118 30.2 118.1 30.2 118.2 30.2C118.3 30.2 118.4 30.2 118.5 30.2C118.6 30.2 118.7 30.2 118.8 30.2C118.9 30.2 119 30.2 119.1 30.2C119.2 30.2 119.3 30.2 119.4 30.2C119.5 30.2 119.6 30.2 119.7 30.2C119.8 30.2 119.9 30.2 120 30.2C120.1 30.2 120.2 30.2 120.3 30.2C120.4 30.2 120.5 30.2 120.6 30.2C120.7 30.2 120.8 30.2 120.9 30.2C121 30.2 121.1 30.2 121.2 30.2C121.3 30.2 121.4 30.2 121.5 30.2C121.6 30.2 121.7 30.2 121.8 30.2C121.9 30.2 122 30.2 122.1 30.2C122.2 30.2 122.3 30.2 122.4 30.2C122.5 30.2 122.6 30.2 122.7 30.2C122.8 30.2 122.9 30.2 123 30.2C123.1 30.2 123.2 30.2 123.3 30.2C123.4 30.2 123.5 30.2 123.6 30.2C123.7 30.2 123.8 30.2 123.9 30.2C124 30.2 124.1 30.2 124.2 30.2C124.3 30.2 124.4 30.2 124.5 30.2C124.6 30.2 124.7 30.2 124.8 30.2C124.9 30.2 125 30.2 125.1 30.2C125.2 30.2 125.3 30.2 125.4 30.2C125.5 30.2 125.6 30.2 125.7 30.2C125.8 30.2 125.9 30.2 126 30.2C126.1 30.2 126.2 30.2 126.3 30.2C126.4 30.2 126.5 30.2 126.6 30.2C126.7 30.2 126.8 30.2 126.9 30.2C127 30.2 127.1 30.2 127.2 30.2C127.3 30.2 127.4 30.2 127.5 30.2C127.6 30.2 127.7 30.2 127.8 30.2C127.9 30.2 128 30.2 128.1 30.2C128.2 30.2 128.3 30.2 128.4 30.2C128.5 30.2 128.6 30.2 128.7 30.2C128.8 30.2 128.9 30.2 129 30.2C129.1 30.2 129.2 30.2 129.3 30.2C129.4 30.2 129.5 30.2 129.6 30.2C129.7 30.2 129.8 30.2 129.9 30.2C130 30.2 130.1 30.2 130.2 30.2C130.3 30.2 130.4 30.2 130.5 30.2C130.6 30.2 130.7 30.2 130.8 30.2C130.9 30.2 131 30.2 131.1 30.2C131.2 30.2 131.3 30.2 131.4 30.2C131.5 30.2 131.6 30.2 131.7 30.2C131.8 30.2 131.9 30.2 132 30.2C132.1 30.2 132.2 30.2 132.3 30.2C132.4 30.2 132.5 30.2 132.6 30.2C132.7 30.2 132.8 30.2 132.9 30.2C133 30.2 133.1 30.2 133.2 30.2C133.3 30.2 133.4 30.2 133.5 30.2C133.6 30.2 133.7 30.2 133.8 30.2C133.9 30.2 134 30.2 134.1 30.2C134.2 30.2 134.3 30.2 134.4 30.2C134.5 30.2 134.6 30.2 134.7 30.2C134.8 30.2 134.9 30.2 135 30.2C135.1 30.2 135.2 30.2 135.3 30.2C135.4 30.2 135.5 30.2 135.6 30.2C135.7 30.2 135.8 30.2 135.9 30.2C136 30.2 136.1 30.2 136.2 30.2C136.3 30.2 136.4 30.2 136.5 30.2C136.6 30.2 136.7 30.2 136.8 30.2C136.9 30.2 137 30.2 137.1 30.2C137.2 30.2 137.3 30.2 137.4 30.2C137.5 30.2 137.6 30.2 137.7 30.2C137.8 30.2 137.9 30.2 138 30.2C138.1 30.2 138.2 30.2 138.3 30.2C138.4 30.2 138.5 30.2 138.6 30.2C138.7 30.2 138.8 30.2 138.9 30.2C139 30.2 139.1 30.2 139.2 30.2C139.3 30.2 139.4 30.2 139.5 30.2C139.6 30.2 139.7 30.2 139.8 30.2C139.9 30.2 140 30.2 140.1 30.2C140.2 30.2 140.3 30.2 140.4 30.2C140.5 30.2 140.6 30.2 140.7 30.2C140.8 30.2 140.9 30.2 141 30.2C141.1 30.2 141.2 30.2 141.3 30.2C141.4 30.2 141.5 30.2 141.6 30.2C141.7 30.2 141.8 30.2 141.9 30.2C142 30.2 142.1 30.2 142.2 30.2C142.3 30.2 142.4 30.2 142.5 30.2C142.6 30.2 142.7 30.2 142.8 30.2C142.9 30.2 143 30.2 143.1 30.2C143.2 30.2 143.3 30.2 143.4 30.2C143.5 30.2 143.6 30.2 143.7 30.2C143.8 30.2 143.9 30.2 144 30.2C144.1 30.2 144.2 30.2 144.3 30.2C144.4 30.2 144.5 30.2 144.6 30.2C144.7 30.2 144.8 30.2 144.9 30.2C145 30.2 145.1 30.2 145.2 30.2C145.3 30.2 145.4 30.2 145.5 30.2C145.6 30.2 145.7 30.2 145.8 30.2C145.9 30.2 146 30.2 146.1 30.2C146.2 30.2 146.3 30.2 146.4 30.2C146.5 30.2 146.6 30.2 146.7 30.2C146.8 30.2 146.9 30.2 147 30.2C147.1 30.2 147.2 30.2 147.3 30.2C147.4 30.2 147.5 30.2 147.6 30.2C147.7 30.2 147.8 30.2 147.9 30.2C148 30.2 148.1 30.2 148.2 30.2C148.3 30.2 148.4 30.2 148.5 30.2C148.6 30.2 148.7 30.2 148.8 30.2C148.9 30.2 149 30.2 149.1 30.2C149.2 30.2 149.3 30.2 149.4 30.2C149.5 30.2 149.6 30.2 149.7 30.2C149.8 30.2 149.9 30.2 150 30.2C150.1 30.2 150.2 30.2 150.3 30.2C150.4 30.2 150.5 30.2 150.6 30.2C150.7 30.2 150.8 30.2 150.9 30.2C151 30.2 151.1 30.2 151.2 30.2C151.3 30.2 151.4 30.2 151.5 30.2C151.6 30.2 151.7 30.2 151.8 30.2C151.9 30.2 152 30.2 152.1 30.2C152.2 30.2 152.3 30.2 152.4 30.2C152.5 30.2 152.6 30.2 152.7 30.2C152.8 30.2 152.9 30.2 153 30.2C153.1 30.2 153.2 30.2 153.3 30.2C153.4 30.2 153.5 30.2 153.6 30.2C153.7 30.2 153.8 30.2 153.9 30.2C154 30.2 154.1 30.2 154.2 30.2C154.3 30.2 154.4 30.2 154.5 30.2C154.6 30.2 154.7 30.2 154.8 30.2C154.9 30.2 155 30.2 155.1 30.2C155.2 30.2 155.3 30.2 155.4 30.2C155.5 30.2 155.6 30.2 155.7 30.2C155.8 30.2 155.9 30.2 156 30.2C156.1 30.2 156.2 30.2 156.3 30.2C156.4 30.2 156.5 30.2 156.6 30.2C156.7 30.2 156.8 30.2 156.9 30.2C157 30.2 157.1 30.2 157.2 30.2C157.3 30.2 157.4 30.2 157.5 30.2C157.6 30.2 157.7 30.2 157.8 30.2C157.9 30.2 158 30.2 158.1 30.2C158.2 30.2 158.3 30.2 158.4 30.2C158.5 30.2 158.6 30.2 158.7 30.2C158.8 30.2 158.9 30.2 159 30.2C159.1 30.2 159.2 30.2 159.3 30.2C159.4 30.2 159.5 30.2 159.6 30.2C159.7 30.2 159.8 30.2 159.9 30.2C160 30.2 160.1 30.2 160.2 30.2C160.3 30.2 160.4 30.2 160.5 30.2C160.6 30.2 160.7 30.2 160.8 30.2C160.9 30.2 161 30.2 161.1 30.2C161.2 30.2 161.3 30.2 161.4 30.2C161.5 30.2 161.6 30.2 161.7 30.2C161.8 30.2 161.9 30.2 162 30.2C162.1 30.2 162.2 30.2 162.3 30.2C162.4 30.2 162.5 30.2 162.6 30.2C162.7 30.2 162.8 30.2 162.9 30.2C163 30.2 163.1 30.2 163.2 30.2C163.3 30.2 163.4 30.2 163.5 30.2C163.6 30.2 163.7 30.2 163.8 30.2C163.9 30.2 164 30.2 164.1 30.2C164.2 30.2 164.3 30.2 164.4 30.2C164.5 30.2 164.6 30.2 164.7 30.2C164.8 30.2 164.9 30.2 165 30.2C165.1 30.2 165.2 30.2 165.2 30.2C165.3 30.2 165.4 30.2 165.4 30.2C165.5 30.2 165.6 30.2 165.6 30.2C165.7 30.2 165.8 30.2 165.8 30.2C165.9 30.2 166 30.2 166 30.2H166.2C166.3 30.2 166.4 30.2 166.4 30.2H166.6H166.8C166.9 30.2 167 30.2 167 30.2C167.1 30.2 167.2 30.2 167.2 30.2C167.3 30.2 167.4 30.2 167.4 30.2H167.6H167.8C167.9 30.2 168 30.2 168 30.2H168.2H168.4H168.6C168.7 30.2 168.8 30.2 168.8 30.2C168.9 30.2 169 30.2 169 30.2C169 30.2 169.1 30.2 169.2 30.2C169.3 30.2 169.3 30.2 169.4 30.2C169.5 30.2 169.5 30.2 169.6 30.2C169.7 30.2 169.7 30.2 169.8 30.2C169.9 30.2 169.9 30.2 170 30.2C170.1 30.2 170.1 30.2 170.2 30.2C170.3 30.2 170.3 30.2 170.4 30.2C170.5 30.2 170.5 30.2 170.6 30.2C170.7 30.2 170.7 30.2 170.8 30.2C170.9 30.2 170.9 30.2 171 30.2C171.1 30.2 171.1 30.2 171.2 30.2C171.3 30.2 171.3 30.2 171.4 30.2C171.5 30.2 171.5 30.2 171.6 30.2C171.7 30.2 171.7 30.2 171.8 30.2C171.9 30.2 171.9 30.2 172 30.2C172.1 30.2 172.1 30.2 172.2 30.2C172.3 30.2 172.3 30.2 172.4 30.2C172.5 30.2 172.5 30.2 172.6 30.2C172.7 30.2 172.7 30.2 172.8 30.2C172.9 30.2 172.9 30.2 173 30.2C173.1 30.2 173.1 30.2 173.2 30.2C173.3 30.2 173.3 30.2 173.4 30.2C173.5 30.2 173.5 30.2 173.6 30.2C173.7 30.2 173.7 30.2 173.8 30.2C173.9 30.2 173.9 30.2 174 30.2C174.1 30.2 174.1 30.2 174.2 30.2C174.3 30.2 174.3 30.2 174.4 30.2C174.5 30.2 174.5 30.2 174.6 30.2C174.7 30.2 174.7 30.2 174.8 30.2C174.9 30.2 174.9 30.2 175 30.2C175.1 30.2 175.1 30.2 175.2 30.2C175.3 30.2 175.3 30.2 175.4 30.2C175.5 30.2 175.5 30.2 175.6 30.2C175.7 30.2 175.7 30.2 175.8 30.2C175.9 30.2 175.9 30.2 176 30.2C176.1 30.2 176.1 30.2 176.2 30.2C176.3 30.2 176.3 30.2 176.4 30.2C176.5 30.2 176.5 30.2 176.6 30.2C176.7 30.2 176.7 30.2 176.8 30.2C176.9 30.2 176.9 30.2 177 30.2C177.1 30.2 177.1 30.2 177.2 30.2C177.3 30.2 177.3 30.2 177.4 30.2C177.5 30.2 177.5 30.2 177.6 30.2C177.7 30.2 177.7 30.2 177.8 30.2C177.9 30.2 177.9 30.2 178 30.2C178.1 30.2 178.1 30.2 178.2 30.2C178.3 30.2 178.3 30.2 178.4 30.2C178.5 30.2 178.5 30.2 178.6 30.2C178.7 30.2 178.7 30.2 178.8 30.2C178.9 30.2 178.9 30.2 179 30.2H179.1H179.2H179.3H179.4H179.5H179.6H179.7H179.8H179.9H180H180.1H180.2H180.3H180.4H180.5V27.2H180.4H180.3H180.2H180.1H180H179.9H179.8H179.7H179.6H179.5H179.4H179.3H179.2H179.1H179C179 27.2 178.9 27.2 178.8 27.2C178.7 27.2 178.7 27.2 178.6 27.2C178.5 27.2 178.5 27.2 178.4 27.2C178.3 27.2 178.3 27.2 178.2 27.2C178.1 27.2 178.1 27.2 178 27.2C177.9 27.2 177.9 27.2 177.8 27.2C177.7 27.2 177.7 27.2 177.6 27.2C177.5 27.2 177.5 27.2 177.4 27.2C177.3 27.2 177.3 27.2 177.2 27.2C177.1 27.2 177.1 27.2 177 27.2C176.9 27.2 176.9 27.2 176.8 27.2C176.7 27.2 176.7 27.2 176.6 27.2C176.5 27.2 176.5 27.2 176.4 27.2C176.3 27.2 176.3 27.2 176.2 27.2C176.1 27.2 176.1 27.2 176 27.2C175.9 27.2 175.9 27.2 175.8 27.2C175.7 27.2 175.7 27.2 175.6 27.2C175.5 27.2 175.5 27.2 175.4 27.2C175.3 27.2 175.3 27.2 175.2 27.2C175.1 27.2 175.1 27.2 175 27.2C174.9 27.2 174.9 27.2 174.8 27.2C174.7 27.2 174.7 27.2 174.6 27.2C174.5 27.2 174.5 27.2 174.4 27.2C174.3 27.2 174.3 27.2 174.2 27.2C174.1 27.2 174.1 27.2 174 27.2C173.9 27.2 173.9 27.2 173.8 27.2C173.7 27.2 173.7 27.2 173.6 27.2C173.5 27.2 173.5 27.2 173.4 27.2C173.3 27.2 173.3 27.2 173.2 27.2C173.1 27.2 173.1 27.2 173 27.2C172.9 27.2 172.9 27.2 172.8 27.2C172.7 27.2 172.7 27.2 172.6 27.2C172.5 27.2 172.5 27.2 172.4 27.2C172.3 27.2 172.3 27.2 172.2 27.2C172.1 27.2 172.1 27.2 172 27.2C171.9 27.2 171.9 27.2 171.8 27.2C171.7 27.2 171.7 27.2 171.6 27.2C171.5 27.2 171.5 27.2 171.4 27.2C171.3 27.2 171.3 27.2 171.2 27.2C171.1 27.2 171.1 27.2 171 27.2C170.9 27.2 170.9 27.2 170.8 27.2C170.7 27.2 170.7 27.2 170.6 27.2C170.5 27.2 170.5 27.2 170.4 27.2C170.3 27.2 170.3 27.2 170.2 27.2C170.1 27.2 170.1 27.2 170 27.2C169.9 27.2 169.9 27.2 169.8 27.2C169.7 27.2 169.7 27.2 169.6 27.2C169.5 27.2 169.5 27.2 169.4 27.2C169.3 27.2 169.3 27.2 169.2 27.2C169.1 27.2 169.1 27.2 169 27.2C168.9 27.2 168.8 27.2 168.8 27.2C168.7 27.2 168.6 27.2 168.6 27.2C168.5 27.2 168.4 27.2 168.4 27.2H168.2H168H167.8C167.7 27.2 167.6 27.2 167.6 27.2H167.4H167.2C167.1 27.2 167 27.2 167 27.2C166.9 27.2 166.8 27.2 166.8 27.2C166.7 27.2 166.6 27.2 166.6 27.2H166.4H166.2C166.1 27.2 166 27.2 166 27.2H165.8C165.7 27.2 165.6 27.2 165.6 27.2C165.5 27.2 165.4 27.2 165.4 27.2C165.3 27.2 165.2 27.2 165.2 27.2C165.1 27.2 165 27.2 165 27.2C164.9 27.2 164.8 27.2 164.7 27.2C164.6 27.2 164.5 27.2 164.4 27.2C164.3 27.2 164.2 27.2 164.1 27.2C164 27.2 163.9 27.2 163.8 27.2C163.7 27.2 163.6 27.2 163.5 27.2C163.4 27.2 163.3 27.2 163.2 27.2C163.1 27.2 163 27.2 162.9 27.2C162.8 27.2 162.7 27.2 162.6 27.2C162.5 27.2 162.4 27.2 162.3 27.2C162.2 27.2 162.1 27.2 162 27.2C161.9 27.2 161.8 27.2 161.7 27.2C161.6 27.2 161.5 27.2 161.4 27.2C161.3 27.2 161.2 27.2 161.1 27.2C161 27.2 160.9 27.2 160.8 27.2C160.7 27.2 160.6 27.2 160.5 27.2C160.4 27.2 160.3 27.2 160.2 27.2C160.1 27.2 160 27.2 159.9 27.2C159.8 27.2 159.7 27.2 159.6 27.2C159.5 27.2 159.4 27.2 159.3 27.2C159.2 27.2 159.1 27.2 159 27.2C158.9 27.2 158.8 27.2 158.7 27.2C158.6 27.2 158.5 27.2 158.4 27.2C158.3 27.2 158.2 27.2 158.1 27.2C158 27.2 157.9 27.2 157.8 27.2C157.7 27.2 157.6 27.2 157.5 27.2C157.4 27.2 157.3 27.2 157.2 27.2C157.1 27.2 157 27.2 156.9 27.2C156.8 27.2 156.7 27.2 156.6 27.2C156.5 27.2 156.4 27.2 156.3 27.2C156.2 27.2 156.1 27.2 156 27.2C155.9 27.2 155.8 27.2 155.7 27.2C155.6 27.2 155.5 27.2 155.4 27.2C155.3 27.2 155.2 27.2 155.1 27.2C155 27.2 154.9 27.2 154.8 27.2C154.7 27.2 154.6 27.2 154.5 27.2C154.4 27.2 154.3 27.2 154.2 27.2C154.1 27.2 154 27.2 153.9 27.2C153.8 27.2 153.7 27.2 153.6 27.2C153.5 27.2 153.4 27.2 153.3 27.2C153.2 27.2 153.1 27.2 153 27.2C152.9 27.2 152.8 27.2 152.7 27.2C152.6 27.2 152.5 27.2 152.4 27.2C152.3 27.2 152.2 27.2 152.1 27.2C152 27.2 151.9 27.2 151.8 27.2C151.7 27.2 151.6 27.2 151.5 27.2C151.4 27.2 151.3 27.2 151.2 27.2C151.1 27.2 151 27.2 150.9 27.2C150.8 27.2 150.7 27.2 150.6 27.2C150.5 27.2 150.4 27.2 150.3 27.2C150.2 27.2 150.1 27.2 150 27.2C149.9 27.2 149.8 27.2 149.7 27.2C149.6 27.2 149.5 27.2 149.4 27.2C149.3 27.2 149.2 27.2 149.1 27.2C149 27.2 148.9 27.2 148.8 27.2C148.7 27.2 148.6 27.2 148.5 27.2C148.4 27.2 148.3 27.2 148.2 27.2C148.1 27.2 148 27.2 147.9 27.2C147.8 27.2 147.7 27.2 147.6 27.2C147.5 27.2 147.4 27.2 147.3 27.2C147.2 27.2 147.1 27.2 147 27.2C146.9 27.2 146.8 27.2 146.7 27.2C146.6 27.2 146.5 27.2 146.4 27.2C146.3 27.2 146.2 27.2 146.1 27.2C146 27.2 145.9 27.2 145.8 27.2C145.7 27.2 145.6 27.2 145.5 27.2C145.4 27.2 145.3 27.2 145.2 27.2C145.1 27.2 145 27.2 144.9 27.2C144.8 27.2 144.7 27.2 144.6 27.2C144.5 27.2 144.4 27.2 144.3 27.2C144.2 27.2 144.1 27.2 144 27.2C143.9 27.2 143.8 27.2 143.7 27.2C143.6 27.2 143.5 27.2 143.4 27.2C143.3 27.2 143.2 27.2 143.1 27.2C143 27.2 142.9 27.2 142.8 27.2C142.7 27.2 142.6 27.2 142.5 27.2C142.4 27.2 142.3 27.2 142.2 27.2C142.1 27.2 142 27.2 141.9 27.2C141.8 27.2 141.7 27.2 141.6 27.2C141.5 27.2 141.4 27.2 141.3 27.2C141.2 27.2 141.1 27.2 141 27.2C140.9 27.2 140.8 27.2 140.7 27.2C140.6 27.2 140.5 27.2 140.4 27.2C140.3 27.2 140.2 27.2 140.1 27.2C140 27.2 139.9 27.2 139.8 27.2C139.7 27.2 139.6 27.2 139.5 27.2C139.4 27.2 139.3 27.2 139.2 27.2C139.1 27.2 139 27.2 138.9 27.2C138.8 27.2 138.7 27.2 138.6 27.2C138.5 27.2 138.4 27.2 138.3 27.2C138.2 27.2 138.1 27.2 138 27.2C137.9 27.2 137.8 27.2 137.7 27.2C137.6 27.2 137.5 27.2 137.4 27.2C137.3 27.2 137.2 27.2 137.1 27.2C137 27.2 136.9 27.2 136.8 27.2C136.7 27.2 136.6 27.2 136.5 27.2C136.4 27.2 136.3 27.2 136.2 27.2C136.1 27.2 136 27.2 135.9 27.2C135.8 27.2 135.7 27.2 135.6 27.2C135.5 27.2 135.4 27.2 135.3 27.2C135.2 27.2 135.1 27.2 135 27.2C134.9 27.2 134.8 27.2 134.7 27.2C134.6 27.2 134.5 27.2 134.4 27.2C134.3 27.2 134.2 27.2 134.1 27.2C134 27.2 133.9 27.2 133.8 27.2C133.7 27.2 133.6 27.2 133.5 27.2C133.4 27.2 133.3 27.2 133.2 27.2C133.1 27.2 133 27.2 132.9 27.2C132.8 27.2 132.7 27.2 132.6 27.2C132.5 27.2 132.4 27.2 132.3 27.2C132.2 27.2 132.1 27.2 132 27.2C131.9 27.2 131.8 27.2 131.7 27.2C131.6 27.2 131.5 27.2 131.4 27.2C131.3 27.2 131.2 27.2 131.1 27.2C131 27.2 130.9 27.2 130.8 27.2C130.7 27.2 130.6 27.2 130.5 27.2C130.4 27.2 130.3 27.2 130.2 27.2C130.1 27.2 130 27.2 129.9 27.2C129.8 27.2 129.7 27.2 129.6 27.2C129.5 27.2 129.4 27.2 129.3 27.2C129.2 27.2 129.1 27.2 129 27.2C128.9 27.2 128.8 27.2 128.7 27.2C128.6 27.2 128.5 27.2 128.4 27.2C128.3 27.2 128.2 27.2 128.1 27.2C128 27.2 127.9 27.2 127.8 27.2C127.7 27.2 127.6 27.2 127.5 27.2C127.4 27.2 127.3 27.2 127.2 27.2C127.1 27.2 127 27.2 126.9 27.2C126.8 27.2 126.7 27.2 126.6 27.2C126.5 27.2 126.4 27.2 126.3 27.2C126.2 27.2 126.1 27.2 126 27.2C125.9 27.2 125.8 27.2 125.7 27.2C125.6 27.2 125.5 27.2 125.4 27.2C125.3 27.2 125.2 27.2 125.1 27.2C125 27.2 124.9 27.2 124.8 27.2C124.7 27.2 124.6 27.2 124.5 27.2C124.4 27.2 124.3 27.2 124.2 27.2C124.1 27.2 124 27.2 123.9 27.2C123.8 27.2 123.7 27.2 123.6 27.2C123.5 27.2 123.4 27.2 123.3 27.2C123.2 27.2 123.1 27.2 123 27.2C122.9 27.2 122.8 27.2 122.7 27.2C122.6 27.2 122.5 27.2 122.4 27.2C122.3 27.2 122.2 27.2 122.1 27.2C122 27.2 121.9 27.2 121.8 27.2C121.7 27.2 121.6 27.2 121.5 27.2C121.4 27.2 121.3 27.2 121.2 27.2C121.1 27.2 121 27.2 120.9 27.2C120.8 27.2 120.7 27.2 120.6 27.2C120.5 27.2 120.4 27.2 120.3 27.2C120.2 27.2 120.1 27.2 120 27.2C119.9 27.2 119.8 27.2 119.7 27.2C119.6 27.2 119.5 27.2 119.4 27.2C119.3 27.2 119.2 27.2 119.1 27.2C119 27.2 118.9 27.2 118.8 27.2C118.7 27.2 118.6 27.2 118.5 27.2C118.4 27.2 118.3 27.2 118.2 27.2C118.1 27.2 118 27.2 117.9 27.2C117.8 27.2 117.7 27.2 117.6 27.2C117.5 27.2 117.4 27.2 117.3 27.2C117.2 27.2 117.1 27.2 117 27.2C116.9 27.2 116.8 27.2 116.7 27.2C116.6 27.2 116.5 27.2 116.4 27.2C116.3 27.2 116.2 27.2 116.1 27.2C116 27.2 115.9 27.2 115.8 27.2C115.7 27.2 115.6 27.2 115.5 27.2C115.4 27.2 115.3 27.2 115.2 27.2C115.1 27.2 115 27.2 114.9 27.2C114.8 27.2 114.7 27.2 114.6 27.2C114.5 27.2 114.4 27.2 114.3 27.2C114.2 27.2 114.1 27.2 114 27.2C113.9 27.2 113.8 27.2 113.7 27.2C113.6 27.2 113.5 27.2 113.4 27.2C113.3 27.2 113.2 27.2 113.1 27.2C113 27.2 112.9 27.2 112.8 27.2C112.7 27.2 112.6 27.2 112.5 27.2C112.4 27.2 112.3 27.2 112.2 27.2C112.1 27.2 112 27.2 111.9 27.2C111.8 27.2 111.7 27.2 111.6 27.2C111.5 27.2 111.4 27.2 111.3 27.2C111.2 27.2 111.1 27.2 111 27.2C110.9 27.2 110.8 27.2 110.7 27.2C110.6 27.2 110.5 27.2 110.4 27.2C110.3 27.2 110.2 27.2 110.1 27.2C110 27.2 109.9 27.2 109.8 27.2C109.7 27.2 109.6 27.2 109.5 27.2C109.4 27.2 109.3 27.2 109.2 27.2C109.1 27.2 109 27.2 108.9 27.2C108.8 27.2 108.7 27.2 108.6 27.2C108.5 27.2 108.4 27.2 108.3 27.2C108.2 27.2 108.1 27.2 108 27.2C107.9 27.2 107.8 27.2 107.7 27.2C107.6 27.2 107.5 27.2 107.4 27.2C107.3 27.2 107.2 27.2 107.1 27.2C107 27.2 106.9 27.2 106.8 27.2C106.7 27.2 106.6 27.2 106.5 27.2C106.4 27.2 106.3 27.2 106.2 27.2C106.1 27.2 106 27.2 105.9 27.2C105.8 27.2 105.7 27.2 105.6 27.2C105.5 27.2 105.4 27.2 105.3 27.2C105.2 27.2 105.1 27.2 105 27.2C104.9 27.2 104.8 27.2 104.7 27.2C104.6 27.2 104.5 27.2 104.4 27.2C104.3 27.2 104.2 27.2 104.1 27.2C104 27.2 103.9 27.2 103.8 27.2C103.7 27.2 103.6 27.2 103.5 27.2C103.4 27.2 103.3 27.2 103.2 27.2C103.1 27.2 103 27.2 102.9 27.2C102.8 27.2 102.7 27.2 102.6 27.2C102.5 27.2 102.4 27.2 102.3 27.2C102.2 27.2 102.1 27.2 102 27.2C101.9 27.2 101.8 27.2 101.7 27.2C101.6 27.2 101.5 27.2 101.4 27.2C101.3 27.2 101.2 27.2 101.1 27.2C101 27.2 100.9 27.2 100.8 27.2C100.7 27.2 100.6 27.2 100.5 27.2C100.4 27.2 100.3 27.2 100.2 27.2C100.1 27.2 99.9999 27.2 99.8999 27.2C99.7999 27.2 99.6999 27.2 99.5999 27.2C99.4999 27.2 99.3999 27.2 99.2999 27.2C99.1999 27.2 99.0999 27.2 98.9999 27.2C98.8999 27.2 98.7999 27.2 98.6999 27.2C98.5999 27.2 98.4999 27.2 98.3999 27.2C98.2999 27.2 98.1999 27.2 98.0999 27.2C97.9999 27.2 97.8999 27.2 97.7999 27.2C97.6999 27.2 97.5999 27.2 97.4999 27.2C97.3999 27.2 97.2999 27.2 97.1999 27.2C97.0999 27.2 96.9999 27.2 96.8999 27.2C96.7999 27.2 96.6999 27.2 96.5999 27.2C96.4999 27.2 96.3999 27.2 96.2999 27.2C96.1999 27.2 96.0999 27.2 95.9999 27.2C95.8999 27.2 95.7999 27.2 95.6999 27.2C95.5999 27.2 95.4999 27.2 95.3999 27.2C95.2999 27.2 95.1999 27.2 95.0999 27.2C94.9999 27.2 94.8999 27.2 94.7999 27.2C94.6999 27.2 94.5999 27.2 94.4999 27.2C94.3999 27.2 94.2999 27.2 94.1999 27.2C94.0999 27.2 93.9999 27.2 93.8999 27.2C93.7999 27.2 93.6999 27.2 93.5999 27.2C93.4999 27.2 93.3999 27.2 93.2999 27.2C93.1999 27.2 93.0999 27.2 92.9999 27.2C92.8999 27.2 92.7999 27.2 92.6999 27.2C92.5999 27.2 92.4999 27.2 92.3999 27.2C92.2999 27.2 92.1999 27.2 92.0999 27.2C91.9999 27.2 91.8999 27.2 91.7999 27.2C91.6999 27.2 91.5999 27.2 91.4999 27.2C91.3999 27.2 91.2999 27.2 91.1999 27.2C91.0999 27.2 90.9999 27.2 90.8999 27.2C90.7999 27.2 90.6999 27.2 90.5999 27.2C90.4999 27.2 90.3999 27.2 90.2999 27.2C90.1999 27.2 90.0999 27.2 89.9999 27.2C89.8999 27.2 89.7999 27.2 89.6999 27.2C89.5999 27.2 89.4999 27.2 89.3999 27.2C89.2999 27.2 89.1999 27.2 89.0999 27.2C88.9999 27.2 88.8999 27.2 88.7999 27.2C88.6999 27.2 88.5999 27.2 88.4999 27.2C88.3999 27.2 88.2999 27.2 88.1999 27.2C88.0999 27.2 87.9999 27.2 87.8999 27.2C87.7999 27.2 87.6999 27.2 87.5999 27.2C87.4999 27.2 87.3999 27.2 87.2999 27.2C87.1999 27.2 87.0999 27.2 86.9999 27.2C86.8999 27.2 86.7999 27.2 86.6999 27.2C86.5999 27.2 86.4999 27.2 86.3999 27.2C86.2999 27.2 86.1999 27.2 86.0999 27.2C85.9999 27.2 85.8999 27.2 85.7999 27.2C85.6999 27.2 85.5999 27.2 85.4999 27.2C85.3999 27.2 85.2999 27.2 85.1999 27.2C85.0999 27.2 84.9999 27.2 84.8999 27.2C84.7999 27.2 84.6999 27.2 84.5999 27.2C84.4999 27.2 84.3999 27.2 84.2999 27.2C84.1999 27.2 84.0999 27.2 83.9999 27.2C83.8999 27.2 83.7999 27.2 83.6999 27.2C83.5999 27.2 83.4999 27.2 83.3999 27.2C83.2999 27.2 83.1999 27.2 83.0999 27.2C82.9999 27.2 82.8999 27.2 82.7999 27.2C82.6999 27.2 82.5999 27.2 82.4999 27.2C82.3999 27.2 82.2999 27.2 82.1999 27.2C82.0999 27.2 81.9999 27.2 81.8999 27.2C81.7999 27.2 81.6999 27.2 81.5999 27.2C81.4999 27.2 81.3999 27.2 81.2999 27.2C81.1999 27.2 81.0999 27.2 80.9999 27.2C80.8999 27.2 80.7999 27.2 80.6999 27.2C80.5999 27.2 80.4999 27.2 80.3999 27.2C80.2999 27.2 80.1999 27.2 80.0999 27.2C79.9999 27.2 79.8999 27.2 79.7999 27.2C79.6999 27.2 79.5999 27.2 79.4999 27.2C79.3999 27.2 79.2999 27.2 79.1999 27.2C79.0999 27.2 78.9999 27.2 78.8999 27.2C78.7999 27.2 78.6999 27.2 78.5999 27.2C78.4999 27.2 78.3999 27.2 78.2999 27.2C78.1999 27.2 78.0999 27.2 77.9999 27.2C77.8999 27.2 77.7999 27.2 77.6999 27.2C77.5999 27.2 77.4999 27.2 77.3999 27.2C77.2999 27.2 77.1999 27.2 77.0999 27.2C76.9999 27.2 76.8999 27.2 76.7999 27.2C76.6999 27.2 76.5999 27.2 76.4999 27.2C76.3999 27.2 76.2999 27.2 76.1999 27.2C76.0999 27.2 75.9999 27.2 75.8999 27.2C75.7999 27.2 75.6999 27.2 75.5999 27.2C75.4999 27.2 75.3999 27.2 75.2999 27.2C75.1999 27.2 75.0999 27.2 74.9999 27.2C74.8999 27.2 74.7999 27.2 74.6999 27.2C74.5999 27.2 74.4999 27.2 74.3999 27.2C74.2999 27.2 74.1999 27.2 74.0999 27.2C73.9999 27.2 73.8999 27.2 73.7999 27.2C73.6999 27.2 73.5999 27.2 73.4999 27.2C73.3999 27.2 73.2999 27.2 73.1999 27.2C73.0999 27.2 72.9999 27.2 72.8999 27.2C72.7999 27.2 72.6999 27.2 72.5999 27.2C72.4999 27.2 72.3999 27.2 72.2999 27.2C72.1999 27.2 72.0999 27.2 71.9999 27.2C71.8999 27.2 71.7999 27.2 71.6999 27.2C71.5999 27.2 71.4999 27.2 71.3999 27.2C71.2999 27.2 71.1999 27.2 71.0999 27.2C70.9999 27.2 70.8999 27.2 70.7999 27.2C70.6999 27.2 70.5999 27.2 70.4999 27.2C70.3999 27.2 70.2999 27.2 70.1999 27.2C70.0999 27.2 69.9999 27.2 69.8999 27.2C69.7999 27.2 69.6999 27.2 69.6999 27.2H69.4999H69.2999H69.0999H68.8999H68.6999H68.4999C68.3999 27.2 68.2999 27.2 68.2999 27.2C68.1999 27.2 68.0999 27.2 68.0999 27.2C67.9999 27.2 67.8999 27.2 67.8999 27.2H67.6999C67.5999 27.2 67.4999 27.2 67.4999 27.2C67.3999 27.2 67.2999 27.2 67.2999 27.2H67.0999C66.9999 27.2 66.8999 27.2 66.8999 27.2C66.7999 27.2 66.6999 27.2 66.6999 27.2H66.4999C66.3999 27.2 66.2999 27.2 66.2999 27.2C66.1999 27.2 66.0999 27.2 66.0999 27.2H65.8999C65.7999 27.2 65.7999 27.2 65.6999 27.2C65.5999 27.2 65.5999 27.2 65.4999 27.2C65.3999 27.2 65.3999 27.2 65.2999 27.2C65.1999 27.2 65.1999 27.2 65.0999 27.2C64.9999 27.2 64.9999 27.2 64.8999 27.2C64.7999 27.2 64.7999 27.2 64.6999 27.2C64.5999 27.2 64.5999 27.2 64.4999 27.2C64.3999 27.2 64.3999 27.2 64.2999 27.2C64.1999 27.2 64.1999 27.2 64.0999 27.2C63.9999 27.2 63.9999 27.2 63.8999 27.2C63.7999 27.2 63.7999 27.2 63.6999 27.2C63.5999 27.2 63.5999 27.2 63.4999 27.2C63.3999 27.2 63.3999 27.2 63.2999 27.2C63.1999 27.2 63.1999 27.2 63.0999 27.2C62.9999 27.2 62.9999 27.2 62.8999 27.2C62.7999 27.2 62.7999 27.2 62.6999 27.2C62.5999 27.2 62.5999 27.2 62.4999 27.2C62.3999 27.2 62.3999 27.2 62.2999 27.2C62.1999 27.2 62.1999 27.2 62.0999 27.2C61.9999 27.2 61.9999 27.2 61.8999 27.2C61.7999 27.2 61.7999 27.2 61.6999 27.2C61.5999 27.2 61.5999 27.2 61.4999 27.2C61.3999 27.2 61.3999 27.2 61.2999 27.2C61.1999 27.2 61.1999 27.2 61.0999 27.2C60.9999 27.2 60.9999 27.2 60.8999 27.2C60.7999 27.2 60.7999 27.2 60.6999 27.2C60.5999 27.2 60.5999 27.2 60.4999 27.2C60.3999 27.2 60.3999 27.2 60.2999 27.2C60.1999 27.2 60.1999 27.2 60.0999 27.2C59.9999 27.2 59.9999 27.2 59.8999 27.2C59.7999 27.2 59.7999 27.2 59.6999 27.2C59.5999 27.2 59.5999 27.2 59.4999 27.2C59.3999 27.2 59.3999 27.2 59.2999 27.2C59.1999 27.2 59.1999 27.2 59.0999 27.2C58.9999 27.2 58.9999 27.2 58.8999 27.2C58.7999 27.2 58.7999 27.2 58.6999 27.2C58.5999 27.2 58.5999 27.2 58.4999 27.2C58.3999 27.2 58.3999 27.2 58.2999 27.2C58.1999 27.2 58.1999 27.2 58.0999 27.2C57.9999 27.2 57.9999 27.2 57.8999 27.2C57.7999 27.2 57.7999 27.2 57.6999 27.2C57.5999 27.2 57.5999 27.2 57.4999 27.2C57.3999 27.2 57.3999 27.2 57.2999 27.2C57.1999 27.2 57.1999 27.2 57.0999 27.2C56.9999 27.2 56.9999 27.2 56.8999 27.2C56.7999 27.2 56.7999 27.2 56.6999 27.2C56.5999 27.2 56.5999 27.2 56.4999 27.2C56.3999 27.2 56.3999 27.2 56.2999 27.2C56.1999 27.2 56.1999 27.2 56.0999 27.2C55.9999 27.2 55.9999 27.2 55.8999 27.2C55.7999 27.2 55.7999 27.2 55.7999 27.2H55.6999H55.5999H55.4999H55.3999H55.2999H55.1999H55.0999H54.9999H54.8999H54.7999H54.6999H54.5999H54.4999H54.3999H54.2999H54.1999H54.0999H53.9999H53.8999H53.7999H53.6999H53.5999H53.4999H53.3999H53.2999H53.1999H53.0999H52.9999H52.8999H52.7999H52.6999H52.5999H52.4999H52.3999H52.2999H52.1999H52.0999H51.9999H51.8999V30.2Z" fill="#FFD78C"/>
<path d="M465.3 27.2C465.2 27.2 465.2 27.2 465.2 27.2H465.1H465H464.9H464.8H464.7H464.6H464.5H464.4H464.3H464.2H464.1H464H463.9C463.9 27.2 463.8 27.2 463.7 27.2C463.6 27.2 463.6 27.2 463.5 27.2C463.4 27.2 463.4 27.2 463.3 27.2C463.2 27.2 463.2 27.2 463.1 27.2C463 27.2 463 27.2 462.9 27.2C462.8 27.2 462.8 27.2 462.7 27.2C462.6 27.2 462.6 27.2 462.5 27.2C462.4 27.2 462.4 27.2 462.3 27.2C462.2 27.2 462.2 27.2 462.1 27.2C462 27.2 462 27.2 461.9 27.2C461.8 27.2 461.8 27.2 461.7 27.2C461.6 27.2 461.6 27.2 461.5 27.2C461.4 27.2 461.4 27.2 461.3 27.2C461.2 27.2 461.2 27.2 461.1 27.2C461 27.2 461 27.2 460.9 27.2C460.8 27.2 460.7 27.2 460.7 27.2H460.5C460.4 27.2 460.3 27.2 460.3 27.2H460.1C460 27.2 459.9 27.2 459.9 27.2C459.8 27.2 459.7 27.2 459.6 27.2C459.5 27.2 459.4 27.2 459.3 27.2C459.2 27.2 459.1 27.2 459 27.2C458.9 27.2 458.8 27.2 458.7 27.2C458.6 27.2 458.5 27.2 458.4 27.2C458.3 27.2 458.2 27.2 458.1 27.2C458 27.2 457.9 27.2 457.8 27.2C457.7 27.2 457.6 27.2 457.5 27.2C457.4 27.2 457.3 27.2 457.2 27.2C457.1 27.2 457 27.2 456.9 27.2C456.8 27.2 456.7 27.2 456.6 27.2C456.5 27.2 456.4 27.2 456.3 27.2C456.2 27.2 456.1 27.2 456 27.2C455.9 27.2 455.8 27.2 455.7 27.2C455.6 27.2 455.5 27.2 455.4 27.2C455.3 27.2 455.2 27.2 455.1 27.2C455 27.2 454.9 27.2 454.8 27.2C454.7 27.2 454.6 27.2 454.5 27.2C454.4 27.2 454.3 27.2 454.2 27.2C454.1 27.2 454 27.2 453.9 27.2C453.8 27.2 453.7 27.2 453.6 27.2C453.5 27.2 453.4 27.2 453.3 27.2C453.2 27.2 453.1 27.2 452.9 27.2C452.8 27.2 452.7 27.2 452.5 27.2C452.4 27.2 452.3 27.2 452.1 27.2C451.9 27.2 451.9 27.2 451.7 27.2C451.5 27.2 451.5 27.2 451.3 27.2C451.1 27.2 451.1 27.2 450.9 27.2C450.7 27.2 450.7 27.2 450.5 27.2C450.3 27.2 450.2 27.2 450.1 27.2C450 27.2 449.8 27.2 449.7 27.2C449.6 27.2 449.4 27.2 449.3 27.2C449.2 27.2 449 27.2 448.9 27.2C448.8 27.2 448.6 27.2 448.5 27.2C448.4 27.2 448.2 27.2 448.1 27.2C448 27.2 447.8 27.2 447.7 27.2C447.6 27.2 447.4 27.2 447.3 27.2C447.2 27.2 447 27.2 446.9 27.2C446.8 27.2 446.6 27.2 446.5 27.2C446.4 27.2 446.2 27.2 446.1 27.2C446 27.2 445.8 27.2 445.7 27.2C445.6 27.2 445.4 27.2 445.3 27.2C445.2 27.2 445 27.2 444.9 27.2C444.8 27.2 444.6 27.2 444.5 27.2C444.4 27.2 444.2 27.2 444.1 27.2C444 27.2 443.8 27.2 443.7 27.2C443.6 27.2 443.4 27.2 443.3 27.2C443.2 27.2 443 27.2 442.8 27.2C442.6 27.2 442.5 27.2 442.3 27.2C442.1 27.2 442 27.2 441.8 27.2C441.6 27.2 441.5 27.2 441.3 27.2C441.1 27.2 441 27.2 440.8 27.2C440.6 27.2 440.5 27.2 440.3 27.2C440.1 27.2 440 27.2 439.8 27.2C439.6 27.2 439.5 27.2 439.3 27.2C439.1 27.2 439 27.2 438.8 27.2C438.6 27.2 438.5 27.2 438.3 27.2C438.1 27.2 438 27.2 437.8 27.2C437.6 27.2 437.5 27.2 437.3 27.2C437.1 27.2 437 27.2 436.8 27.2C436.6 27.2 436.5 27.2 436.3 27.2C436.1 27.2 436 27.2 435.8 27.2C435.6 27.2 435.5 27.2 435.3 27.2C435.1 27.2 435 27.2 434.8 27.2C434.6 27.2 434.5 27.2 434.3 27.2C434.1 27.2 434 27.2 433.8 27.2C433.6 27.2 433.5 27.2 433.3 27.2C433.1 27.2 433 27.2 432.8 27.2C432.6 27.2 432.5 27.2 432.3 27.2C432.1 27.2 431.9 27.2 431.8 27.2C431.7 27.2 431.4 27.2 431.3 27.2C431.1 27.2 430.9 27.2 430.8 27.2C430.7 27.2 430.4 27.2 430.3 27.2C430.2 27.2 429.9 27.2 429.8 27.2C429.6 27.2 429.4 27.2 429.3 27.2C429.1 27.2 428.9 27.2 428.8 27.2C428.7 27.2 428.4 27.2 428.2 27.2C428 27.2 427.8 27.2 427.6 27.2C427.4 27.2 427.2 27.2 427 27.2C426.8 27.2 426.6 27.2 426.4 27.2C426.2 27.2 426 27.2 425.8 27.2C425.6 27.2 425.4 27.2 425.2 27.2C425 27.2 424.8 27.2 424.6 27.2C424.4 27.2 424.2 27.2 424 27.2C423.8 27.2 423.6 27.2 423.4 27.2C423.2 27.2 423 27.2 422.8 27.2C422.6 27.2 422.4 27.2 422.2 27.2C422 27.2 421.8 27.2 421.6 27.2C421.4 27.2 421.2 27.2 421 27.2C420.8 27.2 420.6 27.2 420.4 27.2C420.2 27.2 420 27.2 419.8 27.2C419.6 27.2 419.4 27.2 419.2 27.2C419 27.2 418.8 27.2 418.6 27.2C418.4 27.2 418.2 27.2 418 27.2C417.8 27.2 417.6 27.2 417.4 27.2C417.2 27.2 417 27.2 416.8 27.2C416.6 27.2 416.4 27.2 416.2 27.2C416 27.2 415.8 27.2 415.6 27.2C415.4 27.2 415.2 27.2 415 27.2C414.8 27.2 414.6 27.2 414.4 27.2C414.2 27.2 414 27.2 413.8 27.2C413.6 27.2 413.4 27.2 413.2 27.2C413 27.2 412.8 27.2 412.6 27.2C412.4 27.2 412.2 27.2 412 27.2C411.8 27.2 411.6 27.2 411.4 27.2C411.2 27.2 411 27.2 410.8 27.2C410.6 27.2 410.4 27.2 410.2 27.2C410 27.2 409.8 27.2 409.6 27.2C409.4 27.2 409.2 27.2 409 27.2C408.8 27.2 408.6 27.2 408.4 27.2C408.2 27.2 408 27.2 407.8 27.2C407.6 27.2 407.4 27.2 407.2 27.2C407 27.2 406.8 27.2 406.5 27.2C406.3 27.2 406.1 27.2 405.8 27.2C405.5 27.2 405.4 27.2 405.1 27.2C404.9 27.2 404.7 27.2 404.4 27.2C404.1 27.2 404 27.2 403.7 27.2C403.5 27.2 403.3 27.2 403 27.2C402.7 27.2 402.6 27.2 402.3 27.2C402 27.2 401.9 27.2 401.6 27.2C401.3 27.2 401.2 27.2 400.9 27.2C400.6 27.2 400.5 27.2 400.2 27.2C400 27.2 399.8 27.2 399.5 27.2C399.3 27.2 399 27.2 398.8 27.2C398.6 27.2 398.3 27.2 398.1 27.2C397.9 27.2 397.6 27.2 397.4 27.2C397.2 27.2 396.9 27.2 396.7 27.2C396.5 27.2 396.2 27.2 396 27.2C395.8 27.2 395.5 27.2 395.3 27.2C395.1 27.2 394.8 27.2 394.6 27.2C394.4 27.2 394.1 27.2 393.9 27.2C393.7 27.2 393.4 27.2 393.2 27.2C393 27.2 392.7 27.2 392.5 27.2C392.3 27.2 392 27.2 391.8 27.2C391.6 27.2 391.3 27.2 391.1 27.2C390.9 27.2 390.6 27.2 390.4 27.2C390.2 27.2 389.9 27.2 389.7 27.2C389.5 27.2 389.2 27.2 389 27.2C388.8 27.2 388.5 27.2 388.3 27.2C388.1 27.2 387.8 27.2 387.6 27.2C387.4 27.2 387.1 27.2 386.9 27.2C386.7 27.2 386.4 27.2 386.2 27.2C386 27.2 385.7 27.2 385.5 27.2C385.3 27.2 385 27.2 384.8 27.2C384.6 27.2 384.3 27.2 384.1 27.2C383.9 27.2 383.6 27.2 383.4 27.2C383.2 27.2 382.9 27.2 382.7 27.2C382.5 27.2 382.2 27.2 382 27.2C381.8 27.2 381.5 27.2 381.3 27.2C381.1 27.2 380.8 27.2 380.6 27.2C380.4 27.2 380.1 27.2 379.9 27.2C379.7 27.2 379.4 27.2 379.2 27.2C379 27.2 378.7 27.2 378.5 27.2C378.3 27.2 378 27.2 377.8 27.2C377.6 27.2 377.3 27.2 377.1 27.2C376.9 27.2 376.6 27.2 376.4 27.2C376.2 27.2 375.9 27.2 375.7 27.2C375.5 27.2 375.2 27.2 375 27.2C374.8 27.2 374.5 27.2 374.3 27.2C374.1 27.2 373.8 27.2 373.6 27.2C373.4 27.2 373.1 27.2 372.9 27.2C372.7 27.2 372.4 27.2 372.2 27.2C372 27.2 371.7 27.2 371.5 27.2C371.3 27.2 371 27.2 370.8 27.2C370.6 27.2 370.3 27.2 370.1 27.2C369.9 27.2 369.6 27.2 369.4 27.2C369.2 27.2 368.9 27.2 368.7 27.2C368.5 27.2 368.2 27.2 367.9 27.2C367.6 27.2 367.4 27.2 367.1 27.2C366.8 27.2 366.6 27.2 366.3 27.2C366 27.2 365.8 27.2 365.5 27.2C365.2 27.2 365 27.2 364.7 27.2C364.4 27.2 364.2 27.2 363.9 27.2C363.6 27.2 363.4 27.2 363.1 27.2C362.8 27.2 362.6 27.2 362.3 27.2C362 27.2 361.8 27.2 361.5 27.2C361.2 27.2 361 27.2 360.7 27.2C360.4 27.2 360.2 27.2 359.9 27.2C359.6 27.2 359.4 27.2 359.1 27.2C358.8 27.2 358.6 27.2 358.3 27.2C358 27.2 357.8 27.2 357.5 27.2C357.2 27.2 357 27.2 356.7 27.2C356.4 27.2 356.2 27.2 355.9 27.2C355.6 27.2 355.4 27.2 355.1 27.2C354.8 27.2 354.6 27.2 354.3 27.2C354 27.2 353.8 27.2 353.5 27.2C353.2 27.2 353 27.2 352.7 27.2C352.4 27.2 352.2 27.2 351.9 27.2C351.6 27.2 351.4 27.2 351.1 27.2C350.8 27.2 350.6 27.2 350.3 27.2C350 27.2 349.8 27.2 349.5 27.2C349.2 27.2 349 27.2 348.7 27.2C348.4 27.2 348.2 27.2 347.9 27.2C347.6 27.2 347.4 27.2 347.1 27.2C346.8 27.2 346.6 27.2 346.3 27.2C346 27.2 345.8 27.2 345.5 27.2C345.2 27.2 345 27.2 344.7 27.2C344.4 27.2 344.2 27.2 343.9 27.2C343.6 27.2 343.4 27.2 343.1 27.2C342.8 27.2 342.6 27.2 342.3 27.2C342 27.2 341.8 27.2 341.5 27.2C341.2 27.2 341 27.2 340.7 27.2C340.4 27.2 340.2 27.2 339.9 27.2C339.6 27.2 339.4 27.2 339.1 27.2C338.8 27.2 338.6 27.2 338.3 27.2C338 27.2 337.8 27.2 337.5 27.2C337.2 27.2 337 27.2 336.7 27.2C336.4 27.2 336.2 27.2 335.9 27.2C335.6 27.2 335.4 27.2 335.1 27.2C334.8 27.2 334.6 27.2 334.3 27.2C334 27.2 333.8 27.2 333.5 27.2C333.2 27.2 333 27.2 332.7 27.2C332.4 27.2 332.2 27.2 331.9 27.2C331.6 27.2 331.4 27.2 331.1 27.2C330.8 27.2 330.6 27.2 330.3 27.2C330 27.2 329.8 27.2 329.5 27.2C329.2 27.2 329 27.2 328.7 27.2C328.4 27.2 328.2 27.2 327.9 27.2C327.6 27.2 327.4 27.2 327.1 27.2C326.8 27.2 326.6 27.2 326.3 27.2C326 27.2 325.8 27.2 325.5 27.2C325.2 27.2 325 27.2 324.7 27.2C324.4 27.2 324.2 27.2 323.9 27.2C323.6 27.2 323.4 27.2 323.1 27.2C322.8 27.2 322.6 27.2 322.3 27.2C322 27.2 321.8 27.2 321.5 27.2C321.2 27.2 321 27.2 320.7 27.2C320.4 27.2 320.2 27.2 319.9 27.2C319.6 27.2 319.4 27.2 319.1 27.2C318.8 27.2 318.6 27.2 318.3 27.2C318 27.2 317.8 27.2 317.5 27.2C317.2 27.2 317 27.2 316.7 27.2C316.4 27.2 316.2 27.2 315.9 27.2C315.6 27.2 315.4 27.2 315.1 27.2C314.8 27.2 314.6 27.2 314.3 27.2C314 27.2 313.8 27.2 313.5 27.2C313.2 27.2 313 27.2 312.7 27.2C312.4 27.2 312.2 27.2 311.9 27.2C311.6 27.2 311.4 27.2 311.1 27.2C310.8 27.2 310.6 27.2 310.3 27.2C310 27.2 309.8 27.2 309.5 27.2C309.2 27.2 309 27.2 308.7 27.2C308.4 27.2 308.2 27.2 307.9 27.2C307.6 27.2 307.4 27.2 307.1 27.2C306.8 27.2 306.6 27.2 306.3 27.2C306 27.2 305.8 27.2 305.5 27.2C305.2 27.2 305 27.2 304.7 27.2C304.4 27.2 304.2 27.2 303.9 27.2C303.6 27.2 303.4 27.2 303.1 27.2C302.8 27.2 302.6 27.2 302.3 27.2C302 27.2 301.8 27.2 301.5 27.2C301.2 27.2 301 27.2 300.7 27.2C300.4 27.2 300.2 27.2 299.9 27.2C299.6 27.2 299.4 27.2 299.1 27.2C298.8 27.2 298.6 27.2 298.3 27.2C298 27.2 297.8 27.2 297.5 27.2C297.2 27.2 297 27.2 296.7 27.2C296.4 27.2 296.2 27.2 295.9 27.2C295.6 27.2 295.4 27.2 295.1 27.2C294.8 27.2 294.6 27.2 294.3 27.2C294 27.2 293.8 27.2 293.5 27.2C293.2 27.2 293 27.2 292.7 27.2C292.4 27.2 292.2 27.2 291.9 27.2C291.6 27.2 291.4 27.2 291.1 27.2C290.8 27.2 290.6 27.2 290.3 27.2C290 27.2 289.8 27.2 289.5 27.2C289.2 27.2 289 27.2 288.7 27.2C288.4 27.2 288.2 27.2 287.9 27.2C287.6 27.2 287.4 27.2 287.1 27.2C286.8 27.2 286.6 27.2 286.3 27.2C286 27.2 285.8 27.2 285.5 27.2C285.2 27.2 285 27.2 284.7 27.2C284.4 27.2 284.2 27.2 283.9 27.2C283.6 27.2 283.4 27.2 283.1 27.2C282.8 27.2 282.6 27.2 282.3 27.2C282 27.2 281.8 27.2 281.5 27.2C281.2 27.2 281 27.2 280.7 27.2C280.4 27.2 280.2 27.2 279.9 27.2C279.6 27.2 279.4 27.2 279.1 27.2C278.8 27.2 278.6 27.2 278.3 27.2C278 27.2 277.8 27.2 277.5 27.2C277.2 27.2 277 27.2 276.7 27.2C276.4 27.2 276.2 27.2 275.9 27.2C275.6 27.2 275.4 27.2 275.2 27.2C275 27.2 274.7 27.2 274.5 27.2C274.3 27.2 274 27.2 273.8 27.2C273.6 27.2 273.3 27.2 273.1 27.2C272.9 27.2 272.6 27.2 272.4 27.2C272.2 27.2 271.9 27.2 271.7 27.2C271.5 27.2 271.2 27.2 271 27.2C270.8 27.2 270.5 27.2 270.3 27.2C270.1 27.2 269.8 27.2 269.6 27.2C269.4 27.2 269.1 27.2 268.9 27.2C268.7 27.2 268.4 27.2 268.2 27.2C268 27.2 267.7 27.2 267.5 27.2C267.3 27.2 267 27.2 266.8 27.2C266.6 27.2 266.3 27.2 266.1 27.2C265.9 27.2 265.6 27.2 265.4 27.2C265.2 27.2 264.9 27.2 264.7 27.2C264.5 27.2 264.2 27.2 264 27.2C263.8 27.2 263.5 27.2 263.3 27.2C263.1 27.2 262.8 27.2 262.6 27.2C262.4 27.2 262.1 27.2 261.9 27.2C261.7 27.2 261.4 27.2 261.2 27.2C261 27.2 260.7 27.2 260.5 27.2C260.3 27.2 260 27.2 259.8 27.2C259.6 27.2 259.3 27.2 259.1 27.2C258.9 27.2 258.6 27.2 258.4 27.2C258.2 27.2 257.9 27.2 257.7 27.2C257.5 27.2 257.2 27.2 257 27.2C256.8 27.2 256.5 27.2 256.3 27.2C256.1 27.2 255.8 27.2 255.6 27.2C255.4 27.2 255.1 27.2 254.9 27.2C254.7 27.2 254.4 27.2 254.2 27.2C254 27.2 253.7 27.2 253.5 27.2C253.3 27.2 253 27.2 252.8 27.2C252.6 27.2 252.3 27.2 252.1 27.2C251.9 27.2 251.6 27.2 251.4 27.2C251.2 27.2 250.9 27.2 250.7 27.2C250.5 27.2 250.2 27.2 250 27.2C249.8 27.2 249.5 27.2 249.3 27.2C249.1 27.2 248.8 27.2 248.6 27.2C248.4 27.2 248.1 27.2 247.9 27.2C247.7 27.2 247.4 27.2 247.2 27.2C247 27.2 246.7 27.2 246.5 27.2C246.3 27.2 246 27.2 245.8 27.2C245.6 27.2 245.3 27.2 245.1 27.2C244.9 27.2 244.7 27.2 244.4 27.2C244.2 27.2 244 27.2 243.7 27.2C243.5 27.2 243.3 27.2 243 27.2C242.7 27.2 242.6 27.2 242.3 27.2C242.1 27.2 241.9 27.2 241.6 27.2C241.4 27.2 241.2 27.2 240.9 27.2C240.7 27.2 240.5 27.2 240.2 27.2C239.9 27.2 239.8 27.2 239.5 27.2C239.3 27.2 239.1 27.2 238.8 27.2C238.5 27.2 238.4 27.2 238.1 27.2C237.8 27.2 237.7 27.2 237.4 27.2C237.1 27.2 237 27.2 236.8 27.2C236.6 27.2 236.4 27.2 236.2 27.2C236 27.2 235.8 27.2 235.6 27.2C235.4 27.2 235.2 27.2 235 27.2C234.8 27.2 234.6 27.2 234.4 27.2C234.2 27.2 234 27.2 233.8 27.2C233.6 27.2 233.4 27.2 233.2 27.2C233 27.2 232.8 27.2 232.6 27.2C232.4 27.2 232.2 27.2 232 27.2C231.8 27.2 231.6 27.2 231.4 27.2C231.2 27.2 231 27.2 230.8 27.2C230.6 27.2 230.4 27.2 230.2 27.2C230 27.2 229.8 27.2 229.6 27.2C229.4 27.2 229.2 27.2 229 27.2C228.8 27.2 228.6 27.2 228.4 27.2C228.2 27.2 228 27.2 227.8 27.2C227.6 27.2 227.4 27.2 227.2 27.2C227 27.2 226.8 27.2 226.6 27.2C226.4 27.2 226.2 27.2 226 27.2C225.8 27.2 225.6 27.2 225.4 27.2C225.2 27.2 225 27.2 224.8 27.2C224.6 27.2 224.4 27.2 224.2 27.2C224 27.2 223.8 27.2 223.6 27.2C223.4 27.2 223.2 27.2 223 27.2C222.8 27.2 222.6 27.2 222.4 27.2C222.2 27.2 222 27.2 221.8 27.2C221.6 27.2 221.4 27.2 221.2 27.2C221 27.2 220.8 27.2 220.6 27.2C220.4 27.2 220.2 27.2 220 27.2C219.8 27.2 219.6 27.2 219.4 27.2C219.2 27.2 219 27.2 218.8 27.2C218.6 27.2 218.4 27.2 218.2 27.2C218 27.2 217.8 27.2 217.6 27.2C217.4 27.2 217.2 27.2 217 27.2C216.8 27.2 216.6 27.2 216.4 27.2C216.2 27.2 216 27.2 215.8 27.2C215.6 27.2 215.4 27.2 215.3 27.2C215.1 27.2 214.9 27.2 214.8 27.2C214.6 27.2 214.4 27.2 214.3 27.2C214.2 27.2 213.9 27.2 213.8 27.2C213.6 27.2 213.4 27.2 213.3 27.2C213.1 27.2 212.9 27.2 212.8 27.2C212.6 27.2 212.4 27.2 212.3 27.2C212.1 27.2 211.9 27.2 211.8 27.2C211.7 27.2 211.5 27.2 211.3 27.2C211.1 27.2 211 27.2 210.8 27.2C210.6 27.2 210.5 27.2 210.3 27.2C210.1 27.2 210 27.2 209.8 27.2C209.6 27.2 209.5 27.2 209.3 27.2C209.1 27.2 209 27.2 208.8 27.2C208.6 27.2 208.5 27.2 208.3 27.2C208.1 27.2 208 27.2 207.8 27.2C207.6 27.2 207.5 27.2 207.3 27.2C207.1 27.2 207 27.2 206.8 27.2C206.6 27.2 206.5 27.2 206.3 27.2C206.1 27.2 206 27.2 205.8 27.2C205.6 27.2 205.5 27.2 205.3 27.2C205.1 27.2 205 27.2 204.8 27.2C204.6 27.2 204.5 27.2 204.3 27.2C204.1 27.2 204 27.2 203.8 27.2C203.6 27.2 203.5 27.2 203.3 27.2C203.1 27.2 203 27.2 202.8 27.2C202.6 27.2 202.5 27.2 202.3 27.2C202.1 27.2 202 27.2 201.8 27.2C201.6 27.2 201.5 27.2 201.3 27.2C201.1 27.2 201 27.2 200.9 27.2C200.8 27.2 200.6 27.2 200.5 27.2C200.4 27.2 200.2 27.2 200.1 27.2C200 27.2 199.8 27.2 199.7 27.2C199.6 27.2 199.4 27.2 199.3 27.2C199.2 27.2 199 27.2 198.9 27.2C198.8 27.2 198.6 27.2 198.5 27.2C198.4 27.2 198.2 27.2 198.1 27.2C198 27.2 197.8 27.2 197.7 27.2C197.6 27.2 197.4 27.2 197.3 27.2C197.2 27.2 197 27.2 196.9 27.2C196.8 27.2 196.6 27.2 196.5 27.2C196.4 27.2 196.2 27.2 196.1 27.2C196 27.2 195.8 27.2 195.7 27.2C195.6 27.2 195.4 27.2 195.3 27.2C195.2 27.2 195 27.2 194.9 27.2C194.8 27.2 194.6 27.2 194.5 27.2C194.4 27.2 194.2 27.2 194.1 27.2C194 27.2 193.8 27.2 193.7 27.2C193.6 27.2 193.5 27.2 193.3 27.2C193.1 27.2 193.1 27.2 192.9 27.2C192.7 27.2 192.7 27.2 192.5 27.2C192.3 27.2 192.3 27.2 192.1 27.2C192 27.2 191.9 27.2 191.7 27.2C191.5 27.2 191.5 27.2 191.3 27.2C191.1 27.2 191.1 27.2 191 27.2C190.9 27.2 190.8 27.2 190.7 27.2C190.6 27.2 190.5 27.2 190.4 27.2C190.3 27.2 190.2 27.2 190.1 27.2C190 27.2 189.9 27.2 189.8 27.2C189.7 27.2 189.6 27.2 189.5 27.2C189.4 27.2 189.3 27.2 189.2 27.2C189.1 27.2 189 27.2 188.9 27.2C188.8 27.2 188.7 27.2 188.6 27.2C188.5 27.2 188.4 27.2 188.3 27.2C188.2 27.2 188.1 27.2 188 27.2C187.9 27.2 187.8 27.2 187.7 27.2C187.6 27.2 187.5 27.2 187.4 27.2C187.3 27.2 187.2 27.2 187.1 27.2C187 27.2 186.9 27.2 186.8 27.2C186.7 27.2 186.6 27.2 186.5 27.2C186.4 27.2 186.3 27.2 186.2 27.2C186.1 27.2 186 27.2 185.9 27.2C185.8 27.2 185.7 27.2 185.6 27.2C185.5 27.2 185.4 27.2 185.3 27.2C185.2 27.2 185.1 27.2 185 27.2C184.9 27.2 184.8 27.2 184.7 27.2C184.6 27.2 184.5 27.2 184.5 27.2C184.4 27.2 184.3 27.2 184.3 27.2H184.1C184 27.2 183.9 27.2 183.9 27.2H183.7C183.6 27.2 183.6 27.2 183.5 27.2C183.4 27.2 183.4 27.2 183.3 27.2C183.2 27.2 183.2 27.2 183.1 27.2C183 27.2 183 27.2 182.9 27.2C182.8 27.2 182.8 27.2 182.7 27.2C182.6 27.2 182.6 27.2 182.5 27.2C182.4 27.2 182.4 27.2 182.3 27.2C182.2 27.2 182.2 27.2 182.1 27.2C182 27.2 182 27.2 181.9 27.2C181.8 27.2 181.8 27.2 181.7 27.2C181.6 27.2 181.6 27.2 181.5 27.2C181.4 27.2 181.4 27.2 181.3 27.2C181.2 27.2 181.2 27.2 181.1 27.2C181 27.2 181 27.2 180.9 27.2C180.8 27.2 180.8 27.2 180.7 27.2C180.6 27.2 180.6 27.2 180.6 27.2H180.5H180.4H180.3H180.2H180.1H180V30.2H180.1H180.2H180.3H180.4H180.5H180.6H180.7C180.7 30.2 180.8 30.2 180.9 30.2C181 30.2 181 30.2 181.1 30.2C181.2 30.2 181.2 30.2 181.3 30.2C181.4 30.2 181.4 30.2 181.5 30.2C181.6 30.2 181.6 30.2 181.7 30.2C181.8 30.2 181.8 30.2 181.9 30.2C182 30.2 182 30.2 182.1 30.2C182.2 30.2 182.2 30.2 182.3 30.2C182.4 30.2 182.4 30.2 182.5 30.2C182.6 30.2 182.6 30.2 182.7 30.2C182.8 30.2 182.8 30.2 182.9 30.2C183 30.2 183 30.2 183.1 30.2C183.2 30.2 183.2 30.2 183.3 30.2C183.4 30.2 183.4 30.2 183.5 30.2C183.6 30.2 183.6 30.2 183.7 30.2C183.8 30.2 183.9 30.2 183.9 30.2H184.1C184.2 30.2 184.3 30.2 184.3 30.2H184.5C184.6 30.2 184.7 30.2 184.7 30.2C184.7 30.2 184.9 30.2 185 30.2C185.1 30.2 185.2 30.2 185.3 30.2C185.4 30.2 185.5 30.2 185.6 30.2C185.7 30.2 185.8 30.2 185.9 30.2C186 30.2 186.1 30.2 186.2 30.2C186.3 30.2 186.4 30.2 186.5 30.2C186.6 30.2 186.7 30.2 186.8 30.2C186.9 30.2 187 30.2 187.1 30.2C187.2 30.2 187.3 30.2 187.4 30.2C187.5 30.2 187.6 30.2 187.7 30.2C187.8 30.2 187.9 30.2 188 30.2C188.1 30.2 188.2 30.2 188.3 30.2C188.4 30.2 188.5 30.2 188.6 30.2C188.7 30.2 188.8 30.2 188.9 30.2C189 30.2 189.1 30.2 189.2 30.2C189.3 30.2 189.4 30.2 189.5 30.2C189.6 30.2 189.7 30.2 189.8 30.2C189.9 30.2 190 30.2 190.1 30.2C190.2 30.2 190.3 30.2 190.4 30.2C190.5 30.2 190.6 30.2 190.7 30.2C190.8 30.2 190.9 30.2 191 30.2C191.1 30.2 191.2 30.2 191.3 30.2C191.4 30.2 191.5 30.2 191.7 30.2C191.9 30.2 191.9 30.2 192.1 30.2C192.2 30.2 192.3 30.2 192.5 30.2C192.7 30.2 192.7 30.2 192.9 30.2C193.1 30.2 193.1 30.2 193.3 30.2C193.5 30.2 193.5 30.2 193.7 30.2C193.8 30.2 193.9 30.2 194.1 30.2C194.2 30.2 194.4 30.2 194.5 30.2C194.6 30.2 194.8 30.2 194.9 30.2C195 30.2 195.2 30.2 195.3 30.2C195.4 30.2 195.6 30.2 195.7 30.2C195.8 30.2 196 30.2 196.1 30.2C196.2 30.2 196.4 30.2 196.5 30.2C196.6 30.2 196.8 30.2 196.9 30.2C197 30.2 197.2 30.2 197.3 30.2C197.4 30.2 197.6 30.2 197.7 30.2C197.8 30.2 198 30.2 198.1 30.2C198.2 30.2 198.4 30.2 198.5 30.2C198.6 30.2 198.8 30.2 198.9 30.2C199 30.2 199.2 30.2 199.3 30.2C199.4 30.2 199.6 30.2 199.7 30.2C199.8 30.2 200 30.2 200.1 30.2C200.2 30.2 200.4 30.2 200.5 30.2C200.6 30.2 200.8 30.2 200.9 30.2C201 30.2 201.2 30.2 201.3 30.2C201.4 30.2 201.6 30.2 201.8 30.2C202 30.2 202.1 30.2 202.3 30.2C202.5 30.2 202.6 30.2 202.8 30.2C203 30.2 203.1 30.2 203.3 30.2C203.5 30.2 203.6 30.2 203.8 30.2C204 30.2 204.1 30.2 204.3 30.2C204.5 30.2 204.6 30.2 204.8 30.2C205 30.2 205.1 30.2 205.3 30.2C205.5 30.2 205.6 30.2 205.8 30.2C206 30.2 206.1 30.2 206.3 30.2C206.5 30.2 206.6 30.2 206.8 30.2C207 30.2 207.1 30.2 207.3 30.2C207.5 30.2 207.6 30.2 207.8 30.2C208 30.2 208.1 30.2 208.3 30.2C208.5 30.2 208.6 30.2 208.8 30.2C209 30.2 209.1 30.2 209.3 30.2C209.5 30.2 209.6 30.2 209.8 30.2C210 30.2 210.1 30.2 210.3 30.2C210.5 30.2 210.6 30.2 210.8 30.2C211 30.2 211.1 30.2 211.3 30.2C211.5 30.2 211.6 30.2 211.8 30.2C212 30.2 212.1 30.2 212.3 30.2C212.5 30.2 212.7 30.2 212.8 30.2C213 30.2 213.2 30.2 213.3 30.2C213.5 30.2 213.7 30.2 213.8 30.2C214 30.2 214.2 30.2 214.3 30.2C214.4 30.2 214.7 30.2 214.8 30.2C215 30.2 215.2 30.2 215.3 30.2C215.5 30.2 215.7 30.2 215.8 30.2C216 30.2 216.2 30.2 216.4 30.2C216.6 30.2 216.8 30.2 217 30.2C217.2 30.2 217.4 30.2 217.6 30.2C217.8 30.2 218 30.2 218.2 30.2C218.4 30.2 218.6 30.2 218.8 30.2C219 30.2 219.2 30.2 219.4 30.2C219.6 30.2 219.8 30.2 220 30.2C220.2 30.2 220.4 30.2 220.6 30.2C220.8 30.2 221 30.2 221.2 30.2C221.4 30.2 221.6 30.2 221.8 30.2C222 30.2 222.2 30.2 222.4 30.2C222.6 30.2 222.8 30.2 223 30.2C223.2 30.2 223.4 30.2 223.6 30.2C223.8 30.2 224 30.2 224.2 30.2C224.4 30.2 224.6 30.2 224.8 30.2C225 30.2 225.2 30.2 225.4 30.2C225.6 30.2 225.8 30.2 226 30.2C226.2 30.2 226.4 30.2 226.6 30.2C226.8 30.2 227 30.2 227.2 30.2C227.4 30.2 227.6 30.2 227.8 30.2C228 30.2 228.2 30.2 228.4 30.2C228.6 30.2 228.8 30.2 229 30.2C229.2 30.2 229.4 30.2 229.6 30.2C229.8 30.2 230 30.2 230.2 30.2C230.4 30.2 230.6 30.2 230.8 30.2C231 30.2 231.2 30.2 231.4 30.2C231.6 30.2 231.8 30.2 232 30.2C232.2 30.2 232.4 30.2 232.6 30.2C232.8 30.2 233 30.2 233.2 30.2C233.4 30.2 233.6 30.2 233.8 30.2C234 30.2 234.2 30.2 234.4 30.2C234.6 30.2 234.8 30.2 235 30.2C235.2 30.2 235.4 30.2 235.6 30.2C235.8 30.2 236 30.2 236.2 30.2C236.4 30.2 236.6 30.2 236.8 30.2C237 30.2 237.2 30.2 237.4 30.2C237.6 30.2 237.8 30.2 238.1 30.2C238.4 30.2 238.5 30.2 238.8 30.2C239.1 30.2 239.2 30.2 239.5 30.2C239.7 30.2 239.9 30.2 240.2 30.2C240.5 30.2 240.6 30.2 240.9 30.2C241.1 30.2 241.3 30.2 241.6 30.2C241.8 30.2 242 30.2 242.3 30.2C242.5 30.2 242.7 30.2 243 30.2C243.3 30.2 243.4 30.2 243.7 30.2C243.9 30.2 244.1 30.2 244.4 30.2C244.6 30.2 244.8 30.2 245.1 30.2C245.3 30.2 245.6 30.2 245.8 30.2C246 30.2 246.3 30.2 246.5 30.2C246.7 30.2 247 30.2 247.2 30.2C247.4 30.2 247.7 30.2 247.9 30.2C248.1 30.2 248.4 30.2 248.6 30.2C248.8 30.2 249.1 30.2 249.3 30.2C249.5 30.2 249.8 30.2 250 30.2C250.2 30.2 250.5 30.2 250.7 30.2C250.9 30.2 251.2 30.2 251.4 30.2C251.6 30.2 251.9 30.2 252.1 30.2C252.3 30.2 252.6 30.2 252.8 30.2C253 30.2 253.3 30.2 253.5 30.2C253.7 30.2 254 30.2 254.2 30.2C254.4 30.2 254.7 30.2 254.9 30.2C255.1 30.2 255.4 30.2 255.6 30.2C255.8 30.2 256.1 30.2 256.3 30.2C256.5 30.2 256.8 30.2 257 30.2C257.2 30.2 257.5 30.2 257.7 30.2C257.9 30.2 258.2 30.2 258.4 30.2C258.6 30.2 258.9 30.2 259.1 30.2C259.3 30.2 259.6 30.2 259.8 30.2C260 30.2 260.3 30.2 260.5 30.2C260.7 30.2 261 30.2 261.2 30.2C261.4 30.2 261.7 30.2 261.9 30.2C262.1 30.2 262.4 30.2 262.6 30.2C262.8 30.2 263.1 30.2 263.3 30.2C263.5 30.2 263.8 30.2 264 30.2C264.2 30.2 264.5 30.2 264.7 30.2C264.9 30.2 265.2 30.2 265.4 30.2C265.6 30.2 265.9 30.2 266.1 30.2C266.3 30.2 266.6 30.2 266.8 30.2C267 30.2 267.3 30.2 267.5 30.2C267.7 30.2 268 30.2 268.2 30.2C268.4 30.2 268.7 30.2 268.9 30.2C269.1 30.2 269.4 30.2 269.6 30.2C269.8 30.2 270.1 30.2 270.3 30.2C270.5 30.2 270.8 30.2 271 30.2C271.2 30.2 271.5 30.2 271.7 30.2C271.9 30.2 272.2 30.2 272.4 30.2C272.6 30.2 272.9 30.2 273.1 30.2C273.3 30.2 273.6 30.2 273.8 30.2C274 30.2 274.3 30.2 274.5 30.2C274.7 30.2 275 30.2 275.2 30.2C275.4 30.2 275.7 30.2 275.9 30.2C276.1 30.2 276.4 30.2 276.7 30.2C277 30.2 277.2 30.2 277.5 30.2C277.8 30.2 278 30.2 278.3 30.2C278.6 30.2 278.8 30.2 279.1 30.2C279.4 30.2 279.6 30.2 279.9 30.2C280.2 30.2 280.4 30.2 280.7 30.2C281 30.2 281.2 30.2 281.5 30.2C281.8 30.2 282 30.2 282.3 30.2C282.6 30.2 282.8 30.2 283.1 30.2C283.4 30.2 283.6 30.2 283.9 30.2C284.2 30.2 284.4 30.2 284.7 30.2C285 30.2 285.2 30.2 285.5 30.2C285.8 30.2 286 30.2 286.3 30.2C286.6 30.2 286.8 30.2 287.1 30.2C287.4 30.2 287.6 30.2 287.9 30.2C288.2 30.2 288.4 30.2 288.7 30.2C289 30.2 289.2 30.2 289.5 30.2C289.8 30.2 290 30.2 290.3 30.2C290.6 30.2 290.8 30.2 291.1 30.2C291.4 30.2 291.6 30.2 291.9 30.2C292.2 30.2 292.4 30.2 292.7 30.2C293 30.2 293.2 30.2 293.5 30.2C293.8 30.2 294 30.2 294.3 30.2C294.6 30.2 294.8 30.2 295.1 30.2C295.4 30.2 295.6 30.2 295.9 30.2C296.2 30.2 296.4 30.2 296.7 30.2C297 30.2 297.2 30.2 297.5 30.2C297.8 30.2 298 30.2 298.3 30.2C298.6 30.2 298.8 30.2 299.1 30.2C299.4 30.2 299.6 30.2 299.9 30.2C300.2 30.2 300.4 30.2 300.7 30.2C301 30.2 301.2 30.2 301.5 30.2C301.8 30.2 302 30.2 302.3 30.2C302.6 30.2 302.8 30.2 303.1 30.2C303.4 30.2 303.6 30.2 303.9 30.2C304.2 30.2 304.4 30.2 304.7 30.2C305 30.2 305.2 30.2 305.5 30.2C305.8 30.2 306 30.2 306.3 30.2C306.6 30.2 306.8 30.2 307.1 30.2C307.4 30.2 307.6 30.2 307.9 30.2C308.2 30.2 308.4 30.2 308.7 30.2C309 30.2 309.2 30.2 309.5 30.2C309.8 30.2 310 30.2 310.3 30.2C310.6 30.2 310.8 30.2 311.1 30.2C311.4 30.2 311.6 30.2 311.9 30.2C312.2 30.2 312.4 30.2 312.7 30.2C313 30.2 313.2 30.2 313.5 30.2C313.8 30.2 314 30.2 314.3 30.2C314.6 30.2 314.8 30.2 315.1 30.2C315.4 30.2 315.6 30.2 315.9 30.2C316.2 30.2 316.4 30.2 316.7 30.2C317 30.2 317.2 30.2 317.5 30.2C317.8 30.2 318 30.2 318.3 30.2C318.6 30.2 318.8 30.2 319.1 30.2C319.4 30.2 319.6 30.2 319.9 30.2C320.2 30.2 320.4 30.2 320.7 30.2C321 30.2 321.2 30.2 321.5 30.2C321.8 30.2 322 30.2 322.3 30.2C322.6 30.2 322.8 30.2 323.1 30.2C323.4 30.2 323.6 30.2 323.9 30.2C324.2 30.2 324.4 30.2 324.7 30.2C325 30.2 325.2 30.2 325.5 30.2C325.8 30.2 326 30.2 326.3 30.2C326.6 30.2 326.8 30.2 327.1 30.2C327.4 30.2 327.6 30.2 327.9 30.2C328.2 30.2 328.4 30.2 328.7 30.2C329 30.2 329.2 30.2 329.5 30.2C329.8 30.2 330 30.2 330.3 30.2C330.6 30.2 330.8 30.2 331.1 30.2C331.4 30.2 331.6 30.2 331.9 30.2C332.2 30.2 332.4 30.2 332.7 30.2C333 30.2 333.2 30.2 333.5 30.2C333.8 30.2 334 30.2 334.3 30.2C334.6 30.2 334.8 30.2 335.1 30.2C335.4 30.2 335.6 30.2 335.9 30.2C336.2 30.2 336.4 30.2 336.7 30.2C337 30.2 337.2 30.2 337.5 30.2C337.8 30.2 338 30.2 338.3 30.2C338.6 30.2 338.8 30.2 339.1 30.2C339.4 30.2 339.6 30.2 339.9 30.2C340.2 30.2 340.4 30.2 340.7 30.2C341 30.2 341.2 30.2 341.5 30.2C341.8 30.2 342 30.2 342.3 30.2C342.6 30.2 342.8 30.2 343.1 30.2C343.4 30.2 343.6 30.2 343.9 30.2C344.2 30.2 344.4 30.2 344.7 30.2C345 30.2 345.2 30.2 345.5 30.2C345.8 30.2 346 30.2 346.3 30.2C346.6 30.2 346.8 30.2 347.1 30.2C347.4 30.2 347.6 30.2 347.9 30.2C348.2 30.2 348.4 30.2 348.7 30.2C349 30.2 349.2 30.2 349.5 30.2C349.8 30.2 350 30.2 350.3 30.2C350.6 30.2 350.8 30.2 351.1 30.2C351.4 30.2 351.6 30.2 351.9 30.2C352.2 30.2 352.4 30.2 352.7 30.2C353 30.2 353.2 30.2 353.5 30.2C353.8 30.2 354 30.2 354.3 30.2C354.6 30.2 354.8 30.2 355.1 30.2C355.4 30.2 355.6 30.2 355.9 30.2C356.2 30.2 356.4 30.2 356.7 30.2C357 30.2 357.2 30.2 357.5 30.2C357.8 30.2 358 30.2 358.3 30.2C358.6 30.2 358.8 30.2 359.1 30.2C359.4 30.2 359.6 30.2 359.9 30.2C360.2 30.2 360.4 30.2 360.7 30.2C361 30.2 361.2 30.2 361.5 30.2C361.8 30.2 362 30.2 362.3 30.2C362.6 30.2 362.8 30.2 363.1 30.2C363.4 30.2 363.6 30.2 363.9 30.2C364.2 30.2 364.4 30.2 364.7 30.2C365 30.2 365.2 30.2 365.5 30.2C365.8 30.2 366 30.2 366.3 30.2C366.6 30.2 366.8 30.2 367.1 30.2C367.4 30.2 367.6 30.2 367.9 30.2C368.2 30.2 368.4 30.2 368.7 30.2C368.9 30.2 369.2 30.2 369.4 30.2C369.6 30.2 369.9 30.2 370.1 30.2C370.3 30.2 370.6 30.2 370.8 30.2C371 30.2 371.3 30.2 371.5 30.2C371.7 30.2 372 30.2 372.2 30.2C372.4 30.2 372.7 30.2 372.9 30.2C373.1 30.2 373.4 30.2 373.6 30.2C373.8 30.2 374.1 30.2 374.3 30.2C374.5 30.2 374.8 30.2 375 30.2C375.2 30.2 375.5 30.2 375.7 30.2C375.9 30.2 376.2 30.2 376.4 30.2C376.6 30.2 376.9 30.2 377.1 30.2C377.3 30.2 377.6 30.2 377.8 30.2C378 30.2 378.3 30.2 378.5 30.2C378.7 30.2 379 30.2 379.2 30.2C379.4 30.2 379.7 30.2 379.9 30.2C380.1 30.2 380.4 30.2 380.6 30.2C380.8 30.2 381.1 30.2 381.3 30.2C381.5 30.2 381.8 30.2 382 30.2C382.2 30.2 382.5 30.2 382.7 30.2C382.9 30.2 383.2 30.2 383.4 30.2C383.6 30.2 383.9 30.2 384.1 30.2C384.3 30.2 384.6 30.2 384.8 30.2C385 30.2 385.3 30.2 385.5 30.2C385.7 30.2 386 30.2 386.2 30.2C386.4 30.2 386.7 30.2 386.9 30.2C387.1 30.2 387.4 30.2 387.6 30.2C387.8 30.2 388.1 30.2 388.3 30.2C388.5 30.2 388.8 30.2 389 30.2C389.2 30.2 389.5 30.2 389.7 30.2C389.9 30.2 390.2 30.2 390.4 30.2C390.6 30.2 390.9 30.2 391.1 30.2C391.3 30.2 391.6 30.2 391.8 30.2C392 30.2 392.3 30.2 392.5 30.2C392.7 30.2 393 30.2 393.2 30.2C393.4 30.2 393.7 30.2 393.9 30.2C394.1 30.2 394.4 30.2 394.6 30.2C394.8 30.2 395.1 30.2 395.3 30.2C395.5 30.2 395.8 30.2 396 30.2C396.2 30.2 396.5 30.2 396.7 30.2C396.9 30.2 397.2 30.2 397.4 30.2C397.6 30.2 397.9 30.2 398.1 30.2C398.3 30.2 398.6 30.2 398.8 30.2C399 30.2 399.3 30.2 399.5 30.2C399.7 30.2 399.9 30.2 400.2 30.2C400.4 30.2 400.6 30.2 400.9 30.2C401.2 30.2 401.3 30.2 401.6 30.2C401.9 30.2 402 30.2 402.3 30.2C402.6 30.2 402.7 30.2 403 30.2C403.3 30.2 403.4 30.2 403.7 30.2C403.9 30.2 404.1 30.2 404.4 30.2C404.7 30.2 404.8 30.2 405.1 30.2C405.3 30.2 405.5 30.2 405.8 30.2C406.1 30.2 406.2 30.2 406.5 30.2C406.7 30.2 406.9 30.2 407.2 30.2C407.4 30.2 407.6 30.2 407.8 30.2C408 30.2 408.2 30.2 408.4 30.2C408.6 30.2 408.8 30.2 409 30.2C409.2 30.2 409.4 30.2 409.6 30.2C409.8 30.2 410 30.2 410.2 30.2C410.4 30.2 410.6 30.2 410.8 30.2C411 30.2 411.2 30.2 411.4 30.2C411.6 30.2 411.8 30.2 412 30.2C412.2 30.2 412.4 30.2 412.6 30.2C412.8 30.2 413 30.2 413.2 30.2C413.4 30.2 413.6 30.2 413.8 30.2C414 30.2 414.2 30.2 414.4 30.2C414.6 30.2 414.8 30.2 415 30.2C415.2 30.2 415.4 30.2 415.6 30.2C415.8 30.2 416 30.2 416.2 30.2C416.4 30.2 416.6 30.2 416.8 30.2C417 30.2 417.2 30.2 417.4 30.2C417.6 30.2 417.8 30.2 418 30.2C418.2 30.2 418.4 30.2 418.6 30.2C418.8 30.2 419 30.2 419.2 30.2C419.4 30.2 419.6 30.2 419.8 30.2C420 30.2 420.2 30.2 420.4 30.2C420.6 30.2 420.8 30.2 421 30.2C421.2 30.2 421.4 30.2 421.6 30.2C421.8 30.2 422 30.2 422.2 30.2C422.4 30.2 422.6 30.2 422.8 30.2C423 30.2 423.2 30.2 423.4 30.2C423.6 30.2 423.8 30.2 424 30.2C424.2 30.2 424.4 30.2 424.6 30.2C424.8 30.2 425 30.2 425.2 30.2C425.4 30.2 425.6 30.2 425.8 30.2C426 30.2 426.2 30.2 426.4 30.2C426.6 30.2 426.8 30.2 427 30.2C427.2 30.2 427.4 30.2 427.6 30.2C427.8 30.2 428 30.2 428.2 30.2C428.4 30.2 428.6 30.2 428.8 30.2C429 30.2 429.2 30.2 429.3 30.2C429.5 30.2 429.7 30.2 429.8 30.2C430 30.2 430.2 30.2 430.3 30.2C430.4 30.2 430.7 30.2 430.8 30.2C430.9 30.2 431.2 30.2 431.3 30.2C431.5 30.2 431.7 30.2 431.8 30.2C431.9 30.2 432.2 30.2 432.3 30.2C432.4 30.2 432.7 30.2 432.8 30.2C433 30.2 433.1 30.2 433.3 30.2C433.5 30.2 433.6 30.2 433.8 30.2C434 30.2 434.1 30.2 434.3 30.2C434.5 30.2 434.6 30.2 434.8 30.2C435 30.2 435.1 30.2 435.3 30.2C435.5 30.2 435.6 30.2 435.8 30.2C436 30.2 436.1 30.2 436.3 30.2C436.5 30.2 436.6 30.2 436.8 30.2C437 30.2 437.1 30.2 437.3 30.2C437.5 30.2 437.6 30.2 437.8 30.2C438 30.2 438.1 30.2 438.3 30.2C438.5 30.2 438.6 30.2 438.8 30.2C439 30.2 439.1 30.2 439.3 30.2C439.5 30.2 439.6 30.2 439.8 30.2C440 30.2 440.1 30.2 440.3 30.2C440.5 30.2 440.6 30.2 440.8 30.2C441 30.2 441.1 30.2 441.3 30.2C441.5 30.2 441.6 30.2 441.8 30.2C442 30.2 442.1 30.2 442.3 30.2C442.5 30.2 442.6 30.2 442.8 30.2C443 30.2 443.1 30.2 443.3 30.2C443.5 30.2 443.6 30.2 443.7 30.2C443.8 30.2 444 30.2 444.1 30.2C444.2 30.2 444.4 30.2 444.5 30.2C444.6 30.2 444.8 30.2 444.9 30.2C445 30.2 445.2 30.2 445.3 30.2C445.4 30.2 445.6 30.2 445.7 30.2C445.8 30.2 446 30.2 446.1 30.2C446.2 30.2 446.4 30.2 446.5 30.2C446.6 30.2 446.8 30.2 446.9 30.2C447 30.2 447.2 30.2 447.3 30.2C447.4 30.2 447.6 30.2 447.7 30.2C447.8 30.2 448 30.2 448.1 30.2C448.2 30.2 448.4 30.2 448.5 30.2C448.6 30.2 448.8 30.2 448.9 30.2C449 30.2 449.2 30.2 449.3 30.2C449.4 30.2 449.6 30.2 449.7 30.2C449.8 30.2 450 30.2 450.1 30.2C450.2 30.2 450.4 30.2 450.5 30.2C450.6 30.2 450.8 30.2 450.9 30.2C451 30.2 451.1 30.2 451.3 30.2C451.5 30.2 451.5 30.2 451.7 30.2C451.9 30.2 451.9 30.2 452.1 30.2C452.3 30.2 452.3 30.2 452.5 30.2C452.6 30.2 452.7 30.2 452.9 30.2C453 30.2 453.1 30.2 453.3 30.2C453.5 30.2 453.5 30.2 453.6 30.2C453.7 30.2 453.8 30.2 453.9 30.2C454 30.2 454.1 30.2 454.2 30.2C454.3 30.2 454.4 30.2 454.5 30.2C454.6 30.2 454.7 30.2 454.8 30.2C454.9 30.2 455 30.2 455.1 30.2C455.2 30.2 455.3 30.2 455.4 30.2C455.5 30.2 455.6 30.2 455.7 30.2C455.8 30.2 455.9 30.2 456 30.2C456.1 30.2 456.2 30.2 456.3 30.2C456.4 30.2 456.5 30.2 456.6 30.2C456.7 30.2 456.8 30.2 456.9 30.2C457 30.2 457.1 30.2 457.2 30.2C457.3 30.2 457.4 30.2 457.5 30.2C457.6 30.2 457.7 30.2 457.8 30.2C457.9 30.2 458 30.2 458.1 30.2C458.2 30.2 458.3 30.2 458.4 30.2C458.5 30.2 458.6 30.2 458.7 30.2C458.8 30.2 458.9 30.2 459 30.2C459.1 30.2 459.2 30.2 459.3 30.2C459.4 30.2 459.5 30.2 459.6 30.2C459.7 30.2 459.8 30.2 459.9 30.2C460 30.2 460.1 30.2 460.1 30.2C460.2 30.2 460.3 30.2 460.3 30.2H460.5C460.6 30.2 460.7 30.2 460.7 30.2H460.9C461 30.2 461 30.2 461.1 30.2C461.2 30.2 461.2 30.2 461.3 30.2C461.4 30.2 461.4 30.2 461.5 30.2C461.6 30.2 461.6 30.2 461.7 30.2C461.8 30.2 461.8 30.2 461.9 30.2C462 30.2 462 30.2 462.1 30.2C462.2 30.2 462.2 30.2 462.3 30.2C462.4 30.2 462.4 30.2 462.5 30.2C462.6 30.2 462.6 30.2 462.7 30.2C462.8 30.2 462.8 30.2 462.9 30.2C463 30.2 463 30.2 463.1 30.2C463.2 30.2 463.2 30.2 463.3 30.2C463.4 30.2 463.4 30.2 463.5 30.2C463.6 30.2 463.6 30.2 463.7 30.2C463.8 30.2 463.8 30.2 463.9 30.2C464 30.2 464 30.2 464 30.2H464.1H464.2H464.3H464.4H464.5H464.6H464.7H464.8H464.9H465H465.1H465.2H465.3C465.3 30.2 465.3 30.2 465.4 30.2V27.2H465.3Z" fill="#FFD78C"/>
<path d="M125.5 32.1C125.5 33.2 126.4 34.1 127.5 34.1H179C180.1 34.1 181 33.2 181 32.1V25.2C181 24.1 180.1 23.2 179 23.2H127.5C126.4 23.2 125.5 24.1 125.5 25.2V32.1Z" fill="#E4B55B"/>
<path d="M129.4 38.5C129.4 39.6 130.3 40.5 131.4 40.5H137.9C139 40.5 139.9 39.6 139.9 38.5V31.6C139.9 30.5 139 29.6 137.9 29.6H131.4C130.3 29.6 129.4 30.5 129.4 31.6V38.5Z" fill="#E4B55B"/>
<path d="M190.2 32.1C190.2 33.2 191.1 34.1 192.2 34.1H243.7C244.8 34.1 245.7 33.2 245.7 32.1V25.2C245.7 24.1 244.8 23.2 243.7 23.2H192.2C191.1 23.2 190.2 24.1 190.2 25.2V32.1Z" fill="#E4B55B"/>
<path d="M194 38.5C194 39.6 194.9 40.5 196 40.5H202.5C203.6 40.5 204.5 39.6 204.5 38.5V31.6C204.5 30.5 203.6 29.6 202.5 29.6H196C194.9 29.6 194 30.5 194 31.6V38.5Z" fill="#E4B55B"/>
<path d="M457.6 39.6C466.1 39.6 473.1 34.7 473.1 28.7C473.1 22.7 466.2 17.8 457.6 17.8V39.6Z" fill="#646464"/>
<path d="M455.6 17.7V39.5H459.6V17.7H455.6ZM475.1 28.7C475.1 24.9 472.9 21.6 469.7 19.3C466.5 17.1 462.2 15.7 457.6 15.7V19.7C461.5 19.7 465 20.8 467.4 22.5C469.8 24.2 471.1 26.4 471.1 28.6H475.1V28.7ZM457.6 41.6C462.2 41.6 466.5 40.3 469.7 38C472.9 35.8 475.1 32.5 475.1 28.6H471.1C471.1 30.8 469.8 33 467.4 34.7C465 36.4 461.5 37.5 457.6 37.5V41.6ZM457.6 17.7V15.7C456.5 15.7 455.6 16.6 455.6 17.7H457.6ZM457.6 39.6H455.6C455.6 40.7 456.5 41.6 457.6 41.6V39.6Z" fill="#454545"/>
<path d="M389.3 16.6C389.3 14.9 390.6 13.6 392.3 13.6H417.2C418.9 13.6 420.2 14.9 420.2 16.6V40.6C420.2 42.3 418.9 43.6 417.2 43.6H392.3C390.6 43.6 389.3 42.3 389.3 40.6V16.6Z" fill="#949494"/>
<path d="M397.8 36.9V36.8V20C397.8 18.8448 396.855 17.9 395.7 17.9C394.545 17.9 393.6 18.8448 393.6 20V36.8V36.9C393.6 38.0552 394.545 39 395.7 39C396.855 39 397.8 38.0552 397.8 36.9Z" fill="#C5C5C5" stroke="#C5C5C5" stroke-width="0.2"/>
<path d="M402.7 34.5V34.6C402.7 35.7552 403.645 36.7 404.8 36.7C405.955 36.7 406.9 35.7552 406.9 34.6V34.5V22.7C406.9 21.5448 405.955 20.6 404.8 20.6C403.645 20.6 402.7 21.5448 402.7 22.7V34.5Z" fill="#C5C5C5" stroke="#C5C5C5" stroke-width="0.2"/>
<path d="M411.8 26.4V30.9C411.8 32.0553 412.745 33 413.9 33C415.055 33 416 32.0553 416 30.9V26.4C416 25.2448 415.055 24.3 413.9 24.3C412.745 24.3 411.8 25.2448 411.8 26.4Z" fill="#C5C5C5" stroke="#C5C5C5" stroke-width="0.2"/>
<path d="M148.8 73.5C148.8 71.5761 150.376 70 152.3 70H218.9C220.824 70 222.4 71.5761 222.4 73.5V97.3C222.4 99.2239 220.824 100.8 218.9 100.8H152.3C150.376 100.8 148.8 99.2239 148.8 97.3V73.5Z" fill="#DFDFDF" stroke="#D5D5D5"/>
<path d="M167.1 91.5C170.414 91.5 173.1 88.8137 173.1 85.5C173.1 82.1863 170.414 79.5 167.1 79.5C163.786 79.5 161.1 82.1863 161.1 85.5C161.1 88.8137 163.786 91.5 167.1 91.5Z" fill="#788AA4"/>
<path d="M203.5 91.5C206.814 91.5 209.5 88.8137 209.5 85.5C209.5 82.1863 206.814 79.5 203.5 79.5C200.186 79.5 197.5 82.1863 197.5 85.5C197.5 88.8137 200.186 91.5 203.5 91.5Z" fill="#788AA4"/>
<path d="M205.3 85.5C205.3 79.4 205 75.5 204.6 72.6C204.2 69.6 203.6 67.6 203 65.5C201.9 61.4 200.8 56.2 200.8 40.1H197.8C197.8 56.3 198.9 61.8 200.1 66.3C200.7 68.5 201.2 70.3 201.6 73.1C202 75.9 202.3 79.6 202.3 85.6H205.3V85.5ZM132.7 40C132.7 43 133.2 45.4 134.2 47.4C135.2 49.4 136.6 51 138.3 52.3C139.9 53.6 141.8 54.5 143.8 55.4C144.8 55.8 145.8 56.3 146.7 56.7C147.7 57.1 148.7 57.6 149.7 58C153.7 59.9 157.4 62.1 160.2 66.1C163 70.1 165 76 165 85.3H168C168 75.5 165.9 69 162.7 64.4C159.4 59.8 155.1 57.2 151 55.3C150 54.8 148.9 54.4 148 53.9C147 53.5 146 53 145.1 52.6C143.2 51.7 141.6 50.9 140.2 49.8C138.8 48.8 137.7 47.5 137 46C136.2 44.4 135.8 42.5 135.8 39.9H132.7V40ZM200.7 40C200.7 39.2 200 38.5 199.2 38.5C198.4 38.5 197.7 39.2 197.7 40H200.7ZM202.3 85.5C202.3 86.3 203 87 203.8 87C204.6 87 205.3 86.3 205.3 85.5H202.3ZM165 85.5C165 86.3 165.7 87 166.5 87C167.3 87 168 86.3 168 85.5H165ZM135.7 40C135.7 39.2 135 38.5 134.2 38.5C133.4 38.5 132.7 39.2 132.7 40H135.7Z" fill="#6D6D6D"/>
<path d="M403.5 88.4C403.5 86.4762 405.076 84.9 407 84.9H494.5C496.424 84.9 498 86.4762 498 88.4V97.7C498 99.6239 496.424 101.2 494.5 101.2H407C405.076 101.2 403.5 99.6239 403.5 97.7V88.4Z" fill="#DFDFDF" stroke="#D5D5D5"/>
<path d="M160 37.5H161.3V46H159.8V43.2L160 37.5ZM152.5 37.5H153.7L153.9 43.2V46H152.4V37.5H152.5ZM153.1 37.5H154.4L156.9 44.1L159.4 37.5H160.7L157.4 46H156.4L153.1 37.5ZM150.7 37.5V46H149.2V37.5H150.7Z" fill="#E4B55B"/>
<path d="M226.5 37.5H227.8V46H226.3V43.2L226.5 37.5ZM219 37.5H220.2L220.4 43.2V46H219V37.5ZM219.6 37.5H220.9L223.4 44.1L225.9 37.5H227.2L223.9 46H222.9L219.6 37.5ZM217.1 37.5V46H215.6V37.5H217.1Z" fill="#E4B55B"/>
<path d="M198.5 95.1V98.4C198.4 98.6 198.2 98.7 197.9 98.9C197.6 99.1 197.3 99.2 196.9 99.4C196.5 99.6 196 99.6 195.3 99.6C194.8 99.6 194.3 99.5 193.8 99.3C193.4 99.1 193 98.8 192.6 98.5C192.3 98.1 192 97.7 191.9 97.2C191.7 96.7 191.6 96.1 191.6 95.5V94.9C191.6 94.3 191.7 93.7 191.8 93.2C192 92.7 192.2 92.3 192.5 91.9C192.8 91.5 193.2 91.3 193.6 91.1C194 90.9 194.5 90.8 195.1 90.8C195.8 90.8 196.4 90.9 196.8 91.2C197.3 91.4 197.6 91.8 197.9 92.2C198.2 92.6 198.3 93.1 198.4 93.6H197C197 93.3 196.9 93 196.7 92.8C196.6 92.6 196.4 92.4 196.1 92.2C195.9 92.1 195.5 92 195.1 92C194.8 92 194.5 92.1 194.2 92.2C193.9 92.3 193.7 92.5 193.6 92.8C193.4 93 193.3 93.4 193.2 93.7C193.1 94 193.1 94.5 193.1 94.9V95.5C193.1 96 193.1 96.4 193.2 96.7C193.3 97.1 193.4 97.4 193.6 97.6C193.8 97.8 194 98 194.3 98.2C194.6 98.3 194.9 98.4 195.2 98.4C195.5 98.4 195.8 98.4 196 98.3C196.2 98.2 196.4 98.2 196.5 98.1C196.6 98 196.7 97.9 196.8 97.9V96.2H195V95.1H198.5ZM186.4 90.9L188.1 97.5L188.3 99.4H187.4L185.6 92.6L185.5 90.9H186.4ZM188 97.5L189.4 91H190.9L188.9 99.5H187.9L188 97.5ZM182.2 90.9L183.6 97.5L183.7 99.5H182.7L180.7 91H182.2V90.9ZM183.5 97.6L185.2 91H186.1L186 92.7L184.2 99.5H183.3L183.5 97.6ZM179.1 96.3V97.5H174.5V96.3H179.1ZM179.2 99.5L176.6 92.1L176.5 91H177.5L180.7 99.5H179.2ZM177 92.1L174.5 99.5H173L176.2 91H177.2L177 92.1Z" fill="#6A6E7D"/>
<path d="M105.3 137.3L102.5 133.3L103.5 132.3L107 137.3H105.3ZM106.9 128.8L103.4 132.9L101.4 135L101.1 133.5L102.5 131.8L105 128.8H106.9ZM101.8 128.8V137.3H100.3V128.8H101.8ZM95.3 128.8V137.3H93.8V128.8H95.3ZM99.2 136.2V137.4H94.9V136.2H99.2ZM91.1 134.5H92.6C92.6 135.1 92.4 135.6 92.1 136C91.8 136.4 91.5 136.8 91 137C90.5 137.2 89.9 137.4 89.2 137.4C88.7 137.4 88.2 137.3 87.8 137.1C87.4 136.9 87 136.6 86.7 136.3C86.4 135.9 86.2 135.5 86 135C85.8 134.5 85.8 133.9 85.8 133.3V132.6C85.8 132 85.9 131.4 86 130.9C86.2 130.4 86.4 130 86.7 129.6C87 129.2 87.4 129 87.8 128.8C88.2 128.6 88.7 128.5 89.2 128.5C89.9 128.5 90.5 128.6 90.9 128.9C91.3 129.2 91.7 129.5 92 129.9C92.3 130.3 92.4 130.8 92.5 131.4H91C91 131 90.9 130.7 90.7 130.5C90.6 130.2 90.4 130 90.1 129.9C89.8 129.8 89.5 129.7 89.1 129.7C88.8 129.7 88.5 129.8 88.2 129.9C87.9 130 87.7 130.2 87.6 130.5C87.4 130.7 87.3 131 87.2 131.4C87.1 131.8 87.1 132.2 87.1 132.6V133.3C87.1 133.7 87.1 134.1 87.2 134.5C87.3 134.8 87.4 135.1 87.6 135.4C87.8 135.6 88 135.8 88.2 136C88.4 136.1 88.7 136.2 89.1 136.2C89.5 136.2 89.9 136.1 90.1 136C90.4 135.9 90.6 135.7 90.7 135.4C90.9 135.2 91 134.9 91.1 134.5Z" fill="#7572D4"/>
<path d="M460.4 93.7H461.9C461.9 94.3 461.7 94.8 461.4 95.2C461.1 95.6 460.8 96 460.3 96.2C459.8 96.4 459.2 96.6 458.5 96.6C458 96.6 457.5 96.5 457.1 96.3C456.7 96.1 456.3 95.8 456 95.5C455.7 95.1 455.5 94.7 455.3 94.2C455.1 93.7 455.1 93.1 455.1 92.5V91.8C455.1 91.2 455.2 90.6 455.3 90.1C455.5 89.6 455.7 89.2 456 88.8C456.3 88.4 456.7 88.2 457.1 88C457.5 87.8 458 87.7 458.5 87.7C459.2 87.7 459.8 87.8 460.2 88.1C460.6 88.4 461 88.7 461.3 89.1C461.6 89.5 461.7 90 461.8 90.6H460.3C460.3 90.2 460.2 89.9 460 89.7C459.9 89.4 459.7 89.2 459.4 89.1C459.1 89 458.8 88.9 458.4 88.9C458.1 88.9 457.8 89 457.5 89.1C457.2 89.2 457 89.4 456.9 89.7C456.8 90 456.6 90.2 456.5 90.6C456.4 91 456.4 91.4 456.4 91.8V92.5C456.4 92.9 456.4 93.3 456.5 93.7C456.6 94 456.7 94.3 456.9 94.6C457.1 94.8 457.3 95 457.5 95.2C457.7 95.4 458 95.4 458.4 95.4C458.8 95.4 459.2 95.3 459.4 95.2C459.7 95.1 459.9 94.9 460 94.6C460.3 94.4 460.4 94.1 460.4 93.7ZM449 87.9V96.4H447.5V87.9H449ZM450 96.5H448.2V95.3H450C450.5 95.3 451 95.2 451.3 95C451.7 94.8 451.9 94.4 452.1 94C452.3 93.6 452.4 93.1 452.4 92.5V92C452.4 91.5 452.3 91.1 452.2 90.8C452.1 90.4 451.9 90.1 451.7 89.9C451.5 89.7 451.3 89.5 451 89.3C450.7 89.2 450.4 89.1 450 89.1H448.1V87.9H450C450.6 87.9 451.1 88 451.6 88.2C452.1 88.4 452.5 88.7 452.8 89C453.1 89.4 453.4 89.8 453.6 90.3C453.8 90.8 453.9 91.4 453.9 92V92.5C453.9 93.1 453.8 93.7 453.6 94.2C453.4 94.7 453.2 95.1 452.8 95.5C452.5 95.9 452 96.1 451.6 96.3C451.1 96.4 450.6 96.5 450 96.5ZM446.4 87.9V89.1H439.6V87.9H446.4ZM443.7 87.9V96.4H442.2V87.9H443.7Z" fill="#6A6E7D"/>
<path d="M417.4 46.1V47.3H410.6V46.1H417.4ZM414.7 46.1V54.6H413.2V46.1H414.7ZM410 46.1V47.3H403.2V46.1H410ZM407.3 46.1V54.6H405.8V46.1H407.3ZM401.9 51.5V52.7H397.3V51.5H401.9ZM402 54.7L399.4 47.3L399.3 46.2H400.3L403.5 54.7H402ZM399.9 47.3L397.4 54.7H395.9L399.1 46.2H400.1L399.9 47.3Z" fill="#C0C5D7"/>
<path d="M472.2 46.1V54.6H470.7V46.1H472.2ZM473.2 54.7H471.4V53.5H473.2C473.7 53.5 474.2 53.4 474.5 53.2C474.9 53 475.1 52.6 475.3 52.2C475.5 51.8 475.6 51.3 475.6 50.7V50.2C475.6 49.7 475.5 49.3 475.4 49C475.3 48.6 475.1 48.3 474.9 48.1C474.7 47.9 474.5 47.7 474.2 47.5C473.9 47.4 473.6 47.3 473.2 47.3H471.3V46.1H473.2C473.8 46.1 474.3 46.2 474.8 46.4C475.3 46.6 475.7 46.9 476 47.2C476.3 47.6 476.6 48 476.8 48.5C477 49 477.1 49.6 477.1 50.2V50.7C477.1 51.3 477 51.9 476.8 52.4C476.6 52.9 476.4 53.3 476 53.7C475.7 54.1 475.2 54.3 474.8 54.5C474.3 54.6 473.8 54.7 473.2 54.7ZM466.3 51.5H464.1V50.3H466.3C466.7 50.3 467 50.2 467.2 50.1C467.4 50 467.6 49.8 467.7 49.6C467.8 49.4 467.9 49.1 467.9 48.8C467.9 48.5 467.8 48.3 467.7 48C467.6 47.8 467.4 47.6 467.2 47.4C467 47.3 466.6 47.2 466.3 47.2H464.5V54.6H463V46.1H466.2C466.9 46.1 467.4 46.2 467.9 46.5C468.4 46.7 468.7 47.1 469 47.5C469.2 47.9 469.4 48.4 469.4 48.9C469.4 49.5 469.3 49.9 469 50.3C468.8 50.7 468.4 51 467.9 51.2C467.5 51.4 467 51.5 466.3 51.5ZM460.3 52.5C460.3 52.3 460.3 52.2 460.2 52C460.1 51.9 460.1 51.7 459.9 51.6C459.8 51.5 459.6 51.4 459.3 51.3C459.1 51.2 458.8 51.1 458.4 51C458 50.9 457.6 50.7 457.3 50.6C457 50.4 456.7 50.3 456.4 50.1C456.1 49.9 455.9 49.7 455.8 49.4C455.7 49.1 455.6 48.8 455.6 48.5C455.6 48.2 455.7 47.8 455.8 47.6C455.9 47.3 456.2 47.1 456.4 46.9C456.7 46.7 457 46.5 457.4 46.4C457.8 46.3 458.2 46.2 458.6 46.2C459.2 46.2 459.8 46.3 460.2 46.6C460.7 46.8 461 47.1 461.3 47.5C461.5 47.9 461.7 48.3 461.7 48.8H460.2C460.2 48.5 460.1 48.3 460 48.1C459.9 47.9 459.7 47.7 459.5 47.6C459.3 47.5 459 47.4 458.6 47.4C458.3 47.4 458 47.5 457.7 47.6C457.5 47.7 457.3 47.8 457.2 48C457.1 48.2 457 48.4 457 48.6C457 48.8 457 48.9 457.1 49C457.2 49.1 457.3 49.2 457.4 49.4C457.6 49.5 457.7 49.6 458 49.7C458.2 49.8 458.5 49.9 458.8 50C459.3 50.1 459.7 50.3 460 50.5C460.4 50.7 460.6 50.9 460.9 51.1C461.1 51.3 461.3 51.6 461.4 51.8C461.5 52.1 461.6 52.4 461.6 52.7C461.6 53.1 461.5 53.4 461.4 53.7C461.3 54 461 54.2 460.8 54.4C460.5 54.6 460.2 54.8 459.8 54.9C459.4 55 459 55.1 458.6 55.1C458.2 55.1 457.8 55 457.4 54.9C457 54.8 456.6 54.6 456.3 54.4C456 54.2 455.7 53.9 455.5 53.6C455.3 53.3 455.2 52.9 455.2 52.4H456.7C456.7 52.7 456.7 52.9 456.8 53.1C456.9 53.3 457 53.5 457.2 53.6C457.4 53.7 457.6 53.8 457.8 53.9C458 54 458.3 54 458.5 54C458.8 54 459.1 54 459.4 53.9C459.6 53.8 459.8 53.7 459.9 53.5C460.2 52.9 460.3 52.7 460.3 52.5ZM454 46.1V54.6H452.5L448.7 48.5V54.6H447.2V46.1H448.7L452.5 52.2V46.1H454ZM444.5 52.5C444.5 52.3 444.5 52.2 444.4 52C444.3 51.9 444.3 51.7 444.1 51.6C444 51.5 443.8 51.4 443.5 51.3C443.3 51.2 443 51.1 442.6 51C442.2 50.9 441.8 50.7 441.5 50.6C441.2 50.4 440.9 50.3 440.6 50.1C440.3 49.9 440.1 49.7 440 49.4C439.9 49.1 439.8 48.8 439.8 48.5C439.8 48.2 439.9 47.8 440 47.6C440.1 47.3 440.4 47.1 440.6 46.9C440.9 46.7 441.2 46.5 441.6 46.4C442 46.3 442.4 46.2 442.8 46.2C443.4 46.2 444 46.3 444.4 46.6C444.9 46.8 445.2 47.1 445.5 47.5C445.7 47.9 445.9 48.3 445.9 48.8H444.4C444.4 48.5 444.3 48.3 444.2 48.1C444.1 47.9 443.9 47.7 443.7 47.6C443.5 47.5 443.2 47.4 442.8 47.4C442.5 47.4 442.2 47.5 441.9 47.6C441.7 47.7 441.5 47.8 441.4 48C441.3 48.2 441.2 48.4 441.2 48.6C441.2 48.8 441.2 48.9 441.3 49C441.4 49.1 441.5 49.2 441.6 49.4C441.8 49.5 441.9 49.6 442.2 49.7C442.4 49.8 442.7 49.9 443 50C443.5 50.1 443.9 50.3 444.2 50.5C444.6 50.7 444.8 50.9 445.1 51.1C445.3 51.3 445.5 51.6 445.6 51.8C445.7 52.1 445.8 52.4 445.8 52.7C445.8 53.1 445.7 53.4 445.6 53.7C445.5 54 445.2 54.2 445 54.4C444.7 54.6 444.4 54.8 444 54.9C443.6 55 443.2 55.1 442.8 55.1C442.4 55.1 442 55 441.6 54.9C441.2 54.8 440.8 54.6 440.5 54.4C440.2 54.2 439.9 53.9 439.7 53.6C439.5 53.3 439.4 52.9 439.4 52.4H440.9C440.9 52.7 440.9 52.9 441 53.1C441.1 53.3 441.2 53.5 441.4 53.6C441.6 53.7 441.8 53.8 442 53.9C442.2 54 442.5 54 442.7 54C443 54 443.3 54 443.6 53.9C443.8 53.8 444 53.7 444.1 53.5C444.4 52.9 444.5 52.7 444.5 52.5Z" fill="#C0C5D7"/>
<path d="M40.8 4.6V5.9C40.7 5.9 40.6 5.9 40.5 5.9C40.4 5.9 40.3 5.9 40.2 5.9C40 5.9 39.7 5.9 39.6 6C39.4 6.1 39.3 6.2 39.1 6.3C39 6.4 38.9 6.6 38.8 6.8C38.7 7 38.7 7.2 38.7 7.4H38.4C38.4 7 38.4 6.6 38.5 6.3C38.6 6 38.7 5.7 38.9 5.4C39.1 5.1 39.3 4.9 39.5 4.8C39.7 4.7 40 4.6 40.3 4.6C40.4 4.6 40.5 4.6 40.6 4.6C40.6 4.6 40.7 4.6 40.8 4.6ZM38.8 5.9V11H37.4V4.7H38.7L38.8 5.9ZM33.8 11.1C33.3 11.1 32.9 11 32.5 10.9C32.1 10.7 31.8 10.5 31.5 10.2C31.2 9.9 31 9.6 30.9 9.2C30.8 8.8 30.7 8.5 30.7 8V7.8C30.7 7.3 30.8 6.9 30.9 6.5C31 6.1 31.2 5.8 31.5 5.5C31.8 5.2 32.1 5 32.4 4.8C32.8 4.6 33.1 4.6 33.5 4.6C34 4.6 34.3 4.7 34.7 4.8C35 5 35.3 5.2 35.5 5.4C35.7 5.7 35.9 6 36 6.4C36.1 6.8 36.2 7.2 36.2 7.7V8.3H31.3V7.3H34.8V7.1C34.8 6.8 34.7 6.6 34.6 6.4C34.5 6.2 34.4 6 34.2 5.9C34 5.8 33.8 5.7 33.4 5.7C33.2 5.7 33 5.8 32.8 5.9C32.6 6 32.5 6.1 32.3 6.3C32.1 6.5 32.1 6.7 32 7C31.9 7.3 31.9 7.6 31.9 7.9V8C31.9 8.3 31.9 8.5 32 8.8C32.1 9 32.2 9.2 32.3 9.4C32.4 9.6 32.6 9.7 32.8 9.8C33 9.9 33.3 9.9 33.5 9.9C33.8 9.9 34.1 9.8 34.4 9.7C34.7 9.6 34.9 9.4 35.1 9.1L35.8 9.8C35.7 10 35.5 10.2 35.3 10.4C35.1 10.6 34.8 10.7 34.5 10.8C34.5 11.1 34.2 11.1 33.8 11.1ZM28.3 9.3C28.3 9.2 28.3 9 28.2 8.9C28.1 8.8 28 8.7 27.8 8.6C27.6 8.5 27.3 8.4 26.9 8.3C26.6 8.2 26.3 8.1 26 8C25.7 7.9 25.5 7.8 25.3 7.6C25.1 7.5 24.9 7.3 24.8 7.1C24.7 6.9 24.6 6.7 24.6 6.4C24.6 6.1 24.7 5.9 24.8 5.7C24.9 5.5 25.1 5.3 25.3 5.1C25.5 4.9 25.8 4.8 26.1 4.7C26.4 4.6 26.7 4.5 27.1 4.5C27.6 4.5 28.1 4.6 28.5 4.8C28.9 5 29.2 5.2 29.4 5.5C29.6 5.8 29.7 6.1 29.7 6.5H28.3C28.3 6.3 28.3 6.2 28.2 6C28.1 5.9 28 5.7 27.8 5.6C27.6 5.5 27.4 5.5 27.2 5.5C27 5.5 26.8 5.5 26.6 5.6C26.4 5.7 26.3 5.8 26.2 5.9C26.1 6 26.1 6.2 26.1 6.3C26.1 6.4 26.1 6.5 26.2 6.6C26.2 6.7 26.3 6.8 26.4 6.8C26.4 7 26.6 7 26.7 7.1C26.9 7.2 27.1 7.2 27.3 7.3C27.8 7.4 28.2 7.5 28.5 7.7C29 7.8 29.3 8 29.4 8.3C29.6 8.5 29.7 8.9 29.7 9.2C29.7 9.5 29.6 9.7 29.5 10C29.4 10.2 29.2 10.4 29 10.6C28.8 10.8 28.5 10.9 28.2 11C27.9 11.1 27.5 11.1 27.1 11.1C26.5 11.1 26 11 25.6 10.8C25.2 10.6 24.9 10.3 24.7 10C24.5 9.7 24.4 9.3 24.4 9H25.8C25.8 9.3 25.9 9.5 26 9.6C26.1 9.8 26.3 9.9 26.5 9.9C26.7 10 26.9 10 27.1 10C27.4 10 27.6 10 27.7 9.9C27.9 9.8 28 9.7 28.1 9.6C28.3 9.6 28.3 9.4 28.3 9.3ZM22.1 7.1V8H21.1C20.8 8 20.6 8 20.4 8.1C20.2 8.1 20 8.2 19.9 8.3C19.8 8.4 19.7 8.5 19.6 8.6C19.5 8.7 19.5 8.9 19.5 9.1C19.5 9.3 19.5 9.4 19.6 9.6C19.7 9.7 19.8 9.8 19.9 9.9C20.1 10 20.2 10 20.5 10C20.8 10 21 9.9 21.3 9.8C21.5 9.7 21.7 9.5 21.8 9.4C21.9 9.2 22 9 22 8.9L22.5 9.5C22.5 9.7 22.4 9.8 22.3 10C22.2 10.2 22 10.4 21.9 10.5C21.7 10.7 21.5 10.8 21.2 10.9C21 11 20.7 11.1 20.3 11.1C19.9 11.1 19.5 11 19.2 10.9C18.9 10.7 18.6 10.5 18.4 10.2C18.2 9.9 18.1 9.6 18.1 9.2C18.1 8.9 18.2 8.6 18.3 8.3C18.4 8 18.6 7.8 18.9 7.6C19.1 7.4 19.5 7.3 19.8 7.2C20.2 7.1 20.6 7.1 21 7.1H22.1ZM21.9 9.7V6.7C21.9 6.5 21.9 6.3 21.8 6.1C21.7 5.9 21.6 5.8 21.4 5.7C21.2 5.6 21 5.6 20.8 5.6C20.6 5.6 20.4 5.6 20.2 5.7C20 5.8 19.9 5.9 19.8 6C19.7 6.1 19.7 6.3 19.7 6.5H18.3C18.3 6.3 18.4 6 18.5 5.8C18.6 5.6 18.8 5.4 19 5.2C19.2 5 19.5 4.9 19.8 4.8C20.1 4.7 20.5 4.6 20.9 4.6C21.4 4.6 21.8 4.7 22.2 4.8C22.6 5 22.9 5.2 23.1 5.5C23.3 5.8 23.4 6.2 23.4 6.7V9.5C23.4 9.8 23.4 10 23.5 10.3C23.5 10.5 23.6 10.7 23.7 10.9V11H22.3C22.2 10.8 22.2 10.7 22.1 10.4C21.9 10.2 21.9 10 21.9 9.7ZM13.4 2.5V11H12V2.5H13.4ZM17.3 9.8V11H13V9.8H17.3Z" fill="#C0C5D7"/>
<path d="M482 39.6C482 39.7 482 39.7 482 39.7C482 39.7 482 39.7 482 39.8C482 39.9 482 39.8 482 39.9C482 40 482 39.9 482 40C482 40 482 40 482 40.1C482 40.1 482 40.1 482 40.2C482 40.3 482 40.2 482 40.3C482 40.4 482 40.3 482 40.4C482 40.5 482 40.4 482 40.5C482 40.5 482 40.5 482 40.6C482 40.7 482 40.6 482 40.7C482 40.8 482 40.7 482 40.8C482 40.8 482 40.8 482 40.9C482 40.9 482 40.9 482 41C482 41 482 41 482 41.1C482 41.1 482 41.1 482 41.2C482 41.3 482 41.2 482 41.3C482 41.3 482 41.3 482 41.4C482 41.4 482 41.4 482 41.5C482 41.6 482 41.5 482 41.6C482 41.7 482 41.6 482 41.7C482 41.8 482 41.7 482 41.8C482 41.8 482 41.8 482 41.9C482 41.9 482 41.9 482 42C482 42 482 42 482 42.1C482 42.1 482 42.1 482 42.2C482 42.2 482 42.2 482 42.3C482 42.4 482 42.3 482 42.4C482 42.4 482 42.4 482 42.5C482 42.5 482 42.5 482 42.6C482 42.6 482 42.6 482 42.7C482 42.8 482 42.7 482 42.8C482 42.8 482 42.8 482 42.9C482 42.9 482 42.9 482 43C482 43 482 43 482 43.1C482 43.1 482 43.1 482 43.2C482 43.2 482 43.2 482 43.3C482 43.4 482 43.3 482 43.4C482 43.4 482 43.4 482 43.5C482 43.6 482 43.5 482 43.6C482 43.7 482 43.6 482 43.7C482 43.7 482 43.7 482 43.8C482 43.8 482 43.8 482 43.9C482 44 482 43.9 482 44C482 44.1 482 44 482 44.1C482 44.2 482 44.1 482 44.2C482 44.2 482 44.2 482 44.3C482 44.4 482 44.3 482 44.4C482 44.4 482 44.4 482 44.5C482 44.5 482 44.5 482 44.6C482 44.6 482 44.6 482 44.7C482 44.8 482 44.7 482 44.8C482 44.9 482 44.8 482 44.9C482 44.9 482 44.9 482 45C482 45 482 45 482 45.1C482 45.1 482 45.1 482 45.2C482 45.3 482 45.2 482 45.3C482 45.3 482 45.3 482 45.4C482 45.5 482 45.4 482 45.5C482 45.5 482 45.5 482 45.6C482 45.7 482 45.6 482 45.7C482 45.7 482 45.7 482 45.8C482 45.9 482 45.8 482 45.9C482 46 482 45.9 482 46C482 46 482 46 482 46.1C482 46.1 482 46.1 482 46.2C482 46.3 482 46.2 482 46.3C482 46.4 482 46.3 482 46.4C482 46.5 482 46.4 482 46.5C482 46.6 482 46.5 482 46.6C482 46.7 482 46.6 482 46.7C482 46.7 482 46.7 482 46.8C482 46.9 482 46.8 482 46.9C482 47 482 46.9 482 47C482 47.1 482 47 482 47.1C482 47.2 482 47.1 482 47.2C482 47.2 482 47.2 482 47.3C482 47.4 482 47.3 482 47.4C482 47.5 482 47.4 482 47.5C482 47.5 482 47.5 482 47.6C482 47.7 482 47.6 482 47.7C482 47.7 482 47.7 482 47.8C482 47.9 482 47.8 482 47.9C482 47.9 482 47.9 482 48C482 48.1 482 48.1 482 48.1V48.2V48.3V48.4V48.5V48.6V48.7V48.8V48.9V49V49.1V49.2V49.3V49.4V49.5V49.6V49.7V49.8V49.9V50V50.1V50.2V50.3V50.4V50.5V50.6V50.7V50.8V50.9V51V51.1V51.2V51.3V51.4V51.5V51.6V51.7V51.8V51.9V52V52.1V52.2V52.3V52.4V52.5V52.6V52.7V52.8V52.9V53V53.1V53.2V53.3V53.4V53.5V53.6V53.7V53.8V53.9V54V54.1V54.2V54.3V54.4V54.5V54.6V54.7V54.8V54.9V55V55.1V55.2V55.3V55.4V55.5V55.6V55.7V55.8V55.9V56V56.1V56.2V56.3V56.4V56.5V56.6V56.7V56.8V56.9V57V57.1V57.2V57.3V57.4V57.5V57.6V57.7V57.8V57.9V58V58.1V58.2V58.3V58.4V58.5V58.6V58.7V58.8V58.9V59V59.1V59.2V59.3V59.4V59.5V59.6V59.7V59.8V59.9V60V60.1V60.2V60.3V60.4V60.5V60.6V60.7V60.8V60.9V61V61.1V61.2V61.3V61.4V61.5V61.6V61.7V61.8V61.9V62V62.1V62.2V62.3V62.4V62.5V62.6V62.7V62.8V62.9V63V63.1V63.2V63.3V63.4V63.5V63.6V63.7V63.8V63.9V64V64.1V64.2V64.3V64.4V64.5V64.6V64.7V64.8V64.9V65V65.1V65.2V65.3V65.4V65.5V65.6V65.7V65.8V65.9V66V66.1V66.2V66.3V66.4V66.5V66.6V66.7V66.8V66.9V67V67.1V67.2V67.3V67.4V67.5V67.6V67.7V67.8V67.9V68V68.1V68.2V68.3V68.4V68.5V68.6V68.7V68.8V68.9V69V69.1V69.2V69.3V69.4V69.5V69.6V69.7V69.8V69.9V70V70.1V70.2V70.3V70.4V70.5V70.6V70.7V70.8V70.9V71V71.1V71.2V71.3V71.4V71.5V71.6V71.7V71.8V71.9V72V72.1V72.2V72.3V72.4V72.5V72.6V72.7V72.8V72.9V73V73.1V73.2V73.3V73.4V73.5V73.6V73.7V73.8V73.9V74V74.1V74.2V74.3V74.4V74.5V74.6V74.7V74.8V74.9V75V75.1V75.2V75.3V75.4V75.5V75.6V75.7V75.8V75.9V76V76.1V76.2V76.3V76.4V76.5V76.6V76.7V76.8V76.9V77V77.1V77.2V77.3V77.4V77.5V77.6V77.7V77.8V77.9V78V78.1V78.2V78.3V78.4V78.5V78.6V78.7V78.8V78.9V79V79.1V79.2V79.3V79.4V79.5V79.6V79.7V79.8V79.9V80V80.1V80.2V80.3V80.4V80.5V80.6V80.7V80.8V80.9V81V81.1V81.2V81.3V81.4V81.5V81.6V81.7V81.8V81.9V82V82.1V82.2V82.3V82.4V82.5V82.6V82.7V82.8V82.9V83V83.1V83.2V83.3V83.4V83.5V83.6V83.7V83.8V83.9V84V84.1V84.2V84.3V84.4V84.5V84.6V84.7V84.8V84.9V85V85.1V85.2V85.3V85.4V85.5V85.6V85.7V85.8V85.9V86V86.1V86.2V86.3V86.4V86.5V86.6H485V86.5V86.4V86.3V86.2V86.1V86V85.9V85.8V85.7V85.6V85.5V85.4V85.3V85.2V85.1V85V84.9V84.8V84.7V84.6V84.5V84.4V84.3V84.2V84.1V84V83.9V83.8V83.7V83.6V83.5V83.4V83.3V83.2V83.1V83V82.9V82.8V82.7V82.6V82.5V82.4V82.3V82.2V82.1V82V81.9V81.8V81.7V81.6V81.5V81.4V81.3V81.2V81.1V81V80.9V80.8V80.7V80.6V80.5V80.4V80.3V80.2V80.1V80V79.9V79.8V79.7V79.6V79.5V79.4V79.3V79.2V79.1V79V78.9V78.8V78.7V78.6V78.5V78.4V78.3V78.2V78.1V78V77.9V77.8V77.7V77.6V77.5V77.4V77.3V77.2V77.1V77V76.9V76.8V76.7V76.6V76.5V76.4V76.3V76.2V76.1V76V75.9V75.8V75.7V75.6V75.5V75.4V75.3V75.2V75.1V75V74.9V74.8V74.7V74.6V74.5V74.4V74.3V74.2V74.1V74V73.9V73.8V73.7V73.6V73.5V73.4V73.3V73.2V73.1V73V72.9V72.8V72.7V72.6V72.5V72.4V72.3V72.2V72.1V72V71.9V71.8V71.7V71.6V71.5V71.4V71.3V71.2V71.1V71V70.9V70.8V70.7V70.6V70.5V70.4V70.3V70.2V70.1V70V69.9V69.8V69.7V69.6V69.5V69.4V69.3V69.2V69.1V69V68.9V68.8V68.7V68.6V68.5V68.4V68.3V68.2V68.1V68V67.9V67.8V67.7V67.6V67.5V67.4V67.3V67.2V67.1V67V66.9V66.8V66.7V66.6V66.5V66.4V66.3V66.2V66.1V66V65.9V65.8V65.7V65.6V65.5V65.4V65.3V65.2V65.1V65V64.9V64.8V64.7V64.6V64.5V64.4V64.3V64.2V64.1V64V63.9V63.8V63.7V63.6V63.5V63.4V63.3V63.2V63.1V63V62.9V62.8V62.7V62.6V62.5V62.4V62.3V62.2V62.1V62V61.9V61.8V61.7V61.6V61.5V61.4V61.3V61.2V61.1V61V60.9V60.8V60.7V60.6V60.5V60.4V60.3V60.2V60.1V60V59.9V59.8V59.7V59.6V59.5V59.4V59.3V59.2V59.1V59V58.9V58.8V58.7V58.6V58.5V58.4V58.3V58.2V58.1V58V57.9V57.8V57.7V57.6V57.5V57.4V57.3V57.2V57.1V57V56.9V56.8V56.7V56.6V56.5V56.4V56.3V56.2V56.1V56V55.9V55.8V55.7V55.6V55.5V55.4V55.3V55.2V55.1V55V54.9V54.8V54.7V54.6V54.5V54.4V54.3V54.2V54.1V54V53.9V53.8V53.7V53.6V53.5V53.4V53.3V53.2V53.1V53V52.9V52.8V52.7V52.6V52.5V52.4V52.3V52.2V52.1V52V51.9V51.8V51.7V51.6V51.5V51.4V51.3V51.2V51.1V51V50.9V50.8V50.7V50.6V50.5V50.4V50.3V50.2V50.1V50V49.9V49.8V49.7V49.6V49.5V49.4V49.3V49.2V49.1V49V48.9V48.8V48.7V48.6V48.5V48.4V48.3V48.2V48.1V48V47.9C485 47.9 485 47.9 485 47.8C485 47.7 485 47.8 485 47.7C485 47.7 485 47.7 485 47.6C485 47.5 485 47.6 485 47.5C485 47.5 485 47.5 485 47.4C485 47.3 485 47.4 485 47.3C485 47.2 485 47.3 485 47.2C485 47.2 485 47.2 485 47.1C485 47 485 47.1 485 47C485 46.9 485 47 485 46.9C485 46.8 485 46.9 485 46.8C485 46.7 485 46.8 485 46.7C485 46.7 485 46.7 485 46.6C485 46.5 485 46.6 485 46.5C485 46.4 485 46.5 485 46.4C485 46.3 485 46.4 485 46.3C485 46.2 485 46.3 485 46.2C485 46.1 485 46.2 485 46.1C485 46.1 485 46.1 485 46C485 46 485 46 485 45.9C485 45.8 485 45.9 485 45.8C485 45.7 485 45.8 485 45.7C485 45.7 485 45.7 485 45.6C485 45.5 485 45.6 485 45.5C485 45.5 485 45.5 485 45.4C485 45.3 485 45.4 485 45.3C485 45.3 485 45.3 485 45.2C485 45.1 485 45.2 485 45.1C485 45.1 485 45.1 485 45C485 45 485 45 485 44.9C485 44.9 485 44.9 485 44.8C485 44.7 485 44.8 485 44.7C485 44.6 485 44.7 485 44.6C485 44.6 485 44.6 485 44.5C485 44.5 485 44.5 485 44.4C485 44.4 485 44.4 485 44.3C485 44.2 485 44.3 485 44.2C485 44.2 485 44.2 485 44.1C485 44 485 44.1 485 44C485 43.9 485 44 485 43.9C485 43.8 485 43.9 485 43.8C485 43.8 485 43.8 485 43.7C485 43.7 485 43.7 485 43.6C485 43.5 485 43.6 485 43.5C485 43.4 485 43.5 485 43.4C485 43.4 485 43.4 485 43.3C485 43.2 485 43.3 485 43.2C485 43.2 485 43.2 485 43.1C485 43.1 485 43.1 485 43C485 43 485 43 485 42.9C485 42.9 485 42.9 485 42.8C485 42.8 485 42.8 485 42.7C485 42.6 485 42.7 485 42.6C485 42.6 485 42.6 485 42.5C485 42.5 485 42.5 485 42.4C485 42.4 485 42.4 485 42.3C485 42.2 485 42.3 485 42.2C485 42.2 485 42.2 485 42.1C485 42.1 485 42.1 485 42C485 42 485 42 485 41.9C485 41.9 485 41.9 485 41.8C485 41.8 485 41.8 485 41.7C485 41.6 485 41.7 485 41.6C485 41.5 485 41.6 485 41.5C485 41.4 485 41.5 485 41.4C485 41.4 485 41.4 485 41.3C485 41.3 485 41.3 485 41.2C485 41.1 485 41.2 485 41.1C485 41.1 485 41.1 485 41C485 41 485 41 485 40.9C485 40.9 485 40.9 485 40.8C485 40.8 485 40.8 485 40.7C485 40.6 485 40.7 485 40.6C485 40.5 485 40.6 485 40.5C485 40.5 485 40.5 485 40.4C485 40.3 485 40.4 485 40.3C485 40.2 485 40.3 485 40.2C485 40.1 485 40.2 485 40.1C485 40.1 485 40.1 485 40C485 40 485 40 485 39.9C485 39.8 485 39.9 485 39.8C485 39.7 485 39.8 485 39.7H482V39.6ZM474 30.2C477.7 30.2 479.5 31.1 480.5 32.4C481.6 33.8 482.1 36.1 482.1 39.7H485.1C485.1 36 484.7 32.8 482.9 30.6C481.1 28.2 478.1 27.3 474 27.3V30.2ZM482 85.1C482 85.9 482.7 86.6 483.5 86.6C484.3 86.6 485 85.9 485 85.1H482ZM474 27.2C473.2 27.2 472.5 27.9 472.5 28.7C472.5 29.5 473.2 30.2 474 30.2V27.2Z" fill="#7572D4"/>
<path d="M55.5017 17.1585L55.5 17.1792V17.2V40.1C55.5 41.0713 54.7787 41.8 54 41.8H2C1.22132 41.8 0.5 41.0713 0.5 40.1V17.2C0.5 16.2287 1.22132 15.5 2 15.5H54C54.8167 15.5 55.5767 16.2591 55.5017 17.1585Z" fill="#747474" stroke="#979797"/>
<path d="M31.5 30.4H44.3V27.4H31.5V30.4ZM44.3 30.4C45.1 30.4 45.8 29.7 45.8 28.9C45.8 28.1 45.1 27.4 44.3 27.4V30.4ZM31.5 27.4C30.7 27.4 30 28.1 30 28.9C30 29.7 30.7 30.4 31.5 30.4V27.4Z" fill="#FF6262"/>
<path d="M36.3 21.2V36.1H39.3V21.2H36.3ZM36.3 36.1C36.3 36.9 37 37.6 37.8 37.6C38.6 37.6 39.3 36.9 39.3 36.1H36.3ZM39.3 21.2C39.3 20.4 38.6 19.7 37.8 19.7C37 19.7 36.3 20.4 36.3 21.2H39.3Z" fill="#FF6262"/>
<path d="M31.2 24.1L41.8 35.4L44 33.4L33.4 22.1L31.2 24.1ZM41.7 35.5C42.3 36.1 43.2 36.1 43.8 35.6C44.4 35 44.4 34.1 43.9 33.5L41.7 35.5ZM33.4 22.1C32.8 21.5 31.9 21.5 31.3 22C30.7 22.6 30.7 23.5 31.2 24.1L33.4 22.1Z" fill="#FF6262"/>
<path d="M41.7001 22.3L31.4001 33.4L33.6001 35.4L43.9001 24.3L41.7001 22.3ZM38.8001 29.9L43.9001 24.4L41.7001 22.4L36.6001 27.9L38.8001 29.9ZM10.6001 30.3H37.7001V27.3H10.6001V30.3ZM31.4001 33.4C30.8001 34 30.9001 35 31.5001 35.5C32.1001 36.1 33.1001 36 33.6001 35.4L31.4001 33.4ZM42.8001 23.4L43.9001 24.4C44.5001 23.8 44.4001 22.8 43.8001 22.3C43.2001 21.7 42.2001 21.8 41.7001 22.4L42.8001 23.4ZM37.7001 28.8V30.3C38.1001 30.3 38.5001 30.1 38.8001 29.8L37.7001 28.8ZM10.6001 27.3C9.8001 27.3 9.1001 28 9.1001 28.8C9.1001 29.6 9.8001 30.3 10.6001 30.3V27.3Z" fill="#FF6262"/>
<path d="M48.3 123.1L143.8 122.9V119.9L48.3 120.1V123.1ZM32.5 105.5V41.7H29.5V105.5H32.5ZM48.3 120.1C43 120.1 39.1 118.3 36.5 115.6C33.9 112.9 32.6 109.3 32.6 105.5H29.6C29.6 110 31.2 114.4 34.4 117.7C37.6 121 42.3 123.1 48.3 123.1V120.1ZM403.1 122.9C414.4 122.9 422.1 112.9 422.1 101H419.1C419.1 111.8 412.2 119.9 403.1 119.9V122.9ZM143.7 122.9H403.1V119.9H143.7V122.9ZM143.7 122.9C154.1 122.9 159.7 119.2 162.5 114.2C165.2 109.4 165.2 103.8 165.2 100.4H162.2C162.2 103.9 162.2 108.7 159.9 112.7C157.7 116.5 153.3 119.8 143.7 119.8V122.9ZM422.1 101C422.1 100.2 421.4 99.5 420.6 99.5C419.8 99.5 419.1 100.2 419.1 101H422.1ZM165.3 100.5C165.3 99.7 164.6 99 163.8 99C163 99 162.3 99.7 162.3 100.5H165.3Z" fill="#7572D4"/>
<path d="M65.1609 24.0238C68.5152 24.0238 68.5152 10.1126 68.5152 3.04542C68.5152 10.0888 68.5151 24.0238 71.8099 24.0238C75.1642 24.0238 75.1642 10.1126 75.1642 3.04542C75.1642 10.0888 75.1642 24.0238 78.4589 24.0238C81.8132 24.0238 81.8132 10.1126 81.8132 3.04542C81.8132 10.0888 81.8132 24.0238 85.1079 24.0238C88.4622 24.0238 88.4622 10.1126 88.4622 3.04541C88.4622 10.0888 88.4622 24.0238 91.7569 24.0238C95.1112 24.0238 95.1112 10.1125 95.1112 3.04535C95.1112 10.0887 95.1112 24.0237 98.406 24.0237C101.76 24.0237 101.76 10.1125 101.76 3.04537C101.76 10.0887 101.76 24.0237 105.055 24.0237C108.409 24.0237 108.409 10.1125 108.409 3.04539C108.409 10.0888 108.409 24.0237 111.704 24.0237C115.058 24.0237 115.058 10.1126 115.058 3.0454C115.058 10.0888 115.058 24.0238 118.353 24.0238" stroke="#FF2A2A" stroke-opacity="0.55" stroke-width="1.5" stroke-linejoin="round"/>
<path d="M263.181 24.0259C266.535 24.0259 266.535 10.1131 266.535 3.04751C266.535 10.0893 266.535 24.0259 269.83 24.0259H282.061C285.415 24.0259 285.415 10.1131 285.415 3.04751C285.415 10.0893 285.415 24.0259 288.71 24.0259H300.941C304.295 24.0259 304.295 10.1131 304.295 3.04751C304.295 10.0893 304.295 24.0259 307.59 24.0259L319.821 24.0258C323.175 24.0258 323.175 10.113 323.175 3.04749C323.175 10.0893 323.175 24.0258 326.47 24.0258L338.701 24.0257C342.055 24.0257 342.055 10.1129 342.055 3.0473C342.055 10.0891 342.055 24.0257 345.35 24.0257M345.35 24.0236L357.581 24.0235C360.935 24.0235 360.935 10.1107 360.935 3.0451C360.935 10.0869 360.935 24.0235 364.23 24.0235" stroke="#FF2A2A" stroke-opacity="0.55" stroke-width="1.5" stroke-linejoin="round"/>
</g>
<defs>
<clipPath id="clip0_505_86">
<rect width="498.5" height="146.3" fill="white"/>
</clipPath>
</defs>
</svg>
