<?xml version="1.0" encoding="utf-8" standalone="no"?>
<!DOCTYPE svg PUBLIC "-//W3C//DTD SVG 1.1//EN"
  "http://www.w3.org/Graphics/SVG/1.1/DTD/svg11.dtd">
<svg xmlns:xlink="http://www.w3.org/1999/xlink" width="787.87375pt" height="259.305312pt" viewBox="0 0 787.87375 259.305312" xmlns="http://www.w3.org/2000/svg" version="1.1">
 <metadata>
  <rdf:RDF xmlns:dc="http://purl.org/dc/elements/1.1/" xmlns:cc="http://creativecommons.org/ns#" xmlns:rdf="http://www.w3.org/1999/02/22-rdf-syntax-ns#">
   <cc:Work>
    <dc:type rdf:resource="http://purl.org/dc/dcmitype/StillImage"/>
    <dc:date>2023-11-28T15:16:55.075769</dc:date>
    <dc:format>image/svg+xml</dc:format>
    <dc:creator>
     <cc:Agent>
      <dc:title>Matplotlib v3.8.1, https://matplotlib.org/</dc:title>
     </cc:Agent>
    </dc:creator>
   </cc:Work>
  </rdf:RDF>
 </metadata>
 <defs>
  <style type="text/css">*{stroke-linejoin: round; stroke-linecap: butt}</style>
 </defs>
 <g id="figure_1">
  <g id="patch_1">
   <path d="M 0 259.305312 
L 787.87375 259.305312 
L 787.87375 0 
L 0 0 
L 0 259.305312 
z
" style="fill: none"/>
  </g>
  <g id="axes_1">
   <g id="patch_2">
    <path d="M 55.27375 217.877812 
L 256.77375 217.877812 
L 256.77375 23.837812 
L 55.27375 23.837812 
z
" style="fill: #a3a3ff; fill-opacity: 0.04"/>
   </g>
   <g id="matplotlib.axis_1">
    <g id="xtick_1">
     <g id="line2d_1">
      <path d="M 55.27375 217.877812 
L 55.27375 23.837812 
" clip-path="url(#pc4f20d7152)" style="fill: none; stroke: #b0b0b0; stroke-opacity: 0.2; stroke-width: 0.8; stroke-linecap: square"/>
     </g>
     <g id="line2d_2">
      <defs>
       <path id="m30232a2a14" d="M 0 0 
L 0 4 
" style="stroke: #b6bccf; stroke-width: 1.2"/>
      </defs>
      <g>
       <use xlink:href="#m30232a2a14" x="55.27375" y="217.877812" style="fill: #b6bccf; stroke: #b6bccf; stroke-width: 1.2"/>
      </g>
     </g>
     <g id="text_1">
      <!-- −100 -->
      <g style="fill: #b6bccf" transform="translate(40.166797 233.236094) scale(0.11 -0.11)">
       <defs>
        <path id="DejaVuSans-2212" d="M 678 2272 
L 4684 2272 
L 4684 1741 
L 678 1741 
L 678 2272 
z
" transform="scale(0.015625)"/>
        <path id="DejaVuSans-31" d="M 794 531 
L 1825 531 
L 1825 4091 
L 703 3866 
L 703 4441 
L 1819 4666 
L 2450 4666 
L 2450 531 
L 3481 531 
L 3481 0 
L 794 0 
L 794 531 
z
" transform="scale(0.015625)"/>
        <path id="DejaVuSans-30" d="M 2034 4250 
Q 1547 4250 1301 3770 
Q 1056 3291 1056 2328 
Q 1056 1369 1301 889 
Q 1547 409 2034 409 
Q 2525 409 2770 889 
Q 3016 1369 3016 2328 
Q 3016 3291 2770 3770 
Q 2525 4250 2034 4250 
z
M 2034 4750 
Q 2819 4750 3233 4129 
Q 3647 3509 3647 2328 
Q 3647 1150 3233 529 
Q 2819 -91 2034 -91 
Q 1250 -91 836 529 
Q 422 1150 422 2328 
Q 422 3509 836 4129 
Q 1250 4750 2034 4750 
z
" transform="scale(0.015625)"/>
       </defs>
       <use xlink:href="#DejaVuSans-2212"/>
       <use xlink:href="#DejaVuSans-31" x="83.789062"/>
       <use xlink:href="#DejaVuSans-30" x="147.412109"/>
       <use xlink:href="#DejaVuSans-30" x="211.035156"/>
      </g>
     </g>
    </g>
    <g id="xtick_2">
     <g id="line2d_3">
      <path d="M 112.845179 217.877812 
L 112.845179 23.837812 
" clip-path="url(#pc4f20d7152)" style="fill: none; stroke: #b0b0b0; stroke-opacity: 0.2; stroke-width: 0.8; stroke-linecap: square"/>
     </g>
     <g id="line2d_4">
      <g>
       <use xlink:href="#m30232a2a14" x="112.845179" y="217.877812" style="fill: #b6bccf; stroke: #b6bccf; stroke-width: 1.2"/>
      </g>
     </g>
     <g id="text_2">
      <!-- 0 -->
      <g style="fill: #b6bccf" transform="translate(109.345804 233.236094) scale(0.11 -0.11)">
       <use xlink:href="#DejaVuSans-30"/>
      </g>
     </g>
    </g>
    <g id="xtick_3">
     <g id="line2d_5">
      <path d="M 170.416607 217.877812 
L 170.416607 23.837812 
" clip-path="url(#pc4f20d7152)" style="fill: none; stroke: #b0b0b0; stroke-opacity: 0.2; stroke-width: 0.8; stroke-linecap: square"/>
     </g>
     <g id="line2d_6">
      <g>
       <use xlink:href="#m30232a2a14" x="170.416607" y="217.877812" style="fill: #b6bccf; stroke: #b6bccf; stroke-width: 1.2"/>
      </g>
     </g>
     <g id="text_3">
      <!-- 100 -->
      <g style="fill: #b6bccf" transform="translate(159.918482 233.236094) scale(0.11 -0.11)">
       <use xlink:href="#DejaVuSans-31"/>
       <use xlink:href="#DejaVuSans-30" x="63.623047"/>
       <use xlink:href="#DejaVuSans-30" x="127.246094"/>
      </g>
     </g>
    </g>
    <g id="xtick_4">
     <g id="line2d_7">
      <path d="M 227.988036 217.877812 
L 227.988036 23.837812 
" clip-path="url(#pc4f20d7152)" style="fill: none; stroke: #b0b0b0; stroke-opacity: 0.2; stroke-width: 0.8; stroke-linecap: square"/>
     </g>
     <g id="line2d_8">
      <g>
       <use xlink:href="#m30232a2a14" x="227.988036" y="217.877812" style="fill: #b6bccf; stroke: #b6bccf; stroke-width: 1.2"/>
      </g>
     </g>
     <g id="text_4">
      <!-- 200 -->
      <g style="fill: #b6bccf" transform="translate(217.489911 233.236094) scale(0.11 -0.11)">
       <defs>
        <path id="DejaVuSans-32" d="M 1228 531 
L 3431 531 
L 3431 0 
L 469 0 
L 469 531 
Q 828 903 1448 1529 
Q 2069 2156 2228 2338 
Q 2531 2678 2651 2914 
Q 2772 3150 2772 3378 
Q 2772 3750 2511 3984 
Q 2250 4219 1831 4219 
Q 1534 4219 1204 4116 
Q 875 4013 500 3803 
L 500 4441 
Q 881 4594 1212 4672 
Q 1544 4750 1819 4750 
Q 2544 4750 2975 4387 
Q 3406 4025 3406 3419 
Q 3406 3131 3298 2873 
Q 3191 2616 2906 2266 
Q 2828 2175 2409 1742 
Q 1991 1309 1228 531 
z
" transform="scale(0.015625)"/>
       </defs>
       <use xlink:href="#DejaVuSans-32"/>
       <use xlink:href="#DejaVuSans-30" x="63.623047"/>
       <use xlink:href="#DejaVuSans-30" x="127.246094"/>
      </g>
     </g>
    </g>
    <g id="text_5">
     <!-- Time (ps) -->
     <g style="fill: #b6bccf" transform="translate(125.469688 249.401719) scale(0.13 -0.13)">
      <defs>
       <path id="DejaVuSans-54" d="M -19 4666 
L 3928 4666 
L 3928 4134 
L 2272 4134 
L 2272 0 
L 1638 0 
L 1638 4134 
L -19 4134 
L -19 4666 
z
" transform="scale(0.015625)"/>
       <path id="DejaVuSans-69" d="M 603 3500 
L 1178 3500 
L 1178 0 
L 603 0 
L 603 3500 
z
M 603 4863 
L 1178 4863 
L 1178 4134 
L 603 4134 
L 603 4863 
z
" transform="scale(0.015625)"/>
       <path id="DejaVuSans-6d" d="M 3328 2828 
Q 3544 3216 3844 3400 
Q 4144 3584 4550 3584 
Q 5097 3584 5394 3201 
Q 5691 2819 5691 2113 
L 5691 0 
L 5113 0 
L 5113 2094 
Q 5113 2597 4934 2840 
Q 4756 3084 4391 3084 
Q 3944 3084 3684 2787 
Q 3425 2491 3425 1978 
L 3425 0 
L 2847 0 
L 2847 2094 
Q 2847 2600 2669 2842 
Q 2491 3084 2119 3084 
Q 1678 3084 1418 2786 
Q 1159 2488 1159 1978 
L 1159 0 
L 581 0 
L 581 3500 
L 1159 3500 
L 1159 2956 
Q 1356 3278 1631 3431 
Q 1906 3584 2284 3584 
Q 2666 3584 2933 3390 
Q 3200 3197 3328 2828 
z
" transform="scale(0.015625)"/>
       <path id="DejaVuSans-65" d="M 3597 1894 
L 3597 1613 
L 953 1613 
Q 991 1019 1311 708 
Q 1631 397 2203 397 
Q 2534 397 2845 478 
Q 3156 559 3463 722 
L 3463 178 
Q 3153 47 2828 -22 
Q 2503 -91 2169 -91 
Q 1331 -91 842 396 
Q 353 884 353 1716 
Q 353 2575 817 3079 
Q 1281 3584 2069 3584 
Q 2775 3584 3186 3129 
Q 3597 2675 3597 1894 
z
M 3022 2063 
Q 3016 2534 2758 2815 
Q 2500 3097 2075 3097 
Q 1594 3097 1305 2825 
Q 1016 2553 972 2059 
L 3022 2063 
z
" transform="scale(0.015625)"/>
       <path id="DejaVuSans-20" transform="scale(0.015625)"/>
       <path id="DejaVuSans-28" d="M 1984 4856 
Q 1566 4138 1362 3434 
Q 1159 2731 1159 2009 
Q 1159 1288 1364 580 
Q 1569 -128 1984 -844 
L 1484 -844 
Q 1016 -109 783 600 
Q 550 1309 550 2009 
Q 550 2706 781 3412 
Q 1013 4119 1484 4856 
L 1984 4856 
z
" transform="scale(0.015625)"/>
       <path id="DejaVuSans-70" d="M 1159 525 
L 1159 -1331 
L 581 -1331 
L 581 3500 
L 1159 3500 
L 1159 2969 
Q 1341 3281 1617 3432 
Q 1894 3584 2278 3584 
Q 2916 3584 3314 3078 
Q 3713 2572 3713 1747 
Q 3713 922 3314 415 
Q 2916 -91 2278 -91 
Q 1894 -91 1617 61 
Q 1341 213 1159 525 
z
M 3116 1747 
Q 3116 2381 2855 2742 
Q 2594 3103 2138 3103 
Q 1681 3103 1420 2742 
Q 1159 2381 1159 1747 
Q 1159 1113 1420 752 
Q 1681 391 2138 391 
Q 2594 391 2855 752 
Q 3116 1113 3116 1747 
z
" transform="scale(0.015625)"/>
       <path id="DejaVuSans-73" d="M 2834 3397 
L 2834 2853 
Q 2591 2978 2328 3040 
Q 2066 3103 1784 3103 
Q 1356 3103 1142 2972 
Q 928 2841 928 2578 
Q 928 2378 1081 2264 
Q 1234 2150 1697 2047 
L 1894 2003 
Q 2506 1872 2764 1633 
Q 3022 1394 3022 966 
Q 3022 478 2636 193 
Q 2250 -91 1575 -91 
Q 1294 -91 989 -36 
Q 684 19 347 128 
L 347 722 
Q 666 556 975 473 
Q 1284 391 1588 391 
Q 1994 391 2212 530 
Q 2431 669 2431 922 
Q 2431 1156 2273 1281 
Q 2116 1406 1581 1522 
L 1381 1569 
Q 847 1681 609 1914 
Q 372 2147 372 2553 
Q 372 3047 722 3315 
Q 1072 3584 1716 3584 
Q 2034 3584 2315 3537 
Q 2597 3491 2834 3397 
z
" transform="scale(0.015625)"/>
       <path id="DejaVuSans-29" d="M 513 4856 
L 1013 4856 
Q 1481 4119 1714 3412 
Q 1947 2706 1947 2009 
Q 1947 1309 1714 600 
Q 1481 -109 1013 -844 
L 513 -844 
Q 928 -128 1133 580 
Q 1338 1288 1338 2009 
Q 1338 2731 1133 3434 
Q 928 4138 513 4856 
z
" transform="scale(0.015625)"/>
      </defs>
      <use xlink:href="#DejaVuSans-54"/>
      <use xlink:href="#DejaVuSans-69" x="57.958984"/>
      <use xlink:href="#DejaVuSans-6d" x="85.742188"/>
      <use xlink:href="#DejaVuSans-65" x="183.154297"/>
      <use xlink:href="#DejaVuSans-20" x="244.677734"/>
      <use xlink:href="#DejaVuSans-28" x="276.464844"/>
      <use xlink:href="#DejaVuSans-70" x="315.478516"/>
      <use xlink:href="#DejaVuSans-73" x="378.955078"/>
      <use xlink:href="#DejaVuSans-29" x="431.054688"/>
     </g>
    </g>
   </g>
   <g id="matplotlib.axis_2">
    <g id="ytick_1">
     <g id="line2d_9">
      <path d="M 55.27375 212.409221 
L 256.77375 212.409221 
" clip-path="url(#pc4f20d7152)" style="fill: none; stroke: #b0b0b0; stroke-opacity: 0.2; stroke-width: 0.8; stroke-linecap: square"/>
     </g>
     <g id="line2d_10">
      <defs>
       <path id="medeb3176a2" d="M 0 0 
L -4 0 
" style="stroke: #b6bccf; stroke-width: 1.2"/>
      </defs>
      <g>
       <use xlink:href="#medeb3176a2" x="55.27375" y="212.409221" style="fill: #b6bccf; stroke: #b6bccf; stroke-width: 1.2"/>
      </g>
     </g>
     <g id="text_6">
      <!-- 0.00 -->
      <g style="fill: #b6bccf" transform="translate(23.781563 216.588362) scale(0.11 -0.11)">
       <defs>
        <path id="DejaVuSans-2e" d="M 684 794 
L 1344 794 
L 1344 0 
L 684 0 
L 684 794 
z
" transform="scale(0.015625)"/>
       </defs>
       <use xlink:href="#DejaVuSans-30"/>
       <use xlink:href="#DejaVuSans-2e" x="63.623047"/>
       <use xlink:href="#DejaVuSans-30" x="95.410156"/>
       <use xlink:href="#DejaVuSans-30" x="159.033203"/>
      </g>
     </g>
    </g>
    <g id="ytick_2">
     <g id="line2d_11">
      <path d="M 55.27375 168.87955 
L 256.77375 168.87955 
" clip-path="url(#pc4f20d7152)" style="fill: none; stroke: #b0b0b0; stroke-opacity: 0.2; stroke-width: 0.8; stroke-linecap: square"/>
     </g>
     <g id="line2d_12">
      <g>
       <use xlink:href="#medeb3176a2" x="55.27375" y="168.87955" style="fill: #b6bccf; stroke: #b6bccf; stroke-width: 1.2"/>
      </g>
     </g>
     <g id="text_7">
      <!-- 0.01 -->
      <g style="fill: #b6bccf" transform="translate(23.781563 173.058691) scale(0.11 -0.11)">
       <use xlink:href="#DejaVuSans-30"/>
       <use xlink:href="#DejaVuSans-2e" x="63.623047"/>
       <use xlink:href="#DejaVuSans-30" x="95.410156"/>
       <use xlink:href="#DejaVuSans-31" x="159.033203"/>
      </g>
     </g>
    </g>
    <g id="ytick_3">
     <g id="line2d_13">
      <path d="M 55.27375 125.349879 
L 256.77375 125.349879 
" clip-path="url(#pc4f20d7152)" style="fill: none; stroke: #b0b0b0; stroke-opacity: 0.2; stroke-width: 0.8; stroke-linecap: square"/>
     </g>
     <g id="line2d_14">
      <g>
       <use xlink:href="#medeb3176a2" x="55.27375" y="125.349879" style="fill: #b6bccf; stroke: #b6bccf; stroke-width: 1.2"/>
      </g>
     </g>
     <g id="text_8">
      <!-- 0.02 -->
      <g style="fill: #b6bccf" transform="translate(23.781563 129.52902) scale(0.11 -0.11)">
       <use xlink:href="#DejaVuSans-30"/>
       <use xlink:href="#DejaVuSans-2e" x="63.623047"/>
       <use xlink:href="#DejaVuSans-30" x="95.410156"/>
       <use xlink:href="#DejaVuSans-32" x="159.033203"/>
      </g>
     </g>
    </g>
    <g id="ytick_4">
     <g id="line2d_15">
      <path d="M 55.27375 81.820208 
L 256.77375 81.820208 
" clip-path="url(#pc4f20d7152)" style="fill: none; stroke: #b0b0b0; stroke-opacity: 0.2; stroke-width: 0.8; stroke-linecap: square"/>
     </g>
     <g id="line2d_16">
      <g>
       <use xlink:href="#medeb3176a2" x="55.27375" y="81.820208" style="fill: #b6bccf; stroke: #b6bccf; stroke-width: 1.2"/>
      </g>
     </g>
     <g id="text_9">
      <!-- 0.03 -->
      <g style="fill: #b6bccf" transform="translate(23.781563 85.999349) scale(0.11 -0.11)">
       <defs>
        <path id="DejaVuSans-33" d="M 2597 2516 
Q 3050 2419 3304 2112 
Q 3559 1806 3559 1356 
Q 3559 666 3084 287 
Q 2609 -91 1734 -91 
Q 1441 -91 1130 -33 
Q 819 25 488 141 
L 488 750 
Q 750 597 1062 519 
Q 1375 441 1716 441 
Q 2309 441 2620 675 
Q 2931 909 2931 1356 
Q 2931 1769 2642 2001 
Q 2353 2234 1838 2234 
L 1294 2234 
L 1294 2753 
L 1863 2753 
Q 2328 2753 2575 2939 
Q 2822 3125 2822 3475 
Q 2822 3834 2567 4026 
Q 2313 4219 1838 4219 
Q 1578 4219 1281 4162 
Q 984 4106 628 3988 
L 628 4550 
Q 988 4650 1302 4700 
Q 1616 4750 1894 4750 
Q 2613 4750 3031 4423 
Q 3450 4097 3450 3541 
Q 3450 3153 3228 2886 
Q 3006 2619 2597 2516 
z
" transform="scale(0.015625)"/>
       </defs>
       <use xlink:href="#DejaVuSans-30"/>
       <use xlink:href="#DejaVuSans-2e" x="63.623047"/>
       <use xlink:href="#DejaVuSans-30" x="95.410156"/>
       <use xlink:href="#DejaVuSans-33" x="159.033203"/>
      </g>
     </g>
    </g>
    <g id="ytick_5">
     <g id="line2d_17">
      <path d="M 55.27375 38.290537 
L 256.77375 38.290537 
" clip-path="url(#pc4f20d7152)" style="fill: none; stroke: #b0b0b0; stroke-opacity: 0.2; stroke-width: 0.8; stroke-linecap: square"/>
     </g>
     <g id="line2d_18">
      <g>
       <use xlink:href="#medeb3176a2" x="55.27375" y="38.290537" style="fill: #b6bccf; stroke: #b6bccf; stroke-width: 1.2"/>
      </g>
     </g>
     <g id="text_10">
      <!-- 0.04 -->
      <g style="fill: #b6bccf" transform="translate(23.781563 42.469678) scale(0.11 -0.11)">
       <defs>
        <path id="DejaVuSans-34" d="M 2419 4116 
L 825 1625 
L 2419 1625 
L 2419 4116 
z
M 2253 4666 
L 3047 4666 
L 3047 1625 
L 3713 1625 
L 3713 1100 
L 3047 1100 
L 3047 0 
L 2419 0 
L 2419 1100 
L 313 1100 
L 313 1709 
L 2253 4666 
z
" transform="scale(0.015625)"/>
       </defs>
       <use xlink:href="#DejaVuSans-30"/>
       <use xlink:href="#DejaVuSans-2e" x="63.623047"/>
       <use xlink:href="#DejaVuSans-30" x="95.410156"/>
       <use xlink:href="#DejaVuSans-34" x="159.033203"/>
      </g>
     </g>
    </g>
    <g id="text_11">
     <!-- Normalized Counts -->
     <g style="fill: #b6bccf" transform="translate(17.077969 182.474766) rotate(-90) scale(0.13 -0.13)">
      <defs>
       <path id="DejaVuSans-4e" d="M 628 4666 
L 1478 4666 
L 3547 763 
L 3547 4666 
L 4159 4666 
L 4159 0 
L 3309 0 
L 1241 3903 
L 1241 0 
L 628 0 
L 628 4666 
z
" transform="scale(0.015625)"/>
       <path id="DejaVuSans-6f" d="M 1959 3097 
Q 1497 3097 1228 2736 
Q 959 2375 959 1747 
Q 959 1119 1226 758 
Q 1494 397 1959 397 
Q 2419 397 2687 759 
Q 2956 1122 2956 1747 
Q 2956 2369 2687 2733 
Q 2419 3097 1959 3097 
z
M 1959 3584 
Q 2709 3584 3137 3096 
Q 3566 2609 3566 1747 
Q 3566 888 3137 398 
Q 2709 -91 1959 -91 
Q 1206 -91 779 398 
Q 353 888 353 1747 
Q 353 2609 779 3096 
Q 1206 3584 1959 3584 
z
" transform="scale(0.015625)"/>
       <path id="DejaVuSans-72" d="M 2631 2963 
Q 2534 3019 2420 3045 
Q 2306 3072 2169 3072 
Q 1681 3072 1420 2755 
Q 1159 2438 1159 1844 
L 1159 0 
L 581 0 
L 581 3500 
L 1159 3500 
L 1159 2956 
Q 1341 3275 1631 3429 
Q 1922 3584 2338 3584 
Q 2397 3584 2469 3576 
Q 2541 3569 2628 3553 
L 2631 2963 
z
" transform="scale(0.015625)"/>
       <path id="DejaVuSans-61" d="M 2194 1759 
Q 1497 1759 1228 1600 
Q 959 1441 959 1056 
Q 959 750 1161 570 
Q 1363 391 1709 391 
Q 2188 391 2477 730 
Q 2766 1069 2766 1631 
L 2766 1759 
L 2194 1759 
z
M 3341 1997 
L 3341 0 
L 2766 0 
L 2766 531 
Q 2569 213 2275 61 
Q 1981 -91 1556 -91 
Q 1019 -91 701 211 
Q 384 513 384 1019 
Q 384 1609 779 1909 
Q 1175 2209 1959 2209 
L 2766 2209 
L 2766 2266 
Q 2766 2663 2505 2880 
Q 2244 3097 1772 3097 
Q 1472 3097 1187 3025 
Q 903 2953 641 2809 
L 641 3341 
Q 956 3463 1253 3523 
Q 1550 3584 1831 3584 
Q 2591 3584 2966 3190 
Q 3341 2797 3341 1997 
z
" transform="scale(0.015625)"/>
       <path id="DejaVuSans-6c" d="M 603 4863 
L 1178 4863 
L 1178 0 
L 603 0 
L 603 4863 
z
" transform="scale(0.015625)"/>
       <path id="DejaVuSans-7a" d="M 353 3500 
L 3084 3500 
L 3084 2975 
L 922 459 
L 3084 459 
L 3084 0 
L 275 0 
L 275 525 
L 2438 3041 
L 353 3041 
L 353 3500 
z
" transform="scale(0.015625)"/>
       <path id="DejaVuSans-64" d="M 2906 2969 
L 2906 4863 
L 3481 4863 
L 3481 0 
L 2906 0 
L 2906 525 
Q 2725 213 2448 61 
Q 2172 -91 1784 -91 
Q 1150 -91 751 415 
Q 353 922 353 1747 
Q 353 2572 751 3078 
Q 1150 3584 1784 3584 
Q 2172 3584 2448 3432 
Q 2725 3281 2906 2969 
z
M 947 1747 
Q 947 1113 1208 752 
Q 1469 391 1925 391 
Q 2381 391 2643 752 
Q 2906 1113 2906 1747 
Q 2906 2381 2643 2742 
Q 2381 3103 1925 3103 
Q 1469 3103 1208 2742 
Q 947 2381 947 1747 
z
" transform="scale(0.015625)"/>
       <path id="DejaVuSans-43" d="M 4122 4306 
L 4122 3641 
Q 3803 3938 3442 4084 
Q 3081 4231 2675 4231 
Q 1875 4231 1450 3742 
Q 1025 3253 1025 2328 
Q 1025 1406 1450 917 
Q 1875 428 2675 428 
Q 3081 428 3442 575 
Q 3803 722 4122 1019 
L 4122 359 
Q 3791 134 3420 21 
Q 3050 -91 2638 -91 
Q 1578 -91 968 557 
Q 359 1206 359 2328 
Q 359 3453 968 4101 
Q 1578 4750 2638 4750 
Q 3056 4750 3426 4639 
Q 3797 4528 4122 4306 
z
" transform="scale(0.015625)"/>
       <path id="DejaVuSans-75" d="M 544 1381 
L 544 3500 
L 1119 3500 
L 1119 1403 
Q 1119 906 1312 657 
Q 1506 409 1894 409 
Q 2359 409 2629 706 
Q 2900 1003 2900 1516 
L 2900 3500 
L 3475 3500 
L 3475 0 
L 2900 0 
L 2900 538 
Q 2691 219 2414 64 
Q 2138 -91 1772 -91 
Q 1169 -91 856 284 
Q 544 659 544 1381 
z
M 1991 3584 
L 1991 3584 
z
" transform="scale(0.015625)"/>
       <path id="DejaVuSans-6e" d="M 3513 2113 
L 3513 0 
L 2938 0 
L 2938 2094 
Q 2938 2591 2744 2837 
Q 2550 3084 2163 3084 
Q 1697 3084 1428 2787 
Q 1159 2491 1159 1978 
L 1159 0 
L 581 0 
L 581 3500 
L 1159 3500 
L 1159 2956 
Q 1366 3272 1645 3428 
Q 1925 3584 2291 3584 
Q 2894 3584 3203 3211 
Q 3513 2838 3513 2113 
z
" transform="scale(0.015625)"/>
       <path id="DejaVuSans-74" d="M 1172 4494 
L 1172 3500 
L 2356 3500 
L 2356 3053 
L 1172 3053 
L 1172 1153 
Q 1172 725 1289 603 
Q 1406 481 1766 481 
L 2356 481 
L 2356 0 
L 1766 0 
Q 1100 0 847 248 
Q 594 497 594 1153 
L 594 3053 
L 172 3053 
L 172 3500 
L 594 3500 
L 594 4494 
L 1172 4494 
z
" transform="scale(0.015625)"/>
      </defs>
      <use xlink:href="#DejaVuSans-4e"/>
      <use xlink:href="#DejaVuSans-6f" x="74.804688"/>
      <use xlink:href="#DejaVuSans-72" x="135.986328"/>
      <use xlink:href="#DejaVuSans-6d" x="175.349609"/>
      <use xlink:href="#DejaVuSans-61" x="272.761719"/>
      <use xlink:href="#DejaVuSans-6c" x="334.041016"/>
      <use xlink:href="#DejaVuSans-69" x="361.824219"/>
      <use xlink:href="#DejaVuSans-7a" x="389.607422"/>
      <use xlink:href="#DejaVuSans-65" x="442.097656"/>
      <use xlink:href="#DejaVuSans-64" x="503.621094"/>
      <use xlink:href="#DejaVuSans-20" x="567.097656"/>
      <use xlink:href="#DejaVuSans-43" x="598.884766"/>
      <use xlink:href="#DejaVuSans-6f" x="668.708984"/>
      <use xlink:href="#DejaVuSans-75" x="729.890625"/>
      <use xlink:href="#DejaVuSans-6e" x="793.269531"/>
      <use xlink:href="#DejaVuSans-74" x="856.648438"/>
      <use xlink:href="#DejaVuSans-73" x="895.857422"/>
     </g>
    </g>
   </g>
   <g id="line2d_19">
    <path d="M -1 212.319213 
L 0.86875 212.330797 
L 6.050179 212.367909 
L 10.080179 212.358806 
L 14.110179 212.363007 
L 30.805893 212.365808 
L 44.047321 212.350403 
L 48.077321 212.265678 
L 52.683036 212.133337 
L 55.561607 211.895264 
L 60.167321 211.61938 
L 61.31875 211.444326 
L 65.924464 210.975183 
L 66.500179 210.854045 
L 67.651607 210.796628 
L 68.803036 210.550853 
L 69.954464 210.187441 
L 71.105893 209.600662 
L 71.681607 209.23585 
L 72.833036 208.116207 
L 73.984464 206.561031 
L 75.135893 204.229318 
L 76.287321 201.00133 
L 76.863036 199.157665 
L 77.43875 196.828752 
L 78.590179 190.956755 
L 79.741607 183.445556 
L 80.317321 179.459236 
L 80.893036 174.592746 
L 82.620179 155.222717 
L 83.771607 138.925929 
L 84.923036 119.888502 
L 88.953036 47.724413 
L 90.104464 34.949002 
L 90.680179 31.599877 
L 91.255893 30.738613 
L 91.831607 32.751029 
L 92.407321 37.340934 
L 92.983036 44.268855 
L 93.55875 52.570596 
L 94.710179 74.044769 
L 97.58875 136.138375 
L 98.740179 156.431987 
L 99.891607 172.814202 
L 101.043036 185.040644 
L 102.194464 193.592362 
L 102.770179 197.106037 
L 103.921607 202.143379 
L 105.073036 205.351061 
L 106.224464 207.572841 
L 107.375893 209.00828 
L 108.527321 209.95427 
L 109.103036 210.319082 
L 111.405893 211.153737 
L 113.133036 211.540956 
L 116.011607 211.872857 
L 132.707321 212.222964 
L 142.494464 212.0108 
L 161.493036 212.323795 
L 169.553036 212.322395 
L 204.671607 212.345502 
L 217.337321 212.358106 
L 221.367321 212.342001 
L 224.245893 212.357406 
L 231.154464 212.346902 
L 234.60875 212.360907 
L 238.063036 212.355305 
L 250.72875 212.367909 
L 255.334464 212.362307 
L 399.263036 212.386114 
L 399.263036 212.386114 
" clip-path="url(#pc4f20d7152)" style="fill: none; stroke: #5386be; stroke-width: 2; stroke-linecap: square"/>
   </g>
   <g id="line2d_20">
    <path d="M -1 212.321643 
L 2.020179 212.351299 
L 14.685893 212.360777 
L 47.501607 212.292323 
L 52.107321 212.144884 
L 57.28875 211.825784 
L 60.167321 211.569521 
L 69.37875 210.541659 
L 71.105893 209.819559 
L 72.257321 208.98723 
L 73.40875 207.595334 
L 73.984464 206.853224 
L 75.135893 204.528601 
L 76.287321 201.467133 
L 77.43875 197.143305 
L 78.590179 191.471112 
L 79.165893 188.140392 
L 80.893036 174.910189 
L 81.46875 169.385435 
L 82.620179 155.619536 
L 83.771607 138.830434 
L 84.923036 119.701262 
L 88.953036 46.280445 
L 89.52875 38.289596 
L 90.104464 33.394267 
L 90.680179 29.644047 
L 91.255893 29.329511 
L 91.831607 31.335034 
L 92.407321 35.695721 
L 93.55875 52.014422 
L 94.710179 74.423763 
L 97.013036 126.245101 
L 98.740179 157.735639 
L 99.891607 173.791758 
L 100.467321 180.410721 
L 101.61875 190.343554 
L 102.770179 197.364464 
L 103.921607 202.383713 
L 105.073036 205.535399 
L 105.64875 206.796004 
L 106.224464 207.706616 
L 107.951607 209.584709 
L 109.67875 210.590104 
L 110.254464 210.833378 
L 114.860179 211.708184 
L 118.314464 211.940927 
L 122.344464 212.055719 
L 127.525893 212.141725 
L 130.404464 212.14348 
L 139.040179 212.066601 
L 140.767321 211.985158 
L 148.827321 212.056772 
L 152.857321 212.209477 
L 163.795893 212.307418 
L 168.977321 212.305312 
L 180.491607 212.317248 
L 186.824464 212.322513 
L 246.123036 212.360777 
L 255.910179 212.363234 
L 282.393036 212.365692 
L 295.05875 212.367447 
L 304.845893 212.366043 
L 399.263036 212.384297 
L 399.263036 212.384297 
" clip-path="url(#pc4f20d7152)" style="fill: none; stroke: #38d7ac; stroke-width: 2; stroke-linecap: square"/>
   </g>
   <g id="line2d_21">
    <path d="M -1 212.30187 
L 1.444464 212.326606 
L 11.231607 212.34691 
L 19.867321 212.362313 
L 29.07875 212.355311 
L 44.047321 212.344109 
L 56.713036 211.947834 
L 63.045893 211.49975 
L 64.773036 211.293211 
L 68.227321 211.085972 
L 71.105893 210.315127 
L 72.257321 209.69621 
L 73.40875 208.646712 
L 73.984464 208.014493 
L 75.135893 206.278866 
L 76.863036 202.226502 
L 78.014464 198.08032 
L 79.165893 192.952553 
L 80.317321 186.259291 
L 80.893036 182.122211 
L 82.044464 172.188038 
L 83.195893 159.263601 
L 84.347321 144.265374 
L 86.074464 117.149961 
L 88.377321 79.243414 
L 88.953036 70.780219 
L 90.104464 58.178543 
L 90.680179 54.031661 
L 91.255893 52.361146 
L 91.831607 52.528477 
L 92.407321 55.340208 
L 93.55875 65.355596 
L 94.710179 82.219675 
L 98.740179 149.375637 
L 99.891607 164.140721 
L 101.043036 175.674696 
L 101.61875 180.387284 
L 102.770179 187.643452 
L 103.921607 193.04287 
L 105.073036 196.771773 
L 105.64875 198.153134 
L 107.375893 200.803833 
L 107.951607 201.509566 
L 109.67875 202.491151 
L 110.830179 202.950438 
L 111.405893 203.01415 
L 111.981607 203.289302 
L 112.557321 203.338311 
L 113.133036 203.665973 
L 116.011607 204.653859 
L 116.587321 205.004625 
L 117.163036 205.087241 
L 121.193036 207.102921 
L 124.647321 208.356857 
L 125.79875 208.515787 
L 126.950179 208.84765 
L 127.525893 208.802842 
L 128.101607 208.979975 
L 128.677321 209.003779 
L 129.82875 209.205417 
L 130.980179 209.174612 
L 131.555893 209.397954 
L 132.131607 209.363647 
L 132.707321 209.546382 
L 133.283036 209.492472 
L 135.010179 209.617095 
L 136.737321 209.657003 
L 137.313036 209.703911 
L 138.464464 209.628997 
L 139.615893 209.626197 
L 140.767321 209.555483 
L 141.343036 209.640199 
L 141.91875 209.532379 
L 144.221607 209.80123 
L 144.797321 209.773224 
L 148.251607 210.521666 
L 149.97875 210.96695 
L 152.857321 211.573964 
L 154.584464 211.779103 
L 158.03875 212.064056 
L 163.220179 212.18938 
L 175.310179 212.282498 
L 183.945893 212.307002 
L 192.581607 212.322405 
L 215.034464 212.34831 
L 228.851607 212.355311 
L 234.033036 212.34621 
L 238.63875 212.360912 
L 281.817321 212.359512 
L 291.604464 212.375615 
L 300.240179 212.359512 
L 314.057321 212.374215 
L 328.450179 212.367214 
L 334.207321 212.372114 
L 340.540179 212.366513 
L 370.477321 212.365813 
L 399.263036 212.364413 
L 399.263036 212.364413 
" clip-path="url(#pc4f20d7152)" style="fill: none; stroke: #bddf26; stroke-width: 2; stroke-linecap: square"/>
   </g>
   <g id="patch_3">
    <path d="M 55.27375 217.877812 
L 55.27375 23.837812 
" style="fill: none; stroke: #b6bccf; stroke-width: 1.2; stroke-linejoin: miter; stroke-linecap: square"/>
   </g>
   <g id="patch_4">
    <path d="M 55.27375 217.877812 
L 256.77375 217.877812 
" style="fill: none; stroke: #b6bccf; stroke-width: 1.2; stroke-linejoin: miter; stroke-linecap: square"/>
   </g>
   <g id="text_12">
    <!-- 4.41 MHz -->
    <g style="fill: #b6bccf" transform="translate(123.235313 17.837812) scale(0.14 -0.14)">
     <defs>
      <path id="DejaVuSans-4d" d="M 628 4666 
L 1569 4666 
L 2759 1491 
L 3956 4666 
L 4897 4666 
L 4897 0 
L 4281 0 
L 4281 4097 
L 3078 897 
L 2444 897 
L 1241 4097 
L 1241 0 
L 628 0 
L 628 4666 
z
" transform="scale(0.015625)"/>
      <path id="DejaVuSans-48" d="M 628 4666 
L 1259 4666 
L 1259 2753 
L 3553 2753 
L 3553 4666 
L 4184 4666 
L 4184 0 
L 3553 0 
L 3553 2222 
L 1259 2222 
L 1259 0 
L 628 0 
L 628 4666 
z
" transform="scale(0.015625)"/>
     </defs>
     <use xlink:href="#DejaVuSans-34"/>
     <use xlink:href="#DejaVuSans-2e" x="63.623047"/>
     <use xlink:href="#DejaVuSans-34" x="95.410156"/>
     <use xlink:href="#DejaVuSans-31" x="159.033203"/>
     <use xlink:href="#DejaVuSans-20" x="222.65625"/>
     <use xlink:href="#DejaVuSans-4d" x="254.443359"/>
     <use xlink:href="#DejaVuSans-48" x="340.722656"/>
     <use xlink:href="#DejaVuSans-7a" x="415.917969"/>
    </g>
   </g>
   <g id="legend_1">
    <g id="line2d_22">
     <path d="M 136.291875 39.555938 
L 148.291875 39.555938 
L 160.291875 39.555938 
" style="fill: none; stroke: #5386be; stroke-width: 2; stroke-linecap: square"/>
    </g>
    <g id="text_13">
     <!-- 2d corrected -->
     <g style="fill: #b6bccf" transform="translate(169.891875 43.755938) scale(0.12 -0.12)">
      <defs>
       <path id="DejaVuSans-63" d="M 3122 3366 
L 3122 2828 
Q 2878 2963 2633 3030 
Q 2388 3097 2138 3097 
Q 1578 3097 1268 2742 
Q 959 2388 959 1747 
Q 959 1106 1268 751 
Q 1578 397 2138 397 
Q 2388 397 2633 464 
Q 2878 531 3122 666 
L 3122 134 
Q 2881 22 2623 -34 
Q 2366 -91 2075 -91 
Q 1284 -91 818 406 
Q 353 903 353 1747 
Q 353 2603 823 3093 
Q 1294 3584 2113 3584 
Q 2378 3584 2631 3529 
Q 2884 3475 3122 3366 
z
" transform="scale(0.015625)"/>
      </defs>
      <use xlink:href="#DejaVuSans-32"/>
      <use xlink:href="#DejaVuSans-64" x="63.623047"/>
      <use xlink:href="#DejaVuSans-20" x="127.099609"/>
      <use xlink:href="#DejaVuSans-63" x="158.886719"/>
      <use xlink:href="#DejaVuSans-6f" x="213.867188"/>
      <use xlink:href="#DejaVuSans-72" x="275.048828"/>
      <use xlink:href="#DejaVuSans-72" x="314.412109"/>
      <use xlink:href="#DejaVuSans-65" x="353.275391"/>
      <use xlink:href="#DejaVuSans-63" x="414.798828"/>
      <use xlink:href="#DejaVuSans-74" x="469.779297"/>
      <use xlink:href="#DejaVuSans-65" x="508.988281"/>
      <use xlink:href="#DejaVuSans-64" x="570.511719"/>
     </g>
    </g>
    <g id="line2d_23">
     <path d="M 136.291875 57.169688 
L 148.291875 57.169688 
L 160.291875 57.169688 
" style="fill: none; stroke: #38d7ac; stroke-width: 2; stroke-linecap: square"/>
    </g>
    <g id="text_14">
     <!-- 1d corrected -->
     <g style="fill: #b6bccf" transform="translate(169.891875 61.369688) scale(0.12 -0.12)">
      <use xlink:href="#DejaVuSans-31"/>
      <use xlink:href="#DejaVuSans-64" x="63.623047"/>
      <use xlink:href="#DejaVuSans-20" x="127.099609"/>
      <use xlink:href="#DejaVuSans-63" x="158.886719"/>
      <use xlink:href="#DejaVuSans-6f" x="213.867188"/>
      <use xlink:href="#DejaVuSans-72" x="275.048828"/>
      <use xlink:href="#DejaVuSans-72" x="314.412109"/>
      <use xlink:href="#DejaVuSans-65" x="353.275391"/>
      <use xlink:href="#DejaVuSans-63" x="414.798828"/>
      <use xlink:href="#DejaVuSans-74" x="469.779297"/>
      <use xlink:href="#DejaVuSans-65" x="508.988281"/>
      <use xlink:href="#DejaVuSans-64" x="570.511719"/>
     </g>
    </g>
    <g id="line2d_24">
     <path d="M 136.291875 74.783438 
L 148.291875 74.783438 
L 160.291875 74.783438 
" style="fill: none; stroke: #bddf26; stroke-width: 2; stroke-linecap: square"/>
    </g>
    <g id="text_15">
     <!-- uncorrected -->
     <g style="fill: #b6bccf" transform="translate(169.891875 78.983438) scale(0.12 -0.12)">
      <use xlink:href="#DejaVuSans-75"/>
      <use xlink:href="#DejaVuSans-6e" x="63.378906"/>
      <use xlink:href="#DejaVuSans-63" x="126.757812"/>
      <use xlink:href="#DejaVuSans-6f" x="181.738281"/>
      <use xlink:href="#DejaVuSans-72" x="242.919922"/>
      <use xlink:href="#DejaVuSans-72" x="282.283203"/>
      <use xlink:href="#DejaVuSans-65" x="321.146484"/>
      <use xlink:href="#DejaVuSans-63" x="382.669922"/>
      <use xlink:href="#DejaVuSans-74" x="437.650391"/>
      <use xlink:href="#DejaVuSans-65" x="476.859375"/>
      <use xlink:href="#DejaVuSans-64" x="538.382812"/>
     </g>
    </g>
   </g>
  </g>
  <g id="axes_2">
   <g id="patch_5">
    <path d="M 317.22375 217.877812 
L 518.72375 217.877812 
L 518.72375 23.837812 
L 317.22375 23.837812 
z
" style="fill: #a3a3ff; fill-opacity: 0.04"/>
   </g>
   <g id="matplotlib.axis_3">
    <g id="xtick_5">
     <g id="line2d_25">
      <path d="M 317.22375 217.877812 
L 317.22375 23.837812 
" clip-path="url(#p0e2e8bda14)" style="fill: none; stroke: #b0b0b0; stroke-opacity: 0.2; stroke-width: 0.8; stroke-linecap: square"/>
     </g>
     <g id="line2d_26">
      <g>
       <use xlink:href="#m30232a2a14" x="317.22375" y="217.877812" style="fill: #b6bccf; stroke: #b6bccf; stroke-width: 1.2"/>
      </g>
     </g>
     <g id="text_16">
      <!-- −100 -->
      <g style="fill: #b6bccf" transform="translate(302.116797 233.236094) scale(0.11 -0.11)">
       <use xlink:href="#DejaVuSans-2212"/>
       <use xlink:href="#DejaVuSans-31" x="83.789062"/>
       <use xlink:href="#DejaVuSans-30" x="147.412109"/>
       <use xlink:href="#DejaVuSans-30" x="211.035156"/>
      </g>
     </g>
    </g>
    <g id="xtick_6">
     <g id="line2d_27">
      <path d="M 374.795179 217.877812 
L 374.795179 23.837812 
" clip-path="url(#p0e2e8bda14)" style="fill: none; stroke: #b0b0b0; stroke-opacity: 0.2; stroke-width: 0.8; stroke-linecap: square"/>
     </g>
     <g id="line2d_28">
      <g>
       <use xlink:href="#m30232a2a14" x="374.795179" y="217.877812" style="fill: #b6bccf; stroke: #b6bccf; stroke-width: 1.2"/>
      </g>
     </g>
     <g id="text_17">
      <!-- 0 -->
      <g style="fill: #b6bccf" transform="translate(371.295804 233.236094) scale(0.11 -0.11)">
       <use xlink:href="#DejaVuSans-30"/>
      </g>
     </g>
    </g>
    <g id="xtick_7">
     <g id="line2d_29">
      <path d="M 432.366607 217.877812 
L 432.366607 23.837812 
" clip-path="url(#p0e2e8bda14)" style="fill: none; stroke: #b0b0b0; stroke-opacity: 0.2; stroke-width: 0.8; stroke-linecap: square"/>
     </g>
     <g id="line2d_30">
      <g>
       <use xlink:href="#m30232a2a14" x="432.366607" y="217.877812" style="fill: #b6bccf; stroke: #b6bccf; stroke-width: 1.2"/>
      </g>
     </g>
     <g id="text_18">
      <!-- 100 -->
      <g style="fill: #b6bccf" transform="translate(421.868482 233.236094) scale(0.11 -0.11)">
       <use xlink:href="#DejaVuSans-31"/>
       <use xlink:href="#DejaVuSans-30" x="63.623047"/>
       <use xlink:href="#DejaVuSans-30" x="127.246094"/>
      </g>
     </g>
    </g>
    <g id="xtick_8">
     <g id="line2d_31">
      <path d="M 489.938036 217.877812 
L 489.938036 23.837812 
" clip-path="url(#p0e2e8bda14)" style="fill: none; stroke: #b0b0b0; stroke-opacity: 0.2; stroke-width: 0.8; stroke-linecap: square"/>
     </g>
     <g id="line2d_32">
      <g>
       <use xlink:href="#m30232a2a14" x="489.938036" y="217.877812" style="fill: #b6bccf; stroke: #b6bccf; stroke-width: 1.2"/>
      </g>
     </g>
     <g id="text_19">
      <!-- 200 -->
      <g style="fill: #b6bccf" transform="translate(479.439911 233.236094) scale(0.11 -0.11)">
       <use xlink:href="#DejaVuSans-32"/>
       <use xlink:href="#DejaVuSans-30" x="63.623047"/>
       <use xlink:href="#DejaVuSans-30" x="127.246094"/>
      </g>
     </g>
    </g>
    <g id="text_20">
     <!-- Time (ps) -->
     <g style="fill: #b6bccf" transform="translate(387.419688 249.401719) scale(0.13 -0.13)">
      <use xlink:href="#DejaVuSans-54"/>
      <use xlink:href="#DejaVuSans-69" x="57.958984"/>
      <use xlink:href="#DejaVuSans-6d" x="85.742188"/>
      <use xlink:href="#DejaVuSans-65" x="183.154297"/>
      <use xlink:href="#DejaVuSans-20" x="244.677734"/>
      <use xlink:href="#DejaVuSans-28" x="276.464844"/>
      <use xlink:href="#DejaVuSans-70" x="315.478516"/>
      <use xlink:href="#DejaVuSans-73" x="378.955078"/>
      <use xlink:href="#DejaVuSans-29" x="431.054688"/>
     </g>
    </g>
   </g>
   <g id="matplotlib.axis_4">
    <g id="ytick_6">
     <g id="line2d_33">
      <path d="M 317.22375 212.396799 
L 518.72375 212.396799 
" clip-path="url(#p0e2e8bda14)" style="fill: none; stroke: #b0b0b0; stroke-opacity: 0.2; stroke-width: 0.8; stroke-linecap: square"/>
     </g>
     <g id="line2d_34">
      <g>
       <use xlink:href="#medeb3176a2" x="317.22375" y="212.396799" style="fill: #b6bccf; stroke: #b6bccf; stroke-width: 1.2"/>
      </g>
     </g>
     <g id="text_21">
      <!-- 0.000 -->
      <g style="fill: #b6bccf" transform="translate(278.732813 216.575939) scale(0.11 -0.11)">
       <use xlink:href="#DejaVuSans-30"/>
       <use xlink:href="#DejaVuSans-2e" x="63.623047"/>
       <use xlink:href="#DejaVuSans-30" x="95.410156"/>
       <use xlink:href="#DejaVuSans-30" x="159.033203"/>
       <use xlink:href="#DejaVuSans-30" x="222.65625"/>
      </g>
     </g>
    </g>
    <g id="ytick_7">
     <g id="line2d_35">
      <path d="M 317.22375 187.2849 
L 518.72375 187.2849 
" clip-path="url(#p0e2e8bda14)" style="fill: none; stroke: #b0b0b0; stroke-opacity: 0.2; stroke-width: 0.8; stroke-linecap: square"/>
     </g>
     <g id="line2d_36">
      <g>
       <use xlink:href="#medeb3176a2" x="317.22375" y="187.2849" style="fill: #b6bccf; stroke: #b6bccf; stroke-width: 1.2"/>
      </g>
     </g>
     <g id="text_22">
      <!-- 0.005 -->
      <g style="fill: #b6bccf" transform="translate(278.732813 191.46404) scale(0.11 -0.11)">
       <defs>
        <path id="DejaVuSans-35" d="M 691 4666 
L 3169 4666 
L 3169 4134 
L 1269 4134 
L 1269 2991 
Q 1406 3038 1543 3061 
Q 1681 3084 1819 3084 
Q 2600 3084 3056 2656 
Q 3513 2228 3513 1497 
Q 3513 744 3044 326 
Q 2575 -91 1722 -91 
Q 1428 -91 1123 -41 
Q 819 9 494 109 
L 494 744 
Q 775 591 1075 516 
Q 1375 441 1709 441 
Q 2250 441 2565 725 
Q 2881 1009 2881 1497 
Q 2881 1984 2565 2268 
Q 2250 2553 1709 2553 
Q 1456 2553 1204 2497 
Q 953 2441 691 2322 
L 691 4666 
z
" transform="scale(0.015625)"/>
       </defs>
       <use xlink:href="#DejaVuSans-30"/>
       <use xlink:href="#DejaVuSans-2e" x="63.623047"/>
       <use xlink:href="#DejaVuSans-30" x="95.410156"/>
       <use xlink:href="#DejaVuSans-30" x="159.033203"/>
       <use xlink:href="#DejaVuSans-35" x="222.65625"/>
      </g>
     </g>
    </g>
    <g id="ytick_8">
     <g id="line2d_37">
      <path d="M 317.22375 162.173 
L 518.72375 162.173 
" clip-path="url(#p0e2e8bda14)" style="fill: none; stroke: #b0b0b0; stroke-opacity: 0.2; stroke-width: 0.8; stroke-linecap: square"/>
     </g>
     <g id="line2d_38">
      <g>
       <use xlink:href="#medeb3176a2" x="317.22375" y="162.173" style="fill: #b6bccf; stroke: #b6bccf; stroke-width: 1.2"/>
      </g>
     </g>
     <g id="text_23">
      <!-- 0.010 -->
      <g style="fill: #b6bccf" transform="translate(278.732813 166.352141) scale(0.11 -0.11)">
       <use xlink:href="#DejaVuSans-30"/>
       <use xlink:href="#DejaVuSans-2e" x="63.623047"/>
       <use xlink:href="#DejaVuSans-30" x="95.410156"/>
       <use xlink:href="#DejaVuSans-31" x="159.033203"/>
       <use xlink:href="#DejaVuSans-30" x="222.65625"/>
      </g>
     </g>
    </g>
    <g id="ytick_9">
     <g id="line2d_39">
      <path d="M 317.22375 137.061101 
L 518.72375 137.061101 
" clip-path="url(#p0e2e8bda14)" style="fill: none; stroke: #b0b0b0; stroke-opacity: 0.2; stroke-width: 0.8; stroke-linecap: square"/>
     </g>
     <g id="line2d_40">
      <g>
       <use xlink:href="#medeb3176a2" x="317.22375" y="137.061101" style="fill: #b6bccf; stroke: #b6bccf; stroke-width: 1.2"/>
      </g>
     </g>
     <g id="text_24">
      <!-- 0.015 -->
      <g style="fill: #b6bccf" transform="translate(278.732813 141.240242) scale(0.11 -0.11)">
       <use xlink:href="#DejaVuSans-30"/>
       <use xlink:href="#DejaVuSans-2e" x="63.623047"/>
       <use xlink:href="#DejaVuSans-30" x="95.410156"/>
       <use xlink:href="#DejaVuSans-31" x="159.033203"/>
       <use xlink:href="#DejaVuSans-35" x="222.65625"/>
      </g>
     </g>
    </g>
    <g id="ytick_10">
     <g id="line2d_41">
      <path d="M 317.22375 111.949202 
L 518.72375 111.949202 
" clip-path="url(#p0e2e8bda14)" style="fill: none; stroke: #b0b0b0; stroke-opacity: 0.2; stroke-width: 0.8; stroke-linecap: square"/>
     </g>
     <g id="line2d_42">
      <g>
       <use xlink:href="#medeb3176a2" x="317.22375" y="111.949202" style="fill: #b6bccf; stroke: #b6bccf; stroke-width: 1.2"/>
      </g>
     </g>
     <g id="text_25">
      <!-- 0.020 -->
      <g style="fill: #b6bccf" transform="translate(278.732813 116.128343) scale(0.11 -0.11)">
       <use xlink:href="#DejaVuSans-30"/>
       <use xlink:href="#DejaVuSans-2e" x="63.623047"/>
       <use xlink:href="#DejaVuSans-30" x="95.410156"/>
       <use xlink:href="#DejaVuSans-32" x="159.033203"/>
       <use xlink:href="#DejaVuSans-30" x="222.65625"/>
      </g>
     </g>
    </g>
    <g id="ytick_11">
     <g id="line2d_43">
      <path d="M 317.22375 86.837303 
L 518.72375 86.837303 
" clip-path="url(#p0e2e8bda14)" style="fill: none; stroke: #b0b0b0; stroke-opacity: 0.2; stroke-width: 0.8; stroke-linecap: square"/>
     </g>
     <g id="line2d_44">
      <g>
       <use xlink:href="#medeb3176a2" x="317.22375" y="86.837303" style="fill: #b6bccf; stroke: #b6bccf; stroke-width: 1.2"/>
      </g>
     </g>
     <g id="text_26">
      <!-- 0.025 -->
      <g style="fill: #b6bccf" transform="translate(278.732813 91.016443) scale(0.11 -0.11)">
       <use xlink:href="#DejaVuSans-30"/>
       <use xlink:href="#DejaVuSans-2e" x="63.623047"/>
       <use xlink:href="#DejaVuSans-30" x="95.410156"/>
       <use xlink:href="#DejaVuSans-32" x="159.033203"/>
       <use xlink:href="#DejaVuSans-35" x="222.65625"/>
      </g>
     </g>
    </g>
    <g id="ytick_12">
     <g id="line2d_45">
      <path d="M 317.22375 61.725403 
L 518.72375 61.725403 
" clip-path="url(#p0e2e8bda14)" style="fill: none; stroke: #b0b0b0; stroke-opacity: 0.2; stroke-width: 0.8; stroke-linecap: square"/>
     </g>
     <g id="line2d_46">
      <g>
       <use xlink:href="#medeb3176a2" x="317.22375" y="61.725403" style="fill: #b6bccf; stroke: #b6bccf; stroke-width: 1.2"/>
      </g>
     </g>
     <g id="text_27">
      <!-- 0.030 -->
      <g style="fill: #b6bccf" transform="translate(278.732813 65.904544) scale(0.11 -0.11)">
       <use xlink:href="#DejaVuSans-30"/>
       <use xlink:href="#DejaVuSans-2e" x="63.623047"/>
       <use xlink:href="#DejaVuSans-30" x="95.410156"/>
       <use xlink:href="#DejaVuSans-33" x="159.033203"/>
       <use xlink:href="#DejaVuSans-30" x="222.65625"/>
      </g>
     </g>
    </g>
    <g id="ytick_13">
     <g id="line2d_47">
      <path d="M 317.22375 36.613504 
L 518.72375 36.613504 
" clip-path="url(#p0e2e8bda14)" style="fill: none; stroke: #b0b0b0; stroke-opacity: 0.2; stroke-width: 0.8; stroke-linecap: square"/>
     </g>
     <g id="line2d_48">
      <g>
       <use xlink:href="#medeb3176a2" x="317.22375" y="36.613504" style="fill: #b6bccf; stroke: #b6bccf; stroke-width: 1.2"/>
      </g>
     </g>
     <g id="text_28">
      <!-- 0.035 -->
      <g style="fill: #b6bccf" transform="translate(278.732813 40.792645) scale(0.11 -0.11)">
       <use xlink:href="#DejaVuSans-30"/>
       <use xlink:href="#DejaVuSans-2e" x="63.623047"/>
       <use xlink:href="#DejaVuSans-30" x="95.410156"/>
       <use xlink:href="#DejaVuSans-33" x="159.033203"/>
       <use xlink:href="#DejaVuSans-35" x="222.65625"/>
      </g>
     </g>
    </g>
    <g id="text_29">
     <!-- Normalized Counts -->
     <g style="fill: #b6bccf" transform="translate(272.029219 182.474766) rotate(-90) scale(0.13 -0.13)">
      <use xlink:href="#DejaVuSans-4e"/>
      <use xlink:href="#DejaVuSans-6f" x="74.804688"/>
      <use xlink:href="#DejaVuSans-72" x="135.986328"/>
      <use xlink:href="#DejaVuSans-6d" x="175.349609"/>
      <use xlink:href="#DejaVuSans-61" x="272.761719"/>
      <use xlink:href="#DejaVuSans-6c" x="334.041016"/>
      <use xlink:href="#DejaVuSans-69" x="361.824219"/>
      <use xlink:href="#DejaVuSans-7a" x="389.607422"/>
      <use xlink:href="#DejaVuSans-65" x="442.097656"/>
      <use xlink:href="#DejaVuSans-64" x="503.621094"/>
      <use xlink:href="#DejaVuSans-20" x="567.097656"/>
      <use xlink:href="#DejaVuSans-43" x="598.884766"/>
      <use xlink:href="#DejaVuSans-6f" x="668.708984"/>
      <use xlink:href="#DejaVuSans-75" x="729.890625"/>
      <use xlink:href="#DejaVuSans-6e" x="793.269531"/>
      <use xlink:href="#DejaVuSans-74" x="856.648438"/>
      <use xlink:href="#DejaVuSans-73" x="895.857422"/>
     </g>
    </g>
   </g>
   <g id="line2d_49">
    <path d="M 87.801607 212.349952 
L 91.255893 212.327761 
L 102.770179 212.324474 
L 107.951607 212.347486 
L 110.830179 212.330227 
L 117.73875 212.32694 
L 140.191607 212.340911 
L 162.06875 212.323652 
L 173.007321 212.304749 
L 174.734464 212.315433 
L 182.21875 212.316255 
L 200.641607 212.318721 
L 228.851607 212.294065 
L 236.911607 212.285024 
L 239.790179 212.304749 
L 242.093036 212.259546 
L 245.547321 212.252971 
L 250.153036 212.190509 
L 261.091607 212.085309 
L 262.81875 212.101746 
L 273.757321 212.265299 
L 276.060179 212.269408 
L 284.120179 212.260368 
L 300.240179 212.206946 
L 302.543036 212.188043 
L 320.965893 211.889703 
L 326.723036 211.301242 
L 329.601607 210.730862 
L 330.753036 210.494163 
L 338.813036 208.629333 
L 339.964464 208.639195 
L 342.267321 207.939781 
L 343.41875 207.41707 
L 343.994464 206.692178 
L 344.570179 206.272201 
L 345.145893 205.597443 
L 346.297321 203.585498 
L 348.024464 199.075881 
L 349.175893 194.105192 
L 350.327321 188.389065 
L 350.903036 184.790083 
L 352.054464 175.407581 
L 352.630179 170.674414 
L 354.357321 151.047264 
L 356.084464 125.999039 
L 360.114464 57.587149 
L 361.265893 43.911182 
L 361.841607 37.314007 
L 362.417321 32.63344 
L 362.993036 30.692998 
L 363.56875 29.329511 
L 364.144464 32.20771 
L 365.295893 40.620402 
L 365.871607 47.552901 
L 367.023036 65.785333 
L 368.750179 97.688801 
L 370.477321 130.479891 
L 372.204464 157.106934 
L 373.355893 170.869198 
L 374.507321 181.81819 
L 375.65875 189.685159 
L 376.810179 195.913313 
L 378.537321 201.868605 
L 379.68875 204.358059 
L 380.264464 205.313075 
L 381.991607 207.536242 
L 384.870179 209.419153 
L 386.021607 209.980492 
L 388.900179 210.764559 
L 391.203036 211.082624 
L 392.930179 211.331651 
L 397.535893 211.676016 
L 398.687321 211.714644 
L 406.747321 211.902853 
L 409.625893 211.872444 
L 415.95875 211.787791 
L 417.110179 211.815734 
L 422.867321 212.032709 
L 424.594464 212.063118 
L 428.624464 212.171606 
L 438.411607 212.251327 
L 441.865893 212.253793 
L 451.077321 212.276805 
L 452.804464 212.262833 
L 511.527321 212.344199 
L 514.405893 212.329405 
L 527.647321 212.340911 
L 530.525893 212.340089 
L 535.131607 212.331871 
L 543.767321 212.33598 
L 551.827321 212.329405 
L 569.09875 212.345843 
L 573.12875 212.333515 
L 661.213036 212.382005 
L 661.213036 212.382005 
" clip-path="url(#p0e2e8bda14)" style="fill: none; stroke: #5386be; stroke-width: 2; stroke-linecap: square"/>
   </g>
   <g id="line2d_50">
    <path d="M 87.801607 212.338278 
L 122.344464 212.32902 
L 136.737321 212.335302 
L 178.764464 212.321747 
L 197.187321 212.310836 
L 209.277321 212.312158 
L 227.124464 212.305215 
L 234.60875 212.288023 
L 246.123036 212.245372 
L 250.72875 212.179577 
L 261.667321 212.067826 
L 288.725893 212.199746 
L 291.604464 212.182553 
L 296.785893 212.145853 
L 299.664464 212.164369 
L 304.270179 212.130975 
L 307.14875 212.120726 
L 310.603036 212.116428 
L 319.23875 211.998725 
L 321.541607 211.877054 
L 323.844464 211.772246 
L 330.177321 210.797891 
L 334.783036 209.554075 
L 337.661607 208.795618 
L 342.267321 208.011373 
L 343.41875 207.582882 
L 345.721607 205.775679 
L 346.873036 204.030634 
L 347.44875 202.963703 
L 348.600179 200.13718 
L 349.751607 196.225211 
L 350.327321 193.814285 
L 351.47875 187.661332 
L 352.630179 179.901867 
L 353.781607 170.045239 
L 354.933036 157.914896 
L 356.084464 143.373626 
L 357.811607 118.422261 
L 361.265893 67.886711 
L 361.841607 61.148881 
L 362.417321 56.087325 
L 362.993036 52.191226 
L 363.56875 49.678467 
L 364.144464 48.536815 
L 364.720179 49.133595 
L 365.295893 51.501209 
L 365.871607 55.445249 
L 366.447321 60.834125 
L 367.59875 74.917146 
L 368.750179 91.517225 
L 371.62875 135.381069 
L 372.780179 150.219902 
L 373.931607 163.203922 
L 375.65875 177.951172 
L 376.810179 185.024258 
L 377.385893 188.221082 
L 379.113036 194.964864 
L 380.264464 198.217234 
L 381.415893 200.626507 
L 382.567321 202.411888 
L 383.143036 203.223576 
L 384.870179 204.995732 
L 387.173036 206.413788 
L 389.475893 207.399384 
L 395.233036 208.605178 
L 395.80875 208.641216 
L 396.960179 208.834963 
L 401.565893 209.281308 
L 402.141607 209.424139 
L 403.293036 209.460838 
L 405.020179 209.620861 
L 406.747321 209.792456 
L 407.323036 209.751459 
L 408.474464 209.882717 
L 417.110179 210.173999 
L 419.413036 210.333361 
L 420.564464 210.418332 
L 422.867321 210.602821 
L 426.321607 210.801527 
L 428.624464 211.049828 
L 429.775893 211.031643 
L 432.654464 211.197618 
L 433.805893 211.23564 
L 436.684464 211.361278 
L 441.865893 211.537501 
L 444.16875 211.639004 
L 452.22875 211.873748 
L 458.561607 212.029142 
L 476.40875 212.264879 
L 480.43875 212.273806 
L 486.771607 212.303893 
L 492.52875 212.300917 
L 500.58875 212.31811 
L 507.497321 212.316126 
L 519.587321 212.325383 
L 574.280179 212.33431 
L 580.613036 212.336955 
L 612.277321 212.337947 
L 627.821607 212.344229 
L 635.305893 212.339931 
L 661.213036 212.383574 
L 661.213036 212.383574 
" clip-path="url(#p0e2e8bda14)" style="fill: none; stroke: #38d7ac; stroke-width: 2; stroke-linecap: square"/>
   </g>
   <g id="line2d_51">
    <path d="M 87.801607 212.345037 
L 90.680179 212.329427 
L 93.55875 212.340929 
L 100.467321 212.333535 
L 110.254464 212.337643 
L 130.404464 212.331891 
L 140.191607 212.344216 
L 143.070179 212.33107 
L 155.735893 212.326962 
L 158.03875 212.342572 
L 162.06875 212.340929 
L 168.977321 212.339286 
L 174.15875 212.320389 
L 186.824464 212.314638 
L 202.36875 212.323675 
L 209.277321 212.330248 
L 287.574464 212.215222 
L 292.755893 212.216866 
L 294.483036 212.196325 
L 296.785893 212.197969 
L 301.967321 212.156066 
L 306.573036 212.17332 
L 309.451607 212.156066 
L 314.057321 212.124024 
L 316.935893 212.10677 
L 322.693036 212.053365 
L 328.450179 211.810168 
L 329.601607 211.69925 
L 330.177321 211.682818 
L 330.753036 211.552182 
L 331.904464 211.497134 
L 339.38875 210.299223 
L 340.540179 210.249105 
L 341.691607 210.132436 
L 342.267321 210.224457 
L 342.843036 209.999335 
L 343.994464 209.888417 
L 346.297321 209.003541 
L 346.873036 208.678183 
L 348.024464 207.619947 
L 348.600179 206.97909 
L 349.751607 205.158398 
L 350.327321 203.981849 
L 351.47875 200.943528 
L 352.630179 197.013758 
L 353.205893 194.718175 
L 354.933036 185.655795 
L 356.084464 177.746137 
L 357.235893 168.47096 
L 361.841607 125.552417 
L 362.993036 116.742272 
L 363.56875 112.790319 
L 364.720179 109.402813 
L 365.295893 109.127573 
L 365.871607 107.871328 
L 367.023036 110.917865 
L 368.174464 116.446492 
L 368.750179 120.055012 
L 369.325893 122.918329 
L 372.204464 144.159463 
L 374.507321 158.36349 
L 375.083036 161.30486 
L 377.385893 169.588352 
L 377.961607 170.313014 
L 379.113036 172.379368 
L 379.68875 173.264244 
L 380.264464 172.77785 
L 380.840179 173.65451 
L 381.415893 174.011911 
L 381.991607 173.887026 
L 382.567321 174.178698 
L 383.143036 174.325766 
L 383.71875 174.354523 
L 384.294464 174.858993 
L 384.870179 175.116157 
L 385.445893 175.109584 
L 387.173036 177.180868 
L 389.475893 180.919202 
L 390.051607 182.17216 
L 390.627321 183.018421 
L 394.081607 189.936393 
L 396.960179 194.135652 
L 397.535893 194.454437 
L 398.111607 195.200461 
L 398.687321 195.356567 
L 399.263036 195.961274 
L 399.83875 196.321961 
L 400.990179 196.635817 
L 402.717321 197.324328 
L 403.293036 197.385949 
L 403.86875 197.579849 
L 404.444464 197.895348 
L 405.020179 198.060492 
L 406.171607 198.150869 
L 406.747321 198.504163 
L 408.474464 198.730927 
L 409.050179 199.115442 
L 410.777321 199.095723 
L 411.353036 199.344672 
L 411.92875 199.458054 
L 412.504464 199.434227 
L 413.655893 199.900903 
L 414.231607 199.708646 
L 414.807321 199.819563 
L 415.383036 199.651954 
L 416.534464 200.044685 
L 417.110179 200.059474 
L 417.685893 200.361827 
L 418.261607 200.430842 
L 419.413036 200.768525 
L 419.98875 200.914772 
L 420.564464 201.484971 
L 421.715893 201.96397 
L 423.443036 203.275263 
L 424.594464 204.315424 
L 425.170179 204.465779 
L 426.897321 205.909351 
L 429.200179 207.288016 
L 429.775893 207.464662 
L 430.927321 208.077585 
L 432.07875 208.49332 
L 432.654464 208.789922 
L 433.805893 209.149788 
L 434.381607 209.160469 
L 436.684464 209.720809 
L 438.987321 210.179268 
L 440.714464 210.457795 
L 442.441607 210.664841 
L 452.22875 211.617089 
L 453.380179 211.635986 
L 453.955893 211.626948 
L 455.107321 211.756763 
L 459.137321 211.893972 
L 460.864464 211.962166 
L 462.591607 212.00982 
L 473.530179 212.211114 
L 475.257321 212.211114 
L 479.863036 212.216866 
L 482.165893 212.265341 
L 487.347321 212.278487 
L 604.217321 212.343394 
L 607.671607 212.32121 
L 635.881607 212.337643 
L 643.941607 212.331891 
L 661.213036 212.343394 
L 661.213036 212.343394 
" clip-path="url(#p0e2e8bda14)" style="fill: none; stroke: #bddf26; stroke-width: 2; stroke-linecap: square"/>
   </g>
   <g id="patch_6">
    <path d="M 317.22375 217.877812 
L 317.22375 23.837813 
" style="fill: none; stroke: #b6bccf; stroke-width: 1.2; stroke-linejoin: miter; stroke-linecap: square"/>
   </g>
   <g id="patch_7">
    <path d="M 317.22375 217.877812 
L 518.72375 217.877812 
" style="fill: none; stroke: #b6bccf; stroke-width: 1.2; stroke-linejoin: miter; stroke-linecap: square"/>
   </g>
   <g id="text_30">
    <!-- 19.79 MHz -->
    <g style="fill: #b6bccf" transform="translate(380.731563 17.837812) scale(0.14 -0.14)">
     <defs>
      <path id="DejaVuSans-39" d="M 703 97 
L 703 672 
Q 941 559 1184 500 
Q 1428 441 1663 441 
Q 2288 441 2617 861 
Q 2947 1281 2994 2138 
Q 2813 1869 2534 1725 
Q 2256 1581 1919 1581 
Q 1219 1581 811 2004 
Q 403 2428 403 3163 
Q 403 3881 828 4315 
Q 1253 4750 1959 4750 
Q 2769 4750 3195 4129 
Q 3622 3509 3622 2328 
Q 3622 1225 3098 567 
Q 2575 -91 1691 -91 
Q 1453 -91 1209 -44 
Q 966 3 703 97 
z
M 1959 2075 
Q 2384 2075 2632 2365 
Q 2881 2656 2881 3163 
Q 2881 3666 2632 3958 
Q 2384 4250 1959 4250 
Q 1534 4250 1286 3958 
Q 1038 3666 1038 3163 
Q 1038 2656 1286 2365 
Q 1534 2075 1959 2075 
z
" transform="scale(0.015625)"/>
      <path id="DejaVuSans-37" d="M 525 4666 
L 3525 4666 
L 3525 4397 
L 1831 0 
L 1172 0 
L 2766 4134 
L 525 4134 
L 525 4666 
z
" transform="scale(0.015625)"/>
     </defs>
     <use xlink:href="#DejaVuSans-31"/>
     <use xlink:href="#DejaVuSans-39" x="63.623047"/>
     <use xlink:href="#DejaVuSans-2e" x="127.246094"/>
     <use xlink:href="#DejaVuSans-37" x="159.033203"/>
     <use xlink:href="#DejaVuSans-39" x="222.65625"/>
     <use xlink:href="#DejaVuSans-20" x="286.279297"/>
     <use xlink:href="#DejaVuSans-4d" x="318.066406"/>
     <use xlink:href="#DejaVuSans-48" x="404.345703"/>
     <use xlink:href="#DejaVuSans-7a" x="479.541016"/>
    </g>
   </g>
   <g id="legend_2">
    <g id="line2d_52">
     <path d="M 398.241875 39.555938 
L 410.241875 39.555938 
L 422.241875 39.555938 
" style="fill: none; stroke: #5386be; stroke-width: 2; stroke-linecap: square"/>
    </g>
    <g id="text_31">
     <!-- 2d corrected -->
     <g style="fill: #b6bccf" transform="translate(431.841875 43.755938) scale(0.12 -0.12)">
      <use xlink:href="#DejaVuSans-32"/>
      <use xlink:href="#DejaVuSans-64" x="63.623047"/>
      <use xlink:href="#DejaVuSans-20" x="127.099609"/>
      <use xlink:href="#DejaVuSans-63" x="158.886719"/>
      <use xlink:href="#DejaVuSans-6f" x="213.867188"/>
      <use xlink:href="#DejaVuSans-72" x="275.048828"/>
      <use xlink:href="#DejaVuSans-72" x="314.412109"/>
      <use xlink:href="#DejaVuSans-65" x="353.275391"/>
      <use xlink:href="#DejaVuSans-63" x="414.798828"/>
      <use xlink:href="#DejaVuSans-74" x="469.779297"/>
      <use xlink:href="#DejaVuSans-65" x="508.988281"/>
      <use xlink:href="#DejaVuSans-64" x="570.511719"/>
     </g>
    </g>
    <g id="line2d_53">
     <path d="M 398.241875 57.169688 
L 410.241875 57.169688 
L 422.241875 57.169688 
" style="fill: none; stroke: #38d7ac; stroke-width: 2; stroke-linecap: square"/>
    </g>
    <g id="text_32">
     <!-- 1d corrected -->
     <g style="fill: #b6bccf" transform="translate(431.841875 61.369688) scale(0.12 -0.12)">
      <use xlink:href="#DejaVuSans-31"/>
      <use xlink:href="#DejaVuSans-64" x="63.623047"/>
      <use xlink:href="#DejaVuSans-20" x="127.099609"/>
      <use xlink:href="#DejaVuSans-63" x="158.886719"/>
      <use xlink:href="#DejaVuSans-6f" x="213.867188"/>
      <use xlink:href="#DejaVuSans-72" x="275.048828"/>
      <use xlink:href="#DejaVuSans-72" x="314.412109"/>
      <use xlink:href="#DejaVuSans-65" x="353.275391"/>
      <use xlink:href="#DejaVuSans-63" x="414.798828"/>
      <use xlink:href="#DejaVuSans-74" x="469.779297"/>
      <use xlink:href="#DejaVuSans-65" x="508.988281"/>
      <use xlink:href="#DejaVuSans-64" x="570.511719"/>
     </g>
    </g>
    <g id="line2d_54">
     <path d="M 398.241875 74.783438 
L 410.241875 74.783438 
L 422.241875 74.783438 
" style="fill: none; stroke: #bddf26; stroke-width: 2; stroke-linecap: square"/>
    </g>
    <g id="text_33">
     <!-- uncorrected -->
     <g style="fill: #b6bccf" transform="translate(431.841875 78.983438) scale(0.12 -0.12)">
      <use xlink:href="#DejaVuSans-75"/>
      <use xlink:href="#DejaVuSans-6e" x="63.378906"/>
      <use xlink:href="#DejaVuSans-63" x="126.757812"/>
      <use xlink:href="#DejaVuSans-6f" x="181.738281"/>
      <use xlink:href="#DejaVuSans-72" x="242.919922"/>
      <use xlink:href="#DejaVuSans-72" x="282.283203"/>
      <use xlink:href="#DejaVuSans-65" x="321.146484"/>
      <use xlink:href="#DejaVuSans-63" x="382.669922"/>
      <use xlink:href="#DejaVuSans-74" x="437.650391"/>
      <use xlink:href="#DejaVuSans-65" x="476.859375"/>
      <use xlink:href="#DejaVuSans-64" x="538.382812"/>
     </g>
    </g>
   </g>
  </g>
  <g id="axes_3">
   <g id="patch_8">
    <path d="M 579.17375 217.877812 
L 780.67375 217.877812 
L 780.67375 23.837812 
L 579.17375 23.837812 
z
" style="fill: #a3a3ff; fill-opacity: 0.04"/>
   </g>
   <g id="matplotlib.axis_5">
    <g id="xtick_9">
     <g id="line2d_55">
      <path d="M 579.17375 217.877812 
L 579.17375 23.837812 
" clip-path="url(#p2f7a9bd051)" style="fill: none; stroke: #b0b0b0; stroke-opacity: 0.2; stroke-width: 0.8; stroke-linecap: square"/>
     </g>
     <g id="line2d_56">
      <g>
       <use xlink:href="#m30232a2a14" x="579.17375" y="217.877812" style="fill: #b6bccf; stroke: #b6bccf; stroke-width: 1.2"/>
      </g>
     </g>
     <g id="text_34">
      <!-- −100 -->
      <g style="fill: #b6bccf" transform="translate(564.066797 233.236094) scale(0.11 -0.11)">
       <use xlink:href="#DejaVuSans-2212"/>
       <use xlink:href="#DejaVuSans-31" x="83.789062"/>
       <use xlink:href="#DejaVuSans-30" x="147.412109"/>
       <use xlink:href="#DejaVuSans-30" x="211.035156"/>
      </g>
     </g>
    </g>
    <g id="xtick_10">
     <g id="line2d_57">
      <path d="M 636.745179 217.877812 
L 636.745179 23.837812 
" clip-path="url(#p2f7a9bd051)" style="fill: none; stroke: #b0b0b0; stroke-opacity: 0.2; stroke-width: 0.8; stroke-linecap: square"/>
     </g>
     <g id="line2d_58">
      <g>
       <use xlink:href="#m30232a2a14" x="636.745179" y="217.877812" style="fill: #b6bccf; stroke: #b6bccf; stroke-width: 1.2"/>
      </g>
     </g>
     <g id="text_35">
      <!-- 0 -->
      <g style="fill: #b6bccf" transform="translate(633.245804 233.236094) scale(0.11 -0.11)">
       <use xlink:href="#DejaVuSans-30"/>
      </g>
     </g>
    </g>
    <g id="xtick_11">
     <g id="line2d_59">
      <path d="M 694.316607 217.877812 
L 694.316607 23.837812 
" clip-path="url(#p2f7a9bd051)" style="fill: none; stroke: #b0b0b0; stroke-opacity: 0.2; stroke-width: 0.8; stroke-linecap: square"/>
     </g>
     <g id="line2d_60">
      <g>
       <use xlink:href="#m30232a2a14" x="694.316607" y="217.877812" style="fill: #b6bccf; stroke: #b6bccf; stroke-width: 1.2"/>
      </g>
     </g>
     <g id="text_36">
      <!-- 100 -->
      <g style="fill: #b6bccf" transform="translate(683.818482 233.236094) scale(0.11 -0.11)">
       <use xlink:href="#DejaVuSans-31"/>
       <use xlink:href="#DejaVuSans-30" x="63.623047"/>
       <use xlink:href="#DejaVuSans-30" x="127.246094"/>
      </g>
     </g>
    </g>
    <g id="xtick_12">
     <g id="line2d_61">
      <path d="M 751.888036 217.877812 
L 751.888036 23.837812 
" clip-path="url(#p2f7a9bd051)" style="fill: none; stroke: #b0b0b0; stroke-opacity: 0.2; stroke-width: 0.8; stroke-linecap: square"/>
     </g>
     <g id="line2d_62">
      <g>
       <use xlink:href="#m30232a2a14" x="751.888036" y="217.877812" style="fill: #b6bccf; stroke: #b6bccf; stroke-width: 1.2"/>
      </g>
     </g>
     <g id="text_37">
      <!-- 200 -->
      <g style="fill: #b6bccf" transform="translate(741.389911 233.236094) scale(0.11 -0.11)">
       <use xlink:href="#DejaVuSans-32"/>
       <use xlink:href="#DejaVuSans-30" x="63.623047"/>
       <use xlink:href="#DejaVuSans-30" x="127.246094"/>
      </g>
     </g>
    </g>
    <g id="text_38">
     <!-- Time (ps) -->
     <g style="fill: #b6bccf" transform="translate(649.369687 249.401719) scale(0.13 -0.13)">
      <use xlink:href="#DejaVuSans-54"/>
      <use xlink:href="#DejaVuSans-69" x="57.958984"/>
      <use xlink:href="#DejaVuSans-6d" x="85.742188"/>
      <use xlink:href="#DejaVuSans-65" x="183.154297"/>
      <use xlink:href="#DejaVuSans-20" x="244.677734"/>
      <use xlink:href="#DejaVuSans-28" x="276.464844"/>
      <use xlink:href="#DejaVuSans-70" x="315.478516"/>
      <use xlink:href="#DejaVuSans-73" x="378.955078"/>
      <use xlink:href="#DejaVuSans-29" x="431.054688"/>
     </g>
    </g>
   </g>
   <g id="matplotlib.axis_6">
    <g id="ytick_14">
     <g id="line2d_63">
      <path d="M 579.17375 212.386114 
L 780.67375 212.386114 
" clip-path="url(#p2f7a9bd051)" style="fill: none; stroke: #b0b0b0; stroke-opacity: 0.2; stroke-width: 0.8; stroke-linecap: square"/>
     </g>
     <g id="line2d_64">
      <g>
       <use xlink:href="#medeb3176a2" x="579.17375" y="212.386114" style="fill: #b6bccf; stroke: #b6bccf; stroke-width: 1.2"/>
      </g>
     </g>
     <g id="text_39">
      <!-- 0.000 -->
      <g style="fill: #b6bccf" transform="translate(540.682812 216.565255) scale(0.11 -0.11)">
       <use xlink:href="#DejaVuSans-30"/>
       <use xlink:href="#DejaVuSans-2e" x="63.623047"/>
       <use xlink:href="#DejaVuSans-30" x="95.410156"/>
       <use xlink:href="#DejaVuSans-30" x="159.033203"/>
       <use xlink:href="#DejaVuSans-30" x="222.65625"/>
      </g>
     </g>
    </g>
    <g id="ytick_15">
     <g id="line2d_65">
      <path d="M 579.17375 165.683683 
L 780.67375 165.683683 
" clip-path="url(#p2f7a9bd051)" style="fill: none; stroke: #b0b0b0; stroke-opacity: 0.2; stroke-width: 0.8; stroke-linecap: square"/>
     </g>
     <g id="line2d_66">
      <g>
       <use xlink:href="#medeb3176a2" x="579.17375" y="165.683683" style="fill: #b6bccf; stroke: #b6bccf; stroke-width: 1.2"/>
      </g>
     </g>
     <g id="text_40">
      <!-- 0.005 -->
      <g style="fill: #b6bccf" transform="translate(540.682812 169.862823) scale(0.11 -0.11)">
       <use xlink:href="#DejaVuSans-30"/>
       <use xlink:href="#DejaVuSans-2e" x="63.623047"/>
       <use xlink:href="#DejaVuSans-30" x="95.410156"/>
       <use xlink:href="#DejaVuSans-30" x="159.033203"/>
       <use xlink:href="#DejaVuSans-35" x="222.65625"/>
      </g>
     </g>
    </g>
    <g id="ytick_16">
     <g id="line2d_67">
      <path d="M 579.17375 118.981251 
L 780.67375 118.981251 
" clip-path="url(#p2f7a9bd051)" style="fill: none; stroke: #b0b0b0; stroke-opacity: 0.2; stroke-width: 0.8; stroke-linecap: square"/>
     </g>
     <g id="line2d_68">
      <g>
       <use xlink:href="#medeb3176a2" x="579.17375" y="118.981251" style="fill: #b6bccf; stroke: #b6bccf; stroke-width: 1.2"/>
      </g>
     </g>
     <g id="text_41">
      <!-- 0.010 -->
      <g style="fill: #b6bccf" transform="translate(540.682812 123.160392) scale(0.11 -0.11)">
       <use xlink:href="#DejaVuSans-30"/>
       <use xlink:href="#DejaVuSans-2e" x="63.623047"/>
       <use xlink:href="#DejaVuSans-30" x="95.410156"/>
       <use xlink:href="#DejaVuSans-31" x="159.033203"/>
       <use xlink:href="#DejaVuSans-30" x="222.65625"/>
      </g>
     </g>
    </g>
    <g id="ytick_17">
     <g id="line2d_69">
      <path d="M 579.17375 72.27882 
L 780.67375 72.27882 
" clip-path="url(#p2f7a9bd051)" style="fill: none; stroke: #b0b0b0; stroke-opacity: 0.2; stroke-width: 0.8; stroke-linecap: square"/>
     </g>
     <g id="line2d_70">
      <g>
       <use xlink:href="#medeb3176a2" x="579.17375" y="72.27882" style="fill: #b6bccf; stroke: #b6bccf; stroke-width: 1.2"/>
      </g>
     </g>
     <g id="text_42">
      <!-- 0.015 -->
      <g style="fill: #b6bccf" transform="translate(540.682812 76.45796) scale(0.11 -0.11)">
       <use xlink:href="#DejaVuSans-30"/>
       <use xlink:href="#DejaVuSans-2e" x="63.623047"/>
       <use xlink:href="#DejaVuSans-30" x="95.410156"/>
       <use xlink:href="#DejaVuSans-31" x="159.033203"/>
       <use xlink:href="#DejaVuSans-35" x="222.65625"/>
      </g>
     </g>
    </g>
    <g id="ytick_18">
     <g id="line2d_71">
      <path d="M 579.17375 25.576388 
L 780.67375 25.576388 
" clip-path="url(#p2f7a9bd051)" style="fill: none; stroke: #b0b0b0; stroke-opacity: 0.2; stroke-width: 0.8; stroke-linecap: square"/>
     </g>
     <g id="line2d_72">
      <g>
       <use xlink:href="#medeb3176a2" x="579.17375" y="25.576388" style="fill: #b6bccf; stroke: #b6bccf; stroke-width: 1.2"/>
      </g>
     </g>
     <g id="text_43">
      <!-- 0.020 -->
      <g style="fill: #b6bccf" transform="translate(540.682812 29.755529) scale(0.11 -0.11)">
       <use xlink:href="#DejaVuSans-30"/>
       <use xlink:href="#DejaVuSans-2e" x="63.623047"/>
       <use xlink:href="#DejaVuSans-30" x="95.410156"/>
       <use xlink:href="#DejaVuSans-32" x="159.033203"/>
       <use xlink:href="#DejaVuSans-30" x="222.65625"/>
      </g>
     </g>
    </g>
    <g id="text_44">
     <!-- Normalized Counts -->
     <g style="fill: #b6bccf" transform="translate(533.979219 182.474766) rotate(-90) scale(0.13 -0.13)">
      <use xlink:href="#DejaVuSans-4e"/>
      <use xlink:href="#DejaVuSans-6f" x="74.804688"/>
      <use xlink:href="#DejaVuSans-72" x="135.986328"/>
      <use xlink:href="#DejaVuSans-6d" x="175.349609"/>
      <use xlink:href="#DejaVuSans-61" x="272.761719"/>
      <use xlink:href="#DejaVuSans-6c" x="334.041016"/>
      <use xlink:href="#DejaVuSans-69" x="361.824219"/>
      <use xlink:href="#DejaVuSans-7a" x="389.607422"/>
      <use xlink:href="#DejaVuSans-65" x="442.097656"/>
      <use xlink:href="#DejaVuSans-64" x="503.621094"/>
      <use xlink:href="#DejaVuSans-20" x="567.097656"/>
      <use xlink:href="#DejaVuSans-43" x="598.884766"/>
      <use xlink:href="#DejaVuSans-6f" x="668.708984"/>
      <use xlink:href="#DejaVuSans-75" x="729.890625"/>
      <use xlink:href="#DejaVuSans-6e" x="793.269531"/>
      <use xlink:href="#DejaVuSans-74" x="856.648438"/>
      <use xlink:href="#DejaVuSans-73" x="895.857422"/>
     </g>
    </g>
   </g>
   <g id="line2d_73">
    <path d="M 349.751607 212.169898 
L 353.205893 212.268178 
L 355.50875 212.189554 
L 356.660179 212.25835 
L 357.811607 212.23378 
L 361.841607 212.263264 
L 364.144464 212.243608 
L 365.295893 212.28292 
L 366.447321 212.243608 
L 372.204464 212.248522 
L 373.355893 212.25835 
L 373.931607 212.30749 
L 375.083036 212.204296 
L 375.65875 212.287834 
L 376.810179 212.243608 
L 383.71875 212.28292 
L 384.870179 212.194468 
L 385.445893 212.25835 
L 386.021607 212.20921 
L 386.597321 212.273092 
L 387.74875 212.214124 
L 388.900179 212.248522 
L 390.627321 212.243608 
L 400.414464 212.23378 
L 403.293036 212.228866 
L 405.020179 212.28292 
L 422.291607 212.204296 
L 423.443036 212.263264 
L 426.321607 212.223952 
L 426.897321 212.287834 
L 427.473036 212.194468 
L 428.624464 212.273092 
L 433.805893 212.214124 
L 435.533036 212.312404 
L 439.563036 212.238694 
L 522.465893 212.140414 
L 523.041607 212.096188 
L 523.617321 212.204296 
L 525.344464 212.06179 
L 527.647321 212.125672 
L 528.223036 212.017564 
L 528.79875 212.08636 
L 529.374464 211.98808 
L 530.525893 212.101102 
L 531.101607 211.978252 
L 533.404464 212.027392 
L 533.980179 211.86523 
L 542.615893 212.002822 
L 544.343036 211.934026 
L 545.494464 212.017564 
L 546.645893 212.032306 
L 547.797321 212.06179 
L 548.94875 211.98808 
L 549.524464 212.096188 
L 550.100179 212.007736 
L 551.827321 212.096188 
L 552.97875 212.066704 
L 553.554464 212.194468 
L 554.130179 212.120758 
L 555.281607 212.155156 
L 557.00875 212.120758 
L 558.735893 212.18464 
L 559.311607 212.120758 
L 560.463036 212.20921 
L 562.190179 212.155156 
L 563.341607 212.219038 
L 564.493036 212.194468 
L 565.644464 212.189554 
L 567.371607 212.204296 
L 573.704464 212.150242 
L 574.280179 212.125672 
L 574.855893 212.228866 
L 576.583036 212.125672 
L 578.310179 212.1355 
L 578.885893 212.091274 
L 579.461607 212.164984 
L 580.613036 212.150242 
L 582.915893 212.11093 
L 584.067321 212.03722 
L 585.21875 212.051962 
L 586.370179 212.03722 
L 588.673036 211.953682 
L 589.824464 211.604787 
L 590.975893 211.683411 
L 592.127321 211.388571 
L 593.27875 211.309947 
L 594.430179 211.024934 
L 595.005893 210.990536 
L 596.157321 210.420511 
L 596.733036 210.376285 
L 597.30875 209.899627 
L 599.035893 209.255892 
L 599.611607 208.621985 
L 600.187321 208.582673 
L 600.763036 208.164982 
L 601.33875 207.575301 
L 602.490179 206.803802 
L 603.065893 206.336971 
L 603.641607 206.106013 
L 604.217321 205.59987 
L 604.793036 205.658838 
L 605.36875 205.029845 
L 605.944464 204.651467 
L 606.520179 204.037216 
L 607.671607 203.545815 
L 608.247321 203.309943 
L 608.823036 203.354169 
L 609.39875 202.862768 
L 609.974464 203.14778 
L 610.550179 202.995446 
L 611.125893 202.970876 
L 611.701607 202.764488 
L 612.277321 202.8038 
L 612.853036 203.00036 
L 613.42875 203.339427 
L 614.004464 203.201835 
L 614.580179 203.496675 
L 615.155893 203.619525 
L 615.731607 203.624439 
L 616.307321 203.742375 
L 616.883036 203.457363 
L 617.45875 203.388567 
L 619.761607 202.612154 
L 620.337321 201.830826 
L 620.913036 200.405764 
L 621.48875 199.786599 
L 622.640179 197.491758 
L 623.215893 195.742371 
L 623.791607 193.516326 
L 624.367321 191.850477 
L 624.943036 188.504038 
L 626.094464 183.408213 
L 627.821607 171.668649 
L 628.973036 160.125646 
L 629.54875 155.452425 
L 634.730179 91.58507 
L 635.881607 77.673515 
L 637.033036 63.909381 
L 638.760179 47.314778 
L 640.487321 36.169809 
L 641.63875 31.68332 
L 642.214464 31.722632 
L 642.790179 31.059241 
L 643.365893 32.430249 
L 643.941607 29.329511 
L 644.517321 35.245976 
L 645.093036 33.535901 
L 646.244464 42.042048 
L 646.820179 43.015021 
L 647.395893 48.98554 
L 647.971607 53.516255 
L 648.547321 56.277927 
L 653.72875 106.523653 
L 654.304464 110.641591 
L 656.607321 130.661257 
L 657.183036 133.648974 
L 657.75875 137.644062 
L 658.334464 142.906964 
L 659.485893 149.540874 
L 660.061607 152.40574 
L 660.637321 156.391 
L 661.213036 159.30992 
L 661.78875 161.403288 
L 662.364464 165.039653 
L 662.940179 167.019998 
L 663.515893 169.7571 
L 664.091607 171.029828 
L 664.667321 172.852925 
L 665.243036 175.491747 
L 666.394464 178.150225 
L 666.970179 180.410668 
L 668.121607 183.889785 
L 670.424464 187.899615 
L 671.000179 188.798879 
L 671.575893 190.381189 
L 672.727321 191.501583 
L 673.303036 191.663745 
L 674.454464 193.830822 
L 675.030179 194.435245 
L 676.181607 196.253428 
L 677.333036 196.587581 
L 679.060179 198.327139 
L 679.635893 198.469645 
L 680.211607 199.535985 
L 680.787321 199.437705 
L 681.363036 200.00773 
L 681.93875 200.40085 
L 682.514464 200.32714 
L 683.090179 201.231318 
L 683.665893 201.521244 
L 684.241607 201.526158 
L 685.393036 202.042129 
L 685.96875 202.538444 
L 686.544464 202.58267 
L 687.695893 202.793972 
L 688.271607 203.187093 
L 689.423036 203.644095 
L 689.99875 204.106012 
L 690.574464 203.84557 
L 691.725893 204.38611 
L 692.301607 204.504047 
L 692.877321 204.061786 
L 693.453036 205.172352 
L 694.02875 204.631811 
L 694.604464 205.187094 
L 695.180179 205.201836 
L 695.755893 204.784145 
L 696.331607 205.74729 
L 696.907321 205.408224 
L 698.634464 205.855399 
L 699.210179 205.845571 
L 700.361607 206.184637 
L 700.937321 206.047045 
L 701.513036 206.484391 
L 702.08875 206.405767 
L 702.664464 206.484391 
L 703.240179 206.278003 
L 703.815893 206.857856 
L 704.391607 206.857856 
L 704.967321 207.000362 
L 705.543036 206.833286 
L 706.11875 206.81363 
L 706.694464 207.024932 
L 707.270179 206.946308 
L 707.845893 206.995448 
L 708.421607 207.604785 
L 708.997321 207.211665 
L 710.14875 207.531075 
L 711.875893 207.609699 
L 712.451607 207.712893 
L 713.027321 208.081444 
L 713.603036 208.012648 
L 714.754464 208.22395 
L 715.330179 208.086358 
L 716.481607 208.479479 
L 717.633036 208.278004 
L 718.20875 208.351714 
L 718.784464 208.587587 
L 719.360179 208.597415 
L 719.935893 208.754663 
L 720.511607 208.779233 
L 721.087321 208.592501 
L 721.663036 208.882427 
L 722.23875 208.690781 
L 724.541607 209.442624 
L 726.844464 209.147784 
L 727.420179 209.555646 
L 729.147321 209.688324 
L 729.723036 209.575302 
L 730.874464 209.865229 
L 731.450179 209.835745 
L 732.025893 210.066703 
L 732.601607 209.899627 
L 733.177321 210.086359 
L 733.753036 210.047047 
L 734.32875 210.214123 
L 735.480179 209.997907 
L 736.055893 210.464737 
L 736.631607 210.287833 
L 737.207321 210.312403 
L 737.783036 210.489308 
L 738.934464 210.563018 
L 739.510179 210.420511 
L 740.085893 210.484394 
L 740.661607 210.739922 
L 741.237321 210.636728 
L 741.813036 210.666212 
L 742.38875 210.887342 
L 742.964464 210.79889 
L 743.540179 210.980708 
L 744.115893 210.84803 
L 744.691607 210.94631 
L 745.267321 210.882428 
L 746.41875 211.015106 
L 746.994464 210.941396 
L 747.570179 211.113386 
L 748.145893 210.926654 
L 749.297321 211.172355 
L 749.873036 211.02002 
L 751.024464 211.250979 
L 751.600179 211.177269 
L 753.903036 211.339431 
L 754.47875 211.285377 
L 755.054464 211.472109 
L 756.205893 211.339431 
L 756.781607 211.462281 
L 757.933036 211.383657 
L 759.660179 211.545819 
L 760.235893 211.599873 
L 761.387321 211.526163 
L 762.53875 211.619529 
L 765.417321 211.629357 
L 766.56875 211.762035 
L 767.144464 211.683411 
L 769.447321 211.81609 
L 770.59875 211.757121 
L 771.174464 211.909456 
L 771.750179 211.781691 
L 775.780179 212.007736 
L 776.355893 211.884886 
L 776.931607 211.973338 
L 778.65875 211.978252 
L 780.385893 211.978252 
L 780.961607 211.919284 
L 781.537321 212.047048 
L 782.113036 211.948768 
L 784.991607 212.071618 
L 786.143036 212.03722 
L 787.294464 212.115844 
L 788.445893 212.08636 
L 788.87375 212.108272 
L 788.87375 212.108272 
" clip-path="url(#p2f7a9bd051)" style="fill: none; stroke: #5386be; stroke-width: 2; stroke-linecap: square"/>
   </g>
   <g id="line2d_74">
    <path d="M 349.751607 212.241828 
L 356.660179 212.23129 
L 358.963036 212.243449 
L 361.841607 212.23129 
L 365.295893 212.24507 
L 371.053036 212.242639 
L 376.810179 212.228858 
L 379.68875 212.253987 
L 386.597321 212.236154 
L 388.900179 212.238586 
L 419.413036 212.237775 
L 421.715893 212.232911 
L 438.411607 212.245881 
L 451.077321 212.209404 
L 452.22875 212.225616 
L 482.165893 212.232911 
L 483.893036 212.189139 
L 487.347321 212.239396 
L 494.255893 212.208594 
L 497.134464 212.198056 
L 502.891607 212.21751 
L 514.981607 212.177791 
L 518.435893 212.184276 
L 521.314464 212.164821 
L 524.193036 212.141314 
L 531.677321 212.057822 
L 535.131607 212.056201 
L 539.737321 212.02783 
L 545.494464 212.089436 
L 546.645893 212.06755 
L 562.765893 212.145367 
L 587.521607 211.947581 
L 594.430179 211.359087 
L 595.581607 211.10537 
L 596.157321 211.057545 
L 600.763036 209.608197 
L 601.33875 209.343131 
L 601.914464 209.212625 
L 602.490179 208.871364 
L 603.065893 208.706812 
L 605.36875 207.282593 
L 605.944464 207.153708 
L 606.520179 206.721659 
L 608.247321 205.888365 
L 609.39875 205.109381 
L 609.974464 205.003193 
L 611.125893 204.346609 
L 611.701607 204.190163 
L 613.42875 203.219878 
L 614.004464 203.193939 
L 614.580179 202.800799 
L 615.155893 202.566537 
L 615.731607 202.454674 
L 616.307321 201.977232 
L 616.883036 201.952104 
L 617.45875 201.434943 
L 618.034464 201.127726 
L 618.610179 200.582194 
L 619.185893 200.383598 
L 619.761607 199.863194 
L 622.064464 196.796704 
L 622.640179 195.3125 
L 623.215893 194.67456 
L 625.51875 188.06819 
L 627.821607 178.27293 
L 629.54875 169.447956 
L 631.275893 158.669441 
L 633.57875 143.584222 
L 634.730179 135.328287 
L 637.033036 120.836425 
L 638.760179 112.366492 
L 640.487321 105.602867 
L 641.063036 104.555575 
L 641.63875 102.614194 
L 642.790179 100.798456 
L 643.365893 100.175917 
L 643.941607 100.353438 
L 644.517321 100.068918 
L 645.093036 100.737661 
L 645.66875 101.750097 
L 646.244464 102.295629 
L 646.820179 103.012197 
L 647.395893 104.149466 
L 647.971607 106.241618 
L 648.547321 107.280804 
L 649.123036 108.995217 
L 649.69875 111.653977 
L 650.274464 112.766117 
L 652.577321 123.17662 
L 653.153036 124.979389 
L 654.880179 131.933505 
L 655.455893 134.563083 
L 656.031607 136.215891 
L 656.607321 138.650926 
L 657.183036 140.570421 
L 657.75875 143.304566 
L 659.485893 149.26651 
L 660.061607 150.368112 
L 660.637321 152.201684 
L 661.213036 154.457577 
L 661.78875 155.767502 
L 662.364464 157.814261 
L 662.940179 158.958824 
L 663.515893 160.49896 
L 665.243036 163.948052 
L 666.394464 165.621125 
L 666.970179 167.032375 
L 669.273036 170.393112 
L 671.000179 172.639278 
L 673.303036 174.872474 
L 673.87875 175.174016 
L 675.605893 176.620933 
L 676.181607 176.704424 
L 676.757321 177.29535 
L 677.333036 177.476924 
L 677.90875 177.985979 
L 678.484464 178.145667 
L 679.060179 178.681471 
L 679.635893 178.913302 
L 680.211607 179.000036 
L 680.787321 179.483963 
L 681.363036 179.659052 
L 681.93875 180.369946 
L 682.514464 180.344007 
L 683.090179 180.811722 
L 684.817321 181.632046 
L 685.393036 182.184063 
L 685.96875 182.36969 
L 686.544464 182.896578 
L 687.120179 183.067614 
L 687.695893 183.493178 
L 688.271607 183.605041 
L 688.847321 183.862 
L 689.423036 184.585053 
L 689.99875 184.94739 
L 690.574464 184.98792 
L 691.725893 185.979281 
L 692.301607 186.074931 
L 692.877321 186.307573 
L 693.453036 187.052512 
L 694.02875 187.094663 
L 694.604464 187.624793 
L 695.180179 187.833117 
L 695.755893 188.280567 
L 696.331607 188.2984 
L 696.907321 188.798539 
L 698.05875 188.910401 
L 698.634464 189.222481 
L 699.210179 189.382979 
L 699.785893 189.695059 
L 700.361607 189.873391 
L 700.937321 190.314356 
L 701.513036 190.485392 
L 702.08875 190.53727 
L 702.664464 191.074696 
L 703.240179 191.149271 
L 703.815893 191.488912 
L 704.391607 191.484048 
L 704.967321 191.783969 
L 705.543036 191.841521 
L 706.11875 192.371652 
L 706.694464 192.295456 
L 707.270179 192.699944 
L 707.845893 192.690217 
L 708.997321 193.002297 
L 710.14875 193.42705 
L 710.724464 193.422997 
L 711.300179 193.866394 
L 711.875893 193.966097 
L 712.451607 194.261155 
L 714.17875 194.618628 
L 714.754464 194.847217 
L 715.330179 194.890179 
L 715.905893 195.20469 
L 717.633036 195.526498 
L 718.784464 196.362224 
L 719.360179 196.261709 
L 720.511607 196.88668 
L 721.087321 196.844529 
L 721.663036 197.200381 
L 722.23875 197.204434 
L 724.541607 197.91695 
L 725.117321 197.942889 
L 726.844464 198.768077 
L 727.995893 198.929386 
L 729.147321 199.438441 
L 729.723036 199.496804 
L 730.874464 200.051253 
L 731.450179 199.955602 
L 732.025893 200.268493 
L 732.601607 200.358469 
L 733.177321 200.63083 
L 733.753036 200.68595 
L 735.480179 201.451965 
L 736.055893 201.436564 
L 736.631607 201.763235 
L 737.783036 201.897794 
L 738.35875 202.308767 
L 738.934464 202.521954 
L 739.510179 202.576264 
L 741.813036 203.397399 
L 743.540179 203.731365 
L 744.115893 204.123694 
L 748.145893 205.305545 
L 749.297321 205.684905 
L 750.44875 206.015629 
L 751.024464 206.295285 
L 751.600179 206.38283 
L 752.751607 206.813257 
L 753.327321 206.87162 
L 754.47875 207.252601 
L 755.054464 207.327986 
L 755.630179 207.561438 
L 757.357321 207.961873 
L 757.933036 208.187219 
L 758.50875 208.165333 
L 759.084464 208.321779 
L 759.660179 208.641965 
L 760.235893 208.598192 
L 760.811607 208.837319 
L 761.963036 208.9889 
L 763.114464 209.308276 
L 773.477321 210.859759 
L 774.62875 210.952167 
L 778.083036 211.310452 
L 780.385893 211.406102 
L 782.113036 211.583623 
L 786.143036 211.725477 
L 788.87375 211.865849 
L 788.87375 211.865849 
" clip-path="url(#p2f7a9bd051)" style="fill: none; stroke: #38d7ac; stroke-width: 2; stroke-linecap: square"/>
   </g>
   <g id="line2d_75">
    <path d="M 349.751607 212.317365 
L 353.781607 212.21915 
L 364.720179 212.238793 
L 365.295893 212.165133 
L 367.023036 212.28299 
L 368.174464 212.253525 
L 370.477321 212.224061 
L 372.780179 212.253525 
L 373.931607 212.233883 
L 377.961607 212.21424 
L 379.68875 212.224061 
L 381.991607 212.258436 
L 383.143036 212.21424 
L 383.71875 212.28299 
L 384.870179 212.258436 
L 387.173036 212.243704 
L 388.900179 212.21424 
L 391.203036 212.263347 
L 396.384464 212.253525 
L 396.960179 212.194597 
L 398.687321 212.253525 
L 402.141607 212.253525 
L 409.050179 212.233883 
L 411.92875 212.263347 
L 413.080179 212.21424 
L 414.231607 212.248615 
L 415.95875 212.248615 
L 428.04875 212.253525 
L 429.200179 212.228972 
L 430.351607 212.248615 
L 436.684464 212.228972 
L 439.563036 212.199508 
L 440.13875 212.165133 
L 440.714464 212.263347 
L 445.320179 212.233883 
L 445.895893 212.292811 
L 447.623036 212.184776 
L 448.19875 212.263347 
L 449.925893 212.243704 
L 451.653036 212.238793 
L 453.380179 212.243704 
L 456.25875 212.238793 
L 467.197321 212.253525 
L 526.495893 212.199508 
L 527.071607 212.116026 
L 527.647321 212.194597 
L 528.79875 212.179865 
L 530.525893 212.209329 
L 531.101607 212.120936 
L 531.677321 212.199508 
L 533.404464 212.130758 
L 535.131607 212.194597 
L 537.434464 212.150401 
L 538.585893 212.179865 
L 539.737321 212.091472 
L 540.313036 212.165133 
L 542.615893 212.086561 
L 544.343036 212.155311 
L 549.524464 212.086561 
L 587.521607 212.101294 
L 588.097321 212.233883 
L 588.673036 212.101294 
L 589.24875 212.150401 
L 590.400179 212.111115 
L 592.703036 212.106204 
L 593.854464 212.017812 
L 599.611607 211.963794 
L 600.187321 211.944151 
L 600.763036 211.811562 
L 601.33875 211.919598 
L 601.914464 211.742812 
L 602.490179 211.880312 
L 603.065893 211.713348 
L 604.217321 211.718259 
L 605.36875 211.541473 
L 606.520179 211.418706 
L 607.095893 211.286117 
L 607.671607 211.345045 
L 608.823036 211.03076 
L 609.974464 211.03076 
L 610.550179 210.760672 
L 611.701607 210.726297 
L 612.277321 210.308887 
L 612.853036 210.407101 
L 614.004464 210.181209 
L 614.580179 210.343262 
L 615.155893 210.028977 
L 616.883036 209.567371 
L 617.45875 209.4888 
L 618.034464 209.542817 
L 618.610179 209.203979 
L 619.761607 209.164693 
L 620.337321 208.693266 
L 622.064464 208.354427 
L 622.640179 208.182553 
L 623.215893 207.681661 
L 623.791607 207.53434 
L 625.51875 206.301753 
L 626.094464 205.452202 
L 627.821607 204.165597 
L 628.397321 203.600867 
L 628.973036 202.658012 
L 629.54875 201.297747 
L 630.124464 200.718284 
L 630.700179 199.107573 
L 631.851607 197.305345 
L 632.427321 195.748652 
L 633.003036 194.68794 
L 633.57875 192.964284 
L 634.154464 192.016518 
L 634.730179 190.091522 
L 635.305893 189.109382 
L 635.881607 187.56251 
L 636.457321 184.213411 
L 637.033036 183.982608 
L 637.60875 181.429042 
L 638.184464 180.859401 
L 639.335893 177.480837 
L 639.911607 175.403609 
L 640.487321 173.950041 
L 641.063036 171.720582 
L 641.63875 170.537103 
L 642.214464 170.055854 
L 643.941607 166.068363 
L 644.517321 165.503632 
L 645.093036 163.888011 
L 645.66875 162.611228 
L 646.244464 160.799178 
L 646.820179 160.558554 
L 647.395893 159.684449 
L 647.971607 157.744721 
L 649.123036 156.615259 
L 649.69875 155.446512 
L 650.274464 152.563929 
L 651.425893 150.373756 
L 652.001607 149.534025 
L 652.577321 147.623762 
L 653.153036 146.739835 
L 653.72875 144.613501 
L 654.304464 144.991625 
L 655.455893 142.172882 
L 656.031607 140.233154 
L 656.607321 138.961282 
L 657.183036 137.026465 
L 658.910179 136.137627 
L 659.485893 135.548343 
L 660.061607 135.366647 
L 660.637321 135.784057 
L 661.213036 134.188078 
L 662.364464 135.464861 
L 662.940179 137.154143 
L 663.515893 137.163964 
L 664.091607 137.861284 
L 665.243036 138.80905 
L 666.970179 142.727791 
L 667.545893 144.716626 
L 669.273036 148.02644 
L 669.84875 147.844744 
L 670.424464 148.704117 
L 671.000179 150.560362 
L 671.575893 151.130004 
L 672.151607 151.375539 
L 672.727321 152.603215 
L 673.303036 153.064821 
L 673.87875 154.199193 
L 674.454464 153.973301 
L 675.030179 154.6608 
L 675.605893 154.641157 
L 676.181607 155.279548 
L 676.757321 155.71169 
L 677.333036 155.598744 
L 677.90875 156.433563 
L 678.484464 156.639813 
L 679.060179 157.435347 
L 680.211607 156.796955 
L 680.787321 157.356776 
L 681.363036 157.307668 
L 681.93875 157.091598 
L 682.514464 156.389367 
L 683.090179 157.371508 
L 683.665893 158.697397 
L 684.241607 158.117934 
L 684.817321 157.896953 
L 685.393036 159.149182 
L 685.96875 158.618826 
L 686.544464 159.350521 
L 687.120179 159.561681 
L 687.695893 159.2032 
L 688.271607 159.846502 
L 689.423036 160.195162 
L 690.574464 161.452302 
L 691.150179 161.005428 
L 691.725893 161.727301 
L 692.301607 161.398284 
L 693.453036 162.660335 
L 694.02875 162.778192 
L 694.604464 162.365693 
L 695.180179 162.802745 
L 695.755893 163.942028 
L 696.331607 163.593368 
L 696.907321 162.979531 
L 697.483036 163.264351 
L 698.05875 164.393813 
L 698.634464 164.462563 
L 699.210179 164.92908 
L 699.785893 164.266135 
L 700.361607 165.263007 
L 700.937321 165.218811 
L 701.513036 164.423277 
L 702.08875 166.672379 
L 702.664464 165.395596 
L 703.240179 166.377737 
L 703.815893 166.583987 
L 704.391607 167.060325 
L 704.967321 167.232199 
L 706.11875 168.626839 
L 706.694464 168.543357 
L 707.270179 168.209429 
L 707.845893 169.599158 
L 708.421607 169.864336 
L 708.997321 170.836656 
L 709.573036 171.185315 
L 710.14875 172.285313 
L 710.724464 172.727276 
L 711.300179 172.96299 
L 711.875893 173.959863 
L 712.451607 174.701379 
L 713.027321 175.933965 
L 713.603036 176.1795 
L 714.17875 177.387533 
L 714.754464 177.746015 
L 715.330179 178.870566 
L 716.481607 179.95092 
L 717.057321 181.183507 
L 717.633036 181.266989 
L 718.20875 181.654934 
L 718.784464 183.044663 
L 719.360179 182.67145 
L 719.935893 183.108503 
L 720.511607 184.616088 
L 721.087321 185.092427 
L 721.663036 185.210283 
L 722.23875 185.500015 
L 722.814464 187.100904 
L 723.390179 186.968315 
L 723.965893 187.223672 
L 724.541607 187.881706 
L 725.117321 188.770543 
L 726.844464 190.499111 
L 727.420179 190.420539 
L 727.995893 191.702233 
L 728.571607 191.825001 
L 729.147321 191.707144 
L 730.874464 193.283479 
L 731.450179 194.354013 
L 732.025893 194.290173 
L 733.177321 195.159368 
L 733.753036 195.694635 
L 734.32875 195.640617 
L 734.904464 196.406687 
L 736.055893 196.794632 
L 737.207321 197.791505 
L 737.783036 197.55088 
L 738.934464 198.636146 
L 739.510179 198.582128 
L 740.085893 199.08793 
L 740.661607 199.122305 
L 741.237321 199.299091 
L 741.813036 199.804893 
L 743.540179 200.713373 
L 744.115893 200.841051 
L 745.267321 201.346854 
L 745.843036 201.366497 
L 746.41875 202.201316 
L 746.994464 202.569619 
L 747.570179 202.628547 
L 748.145893 202.471405 
L 749.297321 202.982118 
L 749.873036 202.972297 
L 750.44875 203.669616 
L 751.600179 203.861134 
L 752.175893 204.170508 
L 752.751607 204.101758 
L 753.327321 204.347293 
L 753.903036 204.74506 
L 754.47875 204.867828 
L 755.054464 205.226309 
L 755.630179 205.388362 
L 756.205893 205.771397 
L 757.357321 205.85979 
L 757.933036 206.336128 
L 758.50875 206.233003 
L 759.084464 206.532556 
L 760.235893 206.827198 
L 760.811607 207.166037 
L 761.387321 207.166037 
L 761.963036 207.441036 
L 763.114464 207.480322 
L 763.690179 207.878089 
L 764.265893 208.049964 
L 764.841607 207.765143 
L 765.417321 208.202195 
L 766.56875 208.378981 
L 767.144464 208.487016 
L 767.720179 208.963354 
L 768.295893 208.928979 
L 768.871607 208.727641 
L 769.447321 209.149961 
L 771.174464 209.272729 
L 771.750179 209.42496 
L 772.325893 209.734335 
L 772.901607 209.616478 
L 773.477321 209.783442 
L 774.053036 209.793263 
L 775.204464 210.132102 
L 775.780179 210.151744 
L 776.931607 210.500404 
L 777.507321 210.264691 
L 778.083036 210.549511 
L 778.65875 210.461119 
L 779.810179 210.544601 
L 780.385893 210.839243 
L 781.537321 210.907993 
L 782.113036 211.035671 
L 782.68875 210.809779 
L 787.294464 211.325403 
L 788.87375 211.369599 
L 788.87375 211.369599 
" clip-path="url(#p2f7a9bd051)" style="fill: none; stroke: #bddf26; stroke-width: 2; stroke-linecap: square"/>
   </g>
   <g id="patch_9">
    <path d="M 579.17375 217.877812 
L 579.17375 23.837813 
" style="fill: none; stroke: #b6bccf; stroke-width: 1.2; stroke-linejoin: miter; stroke-linecap: square"/>
   </g>
   <g id="patch_10">
    <path d="M 579.17375 217.877812 
L 780.67375 217.877812 
" style="fill: none; stroke: #b6bccf; stroke-width: 1.2; stroke-linejoin: miter; stroke-linecap: square"/>
   </g>
   <g id="text_45">
    <!-- 51.53 MHz -->
    <g style="fill: #b6bccf" transform="translate(642.681562 17.837812) scale(0.14 -0.14)">
     <use xlink:href="#DejaVuSans-35"/>
     <use xlink:href="#DejaVuSans-31" x="63.623047"/>
     <use xlink:href="#DejaVuSans-2e" x="127.246094"/>
     <use xlink:href="#DejaVuSans-35" x="159.033203"/>
     <use xlink:href="#DejaVuSans-33" x="222.65625"/>
     <use xlink:href="#DejaVuSans-20" x="286.279297"/>
     <use xlink:href="#DejaVuSans-4d" x="318.066406"/>
     <use xlink:href="#DejaVuSans-48" x="404.345703"/>
     <use xlink:href="#DejaVuSans-7a" x="479.541016"/>
    </g>
   </g>
   <g id="legend_3">
    <g id="line2d_76">
     <path d="M 660.191875 39.555938 
L 672.191875 39.555938 
L 684.191875 39.555938 
" style="fill: none; stroke: #5386be; stroke-width: 2; stroke-linecap: square"/>
    </g>
    <g id="text_46">
     <!-- 2d corrected -->
     <g style="fill: #b6bccf" transform="translate(693.791875 43.755938) scale(0.12 -0.12)">
      <use xlink:href="#DejaVuSans-32"/>
      <use xlink:href="#DejaVuSans-64" x="63.623047"/>
      <use xlink:href="#DejaVuSans-20" x="127.099609"/>
      <use xlink:href="#DejaVuSans-63" x="158.886719"/>
      <use xlink:href="#DejaVuSans-6f" x="213.867188"/>
      <use xlink:href="#DejaVuSans-72" x="275.048828"/>
      <use xlink:href="#DejaVuSans-72" x="314.412109"/>
      <use xlink:href="#DejaVuSans-65" x="353.275391"/>
      <use xlink:href="#DejaVuSans-63" x="414.798828"/>
      <use xlink:href="#DejaVuSans-74" x="469.779297"/>
      <use xlink:href="#DejaVuSans-65" x="508.988281"/>
      <use xlink:href="#DejaVuSans-64" x="570.511719"/>
     </g>
    </g>
    <g id="line2d_77">
     <path d="M 660.191875 57.169688 
L 672.191875 57.169688 
L 684.191875 57.169688 
" style="fill: none; stroke: #38d7ac; stroke-width: 2; stroke-linecap: square"/>
    </g>
    <g id="text_47">
     <!-- 1d corrected -->
     <g style="fill: #b6bccf" transform="translate(693.791875 61.369688) scale(0.12 -0.12)">
      <use xlink:href="#DejaVuSans-31"/>
      <use xlink:href="#DejaVuSans-64" x="63.623047"/>
      <use xlink:href="#DejaVuSans-20" x="127.099609"/>
      <use xlink:href="#DejaVuSans-63" x="158.886719"/>
      <use xlink:href="#DejaVuSans-6f" x="213.867188"/>
      <use xlink:href="#DejaVuSans-72" x="275.048828"/>
      <use xlink:href="#DejaVuSans-72" x="314.412109"/>
      <use xlink:href="#DejaVuSans-65" x="353.275391"/>
      <use xlink:href="#DejaVuSans-63" x="414.798828"/>
      <use xlink:href="#DejaVuSans-74" x="469.779297"/>
      <use xlink:href="#DejaVuSans-65" x="508.988281"/>
      <use xlink:href="#DejaVuSans-64" x="570.511719"/>
     </g>
    </g>
    <g id="line2d_78">
     <path d="M 660.191875 74.783438 
L 672.191875 74.783438 
L 684.191875 74.783438 
" style="fill: none; stroke: #bddf26; stroke-width: 2; stroke-linecap: square"/>
    </g>
    <g id="text_48">
     <!-- uncorrected -->
     <g style="fill: #b6bccf" transform="translate(693.791875 78.983438) scale(0.12 -0.12)">
      <use xlink:href="#DejaVuSans-75"/>
      <use xlink:href="#DejaVuSans-6e" x="63.378906"/>
      <use xlink:href="#DejaVuSans-63" x="126.757812"/>
      <use xlink:href="#DejaVuSans-6f" x="181.738281"/>
      <use xlink:href="#DejaVuSans-72" x="242.919922"/>
      <use xlink:href="#DejaVuSans-72" x="282.283203"/>
      <use xlink:href="#DejaVuSans-65" x="321.146484"/>
      <use xlink:href="#DejaVuSans-63" x="382.669922"/>
      <use xlink:href="#DejaVuSans-74" x="437.650391"/>
      <use xlink:href="#DejaVuSans-65" x="476.859375"/>
      <use xlink:href="#DejaVuSans-64" x="538.382812"/>
     </g>
    </g>
   </g>
  </g>
 </g>
 <defs>
  <clipPath id="pc4f20d7152">
   <rect x="55.27375" y="23.837812" width="201.5" height="194.04"/>
  </clipPath>
  <clipPath id="p0e2e8bda14">
   <rect x="317.22375" y="23.837812" width="201.5" height="194.04"/>
  </clipPath>
  <clipPath id="p2f7a9bd051">
   <rect x="579.17375" y="23.837812" width="201.5" height="194.04"/>
  </clipPath>
 </defs>
</svg>
