<svg width="1270" height="332" viewBox="0 0 1270 332" fill="none" xmlns="http://www.w3.org/2000/svg">
<rect x="345.472" y="223.396" width="55.3153" height="21.1627" rx="2.5" fill="#F1CB6B" stroke="#D9B455"/>
<path d="M401.288 233.977C446.303 233.977 453.911 127.498 500.195 127.498" stroke="#464646" stroke-width="4"/>
<path d="M497.867 145.896C497.867 146.294 498.025 146.675 498.307 146.957C498.588 147.238 498.97 147.396 499.367 147.396C507.204 147.396 514.363 145.17 519.603 141.493C524.838 137.82 528.266 132.602 528.266 126.671C528.266 120.74 524.838 115.523 519.603 111.849C514.363 108.173 507.204 105.946 499.367 105.946C498.97 105.946 498.588 106.104 498.307 106.386C498.025 106.667 497.867 107.048 497.867 107.446L497.867 126.671L497.867 145.896Z" fill="#C4C4C4" stroke="#464646" stroke-width="3" stroke-linejoin="round"/>
<path d="M344.972 233.977L231.891 233.977" stroke="#464646" stroke-width="4"/>
<path d="M249.626 227.037C255.305 227.037 254.674 206.571 255.305 196.337" stroke="#FF5252" stroke-width="2" stroke-linecap="round"/>
<path d="M270.448 227.037C276.127 227.037 275.496 206.571 276.127 196.337" stroke="#FF5252" stroke-width="2" stroke-linecap="round"/>
<path d="M315.879 227.037C321.558 227.037 320.927 206.571 321.558 196.337" stroke="#FF5252" stroke-width="2" stroke-linecap="round"/>
<path d="M255.305 196.337C255.936 206.571 255.305 227.037 260.984 227.037H270.638" stroke="#FF5252" stroke-width="2" stroke-linecap="round"/>
<path d="M276.127 196.337C276.758 206.571 276.127 227.037 281.806 227.037H293.164" stroke="#FF5252" stroke-width="2" stroke-linecap="round"/>
<path d="M327.237 227.037C321.558 227.037 322.189 206.571 321.558 196.337" stroke="#FF5252" stroke-width="2" stroke-linecap="round"/>
<path d="M293.164 227.037C298.843 227.037 298.212 206.571 298.843 196.337" stroke="#FF5252" stroke-width="2" stroke-linecap="round"/>
<path d="M298.843 196.337C299.474 206.571 298.843 227.037 304.522 227.037H315.879" stroke="#FF5252" stroke-width="2" stroke-linecap="round"/>
<rect x="144.997" y="213.17" width="86.8941" height="41.6149" rx="3" fill="#2C2C2C"/>
<path d="M201.529 226.142L217.51 241.813" stroke="#FF6060" stroke-width="3" stroke-linecap="round"/>
<path d="M209.52 222.896V245.059" stroke="#FF6060" stroke-width="3" stroke-linecap="round"/>
<path d="M217.51 226.142L201.529 241.813" stroke="#FF6060" stroke-width="3" stroke-linecap="round"/>
<path d="M220.82 233.977H156.068" stroke="#FF6060" stroke-width="3" stroke-linecap="round"/>
<path d="M402.181 165.968V152.877H404.729V165.968H402.181ZM403.468 150.857C403.025 150.857 402.644 150.709 402.326 150.414C402.013 150.113 401.857 149.755 401.857 149.34C401.857 148.92 402.013 148.562 402.326 148.266C402.644 147.965 403.025 147.815 403.468 147.815C403.911 147.815 404.289 147.965 404.601 148.266C404.919 148.562 405.079 148.92 405.079 149.34C405.079 149.755 404.919 150.113 404.601 150.414C404.289 150.709 403.911 150.857 403.468 150.857ZM413.058 166.224C412.001 166.224 411.058 165.954 410.228 165.414C409.405 164.869 408.757 164.093 408.285 163.087C407.819 162.076 407.586 160.863 407.586 159.448C407.586 158.033 407.822 156.823 408.294 155.817C408.771 154.812 409.424 154.042 410.254 153.508C411.084 152.974 412.024 152.707 413.075 152.707C413.887 152.707 414.541 152.843 415.035 153.116C415.535 153.383 415.922 153.695 416.194 154.053C416.473 154.411 416.689 154.727 416.842 154.999H416.995V148.513H419.544V165.968H417.055V163.931H416.842C416.689 164.209 416.467 164.528 416.177 164.886C415.893 165.244 415.501 165.556 415.001 165.823C414.501 166.09 413.853 166.224 413.058 166.224ZM413.62 164.05C414.353 164.05 414.973 163.857 415.478 163.471C415.99 163.079 416.376 162.536 416.637 161.843C416.905 161.15 417.038 160.343 417.038 159.423C417.038 158.513 416.907 157.718 416.646 157.036C416.385 156.354 416.001 155.823 415.495 155.442C414.99 155.062 414.365 154.871 413.62 154.871C412.853 154.871 412.214 155.07 411.703 155.468C411.191 155.866 410.805 156.408 410.544 157.096C410.288 157.783 410.16 158.559 410.16 159.423C410.16 160.298 410.291 161.084 410.552 161.783C410.814 162.482 411.2 163.036 411.711 163.445C412.228 163.849 412.865 164.05 413.62 164.05ZM425.729 148.513V165.968H423.181V148.513H425.729ZM434.799 166.232C433.51 166.232 432.399 165.957 431.467 165.406C430.541 164.849 429.825 164.067 429.319 163.062C428.819 162.05 428.569 160.866 428.569 159.508C428.569 158.167 428.819 156.985 429.319 155.962C429.825 154.94 430.53 154.141 431.433 153.567C432.342 152.994 433.405 152.707 434.62 152.707C435.359 152.707 436.075 152.829 436.768 153.073C437.461 153.317 438.084 153.701 438.635 154.224C439.186 154.746 439.62 155.425 439.939 156.261C440.257 157.09 440.416 158.099 440.416 159.286V160.19H430.01V158.281H437.919C437.919 157.61 437.782 157.016 437.51 156.499C437.237 155.977 436.853 155.565 436.359 155.263C435.87 154.962 435.297 154.812 434.637 154.812C433.922 154.812 433.297 154.988 432.762 155.34C432.234 155.687 431.825 156.141 431.535 156.704C431.251 157.261 431.109 157.866 431.109 158.519V160.011C431.109 160.886 431.262 161.63 431.569 162.244C431.882 162.857 432.316 163.326 432.873 163.65C433.43 163.968 434.081 164.127 434.825 164.127C435.308 164.127 435.748 164.059 436.146 163.923C436.544 163.781 436.887 163.57 437.177 163.292C437.467 163.013 437.689 162.67 437.842 162.261L440.254 162.695C440.061 163.406 439.714 164.028 439.214 164.562C438.72 165.09 438.098 165.502 437.348 165.798C436.603 166.087 435.754 166.232 434.799 166.232ZM443.243 165.968V152.877H445.706V154.957H445.843C446.081 154.252 446.502 153.698 447.104 153.295C447.712 152.886 448.4 152.681 449.167 152.681C449.326 152.681 449.513 152.687 449.729 152.698C449.951 152.709 450.124 152.724 450.249 152.741V155.178C450.147 155.15 449.965 155.119 449.704 155.084C449.442 155.045 449.181 155.025 448.919 155.025C448.317 155.025 447.78 155.153 447.309 155.408C446.843 155.658 446.473 156.008 446.201 156.457C445.928 156.9 445.792 157.406 445.792 157.974V165.968H443.243Z" fill="#464646"/>
<path d="M464.39 255.683L462.08 256.092C461.984 255.797 461.83 255.515 461.62 255.248C461.416 254.981 461.137 254.763 460.785 254.592C460.433 254.422 459.992 254.336 459.464 254.336C458.742 254.336 458.14 254.498 457.657 254.822C457.174 255.14 456.933 255.552 456.933 256.058C456.933 256.496 457.095 256.848 457.418 257.115C457.742 257.382 458.265 257.601 458.987 257.771L461.066 258.248C462.271 258.527 463.168 258.956 463.759 259.535C464.35 260.115 464.646 260.868 464.646 261.794C464.646 262.578 464.418 263.277 463.964 263.89C463.515 264.498 462.887 264.976 462.08 265.322C461.279 265.669 460.35 265.842 459.293 265.842C457.828 265.842 456.631 265.53 455.705 264.905C454.779 264.274 454.211 263.379 454.001 262.22L456.464 261.845C456.617 262.487 456.933 262.973 457.41 263.302C457.887 263.626 458.509 263.788 459.276 263.788C460.112 263.788 460.779 263.615 461.279 263.268C461.779 262.916 462.029 262.487 462.029 261.981C462.029 261.572 461.876 261.228 461.569 260.95C461.268 260.672 460.805 260.461 460.18 260.319L457.964 259.834C456.742 259.555 455.839 259.112 455.254 258.504C454.674 257.896 454.384 257.126 454.384 256.194C454.384 255.422 454.6 254.746 455.032 254.166C455.464 253.586 456.06 253.135 456.822 252.811C457.583 252.481 458.455 252.317 459.438 252.317C460.853 252.317 461.967 252.623 462.779 253.237C463.592 253.845 464.129 254.66 464.39 255.683ZM467.448 265.578V252.487H469.996V265.578H467.448ZM468.734 250.467C468.291 250.467 467.911 250.319 467.592 250.024C467.28 249.723 467.124 249.365 467.124 248.95C467.124 248.53 467.28 248.172 467.592 247.876C467.911 247.575 468.291 247.425 468.734 247.425C469.178 247.425 469.555 247.575 469.868 247.876C470.186 248.172 470.345 248.53 470.345 248.95C470.345 249.365 470.186 249.723 469.868 250.024C469.555 250.319 469.178 250.467 468.734 250.467ZM478.913 270.76C477.873 270.76 476.978 270.623 476.228 270.351C475.484 270.078 474.876 269.717 474.404 269.268C473.933 268.819 473.58 268.328 473.347 267.794L475.538 266.89C475.691 267.14 475.896 267.405 476.151 267.683C476.413 267.967 476.765 268.209 477.208 268.407C477.657 268.606 478.234 268.706 478.938 268.706C479.904 268.706 480.703 268.47 481.333 267.998C481.964 267.532 482.279 266.788 482.279 265.765V263.192H482.117C481.964 263.47 481.742 263.78 481.453 264.121C481.168 264.461 480.776 264.757 480.276 265.007C479.776 265.257 479.126 265.382 478.325 265.382C477.291 265.382 476.359 265.14 475.529 264.657C474.705 264.169 474.052 263.45 473.569 262.501C473.092 261.547 472.853 260.373 472.853 258.981C472.853 257.589 473.089 256.396 473.56 255.402C474.038 254.407 474.691 253.646 475.521 253.118C476.35 252.584 477.291 252.317 478.342 252.317C479.154 252.317 479.81 252.453 480.31 252.726C480.81 252.993 481.2 253.305 481.478 253.663C481.762 254.021 481.981 254.336 482.134 254.609H482.322V252.487H484.819V265.868C484.819 266.993 484.558 267.916 484.035 268.638C483.512 269.359 482.805 269.893 481.913 270.24C481.026 270.586 480.026 270.76 478.913 270.76ZM478.887 263.268C479.62 263.268 480.239 263.098 480.745 262.757C481.256 262.41 481.643 261.916 481.904 261.274C482.171 260.626 482.305 259.851 482.305 258.947C482.305 258.067 482.174 257.291 481.913 256.621C481.651 255.95 481.268 255.427 480.762 255.052C480.256 254.672 479.631 254.481 478.887 254.481C478.12 254.481 477.481 254.68 476.97 255.078C476.458 255.47 476.072 256.004 475.81 256.68C475.555 257.356 475.427 258.112 475.427 258.947C475.427 259.805 475.558 260.558 475.819 261.206C476.08 261.853 476.467 262.359 476.978 262.723C477.495 263.086 478.131 263.268 478.887 263.268ZM490.785 257.805V265.578H488.237V252.487H490.683V254.618H490.845C491.146 253.925 491.617 253.368 492.259 252.947C492.907 252.527 493.722 252.317 494.705 252.317C495.597 252.317 496.379 252.504 497.049 252.879C497.72 253.248 498.239 253.8 498.609 254.532C498.978 255.265 499.163 256.172 499.163 257.251V265.578H496.614V257.558C496.614 256.609 496.367 255.868 495.873 255.334C495.379 254.794 494.7 254.524 493.836 254.524C493.245 254.524 492.72 254.652 492.259 254.907C491.805 255.163 491.444 255.538 491.177 256.032C490.916 256.521 490.785 257.112 490.785 257.805ZM506.39 265.868C505.56 265.868 504.81 265.714 504.14 265.407C503.47 265.095 502.938 264.643 502.546 264.052C502.16 263.461 501.967 262.737 501.967 261.879C501.967 261.14 502.109 260.532 502.393 260.055C502.677 259.578 503.06 259.2 503.543 258.922C504.026 258.643 504.566 258.433 505.163 258.291C505.759 258.149 506.367 258.041 506.987 257.967C507.771 257.876 508.407 257.802 508.896 257.746C509.384 257.683 509.739 257.584 509.961 257.447C510.183 257.311 510.293 257.089 510.293 256.782V256.723C510.293 255.978 510.083 255.402 509.663 254.993C509.248 254.584 508.629 254.379 507.805 254.379C506.947 254.379 506.271 254.569 505.776 254.95C505.288 255.325 504.95 255.743 504.762 256.203L502.367 255.657C502.651 254.862 503.066 254.22 503.612 253.731C504.163 253.237 504.796 252.879 505.512 252.657C506.228 252.43 506.981 252.317 507.771 252.317C508.293 252.317 508.847 252.379 509.433 252.504C510.024 252.623 510.575 252.845 511.086 253.169C511.603 253.493 512.026 253.956 512.356 254.558C512.685 255.155 512.85 255.93 512.85 256.885V265.578H510.362V263.788H510.259C510.095 264.118 509.847 264.442 509.518 264.76C509.188 265.078 508.765 265.342 508.248 265.552C507.731 265.763 507.112 265.868 506.39 265.868ZM506.944 263.822C507.649 263.822 508.251 263.683 508.751 263.405C509.256 263.126 509.64 262.763 509.901 262.314C510.168 261.859 510.302 261.373 510.302 260.856V259.169C510.211 259.26 510.035 259.345 509.774 259.425C509.518 259.498 509.225 259.564 508.896 259.621C508.566 259.672 508.245 259.72 507.933 259.765C507.62 259.805 507.359 259.839 507.149 259.868C506.654 259.93 506.203 260.035 505.793 260.183C505.39 260.331 505.066 260.544 504.822 260.822C504.583 261.095 504.464 261.459 504.464 261.913C504.464 262.544 504.697 263.021 505.163 263.345C505.629 263.663 506.222 263.822 506.944 263.822ZM518.793 248.123V265.578H516.244V248.123H518.793Z" fill="#464646"/>
<path d="M351.3 259.956C351.209 259.149 350.834 258.524 350.175 258.081C349.516 257.632 348.686 257.407 347.686 257.407C346.97 257.407 346.351 257.521 345.828 257.748C345.305 257.97 344.899 258.277 344.609 258.669C344.325 259.055 344.183 259.495 344.183 259.99C344.183 260.405 344.28 260.763 344.473 261.064C344.672 261.365 344.93 261.618 345.248 261.822C345.572 262.021 345.919 262.189 346.288 262.325C346.658 262.456 347.013 262.564 347.354 262.649L349.058 263.092C349.615 263.228 350.186 263.413 350.771 263.646C351.356 263.879 351.899 264.186 352.399 264.566C352.899 264.947 353.302 265.419 353.609 265.981C353.922 266.544 354.078 267.217 354.078 268.001C354.078 268.99 353.822 269.868 353.311 270.635C352.805 271.402 352.069 272.007 351.104 272.45C350.143 272.893 348.981 273.115 347.618 273.115C346.311 273.115 345.18 272.907 344.226 272.493C343.271 272.078 342.524 271.49 341.984 270.728C341.444 269.961 341.146 269.052 341.089 268.001H343.731C343.783 268.632 343.987 269.157 344.345 269.578C344.709 269.993 345.172 270.302 345.734 270.507C346.302 270.706 346.925 270.805 347.601 270.805C348.345 270.805 349.007 270.689 349.587 270.456C350.172 270.217 350.632 269.888 350.967 269.467C351.302 269.041 351.47 268.544 351.47 267.976C351.47 267.459 351.322 267.035 351.027 266.706C350.737 266.376 350.342 266.103 349.842 265.888C349.348 265.672 348.788 265.481 348.163 265.316L346.101 264.754C344.703 264.373 343.595 263.814 342.777 263.075C341.964 262.336 341.558 261.359 341.558 260.143C341.558 259.138 341.831 258.26 342.376 257.51C342.922 256.76 343.66 256.177 344.592 255.763C345.524 255.342 346.575 255.132 347.746 255.132C348.927 255.132 349.97 255.339 350.873 255.754C351.783 256.169 352.498 256.74 353.021 257.467C353.544 258.189 353.817 259.018 353.839 259.956H351.3ZM357.225 272.825V255.37H363.447C364.805 255.37 365.93 255.618 366.822 256.112C367.714 256.606 368.381 257.282 368.824 258.14C369.268 258.993 369.489 259.953 369.489 261.021C369.489 262.095 369.265 263.061 368.816 263.919C368.373 264.771 367.702 265.447 366.805 265.947C365.913 266.441 364.79 266.689 363.438 266.689H359.16V264.456H363.199C364.057 264.456 364.753 264.308 365.288 264.013C365.822 263.711 366.214 263.302 366.464 262.785C366.714 262.268 366.839 261.68 366.839 261.021C366.839 260.362 366.714 259.777 366.464 259.265C366.214 258.754 365.819 258.353 365.279 258.064C364.745 257.774 364.04 257.629 363.165 257.629H359.859V272.825H357.225ZM378.227 272.825H372.577V255.37H378.406C380.116 255.37 381.585 255.72 382.812 256.419C384.04 257.112 384.98 258.109 385.633 259.41C386.293 260.706 386.622 262.26 386.622 264.072C386.622 265.89 386.29 267.453 385.625 268.76C384.966 270.066 384.011 271.072 382.761 271.777C381.511 272.476 380 272.825 378.227 272.825ZM375.21 270.524H378.082C379.412 270.524 380.517 270.274 381.398 269.774C382.278 269.268 382.937 268.538 383.375 267.584C383.812 266.623 384.031 265.453 384.031 264.072C384.031 262.703 383.812 261.541 383.375 260.586C382.943 259.632 382.298 258.907 381.44 258.413C380.582 257.919 379.517 257.672 378.244 257.672H375.21V270.524ZM404.394 261.047H401.735C401.633 260.478 401.442 259.978 401.164 259.547C400.886 259.115 400.545 258.748 400.141 258.447C399.738 258.146 399.286 257.919 398.786 257.765C398.292 257.612 397.766 257.535 397.209 257.535C396.204 257.535 395.303 257.788 394.508 258.294C393.718 258.799 393.093 259.541 392.633 260.518C392.178 261.495 391.951 262.689 391.951 264.098C391.951 265.518 392.178 266.717 392.633 267.694C393.093 268.672 393.721 269.41 394.516 269.91C395.312 270.41 396.207 270.66 397.201 270.66C397.752 270.66 398.275 270.586 398.769 270.439C399.269 270.285 399.721 270.061 400.124 269.765C400.528 269.47 400.868 269.109 401.147 268.683C401.431 268.251 401.627 267.757 401.735 267.2L404.394 267.209C404.252 268.066 403.976 268.856 403.567 269.578C403.164 270.294 402.644 270.913 402.008 271.436C401.377 271.953 400.655 272.353 399.843 272.638C399.03 272.922 398.144 273.064 397.184 273.064C395.672 273.064 394.326 272.706 393.144 271.99C391.962 271.268 391.03 270.237 390.349 268.896C389.672 267.555 389.334 265.956 389.334 264.098C389.334 262.234 389.675 260.635 390.357 259.299C391.039 257.959 391.971 256.93 393.153 256.214C394.334 255.493 395.678 255.132 397.184 255.132C398.11 255.132 398.974 255.265 399.775 255.532C400.582 255.794 401.306 256.18 401.948 256.691C402.59 257.197 403.121 257.816 403.542 258.549C403.962 259.277 404.246 260.109 404.394 261.047Z" fill="#D9B455"/>
<path d="M125.061 283.618V266.163H131.283C132.641 266.163 133.766 266.411 134.658 266.905C135.55 267.399 136.218 268.075 136.661 268.933C137.104 269.786 137.326 270.746 137.326 271.814C137.326 272.888 137.101 273.854 136.652 274.712C136.209 275.564 135.539 276.24 134.641 276.74C133.749 277.235 132.627 277.482 131.274 277.482H126.996V275.249H131.036C131.894 275.249 132.59 275.101 133.124 274.806C133.658 274.504 134.05 274.095 134.3 273.578C134.55 273.061 134.675 272.473 134.675 271.814C134.675 271.155 134.55 270.57 134.3 270.058C134.05 269.547 133.655 269.146 133.115 268.857C132.581 268.567 131.877 268.422 131.002 268.422H127.695V283.618H125.061ZM148.501 278.189V270.527H151.058V283.618H148.552V281.351H148.416C148.115 282.05 147.632 282.632 146.967 283.098C146.308 283.558 145.487 283.788 144.504 283.788C143.663 283.788 142.919 283.604 142.271 283.235C141.629 282.86 141.123 282.306 140.754 281.573C140.39 280.84 140.208 279.933 140.208 278.854V270.527H142.757V278.547C142.757 279.439 143.004 280.149 143.498 280.678C143.992 281.206 144.635 281.47 145.424 281.47C145.902 281.47 146.376 281.351 146.848 281.112C147.325 280.874 147.72 280.513 148.032 280.03C148.35 279.547 148.507 278.933 148.501 278.189ZM157.03 266.163V283.618H154.482V266.163H157.03ZM170.268 273.723L167.958 274.132C167.862 273.837 167.708 273.556 167.498 273.288C167.294 273.021 167.015 272.803 166.663 272.632C166.311 272.462 165.87 272.377 165.342 272.377C164.62 272.377 164.018 272.538 163.535 272.862C163.052 273.181 162.811 273.592 162.811 274.098C162.811 274.536 162.973 274.888 163.296 275.155C163.62 275.422 164.143 275.641 164.865 275.811L166.944 276.288C168.149 276.567 169.046 276.996 169.637 277.575C170.228 278.155 170.524 278.908 170.524 279.834C170.524 280.618 170.296 281.317 169.842 281.931C169.393 282.538 168.765 283.016 167.958 283.362C167.157 283.709 166.228 283.882 165.171 283.882C163.706 283.882 162.51 283.57 161.583 282.945C160.657 282.314 160.089 281.419 159.879 280.26L162.342 279.885C162.495 280.527 162.811 281.013 163.288 281.342C163.765 281.666 164.387 281.828 165.154 281.828C165.99 281.828 166.657 281.655 167.157 281.308C167.657 280.956 167.907 280.527 167.907 280.021C167.907 279.612 167.754 279.269 167.447 278.99C167.146 278.712 166.683 278.502 166.058 278.36L163.842 277.874C162.62 277.595 161.717 277.152 161.132 276.544C160.552 275.936 160.262 275.166 160.262 274.235C160.262 273.462 160.478 272.786 160.91 272.206C161.342 271.627 161.939 271.175 162.7 270.851C163.461 270.521 164.333 270.357 165.316 270.357C166.731 270.357 167.845 270.663 168.657 271.277C169.47 271.885 170.007 272.7 170.268 273.723ZM178.968 283.882C177.678 283.882 176.567 283.607 175.635 283.056C174.709 282.499 173.993 281.717 173.488 280.712C172.988 279.7 172.738 278.516 172.738 277.158C172.738 275.817 172.988 274.635 173.488 273.612C173.993 272.59 174.698 271.791 175.601 271.217C176.51 270.644 177.573 270.357 178.789 270.357C179.527 270.357 180.243 270.479 180.936 270.723C181.63 270.967 182.252 271.351 182.803 271.874C183.354 272.396 183.789 273.075 184.107 273.911C184.425 274.74 184.584 275.749 184.584 276.936V277.84H174.178V275.931H182.087C182.087 275.26 181.951 274.666 181.678 274.149C181.405 273.627 181.022 273.215 180.527 272.913C180.039 272.612 179.465 272.462 178.806 272.462C178.09 272.462 177.465 272.638 176.931 272.99C176.402 273.337 175.993 273.791 175.703 274.354C175.419 274.911 175.277 275.516 175.277 276.169V277.661C175.277 278.536 175.431 279.28 175.738 279.894C176.05 280.507 176.485 280.976 177.041 281.3C177.598 281.618 178.249 281.777 178.993 281.777C179.476 281.777 179.916 281.709 180.314 281.573C180.712 281.431 181.056 281.22 181.345 280.942C181.635 280.663 181.857 280.32 182.01 279.911L184.422 280.345C184.229 281.056 183.882 281.678 183.382 282.212C182.888 282.74 182.266 283.152 181.516 283.448C180.772 283.737 179.922 283.882 178.968 283.882ZM192.312 283.874C191.255 283.874 190.312 283.604 189.483 283.064C188.659 282.519 188.011 281.743 187.539 280.737C187.073 279.726 186.841 278.513 186.841 277.098C186.841 275.683 187.076 274.473 187.548 273.467C188.025 272.462 188.679 271.692 189.508 271.158C190.338 270.624 191.278 270.357 192.329 270.357C193.142 270.357 193.795 270.493 194.289 270.766C194.789 271.033 195.176 271.345 195.448 271.703C195.727 272.061 195.943 272.377 196.096 272.649H196.25V266.163H198.798V283.618H196.309V281.581H196.096C195.943 281.86 195.721 282.178 195.431 282.536C195.147 282.894 194.755 283.206 194.255 283.473C193.755 283.74 193.108 283.874 192.312 283.874ZM192.875 281.7C193.608 281.7 194.227 281.507 194.733 281.121C195.244 280.729 195.63 280.186 195.892 279.493C196.159 278.8 196.292 277.993 196.292 277.073C196.292 276.163 196.162 275.368 195.9 274.686C195.639 274.004 195.255 273.473 194.75 273.092C194.244 272.712 193.619 272.521 192.875 272.521C192.108 272.521 191.468 272.72 190.957 273.118C190.446 273.516 190.059 274.058 189.798 274.746C189.542 275.433 189.414 276.209 189.414 277.073C189.414 277.948 189.545 278.735 189.806 279.433C190.068 280.132 190.454 280.686 190.966 281.095C191.483 281.499 192.119 281.7 192.875 281.7ZM208.991 283.618V266.163H211.625V281.351H219.534V283.618H208.991ZM226.143 283.908C225.314 283.908 224.564 283.754 223.893 283.448C223.223 283.135 222.691 282.683 222.299 282.092C221.913 281.502 221.72 280.777 221.72 279.919C221.72 279.181 221.862 278.573 222.146 278.095C222.43 277.618 222.814 277.24 223.296 276.962C223.779 276.683 224.319 276.473 224.916 276.331C225.512 276.189 226.12 276.081 226.74 276.007C227.524 275.916 228.16 275.842 228.649 275.786C229.137 275.723 229.492 275.624 229.714 275.487C229.936 275.351 230.046 275.129 230.046 274.823V274.763C230.046 274.019 229.836 273.442 229.416 273.033C229.001 272.624 228.382 272.419 227.558 272.419C226.7 272.419 226.024 272.61 225.529 272.99C225.041 273.365 224.703 273.783 224.515 274.243L222.12 273.698C222.404 272.902 222.819 272.26 223.365 271.771C223.916 271.277 224.549 270.919 225.265 270.698C225.981 270.47 226.734 270.357 227.524 270.357C228.046 270.357 228.6 270.419 229.186 270.544C229.777 270.663 230.328 270.885 230.839 271.209C231.356 271.533 231.779 271.996 232.109 272.598C232.439 273.195 232.603 273.97 232.603 274.925V283.618H230.115V281.828H230.012C229.848 282.158 229.6 282.482 229.271 282.8C228.941 283.118 228.518 283.382 228.001 283.592C227.484 283.803 226.865 283.908 226.143 283.908ZM226.697 281.862C227.402 281.862 228.004 281.723 228.504 281.445C229.01 281.166 229.393 280.803 229.654 280.354C229.921 279.899 230.055 279.413 230.055 278.896V277.209C229.964 277.3 229.788 277.385 229.527 277.465C229.271 277.538 228.978 277.604 228.649 277.661C228.319 277.712 227.998 277.76 227.686 277.806C227.373 277.845 227.112 277.879 226.902 277.908C226.407 277.97 225.956 278.075 225.546 278.223C225.143 278.371 224.819 278.584 224.575 278.862C224.336 279.135 224.217 279.499 224.217 279.953C224.217 280.584 224.45 281.061 224.916 281.385C225.382 281.703 225.975 281.862 226.697 281.862ZM245.807 273.723L243.497 274.132C243.401 273.837 243.247 273.556 243.037 273.288C242.833 273.021 242.554 272.803 242.202 272.632C241.85 272.462 241.409 272.377 240.881 272.377C240.159 272.377 239.557 272.538 239.074 272.862C238.591 273.181 238.35 273.592 238.35 274.098C238.35 274.536 238.512 274.888 238.836 275.155C239.159 275.422 239.682 275.641 240.404 275.811L242.483 276.288C243.688 276.567 244.586 276.996 245.176 277.575C245.767 278.155 246.063 278.908 246.063 279.834C246.063 280.618 245.836 281.317 245.381 281.931C244.932 282.538 244.304 283.016 243.497 283.362C242.696 283.709 241.767 283.882 240.711 283.882C239.245 283.882 238.049 283.57 237.122 282.945C236.196 282.314 235.628 281.419 235.418 280.26L237.881 279.885C238.034 280.527 238.35 281.013 238.827 281.342C239.304 281.666 239.926 281.828 240.693 281.828C241.529 281.828 242.196 281.655 242.696 281.308C243.196 280.956 243.446 280.527 243.446 280.021C243.446 279.612 243.293 279.269 242.986 278.99C242.685 278.712 242.222 278.502 241.597 278.36L239.381 277.874C238.159 277.595 237.256 277.152 236.671 276.544C236.091 275.936 235.801 275.166 235.801 274.235C235.801 273.462 236.017 272.786 236.449 272.206C236.881 271.627 237.478 271.175 238.239 270.851C239 270.521 239.872 270.357 240.855 270.357C242.27 270.357 243.384 270.663 244.196 271.277C245.009 271.885 245.546 272.7 245.807 273.723ZM254.507 283.882C253.217 283.882 252.106 283.607 251.174 283.056C250.248 282.499 249.532 281.717 249.027 280.712C248.527 279.7 248.277 278.516 248.277 277.158C248.277 275.817 248.527 274.635 249.027 273.612C249.532 272.59 250.237 271.791 251.14 271.217C252.049 270.644 253.112 270.357 254.328 270.357C255.066 270.357 255.782 270.479 256.475 270.723C257.169 270.967 257.791 271.351 258.342 271.874C258.893 272.396 259.328 273.075 259.646 273.911C259.964 274.74 260.123 275.749 260.123 276.936V277.84H249.717V275.931H257.626C257.626 275.26 257.49 274.666 257.217 274.149C256.944 273.627 256.561 273.215 256.066 272.913C255.578 272.612 255.004 272.462 254.345 272.462C253.629 272.462 253.004 272.638 252.47 272.99C251.941 273.337 251.532 273.791 251.242 274.354C250.958 274.911 250.816 275.516 250.816 276.169V277.661C250.816 278.536 250.97 279.28 251.277 279.894C251.589 280.507 252.024 280.976 252.581 281.3C253.137 281.618 253.788 281.777 254.532 281.777C255.015 281.777 255.456 281.709 255.853 281.573C256.251 281.431 256.595 281.22 256.885 280.942C257.174 280.663 257.396 280.32 257.549 279.911L259.961 280.345C259.768 281.056 259.421 281.678 258.921 282.212C258.427 282.74 257.805 283.152 257.055 283.448C256.311 283.737 255.461 283.882 254.507 283.882ZM262.951 283.618V270.527H265.414V272.607H265.55C265.789 271.902 266.209 271.348 266.811 270.945C267.419 270.536 268.107 270.331 268.874 270.331C269.033 270.331 269.22 270.337 269.436 270.348C269.658 270.36 269.831 270.374 269.956 270.391V272.828C269.854 272.8 269.672 272.769 269.411 272.735C269.149 272.695 268.888 272.675 268.627 272.675C268.024 272.675 267.488 272.803 267.016 273.058C266.55 273.308 266.181 273.658 265.908 274.107C265.635 274.55 265.499 275.056 265.499 275.624V283.618H262.951Z" fill="#2C2C2C"/>
<path d="M485.584 82.1175C485.493 81.3107 485.118 80.6857 484.459 80.2425C483.799 79.7937 482.97 79.5692 481.97 79.5692C481.254 79.5692 480.635 79.6829 480.112 79.9102C479.589 80.1317 479.183 80.4386 478.893 80.8306C478.609 81.217 478.467 81.6573 478.467 82.1516C478.467 82.5664 478.564 82.9244 478.757 83.2255C478.956 83.5266 479.214 83.7795 479.532 83.984C479.856 84.1829 480.203 84.3505 480.572 84.4869C480.941 84.6175 481.297 84.7255 481.638 84.8107L483.342 85.2539C483.899 85.3903 484.47 85.5749 485.055 85.8079C485.64 86.0408 486.183 86.3477 486.683 86.7283C487.183 87.109 487.586 87.5806 487.893 88.1431C488.206 88.7056 488.362 89.3789 488.362 90.163C488.362 91.1516 488.106 92.0295 487.595 92.7965C487.089 93.5636 486.353 94.1687 485.388 94.6119C484.427 95.055 483.265 95.2766 481.902 95.2766C480.595 95.2766 479.464 95.0692 478.51 94.6545C477.555 94.2397 476.808 93.6516 476.268 92.8903C475.728 92.1232 475.43 91.2141 475.373 90.163H478.015C478.066 90.7937 478.271 91.3192 478.629 91.7397C478.993 92.1545 479.456 92.4641 480.018 92.6687C480.586 92.8675 481.209 92.967 481.885 92.967C482.629 92.967 483.291 92.8505 483.87 92.6175C484.456 92.3789 484.916 92.0494 485.251 91.6289C485.586 91.2028 485.754 90.7056 485.754 90.1374C485.754 89.6204 485.606 89.1971 485.311 88.8675C485.021 88.538 484.626 88.2653 484.126 88.0494C483.632 87.8335 483.072 87.6431 482.447 87.4783L480.385 86.9158C478.987 86.5352 477.879 85.9755 477.061 85.2369C476.248 84.4982 475.842 83.521 475.842 82.305C475.842 81.2994 476.115 80.4215 476.66 79.6715C477.206 78.9215 477.944 78.3391 478.876 77.9244C479.808 77.5039 480.859 77.2937 482.03 77.2937C483.211 77.2937 484.254 77.5011 485.157 77.9158C486.066 78.3306 486.782 78.9016 487.305 79.6289C487.828 80.3505 488.101 81.18 488.123 82.1175H485.584ZM505.597 77.5323V94.9869H503.177L494.304 82.1857H494.142V94.9869H491.509V77.5323H493.946L502.827 90.3505H502.989V77.5323H505.597ZM518.959 82.1175C518.868 81.3107 518.493 80.6857 517.834 80.2425C517.174 79.7937 516.345 79.5692 515.345 79.5692C514.629 79.5692 514.01 79.6829 513.487 79.9102C512.964 80.1317 512.558 80.4386 512.268 80.8306C511.984 81.217 511.842 81.6573 511.842 82.1516C511.842 82.5664 511.939 82.9244 512.132 83.2255C512.331 83.5266 512.589 83.7795 512.907 83.984C513.231 84.1829 513.578 84.3505 513.947 84.4869C514.316 84.6175 514.672 84.7255 515.013 84.8107L516.717 85.2539C517.274 85.3903 517.845 85.5749 518.43 85.8079C519.015 86.0408 519.558 86.3477 520.058 86.7283C520.558 87.109 520.961 87.5806 521.268 88.1431C521.581 88.7056 521.737 89.3789 521.737 90.163C521.737 91.1516 521.481 92.0295 520.97 92.7965C520.464 93.5636 519.728 94.1687 518.763 94.6119C517.802 95.055 516.64 95.2766 515.277 95.2766C513.97 95.2766 512.839 95.0692 511.885 94.6545C510.93 94.2397 510.183 93.6516 509.643 92.8903C509.103 92.1232 508.805 91.2141 508.748 90.163H511.39C511.441 90.7937 511.646 91.3192 512.004 91.7397C512.368 92.1545 512.831 92.4641 513.393 92.6687C513.961 92.8675 514.584 92.967 515.26 92.967C516.004 92.967 516.666 92.8505 517.245 92.6175C517.831 92.3789 518.291 92.0494 518.626 91.6289C518.961 91.2028 519.129 90.7056 519.129 90.1374C519.129 89.6204 518.981 89.1971 518.686 88.8675C518.396 88.538 518.001 88.2653 517.501 88.0494C517.007 87.8335 516.447 87.6431 515.822 87.4783L513.76 86.9158C512.362 86.5352 511.254 85.9755 510.436 85.2369C509.623 84.4982 509.217 83.521 509.217 82.305C509.217 81.2994 509.49 80.4215 510.035 79.6715C510.581 78.9215 511.319 78.3391 512.251 77.9244C513.183 77.5039 514.234 77.2937 515.405 77.2937C516.586 77.2937 517.629 77.5011 518.532 77.9158C519.441 78.3306 520.157 78.9016 520.68 79.6289C521.203 80.3505 521.476 81.18 521.498 82.1175H518.959ZM524.884 94.9869V77.5323H531.106C532.463 77.5323 533.588 77.7795 534.481 78.2738C535.373 78.7681 536.04 79.4442 536.483 80.3022C536.927 81.1545 537.148 82.1147 537.148 83.1829C537.148 84.2567 536.924 85.2227 536.475 86.0806C536.032 86.9329 535.361 87.609 534.463 88.109C533.571 88.6033 532.449 88.8505 531.097 88.8505H526.819V86.6175H530.858C531.716 86.6175 532.412 86.4698 532.946 86.1744C533.481 85.8732 533.873 85.4641 534.123 84.9471C534.373 84.43 534.498 83.842 534.498 83.1829C534.498 82.5238 534.373 81.9386 534.123 81.4272C533.873 80.9158 533.478 80.5153 532.938 80.2255C532.404 79.9357 531.699 79.7908 530.824 79.7908H527.517V94.9869H524.884ZM545.886 94.9869H540.236V77.5323H546.065C547.775 77.5323 549.244 77.8817 550.471 78.5806C551.699 79.2738 552.639 80.271 553.292 81.5721C553.951 82.8675 554.281 84.4215 554.281 86.234C554.281 88.0522 553.949 89.6147 553.284 90.9215C552.625 92.2283 551.67 93.234 550.42 93.9386C549.17 94.6374 547.659 94.9869 545.886 94.9869ZM542.869 92.6857H545.741C547.071 92.6857 548.176 92.4357 549.057 91.9357C549.937 91.43 550.596 90.6999 551.034 89.7454C551.471 88.7852 551.69 87.6147 551.69 86.234C551.69 84.8647 551.471 83.7028 551.034 82.7482C550.602 81.7937 549.957 81.0692 549.099 80.5749C548.241 80.0806 547.176 79.8335 545.903 79.8335H542.869V92.6857Z" fill="#464646"/>
<path d="M401.288 233.959H663.438" stroke="#464646" stroke-width="4"/>
<rect x="876.891" y="107.765" width="46.6701" height="12.6525" rx="2.5" fill="#F1CB6B" stroke="#D9B455"/>
<path d="M924.061 114.091C941.684 114.091 944.662 95.5883 962.782 95.5883" stroke="#464646" stroke-width="3"/>
<path d="M961.282 107.431C961.282 107.829 961.44 108.21 961.722 108.492C962.003 108.773 962.384 108.931 962.782 108.931C967.54 108.931 971.909 107.523 975.123 105.173C978.337 102.824 980.484 99.4534 980.484 95.5883C980.484 91.7233 978.337 88.3525 975.123 86.0032C971.909 83.6532 967.54 82.2455 962.782 82.2455C962.384 82.2455 962.003 82.4036 961.722 82.6849C961.44 82.9662 961.282 83.3477 961.282 83.7455L961.282 95.5883L961.282 107.431Z" fill="#C4C4C4" stroke="#464646" stroke-width="3" stroke-linejoin="round"/>
<path d="M876.391 114.091H862.027" stroke="#464646" stroke-width="3"/>
<rect x="812.988" y="103.501" width="49.0392" height="21.18" rx="3" fill="#2C2C2C"/>
<path d="M924.061 114.079H998.305" stroke="#464646" stroke-width="3"/>
<rect x="876.891" y="34.0949" width="46.6701" height="12.6525" rx="2.5" fill="#F1CB6B" stroke="#D9B455"/>
<path d="M924.061 40.4212C941.684 40.4212 944.662 21.9187 962.782 21.9187" stroke="#464646" stroke-width="3"/>
<path d="M961.282 33.7616C961.282 34.1594 961.44 34.5409 961.722 34.8222C962.003 35.1035 962.384 35.2616 962.782 35.2616C967.54 35.2616 971.909 33.8539 975.123 31.5038C978.337 29.1546 980.484 25.7838 980.484 21.9188C980.484 18.0537 978.337 14.6829 975.123 12.3337C971.909 9.98365 967.54 8.57596 962.782 8.57596C962.384 8.57596 962.003 8.73399 961.722 9.0153C961.44 9.2966 961.282 9.67813 961.282 10.076L961.282 21.9188L961.282 33.7616Z" fill="#C4C4C4" stroke="#464646" stroke-width="3" stroke-linejoin="round"/>
<path d="M876.391 40.4212H862.027" stroke="#464646" stroke-width="3"/>
<rect x="812.988" y="29.8312" width="49.0392" height="21.18" rx="3" fill="#2C2C2C"/>
<path d="M924.061 40.4097H998.305" stroke="#464646" stroke-width="3"/>
<rect x="876.891" y="181.434" width="46.6701" height="12.6525" rx="2.5" fill="#F1CB6B" stroke="#D9B455"/>
<path d="M924.061 187.761C941.684 187.761 944.662 169.258 962.782 169.258" stroke="#464646" stroke-width="3"/>
<path d="M961.282 181.101C961.282 181.499 961.44 181.88 961.722 182.162C962.003 182.443 962.384 182.601 962.782 182.601C967.54 182.601 971.909 181.193 975.123 178.843C978.337 176.494 980.484 173.123 980.484 169.258C980.484 165.393 978.337 162.022 975.123 159.673C971.909 157.323 967.54 155.915 962.782 155.915C962.384 155.915 962.003 156.073 961.722 156.355C961.44 156.636 961.282 157.018 961.282 157.415L961.282 169.258L961.282 181.101Z" fill="#C4C4C4" stroke="#464646" stroke-width="3" stroke-linejoin="round"/>
<path d="M876.391 187.761H862.027" stroke="#464646" stroke-width="3"/>
<rect x="812.988" y="177.171" width="49.0392" height="21.18" rx="3" fill="#2C2C2C"/>
<path d="M924.061 187.749H998.305" stroke="#464646" stroke-width="3"/>
<rect x="877.008" y="299.641" width="46.6701" height="12.6525" rx="2.5" fill="#F1CB6B" stroke="#D9B455"/>
<path d="M924.178 305.968C941.801 305.968 944.78 287.465 962.9 287.465" stroke="#464646" stroke-width="3"/>
<path d="M961.4 299.308C961.4 299.706 961.558 300.087 961.839 300.369C962.12 300.65 962.502 300.808 962.9 300.808C967.658 300.808 972.026 299.4 975.241 297.05C978.455 294.701 980.601 291.33 980.601 287.465C980.601 283.6 978.455 280.229 975.241 277.88C972.026 275.53 967.658 274.122 962.9 274.122C962.502 274.122 962.12 274.281 961.839 274.562C961.558 274.843 961.4 275.225 961.4 275.622L961.4 287.465L961.4 299.308Z" fill="#C4C4C4" stroke="#464646" stroke-width="3" stroke-linejoin="round"/>
<path d="M876.508 305.968H862.145" stroke="#464646" stroke-width="3"/>
<rect x="813.105" y="295.378" width="49.0392" height="21.18" rx="3" fill="#2C2C2C"/>
<path d="M924.178 305.956H998.422" stroke="#464646" stroke-width="3"/>
<rect x="799.243" y="75.6388" width="190.448" height="62.6386" rx="7.5" stroke="#EEEEEE" stroke-width="3"/>
<rect x="799.243" y="1.96921" width="190.448" height="62.6386" rx="7.5" stroke="#EEEEEE" stroke-width="3"/>
<rect x="799.243" y="149.309" width="190.448" height="62.6386" rx="7.5" stroke="#EEEEEE" stroke-width="3"/>
<rect x="799.36" y="267.516" width="190.448" height="62.6386" rx="7.5" stroke="#EEEEEE" stroke-width="3"/>
<path d="M892.715 235.563C892.715 234.961 892.928 234.444 893.354 234.011C893.787 233.578 894.308 233.362 894.917 233.362C895.519 233.362 896.033 233.578 896.458 234.011C896.891 234.444 897.108 234.961 897.108 235.563C897.108 236.165 896.891 236.682 896.458 237.115C896.033 237.548 895.519 237.765 894.917 237.765C894.513 237.765 894.143 237.662 893.805 237.457C893.475 237.259 893.211 236.994 893.013 236.664C892.814 236.334 892.715 235.967 892.715 235.563ZM892.715 244.343C892.715 243.741 892.928 243.223 893.354 242.79C893.787 242.357 894.308 242.141 894.917 242.141C895.519 242.141 896.033 242.357 896.458 242.79C896.891 243.223 897.108 243.741 897.108 244.343C897.108 244.944 896.891 245.462 896.458 245.895C896.033 246.328 895.519 246.544 894.917 246.544C894.513 246.544 894.143 246.442 893.805 246.236C893.475 246.038 893.211 245.774 893.013 245.443C892.814 245.113 892.715 244.746 892.715 244.343ZM892.715 253.122C892.715 252.52 892.928 252.003 893.354 251.57C893.787 251.137 894.308 250.92 894.917 250.92C895.519 250.92 896.033 251.137 896.458 251.57C896.891 252.003 897.108 252.52 897.108 253.122C897.108 253.724 896.891 254.241 896.458 254.674C896.033 255.107 895.519 255.324 894.917 255.324C894.513 255.324 894.143 255.221 893.805 255.015C893.475 254.817 893.211 254.553 893.013 254.223C892.814 253.892 892.715 253.526 892.715 253.122Z" fill="#464646"/>
<rect x="1126.03" y="95.5883" width="92.8277" height="110.071" rx="11" fill="#E8E8E8"/>
<path d="M995.594 40.4098C1033.87 40.4098 1073.8 126.261 1141.61 126.261H1167.7" stroke="#464646" stroke-width="3"/>
<path d="M1167.7 120.917H1141.61C1073.8 120.917 1033.87 21.9188 995.594 21.9188H981.365" stroke="#E8E8E8" stroke-width="3"/>
<path d="M1167.7 136.37H1141.61C1073.8 136.37 1033.87 95.5883 995.594 95.5883H981.365" stroke="#E8E8E8" stroke-width="3"/>
<path d="M1167.7 147.809H1141.61C1073.8 147.809 1033.87 169.258 995.594 169.258H981.365" stroke="#E8E8E8" stroke-width="3"/>
<path d="M1167.7 178.776H1141.61C1073.8 178.776 1033.87 287.597 995.594 287.597H981.365" stroke="#E8E8E8" stroke-width="3"/>
<path d="M995.594 114.079C1033.87 114.079 1073.8 139.777 1141.61 139.777H1148.05" stroke="#464646" stroke-width="3"/>
<path d="M995.594 187.749C1033.87 187.749 1073.8 152.149 1141.61 152.149H1148.05" stroke="#464646" stroke-width="3"/>
<path d="M995.594 306.088C1033.87 306.088 1073.8 182.937 1141.61 182.937H1163.97" stroke="#464646" stroke-width="3"/>
<mask id="path-62-inside-1_5_189" fill="white">
<ellipse cx="4.80559" cy="3.49718" rx="4.80559" ry="3.49718" transform="matrix(-1 0 0 1 1201.98 147.127)"/>
</mask>
<ellipse cx="4.80559" cy="3.49718" rx="4.80559" ry="3.49718" transform="matrix(-1 0 0 1 1201.98 147.127)" fill="#C4C4C4"/>
<path d="M1196.37 150.624C1196.37 150.342 1196.28 150.114 1196.2 149.975C1196.13 149.849 1196.08 149.826 1196.13 149.863C1196.24 149.946 1196.6 150.121 1197.17 150.121V158.121C1195.09 158.121 1193.05 157.513 1191.42 156.331C1189.8 155.152 1188.37 153.184 1188.37 150.624H1196.37ZM1197.17 150.121C1197.75 150.121 1198.1 149.946 1198.22 149.863C1198.27 149.826 1198.22 149.849 1198.14 149.975C1198.06 150.114 1197.98 150.342 1197.98 150.624H1205.98C1205.98 153.184 1204.54 155.152 1202.92 156.331C1201.3 157.513 1199.25 158.121 1197.17 158.121V150.121ZM1197.98 150.624C1197.98 150.906 1198.06 151.134 1198.14 151.273C1198.22 151.399 1198.27 151.422 1198.22 151.385C1198.1 151.301 1197.75 151.127 1197.17 151.127V143.127C1199.25 143.127 1201.3 143.735 1202.92 144.917C1204.54 146.096 1205.98 148.064 1205.98 150.624H1197.98ZM1197.17 151.127C1196.6 151.127 1196.24 151.301 1196.13 151.385C1196.08 151.422 1196.13 151.399 1196.2 151.273C1196.28 151.134 1196.37 150.906 1196.37 150.624H1188.37C1188.37 148.064 1189.8 146.096 1191.42 144.917C1193.05 143.735 1195.09 143.127 1197.17 143.127V151.127Z" fill="#464646" mask="url(#path-62-inside-1_5_189)"/>
<mask id="path-64-inside-2_5_189" fill="white">
<ellipse cx="3.54352" cy="2.57873" rx="3.54352" ry="2.57873" transform="matrix(-1 0 0 1 1171.58 123.683)"/>
</mask>
<ellipse cx="3.54352" cy="2.57873" rx="3.54352" ry="2.57873" transform="matrix(-1 0 0 1 1171.58 123.683)" fill="#C4C4C4"/>
<path d="M1168.49 126.261C1168.49 125.38 1167.99 124.93 1167.89 124.851C1167.77 124.768 1167.81 124.84 1168.04 124.84V132.84C1166.3 132.84 1164.57 132.335 1163.18 131.319C1161.79 130.306 1160.49 128.567 1160.49 126.261H1168.49ZM1168.04 124.84C1168.26 124.84 1168.3 124.768 1168.19 124.851C1168.08 124.93 1167.58 125.38 1167.58 126.261H1175.58C1175.58 128.567 1174.29 130.306 1172.9 131.319C1171.5 132.335 1169.77 132.84 1168.04 132.84V124.84ZM1167.58 126.261C1167.58 127.143 1168.08 127.593 1168.19 127.672C1168.3 127.755 1168.26 127.683 1168.04 127.683V119.683C1169.77 119.683 1171.5 120.188 1172.9 121.204C1174.29 122.217 1175.58 123.955 1175.58 126.261H1167.58ZM1168.04 127.683C1167.81 127.683 1167.77 127.755 1167.89 127.672C1167.99 127.593 1168.49 127.143 1168.49 126.261H1160.49C1160.49 123.955 1161.79 122.217 1163.18 121.204C1164.57 120.188 1166.3 119.683 1168.04 119.683V127.683Z" fill="#464646" mask="url(#path-64-inside-2_5_189)"/>
<path d="M1168.04 126.015L1197.17 150.669H1268.32" stroke="#464646" stroke-width="3" stroke-linecap="round" stroke-linejoin="round"/>
<path d="M116.226 30.076V14.8032H125.697V16.7869H118.53V21.4403H125.018V23.4165H118.53V30.076H116.226ZM128.352 30.076V18.6214H130.581V30.076H128.352ZM129.478 16.854C129.09 16.854 128.757 16.7248 128.478 16.4662C128.205 16.2027 128.068 15.8895 128.068 15.5266C128.068 15.1587 128.205 14.8455 128.478 14.587C128.757 14.3235 129.09 14.1917 129.478 14.1917C129.865 14.1917 130.196 14.3235 130.469 14.587C130.748 14.8455 130.887 15.1587 130.887 15.5266C130.887 15.8895 130.748 16.2027 130.469 16.4662C130.196 16.7248 129.865 16.854 129.478 16.854ZM138.384 34.61C137.474 34.61 136.691 34.4907 136.034 34.2521C135.383 34.0135 134.851 33.6978 134.439 33.305C134.026 32.9123 133.718 32.4822 133.514 32.0149L135.43 31.2244C135.565 31.4431 135.744 31.6743 135.967 31.9179C136.196 32.1665 136.504 32.3778 136.892 32.5518C137.285 32.7258 137.789 32.8128 138.406 32.8128C139.251 32.8128 139.95 32.6065 140.501 32.1939C141.053 31.7862 141.329 31.1349 141.329 30.24V27.9879H141.188C141.053 28.2315 140.859 28.5024 140.606 28.8007C140.357 29.099 140.014 29.3576 139.577 29.5763C139.139 29.7951 138.57 29.9044 137.869 29.9044C136.964 29.9044 136.149 29.6931 135.423 29.2706C134.702 28.843 134.13 28.2141 133.708 27.3838C133.29 26.5486 133.081 25.522 133.081 24.3039C133.081 23.0859 133.288 22.0419 133.7 21.1718C134.118 20.3018 134.69 19.6356 135.416 19.1733C136.141 18.7059 136.964 18.4723 137.884 18.4723C138.595 18.4723 139.169 18.5916 139.607 18.8302C140.044 19.0639 140.385 19.3373 140.628 19.6505C140.877 19.9637 141.068 20.2397 141.202 20.4783H141.367V18.6214H143.552V30.3295C143.552 31.3139 143.323 32.1218 142.865 32.7532C142.408 33.3846 141.789 33.8519 141.009 34.1551C140.233 34.4584 139.358 34.61 138.384 34.61ZM138.361 28.055C139.003 28.055 139.544 27.9059 139.987 27.6076C140.434 27.3043 140.772 26.8718 141.001 26.31C141.235 25.7432 141.352 25.0646 141.352 24.2741C141.352 23.5035 141.237 22.8249 141.009 22.2382C140.78 21.6516 140.444 21.1942 140.002 20.8661C139.559 20.533 139.012 20.3664 138.361 20.3664C137.69 20.3664 137.131 20.5404 136.683 20.8885C136.236 21.2315 135.898 21.6988 135.669 22.2904C135.445 22.8821 135.333 23.5433 135.333 24.2741C135.333 25.0248 135.448 25.6836 135.677 26.2503C135.905 26.8171 136.243 27.2596 136.691 27.5777C137.143 27.8959 137.7 28.055 138.361 28.055ZM148.011 30.2176C147.603 30.2176 147.253 30.0735 146.96 29.7851C146.666 29.4918 146.52 29.1388 146.52 28.7262C146.52 28.3185 146.666 27.9705 146.96 27.6821C147.253 27.3888 147.603 27.2422 148.011 27.2422C148.419 27.2422 148.769 27.3888 149.063 27.6821C149.356 27.9705 149.503 28.3185 149.503 28.7262C149.503 28.9996 149.433 29.2507 149.294 29.4794C149.159 29.7031 148.98 29.8821 148.757 30.0163C148.533 30.1505 148.284 30.2176 148.011 30.2176ZM157.771 30.076V28.4055L162.939 23.0511C163.491 22.4694 163.946 21.9598 164.304 21.5223C164.666 21.0799 164.937 20.6598 165.116 20.262C165.295 19.8643 165.385 19.4417 165.385 18.9943C165.385 18.4872 165.266 18.0497 165.027 17.6818C164.788 17.3089 164.463 17.023 164.05 16.8242C163.637 16.6203 163.173 16.5184 162.655 16.5184C162.109 16.5184 161.631 16.6303 161.224 16.854C160.816 17.0777 160.503 17.3934 160.284 17.8011C160.065 18.2088 159.956 18.686 159.956 19.2329H157.756C157.756 18.3032 157.97 17.4904 158.397 16.7944C158.825 16.0983 159.412 15.5589 160.157 15.1761C160.903 14.7883 161.751 14.5944 162.7 14.5944C163.66 14.5944 164.505 14.7858 165.236 15.1686C165.972 15.5465 166.546 16.0635 166.958 16.7198C167.371 17.3711 167.577 18.1069 167.577 18.9272C167.577 19.4939 167.47 20.0483 167.257 20.5902C167.048 21.1321 166.682 21.7361 166.16 22.4023C165.638 23.0635 164.913 23.8664 163.983 24.811L160.948 27.9879V28.0998H167.823V30.076H157.771ZM174.013 30.3295C173.287 30.3295 172.631 30.1953 172.044 29.9268C171.458 29.6534 170.993 29.2581 170.65 28.7411C170.312 28.224 170.143 27.5902 170.143 26.8395C170.143 26.1931 170.267 25.6612 170.516 25.2436C170.764 24.826 171.1 24.4953 171.522 24.2517C171.945 24.0081 172.417 23.8242 172.939 23.6999C173.461 23.5756 173.993 23.4811 174.535 23.4165C175.221 23.337 175.778 23.2723 176.206 23.2226C176.633 23.1679 176.944 23.0809 177.138 22.9616C177.332 22.8423 177.429 22.6484 177.429 22.3799V22.3277C177.429 21.6765 177.245 21.1718 176.877 20.8139C176.514 20.4559 175.972 20.277 175.251 20.277C174.5 20.277 173.909 20.4435 173.476 20.7766C173.049 21.1047 172.753 21.4701 172.589 21.8728L170.493 21.3956C170.742 20.6995 171.105 20.1377 171.582 19.7102C172.064 19.2777 172.619 18.9645 173.245 18.7706C173.871 18.5717 174.53 18.4723 175.221 18.4723C175.679 18.4723 176.163 18.527 176.675 18.6363C177.192 18.7407 177.675 18.9346 178.122 19.218C178.575 19.5014 178.945 19.9066 179.233 20.4336C179.522 20.9556 179.666 21.6342 179.666 22.4694V30.076H177.488V28.5099H177.399C177.255 28.7983 177.038 29.0816 176.75 29.36C176.462 29.6385 176.091 29.8696 175.639 30.0536C175.186 30.2375 174.644 30.3295 174.013 30.3295ZM174.498 28.5397C175.114 28.5397 175.641 28.4179 176.079 28.1743C176.521 27.9307 176.857 27.6125 177.086 27.2198C177.319 26.8221 177.436 26.397 177.436 25.9446V24.468C177.356 24.5475 177.202 24.6221 176.974 24.6917C176.75 24.7564 176.494 24.8135 176.206 24.8632C175.917 24.908 175.636 24.9502 175.363 24.99C175.089 25.0248 174.861 25.0547 174.677 25.0795C174.244 25.1342 173.849 25.2262 173.491 25.3554C173.138 25.4847 172.855 25.6711 172.641 25.9147C172.432 26.1534 172.328 26.4716 172.328 26.8693C172.328 27.4211 172.532 27.8387 172.939 28.1221C173.347 28.4005 173.866 28.5397 174.498 28.5397Z" fill="black"/>
<path d="M697.804 30.076V14.8032H707.275V16.7869H700.109V21.4403H706.597V23.4165H700.109V30.076H697.804ZM709.93 30.076V18.6214H712.16V30.076H709.93ZM711.056 16.854C710.668 16.854 710.335 16.7248 710.057 16.4662C709.784 16.2027 709.647 15.8895 709.647 15.5266C709.647 15.1587 709.784 14.8455 710.057 14.587C710.335 14.3235 710.668 14.1917 711.056 14.1917C711.444 14.1917 711.775 14.3235 712.048 14.587C712.327 14.8455 712.466 15.1587 712.466 15.5266C712.466 15.8895 712.327 16.2027 712.048 16.4662C711.775 16.7248 711.444 16.854 711.056 16.854ZM719.962 34.61C719.052 34.61 718.269 34.4907 717.613 34.2521C716.962 34.0135 716.43 33.6978 716.017 33.305C715.605 32.9123 715.296 32.4822 715.093 32.0149L717.009 31.2244C717.143 31.4431 717.322 31.6743 717.546 31.9179C717.775 32.1665 718.083 32.3778 718.471 32.5518C718.864 32.7258 719.368 32.8128 719.985 32.8128C720.83 32.8128 721.528 32.6065 722.08 32.1939C722.632 31.7862 722.908 31.1349 722.908 30.24V27.9879H722.766C722.632 28.2315 722.438 28.5024 722.185 28.8007C721.936 29.099 721.593 29.3576 721.155 29.5763C720.718 29.7951 720.149 29.9044 719.448 29.9044C718.543 29.9044 717.728 29.6931 717.002 29.2706C716.281 28.843 715.709 28.2141 715.286 27.3838C714.869 26.5486 714.66 25.522 714.66 24.3039C714.66 23.0859 714.866 22.0419 715.279 21.1718C715.697 20.3018 716.268 19.6356 716.994 19.1733C717.72 18.7059 718.543 18.4723 719.463 18.4723C720.174 18.4723 720.748 18.5916 721.185 18.8302C721.623 19.0639 721.963 19.3373 722.207 19.6505C722.456 19.9637 722.647 20.2397 722.781 20.4783H722.945V18.6214H725.13V30.3295C725.13 31.3139 724.902 32.1218 724.444 32.7532C723.987 33.3846 723.368 33.8519 722.587 34.1551C721.812 34.4584 720.937 34.61 719.962 34.61ZM719.94 28.055C720.581 28.055 721.123 27.9059 721.566 27.6076C722.013 27.3043 722.351 26.8718 722.58 26.31C722.813 25.7432 722.93 25.0646 722.93 24.2741C722.93 23.5035 722.816 22.8249 722.587 22.2382C722.359 21.6516 722.023 21.1942 721.581 20.8661C721.138 20.533 720.591 20.3664 719.94 20.3664C719.269 20.3664 718.709 20.5404 718.262 20.8885C717.815 21.2315 717.476 21.6988 717.248 22.2904C717.024 22.8821 716.912 23.5433 716.912 24.2741C716.912 25.0248 717.027 25.6836 717.255 26.2503C717.484 26.8171 717.822 27.2596 718.269 27.5777C718.722 27.8959 719.279 28.055 719.94 28.055ZM729.59 30.2176C729.182 30.2176 728.832 30.0735 728.538 29.7851C728.245 29.4918 728.098 29.1388 728.098 28.7262C728.098 28.3185 728.245 27.9705 728.538 27.6821C728.832 27.3888 729.182 27.2422 729.59 27.2422C729.997 27.2422 730.348 27.3888 730.641 27.6821C730.935 27.9705 731.081 28.3185 731.081 28.7262C731.081 28.9996 731.012 29.2507 730.872 29.4794C730.738 29.7031 730.559 29.8821 730.335 30.0163C730.112 30.1505 729.863 30.2176 729.59 30.2176ZM739.35 30.076V28.4055L744.518 23.0511C745.069 22.4694 745.524 21.9598 745.882 21.5223C746.245 21.0799 746.516 20.6598 746.695 20.262C746.874 19.8643 746.964 19.4417 746.964 18.9943C746.964 18.4872 746.844 18.0497 746.606 17.6818C746.367 17.3089 746.041 17.023 745.629 16.8242C745.216 16.6203 744.751 16.5184 744.234 16.5184C743.687 16.5184 743.21 16.6303 742.802 16.854C742.395 17.0777 742.081 17.3934 741.863 17.8011C741.644 18.2088 741.535 18.686 741.535 19.2329H739.335C739.335 18.3032 739.548 17.4904 739.976 16.7944C740.404 16.0983 740.99 15.5589 741.736 15.1761C742.482 14.7883 743.329 14.5944 744.279 14.5944C745.238 14.5944 746.084 14.7858 746.814 15.1686C747.55 15.5465 748.124 16.0635 748.537 16.7198C748.95 17.3711 749.156 18.1069 749.156 18.9272C749.156 19.4939 749.049 20.0483 748.835 20.5902C748.627 21.1321 748.261 21.7361 747.739 22.4023C747.217 23.0635 746.491 23.8664 745.562 24.811L742.526 27.9879V28.0998H749.402V30.076H739.35ZM752.437 30.076V14.8032H754.667V20.4783H754.801C754.931 20.2397 755.117 19.9637 755.361 19.6505C755.604 19.3373 755.942 19.0639 756.375 18.8302C756.807 18.5916 757.379 18.4723 758.09 18.4723C759.015 18.4723 759.84 18.7059 760.566 19.1733C761.292 19.6406 761.861 20.3142 762.274 21.1942C762.691 22.0742 762.9 23.1331 762.9 24.3711C762.9 25.609 762.694 26.6704 762.281 27.5554C761.868 28.4353 761.302 29.114 760.581 29.5912C759.86 30.0635 759.037 30.2997 758.112 30.2997C757.416 30.2997 756.847 30.1828 756.405 29.9492C755.967 29.7155 755.624 29.4421 755.376 29.1289C755.127 28.8157 754.936 28.5373 754.801 28.2936H754.615V30.076H752.437ZM754.622 24.3487C754.622 25.1541 754.739 25.86 754.973 26.4666C755.206 27.0731 755.545 27.5479 755.987 27.8909C756.429 28.229 756.971 28.398 757.613 28.398C758.279 28.398 758.836 28.2216 759.283 27.8686C759.731 27.5106 760.069 27.0259 760.297 26.4144C760.531 25.8029 760.648 25.1143 760.648 24.3487C760.648 23.593 760.534 22.9144 760.305 22.3128C760.081 21.7113 759.743 21.2365 759.291 20.8885C758.843 20.5404 758.284 20.3664 757.613 20.3664C756.966 20.3664 756.42 20.533 755.972 20.8661C755.53 21.1992 755.194 21.664 754.965 22.2606C754.737 22.8572 754.622 23.5532 754.622 24.3487Z" fill="black"/>
<rect x="0.691833" y="135.208" width="90.2734" height="52.5524" fill="white"/>
<path d="M1143.11 80.3267L1140.8 80.7358C1140.71 80.4404 1140.55 80.1591 1140.34 79.8921C1140.14 79.625 1139.86 79.4063 1139.51 79.2358C1139.16 79.0654 1138.72 78.9801 1138.19 78.9801C1137.47 78.9801 1136.86 79.1421 1136.38 79.4659C1135.9 79.7841 1135.66 80.196 1135.66 80.7017C1135.66 81.1392 1135.82 81.4915 1136.14 81.7585C1136.47 82.0256 1136.99 82.2443 1137.71 82.4148L1139.79 82.8921C1140.99 83.1705 1141.89 83.5994 1142.48 84.179C1143.07 84.7585 1143.37 85.5114 1143.37 86.4375C1143.37 87.2216 1143.14 87.9205 1142.69 88.5341C1142.24 89.1421 1141.61 89.6193 1140.8 89.9659C1140 90.3125 1139.07 90.4858 1138.02 90.4858C1136.55 90.4858 1135.36 90.1733 1134.43 89.5483C1133.5 88.9176 1132.93 88.0227 1132.72 86.8636L1135.19 86.4886C1135.34 87.1307 1135.66 87.6165 1136.13 87.946C1136.61 88.2699 1137.23 88.4318 1138 88.4318C1138.84 88.4318 1139.5 88.2585 1140 87.9119C1140.5 87.5597 1140.75 87.1307 1140.75 86.625C1140.75 86.2159 1140.6 85.8722 1140.29 85.5938C1139.99 85.3154 1139.53 85.1051 1138.9 84.9631L1136.69 84.4773C1135.47 84.1989 1134.56 83.7557 1133.98 83.1477C1133.4 82.5398 1133.11 81.7699 1133.11 80.8381C1133.11 80.0654 1133.32 79.3892 1133.76 78.8097C1134.19 78.2301 1134.78 77.7784 1135.55 77.4546C1136.31 77.125 1137.18 76.9602 1138.16 76.9602C1139.58 76.9602 1140.69 77.2671 1141.5 77.8807C1142.32 78.4886 1142.85 79.304 1143.11 80.3267ZM1149.01 90.2216L1145.16 77.1307H1147.79L1150.36 86.7443H1150.48L1153.06 77.1307H1155.69L1158.25 86.7017H1158.38L1160.92 77.1307H1163.56L1159.71 90.2216H1157.11L1154.46 80.7699H1154.26L1151.6 90.2216H1149.01ZM1165.98 90.2216V77.1307H1168.52V90.2216H1165.98ZM1167.26 75.1108C1166.82 75.1108 1166.44 74.9631 1166.12 74.6676C1165.81 74.3665 1165.65 74.0085 1165.65 73.5938C1165.65 73.1733 1165.81 72.8154 1166.12 72.5199C1166.44 72.2188 1166.82 72.0682 1167.26 72.0682C1167.71 72.0682 1168.08 72.2188 1168.4 72.5199C1168.71 72.8154 1168.87 73.1733 1168.87 73.5938C1168.87 74.0085 1168.71 74.3665 1168.4 74.6676C1168.08 74.9631 1167.71 75.1108 1167.26 75.1108ZM1178.06 77.1307V79.1761H1170.91V77.1307H1178.06ZM1172.83 73.9943H1175.38V86.3779C1175.38 86.8722 1175.45 87.2443 1175.6 87.4943C1175.75 87.7386 1175.94 87.9063 1176.17 87.9972C1176.41 88.0824 1176.67 88.125 1176.95 88.125C1177.15 88.125 1177.33 88.1108 1177.48 88.0824C1177.64 88.054 1177.76 88.0313 1177.84 88.0142L1178.3 90.1193C1178.15 90.1761 1177.94 90.233 1177.67 90.2898C1177.4 90.3523 1177.06 90.3864 1176.65 90.3921C1175.98 90.4034 1175.35 90.2841 1174.77 90.0341C1174.19 89.7841 1173.73 89.3977 1173.37 88.875C1173.01 88.3523 1172.83 87.696 1172.83 86.9063V73.9943ZM1186.26 90.4858C1184.99 90.4858 1183.9 90.1989 1182.98 89.625C1182.07 89.0455 1181.38 88.2472 1180.89 87.2301C1180.4 86.2131 1180.15 85.0483 1180.15 83.7358C1180.15 82.4063 1180.4 81.233 1180.9 80.2159C1181.4 79.1932 1182.11 78.3949 1183.02 77.821C1183.93 77.2472 1185 76.9602 1186.23 76.9602C1187.22 76.9602 1188.11 77.1449 1188.89 77.5142C1189.67 77.8779 1190.3 78.3892 1190.77 79.0483C1191.26 79.7074 1191.54 80.4773 1191.63 81.358H1189.15C1189.02 80.7443 1188.7 80.2159 1188.22 79.7727C1187.73 79.3296 1187.09 79.108 1186.27 79.108C1185.56 79.108 1184.94 79.2955 1184.41 79.6705C1183.88 80.0398 1183.47 80.5682 1183.17 81.2557C1182.88 81.9375 1182.73 82.7443 1182.73 83.6761C1182.73 84.6307 1182.87 85.4546 1183.16 86.1477C1183.45 86.8409 1183.86 87.3779 1184.39 87.7585C1184.92 88.1392 1185.55 88.3296 1186.27 88.3296C1186.76 88.3296 1187.19 88.2415 1187.59 88.0654C1187.98 87.8835 1188.32 87.625 1188.58 87.2898C1188.86 86.9546 1189.05 86.5511 1189.15 86.0796H1191.63C1191.54 86.9261 1191.27 87.6818 1190.81 88.3466C1190.35 89.0114 1189.73 89.5341 1188.96 89.9148C1188.19 90.2955 1187.29 90.4858 1186.26 90.4858ZM1196.91 82.4489V90.2216H1194.36V72.7671H1196.87V79.2614H1197.03C1197.34 78.5568 1197.81 77.9972 1198.44 77.5824C1199.07 77.1676 1199.9 76.9602 1200.91 76.9602C1201.81 76.9602 1202.59 77.1449 1203.27 77.5142C1203.94 77.8835 1204.46 78.4347 1204.83 79.1676C1205.21 79.8949 1205.4 80.804 1205.4 81.8949V90.2216H1202.85V82.2017C1202.85 81.2415 1202.6 80.4972 1202.11 79.9688C1201.61 79.4347 1200.92 79.1676 1200.04 79.1676C1199.44 79.1676 1198.9 79.2955 1198.42 79.5511C1197.95 79.8068 1197.58 80.1818 1197.31 80.6761C1197.04 81.1648 1196.91 81.7557 1196.91 82.4489Z" fill="black"/>
<path d="M806.072 13.737H807.329V22.5154C807.329 23.0197 807.242 23.4565 807.068 23.8258C806.898 24.1951 806.638 24.481 806.29 24.6834C805.946 24.8858 805.511 24.987 804.985 24.987C804.943 24.987 804.9 24.987 804.858 24.987C804.815 24.987 804.772 24.987 804.73 24.987V23.8151C804.772 23.8151 804.811 23.8151 804.847 23.8151C804.882 23.8151 804.921 23.8151 804.964 23.8151C805.348 23.8151 805.628 23.7015 805.806 23.4742C805.983 23.2505 806.072 22.9309 806.072 22.5154V13.737ZM806.69 12.3734C806.445 12.3734 806.234 12.2899 806.056 12.123C805.882 11.9561 805.795 11.7555 805.795 11.5211C805.795 11.2867 805.882 11.0861 806.056 10.9192C806.234 10.7523 806.445 10.6688 806.69 10.6688C806.935 10.6688 807.144 10.7523 807.318 10.9192C807.496 11.0861 807.585 11.2867 807.585 11.5211C807.585 11.7555 807.496 11.9561 807.318 12.123C807.144 12.2899 806.935 12.3734 806.69 12.3734ZM814.362 15.4629V14.3123H820.924V15.4629H814.362ZM814.362 18.6163V17.4657H820.924V18.6163H814.362ZM831.771 11.0097V21.9188H830.45V12.3947H830.386L827.722 14.1631V12.8208L830.45 11.0097H831.771Z" fill="black"/>
<path d="M806.072 86.805H807.329V95.5835C807.329 96.0877 807.242 96.5245 807.068 96.8938C806.898 97.2631 806.638 97.549 806.29 97.7514C805.946 97.9538 805.511 98.055 804.985 98.055C804.943 98.055 804.9 98.055 804.858 98.055C804.815 98.055 804.772 98.055 804.73 98.055V96.8832C804.772 96.8832 804.811 96.8832 804.847 96.8832C804.882 96.8832 804.921 96.8832 804.964 96.8832C805.348 96.8832 805.628 96.7695 805.806 96.5423C805.983 96.3185 806.072 95.9989 806.072 95.5835V86.805ZM806.69 85.4414C806.445 85.4414 806.234 85.358 806.056 85.1911C805.882 85.0241 805.795 84.8235 805.795 84.5891C805.795 84.3548 805.882 84.1541 806.056 83.9872C806.234 83.8203 806.445 83.7369 806.69 83.7369C806.935 83.7369 807.144 83.8203 807.318 83.9872C807.496 84.1541 807.585 84.3548 807.585 84.5891C807.585 84.8235 807.496 85.0241 807.318 85.1911C807.144 85.358 806.935 85.4414 806.69 85.4414ZM814.362 88.5309V87.3803H820.924V88.5309H814.362ZM814.362 91.6843V90.5337H820.924V91.6843H814.362ZM827.935 94.9869V94.0281L831.536 90.0863C831.959 89.6246 832.307 89.2234 832.58 88.8825C832.854 88.538 833.056 88.2148 833.188 87.913C833.323 87.6076 833.39 87.288 833.39 86.9542C833.39 86.5707 833.298 86.2386 833.113 85.9581C832.932 85.6776 832.683 85.4609 832.367 85.3082C832.051 85.1555 831.696 85.0792 831.302 85.0792C830.883 85.0792 830.517 85.1662 830.205 85.3402C829.896 85.5107 829.656 85.7504 829.486 86.0593C829.319 86.3683 829.235 86.7305 829.235 87.146H827.978C827.978 86.5067 828.125 85.9457 828.42 85.4627C828.715 84.9798 829.116 84.6033 829.624 84.3335C830.135 84.0636 830.709 83.9286 831.345 83.9286C831.984 83.9286 832.55 84.0636 833.044 84.3335C833.537 84.6033 833.924 84.9673 834.205 85.4254C834.486 85.8835 834.626 86.3931 834.626 86.9542C834.626 87.3555 834.553 87.7479 834.407 88.1314C834.265 88.5114 834.017 88.9357 833.662 89.4045C833.31 89.8697 832.822 90.4379 832.197 91.109L829.747 93.7298V93.815H834.818V94.9869H827.935Z" fill="black"/>
<path d="M806.072 159.267H807.329V168.046C807.329 168.55 807.242 168.987 807.068 169.356C806.898 169.725 806.638 170.011 806.29 170.213C805.946 170.416 805.511 170.517 804.985 170.517C804.943 170.517 804.9 170.517 804.858 170.517C804.815 170.517 804.772 170.517 804.73 170.517V169.345C804.772 169.345 804.811 169.345 804.847 169.345C804.882 169.345 804.921 169.345 804.964 169.345C805.348 169.345 805.628 169.232 805.806 169.004C805.983 168.781 806.072 168.461 806.072 168.046V159.267ZM806.69 157.903C806.445 157.903 806.234 157.82 806.056 157.653C805.882 157.486 805.795 157.286 805.795 157.051C805.795 156.817 805.882 156.616 806.056 156.449C806.234 156.282 806.445 156.199 806.69 156.199C806.935 156.199 807.144 156.282 807.318 156.449C807.496 156.616 807.585 156.817 807.585 157.051C807.585 157.286 807.496 157.486 807.318 157.653C807.144 157.82 806.935 157.903 806.69 157.903ZM814.362 160.993V159.842H820.924V160.993H814.362ZM814.362 164.146V162.996H820.924V164.146H814.362ZM831.622 167.598C830.918 167.598 830.292 167.477 829.741 167.236C829.194 166.994 828.759 166.659 828.436 166.229C828.117 165.796 827.943 165.293 827.914 164.722H829.256C829.285 165.073 829.406 165.377 829.619 165.633C829.832 165.885 830.111 166.08 830.455 166.218C830.799 166.357 831.181 166.426 831.6 166.426C832.069 166.426 832.484 166.345 832.847 166.181C833.209 166.018 833.493 165.791 833.699 165.499C833.905 165.208 834.008 164.871 834.008 164.487C834.008 164.086 833.908 163.733 833.71 163.427C833.511 163.118 833.22 162.877 832.836 162.703C832.453 162.529 831.984 162.442 831.43 162.442H830.556V161.27H831.43C831.863 161.27 832.243 161.192 832.57 161.036C832.9 160.879 833.157 160.659 833.342 160.375C833.53 160.091 833.624 159.757 833.624 159.374C833.624 159.004 833.543 158.683 833.379 158.41C833.216 158.136 832.985 157.923 832.687 157.77C832.392 157.618 832.044 157.541 831.643 157.541C831.266 157.541 830.911 157.611 830.578 157.749C830.247 157.884 829.977 158.081 829.768 158.34C829.558 158.596 829.445 158.905 829.427 159.267H828.149C828.17 158.695 828.342 158.195 828.665 157.765C828.988 157.332 829.411 156.994 829.933 156.753C830.459 156.511 831.036 156.391 831.664 156.391C832.339 156.391 832.918 156.527 833.401 156.801C833.884 157.071 834.255 157.428 834.514 157.872C834.773 158.315 834.903 158.795 834.903 159.31C834.903 159.924 834.741 160.448 834.418 160.881C834.098 161.314 833.663 161.614 833.113 161.781V161.867C833.802 161.98 834.34 162.273 834.727 162.745C835.114 163.214 835.308 163.795 835.308 164.487C835.308 165.08 835.146 165.613 834.823 166.085C834.503 166.554 834.067 166.923 833.513 167.193C832.959 167.463 832.328 167.598 831.622 167.598Z" fill="black"/>
</svg>
