<?xml version="1.0" encoding="utf-8" standalone="no"?>
<!DOCTYPE svg PUBLIC "-//W3C//DTD SVG 1.1//EN"
  "http://www.w3.org/Graphics/SVG/1.1/DTD/svg11.dtd">
<svg xmlns:xlink="http://www.w3.org/1999/xlink" width="883.401562pt" height="295.6675pt" viewBox="0 0 883.401562 295.6675" xmlns="http://www.w3.org/2000/svg" version="1.1">
 <metadata>
  <rdf:RDF xmlns:dc="http://purl.org/dc/elements/1.1/" xmlns:cc="http://creativecommons.org/ns#" xmlns:rdf="http://www.w3.org/1999/02/22-rdf-syntax-ns#">
   <cc:Work>
    <dc:type rdf:resource="http://purl.org/dc/dcmitype/StillImage"/>
    <dc:date>2023-09-20T13:46:24.374885</dc:date>
    <dc:format>image/svg+xml</dc:format>
    <dc:creator>
     <cc:Agent>
      <dc:title>Matplotlib v3.7.1, https://matplotlib.org/</dc:title>
     </cc:Agent>
    </dc:creator>
   </cc:Work>
  </rdf:RDF>
 </metadata>
 <defs>
  <style type="text/css">*{stroke-linejoin: round; stroke-linecap: butt}</style>
 </defs>
 <g id="figure_1">
  <g id="patch_1">
   <path d="M 0 295.6675 
L 883.401562 295.6675 
L 883.401562 0 
L 0 0 
L 0 295.6675 
z
" style="fill: none"/>
  </g>
  <g id="axes_1">
   <g id="patch_2">
    <path d="M 56.631563 254.24 
L 480.351562 254.24 
L 480.351562 23.84 
L 56.631563 23.84 
z
" style="fill: #fdfeff; fill-opacity: 0.6"/>
   </g>
   <g id="matplotlib.axis_1">
    <g id="xtick_1">
     <g id="line2d_1">
      <path d="M 68.623638 254.24 
L 68.623638 23.84 
" clip-path="url(#pe6801ba18a)" style="fill: none; stroke: #b0b0b0; stroke-opacity: 0.3; stroke-width: 0.8; stroke-linecap: square"/>
     </g>
     <g id="line2d_2">
      <defs>
       <path id="m08d83aae07" d="M 0 0 
L 0 4 
" style="stroke: #333333; stroke-width: 1.2"/>
      </defs>
      <g>
       <use xlink:href="#m08d83aae07" x="68.623638" y="254.24" style="fill: #333333; stroke: #333333; stroke-width: 1.2"/>
      </g>
     </g>
     <g id="text_1">
      <!-- 0 -->
      <g style="fill: #333333" transform="translate(65.124263 269.598281) scale(0.11 -0.11)">
       <defs>
        <path id="DejaVuSans-30" d="M 2034 4250 
Q 1547 4250 1301 3770 
Q 1056 3291 1056 2328 
Q 1056 1369 1301 889 
Q 1547 409 2034 409 
Q 2525 409 2770 889 
Q 3016 1369 3016 2328 
Q 3016 3291 2770 3770 
Q 2525 4250 2034 4250 
z
M 2034 4750 
Q 2819 4750 3233 4129 
Q 3647 3509 3647 2328 
Q 3647 1150 3233 529 
Q 2819 -91 2034 -91 
Q 1250 -91 836 529 
Q 422 1150 422 2328 
Q 422 3509 836 4129 
Q 1250 4750 2034 4750 
z
" transform="scale(0.015625)"/>
       </defs>
       <use xlink:href="#DejaVuSans-30"/>
      </g>
     </g>
    </g>
    <g id="xtick_2">
     <g id="line2d_3">
      <path d="M 155.522736 254.24 
L 155.522736 23.84 
" clip-path="url(#pe6801ba18a)" style="fill: none; stroke: #b0b0b0; stroke-opacity: 0.3; stroke-width: 0.8; stroke-linecap: square"/>
     </g>
     <g id="line2d_4">
      <g>
       <use xlink:href="#m08d83aae07" x="155.522736" y="254.24" style="fill: #333333; stroke: #333333; stroke-width: 1.2"/>
      </g>
     </g>
     <g id="text_2">
      <!-- 50 -->
      <g style="fill: #333333" transform="translate(148.523986 269.598281) scale(0.11 -0.11)">
       <defs>
        <path id="DejaVuSans-35" d="M 691 4666 
L 3169 4666 
L 3169 4134 
L 1269 4134 
L 1269 2991 
Q 1406 3038 1543 3061 
Q 1681 3084 1819 3084 
Q 2600 3084 3056 2656 
Q 3513 2228 3513 1497 
Q 3513 744 3044 326 
Q 2575 -91 1722 -91 
Q 1428 -91 1123 -41 
Q 819 9 494 109 
L 494 744 
Q 775 591 1075 516 
Q 1375 441 1709 441 
Q 2250 441 2565 725 
Q 2881 1009 2881 1497 
Q 2881 1984 2565 2268 
Q 2250 2553 1709 2553 
Q 1456 2553 1204 2497 
Q 953 2441 691 2322 
L 691 4666 
z
" transform="scale(0.015625)"/>
       </defs>
       <use xlink:href="#DejaVuSans-35"/>
       <use xlink:href="#DejaVuSans-30" x="63.623047"/>
      </g>
     </g>
    </g>
    <g id="xtick_3">
     <g id="line2d_5">
      <path d="M 242.421833 254.24 
L 242.421833 23.84 
" clip-path="url(#pe6801ba18a)" style="fill: none; stroke: #b0b0b0; stroke-opacity: 0.3; stroke-width: 0.8; stroke-linecap: square"/>
     </g>
     <g id="line2d_6">
      <g>
       <use xlink:href="#m08d83aae07" x="242.421833" y="254.24" style="fill: #333333; stroke: #333333; stroke-width: 1.2"/>
      </g>
     </g>
     <g id="text_3">
      <!-- 100 -->
      <g style="fill: #333333" transform="translate(231.923708 269.598281) scale(0.11 -0.11)">
       <defs>
        <path id="DejaVuSans-31" d="M 794 531 
L 1825 531 
L 1825 4091 
L 703 3866 
L 703 4441 
L 1819 4666 
L 2450 4666 
L 2450 531 
L 3481 531 
L 3481 0 
L 794 0 
L 794 531 
z
" transform="scale(0.015625)"/>
       </defs>
       <use xlink:href="#DejaVuSans-31"/>
       <use xlink:href="#DejaVuSans-30" x="63.623047"/>
       <use xlink:href="#DejaVuSans-30" x="127.246094"/>
      </g>
     </g>
    </g>
    <g id="xtick_4">
     <g id="line2d_7">
      <path d="M 329.320931 254.24 
L 329.320931 23.84 
" clip-path="url(#pe6801ba18a)" style="fill: none; stroke: #b0b0b0; stroke-opacity: 0.3; stroke-width: 0.8; stroke-linecap: square"/>
     </g>
     <g id="line2d_8">
      <g>
       <use xlink:href="#m08d83aae07" x="329.320931" y="254.24" style="fill: #333333; stroke: #333333; stroke-width: 1.2"/>
      </g>
     </g>
     <g id="text_4">
      <!-- 150 -->
      <g style="fill: #333333" transform="translate(318.822806 269.598281) scale(0.11 -0.11)">
       <use xlink:href="#DejaVuSans-31"/>
       <use xlink:href="#DejaVuSans-35" x="63.623047"/>
       <use xlink:href="#DejaVuSans-30" x="127.246094"/>
      </g>
     </g>
    </g>
    <g id="xtick_5">
     <g id="line2d_9">
      <path d="M 416.220028 254.24 
L 416.220028 23.84 
" clip-path="url(#pe6801ba18a)" style="fill: none; stroke: #b0b0b0; stroke-opacity: 0.3; stroke-width: 0.8; stroke-linecap: square"/>
     </g>
     <g id="line2d_10">
      <g>
       <use xlink:href="#m08d83aae07" x="416.220028" y="254.24" style="fill: #333333; stroke: #333333; stroke-width: 1.2"/>
      </g>
     </g>
     <g id="text_5">
      <!-- 200 -->
      <g style="fill: #333333" transform="translate(405.721903 269.598281) scale(0.11 -0.11)">
       <defs>
        <path id="DejaVuSans-32" d="M 1228 531 
L 3431 531 
L 3431 0 
L 469 0 
L 469 531 
Q 828 903 1448 1529 
Q 2069 2156 2228 2338 
Q 2531 2678 2651 2914 
Q 2772 3150 2772 3378 
Q 2772 3750 2511 3984 
Q 2250 4219 1831 4219 
Q 1534 4219 1204 4116 
Q 875 4013 500 3803 
L 500 4441 
Q 881 4594 1212 4672 
Q 1544 4750 1819 4750 
Q 2544 4750 2975 4387 
Q 3406 4025 3406 3419 
Q 3406 3131 3298 2873 
Q 3191 2616 2906 2266 
Q 2828 2175 2409 1742 
Q 1991 1309 1228 531 
z
" transform="scale(0.015625)"/>
       </defs>
       <use xlink:href="#DejaVuSans-32"/>
       <use xlink:href="#DejaVuSans-30" x="63.623047"/>
       <use xlink:href="#DejaVuSans-30" x="127.246094"/>
      </g>
     </g>
    </g>
    <g id="text_6">
     <!-- time (ps) -->
     <g style="fill: #333333" transform="translate(239.15625 285.763906) scale(0.13 -0.13)">
      <defs>
       <path id="DejaVuSans-74" d="M 1172 4494 
L 1172 3500 
L 2356 3500 
L 2356 3053 
L 1172 3053 
L 1172 1153 
Q 1172 725 1289 603 
Q 1406 481 1766 481 
L 2356 481 
L 2356 0 
L 1766 0 
Q 1100 0 847 248 
Q 594 497 594 1153 
L 594 3053 
L 172 3053 
L 172 3500 
L 594 3500 
L 594 4494 
L 1172 4494 
z
" transform="scale(0.015625)"/>
       <path id="DejaVuSans-69" d="M 603 3500 
L 1178 3500 
L 1178 0 
L 603 0 
L 603 3500 
z
M 603 4863 
L 1178 4863 
L 1178 4134 
L 603 4134 
L 603 4863 
z
" transform="scale(0.015625)"/>
       <path id="DejaVuSans-6d" d="M 3328 2828 
Q 3544 3216 3844 3400 
Q 4144 3584 4550 3584 
Q 5097 3584 5394 3201 
Q 5691 2819 5691 2113 
L 5691 0 
L 5113 0 
L 5113 2094 
Q 5113 2597 4934 2840 
Q 4756 3084 4391 3084 
Q 3944 3084 3684 2787 
Q 3425 2491 3425 1978 
L 3425 0 
L 2847 0 
L 2847 2094 
Q 2847 2600 2669 2842 
Q 2491 3084 2119 3084 
Q 1678 3084 1418 2786 
Q 1159 2488 1159 1978 
L 1159 0 
L 581 0 
L 581 3500 
L 1159 3500 
L 1159 2956 
Q 1356 3278 1631 3431 
Q 1906 3584 2284 3584 
Q 2666 3584 2933 3390 
Q 3200 3197 3328 2828 
z
" transform="scale(0.015625)"/>
       <path id="DejaVuSans-65" d="M 3597 1894 
L 3597 1613 
L 953 1613 
Q 991 1019 1311 708 
Q 1631 397 2203 397 
Q 2534 397 2845 478 
Q 3156 559 3463 722 
L 3463 178 
Q 3153 47 2828 -22 
Q 2503 -91 2169 -91 
Q 1331 -91 842 396 
Q 353 884 353 1716 
Q 353 2575 817 3079 
Q 1281 3584 2069 3584 
Q 2775 3584 3186 3129 
Q 3597 2675 3597 1894 
z
M 3022 2063 
Q 3016 2534 2758 2815 
Q 2500 3097 2075 3097 
Q 1594 3097 1305 2825 
Q 1016 2553 972 2059 
L 3022 2063 
z
" transform="scale(0.015625)"/>
       <path id="DejaVuSans-20" transform="scale(0.015625)"/>
       <path id="DejaVuSans-28" d="M 1984 4856 
Q 1566 4138 1362 3434 
Q 1159 2731 1159 2009 
Q 1159 1288 1364 580 
Q 1569 -128 1984 -844 
L 1484 -844 
Q 1016 -109 783 600 
Q 550 1309 550 2009 
Q 550 2706 781 3412 
Q 1013 4119 1484 4856 
L 1984 4856 
z
" transform="scale(0.015625)"/>
       <path id="DejaVuSans-70" d="M 1159 525 
L 1159 -1331 
L 581 -1331 
L 581 3500 
L 1159 3500 
L 1159 2969 
Q 1341 3281 1617 3432 
Q 1894 3584 2278 3584 
Q 2916 3584 3314 3078 
Q 3713 2572 3713 1747 
Q 3713 922 3314 415 
Q 2916 -91 2278 -91 
Q 1894 -91 1617 61 
Q 1341 213 1159 525 
z
M 3116 1747 
Q 3116 2381 2855 2742 
Q 2594 3103 2138 3103 
Q 1681 3103 1420 2742 
Q 1159 2381 1159 1747 
Q 1159 1113 1420 752 
Q 1681 391 2138 391 
Q 2594 391 2855 752 
Q 3116 1113 3116 1747 
z
" transform="scale(0.015625)"/>
       <path id="DejaVuSans-73" d="M 2834 3397 
L 2834 2853 
Q 2591 2978 2328 3040 
Q 2066 3103 1784 3103 
Q 1356 3103 1142 2972 
Q 928 2841 928 2578 
Q 928 2378 1081 2264 
Q 1234 2150 1697 2047 
L 1894 2003 
Q 2506 1872 2764 1633 
Q 3022 1394 3022 966 
Q 3022 478 2636 193 
Q 2250 -91 1575 -91 
Q 1294 -91 989 -36 
Q 684 19 347 128 
L 347 722 
Q 666 556 975 473 
Q 1284 391 1588 391 
Q 1994 391 2212 530 
Q 2431 669 2431 922 
Q 2431 1156 2273 1281 
Q 2116 1406 1581 1522 
L 1381 1569 
Q 847 1681 609 1914 
Q 372 2147 372 2553 
Q 372 3047 722 3315 
Q 1072 3584 1716 3584 
Q 2034 3584 2315 3537 
Q 2597 3491 2834 3397 
z
" transform="scale(0.015625)"/>
       <path id="DejaVuSans-29" d="M 513 4856 
L 1013 4856 
Q 1481 4119 1714 3412 
Q 1947 2706 1947 2009 
Q 1947 1309 1714 600 
Q 1481 -109 1013 -844 
L 513 -844 
Q 928 -128 1133 580 
Q 1338 1288 1338 2009 
Q 1338 2731 1133 3434 
Q 928 4138 513 4856 
z
" transform="scale(0.015625)"/>
      </defs>
      <use xlink:href="#DejaVuSans-74"/>
      <use xlink:href="#DejaVuSans-69" x="39.208984"/>
      <use xlink:href="#DejaVuSans-6d" x="66.992188"/>
      <use xlink:href="#DejaVuSans-65" x="164.404297"/>
      <use xlink:href="#DejaVuSans-20" x="225.927734"/>
      <use xlink:href="#DejaVuSans-28" x="257.714844"/>
      <use xlink:href="#DejaVuSans-70" x="296.728516"/>
      <use xlink:href="#DejaVuSans-73" x="360.205078"/>
      <use xlink:href="#DejaVuSans-29" x="412.304688"/>
     </g>
    </g>
   </g>
   <g id="matplotlib.axis_2">
    <g id="ytick_1">
     <g id="line2d_11">
      <path d="M 56.631563 199.718387 
L 480.351562 199.718387 
" clip-path="url(#pe6801ba18a)" style="fill: none; stroke: #b0b0b0; stroke-opacity: 0.3; stroke-width: 0.8; stroke-linecap: square"/>
     </g>
     <g id="line2d_12">
      <defs>
       <path id="mad5b0295c7" d="M 0 0 
L -4 0 
" style="stroke: #333333; stroke-width: 1.2"/>
      </defs>
      <g>
       <use xlink:href="#mad5b0295c7" x="56.631563" y="199.718387" style="fill: #333333; stroke: #333333; stroke-width: 1.2"/>
      </g>
     </g>
     <g id="text_7">
      <!-- $\mathdefault{10^{-1}}$ -->
      <g style="fill: #333333" transform="translate(23.781562 203.897528) scale(0.11 -0.11)">
       <defs>
        <path id="DejaVuSans-2212" d="M 678 2272 
L 4684 2272 
L 4684 1741 
L 678 1741 
L 678 2272 
z
" transform="scale(0.015625)"/>
       </defs>
       <use xlink:href="#DejaVuSans-31" transform="translate(0 0.684375)"/>
       <use xlink:href="#DejaVuSans-30" transform="translate(63.623047 0.684375)"/>
       <use xlink:href="#DejaVuSans-2212" transform="translate(128.203125 38.965625) scale(0.7)"/>
       <use xlink:href="#DejaVuSans-31" transform="translate(186.855469 38.965625) scale(0.7)"/>
      </g>
     </g>
    </g>
    <g id="ytick_2">
     <g id="line2d_13">
      <path d="M 56.631563 126.692661 
L 480.351562 126.692661 
" clip-path="url(#pe6801ba18a)" style="fill: none; stroke: #b0b0b0; stroke-opacity: 0.3; stroke-width: 0.8; stroke-linecap: square"/>
     </g>
     <g id="line2d_14">
      <g>
       <use xlink:href="#mad5b0295c7" x="56.631563" y="126.692661" style="fill: #333333; stroke: #333333; stroke-width: 1.2"/>
      </g>
     </g>
     <g id="text_8">
      <!-- $\mathdefault{10^{0}}$ -->
      <g style="fill: #333333" transform="translate(30.271563 130.871802) scale(0.11 -0.11)">
       <use xlink:href="#DejaVuSans-31" transform="translate(0 0.765625)"/>
       <use xlink:href="#DejaVuSans-30" transform="translate(63.623047 0.765625)"/>
       <use xlink:href="#DejaVuSans-30" transform="translate(128.203125 39.046875) scale(0.7)"/>
      </g>
     </g>
    </g>
    <g id="ytick_3">
     <g id="line2d_15">
      <path d="M 56.631563 53.666935 
L 480.351562 53.666935 
" clip-path="url(#pe6801ba18a)" style="fill: none; stroke: #b0b0b0; stroke-opacity: 0.3; stroke-width: 0.8; stroke-linecap: square"/>
     </g>
     <g id="line2d_16">
      <g>
       <use xlink:href="#mad5b0295c7" x="56.631563" y="53.666935" style="fill: #333333; stroke: #333333; stroke-width: 1.2"/>
      </g>
     </g>
     <g id="text_9">
      <!-- $\mathdefault{10^{1}}$ -->
      <g style="fill: #333333" transform="translate(30.271563 57.846075) scale(0.11 -0.11)">
       <use xlink:href="#DejaVuSans-31" transform="translate(0 0.684375)"/>
       <use xlink:href="#DejaVuSans-30" transform="translate(63.623047 0.684375)"/>
       <use xlink:href="#DejaVuSans-31" transform="translate(128.203125 38.965625) scale(0.7)"/>
      </g>
     </g>
    </g>
    <g id="ytick_4">
     <g id="line2d_17"/>
    </g>
    <g id="ytick_5">
     <g id="line2d_18"/>
    </g>
    <g id="ytick_6">
     <g id="line2d_19"/>
    </g>
    <g id="ytick_7">
     <g id="line2d_20"/>
    </g>
    <g id="ytick_8">
     <g id="line2d_21"/>
    </g>
    <g id="ytick_9">
     <g id="line2d_22"/>
    </g>
    <g id="ytick_10">
     <g id="line2d_23"/>
    </g>
    <g id="ytick_11">
     <g id="line2d_24"/>
    </g>
    <g id="ytick_12">
     <g id="line2d_25"/>
    </g>
    <g id="ytick_13">
     <g id="line2d_26"/>
    </g>
    <g id="ytick_14">
     <g id="line2d_27"/>
    </g>
    <g id="ytick_15">
     <g id="line2d_28"/>
    </g>
    <g id="ytick_16">
     <g id="line2d_29"/>
    </g>
    <g id="ytick_17">
     <g id="line2d_30"/>
    </g>
    <g id="ytick_18">
     <g id="line2d_31"/>
    </g>
    <g id="ytick_19">
     <g id="line2d_32"/>
    </g>
    <g id="ytick_20">
     <g id="line2d_33"/>
    </g>
    <g id="ytick_21">
     <g id="line2d_34"/>
    </g>
    <g id="ytick_22">
     <g id="line2d_35"/>
    </g>
    <g id="ytick_23">
     <g id="line2d_36"/>
    </g>
    <g id="ytick_24">
     <g id="line2d_37"/>
    </g>
    <g id="ytick_25">
     <g id="line2d_38"/>
    </g>
    <g id="ytick_26">
     <g id="line2d_39"/>
    </g>
    <g id="ytick_27">
     <g id="line2d_40"/>
    </g>
    <g id="ytick_28">
     <g id="line2d_41"/>
    </g>
    <g id="text_10">
     <!-- Coincidences (Hz/ps) -->
     <g style="fill: #333333" transform="translate(17.077969 207.205703) rotate(-90) scale(0.13 -0.13)">
      <defs>
       <path id="DejaVuSans-43" d="M 4122 4306 
L 4122 3641 
Q 3803 3938 3442 4084 
Q 3081 4231 2675 4231 
Q 1875 4231 1450 3742 
Q 1025 3253 1025 2328 
Q 1025 1406 1450 917 
Q 1875 428 2675 428 
Q 3081 428 3442 575 
Q 3803 722 4122 1019 
L 4122 359 
Q 3791 134 3420 21 
Q 3050 -91 2638 -91 
Q 1578 -91 968 557 
Q 359 1206 359 2328 
Q 359 3453 968 4101 
Q 1578 4750 2638 4750 
Q 3056 4750 3426 4639 
Q 3797 4528 4122 4306 
z
" transform="scale(0.015625)"/>
       <path id="DejaVuSans-6f" d="M 1959 3097 
Q 1497 3097 1228 2736 
Q 959 2375 959 1747 
Q 959 1119 1226 758 
Q 1494 397 1959 397 
Q 2419 397 2687 759 
Q 2956 1122 2956 1747 
Q 2956 2369 2687 2733 
Q 2419 3097 1959 3097 
z
M 1959 3584 
Q 2709 3584 3137 3096 
Q 3566 2609 3566 1747 
Q 3566 888 3137 398 
Q 2709 -91 1959 -91 
Q 1206 -91 779 398 
Q 353 888 353 1747 
Q 353 2609 779 3096 
Q 1206 3584 1959 3584 
z
" transform="scale(0.015625)"/>
       <path id="DejaVuSans-6e" d="M 3513 2113 
L 3513 0 
L 2938 0 
L 2938 2094 
Q 2938 2591 2744 2837 
Q 2550 3084 2163 3084 
Q 1697 3084 1428 2787 
Q 1159 2491 1159 1978 
L 1159 0 
L 581 0 
L 581 3500 
L 1159 3500 
L 1159 2956 
Q 1366 3272 1645 3428 
Q 1925 3584 2291 3584 
Q 2894 3584 3203 3211 
Q 3513 2838 3513 2113 
z
" transform="scale(0.015625)"/>
       <path id="DejaVuSans-63" d="M 3122 3366 
L 3122 2828 
Q 2878 2963 2633 3030 
Q 2388 3097 2138 3097 
Q 1578 3097 1268 2742 
Q 959 2388 959 1747 
Q 959 1106 1268 751 
Q 1578 397 2138 397 
Q 2388 397 2633 464 
Q 2878 531 3122 666 
L 3122 134 
Q 2881 22 2623 -34 
Q 2366 -91 2075 -91 
Q 1284 -91 818 406 
Q 353 903 353 1747 
Q 353 2603 823 3093 
Q 1294 3584 2113 3584 
Q 2378 3584 2631 3529 
Q 2884 3475 3122 3366 
z
" transform="scale(0.015625)"/>
       <path id="DejaVuSans-64" d="M 2906 2969 
L 2906 4863 
L 3481 4863 
L 3481 0 
L 2906 0 
L 2906 525 
Q 2725 213 2448 61 
Q 2172 -91 1784 -91 
Q 1150 -91 751 415 
Q 353 922 353 1747 
Q 353 2572 751 3078 
Q 1150 3584 1784 3584 
Q 2172 3584 2448 3432 
Q 2725 3281 2906 2969 
z
M 947 1747 
Q 947 1113 1208 752 
Q 1469 391 1925 391 
Q 2381 391 2643 752 
Q 2906 1113 2906 1747 
Q 2906 2381 2643 2742 
Q 2381 3103 1925 3103 
Q 1469 3103 1208 2742 
Q 947 2381 947 1747 
z
" transform="scale(0.015625)"/>
       <path id="DejaVuSans-48" d="M 628 4666 
L 1259 4666 
L 1259 2753 
L 3553 2753 
L 3553 4666 
L 4184 4666 
L 4184 0 
L 3553 0 
L 3553 2222 
L 1259 2222 
L 1259 0 
L 628 0 
L 628 4666 
z
" transform="scale(0.015625)"/>
       <path id="DejaVuSans-7a" d="M 353 3500 
L 3084 3500 
L 3084 2975 
L 922 459 
L 3084 459 
L 3084 0 
L 275 0 
L 275 525 
L 2438 3041 
L 353 3041 
L 353 3500 
z
" transform="scale(0.015625)"/>
       <path id="DejaVuSans-2f" d="M 1625 4666 
L 2156 4666 
L 531 -594 
L 0 -594 
L 1625 4666 
z
" transform="scale(0.015625)"/>
      </defs>
      <use xlink:href="#DejaVuSans-43"/>
      <use xlink:href="#DejaVuSans-6f" x="69.824219"/>
      <use xlink:href="#DejaVuSans-69" x="131.005859"/>
      <use xlink:href="#DejaVuSans-6e" x="158.789062"/>
      <use xlink:href="#DejaVuSans-63" x="222.167969"/>
      <use xlink:href="#DejaVuSans-69" x="277.148438"/>
      <use xlink:href="#DejaVuSans-64" x="304.931641"/>
      <use xlink:href="#DejaVuSans-65" x="368.408203"/>
      <use xlink:href="#DejaVuSans-6e" x="429.931641"/>
      <use xlink:href="#DejaVuSans-63" x="493.310547"/>
      <use xlink:href="#DejaVuSans-65" x="548.291016"/>
      <use xlink:href="#DejaVuSans-73" x="609.814453"/>
      <use xlink:href="#DejaVuSans-20" x="661.914062"/>
      <use xlink:href="#DejaVuSans-28" x="693.701172"/>
      <use xlink:href="#DejaVuSans-48" x="732.714844"/>
      <use xlink:href="#DejaVuSans-7a" x="807.910156"/>
      <use xlink:href="#DejaVuSans-2f" x="860.400391"/>
      <use xlink:href="#DejaVuSans-70" x="894.091797"/>
      <use xlink:href="#DejaVuSans-73" x="957.568359"/>
      <use xlink:href="#DejaVuSans-29" x="1009.667969"/>
     </g>
    </g>
   </g>
   <g id="patch_3">
    <path d="M 190.282375 254.24 
L 190.282375 23.84 
L 225.042014 23.84 
L 225.042014 254.24 
z
" clip-path="url(#pe6801ba18a)" style="fill: #ff0000; opacity: 0.2; stroke: #ff0000; stroke-width: 0.25; stroke-linejoin: miter"/>
   </g>
   <g id="patch_4">
    <path d="M 329.320931 254.24 
L 329.320931 23.84 
L 364.08057 23.84 
L 364.08057 254.24 
z
" clip-path="url(#pe6801ba18a)" style="fill: #ff0000; opacity: 0.2; stroke: #ff0000; stroke-width: 0.25; stroke-linejoin: miter"/>
   </g>
   <g id="line2d_42">
    <path d="M 68.623638 202.462189 
L 70.36162 218.237148 
L 72.099602 214.895674 
L 73.837584 212.45488 
L 75.575566 214.26764 
L 77.313548 220.425234 
L 79.05153 232.171517 
L 80.789512 218.237148 
L 82.527494 181.791773 
L 84.265476 168.196709 
L 86.003457 157.339106 
L 87.741439 145.565779 
L 89.479421 136.353076 
L 91.217403 125.115959 
L 92.955385 116.663102 
L 94.693367 108.766047 
L 98.169331 95.112844 
L 101.645295 82.780777 
L 103.383277 78.574185 
L 105.121259 73.370422 
L 106.859241 69.803687 
L 108.597223 66.609654 
L 110.335205 63.870321 
L 112.073187 61.828248 
L 113.811169 60.145115 
L 117.287133 58.739954 
L 119.025115 58.327533 
L 120.763097 58.72612 
L 122.501078 60.640742 
L 124.23906 60.921122 
L 125.977042 63.493018 
L 127.715024 65.216078 
L 129.453006 67.691966 
L 131.190988 69.784079 
L 134.666952 76.088086 
L 136.404934 79.804612 
L 138.142916 83.811182 
L 139.880898 88.117344 
L 141.61888 91.300041 
L 143.356862 95.346041 
L 145.094844 100.273912 
L 146.832826 102.521862 
L 150.30879 110.369296 
L 152.046772 113.972876 
L 153.784754 118.826641 
L 155.522736 122.018517 
L 157.260718 124.559872 
L 160.736681 135.047761 
L 162.474663 136.782384 
L 165.950627 147.324087 
L 167.688609 145.78031 
L 169.426591 153.822498 
L 171.164573 154.665774 
L 172.902555 158.496321 
L 174.640537 159.808839 
L 176.378519 161.88545 
L 178.116501 165.950484 
L 179.854483 172.892164 
L 181.592465 175.346457 
L 183.330447 174.804312 
L 185.068429 182.015906 
L 186.806411 180.69427 
L 188.544393 189.602997 
L 190.282375 189.036648 
L 192.020357 199.989664 
L 193.758339 195.55716 
L 195.49632 198.066974 
L 197.234302 204.224568 
L 198.972284 209.646438 
L 200.710266 212.45488 
L 202.448248 213.047695 
L 204.18623 209.646438 
L 205.924212 213.047695 
L 207.662194 213.651802 
L 209.400176 218.949867 
L 211.138158 215.536396 
L 212.87614 220.425234 
L 214.614122 212.45488 
L 216.352104 206.090675 
L 218.090086 201.201837 
L 219.828068 188.205649 
L 221.56605 179.842819 
L 223.304032 170.457619 
L 225.042014 165.68057 
L 226.779996 151.591292 
L 228.517978 143.0986 
L 230.25596 132.968989 
L 231.993941 125.303509 
L 233.731923 118.734759 
L 235.469905 108.654572 
L 237.207887 103.9283 
L 238.945869 96.371821 
L 240.683851 90.992502 
L 242.421833 86.054515 
L 244.159815 80.575634 
L 249.373761 71.426652 
L 251.111743 69.915024 
L 252.849725 67.527246 
L 254.587707 66.550595 
L 256.325689 65.182152 
L 258.063671 65.397629 
L 259.801653 67.062134 
L 261.539635 67.369431 
L 263.277617 67.423971 
L 265.015599 69.137347 
L 266.753581 71.932988 
L 268.491562 74.487251 
L 270.229544 76.707832 
L 273.705508 84.086919 
L 275.44349 86.449856 
L 278.919454 95.331416 
L 280.657436 97.809078 
L 285.871382 111.590623 
L 287.609364 112.607762 
L 289.347346 117.299731 
L 291.085328 120.98407 
L 292.82331 123.725704 
L 294.561292 128.968498 
L 296.299274 132.211588 
L 298.037256 137.437444 
L 299.775238 139.902516 
L 301.51322 142.705438 
L 303.251202 149.668602 
L 304.989184 149.426196 
L 306.727165 154.288214 
L 308.465147 157.133166 
L 310.203129 162.60901 
L 311.941111 166.774288 
L 313.679093 168.489012 
L 315.417075 169.685934 
L 317.155057 172.556556 
L 318.893039 176.271148 
L 320.631021 180.69427 
L 322.369003 188.757222 
L 324.106985 189.602997 
L 325.844967 186.090554 
L 327.582949 194.53949 
L 329.320931 198.822121 
L 331.058913 198.066974 
L 332.796895 207.066588 
L 334.534877 200.388596 
L 336.272859 198.066974 
L 338.010841 211.872943 
L 339.748823 206.574878 
L 341.486805 213.047695 
L 343.224786 215.536396 
L 344.962768 219.678972 
L 346.70075 215.536396 
L 348.438732 218.237148 
L 350.176714 216.19033 
L 351.914696 221.18948 
L 353.652678 219.678972 
L 355.39066 211.872943 
L 357.128642 207.066588 
L 360.604606 195.55716 
L 362.342588 178.00673 
L 364.08057 169.992358 
L 365.818552 158.927819 
L 367.556534 148.709899 
L 369.294516 141.869948 
L 371.032498 132.211588 
L 372.77048 124.194491 
L 374.508462 118.09893 
L 376.246444 110.322346 
L 377.984426 103.718078 
L 379.722407 99.165717 
L 381.460389 91.819326 
L 383.198371 89.003121 
L 384.936353 85.653264 
L 386.674335 81.649544 
L 388.412317 80.056531 
L 390.150299 76.626658 
L 393.626263 74.669651 
L 395.364245 74.035789 
L 397.102227 73.166234 
L 398.840209 73.363107 
L 402.316173 75.921146 
L 404.054155 77.133319 
L 405.792137 80.759808 
L 407.530119 82.447863 
L 409.268101 85.696399 
L 411.006083 87.712298 
L 412.744065 90.336226 
L 416.220028 98.85374 
L 417.95801 102.668944 
L 419.695992 104.411323 
L 421.433974 111.010018 
L 423.171956 115.016304 
L 424.909938 120.334156 
L 426.64792 122.531434 
L 428.385902 126.80576 
L 430.123884 129.308149 
L 433.599848 137.547948 
L 435.33783 138.962753 
L 437.075812 146.213775 
L 438.813794 146.727087 
L 440.551776 153.63811 
L 442.289758 155.047883 
L 444.02774 160.032972 
L 445.765722 164.493604 
L 447.503704 163.474571 
L 449.241686 171.732752 
L 452.717649 175.16471 
L 454.455631 179.842819 
L 456.193613 179.63348 
L 457.931595 186.606251 
L 459.669577 182.697968 
L 461.407559 193.231483 
L 463.145541 200.388596 
L 464.883523 194.207396 
L 466.621505 207.566042 
L 468.359487 206.574878 
L 468.359487 206.574878 
" clip-path="url(#pe6801ba18a)" style="fill: none; stroke-dasharray: 8.325,3.6; stroke-dashoffset: 0; stroke: #000000; stroke-opacity: 0.5; stroke-width: 2.25; stroke-linecap: round"/>
   </g>
   <g id="line2d_43">
    <path d="M 68.623638 201.830687 
L 70.36162 215.636656 
L 72.099602 225.736311 
L 73.837584 207.988281 
L 75.575566 207.988281 
L 77.313548 222.000861 
L 79.05153 218.659387 
L 80.789512 247.719245 
L 82.527494 170.261015 
L 84.265476 156.052059 
L 86.003457 145.005627 
L 87.741439 139.327171 
L 89.479421 131.126583 
L 91.217403 119.218223 
L 94.693367 104.746073 
L 96.431349 97.235289 
L 98.169331 88.597871 
L 99.907313 83.694034 
L 101.645295 79.369287 
L 103.383277 74.167987 
L 105.121259 70.196519 
L 108.597223 64.605881 
L 110.335205 63.019817 
L 112.073187 61.06543 
L 115.549151 56.458052 
L 117.287133 57.386353 
L 119.025115 57.425628 
L 120.763097 60.955424 
L 122.501078 59.370431 
L 124.23906 60.303283 
L 125.977042 63.563578 
L 129.453006 68.563891 
L 131.190988 72.292363 
L 132.92897 74.334994 
L 134.666952 78.440986 
L 136.404934 81.437045 
L 138.142916 83.114551 
L 139.880898 90.268869 
L 141.61888 92.983153 
L 143.356862 96.284456 
L 145.094844 102.962449 
L 146.832826 105.009266 
L 148.570808 108.448777 
L 150.30879 114.015764 
L 152.046772 113.898951 
L 153.784754 122.254746 
L 155.522736 121.802747 
L 157.260718 125.277476 
L 158.998699 131.530597 
L 160.736681 134.736827 
L 162.474663 142.61093 
L 164.212645 141.478143 
L 165.950627 143.192867 
L 167.688609 154.337335 
L 169.426591 153.109517 
L 171.164573 160.794408 
L 172.902555 158.811596 
L 174.640537 164.022413 
L 176.378519 176.320269 
L 178.116501 169.578953 
L 179.854483 171.670788 
L 181.592465 178.034993 
L 183.330447 177.166043 
L 185.068429 186.005347 
L 186.806411 193.653722 
L 188.544393 186.005347 
L 190.282375 205.800195 
L 192.020357 190.894185 
L 193.758339 193.653722 
L 195.49632 198.303203 
L 197.234302 218.659387 
L 198.972284 196.676453 
L 200.710266 212.877119 
L 202.448248 205.800195 
L 204.18623 218.659387 
L 205.924212 201.830687 
L 207.662194 215.636656 
L 209.400176 218.659387 
L 211.138158 198.303203 
L 212.87614 192.243949 
L 214.614122 193.653722 
L 216.352104 171.670788 
L 218.090086 162.367359 
L 219.828068 149.329492 
L 221.56605 145.005627 
L 223.304032 136.115943 
L 225.042014 121.504955 
L 230.25596 92.563878 
L 231.993941 85.07315 
L 235.469905 71.732128 
L 237.207887 64.238384 
L 240.683851 52.085268 
L 242.421833 48.184206 
L 244.159815 44.592646 
L 245.897797 40.583061 
L 247.635779 37.565582 
L 249.373761 34.22831 
L 251.111743 32.795523 
L 252.849725 32.177947 
L 254.587707 30.360755 
L 256.325689 30.969208 
L 258.063671 31.148895 
L 259.801653 32.293386 
L 261.539635 32.498659 
L 263.277617 34.304047 
L 265.015599 36.910576 
L 266.753581 38.644743 
L 268.491562 41.783982 
L 270.229544 44.370545 
L 271.967526 47.329546 
L 273.705508 51.120427 
L 275.44349 54.090049 
L 277.181472 58.161131 
L 278.919454 59.960881 
L 280.657436 64.754081 
L 282.395418 70.255359 
L 284.1334 70.879859 
L 285.871382 76.842838 
L 289.347346 86.172639 
L 291.085328 88.755787 
L 292.82331 93.530495 
L 294.561292 95.166933 
L 296.299274 100.045007 
L 298.037256 104.312213 
L 299.775238 102.962449 
L 303.251202 116.195492 
L 304.989184 117.736589 
L 306.727165 124.61673 
L 308.465147 121.504955 
L 310.203129 126.295147 
L 311.941111 130.138507 
L 313.679093 134.736827 
L 315.417075 137.804575 
L 317.155057 141.201157 
L 318.893039 143.785681 
L 320.631021 148.975135 
L 322.369003 148.975135 
L 325.844967 158.334675 
L 327.582949 154.757403 
L 329.320931 168.911251 
L 331.058913 165.768616 
L 332.796895 168.911251 
L 334.534877 170.958069 
L 336.272859 178.928423 
L 338.010841 181.770443 
L 339.748823 186.005347 
L 341.486805 178.034993 
L 343.224786 187.158735 
L 344.962768 184.892437 
L 346.70075 188.355657 
L 348.438732 190.894185 
L 350.176714 200.017927 
L 351.914696 183.817261 
L 353.652678 193.653722 
L 355.39066 186.005347 
L 357.128642 178.928423 
L 358.866624 173.910401 
L 360.604606 178.034993 
L 362.342588 166.372723 
L 364.08057 161.834327 
L 365.818552 150.787895 
L 367.556534 143.785681 
L 371.032498 126.123251 
L 372.77048 121.802747 
L 374.508462 114.133008 
L 376.246444 105.363624 
L 377.984426 101.352221 
L 379.722407 94.08745 
L 381.460389 89.073997 
L 384.936353 81.478968 
L 386.674335 79.566151 
L 388.412317 77.465073 
L 390.150299 76.126092 
L 391.888281 73.022928 
L 393.626263 71.948823 
L 395.364245 71.151313 
L 397.102227 72.830718 
L 398.840209 75.114764 
L 402.316173 75.080459 
L 405.792137 81.773991 
L 407.530119 84.330166 
L 409.268101 86.172639 
L 411.006083 88.8086 
L 412.744065 91.167043 
L 414.482047 93.715062 
L 416.220028 101.117586 
L 417.95801 104.571816 
L 419.695992 106.084443 
L 421.433974 112.866556 
L 423.171956 117.736589 
L 424.909938 119.356413 
L 426.64792 128.61895 
L 428.385902 126.467979 
L 430.123884 131.530597 
L 431.861866 136.115943 
L 433.599848 134.736827 
L 435.33783 143.192867 
L 437.075812 142.61093 
L 438.813794 142.61093 
L 440.551776 150.787895 
L 442.289758 152.710585 
L 444.02774 159.295799 
L 445.765722 171.670788 
L 447.503704 156.052059 
L 449.241686 171.670788 
L 450.979668 180.79453 
L 452.717649 181.770443 
L 454.455631 181.770443 
L 456.193613 182.777342 
L 457.931595 187.158735 
L 459.669577 188.355657 
L 461.407559 184.892437 
L 463.145541 195.129089 
L 464.883523 195.129089 
L 466.621505 205.800195 
L 468.359487 196.676453 
L 468.359487 196.676453 
" clip-path="url(#pe6801ba18a)" style="fill: none; stroke: #808080; stroke-opacity: 0.5; stroke-width: 2.25; stroke-linecap: square"/>
   </g>
   <g id="patch_5">
    <path d="M 56.631563 254.24 
L 56.631563 23.84 
" style="fill: none; stroke: #333333; stroke-width: 1.2; stroke-linejoin: miter; stroke-linecap: square"/>
   </g>
   <g id="patch_6">
    <path d="M 56.631563 254.24 
L 480.351562 254.24 
" style="fill: none; stroke: #333333; stroke-width: 1.2; stroke-linejoin: miter; stroke-linecap: square"/>
   </g>
   <g id="patch_7">
    <path d="M 222.805946 60.743859 
Q 207.662194 60.743859 192.518443 60.743859 
" style="fill: none; opacity: 0.5; stroke: #ff0000; stroke-width: 2; stroke-linecap: round"/>
    <path d="M 216.805946 57.743859 
L 222.805946 60.743859 
L 216.805946 63.743859 
" style="fill: none; opacity: 0.5; stroke: #ff0000; stroke-width: 2; stroke-linecap: round"/>
    <path d="M 198.518443 63.743859 
L 192.518443 60.743859 
L 198.518443 57.743859 
" style="fill: none; opacity: 0.5; stroke: #ff0000; stroke-width: 2; stroke-linecap: round"/>
   </g>
   <g id="text_11">
    <!-- x -->
    <g style="fill: #ff0000; opacity: 0.5" transform="translate(202.927194 73.901359) scale(0.16 -0.16)">
     <defs>
      <path id="DejaVuSans-78" d="M 3513 3500 
L 2247 1797 
L 3578 0 
L 2900 0 
L 1881 1375 
L 863 0 
L 184 0 
L 1544 1831 
L 300 3500 
L 978 3500 
L 1906 2253 
L 2834 3500 
L 3513 3500 
z
" transform="scale(0.015625)"/>
     </defs>
     <use xlink:href="#DejaVuSans-78"/>
    </g>
   </g>
   <g id="patch_8">
    <path d="M 361.844502 60.743859 
Q 346.70075 60.743859 331.556999 60.743859 
" style="fill: none; opacity: 0.5; stroke: #ff0000; stroke-width: 2; stroke-linecap: round"/>
    <path d="M 355.844502 57.743859 
L 361.844502 60.743859 
L 355.844502 63.743859 
" style="fill: none; opacity: 0.5; stroke: #ff0000; stroke-width: 2; stroke-linecap: round"/>
    <path d="M 337.556999 63.743859 
L 331.556999 60.743859 
L 337.556999 57.743859 
" style="fill: none; opacity: 0.5; stroke: #ff0000; stroke-width: 2; stroke-linecap: round"/>
   </g>
   <g id="text_12">
    <!-- x -->
    <g style="fill: #ff0000; opacity: 0.5" transform="translate(341.96575 73.901359) scale(0.16 -0.16)">
     <use xlink:href="#DejaVuSans-78"/>
    </g>
   </g>
  </g>
  <g id="axes_2">
   <g id="patch_9">
    <path d="M 583.311563 128.672 
L 848.631562 128.672 
L 848.631562 23.84 
L 583.311563 23.84 
z
" style="fill: #fdfeff; fill-opacity: 0.6"/>
   </g>
   <g id="matplotlib.axis_3">
    <g id="xtick_6">
     <g id="line2d_44">
      <path d="M 590.820619 128.672 
L 590.820619 23.84 
" clip-path="url(#p10165fbb16)" style="fill: none; stroke: #b0b0b0; stroke-opacity: 0.3; stroke-width: 0.8; stroke-linecap: square"/>
     </g>
     <g id="line2d_45">
      <g>
       <use xlink:href="#m08d83aae07" x="590.820619" y="128.672" style="fill: #333333; stroke: #333333; stroke-width: 1.2"/>
      </g>
     </g>
     <g id="text_13">
      <!-- 0 -->
      <g style="fill: #333333" transform="translate(587.321244 144.030281) scale(0.11 -0.11)">
       <use xlink:href="#DejaVuSans-30"/>
      </g>
     </g>
    </g>
    <g id="xtick_7">
     <g id="line2d_46">
      <path d="M 625.58477 128.672 
L 625.58477 23.84 
" clip-path="url(#p10165fbb16)" style="fill: none; stroke: #b0b0b0; stroke-opacity: 0.3; stroke-width: 0.8; stroke-linecap: square"/>
     </g>
     <g id="line2d_47">
      <g>
       <use xlink:href="#m08d83aae07" x="625.58477" y="128.672" style="fill: #333333; stroke: #333333; stroke-width: 1.2"/>
      </g>
     </g>
     <g id="text_14">
      <!-- 10 -->
      <g style="fill: #333333" transform="translate(618.58602 144.030281) scale(0.11 -0.11)">
       <use xlink:href="#DejaVuSans-31"/>
       <use xlink:href="#DejaVuSans-30" x="63.623047"/>
      </g>
     </g>
    </g>
    <g id="xtick_8">
     <g id="line2d_48">
      <path d="M 660.348921 128.672 
L 660.348921 23.84 
" clip-path="url(#p10165fbb16)" style="fill: none; stroke: #b0b0b0; stroke-opacity: 0.3; stroke-width: 0.8; stroke-linecap: square"/>
     </g>
     <g id="line2d_49">
      <g>
       <use xlink:href="#m08d83aae07" x="660.348921" y="128.672" style="fill: #333333; stroke: #333333; stroke-width: 1.2"/>
      </g>
     </g>
     <g id="text_15">
      <!-- 20 -->
      <g style="fill: #333333" transform="translate(653.350171 144.030281) scale(0.11 -0.11)">
       <use xlink:href="#DejaVuSans-32"/>
       <use xlink:href="#DejaVuSans-30" x="63.623047"/>
      </g>
     </g>
    </g>
    <g id="xtick_9">
     <g id="line2d_50">
      <path d="M 695.113072 128.672 
L 695.113072 23.84 
" clip-path="url(#p10165fbb16)" style="fill: none; stroke: #b0b0b0; stroke-opacity: 0.3; stroke-width: 0.8; stroke-linecap: square"/>
     </g>
     <g id="line2d_51">
      <g>
       <use xlink:href="#m08d83aae07" x="695.113072" y="128.672" style="fill: #333333; stroke: #333333; stroke-width: 1.2"/>
      </g>
     </g>
     <g id="text_16">
      <!-- 30 -->
      <g style="fill: #333333" transform="translate(688.114322 144.030281) scale(0.11 -0.11)">
       <defs>
        <path id="DejaVuSans-33" d="M 2597 2516 
Q 3050 2419 3304 2112 
Q 3559 1806 3559 1356 
Q 3559 666 3084 287 
Q 2609 -91 1734 -91 
Q 1441 -91 1130 -33 
Q 819 25 488 141 
L 488 750 
Q 750 597 1062 519 
Q 1375 441 1716 441 
Q 2309 441 2620 675 
Q 2931 909 2931 1356 
Q 2931 1769 2642 2001 
Q 2353 2234 1838 2234 
L 1294 2234 
L 1294 2753 
L 1863 2753 
Q 2328 2753 2575 2939 
Q 2822 3125 2822 3475 
Q 2822 3834 2567 4026 
Q 2313 4219 1838 4219 
Q 1578 4219 1281 4162 
Q 984 4106 628 3988 
L 628 4550 
Q 988 4650 1302 4700 
Q 1616 4750 1894 4750 
Q 2613 4750 3031 4423 
Q 3450 4097 3450 3541 
Q 3450 3153 3228 2886 
Q 3006 2619 2597 2516 
z
" transform="scale(0.015625)"/>
       </defs>
       <use xlink:href="#DejaVuSans-33"/>
       <use xlink:href="#DejaVuSans-30" x="63.623047"/>
      </g>
     </g>
    </g>
    <g id="xtick_10">
     <g id="line2d_52">
      <path d="M 729.877223 128.672 
L 729.877223 23.84 
" clip-path="url(#p10165fbb16)" style="fill: none; stroke: #b0b0b0; stroke-opacity: 0.3; stroke-width: 0.8; stroke-linecap: square"/>
     </g>
     <g id="line2d_53">
      <g>
       <use xlink:href="#m08d83aae07" x="729.877223" y="128.672" style="fill: #333333; stroke: #333333; stroke-width: 1.2"/>
      </g>
     </g>
     <g id="text_17">
      <!-- 40 -->
      <g style="fill: #333333" transform="translate(722.878473 144.030281) scale(0.11 -0.11)">
       <defs>
        <path id="DejaVuSans-34" d="M 2419 4116 
L 825 1625 
L 2419 1625 
L 2419 4116 
z
M 2253 4666 
L 3047 4666 
L 3047 1625 
L 3713 1625 
L 3713 1100 
L 3047 1100 
L 3047 0 
L 2419 0 
L 2419 1100 
L 313 1100 
L 313 1709 
L 2253 4666 
z
" transform="scale(0.015625)"/>
       </defs>
       <use xlink:href="#DejaVuSans-34"/>
       <use xlink:href="#DejaVuSans-30" x="63.623047"/>
      </g>
     </g>
    </g>
    <g id="xtick_11">
     <g id="line2d_54">
      <path d="M 764.641374 128.672 
L 764.641374 23.84 
" clip-path="url(#p10165fbb16)" style="fill: none; stroke: #b0b0b0; stroke-opacity: 0.3; stroke-width: 0.8; stroke-linecap: square"/>
     </g>
     <g id="line2d_55">
      <g>
       <use xlink:href="#m08d83aae07" x="764.641374" y="128.672" style="fill: #333333; stroke: #333333; stroke-width: 1.2"/>
      </g>
     </g>
     <g id="text_18">
      <!-- 50 -->
      <g style="fill: #333333" transform="translate(757.642624 144.030281) scale(0.11 -0.11)">
       <use xlink:href="#DejaVuSans-35"/>
       <use xlink:href="#DejaVuSans-30" x="63.623047"/>
      </g>
     </g>
    </g>
    <g id="xtick_12">
     <g id="line2d_56">
      <path d="M 799.405525 128.672 
L 799.405525 23.84 
" clip-path="url(#p10165fbb16)" style="fill: none; stroke: #b0b0b0; stroke-opacity: 0.3; stroke-width: 0.8; stroke-linecap: square"/>
     </g>
     <g id="line2d_57">
      <g>
       <use xlink:href="#m08d83aae07" x="799.405525" y="128.672" style="fill: #333333; stroke: #333333; stroke-width: 1.2"/>
      </g>
     </g>
     <g id="text_19">
      <!-- 60 -->
      <g style="fill: #333333" transform="translate(792.406775 144.030281) scale(0.11 -0.11)">
       <defs>
        <path id="DejaVuSans-36" d="M 2113 2584 
Q 1688 2584 1439 2293 
Q 1191 2003 1191 1497 
Q 1191 994 1439 701 
Q 1688 409 2113 409 
Q 2538 409 2786 701 
Q 3034 994 3034 1497 
Q 3034 2003 2786 2293 
Q 2538 2584 2113 2584 
z
M 3366 4563 
L 3366 3988 
Q 3128 4100 2886 4159 
Q 2644 4219 2406 4219 
Q 1781 4219 1451 3797 
Q 1122 3375 1075 2522 
Q 1259 2794 1537 2939 
Q 1816 3084 2150 3084 
Q 2853 3084 3261 2657 
Q 3669 2231 3669 1497 
Q 3669 778 3244 343 
Q 2819 -91 2113 -91 
Q 1303 -91 875 529 
Q 447 1150 447 2328 
Q 447 3434 972 4092 
Q 1497 4750 2381 4750 
Q 2619 4750 2861 4703 
Q 3103 4656 3366 4563 
z
" transform="scale(0.015625)"/>
       </defs>
       <use xlink:href="#DejaVuSans-36"/>
       <use xlink:href="#DejaVuSans-30" x="63.623047"/>
      </g>
     </g>
    </g>
    <g id="xtick_13">
     <g id="line2d_58">
      <path d="M 834.169676 128.672 
L 834.169676 23.84 
" clip-path="url(#p10165fbb16)" style="fill: none; stroke: #b0b0b0; stroke-opacity: 0.3; stroke-width: 0.8; stroke-linecap: square"/>
     </g>
     <g id="line2d_59">
      <g>
       <use xlink:href="#m08d83aae07" x="834.169676" y="128.672" style="fill: #333333; stroke: #333333; stroke-width: 1.2"/>
      </g>
     </g>
     <g id="text_20">
      <!-- 70 -->
      <g style="fill: #333333" transform="translate(827.170926 144.030281) scale(0.11 -0.11)">
       <defs>
        <path id="DejaVuSans-37" d="M 525 4666 
L 3525 4666 
L 3525 4397 
L 1831 0 
L 1172 0 
L 2766 4134 
L 525 4134 
L 525 4666 
z
" transform="scale(0.015625)"/>
       </defs>
       <use xlink:href="#DejaVuSans-37"/>
       <use xlink:href="#DejaVuSans-30" x="63.623047"/>
      </g>
     </g>
    </g>
   </g>
   <g id="matplotlib.axis_4">
    <g id="ytick_29">
     <g id="line2d_60">
      <path d="M 583.311563 93.070006 
L 848.631562 93.070006 
" clip-path="url(#p10165fbb16)" style="fill: none; stroke: #b0b0b0; stroke-opacity: 0.3; stroke-width: 0.8; stroke-linecap: square"/>
     </g>
     <g id="line2d_61">
      <g>
       <use xlink:href="#mad5b0295c7" x="583.311563" y="93.070006" style="fill: #333333; stroke: #333333; stroke-width: 1.2"/>
      </g>
     </g>
     <g id="text_21">
      <!-- 99.2 -->
      <g style="fill: #333333" transform="translate(551.819375 97.249147) scale(0.11 -0.11)">
       <defs>
        <path id="DejaVuSans-39" d="M 703 97 
L 703 672 
Q 941 559 1184 500 
Q 1428 441 1663 441 
Q 2288 441 2617 861 
Q 2947 1281 2994 2138 
Q 2813 1869 2534 1725 
Q 2256 1581 1919 1581 
Q 1219 1581 811 2004 
Q 403 2428 403 3163 
Q 403 3881 828 4315 
Q 1253 4750 1959 4750 
Q 2769 4750 3195 4129 
Q 3622 3509 3622 2328 
Q 3622 1225 3098 567 
Q 2575 -91 1691 -91 
Q 1453 -91 1209 -44 
Q 966 3 703 97 
z
M 1959 2075 
Q 2384 2075 2632 2365 
Q 2881 2656 2881 3163 
Q 2881 3666 2632 3958 
Q 2384 4250 1959 4250 
Q 1534 4250 1286 3958 
Q 1038 3666 1038 3163 
Q 1038 2656 1286 2365 
Q 1534 2075 1959 2075 
z
" transform="scale(0.015625)"/>
        <path id="DejaVuSans-2e" d="M 684 794 
L 1344 794 
L 1344 0 
L 684 0 
L 684 794 
z
" transform="scale(0.015625)"/>
       </defs>
       <use xlink:href="#DejaVuSans-39"/>
       <use xlink:href="#DejaVuSans-39" x="63.623047"/>
       <use xlink:href="#DejaVuSans-2e" x="127.246094"/>
       <use xlink:href="#DejaVuSans-32" x="159.033203"/>
      </g>
     </g>
    </g>
    <g id="ytick_30">
     <g id="line2d_62">
      <path d="M 583.311563 49.151165 
L 848.631562 49.151165 
" clip-path="url(#p10165fbb16)" style="fill: none; stroke: #b0b0b0; stroke-opacity: 0.3; stroke-width: 0.8; stroke-linecap: square"/>
     </g>
     <g id="line2d_63">
      <g>
       <use xlink:href="#mad5b0295c7" x="583.311563" y="49.151165" style="fill: #333333; stroke: #333333; stroke-width: 1.2"/>
      </g>
     </g>
     <g id="text_22">
      <!-- 99.4 -->
      <g style="fill: #333333" transform="translate(551.819375 53.330305) scale(0.11 -0.11)">
       <use xlink:href="#DejaVuSans-39"/>
       <use xlink:href="#DejaVuSans-39" x="63.623047"/>
       <use xlink:href="#DejaVuSans-2e" x="127.246094"/>
       <use xlink:href="#DejaVuSans-34" x="159.033203"/>
      </g>
     </g>
    </g>
    <g id="text_23">
     <!-- Visibility (%) -->
     <g style="fill: #333333" transform="translate(545.115781 116.806859) rotate(-90) scale(0.13 -0.13)">
      <defs>
       <path id="DejaVuSans-56" d="M 1831 0 
L 50 4666 
L 709 4666 
L 2188 738 
L 3669 4666 
L 4325 4666 
L 2547 0 
L 1831 0 
z
" transform="scale(0.015625)"/>
       <path id="DejaVuSans-62" d="M 3116 1747 
Q 3116 2381 2855 2742 
Q 2594 3103 2138 3103 
Q 1681 3103 1420 2742 
Q 1159 2381 1159 1747 
Q 1159 1113 1420 752 
Q 1681 391 2138 391 
Q 2594 391 2855 752 
Q 3116 1113 3116 1747 
z
M 1159 2969 
Q 1341 3281 1617 3432 
Q 1894 3584 2278 3584 
Q 2916 3584 3314 3078 
Q 3713 2572 3713 1747 
Q 3713 922 3314 415 
Q 2916 -91 2278 -91 
Q 1894 -91 1617 61 
Q 1341 213 1159 525 
L 1159 0 
L 581 0 
L 581 4863 
L 1159 4863 
L 1159 2969 
z
" transform="scale(0.015625)"/>
       <path id="DejaVuSans-6c" d="M 603 4863 
L 1178 4863 
L 1178 0 
L 603 0 
L 603 4863 
z
" transform="scale(0.015625)"/>
       <path id="DejaVuSans-79" d="M 2059 -325 
Q 1816 -950 1584 -1140 
Q 1353 -1331 966 -1331 
L 506 -1331 
L 506 -850 
L 844 -850 
Q 1081 -850 1212 -737 
Q 1344 -625 1503 -206 
L 1606 56 
L 191 3500 
L 800 3500 
L 1894 763 
L 2988 3500 
L 3597 3500 
L 2059 -325 
z
" transform="scale(0.015625)"/>
       <path id="DejaVuSans-25" d="M 4653 2053 
Q 4381 2053 4226 1822 
Q 4072 1591 4072 1178 
Q 4072 772 4226 539 
Q 4381 306 4653 306 
Q 4919 306 5073 539 
Q 5228 772 5228 1178 
Q 5228 1588 5073 1820 
Q 4919 2053 4653 2053 
z
M 4653 2450 
Q 5147 2450 5437 2106 
Q 5728 1763 5728 1178 
Q 5728 594 5436 251 
Q 5144 -91 4653 -91 
Q 4153 -91 3862 251 
Q 3572 594 3572 1178 
Q 3572 1766 3864 2108 
Q 4156 2450 4653 2450 
z
M 1428 4353 
Q 1159 4353 1004 4120 
Q 850 3888 850 3481 
Q 850 3069 1003 2837 
Q 1156 2606 1428 2606 
Q 1700 2606 1854 2837 
Q 2009 3069 2009 3481 
Q 2009 3884 1853 4118 
Q 1697 4353 1428 4353 
z
M 4250 4750 
L 4750 4750 
L 1831 -91 
L 1331 -91 
L 4250 4750 
z
M 1428 4750 
Q 1922 4750 2215 4408 
Q 2509 4066 2509 3481 
Q 2509 2891 2217 2550 
Q 1925 2209 1428 2209 
Q 931 2209 642 2551 
Q 353 2894 353 3481 
Q 353 4063 643 4406 
Q 934 4750 1428 4750 
z
" transform="scale(0.015625)"/>
      </defs>
      <use xlink:href="#DejaVuSans-56"/>
      <use xlink:href="#DejaVuSans-69" x="66.158203"/>
      <use xlink:href="#DejaVuSans-73" x="93.941406"/>
      <use xlink:href="#DejaVuSans-69" x="146.041016"/>
      <use xlink:href="#DejaVuSans-62" x="173.824219"/>
      <use xlink:href="#DejaVuSans-69" x="237.300781"/>
      <use xlink:href="#DejaVuSans-6c" x="265.083984"/>
      <use xlink:href="#DejaVuSans-69" x="292.867188"/>
      <use xlink:href="#DejaVuSans-74" x="320.650391"/>
      <use xlink:href="#DejaVuSans-79" x="359.859375"/>
      <use xlink:href="#DejaVuSans-20" x="419.039062"/>
      <use xlink:href="#DejaVuSans-28" x="450.826172"/>
      <use xlink:href="#DejaVuSans-25" x="489.839844"/>
      <use xlink:href="#DejaVuSans-29" x="584.859375"/>
     </g>
    </g>
   </g>
   <g id="LineCollection_1">
    <path d="M 590.820619 125.705057 
L 590.820619 111.829768 
" clip-path="url(#p10165fbb16)" style="fill: none; stroke: #1f77b4; stroke-opacity: 0.4; stroke-width: 4"/>
    <path d="M 618.63194 108.133186 
L 618.63194 95.06078 
" clip-path="url(#p10165fbb16)" style="fill: none; stroke: #1f77b4; stroke-opacity: 0.4; stroke-width: 4"/>
    <path d="M 646.443261 96.65183 
L 646.443261 83.662395 
" clip-path="url(#p10165fbb16)" style="fill: none; stroke: #1f77b4; stroke-opacity: 0.4; stroke-width: 4"/>
    <path d="M 674.254581 87.406231 
L 674.254581 73.55839 
" clip-path="url(#p10165fbb16)" style="fill: none; stroke: #1f77b4; stroke-opacity: 0.4; stroke-width: 4"/>
    <path d="M 702.065902 81.4278 
L 702.065902 68.981868 
" clip-path="url(#p10165fbb16)" style="fill: none; stroke: #1f77b4; stroke-opacity: 0.4; stroke-width: 4"/>
    <path d="M 729.877223 76.422236 
L 729.877223 66.147691 
" clip-path="url(#p10165fbb16)" style="fill: none; stroke: #1f77b4; stroke-opacity: 0.4; stroke-width: 4"/>
    <path d="M 757.688544 73.212091 
L 757.688544 59.109784 
" clip-path="url(#p10165fbb16)" style="fill: none; stroke: #1f77b4; stroke-opacity: 0.4; stroke-width: 4"/>
    <path d="M 785.499864 76.997059 
L 785.499864 48.214411 
" clip-path="url(#p10165fbb16)" style="fill: none; stroke: #1f77b4; stroke-opacity: 0.4; stroke-width: 4"/>
    <path d="M 813.311185 68.275738 
L 813.311185 46.852043 
" clip-path="url(#p10165fbb16)" style="fill: none; stroke: #1f77b4; stroke-opacity: 0.4; stroke-width: 4"/>
    <path d="M 841.122506 84.459377 
L 841.122506 26.806943 
" clip-path="url(#p10165fbb16)" style="fill: none; stroke: #1f77b4; stroke-opacity: 0.4; stroke-width: 4"/>
   </g>
   <g id="line2d_64">
    <defs>
     <path id="mb0e9c5eea5" d="M 1 0 
L -1 -0 
" style="stroke: #1f77b4; stroke-opacity: 0.4"/>
    </defs>
    <g clip-path="url(#p10165fbb16)">
     <use xlink:href="#mb0e9c5eea5" x="590.820619" y="125.705057" style="fill: #1f77b4; fill-opacity: 0.4; stroke: #1f77b4; stroke-opacity: 0.4"/>
     <use xlink:href="#mb0e9c5eea5" x="618.63194" y="108.133186" style="fill: #1f77b4; fill-opacity: 0.4; stroke: #1f77b4; stroke-opacity: 0.4"/>
     <use xlink:href="#mb0e9c5eea5" x="646.443261" y="96.65183" style="fill: #1f77b4; fill-opacity: 0.4; stroke: #1f77b4; stroke-opacity: 0.4"/>
     <use xlink:href="#mb0e9c5eea5" x="674.254581" y="87.406231" style="fill: #1f77b4; fill-opacity: 0.4; stroke: #1f77b4; stroke-opacity: 0.4"/>
     <use xlink:href="#mb0e9c5eea5" x="702.065902" y="81.4278" style="fill: #1f77b4; fill-opacity: 0.4; stroke: #1f77b4; stroke-opacity: 0.4"/>
     <use xlink:href="#mb0e9c5eea5" x="729.877223" y="76.422236" style="fill: #1f77b4; fill-opacity: 0.4; stroke: #1f77b4; stroke-opacity: 0.4"/>
     <use xlink:href="#mb0e9c5eea5" x="757.688544" y="73.212091" style="fill: #1f77b4; fill-opacity: 0.4; stroke: #1f77b4; stroke-opacity: 0.4"/>
     <use xlink:href="#mb0e9c5eea5" x="785.499864" y="76.997059" style="fill: #1f77b4; fill-opacity: 0.4; stroke: #1f77b4; stroke-opacity: 0.4"/>
     <use xlink:href="#mb0e9c5eea5" x="813.311185" y="68.275738" style="fill: #1f77b4; fill-opacity: 0.4; stroke: #1f77b4; stroke-opacity: 0.4"/>
     <use xlink:href="#mb0e9c5eea5" x="841.122506" y="84.459377" style="fill: #1f77b4; fill-opacity: 0.4; stroke: #1f77b4; stroke-opacity: 0.4"/>
    </g>
   </g>
   <g id="line2d_65">
    <g clip-path="url(#p10165fbb16)">
     <use xlink:href="#mb0e9c5eea5" x="590.820619" y="111.829768" style="fill: #1f77b4; fill-opacity: 0.4; stroke: #1f77b4; stroke-opacity: 0.4"/>
     <use xlink:href="#mb0e9c5eea5" x="618.63194" y="95.06078" style="fill: #1f77b4; fill-opacity: 0.4; stroke: #1f77b4; stroke-opacity: 0.4"/>
     <use xlink:href="#mb0e9c5eea5" x="646.443261" y="83.662395" style="fill: #1f77b4; fill-opacity: 0.4; stroke: #1f77b4; stroke-opacity: 0.4"/>
     <use xlink:href="#mb0e9c5eea5" x="674.254581" y="73.55839" style="fill: #1f77b4; fill-opacity: 0.4; stroke: #1f77b4; stroke-opacity: 0.4"/>
     <use xlink:href="#mb0e9c5eea5" x="702.065902" y="68.981868" style="fill: #1f77b4; fill-opacity: 0.4; stroke: #1f77b4; stroke-opacity: 0.4"/>
     <use xlink:href="#mb0e9c5eea5" x="729.877223" y="66.147691" style="fill: #1f77b4; fill-opacity: 0.4; stroke: #1f77b4; stroke-opacity: 0.4"/>
     <use xlink:href="#mb0e9c5eea5" x="757.688544" y="59.109784" style="fill: #1f77b4; fill-opacity: 0.4; stroke: #1f77b4; stroke-opacity: 0.4"/>
     <use xlink:href="#mb0e9c5eea5" x="785.499864" y="48.214411" style="fill: #1f77b4; fill-opacity: 0.4; stroke: #1f77b4; stroke-opacity: 0.4"/>
     <use xlink:href="#mb0e9c5eea5" x="813.311185" y="46.852043" style="fill: #1f77b4; fill-opacity: 0.4; stroke: #1f77b4; stroke-opacity: 0.4"/>
     <use xlink:href="#mb0e9c5eea5" x="841.122506" y="26.806943" style="fill: #1f77b4; fill-opacity: 0.4; stroke: #1f77b4; stroke-opacity: 0.4"/>
    </g>
   </g>
   <g id="line2d_66">
    <path d="M 625.58477 128.672 
L 625.58477 23.84 
" clip-path="url(#p10165fbb16)" style="fill: none; stroke-dasharray: 8.325,3.6; stroke-dashoffset: 0; stroke: #ff0000; stroke-opacity: 0.5; stroke-width: 2.25; stroke-linecap: round"/>
   </g>
   <g id="line2d_67">
    <path d="M 590.820619 118.767412 
L 618.63194 101.596983 
L 646.443261 90.157113 
L 674.254581 80.48231 
L 702.065902 75.204834 
L 729.877223 71.284964 
L 757.688544 66.160937 
L 785.499864 62.605735 
L 813.311185 57.56389 
L 841.122506 55.63316 
" clip-path="url(#p10165fbb16)" style="fill: none; stroke: #1f77b4; stroke-opacity: 0.4; stroke-width: 2.25; stroke-linecap: square"/>
    <defs>
     <path id="mc832836d47" d="M 0 3 
C 0.795609 3 1.55874 2.683901 2.12132 2.12132 
C 2.683901 1.55874 3 0.795609 3 0 
C 3 -0.795609 2.683901 -1.55874 2.12132 -2.12132 
C 1.55874 -2.683901 0.795609 -3 0 -3 
C -0.795609 -3 -1.55874 -2.683901 -2.12132 -2.12132 
C -2.683901 -1.55874 -3 -0.795609 -3 0 
C -3 0.795609 -2.683901 1.55874 -2.12132 2.12132 
C -1.55874 2.683901 -0.795609 3 0 3 
z
" style="stroke: #1f77b4; stroke-opacity: 0.4"/>
    </defs>
    <g clip-path="url(#p10165fbb16)">
     <use xlink:href="#mc832836d47" x="590.820619" y="118.767412" style="fill: #1f77b4; fill-opacity: 0.4; stroke: #1f77b4; stroke-opacity: 0.4"/>
     <use xlink:href="#mc832836d47" x="618.63194" y="101.596983" style="fill: #1f77b4; fill-opacity: 0.4; stroke: #1f77b4; stroke-opacity: 0.4"/>
     <use xlink:href="#mc832836d47" x="646.443261" y="90.157113" style="fill: #1f77b4; fill-opacity: 0.4; stroke: #1f77b4; stroke-opacity: 0.4"/>
     <use xlink:href="#mc832836d47" x="674.254581" y="80.48231" style="fill: #1f77b4; fill-opacity: 0.4; stroke: #1f77b4; stroke-opacity: 0.4"/>
     <use xlink:href="#mc832836d47" x="702.065902" y="75.204834" style="fill: #1f77b4; fill-opacity: 0.4; stroke: #1f77b4; stroke-opacity: 0.4"/>
     <use xlink:href="#mc832836d47" x="729.877223" y="71.284964" style="fill: #1f77b4; fill-opacity: 0.4; stroke: #1f77b4; stroke-opacity: 0.4"/>
     <use xlink:href="#mc832836d47" x="757.688544" y="66.160937" style="fill: #1f77b4; fill-opacity: 0.4; stroke: #1f77b4; stroke-opacity: 0.4"/>
     <use xlink:href="#mc832836d47" x="785.499864" y="62.605735" style="fill: #1f77b4; fill-opacity: 0.4; stroke: #1f77b4; stroke-opacity: 0.4"/>
     <use xlink:href="#mc832836d47" x="813.311185" y="57.56389" style="fill: #1f77b4; fill-opacity: 0.4; stroke: #1f77b4; stroke-opacity: 0.4"/>
     <use xlink:href="#mc832836d47" x="841.122506" y="55.63316" style="fill: #1f77b4; fill-opacity: 0.4; stroke: #1f77b4; stroke-opacity: 0.4"/>
    </g>
   </g>
   <g id="patch_10">
    <path d="M 583.311563 128.672 
L 583.311563 23.84 
" style="fill: none; stroke: #333333; stroke-width: 1.2; stroke-linejoin: miter; stroke-linecap: square"/>
   </g>
   <g id="patch_11">
    <path d="M 583.311563 128.672 
L 848.631562 128.672 
" style="fill: none; stroke: #333333; stroke-width: 1.2; stroke-linejoin: miter; stroke-linecap: square"/>
   </g>
   <g id="text_24">
    <!-- visibility and rate vs guard widths, $\mu$ = 3.6e-5 -->
    <g style="fill: #333333" transform="translate(555.741562 17.84) scale(0.14 -0.14)">
     <defs>
      <path id="DejaVuSans-76" d="M 191 3500 
L 800 3500 
L 1894 563 
L 2988 3500 
L 3597 3500 
L 2284 0 
L 1503 0 
L 191 3500 
z
" transform="scale(0.015625)"/>
      <path id="DejaVuSans-61" d="M 2194 1759 
Q 1497 1759 1228 1600 
Q 959 1441 959 1056 
Q 959 750 1161 570 
Q 1363 391 1709 391 
Q 2188 391 2477 730 
Q 2766 1069 2766 1631 
L 2766 1759 
L 2194 1759 
z
M 3341 1997 
L 3341 0 
L 2766 0 
L 2766 531 
Q 2569 213 2275 61 
Q 1981 -91 1556 -91 
Q 1019 -91 701 211 
Q 384 513 384 1019 
Q 384 1609 779 1909 
Q 1175 2209 1959 2209 
L 2766 2209 
L 2766 2266 
Q 2766 2663 2505 2880 
Q 2244 3097 1772 3097 
Q 1472 3097 1187 3025 
Q 903 2953 641 2809 
L 641 3341 
Q 956 3463 1253 3523 
Q 1550 3584 1831 3584 
Q 2591 3584 2966 3190 
Q 3341 2797 3341 1997 
z
" transform="scale(0.015625)"/>
      <path id="DejaVuSans-72" d="M 2631 2963 
Q 2534 3019 2420 3045 
Q 2306 3072 2169 3072 
Q 1681 3072 1420 2755 
Q 1159 2438 1159 1844 
L 1159 0 
L 581 0 
L 581 3500 
L 1159 3500 
L 1159 2956 
Q 1341 3275 1631 3429 
Q 1922 3584 2338 3584 
Q 2397 3584 2469 3576 
Q 2541 3569 2628 3553 
L 2631 2963 
z
" transform="scale(0.015625)"/>
      <path id="DejaVuSans-67" d="M 2906 1791 
Q 2906 2416 2648 2759 
Q 2391 3103 1925 3103 
Q 1463 3103 1205 2759 
Q 947 2416 947 1791 
Q 947 1169 1205 825 
Q 1463 481 1925 481 
Q 2391 481 2648 825 
Q 2906 1169 2906 1791 
z
M 3481 434 
Q 3481 -459 3084 -895 
Q 2688 -1331 1869 -1331 
Q 1566 -1331 1297 -1286 
Q 1028 -1241 775 -1147 
L 775 -588 
Q 1028 -725 1275 -790 
Q 1522 -856 1778 -856 
Q 2344 -856 2625 -561 
Q 2906 -266 2906 331 
L 2906 616 
Q 2728 306 2450 153 
Q 2172 0 1784 0 
Q 1141 0 747 490 
Q 353 981 353 1791 
Q 353 2603 747 3093 
Q 1141 3584 1784 3584 
Q 2172 3584 2450 3431 
Q 2728 3278 2906 2969 
L 2906 3500 
L 3481 3500 
L 3481 434 
z
" transform="scale(0.015625)"/>
      <path id="DejaVuSans-75" d="M 544 1381 
L 544 3500 
L 1119 3500 
L 1119 1403 
Q 1119 906 1312 657 
Q 1506 409 1894 409 
Q 2359 409 2629 706 
Q 2900 1003 2900 1516 
L 2900 3500 
L 3475 3500 
L 3475 0 
L 2900 0 
L 2900 538 
Q 2691 219 2414 64 
Q 2138 -91 1772 -91 
Q 1169 -91 856 284 
Q 544 659 544 1381 
z
M 1991 3584 
L 1991 3584 
z
" transform="scale(0.015625)"/>
      <path id="DejaVuSans-77" d="M 269 3500 
L 844 3500 
L 1563 769 
L 2278 3500 
L 2956 3500 
L 3675 769 
L 4391 3500 
L 4966 3500 
L 4050 0 
L 3372 0 
L 2619 2869 
L 1863 0 
L 1184 0 
L 269 3500 
z
" transform="scale(0.015625)"/>
      <path id="DejaVuSans-68" d="M 3513 2113 
L 3513 0 
L 2938 0 
L 2938 2094 
Q 2938 2591 2744 2837 
Q 2550 3084 2163 3084 
Q 1697 3084 1428 2787 
Q 1159 2491 1159 1978 
L 1159 0 
L 581 0 
L 581 4863 
L 1159 4863 
L 1159 2956 
Q 1366 3272 1645 3428 
Q 1925 3584 2291 3584 
Q 2894 3584 3203 3211 
Q 3513 2838 3513 2113 
z
" transform="scale(0.015625)"/>
      <path id="DejaVuSans-2c" d="M 750 794 
L 1409 794 
L 1409 256 
L 897 -744 
L 494 -744 
L 750 256 
L 750 794 
z
" transform="scale(0.015625)"/>
      <path id="DejaVuSans-Oblique-3bc" d="M -84 -1331 
L 856 3500 
L 1434 3500 
L 1009 1322 
Q 997 1256 987 1175 
Q 978 1094 978 1013 
Q 978 722 1161 565 
Q 1344 409 1684 409 
Q 2147 409 2431 671 
Q 2716 934 2816 1459 
L 3213 3500 
L 3788 3500 
L 3266 809 
Q 3253 750 3248 706 
Q 3244 663 3244 628 
Q 3244 531 3283 486 
Q 3322 441 3406 441 
Q 3438 441 3492 456 
Q 3547 472 3647 513 
L 3559 50 
Q 3422 -19 3297 -55 
Q 3172 -91 3053 -91 
Q 2847 -91 2730 40 
Q 2613 172 2613 403 
Q 2438 153 2195 31 
Q 1953 -91 1625 -91 
Q 1334 -91 1117 43 
Q 900 178 831 397 
L 494 -1331 
L -84 -1331 
z
" transform="scale(0.015625)"/>
      <path id="DejaVuSans-3d" d="M 678 2906 
L 4684 2906 
L 4684 2381 
L 678 2381 
L 678 2906 
z
M 678 1631 
L 4684 1631 
L 4684 1100 
L 678 1100 
L 678 1631 
z
" transform="scale(0.015625)"/>
      <path id="DejaVuSans-2d" d="M 313 2009 
L 1997 2009 
L 1997 1497 
L 313 1497 
L 313 2009 
z
" transform="scale(0.015625)"/>
     </defs>
     <use xlink:href="#DejaVuSans-76" transform="translate(0 0.015625)"/>
     <use xlink:href="#DejaVuSans-69" transform="translate(59.179688 0.015625)"/>
     <use xlink:href="#DejaVuSans-73" transform="translate(86.962891 0.015625)"/>
     <use xlink:href="#DejaVuSans-69" transform="translate(139.0625 0.015625)"/>
     <use xlink:href="#DejaVuSans-62" transform="translate(166.845703 0.015625)"/>
     <use xlink:href="#DejaVuSans-69" transform="translate(230.322266 0.015625)"/>
     <use xlink:href="#DejaVuSans-6c" transform="translate(258.105469 0.015625)"/>
     <use xlink:href="#DejaVuSans-69" transform="translate(285.888672 0.015625)"/>
     <use xlink:href="#DejaVuSans-74" transform="translate(313.671875 0.015625)"/>
     <use xlink:href="#DejaVuSans-79" transform="translate(352.880859 0.015625)"/>
     <use xlink:href="#DejaVuSans-20" transform="translate(412.060547 0.015625)"/>
     <use xlink:href="#DejaVuSans-61" transform="translate(443.847656 0.015625)"/>
     <use xlink:href="#DejaVuSans-6e" transform="translate(505.126953 0.015625)"/>
     <use xlink:href="#DejaVuSans-64" transform="translate(568.505859 0.015625)"/>
     <use xlink:href="#DejaVuSans-20" transform="translate(631.982422 0.015625)"/>
     <use xlink:href="#DejaVuSans-72" transform="translate(663.769531 0.015625)"/>
     <use xlink:href="#DejaVuSans-61" transform="translate(704.882812 0.015625)"/>
     <use xlink:href="#DejaVuSans-74" transform="translate(766.162109 0.015625)"/>
     <use xlink:href="#DejaVuSans-65" transform="translate(805.371094 0.015625)"/>
     <use xlink:href="#DejaVuSans-20" transform="translate(866.894531 0.015625)"/>
     <use xlink:href="#DejaVuSans-76" transform="translate(898.681641 0.015625)"/>
     <use xlink:href="#DejaVuSans-73" transform="translate(957.861328 0.015625)"/>
     <use xlink:href="#DejaVuSans-20" transform="translate(1009.960938 0.015625)"/>
     <use xlink:href="#DejaVuSans-67" transform="translate(1041.748047 0.015625)"/>
     <use xlink:href="#DejaVuSans-75" transform="translate(1105.224609 0.015625)"/>
     <use xlink:href="#DejaVuSans-61" transform="translate(1168.603516 0.015625)"/>
     <use xlink:href="#DejaVuSans-72" transform="translate(1229.882812 0.015625)"/>
     <use xlink:href="#DejaVuSans-64" transform="translate(1270.996094 0.015625)"/>
     <use xlink:href="#DejaVuSans-20" transform="translate(1334.472656 0.015625)"/>
     <use xlink:href="#DejaVuSans-77" transform="translate(1366.259766 0.015625)"/>
     <use xlink:href="#DejaVuSans-69" transform="translate(1448.046875 0.015625)"/>
     <use xlink:href="#DejaVuSans-64" transform="translate(1475.830078 0.015625)"/>
     <use xlink:href="#DejaVuSans-74" transform="translate(1539.306641 0.015625)"/>
     <use xlink:href="#DejaVuSans-68" transform="translate(1578.515625 0.015625)"/>
     <use xlink:href="#DejaVuSans-73" transform="translate(1641.894531 0.015625)"/>
     <use xlink:href="#DejaVuSans-2c" transform="translate(1693.994141 0.015625)"/>
     <use xlink:href="#DejaVuSans-20" transform="translate(1725.78125 0.015625)"/>
     <use xlink:href="#DejaVuSans-Oblique-3bc" transform="translate(1757.568359 0.015625)"/>
     <use xlink:href="#DejaVuSans-20" transform="translate(1821.191406 0.015625)"/>
     <use xlink:href="#DejaVuSans-3d" transform="translate(1852.978516 0.015625)"/>
     <use xlink:href="#DejaVuSans-20" transform="translate(1936.767578 0.015625)"/>
     <use xlink:href="#DejaVuSans-33" transform="translate(1968.554688 0.015625)"/>
     <use xlink:href="#DejaVuSans-2e" transform="translate(2032.177734 0.015625)"/>
     <use xlink:href="#DejaVuSans-36" transform="translate(2063.964844 0.015625)"/>
     <use xlink:href="#DejaVuSans-65" transform="translate(2127.587891 0.015625)"/>
     <use xlink:href="#DejaVuSans-2d" transform="translate(2189.111328 0.015625)"/>
     <use xlink:href="#DejaVuSans-35" transform="translate(2225.195312 0.015625)"/>
    </g>
   </g>
  </g>
  <g id="axes_3">
   <g id="patch_12">
    <path d="M 583.311563 254.24 
L 848.631562 254.24 
L 848.631562 149.408 
L 583.311563 149.408 
z
" style="fill: #fdfeff; fill-opacity: 0.6"/>
   </g>
   <g id="matplotlib.axis_5">
    <g id="xtick_14">
     <g id="line2d_68">
      <path d="M 590.820619 254.24 
L 590.820619 149.408 
" clip-path="url(#p1bddd0fb4c)" style="fill: none; stroke: #b0b0b0; stroke-opacity: 0.3; stroke-width: 0.8; stroke-linecap: square"/>
     </g>
     <g id="line2d_69">
      <g>
       <use xlink:href="#m08d83aae07" x="590.820619" y="254.24" style="fill: #333333; stroke: #333333; stroke-width: 1.2"/>
      </g>
     </g>
     <g id="text_25">
      <!-- 0 -->
      <g style="fill: #333333" transform="translate(587.321244 269.598281) scale(0.11 -0.11)">
       <use xlink:href="#DejaVuSans-30"/>
      </g>
     </g>
    </g>
    <g id="xtick_15">
     <g id="line2d_70">
      <path d="M 625.58477 254.24 
L 625.58477 149.408 
" clip-path="url(#p1bddd0fb4c)" style="fill: none; stroke: #b0b0b0; stroke-opacity: 0.3; stroke-width: 0.8; stroke-linecap: square"/>
     </g>
     <g id="line2d_71">
      <g>
       <use xlink:href="#m08d83aae07" x="625.58477" y="254.24" style="fill: #333333; stroke: #333333; stroke-width: 1.2"/>
      </g>
     </g>
     <g id="text_26">
      <!-- 10 -->
      <g style="fill: #333333" transform="translate(618.58602 269.598281) scale(0.11 -0.11)">
       <use xlink:href="#DejaVuSans-31"/>
       <use xlink:href="#DejaVuSans-30" x="63.623047"/>
      </g>
     </g>
    </g>
    <g id="xtick_16">
     <g id="line2d_72">
      <path d="M 660.348921 254.24 
L 660.348921 149.408 
" clip-path="url(#p1bddd0fb4c)" style="fill: none; stroke: #b0b0b0; stroke-opacity: 0.3; stroke-width: 0.8; stroke-linecap: square"/>
     </g>
     <g id="line2d_73">
      <g>
       <use xlink:href="#m08d83aae07" x="660.348921" y="254.24" style="fill: #333333; stroke: #333333; stroke-width: 1.2"/>
      </g>
     </g>
     <g id="text_27">
      <!-- 20 -->
      <g style="fill: #333333" transform="translate(653.350171 269.598281) scale(0.11 -0.11)">
       <use xlink:href="#DejaVuSans-32"/>
       <use xlink:href="#DejaVuSans-30" x="63.623047"/>
      </g>
     </g>
    </g>
    <g id="xtick_17">
     <g id="line2d_74">
      <path d="M 695.113072 254.24 
L 695.113072 149.408 
" clip-path="url(#p1bddd0fb4c)" style="fill: none; stroke: #b0b0b0; stroke-opacity: 0.3; stroke-width: 0.8; stroke-linecap: square"/>
     </g>
     <g id="line2d_75">
      <g>
       <use xlink:href="#m08d83aae07" x="695.113072" y="254.24" style="fill: #333333; stroke: #333333; stroke-width: 1.2"/>
      </g>
     </g>
     <g id="text_28">
      <!-- 30 -->
      <g style="fill: #333333" transform="translate(688.114322 269.598281) scale(0.11 -0.11)">
       <use xlink:href="#DejaVuSans-33"/>
       <use xlink:href="#DejaVuSans-30" x="63.623047"/>
      </g>
     </g>
    </g>
    <g id="xtick_18">
     <g id="line2d_76">
      <path d="M 729.877223 254.24 
L 729.877223 149.408 
" clip-path="url(#p1bddd0fb4c)" style="fill: none; stroke: #b0b0b0; stroke-opacity: 0.3; stroke-width: 0.8; stroke-linecap: square"/>
     </g>
     <g id="line2d_77">
      <g>
       <use xlink:href="#m08d83aae07" x="729.877223" y="254.24" style="fill: #333333; stroke: #333333; stroke-width: 1.2"/>
      </g>
     </g>
     <g id="text_29">
      <!-- 40 -->
      <g style="fill: #333333" transform="translate(722.878473 269.598281) scale(0.11 -0.11)">
       <use xlink:href="#DejaVuSans-34"/>
       <use xlink:href="#DejaVuSans-30" x="63.623047"/>
      </g>
     </g>
    </g>
    <g id="xtick_19">
     <g id="line2d_78">
      <path d="M 764.641374 254.24 
L 764.641374 149.408 
" clip-path="url(#p1bddd0fb4c)" style="fill: none; stroke: #b0b0b0; stroke-opacity: 0.3; stroke-width: 0.8; stroke-linecap: square"/>
     </g>
     <g id="line2d_79">
      <g>
       <use xlink:href="#m08d83aae07" x="764.641374" y="254.24" style="fill: #333333; stroke: #333333; stroke-width: 1.2"/>
      </g>
     </g>
     <g id="text_30">
      <!-- 50 -->
      <g style="fill: #333333" transform="translate(757.642624 269.598281) scale(0.11 -0.11)">
       <use xlink:href="#DejaVuSans-35"/>
       <use xlink:href="#DejaVuSans-30" x="63.623047"/>
      </g>
     </g>
    </g>
    <g id="xtick_20">
     <g id="line2d_80">
      <path d="M 799.405525 254.24 
L 799.405525 149.408 
" clip-path="url(#p1bddd0fb4c)" style="fill: none; stroke: #b0b0b0; stroke-opacity: 0.3; stroke-width: 0.8; stroke-linecap: square"/>
     </g>
     <g id="line2d_81">
      <g>
       <use xlink:href="#m08d83aae07" x="799.405525" y="254.24" style="fill: #333333; stroke: #333333; stroke-width: 1.2"/>
      </g>
     </g>
     <g id="text_31">
      <!-- 60 -->
      <g style="fill: #333333" transform="translate(792.406775 269.598281) scale(0.11 -0.11)">
       <use xlink:href="#DejaVuSans-36"/>
       <use xlink:href="#DejaVuSans-30" x="63.623047"/>
      </g>
     </g>
    </g>
    <g id="xtick_21">
     <g id="line2d_82">
      <path d="M 834.169676 254.24 
L 834.169676 149.408 
" clip-path="url(#p1bddd0fb4c)" style="fill: none; stroke: #b0b0b0; stroke-opacity: 0.3; stroke-width: 0.8; stroke-linecap: square"/>
     </g>
     <g id="line2d_83">
      <g>
       <use xlink:href="#m08d83aae07" x="834.169676" y="254.24" style="fill: #333333; stroke: #333333; stroke-width: 1.2"/>
      </g>
     </g>
     <g id="text_32">
      <!-- 70 -->
      <g style="fill: #333333" transform="translate(827.170926 269.598281) scale(0.11 -0.11)">
       <use xlink:href="#DejaVuSans-37"/>
       <use xlink:href="#DejaVuSans-30" x="63.623047"/>
      </g>
     </g>
    </g>
    <g id="text_33">
     <!-- Guard size x (ps) -->
     <g style="fill: #333333" transform="translate(660.915547 285.763906) scale(0.13 -0.13)">
      <defs>
       <path id="DejaVuSans-47" d="M 3809 666 
L 3809 1919 
L 2778 1919 
L 2778 2438 
L 4434 2438 
L 4434 434 
Q 4069 175 3628 42 
Q 3188 -91 2688 -91 
Q 1594 -91 976 548 
Q 359 1188 359 2328 
Q 359 3472 976 4111 
Q 1594 4750 2688 4750 
Q 3144 4750 3555 4637 
Q 3966 4525 4313 4306 
L 4313 3634 
Q 3963 3931 3569 4081 
Q 3175 4231 2741 4231 
Q 1884 4231 1454 3753 
Q 1025 3275 1025 2328 
Q 1025 1384 1454 906 
Q 1884 428 2741 428 
Q 3075 428 3337 486 
Q 3600 544 3809 666 
z
" transform="scale(0.015625)"/>
      </defs>
      <use xlink:href="#DejaVuSans-47"/>
      <use xlink:href="#DejaVuSans-75" x="77.490234"/>
      <use xlink:href="#DejaVuSans-61" x="140.869141"/>
      <use xlink:href="#DejaVuSans-72" x="202.148438"/>
      <use xlink:href="#DejaVuSans-64" x="241.511719"/>
      <use xlink:href="#DejaVuSans-20" x="304.988281"/>
      <use xlink:href="#DejaVuSans-73" x="336.775391"/>
      <use xlink:href="#DejaVuSans-69" x="388.875"/>
      <use xlink:href="#DejaVuSans-7a" x="416.658203"/>
      <use xlink:href="#DejaVuSans-65" x="469.148438"/>
      <use xlink:href="#DejaVuSans-20" x="530.671875"/>
      <use xlink:href="#DejaVuSans-78" x="562.458984"/>
      <use xlink:href="#DejaVuSans-20" x="621.638672"/>
      <use xlink:href="#DejaVuSans-28" x="653.425781"/>
      <use xlink:href="#DejaVuSans-70" x="692.439453"/>
      <use xlink:href="#DejaVuSans-73" x="755.916016"/>
      <use xlink:href="#DejaVuSans-29" x="808.015625"/>
     </g>
    </g>
   </g>
   <g id="matplotlib.axis_6">
    <g id="ytick_31">
     <g id="line2d_84">
      <path d="M 583.311563 241.63865 
L 848.631562 241.63865 
" clip-path="url(#p1bddd0fb4c)" style="fill: none; stroke: #b0b0b0; stroke-opacity: 0.3; stroke-width: 0.8; stroke-linecap: square"/>
     </g>
     <g id="line2d_85">
      <g>
       <use xlink:href="#mad5b0295c7" x="583.311563" y="241.63865" style="fill: #333333; stroke: #333333; stroke-width: 1.2"/>
      </g>
     </g>
     <g id="text_34">
      <!-- 500 -->
      <g style="fill: #333333" transform="translate(555.315313 245.81779) scale(0.11 -0.11)">
       <use xlink:href="#DejaVuSans-35"/>
       <use xlink:href="#DejaVuSans-30" x="63.623047"/>
       <use xlink:href="#DejaVuSans-30" x="127.246094"/>
      </g>
     </g>
    </g>
    <g id="ytick_32">
     <g id="line2d_86">
      <path d="M 583.311563 208.534192 
L 848.631562 208.534192 
" clip-path="url(#p1bddd0fb4c)" style="fill: none; stroke: #b0b0b0; stroke-opacity: 0.3; stroke-width: 0.8; stroke-linecap: square"/>
     </g>
     <g id="line2d_87">
      <g>
       <use xlink:href="#mad5b0295c7" x="583.311563" y="208.534192" style="fill: #333333; stroke: #333333; stroke-width: 1.2"/>
      </g>
     </g>
     <g id="text_35">
      <!-- 1000 -->
      <g style="fill: #333333" transform="translate(548.316563 212.713332) scale(0.11 -0.11)">
       <use xlink:href="#DejaVuSans-31"/>
       <use xlink:href="#DejaVuSans-30" x="63.623047"/>
       <use xlink:href="#DejaVuSans-30" x="127.246094"/>
       <use xlink:href="#DejaVuSans-30" x="190.869141"/>
      </g>
     </g>
    </g>
    <g id="ytick_33">
     <g id="line2d_88">
      <path d="M 583.311563 175.429734 
L 848.631562 175.429734 
" clip-path="url(#p1bddd0fb4c)" style="fill: none; stroke: #b0b0b0; stroke-opacity: 0.3; stroke-width: 0.8; stroke-linecap: square"/>
     </g>
     <g id="line2d_89">
      <g>
       <use xlink:href="#mad5b0295c7" x="583.311563" y="175.429734" style="fill: #333333; stroke: #333333; stroke-width: 1.2"/>
      </g>
     </g>
     <g id="text_36">
      <!-- 1500 -->
      <g style="fill: #333333" transform="translate(548.316563 179.608874) scale(0.11 -0.11)">
       <use xlink:href="#DejaVuSans-31"/>
       <use xlink:href="#DejaVuSans-35" x="63.623047"/>
       <use xlink:href="#DejaVuSans-30" x="127.246094"/>
       <use xlink:href="#DejaVuSans-30" x="190.869141"/>
      </g>
     </g>
    </g>
    <g id="text_37">
     <!-- Coincidence Rate (Hz) -->
     <g style="fill: #333333" transform="translate(541.612969 273.868375) rotate(-90) scale(0.13 -0.13)">
      <defs>
       <path id="DejaVuSans-52" d="M 2841 2188 
Q 3044 2119 3236 1894 
Q 3428 1669 3622 1275 
L 4263 0 
L 3584 0 
L 2988 1197 
Q 2756 1666 2539 1819 
Q 2322 1972 1947 1972 
L 1259 1972 
L 1259 0 
L 628 0 
L 628 4666 
L 2053 4666 
Q 2853 4666 3247 4331 
Q 3641 3997 3641 3322 
Q 3641 2881 3436 2590 
Q 3231 2300 2841 2188 
z
M 1259 4147 
L 1259 2491 
L 2053 2491 
Q 2509 2491 2742 2702 
Q 2975 2913 2975 3322 
Q 2975 3731 2742 3939 
Q 2509 4147 2053 4147 
L 1259 4147 
z
" transform="scale(0.015625)"/>
      </defs>
      <use xlink:href="#DejaVuSans-43"/>
      <use xlink:href="#DejaVuSans-6f" x="69.824219"/>
      <use xlink:href="#DejaVuSans-69" x="131.005859"/>
      <use xlink:href="#DejaVuSans-6e" x="158.789062"/>
      <use xlink:href="#DejaVuSans-63" x="222.167969"/>
      <use xlink:href="#DejaVuSans-69" x="277.148438"/>
      <use xlink:href="#DejaVuSans-64" x="304.931641"/>
      <use xlink:href="#DejaVuSans-65" x="368.408203"/>
      <use xlink:href="#DejaVuSans-6e" x="429.931641"/>
      <use xlink:href="#DejaVuSans-63" x="493.310547"/>
      <use xlink:href="#DejaVuSans-65" x="548.291016"/>
      <use xlink:href="#DejaVuSans-20" x="609.814453"/>
      <use xlink:href="#DejaVuSans-52" x="641.601562"/>
      <use xlink:href="#DejaVuSans-61" x="708.833984"/>
      <use xlink:href="#DejaVuSans-74" x="770.113281"/>
      <use xlink:href="#DejaVuSans-65" x="809.322266"/>
      <use xlink:href="#DejaVuSans-20" x="870.845703"/>
      <use xlink:href="#DejaVuSans-28" x="902.632812"/>
      <use xlink:href="#DejaVuSans-48" x="941.646484"/>
      <use xlink:href="#DejaVuSans-7a" x="1016.841797"/>
      <use xlink:href="#DejaVuSans-29" x="1069.332031"/>
     </g>
    </g>
   </g>
   <g id="line2d_90">
    <path d="M 590.820619 152.374943 
L 618.63194 152.757454 
L 646.443261 153.570103 
L 674.254581 156.006028 
L 702.065902 162.655277 
L 729.877223 176.48956 
L 757.688544 197.365965 
L 785.499864 220.072558 
L 813.311185 238.634754 
L 841.122506 251.273057 
" clip-path="url(#p1bddd0fb4c)" style="fill: none; stroke: #1f77b4; stroke-opacity: 0.5; stroke-width: 2.25; stroke-linecap: square"/>
    <defs>
     <path id="ma55b9c0538" d="M 0 3 
C 0.795609 3 1.55874 2.683901 2.12132 2.12132 
C 2.683901 1.55874 3 0.795609 3 0 
C 3 -0.795609 2.683901 -1.55874 2.12132 -2.12132 
C 1.55874 -2.683901 0.795609 -3 0 -3 
C -0.795609 -3 -1.55874 -2.683901 -2.12132 -2.12132 
C -2.683901 -1.55874 -3 -0.795609 -3 0 
C -3 0.795609 -2.683901 1.55874 -2.12132 2.12132 
C -1.55874 2.683901 -0.795609 3 0 3 
z
" style="stroke: #1f77b4; stroke-opacity: 0.5"/>
    </defs>
    <g clip-path="url(#p1bddd0fb4c)">
     <use xlink:href="#ma55b9c0538" x="590.820619" y="152.374943" style="fill: #1f77b4; fill-opacity: 0.5; stroke: #1f77b4; stroke-opacity: 0.5"/>
     <use xlink:href="#ma55b9c0538" x="618.63194" y="152.757454" style="fill: #1f77b4; fill-opacity: 0.5; stroke: #1f77b4; stroke-opacity: 0.5"/>
     <use xlink:href="#ma55b9c0538" x="646.443261" y="153.570103" style="fill: #1f77b4; fill-opacity: 0.5; stroke: #1f77b4; stroke-opacity: 0.5"/>
     <use xlink:href="#ma55b9c0538" x="674.254581" y="156.006028" style="fill: #1f77b4; fill-opacity: 0.5; stroke: #1f77b4; stroke-opacity: 0.5"/>
     <use xlink:href="#ma55b9c0538" x="702.065902" y="162.655277" style="fill: #1f77b4; fill-opacity: 0.5; stroke: #1f77b4; stroke-opacity: 0.5"/>
     <use xlink:href="#ma55b9c0538" x="729.877223" y="176.48956" style="fill: #1f77b4; fill-opacity: 0.5; stroke: #1f77b4; stroke-opacity: 0.5"/>
     <use xlink:href="#ma55b9c0538" x="757.688544" y="197.365965" style="fill: #1f77b4; fill-opacity: 0.5; stroke: #1f77b4; stroke-opacity: 0.5"/>
     <use xlink:href="#ma55b9c0538" x="785.499864" y="220.072558" style="fill: #1f77b4; fill-opacity: 0.5; stroke: #1f77b4; stroke-opacity: 0.5"/>
     <use xlink:href="#ma55b9c0538" x="813.311185" y="238.634754" style="fill: #1f77b4; fill-opacity: 0.5; stroke: #1f77b4; stroke-opacity: 0.5"/>
     <use xlink:href="#ma55b9c0538" x="841.122506" y="251.273057" style="fill: #1f77b4; fill-opacity: 0.5; stroke: #1f77b4; stroke-opacity: 0.5"/>
    </g>
   </g>
   <g id="line2d_91">
    <path d="M 625.58477 254.24 
L 625.58477 149.408 
" clip-path="url(#p1bddd0fb4c)" style="fill: none; stroke-dasharray: 8.325,3.6; stroke-dashoffset: 0; stroke: #ff0000; stroke-opacity: 0.5; stroke-width: 2.25; stroke-linecap: round"/>
   </g>
   <g id="patch_13">
    <path d="M 583.311563 254.24 
L 583.311563 149.408 
" style="fill: none; stroke: #333333; stroke-width: 1.2; stroke-linejoin: miter; stroke-linecap: square"/>
   </g>
   <g id="patch_14">
    <path d="M 583.311563 254.24 
L 848.631562 254.24 
" style="fill: none; stroke: #333333; stroke-width: 1.2; stroke-linejoin: miter; stroke-linecap: square"/>
   </g>
  </g>
 </g>
 <defs>
  <clipPath id="pe6801ba18a">
   <rect x="56.631563" y="23.84" width="423.72" height="230.4"/>
  </clipPath>
  <clipPath id="p10165fbb16">
   <rect x="583.311563" y="23.84" width="265.32" height="104.832"/>
  </clipPath>
  <clipPath id="p1bddd0fb4c">
   <rect x="583.311563" y="149.408" width="265.32" height="104.832"/>
  </clipPath>
 </defs>
</svg>
