<svg width="1156" height="332" viewBox="0 0 1156 332" fill="none" xmlns="http://www.w3.org/2000/svg">
<rect x="231.772" y="223.696" width="54.7153" height="20.5627" rx="2.2" fill="#F3D382" stroke="#FFE093" stroke-width="1.6"/>
<path d="M287.288 233.977C332.303 233.977 339.911 127.498 386.195 127.498" stroke="#F3C671" stroke-width="4"/>
<path d="M383.867 145.896C383.867 146.294 384.025 146.675 384.307 146.957C384.588 147.238 384.97 147.396 385.367 147.396C393.204 147.396 400.363 145.17 405.603 141.493C410.838 137.82 414.266 132.602 414.266 126.671C414.266 120.74 410.838 115.523 405.603 111.849C400.363 108.173 393.204 105.946 385.367 105.946C384.97 105.946 384.588 106.104 384.307 106.386C384.025 106.667 383.867 107.048 383.867 107.446L383.867 126.671L383.867 145.896Z" fill="#C4C4C4" stroke="#E3E3E3" stroke-width="3" stroke-linejoin="round"/>
<path d="M230.972 233.977L117.891 233.977" stroke="#F3C671" stroke-width="4"/>
<path d="M135.626 227.037C141.305 227.037 140.674 206.571 141.305 196.337" stroke="#FF5757" stroke-width="2" stroke-linecap="round"/>
<path d="M156.448 227.037C162.127 227.037 161.496 206.571 162.127 196.337" stroke="#FF5757" stroke-width="2" stroke-linecap="round"/>
<path d="M201.879 227.037C207.558 227.037 206.927 206.571 207.558 196.337" stroke="#FF5757" stroke-width="2" stroke-linecap="round"/>
<path d="M141.305 196.337C141.936 206.571 141.305 227.037 146.984 227.037H156.638" stroke="#FF5757" stroke-width="2" stroke-linecap="round"/>
<path d="M162.127 196.337C162.758 206.571 162.127 227.037 167.806 227.037H179.164" stroke="#FF5757" stroke-width="2" stroke-linecap="round"/>
<path d="M213.237 227.037C207.558 227.037 208.189 206.571 207.558 196.337" stroke="#FF5757" stroke-width="2" stroke-linecap="round"/>
<path d="M179.164 227.037C184.843 227.037 184.212 206.571 184.843 196.337" stroke="#FF5757" stroke-width="2" stroke-linecap="round"/>
<path d="M184.843 196.337C185.474 206.571 184.843 227.037 190.522 227.037H201.879" stroke="#FF5757" stroke-width="2" stroke-linecap="round"/>
<rect x="31.7467" y="213.92" width="85.3941" height="40.1149" rx="3.25" fill="#D3D3D3" stroke="#E3E3E3" stroke-width="1.5"/>
<path d="M87.5292 226.142L103.51 241.813" stroke="#FF5757" stroke-width="3" stroke-linecap="round"/>
<path d="M95.5197 222.896V245.059" stroke="#FF5757" stroke-width="3" stroke-linecap="round"/>
<path d="M103.51 226.142L87.5292 241.813" stroke="#FF5757" stroke-width="3" stroke-linecap="round"/>
<path d="M106.82 233.977H42.0677" stroke="#FF5757" stroke-width="3" stroke-linecap="round"/>
<path d="M288.181 165.968V152.877H290.729V165.968H288.181ZM289.468 150.857C289.025 150.857 288.644 150.709 288.326 150.414C288.013 150.113 287.857 149.755 287.857 149.34C287.857 148.92 288.013 148.562 288.326 148.266C288.644 147.965 289.025 147.815 289.468 147.815C289.911 147.815 290.289 147.965 290.601 148.266C290.919 148.562 291.079 148.92 291.079 149.34C291.079 149.755 290.919 150.113 290.601 150.414C290.289 150.709 289.911 150.857 289.468 150.857ZM299.058 166.224C298.001 166.224 297.058 165.954 296.228 165.414C295.405 164.869 294.757 164.093 294.285 163.087C293.819 162.076 293.586 160.863 293.586 159.448C293.586 158.033 293.822 156.823 294.294 155.817C294.771 154.812 295.424 154.042 296.254 153.508C297.084 152.974 298.024 152.707 299.075 152.707C299.887 152.707 300.541 152.843 301.035 153.116C301.535 153.383 301.922 153.695 302.194 154.053C302.473 154.411 302.689 154.727 302.842 154.999H302.995V148.513H305.544V165.968H303.055V163.931H302.842C302.689 164.209 302.467 164.528 302.177 164.886C301.893 165.244 301.501 165.556 301.001 165.823C300.501 166.09 299.853 166.224 299.058 166.224ZM299.62 164.05C300.353 164.05 300.973 163.857 301.478 163.471C301.99 163.079 302.376 162.536 302.637 161.843C302.905 161.15 303.038 160.343 303.038 159.423C303.038 158.513 302.907 157.718 302.646 157.036C302.385 156.354 302.001 155.823 301.495 155.442C300.99 155.062 300.365 154.871 299.62 154.871C298.853 154.871 298.214 155.07 297.703 155.468C297.191 155.866 296.805 156.408 296.544 157.096C296.288 157.783 296.16 158.559 296.16 159.423C296.16 160.298 296.291 161.084 296.552 161.783C296.814 162.482 297.2 163.036 297.711 163.445C298.228 163.849 298.865 164.05 299.62 164.05ZM311.729 148.513V165.968H309.181V148.513H311.729ZM320.799 166.232C319.51 166.232 318.399 165.957 317.467 165.406C316.541 164.849 315.825 164.067 315.319 163.062C314.819 162.05 314.569 160.866 314.569 159.508C314.569 158.167 314.819 156.985 315.319 155.962C315.825 154.94 316.53 154.141 317.433 153.567C318.342 152.994 319.405 152.707 320.62 152.707C321.359 152.707 322.075 152.829 322.768 153.073C323.461 153.317 324.084 153.701 324.635 154.224C325.186 154.746 325.62 155.425 325.939 156.261C326.257 157.09 326.416 158.099 326.416 159.286V160.19H316.01V158.281H323.919C323.919 157.61 323.782 157.016 323.51 156.499C323.237 155.977 322.853 155.565 322.359 155.263C321.87 154.962 321.297 154.812 320.637 154.812C319.922 154.812 319.297 154.988 318.762 155.34C318.234 155.687 317.825 156.141 317.535 156.704C317.251 157.261 317.109 157.866 317.109 158.519V160.011C317.109 160.886 317.262 161.63 317.569 162.244C317.882 162.857 318.316 163.326 318.873 163.65C319.43 163.968 320.081 164.127 320.825 164.127C321.308 164.127 321.748 164.059 322.146 163.923C322.544 163.781 322.887 163.57 323.177 163.292C323.467 163.013 323.689 162.67 323.842 162.261L326.254 162.695C326.061 163.406 325.714 164.028 325.214 164.562C324.72 165.09 324.098 165.502 323.348 165.798C322.603 166.087 321.754 166.232 320.799 166.232ZM329.243 165.968V152.877H331.706V154.957H331.843C332.081 154.252 332.502 153.698 333.104 153.295C333.712 152.886 334.4 152.681 335.167 152.681C335.326 152.681 335.513 152.687 335.729 152.698C335.951 152.709 336.124 152.724 336.249 152.741V155.178C336.147 155.15 335.965 155.119 335.704 155.084C335.442 155.045 335.181 155.025 334.919 155.025C334.317 155.025 333.78 155.153 333.309 155.408C332.843 155.658 332.473 156.008 332.201 156.457C331.928 156.9 331.792 157.406 331.792 157.974V165.968H329.243Z" fill="#F3F3F3"/>
<path d="M350.39 255.683L348.08 256.092C347.984 255.797 347.83 255.515 347.62 255.248C347.416 254.981 347.137 254.763 346.785 254.592C346.433 254.422 345.992 254.336 345.464 254.336C344.742 254.336 344.14 254.498 343.657 254.822C343.174 255.14 342.933 255.552 342.933 256.058C342.933 256.496 343.095 256.848 343.418 257.115C343.742 257.382 344.265 257.601 344.987 257.771L347.066 258.248C348.271 258.527 349.168 258.956 349.759 259.535C350.35 260.115 350.646 260.868 350.646 261.794C350.646 262.578 350.418 263.277 349.964 263.89C349.515 264.498 348.887 264.976 348.08 265.322C347.279 265.669 346.35 265.842 345.293 265.842C343.828 265.842 342.631 265.53 341.705 264.905C340.779 264.274 340.211 263.379 340.001 262.22L342.464 261.845C342.617 262.487 342.933 262.973 343.41 263.302C343.887 263.626 344.509 263.788 345.276 263.788C346.112 263.788 346.779 263.615 347.279 263.268C347.779 262.916 348.029 262.487 348.029 261.981C348.029 261.572 347.876 261.228 347.569 260.95C347.268 260.672 346.805 260.461 346.18 260.319L343.964 259.834C342.742 259.555 341.839 259.112 341.254 258.504C340.674 257.896 340.384 257.126 340.384 256.194C340.384 255.422 340.6 254.746 341.032 254.166C341.464 253.586 342.06 253.135 342.822 252.811C343.583 252.481 344.455 252.317 345.438 252.317C346.853 252.317 347.967 252.623 348.779 253.237C349.592 253.845 350.129 254.66 350.39 255.683ZM353.448 265.578V252.487H355.996V265.578H353.448ZM354.734 250.467C354.291 250.467 353.911 250.319 353.592 250.024C353.28 249.723 353.124 249.365 353.124 248.95C353.124 248.53 353.28 248.172 353.592 247.876C353.911 247.575 354.291 247.425 354.734 247.425C355.178 247.425 355.555 247.575 355.868 247.876C356.186 248.172 356.345 248.53 356.345 248.95C356.345 249.365 356.186 249.723 355.868 250.024C355.555 250.319 355.178 250.467 354.734 250.467ZM364.913 270.76C363.873 270.76 362.978 270.623 362.228 270.351C361.484 270.078 360.876 269.717 360.404 269.268C359.933 268.819 359.58 268.328 359.347 267.794L361.538 266.89C361.691 267.14 361.896 267.405 362.151 267.683C362.413 267.967 362.765 268.209 363.208 268.407C363.657 268.606 364.234 268.706 364.938 268.706C365.904 268.706 366.703 268.47 367.333 267.998C367.964 267.532 368.279 266.788 368.279 265.765V263.192H368.117C367.964 263.47 367.742 263.78 367.453 264.121C367.168 264.461 366.776 264.757 366.276 265.007C365.776 265.257 365.126 265.382 364.325 265.382C363.291 265.382 362.359 265.14 361.529 264.657C360.705 264.169 360.052 263.45 359.569 262.501C359.092 261.547 358.853 260.373 358.853 258.981C358.853 257.589 359.089 256.396 359.56 255.402C360.038 254.407 360.691 253.646 361.521 253.118C362.35 252.584 363.291 252.317 364.342 252.317C365.154 252.317 365.81 252.453 366.31 252.726C366.81 252.993 367.2 253.305 367.478 253.663C367.762 254.021 367.981 254.336 368.134 254.609H368.322V252.487H370.819V265.868C370.819 266.993 370.558 267.916 370.035 268.638C369.512 269.359 368.805 269.893 367.913 270.24C367.026 270.586 366.026 270.76 364.913 270.76ZM364.887 263.268C365.62 263.268 366.239 263.098 366.745 262.757C367.256 262.41 367.643 261.916 367.904 261.274C368.171 260.626 368.305 259.851 368.305 258.947C368.305 258.067 368.174 257.291 367.913 256.621C367.651 255.95 367.268 255.427 366.762 255.052C366.256 254.672 365.631 254.481 364.887 254.481C364.12 254.481 363.481 254.68 362.97 255.078C362.458 255.47 362.072 256.004 361.81 256.68C361.555 257.356 361.427 258.112 361.427 258.947C361.427 259.805 361.558 260.558 361.819 261.206C362.08 261.853 362.467 262.359 362.978 262.723C363.495 263.086 364.131 263.268 364.887 263.268ZM376.785 257.805V265.578H374.237V252.487H376.683V254.618H376.845C377.146 253.925 377.617 253.368 378.259 252.947C378.907 252.527 379.722 252.317 380.705 252.317C381.597 252.317 382.379 252.504 383.049 252.879C383.72 253.248 384.239 253.8 384.609 254.532C384.978 255.265 385.163 256.172 385.163 257.251V265.578H382.614V257.558C382.614 256.609 382.367 255.868 381.873 255.334C381.379 254.794 380.7 254.524 379.836 254.524C379.245 254.524 378.72 254.652 378.259 254.907C377.805 255.163 377.444 255.538 377.177 256.032C376.916 256.521 376.785 257.112 376.785 257.805ZM392.39 265.868C391.56 265.868 390.81 265.714 390.14 265.407C389.47 265.095 388.938 264.643 388.546 264.052C388.16 263.461 387.967 262.737 387.967 261.879C387.967 261.14 388.109 260.532 388.393 260.055C388.677 259.578 389.06 259.2 389.543 258.922C390.026 258.643 390.566 258.433 391.163 258.291C391.759 258.149 392.367 258.041 392.987 257.967C393.771 257.876 394.407 257.802 394.896 257.746C395.384 257.683 395.739 257.584 395.961 257.447C396.183 257.311 396.293 257.089 396.293 256.782V256.723C396.293 255.978 396.083 255.402 395.663 254.993C395.248 254.584 394.629 254.379 393.805 254.379C392.947 254.379 392.271 254.569 391.776 254.95C391.288 255.325 390.95 255.743 390.762 256.203L388.367 255.657C388.651 254.862 389.066 254.22 389.612 253.731C390.163 253.237 390.796 252.879 391.512 252.657C392.228 252.43 392.981 252.317 393.771 252.317C394.293 252.317 394.847 252.379 395.433 252.504C396.024 252.623 396.575 252.845 397.086 253.169C397.603 253.493 398.026 253.956 398.356 254.558C398.685 255.155 398.85 255.93 398.85 256.885V265.578H396.362V263.788H396.259C396.095 264.118 395.847 264.442 395.518 264.76C395.188 265.078 394.765 265.342 394.248 265.552C393.731 265.763 393.112 265.868 392.39 265.868ZM392.944 263.822C393.649 263.822 394.251 263.683 394.751 263.405C395.256 263.126 395.64 262.763 395.901 262.314C396.168 261.859 396.302 261.373 396.302 260.856V259.169C396.211 259.26 396.035 259.345 395.774 259.425C395.518 259.498 395.225 259.564 394.896 259.621C394.566 259.672 394.245 259.72 393.933 259.765C393.62 259.805 393.359 259.839 393.149 259.868C392.654 259.93 392.203 260.035 391.793 260.183C391.39 260.331 391.066 260.544 390.822 260.822C390.583 261.095 390.464 261.459 390.464 261.913C390.464 262.544 390.697 263.021 391.163 263.345C391.629 263.663 392.222 263.822 392.944 263.822ZM404.793 248.123V265.578H402.244V248.123H404.793Z" fill="#F3F3F3"/>
<path d="M237.3 259.956C237.209 259.149 236.834 258.524 236.175 258.081C235.516 257.632 234.686 257.407 233.686 257.407C232.97 257.407 232.351 257.521 231.828 257.748C231.305 257.97 230.899 258.277 230.609 258.669C230.325 259.055 230.183 259.495 230.183 259.99C230.183 260.405 230.28 260.763 230.473 261.064C230.672 261.365 230.93 261.618 231.248 261.822C231.572 262.021 231.919 262.189 232.288 262.325C232.658 262.456 233.013 262.564 233.354 262.649L235.058 263.092C235.615 263.228 236.186 263.413 236.771 263.646C237.356 263.879 237.899 264.186 238.399 264.566C238.899 264.947 239.302 265.419 239.609 265.981C239.922 266.544 240.078 267.217 240.078 268.001C240.078 268.99 239.822 269.868 239.311 270.635C238.805 271.402 238.069 272.007 237.104 272.45C236.143 272.893 234.981 273.115 233.618 273.115C232.311 273.115 231.18 272.907 230.226 272.493C229.271 272.078 228.524 271.49 227.984 270.728C227.444 269.961 227.146 269.052 227.089 268.001H229.731C229.783 268.632 229.987 269.157 230.345 269.578C230.709 269.993 231.172 270.302 231.734 270.507C232.302 270.706 232.925 270.805 233.601 270.805C234.345 270.805 235.007 270.689 235.587 270.456C236.172 270.217 236.632 269.888 236.967 269.467C237.302 269.041 237.47 268.544 237.47 267.976C237.47 267.459 237.322 267.035 237.027 266.706C236.737 266.376 236.342 266.103 235.842 265.888C235.348 265.672 234.788 265.481 234.163 265.316L232.101 264.754C230.703 264.373 229.595 263.814 228.777 263.075C227.964 262.336 227.558 261.359 227.558 260.143C227.558 259.138 227.831 258.26 228.376 257.51C228.922 256.76 229.66 256.177 230.592 255.763C231.524 255.342 232.575 255.132 233.746 255.132C234.927 255.132 235.97 255.339 236.873 255.754C237.783 256.169 238.498 256.74 239.021 257.467C239.544 258.189 239.817 259.018 239.839 259.956H237.3ZM243.225 272.825V255.37H249.447C250.805 255.37 251.93 255.618 252.822 256.112C253.714 256.606 254.381 257.282 254.824 258.14C255.268 258.993 255.489 259.953 255.489 261.021C255.489 262.095 255.265 263.061 254.816 263.919C254.373 264.771 253.702 265.447 252.805 265.947C251.913 266.441 250.79 266.689 249.438 266.689H245.16V264.456H249.199C250.057 264.456 250.753 264.308 251.288 264.013C251.822 263.711 252.214 263.302 252.464 262.785C252.714 262.268 252.839 261.68 252.839 261.021C252.839 260.362 252.714 259.777 252.464 259.265C252.214 258.754 251.819 258.353 251.279 258.064C250.745 257.774 250.04 257.629 249.165 257.629H245.859V272.825H243.225ZM264.227 272.825H258.577V255.37H264.406C266.116 255.37 267.585 255.72 268.812 256.419C270.04 257.112 270.98 258.109 271.633 259.41C272.293 260.706 272.622 262.26 272.622 264.072C272.622 265.89 272.29 267.453 271.625 268.76C270.966 270.066 270.011 271.072 268.761 271.777C267.511 272.476 266 272.825 264.227 272.825ZM261.21 270.524H264.082C265.412 270.524 266.517 270.274 267.398 269.774C268.278 269.268 268.937 268.538 269.375 267.584C269.812 266.623 270.031 265.453 270.031 264.072C270.031 262.703 269.812 261.541 269.375 260.586C268.943 259.632 268.298 258.907 267.44 258.413C266.582 257.919 265.517 257.672 264.244 257.672H261.21V270.524ZM290.394 261.047H287.735C287.633 260.478 287.442 259.978 287.164 259.547C286.886 259.115 286.545 258.748 286.141 258.447C285.738 258.146 285.286 257.919 284.786 257.765C284.292 257.612 283.766 257.535 283.209 257.535C282.204 257.535 281.303 257.788 280.508 258.294C279.718 258.799 279.093 259.541 278.633 260.518C278.178 261.495 277.951 262.689 277.951 264.098C277.951 265.518 278.178 266.717 278.633 267.694C279.093 268.672 279.721 269.41 280.516 269.91C281.312 270.41 282.207 270.66 283.201 270.66C283.752 270.66 284.275 270.586 284.769 270.439C285.269 270.285 285.721 270.061 286.124 269.765C286.528 269.47 286.868 269.109 287.147 268.683C287.431 268.251 287.627 267.757 287.735 267.2L290.394 267.209C290.252 268.066 289.976 268.856 289.567 269.578C289.164 270.294 288.644 270.913 288.008 271.436C287.377 271.953 286.655 272.353 285.843 272.638C285.03 272.922 284.144 273.064 283.184 273.064C281.672 273.064 280.326 272.706 279.144 271.99C277.962 271.268 277.03 270.237 276.349 268.896C275.672 267.555 275.334 265.956 275.334 264.098C275.334 262.234 275.675 260.635 276.357 259.299C277.039 257.959 277.971 256.93 279.153 256.214C280.334 255.493 281.678 255.132 283.184 255.132C284.11 255.132 284.974 255.265 285.775 255.532C286.582 255.794 287.306 256.18 287.948 256.691C288.59 257.197 289.121 257.816 289.542 258.549C289.962 259.277 290.246 260.109 290.394 261.047Z" fill="#F8D06A"/>
<path d="M11.0614 283.618V266.163H17.283C18.6409 266.163 19.7659 266.411 20.658 266.905C21.55 267.399 22.2176 268.075 22.6608 268.933C23.104 269.786 23.3256 270.746 23.3256 271.814C23.3256 272.888 23.1012 273.854 22.6523 274.712C22.2091 275.564 21.5387 276.24 20.6409 276.74C19.7489 277.235 18.6267 277.482 17.2745 277.482H12.996V275.249H17.0358C17.8938 275.249 18.5898 275.101 19.1239 274.806C19.658 274.504 20.05 274.095 20.3 273.578C20.55 273.061 20.675 272.473 20.675 271.814C20.675 271.155 20.55 270.57 20.3 270.058C20.05 269.547 19.6551 269.146 19.1154 268.857C18.5813 268.567 17.8767 268.422 17.0017 268.422H13.6949V283.618H11.0614ZM34.501 278.189V270.527H37.0578V283.618H34.5521V281.351H34.4158C34.1146 282.05 33.6317 282.632 32.9669 283.098C32.3078 283.558 31.4868 283.788 30.5039 283.788C29.6629 283.788 28.9186 283.604 28.2709 283.235C27.6289 282.86 27.1232 282.306 26.7539 281.573C26.3902 280.84 26.2084 279.933 26.2084 278.854V270.527H28.7567V278.547C28.7567 279.439 29.0039 280.149 29.4982 280.678C29.9925 281.206 30.6345 281.47 31.4243 281.47C31.9016 281.47 32.376 281.351 32.8476 281.112C33.3249 280.874 33.7198 280.513 34.0323 280.03C34.3504 279.547 34.5067 278.933 34.501 278.189ZM43.0301 266.163V283.618H40.4818V266.163H43.0301ZM56.2681 273.723L53.9584 274.132C53.8618 273.837 53.7084 273.556 53.4982 273.288C53.2936 273.021 53.0152 272.803 52.6629 272.632C52.3107 272.462 51.8703 272.377 51.3419 272.377C50.6203 272.377 50.0181 272.538 49.5351 272.862C49.0521 273.181 48.8107 273.592 48.8107 274.098C48.8107 274.536 48.9726 274.888 49.2965 275.155C49.6203 275.422 50.1431 275.641 50.8646 275.811L52.9442 276.288C54.1487 276.567 55.0465 276.996 55.6374 277.575C56.2283 278.155 56.5237 278.908 56.5237 279.834C56.5237 280.618 56.2965 281.317 55.8419 281.931C55.3931 282.538 54.7652 283.016 53.9584 283.362C53.1573 283.709 52.2283 283.882 51.1715 283.882C49.7056 283.882 48.5095 283.57 47.5834 282.945C46.6573 282.314 46.0891 281.419 45.8789 280.26L48.3419 279.885C48.4953 280.527 48.8107 281.013 49.2879 281.342C49.7652 281.666 50.3874 281.828 51.1544 281.828C51.9896 281.828 52.6573 281.655 53.1573 281.308C53.6573 280.956 53.9073 280.527 53.9073 280.021C53.9073 279.612 53.7539 279.269 53.447 278.99C53.1459 278.712 52.6828 278.502 52.0578 278.36L49.8419 277.874C48.6203 277.595 47.7169 277.152 47.1317 276.544C46.5521 275.936 46.2624 275.166 46.2624 274.235C46.2624 273.462 46.4783 272.786 46.9101 272.206C47.3419 271.627 47.9385 271.175 48.6999 270.851C49.4612 270.521 50.3334 270.357 51.3164 270.357C52.7311 270.357 53.8448 270.663 54.6573 271.277C55.4698 271.885 56.0067 272.7 56.2681 273.723ZM64.9676 283.882C63.6779 283.882 62.5671 283.607 61.6352 283.056C60.7091 282.499 59.9932 281.717 59.4875 280.712C58.9875 279.7 58.7375 278.516 58.7375 277.158C58.7375 275.817 58.9875 274.635 59.4875 273.612C59.9932 272.59 60.6977 271.791 61.6012 271.217C62.5102 270.644 63.5727 270.357 64.7887 270.357C65.5273 270.357 66.2432 270.479 66.9364 270.723C67.6296 270.967 68.2517 271.351 68.8029 271.874C69.354 272.396 69.7887 273.075 70.1068 273.911C70.425 274.74 70.5841 275.749 70.5841 276.936V277.84H60.1779V275.931H68.087C68.087 275.26 67.9506 274.666 67.6779 274.149C67.4051 273.627 67.0216 273.215 66.5273 272.913C66.0387 272.612 65.4648 272.462 64.8057 272.462C64.0898 272.462 63.4648 272.638 62.9307 272.99C62.4023 273.337 61.9932 273.791 61.7034 274.354C61.4193 274.911 61.2773 275.516 61.2773 276.169V277.661C61.2773 278.536 61.4307 279.28 61.7375 279.894C62.05 280.507 62.4847 280.976 63.0415 281.3C63.5983 281.618 64.2489 281.777 64.9932 281.777C65.4762 281.777 65.9165 281.709 66.3142 281.573C66.712 281.431 67.0557 281.22 67.3455 280.942C67.6352 280.663 67.8568 280.32 68.0102 279.911L70.4222 280.345C70.229 281.056 69.8824 281.678 69.3824 282.212C68.8881 282.74 68.2659 283.152 67.5159 283.448C66.7716 283.737 65.9222 283.882 64.9676 283.882ZM78.3121 283.874C77.2553 283.874 76.3121 283.604 75.4825 283.064C74.6587 282.519 74.011 281.743 73.5394 280.737C73.0735 279.726 72.8405 278.513 72.8405 277.098C72.8405 275.683 73.0763 274.473 73.5479 273.467C74.0252 272.462 74.6786 271.692 75.5081 271.158C76.3377 270.624 77.278 270.357 78.3291 270.357C79.1416 270.357 79.795 270.493 80.2894 270.766C80.7894 271.033 81.1757 271.345 81.4485 271.703C81.7269 272.061 81.9428 272.377 82.0962 272.649H82.2496V266.163H84.7979V283.618H82.3093V281.581H82.0962C81.9428 281.86 81.7212 282.178 81.4314 282.536C81.1473 282.894 80.7553 283.206 80.2553 283.473C79.7553 283.74 79.1075 283.874 78.3121 283.874ZM78.8746 281.7C79.6075 281.7 80.2269 281.507 80.7325 281.121C81.2439 280.729 81.6303 280.186 81.8916 279.493C82.1587 278.8 82.2922 277.993 82.2922 277.073C82.2922 276.163 82.1615 275.368 81.9002 274.686C81.6388 274.004 81.2553 273.473 80.7496 273.092C80.2439 272.712 79.6189 272.521 78.8746 272.521C78.1075 272.521 77.4683 272.72 76.957 273.118C76.4456 273.516 76.0593 274.058 75.7979 274.746C75.5422 275.433 75.4144 276.209 75.4144 277.073C75.4144 277.948 75.545 278.735 75.8064 279.433C76.0678 280.132 76.4541 280.686 76.9655 281.095C77.4825 281.499 78.1189 281.7 78.8746 281.7ZM94.9911 283.618V266.163H97.6246V281.351H105.534V283.618H94.9911ZM112.143 283.908C111.314 283.908 110.564 283.754 109.893 283.448C109.223 283.135 108.691 282.683 108.299 282.092C107.913 281.502 107.72 280.777 107.72 279.919C107.72 279.181 107.862 278.573 108.146 278.095C108.43 277.618 108.814 277.24 109.296 276.962C109.779 276.683 110.319 276.473 110.916 276.331C111.512 276.189 112.12 276.081 112.74 276.007C113.524 275.916 114.16 275.842 114.649 275.786C115.137 275.723 115.492 275.624 115.714 275.487C115.936 275.351 116.046 275.129 116.046 274.823V274.763C116.046 274.019 115.836 273.442 115.416 273.033C115.001 272.624 114.382 272.419 113.558 272.419C112.7 272.419 112.024 272.61 111.529 272.99C111.041 273.365 110.703 273.783 110.515 274.243L108.12 273.698C108.404 272.902 108.819 272.26 109.365 271.771C109.916 271.277 110.549 270.919 111.265 270.698C111.981 270.47 112.734 270.357 113.524 270.357C114.046 270.357 114.6 270.419 115.186 270.544C115.777 270.663 116.328 270.885 116.839 271.209C117.356 271.533 117.779 271.996 118.109 272.598C118.439 273.195 118.603 273.97 118.603 274.925V283.618H116.115V281.828H116.012C115.848 282.158 115.6 282.482 115.271 282.8C114.941 283.118 114.518 283.382 114.001 283.592C113.484 283.803 112.865 283.908 112.143 283.908ZM112.697 281.862C113.402 281.862 114.004 281.723 114.504 281.445C115.01 281.166 115.393 280.803 115.654 280.354C115.921 279.899 116.055 279.413 116.055 278.896V277.209C115.964 277.3 115.788 277.385 115.527 277.465C115.271 277.538 114.978 277.604 114.649 277.661C114.319 277.712 113.998 277.76 113.686 277.806C113.373 277.845 113.112 277.879 112.902 277.908C112.407 277.97 111.956 278.075 111.546 278.223C111.143 278.371 110.819 278.584 110.575 278.862C110.336 279.135 110.217 279.499 110.217 279.953C110.217 280.584 110.45 281.061 110.916 281.385C111.382 281.703 111.975 281.862 112.697 281.862ZM131.807 273.723L129.497 274.132C129.401 273.837 129.247 273.556 129.037 273.288C128.833 273.021 128.554 272.803 128.202 272.632C127.85 272.462 127.409 272.377 126.881 272.377C126.159 272.377 125.557 272.538 125.074 272.862C124.591 273.181 124.35 273.592 124.35 274.098C124.35 274.536 124.512 274.888 124.836 275.155C125.159 275.422 125.682 275.641 126.404 275.811L128.483 276.288C129.688 276.567 130.586 276.996 131.176 277.575C131.767 278.155 132.063 278.908 132.063 279.834C132.063 280.618 131.836 281.317 131.381 281.931C130.932 282.538 130.304 283.016 129.497 283.362C128.696 283.709 127.767 283.882 126.711 283.882C125.245 283.882 124.049 283.57 123.122 282.945C122.196 282.314 121.628 281.419 121.418 280.26L123.881 279.885C124.034 280.527 124.35 281.013 124.827 281.342C125.304 281.666 125.926 281.828 126.693 281.828C127.529 281.828 128.196 281.655 128.696 281.308C129.196 280.956 129.446 280.527 129.446 280.021C129.446 279.612 129.293 279.269 128.986 278.99C128.685 278.712 128.222 278.502 127.597 278.36L125.381 277.874C124.159 277.595 123.256 277.152 122.671 276.544C122.091 275.936 121.801 275.166 121.801 274.235C121.801 273.462 122.017 272.786 122.449 272.206C122.881 271.627 123.478 271.175 124.239 270.851C125 270.521 125.872 270.357 126.855 270.357C128.27 270.357 129.384 270.663 130.196 271.277C131.009 271.885 131.546 272.7 131.807 273.723ZM140.507 283.882C139.217 283.882 138.106 283.607 137.174 283.056C136.248 282.499 135.532 281.717 135.027 280.712C134.527 279.7 134.277 278.516 134.277 277.158C134.277 275.817 134.527 274.635 135.027 273.612C135.532 272.59 136.237 271.791 137.14 271.217C138.049 270.644 139.112 270.357 140.328 270.357C141.066 270.357 141.782 270.479 142.475 270.723C143.169 270.967 143.791 271.351 144.342 271.874C144.893 272.396 145.328 273.075 145.646 273.911C145.964 274.74 146.123 275.749 146.123 276.936V277.84H135.717V275.931H143.626C143.626 275.26 143.49 274.666 143.217 274.149C142.944 273.627 142.561 273.215 142.066 272.913C141.578 272.612 141.004 272.462 140.345 272.462C139.629 272.462 139.004 272.638 138.47 272.99C137.941 273.337 137.532 273.791 137.242 274.354C136.958 274.911 136.816 275.516 136.816 276.169V277.661C136.816 278.536 136.97 279.28 137.277 279.894C137.589 280.507 138.024 280.976 138.581 281.3C139.137 281.618 139.788 281.777 140.532 281.777C141.015 281.777 141.456 281.709 141.853 281.573C142.251 281.431 142.595 281.22 142.885 280.942C143.174 280.663 143.396 280.32 143.549 279.911L145.961 280.345C145.768 281.056 145.421 281.678 144.921 282.212C144.427 282.74 143.805 283.152 143.055 283.448C142.311 283.737 141.461 283.882 140.507 283.882ZM148.951 283.618V270.527H151.414V272.607H151.55C151.789 271.902 152.209 271.348 152.811 270.945C153.419 270.536 154.107 270.331 154.874 270.331C155.033 270.331 155.22 270.337 155.436 270.348C155.658 270.36 155.831 270.374 155.956 270.391V272.828C155.854 272.8 155.672 272.769 155.411 272.735C155.149 272.695 154.888 272.675 154.627 272.675C154.024 272.675 153.488 272.803 153.016 273.058C152.55 273.308 152.181 273.658 151.908 274.107C151.635 274.55 151.499 275.056 151.499 275.624V283.618H148.951Z" fill="#F3F3F3"/>
<path d="M371.584 82.1175C371.493 81.3107 371.118 80.6857 370.459 80.2425C369.799 79.7937 368.97 79.5692 367.97 79.5692C367.254 79.5692 366.635 79.6829 366.112 79.9102C365.589 80.1317 365.183 80.4386 364.893 80.8306C364.609 81.217 364.467 81.6573 364.467 82.1516C364.467 82.5664 364.564 82.9244 364.757 83.2255C364.956 83.5266 365.214 83.7795 365.532 83.984C365.856 84.1829 366.203 84.3505 366.572 84.4869C366.941 84.6175 367.297 84.7255 367.638 84.8107L369.342 85.2539C369.899 85.3903 370.47 85.5749 371.055 85.8079C371.64 86.0408 372.183 86.3477 372.683 86.7283C373.183 87.109 373.586 87.5806 373.893 88.1431C374.206 88.7056 374.362 89.3789 374.362 90.163C374.362 91.1516 374.106 92.0295 373.595 92.7965C373.089 93.5636 372.353 94.1687 371.388 94.6119C370.427 95.055 369.265 95.2766 367.902 95.2766C366.595 95.2766 365.464 95.0692 364.51 94.6545C363.555 94.2397 362.808 93.6516 362.268 92.8903C361.728 92.1232 361.43 91.2141 361.373 90.163H364.015C364.066 90.7937 364.271 91.3192 364.629 91.7397C364.993 92.1545 365.456 92.4641 366.018 92.6687C366.586 92.8675 367.209 92.967 367.885 92.967C368.629 92.967 369.291 92.8505 369.87 92.6175C370.456 92.3789 370.916 92.0494 371.251 91.6289C371.586 91.2028 371.754 90.7056 371.754 90.1374C371.754 89.6204 371.606 89.1971 371.311 88.8675C371.021 88.538 370.626 88.2653 370.126 88.0494C369.632 87.8335 369.072 87.6431 368.447 87.4783L366.385 86.9158C364.987 86.5352 363.879 85.9755 363.061 85.2369C362.248 84.4982 361.842 83.521 361.842 82.305C361.842 81.2994 362.115 80.4215 362.66 79.6715C363.206 78.9215 363.944 78.3391 364.876 77.9244C365.808 77.5039 366.859 77.2937 368.03 77.2937C369.211 77.2937 370.254 77.5011 371.157 77.9158C372.066 78.3306 372.782 78.9016 373.305 79.6289C373.828 80.3505 374.101 81.18 374.123 82.1175H371.584ZM391.597 77.5323V94.9869H389.177L380.304 82.1857H380.142V94.9869H377.509V77.5323H379.946L388.827 90.3505H388.989V77.5323H391.597ZM404.959 82.1175C404.868 81.3107 404.493 80.6857 403.834 80.2425C403.174 79.7937 402.345 79.5692 401.345 79.5692C400.629 79.5692 400.01 79.6829 399.487 79.9102C398.964 80.1317 398.558 80.4386 398.268 80.8306C397.984 81.217 397.842 81.6573 397.842 82.1516C397.842 82.5664 397.939 82.9244 398.132 83.2255C398.331 83.5266 398.589 83.7795 398.907 83.984C399.231 84.1829 399.578 84.3505 399.947 84.4869C400.316 84.6175 400.672 84.7255 401.013 84.8107L402.717 85.2539C403.274 85.3903 403.845 85.5749 404.43 85.8079C405.015 86.0408 405.558 86.3477 406.058 86.7283C406.558 87.109 406.961 87.5806 407.268 88.1431C407.581 88.7056 407.737 89.3789 407.737 90.163C407.737 91.1516 407.481 92.0295 406.97 92.7965C406.464 93.5636 405.728 94.1687 404.763 94.6119C403.802 95.055 402.64 95.2766 401.277 95.2766C399.97 95.2766 398.839 95.0692 397.885 94.6545C396.93 94.2397 396.183 93.6516 395.643 92.8903C395.103 92.1232 394.805 91.2141 394.748 90.163H397.39C397.441 90.7937 397.646 91.3192 398.004 91.7397C398.368 92.1545 398.831 92.4641 399.393 92.6687C399.961 92.8675 400.584 92.967 401.26 92.967C402.004 92.967 402.666 92.8505 403.245 92.6175C403.831 92.3789 404.291 92.0494 404.626 91.6289C404.961 91.2028 405.129 90.7056 405.129 90.1374C405.129 89.6204 404.981 89.1971 404.686 88.8675C404.396 88.538 404.001 88.2653 403.501 88.0494C403.007 87.8335 402.447 87.6431 401.822 87.4783L399.76 86.9158C398.362 86.5352 397.254 85.9755 396.436 85.2369C395.623 84.4982 395.217 83.521 395.217 82.305C395.217 81.2994 395.49 80.4215 396.035 79.6715C396.581 78.9215 397.319 78.3391 398.251 77.9244C399.183 77.5039 400.234 77.2937 401.405 77.2937C402.586 77.2937 403.629 77.5011 404.532 77.9158C405.441 78.3306 406.157 78.9016 406.68 79.6289C407.203 80.3505 407.476 81.18 407.498 82.1175H404.959ZM410.884 94.9869V77.5323H417.106C418.463 77.5323 419.588 77.7795 420.481 78.2738C421.373 78.7681 422.04 79.4442 422.483 80.3022C422.927 81.1545 423.148 82.1147 423.148 83.1829C423.148 84.2567 422.924 85.2227 422.475 86.0806C422.032 86.9329 421.361 87.609 420.463 88.109C419.571 88.6033 418.449 88.8505 417.097 88.8505H412.819V86.6175H416.858C417.716 86.6175 418.412 86.4698 418.946 86.1744C419.481 85.8732 419.873 85.4641 420.123 84.9471C420.373 84.43 420.498 83.842 420.498 83.1829C420.498 82.5238 420.373 81.9386 420.123 81.4272C419.873 80.9158 419.478 80.5153 418.938 80.2255C418.404 79.9357 417.699 79.7908 416.824 79.7908H413.517V94.9869H410.884ZM431.886 94.9869H426.236V77.5323H432.065C433.775 77.5323 435.244 77.8817 436.471 78.5806C437.699 79.2738 438.639 80.271 439.292 81.5721C439.951 82.8675 440.281 84.4215 440.281 86.234C440.281 88.0522 439.949 89.6147 439.284 90.9215C438.625 92.2283 437.67 93.234 436.42 93.9386C435.17 94.6374 433.659 94.9869 431.886 94.9869ZM428.869 92.6857H431.741C433.071 92.6857 434.176 92.4357 435.057 91.9357C435.937 91.43 436.596 90.6999 437.034 89.7454C437.471 88.7852 437.69 87.6147 437.69 86.234C437.69 84.8647 437.471 83.7028 437.034 82.7482C436.602 81.7937 435.957 81.0692 435.099 80.5749C434.241 80.0806 433.176 79.8335 431.903 79.8335H428.869V92.6857Z" fill="#F3F3F3"/>
<path d="M287.288 233.959H549.438" stroke="#F3C671" stroke-width="4"/>
<rect x="763.091" y="107.965" width="46.2701" height="12.2525" rx="2.3" fill="#F3D382" stroke="#FFE093" stroke-width="1.4"/>
<path d="M810.061 114.091C827.684 114.091 830.662 95.5883 848.782 95.5883" stroke="#F3C671" stroke-width="3"/>
<path d="M847.282 107.431C847.282 107.829 847.44 108.21 847.721 108.492C848.003 108.773 848.384 108.931 848.782 108.931C853.54 108.931 857.909 107.523 861.123 105.173C864.337 102.824 866.484 99.4534 866.484 95.5883C866.484 91.7233 864.337 88.3525 861.123 86.0032C857.909 83.6532 853.54 82.2455 848.782 82.2455C848.384 82.2455 848.003 82.4036 847.721 82.6849C847.44 82.9662 847.282 83.3477 847.282 83.7455L847.282 95.5883L847.282 107.431Z" fill="#C4C4C4" stroke="#E3E3E3" stroke-width="3" stroke-linejoin="round"/>
<path d="M762.391 114.091H748.027" stroke="#F3C671" stroke-width="3"/>
<rect x="699.488" y="104.001" width="48.0392" height="20.18" rx="2.5" fill="#D3D3D3" stroke="#E9E9E9"/>
<path d="M810.061 114.079H884.305" stroke="#F3C671" stroke-width="3"/>
<rect x="763.091" y="34.2949" width="46.2701" height="12.2525" rx="2.3" fill="#F3D382" stroke="#FFE093" stroke-width="1.4"/>
<path d="M810.061 40.4212C827.684 40.4212 830.662 21.9187 848.782 21.9187" stroke="#F3C671" stroke-width="3"/>
<path d="M847.282 33.7616C847.282 34.1594 847.44 34.5409 847.721 34.8222C848.003 35.1035 848.384 35.2616 848.782 35.2616C853.54 35.2616 857.909 33.8539 861.123 31.5038C864.337 29.1546 866.484 25.7838 866.484 21.9188C866.484 18.0537 864.337 14.6829 861.123 12.3337C857.909 9.98365 853.54 8.57596 848.782 8.57596C848.384 8.57596 848.003 8.73399 847.721 9.0153C847.44 9.2966 847.282 9.67813 847.282 10.076L847.282 21.9188L847.282 33.7616Z" fill="#C4C4C4" stroke="#E3E3E3" stroke-width="3" stroke-linejoin="round"/>
<path d="M762.391 40.4212H748.027" stroke="#F3C671" stroke-width="3"/>
<rect x="699.488" y="30.3312" width="48.0392" height="20.18" rx="2.5" fill="#D3D3D3" stroke="#E9E9E9"/>
<path d="M810.061 40.4097H884.305" stroke="#F3C671" stroke-width="3"/>
<rect x="763.091" y="181.634" width="46.2701" height="12.2525" rx="2.3" fill="#F3D382" stroke="#FFE093" stroke-width="1.4"/>
<path d="M810.061 187.761C827.684 187.761 830.662 169.258 848.782 169.258" stroke="#F3C671" stroke-width="3"/>
<path d="M847.282 181.101C847.282 181.499 847.44 181.88 847.721 182.162C848.003 182.443 848.384 182.601 848.782 182.601C853.54 182.601 857.909 181.193 861.123 178.843C864.337 176.494 866.484 173.123 866.484 169.258C866.484 165.393 864.337 162.022 861.123 159.673C857.909 157.323 853.54 155.915 848.782 155.915C848.384 155.915 848.003 156.073 847.721 156.355C847.44 156.636 847.282 157.018 847.282 157.415L847.282 169.258L847.282 181.101Z" fill="#C4C4C4" stroke="#E3E3E3" stroke-width="3" stroke-linejoin="round"/>
<path d="M762.391 187.761H748.027" stroke="#F3C671" stroke-width="3"/>
<rect x="699.488" y="177.671" width="48.0392" height="20.18" rx="2.5" fill="#D3D3D3" stroke="#E9E9E9"/>
<path d="M810.061 187.749H884.305" stroke="#F3C671" stroke-width="3"/>
<rect x="763.208" y="299.841" width="46.2701" height="12.2525" rx="2.3" fill="#F3D382" stroke="#FFE093" stroke-width="1.4"/>
<path d="M810.178 305.968C827.801 305.968 830.78 287.465 848.9 287.465" stroke="#F3C671" stroke-width="3"/>
<path d="M847.399 299.308C847.399 299.706 847.558 300.087 847.839 300.369C848.12 300.65 848.502 300.808 848.899 300.808C853.658 300.808 858.026 299.4 861.241 297.05C864.455 294.701 866.601 291.33 866.601 287.465C866.601 283.6 864.455 280.229 861.241 277.88C858.026 275.53 853.658 274.122 848.899 274.122C848.502 274.122 848.12 274.281 847.839 274.562C847.558 274.843 847.399 275.225 847.399 275.622L847.399 287.465L847.399 299.308Z" fill="#C4C4C4" stroke="#E3E3E3" stroke-width="3" stroke-linejoin="round"/>
<path d="M762.508 305.968H748.145" stroke="#F3C671" stroke-width="3"/>
<rect x="699.605" y="295.878" width="48.0392" height="20.18" rx="2.5" fill="#D3D3D3" stroke="#E9E9E9"/>
<path d="M810.178 305.956H884.422" stroke="#F3C671" stroke-width="3"/>
<rect x="685.243" y="75.6388" width="190.448" height="62.6386" rx="7.5" stroke="#515974" stroke-width="3"/>
<rect x="685.243" y="1.96921" width="190.448" height="62.6386" rx="7.5" stroke="#515974" stroke-width="3"/>
<rect x="685.243" y="149.309" width="190.448" height="62.6386" rx="7.5" stroke="#515974" stroke-width="3"/>
<rect x="685.36" y="267.516" width="190.448" height="62.6386" rx="7.5" stroke="#515974" stroke-width="3"/>
<path d="M778.715 235.563C778.715 234.961 778.928 234.444 779.354 234.011C779.787 233.578 780.308 233.362 780.917 233.362C781.519 233.362 782.032 233.578 782.458 234.011C782.891 234.444 783.108 234.961 783.108 235.563C783.108 236.165 782.891 236.682 782.458 237.115C782.032 237.548 781.519 237.765 780.917 237.765C780.513 237.765 780.143 237.662 779.805 237.457C779.475 237.259 779.211 236.994 779.012 236.664C778.814 236.334 778.715 235.967 778.715 235.563ZM778.715 244.343C778.715 243.741 778.928 243.223 779.354 242.79C779.787 242.357 780.308 242.141 780.917 242.141C781.519 242.141 782.032 242.357 782.458 242.79C782.891 243.223 783.108 243.741 783.108 244.343C783.108 244.944 782.891 245.462 782.458 245.895C782.032 246.328 781.519 246.544 780.917 246.544C780.513 246.544 780.143 246.442 779.805 246.236C779.475 246.038 779.211 245.774 779.012 245.443C778.814 245.113 778.715 244.746 778.715 244.343ZM778.715 253.122C778.715 252.52 778.928 252.003 779.354 251.57C779.787 251.137 780.308 250.92 780.917 250.92C781.519 250.92 782.032 251.137 782.458 251.57C782.891 252.003 783.108 252.52 783.108 253.122C783.108 253.724 782.891 254.241 782.458 254.674C782.032 255.107 781.519 255.324 780.917 255.324C780.513 255.324 780.143 255.221 779.805 255.015C779.475 254.817 779.211 254.553 779.012 254.223C778.814 253.892 778.715 253.526 778.715 253.122Z" fill="#515974"/>
<rect x="1012.78" y="96.3383" width="91.3277" height="108.571" rx="10.25" fill="#3E3E4B" stroke="#454556" stroke-width="1.5"/>
<path d="M881.594 40.4098C919.867 40.4098 959.803 126.261 1027.61 126.261H1053.7" stroke="#F3C671" stroke-width="3"/>
<path d="M881.594 114.079C919.867 114.079 959.803 139.777 1027.61 139.777H1034.05" stroke="#F3C671" stroke-width="3"/>
<path d="M881.594 187.749C919.867 187.749 959.803 152.149 1027.61 152.149H1034.05" stroke="#F3C671" stroke-width="3"/>
<path d="M881.594 306.088C919.867 306.088 959.803 182.937 1027.61 182.937H1049.97" stroke="#F3C671" stroke-width="3"/>
<mask id="path-58-inside-1_5_189" fill="white">
<ellipse cx="4.80559" cy="3.49718" rx="4.80559" ry="3.49718" transform="matrix(-1 0 0 1 1087.98 147.127)"/>
</mask>
<ellipse cx="4.80559" cy="3.49718" rx="4.80559" ry="3.49718" transform="matrix(-1 0 0 1 1087.98 147.127)" fill="#F3C671"/>
<path d="M1082.37 150.624C1082.37 150.342 1082.28 150.114 1082.2 149.975C1082.13 149.849 1082.08 149.826 1082.13 149.863C1082.24 149.946 1082.6 150.121 1083.17 150.121V158.121C1081.09 158.121 1079.05 157.513 1077.42 156.331C1075.8 155.152 1074.37 153.184 1074.37 150.624H1082.37ZM1083.17 150.121C1083.75 150.121 1084.1 149.946 1084.22 149.863C1084.27 149.826 1084.22 149.849 1084.14 149.975C1084.06 150.114 1083.98 150.342 1083.98 150.624H1091.98C1091.98 153.184 1090.54 155.152 1088.92 156.331C1087.3 157.513 1085.25 158.121 1083.17 158.121V150.121ZM1083.98 150.624C1083.98 150.906 1084.06 151.134 1084.14 151.273C1084.22 151.399 1084.27 151.422 1084.22 151.385C1084.1 151.301 1083.75 151.127 1083.17 151.127V143.127C1085.25 143.127 1087.3 143.735 1088.92 144.917C1090.54 146.096 1091.98 148.064 1091.98 150.624H1083.98ZM1083.17 151.127C1082.6 151.127 1082.24 151.301 1082.13 151.385C1082.08 151.422 1082.13 151.399 1082.2 151.273C1082.28 151.134 1082.37 150.906 1082.37 150.624H1074.37C1074.37 148.064 1075.8 146.096 1077.42 144.917C1079.05 143.735 1081.09 143.127 1083.17 143.127V151.127Z" fill="#F3C671" mask="url(#path-58-inside-1_5_189)"/>
<mask id="path-60-inside-2_5_189" fill="white">
<ellipse cx="3.54352" cy="2.57873" rx="3.54352" ry="2.57873" transform="matrix(-1 0 0 1 1057.58 123.683)"/>
</mask>
<ellipse cx="3.54352" cy="2.57873" rx="3.54352" ry="2.57873" transform="matrix(-1 0 0 1 1057.58 123.683)" fill="#F3C671"/>
<path d="M1054.49 126.261C1054.49 125.38 1053.99 124.93 1053.89 124.851C1053.77 124.768 1053.81 124.84 1054.04 124.84V132.84C1052.3 132.84 1050.57 132.335 1049.18 131.319C1047.79 130.306 1046.49 128.567 1046.49 126.261H1054.49ZM1054.04 124.84C1054.26 124.84 1054.3 124.768 1054.19 124.851C1054.08 124.93 1053.58 125.38 1053.58 126.261H1061.58C1061.58 128.567 1060.29 130.306 1058.9 131.319C1057.5 132.335 1055.77 132.84 1054.04 132.84V124.84ZM1053.58 126.261C1053.58 127.143 1054.08 127.593 1054.19 127.672C1054.3 127.755 1054.26 127.683 1054.04 127.683V119.683C1055.77 119.683 1057.5 120.188 1058.9 121.204C1060.29 122.217 1061.58 123.955 1061.58 126.261H1053.58ZM1054.04 127.683C1053.81 127.683 1053.77 127.755 1053.89 127.672C1053.99 127.593 1054.49 127.143 1054.49 126.261H1046.49C1046.49 123.955 1047.79 122.217 1049.18 121.204C1050.57 120.188 1052.3 119.683 1054.04 119.683V127.683Z" fill="#F3C671" mask="url(#path-60-inside-2_5_189)"/>
<path d="M1054.04 126.015L1083.17 150.669H1154.32" stroke="#F3C671" stroke-width="3" stroke-linecap="round" stroke-linejoin="round"/>
<path d="M6.76095 36.402C5.82771 36.402 4.98396 36.2294 4.2297 35.8842C3.47544 35.5326 2.87778 35.0245 2.43673 34.3597C2.00207 33.6949 1.78474 32.8799 1.78474 31.9147C1.78474 31.0838 1.94454 30.3998 2.26415 29.8629C2.58375 29.326 3.01521 28.9009 3.55854 28.5877C4.10186 28.2745 4.7091 28.038 5.38027 27.8782C6.05143 27.7184 6.73538 27.5969 7.43212 27.5138C8.31422 27.4115 9.03013 27.3284 9.57984 27.2645C10.1296 27.1942 10.5291 27.0824 10.7784 26.9289C11.0276 26.7755 11.1523 26.5262 11.1523 26.1811V26.114C11.1523 25.2766 10.9158 24.6278 10.4428 24.1676C9.97615 23.7073 9.27942 23.4772 8.35257 23.4772C7.38737 23.4772 6.62672 23.6914 6.07061 24.1196C5.52089 24.5415 5.14057 25.0113 4.92963 25.5291L2.23538 24.9154C2.55498 24.0206 3.0216 23.2983 3.63524 22.7485C4.25527 22.1924 4.96798 21.7897 5.77338 21.5404C6.57878 21.2848 7.42572 21.1569 8.31422 21.1569C8.90229 21.1569 9.52551 21.2272 10.1839 21.3679C10.8487 21.5021 11.4687 21.7514 12.044 22.1157C12.6257 22.4801 13.1019 23.001 13.4726 23.6786C13.8433 24.3498 14.0287 25.2223 14.0287 26.2961V36.076H11.229V34.0625H11.1139C10.9286 34.4332 10.6505 34.7975 10.2798 35.1555C9.90903 35.5135 9.43283 35.8107 8.85115 36.0472C8.26947 36.2837 7.57274 36.402 6.76095 36.402ZM7.38417 34.1008C8.17679 34.1008 8.85435 33.9442 9.41685 33.631C9.98574 33.3178 10.4172 32.9087 10.7112 32.4037C11.0117 31.8924 11.1619 31.3458 11.1619 30.7642V28.8657C11.0596 28.968 10.8614 29.0639 10.5674 29.1534C10.2798 29.2365 9.95058 29.31 9.57984 29.3739C9.2091 29.4314 8.84795 29.4858 8.49639 29.5369C8.14483 29.5816 7.85079 29.62 7.61429 29.652C7.05818 29.7223 6.55001 29.8405 6.08979 30.0067C5.63595 30.1729 5.2716 30.4126 4.99675 30.7258C4.72828 31.0326 4.59405 31.4417 4.59405 31.9531C4.59405 32.6626 4.85612 33.1995 5.38027 33.5639C5.90442 33.9218 6.57239 34.1008 7.38417 34.1008ZM23.3603 27.9261C23.3603 30.3359 23.0439 32.5507 22.4111 34.5706C21.7783 36.5905 20.8546 38.4538 19.6401 40.1605H17.013C17.486 39.5277 17.9271 38.751 18.3361 37.8306C18.7452 36.9101 19.1032 35.9034 19.41 34.8103C19.7168 33.7109 19.9565 32.5731 20.1291 31.397C20.3017 30.2208 20.388 29.0639 20.388 27.9261C20.388 26.4112 20.2378 24.8739 19.9374 23.3142C19.6369 21.7546 19.231 20.3068 18.7197 18.9708C18.2083 17.6349 17.6394 16.5451 17.013 15.7013H19.6401C20.8546 17.408 21.7783 19.2713 22.4111 21.2912C23.0439 23.311 23.3603 25.5227 23.3603 27.9261Z" fill="white"/>
<path d="M584.284 36.076V16.4396H587.151V23.7361H587.323C587.489 23.4293 587.729 23.0745 588.042 22.6718C588.356 22.2691 588.79 21.9176 589.346 21.6172C589.902 21.3103 590.638 21.1569 591.552 21.1569C592.741 21.1569 593.802 21.4574 594.735 22.0582C595.668 22.6591 596.4 23.5252 596.931 24.6566C597.467 25.788 597.736 27.1495 597.736 28.7411C597.736 30.3327 597.471 31.6974 596.94 32.8352C596.41 33.9666 595.681 34.8391 594.754 35.4527C593.827 36.06 592.769 36.3636 591.58 36.3636C590.686 36.3636 589.954 36.2134 589.385 35.913C588.822 35.6125 588.381 35.261 588.062 34.8583C587.742 34.4556 587.496 34.0976 587.323 33.7844H587.084V36.076H584.284ZM587.093 28.7123C587.093 29.7478 587.243 30.6555 587.544 31.4353C587.844 32.2152 588.279 32.8256 588.848 33.2667C589.417 33.7013 590.113 33.9186 590.938 33.9186C591.795 33.9186 592.51 33.6917 593.086 33.2379C593.661 32.7777 594.096 32.1544 594.39 31.3682C594.69 30.582 594.84 29.6967 594.84 28.7123C594.84 27.7407 594.693 26.8682 594.399 26.0948C594.112 25.3213 593.677 24.7109 593.095 24.2635C592.52 23.816 591.801 23.5923 590.938 23.5923C590.107 23.5923 589.404 23.8064 588.829 24.2347C588.26 24.663 587.828 25.2606 587.534 26.0277C587.24 26.7947 587.093 27.6896 587.093 28.7123ZM606.125 27.9261C606.125 30.3359 605.809 32.5507 605.176 34.5706C604.543 36.5905 603.62 38.4538 602.405 40.1605H599.778C600.251 39.5277 600.692 38.751 601.101 37.8306C601.51 36.9101 601.868 35.9034 602.175 34.8103C602.482 33.7109 602.722 32.5731 602.894 31.397C603.067 30.2208 603.153 29.0639 603.153 27.9261C603.153 26.4112 603.003 24.8739 602.703 23.3142C602.402 21.7546 601.996 20.3068 601.485 18.9708C600.974 17.6349 600.405 16.5451 599.778 15.7013H602.405C603.62 17.408 604.543 19.2713 605.176 21.2912C605.809 23.311 606.125 25.5227 606.125 27.9261Z" fill="white"/>
<path d="M1029.11 80.3267L1026.8 80.7358C1026.71 80.4404 1026.55 80.1591 1026.34 79.8921C1026.14 79.625 1025.86 79.4063 1025.51 79.2358C1025.16 79.0654 1024.72 78.9801 1024.19 78.9801C1023.47 78.9801 1022.86 79.1421 1022.38 79.4659C1021.9 79.7841 1021.66 80.196 1021.66 80.7017C1021.66 81.1392 1021.82 81.4915 1022.14 81.7585C1022.47 82.0256 1022.99 82.2443 1023.71 82.4148L1025.79 82.8921C1026.99 83.1705 1027.89 83.5994 1028.48 84.179C1029.07 84.7585 1029.37 85.5114 1029.37 86.4375C1029.37 87.2216 1029.14 87.9205 1028.69 88.5341C1028.24 89.1421 1027.61 89.6193 1026.8 89.9659C1026 90.3125 1025.07 90.4858 1024.02 90.4858C1022.55 90.4858 1021.36 90.1733 1020.43 89.5483C1019.5 88.9176 1018.93 88.0227 1018.72 86.8636L1021.19 86.4886C1021.34 87.1307 1021.66 87.6165 1022.13 87.946C1022.61 88.2699 1023.23 88.4318 1024 88.4318C1024.84 88.4318 1025.5 88.2585 1026 87.9119C1026.5 87.5597 1026.75 87.1307 1026.75 86.625C1026.75 86.2159 1026.6 85.8722 1026.29 85.5938C1025.99 85.3154 1025.53 85.1051 1024.9 84.9631L1022.69 84.4773C1021.47 84.1989 1020.56 83.7557 1019.98 83.1477C1019.4 82.5398 1019.11 81.7699 1019.11 80.8381C1019.11 80.0654 1019.32 79.3892 1019.76 78.8097C1020.19 78.2301 1020.78 77.7784 1021.55 77.4546C1022.31 77.125 1023.18 76.9602 1024.16 76.9602C1025.58 76.9602 1026.69 77.2671 1027.5 77.8807C1028.32 78.4886 1028.85 79.304 1029.11 80.3267ZM1035.01 90.2216L1031.16 77.1307H1033.79L1036.36 86.7443H1036.48L1039.06 77.1307H1041.69L1044.25 86.7017H1044.38L1046.92 77.1307H1049.56L1045.71 90.2216H1043.11L1040.46 80.7699H1040.26L1037.6 90.2216H1035.01ZM1051.98 90.2216V77.1307H1054.52V90.2216H1051.98ZM1053.26 75.1108C1052.82 75.1108 1052.44 74.9631 1052.12 74.6676C1051.81 74.3665 1051.65 74.0085 1051.65 73.5938C1051.65 73.1733 1051.81 72.8154 1052.12 72.5199C1052.44 72.2188 1052.82 72.0682 1053.26 72.0682C1053.71 72.0682 1054.08 72.2188 1054.4 72.5199C1054.71 72.8154 1054.87 73.1733 1054.87 73.5938C1054.87 74.0085 1054.71 74.3665 1054.4 74.6676C1054.08 74.9631 1053.71 75.1108 1053.26 75.1108ZM1064.06 77.1307V79.1761H1056.91V77.1307H1064.06ZM1058.83 73.9943H1061.38V86.3779C1061.38 86.8722 1061.45 87.2443 1061.6 87.4943C1061.75 87.7386 1061.94 87.9063 1062.17 87.9972C1062.41 88.0824 1062.67 88.125 1062.95 88.125C1063.15 88.125 1063.33 88.1108 1063.48 88.0824C1063.64 88.054 1063.76 88.0313 1063.84 88.0142L1064.3 90.1193C1064.15 90.1761 1063.94 90.233 1063.67 90.2898C1063.4 90.3523 1063.06 90.3864 1062.65 90.3921C1061.98 90.4034 1061.35 90.2841 1060.77 90.0341C1060.19 89.7841 1059.73 89.3977 1059.37 88.875C1059.01 88.3523 1058.83 87.696 1058.83 86.9063V73.9943ZM1072.26 90.4858C1070.99 90.4858 1069.9 90.1989 1068.98 89.625C1068.07 89.0455 1067.38 88.2472 1066.89 87.2301C1066.4 86.2131 1066.15 85.0483 1066.15 83.7358C1066.15 82.4063 1066.4 81.233 1066.9 80.2159C1067.4 79.1932 1068.11 78.3949 1069.02 77.821C1069.93 77.2472 1071 76.9602 1072.23 76.9602C1073.22 76.9602 1074.11 77.1449 1074.89 77.5142C1075.67 77.8779 1076.3 78.3892 1076.77 79.0483C1077.26 79.7074 1077.54 80.4773 1077.63 81.358H1075.15C1075.02 80.7443 1074.7 80.2159 1074.22 79.7727C1073.73 79.3296 1073.09 79.108 1072.27 79.108C1071.56 79.108 1070.94 79.2955 1070.41 79.6705C1069.88 80.0398 1069.47 80.5682 1069.17 81.2557C1068.88 81.9375 1068.73 82.7443 1068.73 83.6761C1068.73 84.6307 1068.87 85.4546 1069.16 86.1477C1069.45 86.8409 1069.86 87.3779 1070.39 87.7585C1070.92 88.1392 1071.55 88.3296 1072.27 88.3296C1072.76 88.3296 1073.19 88.2415 1073.59 88.0654C1073.98 87.8835 1074.32 87.625 1074.58 87.2898C1074.86 86.9546 1075.05 86.5511 1075.15 86.0796H1077.63C1077.54 86.9261 1077.27 87.6818 1076.81 88.3466C1076.35 89.0114 1075.73 89.5341 1074.96 89.9148C1074.19 90.2955 1073.29 90.4858 1072.26 90.4858ZM1082.91 82.4489V90.2216H1080.36V72.7671H1082.87V79.2614H1083.03C1083.34 78.5568 1083.81 77.9972 1084.44 77.5824C1085.07 77.1676 1085.9 76.9602 1086.91 76.9602C1087.81 76.9602 1088.59 77.1449 1089.27 77.5142C1089.94 77.8835 1090.46 78.4347 1090.83 79.1676C1091.21 79.8949 1091.4 80.804 1091.4 81.8949V90.2216H1088.85V82.2017C1088.85 81.2415 1088.6 80.4972 1088.11 79.9688C1087.61 79.4347 1086.92 79.1676 1086.04 79.1676C1085.44 79.1676 1084.9 79.2955 1084.42 79.5511C1083.95 79.8068 1083.58 80.1818 1083.31 80.6761C1083.04 81.1648 1082.91 81.7557 1082.91 82.4489Z" fill="#F3F3F3"/>
<path d="M692.072 13.737H693.329V22.5154C693.329 23.0197 693.242 23.4565 693.068 23.8258C692.898 24.1951 692.638 24.481 692.29 24.6834C691.946 24.8858 691.511 24.987 690.985 24.987C690.943 24.987 690.9 24.987 690.857 24.987C690.815 24.987 690.772 24.987 690.73 24.987V23.8151C690.772 23.8151 690.811 23.8151 690.847 23.8151C690.882 23.8151 690.921 23.8151 690.964 23.8151C691.348 23.8151 691.628 23.7015 691.806 23.4742C691.983 23.2505 692.072 22.9309 692.072 22.5154V13.737ZM692.69 12.3734C692.445 12.3734 692.234 12.2899 692.056 12.123C691.882 11.9561 691.795 11.7555 691.795 11.5211C691.795 11.2867 691.882 11.0861 692.056 10.9192C692.234 10.7523 692.445 10.6688 692.69 10.6688C692.935 10.6688 693.144 10.7523 693.318 10.9192C693.496 11.0861 693.585 11.2867 693.585 11.5211C693.585 11.7555 693.496 11.9561 693.318 12.123C693.144 12.2899 692.935 12.3734 692.69 12.3734ZM700.362 15.4629V14.3123H706.924V15.4629H700.362ZM700.362 18.6163V17.4657H706.924V18.6163H700.362ZM717.771 11.0097V21.9188H716.45V12.3947H716.386L713.722 14.1631V12.8208L716.45 11.0097H717.771Z" fill="white"/>
<path d="M692.072 86.805H693.329V95.5835C693.329 96.0877 693.242 96.5245 693.068 96.8938C692.898 97.2631 692.638 97.549 692.29 97.7514C691.946 97.9538 691.511 98.055 690.985 98.055C690.943 98.055 690.9 98.055 690.857 98.055C690.815 98.055 690.772 98.055 690.73 98.055V96.8832C690.772 96.8832 690.811 96.8832 690.847 96.8832C690.882 96.8832 690.921 96.8832 690.964 96.8832C691.348 96.8832 691.628 96.7695 691.806 96.5423C691.983 96.3185 692.072 95.9989 692.072 95.5835V86.805ZM692.69 85.4414C692.445 85.4414 692.234 85.358 692.056 85.1911C691.882 85.0241 691.795 84.8235 691.795 84.5891C691.795 84.3548 691.882 84.1541 692.056 83.9872C692.234 83.8203 692.445 83.7369 692.69 83.7369C692.935 83.7369 693.144 83.8203 693.318 83.9872C693.496 84.1541 693.585 84.3548 693.585 84.5891C693.585 84.8235 693.496 85.0241 693.318 85.1911C693.144 85.358 692.935 85.4414 692.69 85.4414ZM700.362 88.5309V87.3803H706.924V88.5309H700.362ZM700.362 91.6843V90.5337H706.924V91.6843H700.362ZM713.935 94.9869V94.0281L717.536 90.0863C717.959 89.6246 718.307 89.2234 718.58 88.8825C718.854 88.538 719.056 88.2148 719.188 87.913C719.323 87.6076 719.39 87.288 719.39 86.9542C719.39 86.5707 719.298 86.2386 719.113 85.9581C718.932 85.6776 718.683 85.4609 718.367 85.3082C718.051 85.1555 717.696 85.0792 717.302 85.0792C716.883 85.0792 716.517 85.1662 716.205 85.3402C715.896 85.5107 715.656 85.7504 715.486 86.0593C715.319 86.3683 715.235 86.7305 715.235 87.146H713.978C713.978 86.5067 714.125 85.9457 714.42 85.4627C714.715 84.9798 715.116 84.6033 715.624 84.3335C716.135 84.0636 716.709 83.9286 717.345 83.9286C717.984 83.9286 718.55 84.0636 719.044 84.3335C719.537 84.6033 719.924 84.9673 720.205 85.4254C720.486 85.8835 720.626 86.3931 720.626 86.9542C720.626 87.3555 720.553 87.7479 720.407 88.1314C720.265 88.5114 720.017 88.9357 719.662 89.4045C719.31 89.8697 718.822 90.4379 718.197 91.109L715.747 93.7298V93.815H720.818V94.9869H713.935Z" fill="white"/>
<path d="M692.072 159.267H693.329V168.046C693.329 168.55 693.242 168.987 693.068 169.356C692.898 169.725 692.638 170.011 692.29 170.213C691.946 170.416 691.511 170.517 690.985 170.517C690.943 170.517 690.9 170.517 690.857 170.517C690.815 170.517 690.772 170.517 690.73 170.517V169.345C690.772 169.345 690.811 169.345 690.847 169.345C690.882 169.345 690.921 169.345 690.964 169.345C691.348 169.345 691.628 169.232 691.806 169.004C691.983 168.781 692.072 168.461 692.072 168.046V159.267ZM692.69 157.903C692.445 157.903 692.234 157.82 692.056 157.653C691.882 157.486 691.795 157.286 691.795 157.051C691.795 156.817 691.882 156.616 692.056 156.449C692.234 156.282 692.445 156.199 692.69 156.199C692.935 156.199 693.144 156.282 693.318 156.449C693.496 156.616 693.585 156.817 693.585 157.051C693.585 157.286 693.496 157.486 693.318 157.653C693.144 157.82 692.935 157.903 692.69 157.903ZM700.362 160.993V159.842H706.924V160.993H700.362ZM700.362 164.146V162.996H706.924V164.146H700.362ZM717.622 167.598C716.918 167.598 716.292 167.477 715.741 167.236C715.194 166.994 714.759 166.659 714.436 166.229C714.117 165.796 713.943 165.293 713.914 164.722H715.256C715.285 165.073 715.406 165.377 715.619 165.633C715.832 165.885 716.111 166.08 716.455 166.218C716.799 166.357 717.181 166.426 717.6 166.426C718.069 166.426 718.484 166.345 718.847 166.181C719.209 166.018 719.493 165.791 719.699 165.499C719.905 165.208 720.008 164.871 720.008 164.487C720.008 164.086 719.908 163.733 719.71 163.427C719.511 163.118 719.22 162.877 718.836 162.703C718.452 162.529 717.984 162.442 717.43 162.442H716.556V161.27H717.43C717.863 161.27 718.243 161.192 718.57 161.036C718.9 160.879 719.157 160.659 719.342 160.375C719.53 160.091 719.624 159.757 719.624 159.374C719.624 159.004 719.543 158.683 719.379 158.41C719.216 158.136 718.985 157.923 718.687 157.77C718.392 157.618 718.044 157.541 717.643 157.541C717.266 157.541 716.911 157.611 716.577 157.749C716.247 157.884 715.977 158.081 715.768 158.34C715.558 158.596 715.445 158.905 715.427 159.267H714.149C714.17 158.695 714.342 158.195 714.665 157.765C714.988 157.332 715.411 156.994 715.933 156.753C716.459 156.511 717.036 156.391 717.664 156.391C718.339 156.391 718.918 156.527 719.401 156.801C719.884 157.071 720.255 157.428 720.514 157.872C720.773 158.315 720.903 158.795 720.903 159.31C720.903 159.924 720.741 160.448 720.418 160.881C720.098 161.314 719.663 161.614 719.113 161.781V161.867C719.802 161.98 720.34 162.273 720.727 162.745C721.114 163.214 721.308 163.795 721.308 164.487C721.308 165.08 721.146 165.613 720.823 166.085C720.503 166.554 720.066 166.923 719.513 167.193C718.959 167.463 718.328 167.598 717.622 167.598Z" fill="white"/>
</svg>
