<svg width="534" height="271" viewBox="0 0 534 271" fill="none" xmlns="http://www.w3.org/2000/svg">
<g filter="url(#filter0_d_115_513)">
<path d="M48.5065 97.8187H309.163" stroke="#D0D0D0" stroke-width="3.5"/>
<path d="M48.5065 97.8187C96.0954 97.8187 96.0955 26.8528 132.831 26.8528C169.566 26.8528 172.906 97.8187 212.146 97.8187C251.386 97.8187 241.367 26.8528 287.286 26.8528H309.163" stroke="#D0D0D0" stroke-width="3.5"/>
</g>
<g filter="url(#filter1_d_115_513)">
<path d="M48.5065 247.456H309.163" stroke="#D0D0D0" stroke-width="3.5"/>
<path d="M48.5065 247.456C96.0954 247.456 96.0955 176.49 132.831 176.49C169.566 176.49 172.906 247.456 212.146 247.456C251.386 247.456 241.367 176.49 287.286 176.49H309.163" stroke="#D0D0D0" stroke-width="3.5"/>
</g>
<path d="M22.8973 176.744V194.926H20.6956V176.744H22.8973ZM29.1229 186.723V194.926H27.0277V181.289H29.0519V183.42H29.2294C29.549 182.728 30.0344 182.171 30.6854 181.751C31.3364 181.325 32.1769 181.112 33.2067 181.112C34.13 181.112 34.9379 181.301 35.6303 181.68C36.3228 182.053 36.8614 182.621 37.2461 183.385C37.6308 184.142 37.8232 185.101 37.8232 186.261V194.926H35.728V186.403C35.728 185.332 35.4498 184.497 34.8935 183.9C34.3371 183.296 33.5736 182.994 32.603 182.994C31.9342 182.994 31.3364 183.139 30.8097 183.429C30.2888 183.719 29.8775 184.142 29.5757 184.699C29.2738 185.255 29.1229 185.93 29.1229 186.723ZM47.5821 181.289V183.065H40.5154V181.289H47.5821ZM42.575 178.022H44.6702V191.02C44.6702 191.611 44.756 192.055 44.9277 192.351C45.1052 192.641 45.3301 192.837 45.6024 192.937C45.8806 193.032 46.1735 193.079 46.4813 193.079C46.7121 193.079 46.9015 193.067 47.0495 193.044C47.1974 193.014 47.3158 192.99 47.4046 192.973L47.8307 194.855C47.6887 194.908 47.4904 194.961 47.2359 195.015C46.9814 195.074 46.6588 195.103 46.2682 195.103C45.6764 195.103 45.0963 194.976 44.5282 194.722C43.9659 194.467 43.4983 194.079 43.1255 193.559C42.7585 193.038 42.575 192.381 42.575 191.588V178.022ZM56.8062 181.289V183.065H49.4554V181.289H56.8062ZM51.6571 194.926V179.407C51.6571 178.626 51.8405 177.975 52.2075 177.454C52.5744 176.933 53.0509 176.543 53.6368 176.282C54.2228 176.022 54.8413 175.892 55.4923 175.892C56.0072 175.892 56.4274 175.933 56.753 176.016C57.0785 176.099 57.3211 176.176 57.4809 176.247L56.8772 178.058C56.7707 178.022 56.6227 177.978 56.4333 177.925C56.2499 177.871 56.0072 177.845 55.7054 177.845C55.0129 177.845 54.5128 178.019 54.205 178.369C53.9032 178.718 53.7522 179.23 53.7522 179.904V194.926H51.6571ZM59.8535 195.068C59.4156 195.068 59.0397 194.911 58.7261 194.597C58.4124 194.284 58.2555 193.908 58.2555 193.47C58.2555 193.032 58.4124 192.656 58.7261 192.342C59.0397 192.029 59.4156 191.872 59.8535 191.872C60.2915 191.872 60.6673 192.029 60.981 192.342C61.2947 192.656 61.4515 193.032 61.4515 193.47C61.4515 193.76 61.3776 194.026 61.2296 194.269C61.0876 194.511 60.8952 194.707 60.6525 194.855C60.4158 194.997 60.1495 195.068 59.8535 195.068ZM72.5267 194.926V176.744H78.8832C80.1498 176.744 81.1944 176.963 82.0171 177.401C82.8397 177.833 83.4523 178.416 83.8548 179.15C84.2572 179.878 84.4585 180.686 84.4585 181.574C84.4585 182.355 84.3194 183 84.0412 183.509C83.769 184.018 83.4079 184.42 82.9581 184.716C82.5142 185.012 82.0319 185.231 81.511 185.373V185.551C82.0674 185.586 82.6267 185.782 83.1889 186.137C83.7512 186.492 84.2217 187.001 84.6005 187.664C84.9793 188.327 85.1687 189.137 85.1687 190.096C85.1687 191.008 84.9616 191.827 84.5473 192.555C84.133 193.283 83.479 193.86 82.5852 194.287C81.6915 194.713 80.5285 194.926 79.0963 194.926H72.5267ZM74.7284 192.973H79.0963C80.5345 192.973 81.5554 192.694 82.1591 192.138C82.7687 191.576 83.0735 190.895 83.0735 190.096C83.0735 189.481 82.9167 188.913 82.603 188.392C82.2893 187.865 81.8425 187.445 81.2625 187.131C80.6824 186.811 79.9959 186.652 79.2028 186.652H74.7284V192.973ZM74.7284 184.734H78.8122C79.475 184.734 80.0728 184.604 80.6055 184.343C81.1441 184.083 81.5702 183.716 81.8839 183.243C82.2035 182.769 82.3633 182.213 82.3633 181.574C82.3633 180.775 82.0851 180.097 81.5288 179.54C80.9724 178.978 80.0906 178.697 78.8832 178.697H74.7284V184.734Z" fill="black"/>
<path d="M22.8973 14.369V32.5508H20.6956V14.369H22.8973ZM29.1229 24.3477V32.5508H27.0277V18.9144H29.0519V21.0451H29.2294C29.549 20.3526 30.0344 19.7963 30.6854 19.3761C31.3364 18.9499 32.1769 18.7369 33.2067 18.7369C34.13 18.7369 34.9379 18.9263 35.6303 19.305C36.3228 19.6779 36.8614 20.2461 37.2461 21.0096C37.6308 21.7672 37.8232 22.726 37.8232 23.886V32.5508H35.728V24.0281C35.728 22.9568 35.4498 22.1223 34.8935 21.5245C34.3371 20.9208 33.5736 20.619 32.603 20.619C31.9342 20.619 31.3364 20.764 30.8097 21.054C30.2888 21.344 29.8775 21.7672 29.5757 22.3235C29.2738 22.8799 29.1229 23.5546 29.1229 24.3477ZM47.5821 18.9144V20.69H40.5154V18.9144H47.5821ZM42.575 15.6474H44.6702V28.6445C44.6702 29.2364 44.756 29.6803 44.9277 29.9762C45.1052 30.2662 45.3301 30.4615 45.6024 30.5621C45.8806 30.6568 46.1735 30.7042 46.4813 30.7042C46.7121 30.7042 46.9015 30.6924 47.0495 30.6687C47.1974 30.6391 47.3158 30.6154 47.4046 30.5977L47.8307 32.4798C47.6887 32.533 47.4904 32.5863 47.2359 32.6396C46.9814 32.6987 46.6588 32.7283 46.2682 32.7283C45.6764 32.7283 45.0963 32.6011 44.5282 32.3466C43.9659 32.0921 43.4983 31.7044 43.1255 31.1836C42.7585 30.6628 42.575 30.0058 42.575 29.2127V15.6474ZM56.8062 18.9144V20.69H49.4554V18.9144H56.8062ZM51.6571 32.5508V17.0323C51.6571 16.2511 51.8405 15.6 52.2075 15.0792C52.5744 14.5584 53.0509 14.1677 53.6368 13.9073C54.2228 13.6469 54.8413 13.5167 55.4923 13.5167C56.0072 13.5167 56.4274 13.5581 56.753 13.641C57.0785 13.7238 57.3211 13.8008 57.4809 13.8718L56.8772 15.6829C56.7707 15.6474 56.6227 15.603 56.4333 15.5497C56.2499 15.4964 56.0072 15.4698 55.7054 15.4698C55.0129 15.4698 54.5128 15.6444 54.205 15.9936C53.9032 16.3428 53.7522 16.8548 53.7522 17.5295V32.5508H51.6571ZM59.8535 32.6928C59.4156 32.6928 59.0397 32.536 58.7261 32.2223C58.4124 31.9086 58.2555 31.5328 58.2555 31.0948C58.2555 30.6568 58.4124 30.281 58.7261 29.9673C59.0397 29.6536 59.4156 29.4968 59.8535 29.4968C60.2915 29.4968 60.6673 29.6536 60.981 29.9673C61.2947 30.281 61.4515 30.6568 61.4515 31.0948C61.4515 31.3848 61.3776 31.6512 61.2296 31.8938C61.0876 32.1365 60.8952 32.3318 60.6525 32.4798C60.4158 32.6218 60.1495 32.6928 59.8535 32.6928ZM73.2724 32.5508H70.9642L77.6403 14.369H79.913L86.5892 32.5508H84.2809L78.8477 17.2454H78.7056L73.2724 32.5508ZM74.1247 25.4485H83.4286V27.4016H74.1247V25.4485Z" fill="black"/>
<rect x="320.106" y="13.9307" width="8.15152" height="7.35822" fill="#247888"/>
<rect x="320.106" y="84.8966" width="8.15152" height="7.35822" fill="#D088BF"/>
<rect x="320.106" y="247.456" width="8.15152" height="7.35822" fill="#F4A596"/>
<rect x="320.106" y="27.8365" width="8.15152" height="7.35822" fill="#6275CE"/>
<rect x="320.106" y="98.8025" width="8.15152" height="7.35822" fill="#F4A596"/>
<rect x="320.106" y="177.474" width="8.15152" height="7.35822" fill="#D088BF"/>
<rect x="320.106" y="233.549" width="8.15152" height="7.35822" fill="#6275CE"/>
<rect x="320.106" y="163.568" width="8.15152" height="7.35822" fill="#247888"/>
<path d="M292.191 18.8593H290.529L295.336 5.76834H296.972L301.779 18.8593H300.117L296.205 7.83937H296.103L292.191 18.8593ZM292.805 13.7456H299.503V15.1519H292.805V13.7456ZM307.449 16.5581V8.12062H308.881V16.5581H307.449ZM303.946 13.0553V11.6235H312.383V13.0553H303.946Z" fill="black"/>
<path d="M2.05781 102.897V93.0784H3.56633V102.897H2.05781ZM2.82485 91.4421C2.53082 91.4421 2.27727 91.3419 2.0642 91.1416C1.85539 90.9414 1.75099 90.7006 1.75099 90.4193C1.75099 90.1381 1.85539 89.8973 2.0642 89.697C2.27727 89.4967 2.53082 89.3966 2.82485 89.3966C3.11889 89.3966 3.37031 89.4967 3.57911 89.697C3.79218 89.8973 3.89872 90.1381 3.89872 90.4193C3.89872 90.7006 3.79218 90.9414 3.57911 91.1416C3.37031 91.3419 3.11889 91.4421 2.82485 91.4421ZM7.83781 96.9904V102.897H6.32929V93.0784H7.78668V94.6125H7.91452C8.14463 94.1139 8.49406 93.7134 8.96281 93.4108C9.43156 93.104 10.0367 92.9506 10.7782 92.9506C11.4429 92.9506 12.0246 93.0869 12.5232 93.3597C13.0218 93.6281 13.4095 94.0372 13.6865 94.5869C13.9635 95.1324 14.102 95.8227 14.102 96.658V102.897H12.5935V96.7602C12.5935 95.9889 12.3932 95.3881 11.9926 94.9577C11.5921 94.523 11.0424 94.3057 10.3435 94.3057C9.86196 94.3057 9.43156 94.4101 9.0523 94.6189C8.6773 94.8277 8.38114 95.1324 8.16381 95.533C7.94648 95.9335 7.83781 96.4193 7.83781 96.9904ZM16.8586 106.578V93.0784H18.316V94.6381H18.495C18.6057 94.4676 18.7592 94.2503 18.9552 93.9861C19.1555 93.7176 19.441 93.479 19.8117 93.2702C20.1867 93.0571 20.6938 92.9506 21.333 92.9506C22.1597 92.9506 22.8884 93.1573 23.5191 93.5706C24.1498 93.984 24.642 94.5699 24.9957 95.3284C25.3494 96.0869 25.5262 96.9818 25.5262 98.0131C25.5262 99.0529 25.3494 99.9541 24.9957 100.717C24.642 101.475 24.1519 102.064 23.5255 102.481C22.8991 102.894 22.1768 103.101 21.3586 103.101C20.7279 103.101 20.2229 102.997 19.8437 102.788C19.4644 102.575 19.1725 102.334 18.968 102.066C18.7634 101.793 18.6057 101.567 18.495 101.388H18.3671V106.578H16.8586ZM18.3415 97.9875C18.3415 98.729 18.4502 99.3831 18.6675 99.9499C18.8849 100.512 19.2023 100.953 19.62 101.273C20.0376 101.588 20.5489 101.746 21.154 101.746C21.7847 101.746 22.311 101.58 22.7329 101.247C23.159 100.911 23.4786 100.459 23.6917 99.8923C23.909 99.3213 24.0177 98.6864 24.0177 97.9875C24.0177 97.2972 23.9111 96.675 23.6981 96.121C23.4893 95.5628 23.1718 95.1217 22.7457 94.7979C22.3238 94.4698 21.7932 94.3057 21.154 94.3057C20.5404 94.3057 20.0248 94.4612 19.6072 94.7723C19.1896 95.0791 18.8742 95.5095 18.6611 96.0635C18.4481 96.6132 18.3415 97.2546 18.3415 97.9875ZM34.0148 98.8824V93.0784H35.5234V102.897H34.0148V101.235H33.9126C33.6825 101.733 33.3245 102.157 32.8387 102.507C32.3529 102.852 31.7393 103.024 30.9978 103.024C30.3842 103.024 29.8387 102.89 29.3614 102.622C28.8842 102.349 28.5092 101.94 28.2364 101.394C27.9637 100.845 27.8273 100.152 27.8273 99.3171V93.0784H29.3359V99.2148C29.3359 99.9307 29.5361 100.502 29.9367 100.928C30.3415 101.354 30.8572 101.567 31.4836 101.567C31.8586 101.567 32.24 101.471 32.6278 101.279C33.0198 101.088 33.3479 100.794 33.6121 100.397C33.8806 100.001 34.0148 99.496 34.0148 98.8824ZM42.5562 93.0784V94.3568H37.4681V93.0784H42.5562ZM38.9511 90.7262H40.4596V100.084C40.4596 100.51 40.5214 100.83 40.645 101.043C40.7728 101.252 40.9348 101.392 41.1308 101.465C41.3311 101.533 41.542 101.567 41.7636 101.567C41.9298 101.567 42.0662 101.559 42.1727 101.541C42.2792 101.52 42.3644 101.503 42.4284 101.49L42.7352 102.845C42.6329 102.884 42.4902 102.922 42.3069 102.961C42.1237 103.003 41.8914 103.024 41.6102 103.024C41.184 103.024 40.7664 102.933 40.3573 102.75C39.9525 102.566 39.6159 102.287 39.3474 101.912C39.0832 101.537 38.9511 101.064 38.9511 100.493V90.7262Z" fill="black"/>
<path d="M2.05781 252.903V243.085H3.56633V252.903H2.05781ZM2.82485 241.449C2.53082 241.449 2.27727 241.348 2.0642 241.148C1.85539 240.948 1.75099 240.707 1.75099 240.426C1.75099 240.145 1.85539 239.904 2.0642 239.704C2.27727 239.503 2.53082 239.403 2.82485 239.403C3.11889 239.403 3.37031 239.503 3.57911 239.704C3.79218 239.904 3.89872 240.145 3.89872 240.426C3.89872 240.707 3.79218 240.948 3.57911 241.148C3.37031 241.348 3.11889 241.449 2.82485 241.449ZM7.83781 246.997V252.903H6.32929V243.085H7.78668V244.619H7.91452C8.14463 244.12 8.49406 243.72 8.96281 243.417C9.43156 243.11 10.0367 242.957 10.7782 242.957C11.4429 242.957 12.0246 243.093 12.5232 243.366C13.0218 243.635 13.4095 244.044 13.6865 244.593C13.9635 245.139 14.102 245.829 14.102 246.664V252.903H12.5935V246.767C12.5935 245.995 12.3932 245.395 11.9926 244.964C11.5921 244.529 11.0424 244.312 10.3435 244.312C9.86196 244.312 9.43156 244.417 9.0523 244.625C8.6773 244.834 8.38114 245.139 8.16381 245.539C7.94648 245.94 7.83781 246.426 7.83781 246.997ZM16.8586 256.585V243.085H18.316V244.645H18.495C18.6057 244.474 18.7592 244.257 18.9552 243.993C19.1555 243.724 19.441 243.485 19.8117 243.277C20.1867 243.064 20.6938 242.957 21.333 242.957C22.1597 242.957 22.8884 243.164 23.5191 243.577C24.1498 243.99 24.642 244.576 24.9957 245.335C25.3494 246.093 25.5262 246.988 25.5262 248.02C25.5262 249.059 25.3494 249.961 24.9957 250.723C24.642 251.482 24.1519 252.07 23.5255 252.488C22.8991 252.901 22.1768 253.108 21.3586 253.108C20.7279 253.108 20.2229 253.003 19.8437 252.794C19.4644 252.581 19.1725 252.341 18.968 252.072C18.7634 251.799 18.6057 251.574 18.495 251.395H18.3671V256.585H16.8586ZM18.3415 247.994C18.3415 248.735 18.4502 249.39 18.6675 249.956C18.8849 250.519 19.2023 250.96 19.62 251.279C20.0376 251.595 20.5489 251.753 21.154 251.753C21.7847 251.753 22.311 251.586 22.7329 251.254C23.159 250.917 23.4786 250.466 23.6917 249.899C23.909 249.328 24.0177 248.693 24.0177 247.994C24.0177 247.304 23.9111 246.681 23.6981 246.128C23.4893 245.569 23.1718 245.128 22.7457 244.804C22.3238 244.476 21.7932 244.312 21.154 244.312C20.5404 244.312 20.0248 244.468 19.6072 244.779C19.1896 245.086 18.8742 245.516 18.6611 246.07C18.4481 246.62 18.3415 247.261 18.3415 247.994ZM34.0148 248.889V243.085H35.5234V252.903H34.0148V251.241H33.9126C33.6825 251.74 33.3245 252.164 32.8387 252.513C32.3529 252.858 31.7393 253.031 30.9978 253.031C30.3842 253.031 29.8387 252.897 29.3614 252.628C28.8842 252.355 28.5092 251.946 28.2364 251.401C27.9637 250.851 27.8273 250.159 27.8273 249.324V243.085H29.3359V249.221C29.3359 249.937 29.5361 250.508 29.9367 250.934C30.3415 251.36 30.8572 251.574 31.4836 251.574C31.8586 251.574 32.24 251.478 32.6278 251.286C33.0198 251.094 33.3479 250.8 33.6121 250.404C33.8806 250.007 34.0148 249.503 34.0148 248.889ZM42.5562 243.085V244.363H37.4681V243.085H42.5562ZM38.9511 240.733H40.4596V250.091C40.4596 250.517 40.5214 250.836 40.645 251.049C40.7728 251.258 40.9348 251.399 41.1308 251.471C41.3311 251.539 41.542 251.574 41.7636 251.574C41.9298 251.574 42.0662 251.565 42.1727 251.548C42.2792 251.527 42.3644 251.51 42.4284 251.497L42.7352 252.852C42.6329 252.89 42.4902 252.929 42.3069 252.967C42.1237 253.01 41.8914 253.031 41.6102 253.031C41.184 253.031 40.7664 252.939 40.3573 252.756C39.9525 252.573 39.6159 252.294 39.3474 251.919C39.0832 251.544 38.9511 251.071 38.9511 250.5V240.733Z" fill="black"/>
<path d="M292.191 90.8657H290.529L295.336 77.7748H296.972L301.779 90.8657H300.117L296.205 79.8458H296.103L292.191 90.8657ZM292.805 85.7521H299.503V87.1583H292.805V85.7521ZM309.239 83.6171V85.0234H303.511V83.6171H309.239Z" fill="black"/>
<path d="M291.654 169.537V156.446H296.231C297.143 156.446 297.895 156.603 298.487 156.919C299.079 157.23 299.52 157.65 299.81 158.178C300.1 158.702 300.245 159.284 300.245 159.923C300.245 160.485 300.145 160.95 299.944 161.316C299.748 161.683 299.489 161.973 299.165 162.186C298.845 162.399 298.498 162.557 298.123 162.659V162.787C298.523 162.812 298.926 162.953 299.331 163.208C299.736 163.464 300.074 163.831 300.347 164.308C300.62 164.785 300.756 165.369 300.756 166.059C300.756 166.716 300.607 167.306 300.309 167.83C300.011 168.354 299.54 168.77 298.896 169.076C298.253 169.383 297.415 169.537 296.384 169.537H291.654ZM293.239 168.13H296.384C297.42 168.13 298.155 167.93 298.589 167.53C299.028 167.125 299.248 166.635 299.248 166.059C299.248 165.616 299.135 165.207 298.909 164.832C298.683 164.453 298.361 164.15 297.944 163.924C297.526 163.694 297.032 163.579 296.461 163.579H293.239V168.13ZM293.239 162.199H296.18C296.657 162.199 297.087 162.105 297.471 161.917C297.859 161.73 298.165 161.466 298.391 161.125C298.621 160.784 298.736 160.383 298.736 159.923C298.736 159.348 298.536 158.86 298.136 158.459C297.735 158.054 297.1 157.852 296.231 157.852H293.239V162.199ZM306.992 167.235V158.798H308.424V167.235H306.992ZM303.489 163.733V162.301H311.926V163.733H303.489Z" fill="black"/>
<path d="M291.654 241.543V228.452H296.231C297.143 228.452 297.895 228.61 298.487 228.925C299.079 229.237 299.52 229.656 299.81 230.185C300.1 230.709 300.245 231.29 300.245 231.93C300.245 232.492 300.145 232.957 299.944 233.323C299.748 233.69 299.489 233.979 299.165 234.192C298.845 234.406 298.498 234.563 298.123 234.665V234.793C298.523 234.819 298.926 234.96 299.331 235.215C299.736 235.471 300.074 235.837 300.347 236.315C300.62 236.792 300.756 237.376 300.756 238.066C300.756 238.722 300.607 239.313 300.309 239.837C300.011 240.361 299.54 240.776 298.896 241.083C298.253 241.39 297.415 241.543 296.384 241.543H291.654ZM293.239 240.137H296.384C297.42 240.137 298.155 239.937 298.589 239.536C299.028 239.131 299.248 238.641 299.248 238.066C299.248 237.623 299.135 237.214 298.909 236.839C298.683 236.46 298.361 236.157 297.944 235.931C297.526 235.701 297.032 235.586 296.461 235.586H293.239V240.137ZM293.239 234.205H296.18C296.657 234.205 297.087 234.112 297.471 233.924C297.859 233.737 298.165 233.472 298.391 233.131C298.621 232.79 298.736 232.39 298.736 231.93C298.736 231.354 298.536 230.866 298.136 230.466C297.735 230.061 297.1 229.859 296.231 229.859H293.239V234.205ZM308.781 234.295V235.701H303.054V234.295H308.781Z" fill="black"/>
<path d="M320.106 17.2032C426.498 17.2032 421.34 167.513 324.619 167.513" stroke="#247888" stroke-opacity="0.2" stroke-width="3"/>
<path d="M320.106 102.482C426.498 102.482 421.34 251.33 324.619 251.33" stroke="#F4A596" stroke-opacity="0.2" stroke-width="3"/>
<path d="M320.106 30.5116C451.319 30.5116 444.958 237.229 325.672 237.229" stroke="#6275CE" stroke-opacity="0.2" stroke-width="3"/>
<path d="M320.106 88.4128C426.498 88.4128 421.34 181.153 324.619 181.153" stroke="#D088BF" stroke-opacity="0.2" stroke-width="3"/>
<path d="M433.027 48.8C432.603 48.8 432.352 48.7922 432.273 48.7765C432.195 48.7608 432.156 48.6745 432.156 48.5176C432.156 48.0939 432.242 47.835 432.415 47.7409C432.446 47.7252 433.811 47.7173 436.51 47.7173C439.209 47.733 440.668 47.7566 440.888 47.7879C441.766 47.9135 442.504 48.1331 443.1 48.447C443.696 48.7608 444.12 49.1217 444.371 49.5296C444.622 49.9376 444.787 50.2749 444.865 50.5417C444.944 50.8084 444.991 51.0752 445.006 51.3419C445.006 52.048 444.779 52.707 444.324 53.3189C443.869 53.9309 443.343 54.4016 442.747 54.7311C442.151 55.0606 441.625 55.3273 441.17 55.5313C440.715 55.7353 440.417 55.8373 440.276 55.8373L440.44 55.955C441.492 56.5512 442.017 57.4142 442.017 58.5439C442.017 58.7165 441.978 59.1951 441.9 59.9796C441.821 60.7642 441.782 61.4075 441.782 61.9096V62.1214C441.782 62.4039 441.79 62.6235 441.806 62.7804C441.821 62.9373 441.908 63.0786 442.064 63.2041C442.221 63.3296 442.425 63.4002 442.676 63.4159C443.116 63.4159 443.477 63.2433 443.759 62.8981C444.041 62.5529 444.245 62.1842 444.371 61.7919C444.449 61.5722 444.512 61.4389 444.559 61.3918C444.606 61.3447 444.724 61.3212 444.912 61.3212C445.226 61.3212 445.383 61.4153 445.383 61.6036C445.383 61.8861 445.195 62.3332 444.818 62.9452C444.222 63.8396 443.516 64.2867 442.7 64.2867H442.488C441.531 64.2867 440.739 64.0906 440.111 63.6983C439.483 63.3061 439.138 62.6941 439.075 61.8625C439.075 61.4389 439.193 60.7799 439.428 59.8855C439.664 58.9911 439.781 58.4184 439.781 58.1674C439.781 57.3671 439.444 56.7866 438.769 56.4257C438.534 56.3159 438.338 56.2531 438.181 56.2374C438.024 56.2217 437.467 56.206 436.51 56.1903H434.886L434.133 59.25C433.615 61.3212 433.356 62.3725 433.356 62.4039C433.356 62.4666 433.364 62.5058 433.38 62.5215C433.395 62.5372 433.45 62.5686 433.544 62.6157C433.639 62.6628 433.772 62.6784 433.944 62.6628C434.117 62.6471 434.376 62.6628 434.721 62.7098H435.451C435.545 62.8354 435.592 62.906 435.592 62.9217C435.592 62.9373 435.568 63.0786 435.521 63.3453C435.459 63.5493 435.38 63.6983 435.286 63.7925H434.933C434.368 63.7611 433.34 63.7454 431.85 63.7454C431.316 63.7454 430.822 63.7454 430.367 63.7454C429.912 63.7454 429.551 63.7454 429.284 63.7454C429.018 63.7454 428.853 63.7533 428.79 63.7689C428.523 63.7689 428.39 63.6983 428.39 63.5571C428.39 63.5257 428.413 63.4159 428.461 63.2276C428.539 62.9295 428.617 62.7647 428.696 62.7334C428.759 62.7177 428.876 62.7098 429.049 62.7098H429.19C429.614 62.7098 430.085 62.6863 430.602 62.6392C430.822 62.5921 430.971 62.498 431.05 62.3568C431.097 62.294 431.661 60.113 432.744 55.8138C433.827 51.5145 434.368 49.2472 434.368 49.0118C434.368 48.902 433.921 48.8314 433.027 48.8ZM442.441 50.7535C442.441 50.2514 442.276 49.8277 441.947 49.4825C441.617 49.1374 440.943 48.9177 439.923 48.8235C439.891 48.8235 439.711 48.8235 439.381 48.8235C439.052 48.8235 438.754 48.8157 438.487 48.8H437.969C437.232 48.8 436.808 48.8785 436.698 49.0354C436.682 49.0824 436.416 50.1259 435.898 52.1657C435.38 54.2055 435.121 55.2489 435.121 55.296C435.121 55.3116 435.663 55.3195 436.745 55.3195C437.969 55.3038 438.785 55.2489 439.193 55.1547C440.197 54.9978 440.982 54.535 441.547 53.7661C441.798 53.4052 442.009 52.9345 442.182 52.3539C442.355 51.7734 442.441 51.2399 442.441 50.7535Z" fill="black"/>
<path d="M448.938 66.1549C448.938 66.4211 449.193 66.5764 449.704 66.6208C449.903 66.6208 450.003 66.6818 450.003 66.8038C450.003 66.8149 449.992 66.887 449.97 67.0202C449.937 67.1755 449.903 67.2753 449.87 67.3197C449.837 67.364 449.765 67.3862 449.654 67.3862C449.632 67.3862 449.565 67.3862 449.454 67.3862C449.343 67.3862 449.155 67.3807 448.888 67.3696C448.622 67.3585 448.267 67.353 447.823 67.353C447.036 67.353 446.531 67.364 446.309 67.3862H446.176C446.098 67.3086 446.06 67.2476 446.06 67.2032C446.082 66.9037 446.154 66.7095 446.276 66.6208H446.509C447.285 66.5875 447.851 66.3102 448.206 65.7888C448.273 65.7222 449.277 64.0305 451.218 60.7136C453.159 57.3967 454.147 55.716 454.18 55.6717C454.258 55.5385 454.391 55.472 454.579 55.472H454.712H454.995C455.062 55.5718 455.095 55.6273 455.095 55.6384L455.561 61.0131C455.872 64.5963 456.038 66.4045 456.06 66.4377C456.116 66.5598 456.476 66.6208 457.142 66.6208C457.419 66.6208 457.558 66.6763 457.558 66.7872C457.558 66.8094 457.541 66.887 457.508 67.0202C457.475 67.1866 457.447 67.2864 457.425 67.3197C457.402 67.353 457.325 67.3751 457.192 67.3862C457.158 67.3862 457.081 67.3862 456.959 67.3862C456.837 67.3862 456.62 67.3807 456.31 67.3696C455.999 67.3585 455.594 67.353 455.095 67.353C454.052 67.353 453.37 67.364 453.048 67.3862H452.849C452.782 67.3197 452.749 67.2698 452.749 67.2365C452.749 67.2032 452.76 67.1034 452.782 66.937C452.826 66.7927 452.86 66.704 452.882 66.6707L452.949 66.6208H453.281C453.88 66.5875 454.235 66.4932 454.346 66.3379L454.147 63.8419H450.186L449.621 64.807C449.166 65.5725 448.938 66.0217 448.938 66.1549ZM454.063 63.0598C454.063 62.9378 453.997 62.0725 453.864 60.464C453.731 58.8555 453.653 58.0456 453.631 58.0345L453.181 58.7501C453.004 59.0496 452.655 59.6431 452.133 60.5305L450.636 63.0598L452.349 63.0765C453.492 63.0765 454.063 63.0709 454.063 63.0598Z" fill="black"/>
<path d="M466.991 55.6255C466.991 55.4215 467.101 55.2646 467.321 55.1548H482.313C482.549 55.2803 482.667 55.4372 482.667 55.6255C482.667 55.7981 482.557 55.9472 482.337 56.0727L474.853 56.0962H467.368C467.117 56.0178 466.991 55.8609 466.991 55.6255ZM466.991 60.1915C466.991 59.9561 467.117 59.7992 467.368 59.7208H482.337C482.557 59.8777 482.667 60.0346 482.667 60.1915C482.667 60.3955 482.549 60.5524 482.313 60.6622H467.321C467.101 60.5524 466.991 60.3955 466.991 60.1915Z" fill="black"/>
<path d="M496.313 38.8206C496.203 38.7107 496.148 38.6323 496.148 38.5852C496.148 38.5225 496.171 38.3969 496.219 38.2086C496.266 38.0204 496.305 37.9105 496.336 37.8791C496.368 37.8007 496.438 37.7615 496.548 37.7615C496.658 37.7615 497.058 37.7536 497.748 37.7379H498.996L499.443 35.855C499.49 35.6824 499.545 35.4549 499.608 35.1725C499.671 34.8901 499.725 34.6861 499.773 34.5605C499.82 34.435 499.867 34.2781 499.914 34.0898C499.961 33.9015 500.024 33.7682 500.102 33.6897C500.18 33.6113 500.259 33.5171 500.337 33.4073C500.416 33.2974 500.526 33.2268 500.667 33.1955C500.808 33.1641 500.949 33.1484 501.091 33.1484C501.373 33.1641 501.569 33.2504 501.679 33.4073C501.789 33.5642 501.844 33.7133 501.844 33.8545C501.844 33.9643 501.773 34.333 501.632 34.9607C501.491 35.5883 501.334 36.2081 501.161 36.82L500.926 37.6908C500.926 37.7222 501.318 37.7379 502.103 37.7379H503.303C503.413 37.8478 503.468 37.9341 503.468 37.9968C503.468 38.342 503.366 38.6166 503.162 38.8206H500.643L499.796 42.2333C499.184 44.7438 498.878 46.0932 498.878 46.2815C498.878 46.9405 499.09 47.27 499.514 47.27C500.063 47.27 500.596 47.0033 501.114 46.4698C501.632 45.9363 502.048 45.2773 502.361 44.4928C502.393 44.3986 502.432 44.3437 502.479 44.328C502.526 44.3123 502.644 44.2966 502.832 44.281H502.926C503.162 44.281 503.279 44.3437 503.279 44.4692C503.279 44.5163 503.256 44.6105 503.209 44.7517C503.13 45.0027 502.989 45.3008 502.785 45.646C502.581 45.9912 502.314 46.36 501.985 46.7522C501.655 47.1445 501.255 47.474 500.785 47.7408C500.314 48.0075 499.835 48.1409 499.349 48.1409C498.878 48.1409 498.431 48.0232 498.007 47.7878C497.584 47.5525 497.278 47.1445 497.089 46.564C497.058 46.4384 497.042 46.2266 497.042 45.9285V45.5048L497.866 42.2098C498.415 39.9974 498.698 38.8833 498.713 38.8677C498.713 38.8363 498.313 38.8206 497.513 38.8206H496.313Z" fill="black"/>
<path d="M507.658 50.2446C507.658 50.5108 507.914 50.6661 508.424 50.7105C508.624 50.7105 508.723 50.7715 508.723 50.8936C508.723 50.9046 508.712 50.9768 508.69 51.1099C508.657 51.2652 508.624 51.365 508.59 51.4094C508.557 51.4538 508.485 51.476 508.374 51.476C508.352 51.476 508.285 51.476 508.174 51.476C508.063 51.476 507.875 51.4704 507.608 51.4593C507.342 51.4482 506.987 51.4427 506.544 51.4427C505.756 51.4427 505.251 51.4538 505.029 51.476H504.896C504.819 51.3983 504.78 51.3373 504.78 51.2929C504.802 50.9934 504.874 50.7993 504.996 50.7105H505.229C506.006 50.6772 506.571 50.3999 506.926 49.8785C506.993 49.812 507.997 48.1202 509.938 44.8033C511.879 41.4864 512.867 39.8058 512.9 39.7614C512.978 39.6283 513.111 39.5617 513.299 39.5617H513.432H513.715C513.782 39.6615 513.815 39.717 513.815 39.7281L514.281 45.1028C514.592 48.686 514.758 50.4942 514.78 50.5275C514.836 50.6495 515.196 50.7105 515.862 50.7105C516.139 50.7105 516.278 50.766 516.278 50.8769C516.278 50.8991 516.261 50.9768 516.228 51.1099C516.195 51.2763 516.167 51.3761 516.145 51.4094C516.123 51.4427 516.045 51.4649 515.912 51.476C515.879 51.476 515.801 51.476 515.679 51.476C515.557 51.476 515.341 51.4704 515.03 51.4593C514.719 51.4482 514.314 51.4427 513.815 51.4427C512.772 51.4427 512.09 51.4538 511.768 51.476H511.569C511.502 51.4094 511.469 51.3595 511.469 51.3262C511.469 51.2929 511.48 51.1931 511.502 51.0267C511.547 50.8825 511.58 50.7937 511.602 50.7604L511.669 50.7105H512.001C512.6 50.6772 512.955 50.5829 513.066 50.4276L512.867 47.9316H508.906L508.341 48.8968C507.886 49.6622 507.658 50.1115 507.658 50.2446ZM512.784 47.1495C512.784 47.0275 512.717 46.1622 512.584 44.5537C512.451 42.9452 512.373 42.1354 512.351 42.1243L511.902 42.8398C511.724 43.1393 511.375 43.7328 510.853 44.6203L509.356 47.1495L511.07 47.1662C512.212 47.1662 512.784 47.1606 512.784 47.1495Z" fill="black"/>
<path d="M518.075 47.5322C518.075 47.5322 518.075 47.4601 518.075 47.3159C518.075 47.1717 518.153 47.0607 518.308 46.9831H527.976C528.142 47.0718 528.225 47.1828 528.225 47.3159C528.225 47.449 528.142 47.5599 527.976 47.6487H518.308C518.153 47.571 518.075 47.4601 518.075 47.3159V47.5322Z" fill="black"/>
<path d="M496.313 70.8767C496.203 70.7669 496.148 70.6884 496.148 70.6414C496.148 70.5786 496.171 70.4531 496.219 70.2648C496.266 70.0765 496.305 69.9667 496.336 69.9353C496.368 69.8568 496.438 69.8176 496.548 69.8176C496.658 69.8176 497.058 69.8098 497.748 69.7941H498.996L499.443 67.9112C499.49 67.7386 499.545 67.5111 499.608 67.2286C499.671 66.9462 499.725 66.7422 499.773 66.6167C499.82 66.4912 499.867 66.3343 499.914 66.146C499.961 65.9577 500.024 65.8243 500.102 65.7459C500.18 65.6674 500.259 65.5733 500.337 65.4634C500.416 65.3536 500.526 65.283 500.667 65.2516C500.808 65.2202 500.949 65.2045 501.091 65.2045C501.373 65.2202 501.569 65.3065 501.679 65.4634C501.789 65.6203 501.844 65.7694 501.844 65.9106C501.844 66.0205 501.773 66.3892 501.632 67.0168C501.491 67.6444 501.334 68.2642 501.161 68.8762L500.926 69.747C500.926 69.7784 501.318 69.7941 502.103 69.7941H503.303C503.413 69.9039 503.468 69.9902 503.468 70.053C503.468 70.3982 503.366 70.6728 503.162 70.8767H500.643L499.796 74.2895C499.184 76.8 498.878 78.1494 498.878 78.3377C498.878 78.9967 499.09 79.3262 499.514 79.3262C500.063 79.3262 500.596 79.0594 501.114 78.526C501.632 77.9925 502.048 77.3335 502.361 76.5489C502.393 76.4548 502.432 76.3999 502.479 76.3842C502.526 76.3685 502.644 76.3528 502.832 76.3371H502.926C503.162 76.3371 503.279 76.3999 503.279 76.5254C503.279 76.5725 503.256 76.6666 503.209 76.8078C503.13 77.0589 502.989 77.357 502.785 77.7022C502.581 78.0474 502.314 78.4161 501.985 78.8084C501.655 79.2007 501.255 79.5302 500.785 79.7969C500.314 80.0637 499.835 80.197 499.349 80.197C498.878 80.197 498.431 80.0793 498.007 79.844C497.584 79.6086 497.278 79.2007 497.089 78.6201C497.058 78.4946 497.042 78.2828 497.042 77.9846V77.561L497.866 74.2659C498.415 72.0535 498.698 70.9395 498.713 70.9238C498.713 70.8924 498.313 70.8767 497.513 70.8767H496.313Z" fill="black"/>
<path d="M507.658 82.3007C507.658 82.567 507.914 82.7223 508.424 82.7667C508.624 82.7667 508.723 82.8277 508.723 82.9497C508.723 82.9608 508.712 83.0329 508.69 83.166C508.657 83.3213 508.624 83.4212 508.59 83.4655C508.557 83.5099 508.485 83.5321 508.374 83.5321C508.352 83.5321 508.285 83.5321 508.174 83.5321C508.063 83.5321 507.875 83.5266 507.609 83.5155C507.342 83.5044 506.987 83.4988 506.544 83.4988C505.756 83.4988 505.251 83.5099 505.029 83.5321H504.896C504.819 83.4545 504.78 83.3934 504.78 83.3491C504.802 83.0495 504.874 82.8554 504.996 82.7667H505.229C506.006 82.7334 506.571 82.4561 506.926 81.9347C506.993 81.8681 507.997 80.1764 509.938 76.8595C511.879 73.5426 512.867 71.8619 512.9 71.8175C512.978 71.6844 513.111 71.6179 513.299 71.6179H513.433H513.715C513.782 71.7177 513.815 71.7732 513.815 71.7843L514.281 77.159C514.592 80.7421 514.758 82.5503 514.78 82.5836C514.836 82.7057 515.196 82.7667 515.862 82.7667C516.139 82.7667 516.278 82.8221 516.278 82.9331C516.278 82.9553 516.261 83.0329 516.228 83.166C516.195 83.3324 516.167 83.4323 516.145 83.4655C516.123 83.4988 516.045 83.521 515.912 83.5321C515.879 83.5321 515.801 83.5321 515.679 83.5321C515.557 83.5321 515.341 83.5266 515.03 83.5155C514.719 83.5044 514.314 83.4988 513.815 83.4988C512.772 83.4988 512.09 83.5099 511.769 83.5321H511.569C511.502 83.4655 511.469 83.4156 511.469 83.3823C511.469 83.3491 511.48 83.2492 511.502 83.0828C511.547 82.9386 511.58 82.8499 511.602 82.8166L511.669 82.7667H512.001C512.601 82.7334 512.956 82.6391 513.066 82.4838L512.867 79.9878H508.906L508.341 80.9529C507.886 81.7183 507.658 82.1676 507.658 82.3007ZM512.784 79.2057C512.784 79.0837 512.717 78.2184 512.584 76.6099C512.451 75.0013 512.373 74.1915 512.351 74.1804L511.902 74.8959C511.724 75.1955 511.375 75.789 510.853 76.6764L509.356 79.2057L511.07 79.2223C512.212 79.2223 512.784 79.2168 512.784 79.2057Z" fill="black"/>
<path d="M517.609 79.5884C517.609 79.5884 517.609 79.5163 517.609 79.3721C517.609 79.2279 517.687 79.117 517.842 79.0393H522.817V76.5433L522.834 74.0473C522.945 73.9031 523.05 73.831 523.15 73.831C523.295 73.831 523.405 73.9142 523.483 74.0806V79.0393H528.442C528.608 79.1281 528.691 79.239 528.691 79.3721C528.691 79.5052 528.608 79.6162 528.442 79.7049H523.483V84.6636C523.394 84.819 523.295 84.8966 523.184 84.8966H523.15H523.117C522.984 84.8966 522.884 84.819 522.817 84.6636V79.7049H517.842C517.687 79.6273 517.609 79.5163 517.609 79.3721V79.5884Z" fill="black"/>
<path d="M533.158 58.6145H493.347V57.2023H533.158V58.6145Z" fill="black"/>
<path d="M433.032 196.824C432.608 196.824 432.357 196.816 432.278 196.8C432.2 196.784 432.16 196.698 432.16 196.541C432.16 196.117 432.247 195.857 432.42 195.763C432.451 195.747 433.818 195.74 436.52 195.74C439.222 195.755 440.683 195.779 440.903 195.81C441.783 195.936 442.521 196.156 443.118 196.47C443.715 196.784 444.139 197.146 444.391 197.554C444.642 197.963 444.807 198.3 444.885 198.567C444.964 198.834 445.011 199.102 445.027 199.369C445.027 200.076 444.799 200.735 444.343 201.348C443.888 201.961 443.362 202.432 442.765 202.762C442.168 203.092 441.641 203.359 441.186 203.563C440.73 203.767 440.432 203.87 440.29 203.87L440.455 203.987C441.508 204.584 442.034 205.448 442.034 206.579C442.034 206.752 441.995 207.231 441.916 208.017C441.838 208.802 441.798 209.447 441.798 209.949V210.161C441.798 210.444 441.806 210.664 441.822 210.821C441.838 210.978 441.924 211.12 442.081 211.245C442.238 211.371 442.443 211.442 442.694 211.457C443.134 211.457 443.495 211.285 443.778 210.939C444.061 210.593 444.265 210.224 444.391 209.831C444.469 209.612 444.532 209.478 444.579 209.431C444.626 209.384 444.744 209.36 444.933 209.36C445.247 209.36 445.404 209.454 445.404 209.643C445.404 209.926 445.215 210.373 444.838 210.986C444.241 211.882 443.534 212.329 442.717 212.329H442.505C441.547 212.329 440.754 212.133 440.125 211.74C439.497 211.347 439.151 210.735 439.088 209.902C439.088 209.478 439.206 208.818 439.442 207.923C439.678 207.027 439.795 206.454 439.795 206.202C439.795 205.401 439.458 204.82 438.782 204.459C438.546 204.349 438.35 204.286 438.193 204.27C438.036 204.254 437.478 204.239 436.52 204.223H434.894L434.14 207.286C433.621 209.36 433.362 210.413 433.362 210.444C433.362 210.507 433.37 210.546 433.386 210.562C433.401 210.578 433.456 210.609 433.551 210.656C433.645 210.703 433.778 210.719 433.951 210.703C434.124 210.688 434.383 210.703 434.729 210.75H435.459C435.554 210.876 435.601 210.947 435.601 210.963C435.601 210.978 435.577 211.12 435.53 211.387C435.467 211.591 435.389 211.74 435.295 211.834H434.941C434.375 211.803 433.346 211.787 431.854 211.787C431.32 211.787 430.825 211.787 430.369 211.787C429.914 211.787 429.552 211.787 429.285 211.787C429.018 211.787 428.853 211.795 428.791 211.811C428.523 211.811 428.39 211.74 428.39 211.599C428.39 211.567 428.414 211.457 428.461 211.269C428.539 210.97 428.618 210.805 428.696 210.774C428.759 210.758 428.877 210.75 429.05 210.75H429.191C429.615 210.75 430.087 210.727 430.605 210.68C430.825 210.633 430.974 210.538 431.053 210.397C431.1 210.334 431.665 208.15 432.749 203.846C433.833 199.541 434.375 197.271 434.375 197.036C434.375 196.926 433.928 196.855 433.032 196.824ZM442.458 198.779C442.458 198.277 442.293 197.853 441.963 197.507C441.633 197.161 440.958 196.941 439.937 196.847C439.905 196.847 439.725 196.847 439.395 196.847C439.065 196.847 438.766 196.839 438.499 196.824H437.981C437.243 196.824 436.818 196.902 436.708 197.059C436.693 197.106 436.426 198.151 435.907 200.193C435.389 202.236 435.13 203.28 435.13 203.328C435.13 203.343 435.672 203.351 436.756 203.351C437.981 203.335 438.798 203.28 439.206 203.186C440.212 203.029 440.997 202.566 441.563 201.796C441.814 201.434 442.026 200.963 442.199 200.382C442.372 199.801 442.458 199.266 442.458 198.779Z" fill="black"/>
<path d="M449.347 204.757C449.047 204.757 448.869 204.751 448.814 204.74C448.758 204.729 448.73 204.668 448.73 204.557C448.73 204.257 448.791 204.074 448.914 204.007C448.925 203.996 449.647 203.99 451.079 203.99C453.956 203.99 455.472 204.001 455.628 204.024C456.327 204.135 456.911 204.385 457.377 204.773C457.844 205.162 458.082 205.673 458.093 206.306C458.093 207.017 457.771 207.656 457.127 208.222C456.483 208.788 455.744 209.172 454.911 209.372L454.745 209.422C455.456 209.522 456.039 209.777 456.494 210.188C456.949 210.599 457.183 211.11 457.194 211.721C457.194 212.532 456.794 213.315 455.994 214.07C455.195 214.825 454.212 215.253 453.045 215.353C452.968 215.364 451.796 215.369 449.53 215.369C447.309 215.369 446.181 215.358 446.148 215.336C446.103 215.303 446.081 215.258 446.081 215.203C446.081 215.125 446.092 215.047 446.115 214.97C446.17 214.759 446.226 214.642 446.281 214.62C446.326 214.609 446.409 214.603 446.531 214.603H446.631C446.931 214.603 447.264 214.586 447.631 214.553C447.786 214.52 447.892 214.453 447.947 214.353C447.981 214.309 448.38 212.765 449.147 209.721C449.913 206.678 450.296 205.073 450.296 204.907C450.296 204.829 449.98 204.779 449.347 204.757ZM456.311 206.306C456.311 205.973 456.228 205.662 456.061 205.373C455.894 205.084 455.622 204.896 455.245 204.807C455.167 204.784 454.656 204.768 453.712 204.757C453.49 204.757 453.256 204.757 453.012 204.757C452.768 204.757 452.573 204.762 452.429 204.773H452.212C452.046 204.784 451.94 204.84 451.896 204.94C451.874 204.984 451.696 205.651 451.363 206.939C451.363 206.973 451.357 207.006 451.346 207.039L450.83 209.138H452.179C453.079 209.138 453.595 209.127 453.728 209.105C454.395 208.994 454.989 208.672 455.511 208.139C456.033 207.606 456.3 206.995 456.311 206.306ZM455.411 211.554C455.411 211.065 455.283 210.66 455.028 210.338C454.772 210.016 454.439 209.827 454.028 209.771C453.962 209.76 453.501 209.755 452.646 209.755C451.335 209.755 450.674 209.76 450.663 209.771C450.663 209.794 450.569 210.199 450.38 210.988C450.191 211.776 449.996 212.559 449.797 213.337L449.497 214.503C449.497 214.547 449.563 214.57 449.697 214.57C449.83 214.57 450.28 214.581 451.046 214.603C452.035 214.603 452.568 214.597 452.646 214.586C453.334 214.509 453.967 214.186 454.545 213.62C455.122 213.054 455.411 212.365 455.411 211.554Z" fill="black"/>
<path d="M467.19 203.657C467.19 203.453 467.3 203.296 467.52 203.186H482.531C482.766 203.312 482.884 203.469 482.884 203.657C482.884 203.83 482.774 203.979 482.554 204.105L475.06 204.129H467.567C467.315 204.05 467.19 203.893 467.19 203.657ZM467.19 208.229C467.19 207.993 467.315 207.836 467.567 207.758H482.554C482.774 207.915 482.884 208.072 482.884 208.229C482.884 208.433 482.766 208.59 482.531 208.7H467.52C467.3 208.59 467.19 208.433 467.19 208.229Z" fill="black"/>
<path d="M496.545 186.832C496.435 186.722 496.38 186.643 496.38 186.596C496.38 186.533 496.403 186.408 496.45 186.219C496.498 186.031 496.537 185.921 496.568 185.889C496.6 185.811 496.67 185.772 496.78 185.772C496.89 185.772 497.291 185.764 497.982 185.748H499.231L499.679 183.863C499.726 183.69 499.781 183.462 499.844 183.179C499.907 182.897 499.962 182.692 500.009 182.567C500.056 182.441 500.103 182.284 500.15 182.095C500.197 181.907 500.26 181.773 500.339 181.695C500.417 181.616 500.496 181.522 500.574 181.412C500.653 181.302 500.763 181.231 500.904 181.2C501.046 181.168 501.187 181.153 501.328 181.153C501.611 181.168 501.808 181.255 501.918 181.412C502.028 181.569 502.083 181.718 502.083 181.86C502.083 181.97 502.012 182.339 501.87 182.967C501.729 183.596 501.572 184.216 501.399 184.829L501.163 185.701C501.163 185.732 501.556 185.748 502.342 185.748H503.544C503.654 185.858 503.708 185.944 503.708 186.007C503.708 186.353 503.606 186.628 503.402 186.832H500.881L500.032 190.249C499.42 192.762 499.113 194.114 499.113 194.302C499.113 194.962 499.325 195.292 499.75 195.292C500.299 195.292 500.834 195.025 501.352 194.491C501.87 193.956 502.287 193.297 502.601 192.511C502.632 192.417 502.672 192.362 502.719 192.346C502.766 192.33 502.884 192.315 503.072 192.299H503.167C503.402 192.299 503.52 192.362 503.52 192.488C503.52 192.535 503.496 192.629 503.449 192.77C503.371 193.022 503.229 193.32 503.025 193.666C502.821 194.011 502.554 194.381 502.224 194.773C501.894 195.166 501.493 195.496 501.022 195.763C500.551 196.03 500.072 196.164 499.585 196.164C499.113 196.164 498.666 196.046 498.241 195.81C497.817 195.575 497.511 195.166 497.322 194.585C497.291 194.459 497.275 194.247 497.275 193.949V193.524L498.1 190.225C498.65 188.01 498.933 186.895 498.948 186.879C498.948 186.848 498.548 186.832 497.747 186.832H496.545Z" fill="black"/>
<path d="M508.288 188.827C507.988 188.827 507.81 188.821 507.754 188.81C507.699 188.799 507.671 188.738 507.671 188.627C507.671 188.327 507.732 188.144 507.854 188.077C507.865 188.066 508.587 188.06 510.02 188.06C512.897 188.06 514.413 188.071 514.569 188.094C515.268 188.205 515.851 188.455 516.318 188.843C516.784 189.232 517.023 189.743 517.034 190.376C517.034 191.087 516.712 191.726 516.068 192.292C515.424 192.858 514.685 193.242 513.852 193.442L513.686 193.492C514.396 193.592 514.98 193.847 515.435 194.258C515.89 194.669 516.124 195.18 516.135 195.791C516.135 196.601 515.735 197.385 514.935 198.14C514.135 198.895 513.152 199.323 511.986 199.423C511.908 199.434 510.737 199.439 508.471 199.439C506.249 199.439 505.122 199.428 505.089 199.406C505.044 199.373 505.022 199.328 505.022 199.273C505.022 199.195 505.033 199.117 505.055 199.039C505.111 198.828 505.167 198.712 505.222 198.69C505.266 198.679 505.35 198.673 505.472 198.673H505.572C505.872 198.673 506.205 198.656 506.572 198.623C506.727 198.59 506.833 198.523 506.888 198.423C506.921 198.379 507.321 196.835 508.088 193.791C508.854 190.748 509.237 189.143 509.237 188.977C509.237 188.899 508.921 188.849 508.288 188.827ZM515.252 190.376C515.252 190.043 515.168 189.732 515.002 189.443C514.835 189.154 514.563 188.965 514.185 188.877C514.108 188.854 513.597 188.838 512.653 188.827C512.43 188.827 512.197 188.827 511.953 188.827C511.709 188.827 511.514 188.832 511.37 188.843H511.153C510.987 188.854 510.881 188.91 510.837 189.01C510.814 189.054 510.637 189.721 510.303 191.009C510.303 191.042 510.298 191.076 510.287 191.109L509.77 193.208H511.12C512.02 193.208 512.536 193.197 512.669 193.175C513.336 193.064 513.93 192.742 514.452 192.209C514.974 191.676 515.241 191.065 515.252 190.376ZM514.352 195.624C514.352 195.135 514.224 194.73 513.969 194.408C513.713 194.086 513.38 193.897 512.969 193.841C512.903 193.83 512.442 193.825 511.586 193.825C510.276 193.825 509.615 193.83 509.604 193.841C509.604 193.864 509.509 194.269 509.321 195.058C509.132 195.846 508.937 196.629 508.737 197.407L508.438 198.573C508.438 198.617 508.504 198.64 508.637 198.64C508.771 198.64 509.221 198.651 509.987 198.673C510.975 198.673 511.509 198.667 511.586 198.656C512.275 198.579 512.908 198.256 513.486 197.69C514.063 197.124 514.352 196.435 514.352 195.624Z" fill="black"/>
<path d="M518.484 195.491C518.484 195.491 518.484 195.418 518.484 195.274C518.484 195.13 518.562 195.019 518.717 194.941H528.397C528.563 195.03 528.647 195.141 528.647 195.274C528.647 195.407 528.563 195.518 528.397 195.607H518.717C518.562 195.53 518.484 195.418 518.484 195.274V195.491Z" fill="black"/>
<path d="M496.545 218.928C496.435 218.818 496.38 218.739 496.38 218.692C496.38 218.629 496.403 218.503 496.45 218.315C496.498 218.126 496.537 218.016 496.568 217.985C496.6 217.906 496.67 217.867 496.78 217.867C496.89 217.867 497.291 217.859 497.982 217.844H499.231L499.679 215.958C499.726 215.786 499.781 215.558 499.844 215.275C499.907 214.992 499.962 214.788 500.009 214.662C500.056 214.537 500.103 214.379 500.15 214.191C500.197 214.002 500.26 213.869 500.339 213.79C500.417 213.712 500.496 213.618 500.574 213.508C500.653 213.398 500.763 213.327 500.904 213.295C501.046 213.264 501.187 213.248 501.328 213.248C501.611 213.264 501.808 213.35 501.918 213.508C502.028 213.665 502.083 213.814 502.083 213.955C502.083 214.065 502.012 214.434 501.87 215.063C501.729 215.691 501.572 216.312 501.399 216.925L501.163 217.796C501.163 217.828 501.556 217.844 502.342 217.844H503.544C503.654 217.954 503.708 218.04 503.708 218.103C503.708 218.448 503.606 218.723 503.402 218.928H500.881L500.032 222.344C499.42 224.858 499.113 226.209 499.113 226.398C499.113 227.057 499.325 227.387 499.75 227.387C500.299 227.387 500.834 227.12 501.352 226.586C501.87 226.052 502.287 225.392 502.601 224.607C502.632 224.512 502.672 224.457 502.719 224.442C502.766 224.426 502.884 224.41 503.072 224.395H503.167C503.402 224.395 503.52 224.457 503.52 224.583C503.52 224.63 503.496 224.725 503.449 224.866C503.371 225.117 503.229 225.416 503.025 225.761C502.821 226.107 502.554 226.476 502.224 226.869C501.894 227.262 501.493 227.592 501.022 227.859C500.551 228.126 500.072 228.259 499.585 228.259C499.113 228.259 498.666 228.141 498.241 227.906C497.817 227.67 497.511 227.262 497.322 226.68C497.291 226.555 497.275 226.343 497.275 226.044V225.62L498.1 222.321C498.65 220.106 498.933 218.99 498.948 218.975C498.948 218.943 498.548 218.928 497.747 218.928H496.545Z" fill="black"/>
<path d="M508.288 220.922C507.988 220.922 507.81 220.917 507.754 220.905C507.699 220.894 507.671 220.833 507.671 220.722C507.671 220.422 507.732 220.239 507.854 220.172C507.865 220.161 508.587 220.156 510.02 220.156C512.897 220.156 514.413 220.167 514.569 220.189C515.268 220.3 515.851 220.55 516.318 220.939C516.784 221.327 517.023 221.838 517.034 222.471C517.034 223.182 516.712 223.821 516.068 224.387C515.424 224.954 514.685 225.337 513.852 225.537L513.686 225.587C514.396 225.687 514.98 225.942 515.435 226.353C515.89 226.764 516.124 227.275 516.135 227.886C516.135 228.697 515.735 229.48 514.935 230.235C514.135 230.991 513.152 231.418 511.986 231.518C511.908 231.529 510.737 231.535 508.471 231.535C506.249 231.535 505.122 231.524 505.089 231.501C505.044 231.468 505.022 231.424 505.022 231.368C505.022 231.29 505.033 231.213 505.055 231.135C505.111 230.924 505.167 230.807 505.222 230.785C505.266 230.774 505.35 230.768 505.472 230.768H505.572C505.872 230.768 506.205 230.752 506.572 230.718C506.727 230.685 506.833 230.618 506.888 230.519C506.921 230.474 507.321 228.93 508.088 225.887C508.854 222.844 509.237 221.239 509.237 221.072C509.237 220.994 508.921 220.944 508.288 220.922ZM515.252 222.471C515.252 222.138 515.168 221.827 515.002 221.539C514.835 221.25 514.563 221.061 514.185 220.972C514.108 220.95 513.597 220.933 512.653 220.922C512.43 220.922 512.197 220.922 511.953 220.922C511.709 220.922 511.514 220.928 511.37 220.939H511.153C510.987 220.95 510.881 221.005 510.837 221.105C510.814 221.15 510.637 221.816 510.303 223.105C510.303 223.138 510.298 223.171 510.287 223.205L509.77 225.304H511.12C512.02 225.304 512.536 225.293 512.669 225.27C513.336 225.159 513.93 224.837 514.452 224.304C514.974 223.771 515.241 223.16 515.252 222.471ZM514.352 227.72C514.352 227.231 514.224 226.825 513.969 226.503C513.713 226.181 513.38 225.992 512.969 225.937C512.903 225.926 512.442 225.92 511.586 225.92C510.276 225.92 509.615 225.926 509.604 225.937C509.604 225.959 509.509 226.364 509.321 227.153C509.132 227.942 508.937 228.725 508.737 229.502L508.438 230.668C508.438 230.713 508.504 230.735 508.637 230.735C508.771 230.735 509.221 230.746 509.987 230.768C510.975 230.768 511.509 230.763 511.586 230.752C512.275 230.674 512.908 230.352 513.486 229.785C514.063 229.219 514.352 228.53 514.352 227.72Z" fill="black"/>
<path d="M518.017 227.586C518.017 227.586 518.017 227.514 518.017 227.37C518.017 227.225 518.095 227.114 518.251 227.037H523.232V224.537L523.249 222.038C523.36 221.894 523.465 221.822 523.565 221.822C523.71 221.822 523.821 221.905 523.898 222.072V227.037H528.863C529.03 227.125 529.113 227.236 529.113 227.37C529.113 227.503 529.03 227.614 528.863 227.703H523.898V232.668C523.81 232.823 523.71 232.901 523.599 232.901H523.565H523.532C523.399 232.901 523.299 232.823 523.232 232.668V227.703H518.251C518.095 227.625 518.017 227.514 518.017 227.37V227.586Z" fill="black"/>
<path d="M533.584 206.65H493.576V205.236H533.584V206.65Z" fill="black"/>
<defs>
<filter id="filter0_d_115_513" x="31.5065" y="12.1028" width="294.656" height="108.466" filterUnits="userSpaceOnUse" color-interpolation-filters="sRGB">
<feFlood flood-opacity="0" result="BackgroundImageFix"/>
<feColorMatrix in="SourceAlpha" type="matrix" values="0 0 0 0 0 0 0 0 0 0 0 0 0 0 0 0 0 0 127 0" result="hardAlpha"/>
<feOffset dy="4"/>
<feGaussianBlur stdDeviation="8.5"/>
<feComposite in2="hardAlpha" operator="out"/>
<feColorMatrix type="matrix" values="0 0 0 0 0 0 0 0 0 0 0 0 0 0 0 0 0 0 0.07 0"/>
<feBlend mode="normal" in2="BackgroundImageFix" result="effect1_dropShadow_115_513"/>
<feBlend mode="normal" in="SourceGraphic" in2="effect1_dropShadow_115_513" result="shape"/>
</filter>
<filter id="filter1_d_115_513" x="31.5065" y="161.74" width="294.656" height="108.466" filterUnits="userSpaceOnUse" color-interpolation-filters="sRGB">
<feFlood flood-opacity="0" result="BackgroundImageFix"/>
<feColorMatrix in="SourceAlpha" type="matrix" values="0 0 0 0 0 0 0 0 0 0 0 0 0 0 0 0 0 0 127 0" result="hardAlpha"/>
<feOffset dy="4"/>
<feGaussianBlur stdDeviation="8.5"/>
<feComposite in2="hardAlpha" operator="out"/>
<feColorMatrix type="matrix" values="0 0 0 0 0 0 0 0 0 0 0 0 0 0 0 0 0 0 0.07 0"/>
<feBlend mode="normal" in2="BackgroundImageFix" result="effect1_dropShadow_115_513"/>
<feBlend mode="normal" in="SourceGraphic" in2="effect1_dropShadow_115_513" result="shape"/>
</filter>
</defs>
</svg>
