<?xml version="1.0" encoding="utf-8" standalone="no"?>
<!DOCTYPE svg PUBLIC "-//W3C//DTD SVG 1.1//EN"
  "http://www.w3.org/Graphics/SVG/1.1/DTD/svg11.dtd">
<svg xmlns:xlink="http://www.w3.org/1999/xlink" width="510.621719pt" height="270.3875pt" viewBox="0 0 510.621719 270.3875" xmlns="http://www.w3.org/2000/svg" version="1.1">
 <metadata>
  <rdf:RDF xmlns:dc="http://purl.org/dc/elements/1.1/" xmlns:cc="http://creativecommons.org/ns#" xmlns:rdf="http://www.w3.org/1999/02/22-rdf-syntax-ns#">
   <cc:Work>
    <dc:type rdf:resource="http://purl.org/dc/dcmitype/StillImage"/>
    <dc:date>2023-08-21T13:28:06.283311</dc:date>
    <dc:format>image/svg+xml</dc:format>
    <dc:creator>
     <cc:Agent>
      <dc:title>Matplotlib v3.7.1, https://matplotlib.org/</dc:title>
     </cc:Agent>
    </dc:creator>
   </cc:Work>
  </rdf:RDF>
 </metadata>
 <defs>
  <style type="text/css">*{stroke-linejoin: round; stroke-linecap: butt}</style>
 </defs>
 <g id="figure_1">
  <g id="patch_1">
   <path d="M 0 270.3875 
L 510.621719 270.3875 
L 510.621719 0 
L 0 0 
L 0 270.3875 
z
" style="fill: none"/>
  </g>
  <g id="axes_1">
   <g id="patch_2">
    <path d="M 48.275 228.96 
L 494.675 228.96 
L 494.675 7.2 
L 48.275 7.2 
z
" style="fill: #fdfeff; fill-opacity: 0.6"/>
   </g>
   <g id="matplotlib.axis_1">
    <g id="xtick_1">
     <g id="line2d_1">
      <path d="M 48.275 228.96 
L 48.275 7.2 
" clip-path="url(#p103f58e484)" style="fill: none; stroke: #b0b0b0; stroke-opacity: 0.2; stroke-width: 0.8; stroke-linecap: square"/>
     </g>
     <g id="line2d_2">
      <defs>
       <path id="m3f7d6edf96" d="M 0 0 
L 0 4 
" style="stroke: #333333; stroke-width: 1.2"/>
      </defs>
      <g>
       <use xlink:href="#m3f7d6edf96" x="48.275" y="228.96" style="fill: #333333; stroke: #333333; stroke-width: 1.2"/>
      </g>
     </g>
     <g id="text_1">
      <!-- 0.0 -->
      <g style="fill: #333333" transform="translate(39.528281 244.318281) scale(0.11 -0.11)">
       <defs>
        <path id="DejaVuSans-30" d="M 2034 4250 
Q 1547 4250 1301 3770 
Q 1056 3291 1056 2328 
Q 1056 1369 1301 889 
Q 1547 409 2034 409 
Q 2525 409 2770 889 
Q 3016 1369 3016 2328 
Q 3016 3291 2770 3770 
Q 2525 4250 2034 4250 
z
M 2034 4750 
Q 2819 4750 3233 4129 
Q 3647 3509 3647 2328 
Q 3647 1150 3233 529 
Q 2819 -91 2034 -91 
Q 1250 -91 836 529 
Q 422 1150 422 2328 
Q 422 3509 836 4129 
Q 1250 4750 2034 4750 
z
" transform="scale(0.015625)"/>
        <path id="DejaVuSans-2e" d="M 684 794 
L 1344 794 
L 1344 0 
L 684 0 
L 684 794 
z
" transform="scale(0.015625)"/>
       </defs>
       <use xlink:href="#DejaVuSans-30"/>
       <use xlink:href="#DejaVuSans-2e" x="63.623047"/>
       <use xlink:href="#DejaVuSans-30" x="95.410156"/>
      </g>
     </g>
    </g>
    <g id="xtick_2">
     <g id="line2d_3">
      <path d="M 122.675 228.96 
L 122.675 7.2 
" clip-path="url(#p103f58e484)" style="fill: none; stroke: #b0b0b0; stroke-opacity: 0.2; stroke-width: 0.8; stroke-linecap: square"/>
     </g>
     <g id="line2d_4">
      <g>
       <use xlink:href="#m3f7d6edf96" x="122.675" y="228.96" style="fill: #333333; stroke: #333333; stroke-width: 1.2"/>
      </g>
     </g>
     <g id="text_2">
      <!-- 0.1 -->
      <g style="fill: #333333" transform="translate(113.928281 244.318281) scale(0.11 -0.11)">
       <defs>
        <path id="DejaVuSans-31" d="M 794 531 
L 1825 531 
L 1825 4091 
L 703 3866 
L 703 4441 
L 1819 4666 
L 2450 4666 
L 2450 531 
L 3481 531 
L 3481 0 
L 794 0 
L 794 531 
z
" transform="scale(0.015625)"/>
       </defs>
       <use xlink:href="#DejaVuSans-30"/>
       <use xlink:href="#DejaVuSans-2e" x="63.623047"/>
       <use xlink:href="#DejaVuSans-31" x="95.410156"/>
      </g>
     </g>
    </g>
    <g id="xtick_3">
     <g id="line2d_5">
      <path d="M 197.075 228.96 
L 197.075 7.2 
" clip-path="url(#p103f58e484)" style="fill: none; stroke: #b0b0b0; stroke-opacity: 0.2; stroke-width: 0.8; stroke-linecap: square"/>
     </g>
     <g id="line2d_6">
      <g>
       <use xlink:href="#m3f7d6edf96" x="197.075" y="228.96" style="fill: #333333; stroke: #333333; stroke-width: 1.2"/>
      </g>
     </g>
     <g id="text_3">
      <!-- 0.2 -->
      <g style="fill: #333333" transform="translate(188.328281 244.318281) scale(0.11 -0.11)">
       <defs>
        <path id="DejaVuSans-32" d="M 1228 531 
L 3431 531 
L 3431 0 
L 469 0 
L 469 531 
Q 828 903 1448 1529 
Q 2069 2156 2228 2338 
Q 2531 2678 2651 2914 
Q 2772 3150 2772 3378 
Q 2772 3750 2511 3984 
Q 2250 4219 1831 4219 
Q 1534 4219 1204 4116 
Q 875 4013 500 3803 
L 500 4441 
Q 881 4594 1212 4672 
Q 1544 4750 1819 4750 
Q 2544 4750 2975 4387 
Q 3406 4025 3406 3419 
Q 3406 3131 3298 2873 
Q 3191 2616 2906 2266 
Q 2828 2175 2409 1742 
Q 1991 1309 1228 531 
z
" transform="scale(0.015625)"/>
       </defs>
       <use xlink:href="#DejaVuSans-30"/>
       <use xlink:href="#DejaVuSans-2e" x="63.623047"/>
       <use xlink:href="#DejaVuSans-32" x="95.410156"/>
      </g>
     </g>
    </g>
    <g id="xtick_4">
     <g id="line2d_7">
      <path d="M 271.475 228.96 
L 271.475 7.2 
" clip-path="url(#p103f58e484)" style="fill: none; stroke: #b0b0b0; stroke-opacity: 0.2; stroke-width: 0.8; stroke-linecap: square"/>
     </g>
     <g id="line2d_8">
      <g>
       <use xlink:href="#m3f7d6edf96" x="271.475" y="228.96" style="fill: #333333; stroke: #333333; stroke-width: 1.2"/>
      </g>
     </g>
     <g id="text_4">
      <!-- 0.3 -->
      <g style="fill: #333333" transform="translate(262.728281 244.318281) scale(0.11 -0.11)">
       <defs>
        <path id="DejaVuSans-33" d="M 2597 2516 
Q 3050 2419 3304 2112 
Q 3559 1806 3559 1356 
Q 3559 666 3084 287 
Q 2609 -91 1734 -91 
Q 1441 -91 1130 -33 
Q 819 25 488 141 
L 488 750 
Q 750 597 1062 519 
Q 1375 441 1716 441 
Q 2309 441 2620 675 
Q 2931 909 2931 1356 
Q 2931 1769 2642 2001 
Q 2353 2234 1838 2234 
L 1294 2234 
L 1294 2753 
L 1863 2753 
Q 2328 2753 2575 2939 
Q 2822 3125 2822 3475 
Q 2822 3834 2567 4026 
Q 2313 4219 1838 4219 
Q 1578 4219 1281 4162 
Q 984 4106 628 3988 
L 628 4550 
Q 988 4650 1302 4700 
Q 1616 4750 1894 4750 
Q 2613 4750 3031 4423 
Q 3450 4097 3450 3541 
Q 3450 3153 3228 2886 
Q 3006 2619 2597 2516 
z
" transform="scale(0.015625)"/>
       </defs>
       <use xlink:href="#DejaVuSans-30"/>
       <use xlink:href="#DejaVuSans-2e" x="63.623047"/>
       <use xlink:href="#DejaVuSans-33" x="95.410156"/>
      </g>
     </g>
    </g>
    <g id="xtick_5">
     <g id="line2d_9">
      <path d="M 345.875 228.96 
L 345.875 7.2 
" clip-path="url(#p103f58e484)" style="fill: none; stroke: #b0b0b0; stroke-opacity: 0.2; stroke-width: 0.8; stroke-linecap: square"/>
     </g>
     <g id="line2d_10">
      <g>
       <use xlink:href="#m3f7d6edf96" x="345.875" y="228.96" style="fill: #333333; stroke: #333333; stroke-width: 1.2"/>
      </g>
     </g>
     <g id="text_5">
      <!-- 0.4 -->
      <g style="fill: #333333" transform="translate(337.128281 244.318281) scale(0.11 -0.11)">
       <defs>
        <path id="DejaVuSans-34" d="M 2419 4116 
L 825 1625 
L 2419 1625 
L 2419 4116 
z
M 2253 4666 
L 3047 4666 
L 3047 1625 
L 3713 1625 
L 3713 1100 
L 3047 1100 
L 3047 0 
L 2419 0 
L 2419 1100 
L 313 1100 
L 313 1709 
L 2253 4666 
z
" transform="scale(0.015625)"/>
       </defs>
       <use xlink:href="#DejaVuSans-30"/>
       <use xlink:href="#DejaVuSans-2e" x="63.623047"/>
       <use xlink:href="#DejaVuSans-34" x="95.410156"/>
      </g>
     </g>
    </g>
    <g id="xtick_6">
     <g id="line2d_11">
      <path d="M 420.275 228.96 
L 420.275 7.2 
" clip-path="url(#p103f58e484)" style="fill: none; stroke: #b0b0b0; stroke-opacity: 0.2; stroke-width: 0.8; stroke-linecap: square"/>
     </g>
     <g id="line2d_12">
      <g>
       <use xlink:href="#m3f7d6edf96" x="420.275" y="228.96" style="fill: #333333; stroke: #333333; stroke-width: 1.2"/>
      </g>
     </g>
     <g id="text_6">
      <!-- 0.5 -->
      <g style="fill: #333333" transform="translate(411.528281 244.318281) scale(0.11 -0.11)">
       <defs>
        <path id="DejaVuSans-35" d="M 691 4666 
L 3169 4666 
L 3169 4134 
L 1269 4134 
L 1269 2991 
Q 1406 3038 1543 3061 
Q 1681 3084 1819 3084 
Q 2600 3084 3056 2656 
Q 3513 2228 3513 1497 
Q 3513 744 3044 326 
Q 2575 -91 1722 -91 
Q 1428 -91 1123 -41 
Q 819 9 494 109 
L 494 744 
Q 775 591 1075 516 
Q 1375 441 1709 441 
Q 2250 441 2565 725 
Q 2881 1009 2881 1497 
Q 2881 1984 2565 2268 
Q 2250 2553 1709 2553 
Q 1456 2553 1204 2497 
Q 953 2441 691 2322 
L 691 4666 
z
" transform="scale(0.015625)"/>
       </defs>
       <use xlink:href="#DejaVuSans-30"/>
       <use xlink:href="#DejaVuSans-2e" x="63.623047"/>
       <use xlink:href="#DejaVuSans-35" x="95.410156"/>
      </g>
     </g>
    </g>
    <g id="xtick_7">
     <g id="line2d_13">
      <path d="M 494.675 228.96 
L 494.675 7.2 
" clip-path="url(#p103f58e484)" style="fill: none; stroke: #b0b0b0; stroke-opacity: 0.2; stroke-width: 0.8; stroke-linecap: square"/>
     </g>
     <g id="line2d_14">
      <g>
       <use xlink:href="#m3f7d6edf96" x="494.675" y="228.96" style="fill: #333333; stroke: #333333; stroke-width: 1.2"/>
      </g>
     </g>
     <g id="text_7">
      <!-- 0.6 -->
      <g style="fill: #333333" transform="translate(485.928281 244.318281) scale(0.11 -0.11)">
       <defs>
        <path id="DejaVuSans-36" d="M 2113 2584 
Q 1688 2584 1439 2293 
Q 1191 2003 1191 1497 
Q 1191 994 1439 701 
Q 1688 409 2113 409 
Q 2538 409 2786 701 
Q 3034 994 3034 1497 
Q 3034 2003 2786 2293 
Q 2538 2584 2113 2584 
z
M 3366 4563 
L 3366 3988 
Q 3128 4100 2886 4159 
Q 2644 4219 2406 4219 
Q 1781 4219 1451 3797 
Q 1122 3375 1075 2522 
Q 1259 2794 1537 2939 
Q 1816 3084 2150 3084 
Q 2853 3084 3261 2657 
Q 3669 2231 3669 1497 
Q 3669 778 3244 343 
Q 2819 -91 2113 -91 
Q 1303 -91 875 529 
Q 447 1150 447 2328 
Q 447 3434 972 4092 
Q 1497 4750 2381 4750 
Q 2619 4750 2861 4703 
Q 3103 4656 3366 4563 
z
" transform="scale(0.015625)"/>
       </defs>
       <use xlink:href="#DejaVuSans-30"/>
       <use xlink:href="#DejaVuSans-2e" x="63.623047"/>
       <use xlink:href="#DejaVuSans-36" x="95.410156"/>
      </g>
     </g>
    </g>
    <g id="text_8">
     <!-- Interferometer Power (W) -->
     <g style="fill: #333333" transform="translate(188.597969 260.483906) scale(0.13 -0.13)">
      <defs>
       <path id="DejaVuSans-49" d="M 628 4666 
L 1259 4666 
L 1259 0 
L 628 0 
L 628 4666 
z
" transform="scale(0.015625)"/>
       <path id="DejaVuSans-6e" d="M 3513 2113 
L 3513 0 
L 2938 0 
L 2938 2094 
Q 2938 2591 2744 2837 
Q 2550 3084 2163 3084 
Q 1697 3084 1428 2787 
Q 1159 2491 1159 1978 
L 1159 0 
L 581 0 
L 581 3500 
L 1159 3500 
L 1159 2956 
Q 1366 3272 1645 3428 
Q 1925 3584 2291 3584 
Q 2894 3584 3203 3211 
Q 3513 2838 3513 2113 
z
" transform="scale(0.015625)"/>
       <path id="DejaVuSans-74" d="M 1172 4494 
L 1172 3500 
L 2356 3500 
L 2356 3053 
L 1172 3053 
L 1172 1153 
Q 1172 725 1289 603 
Q 1406 481 1766 481 
L 2356 481 
L 2356 0 
L 1766 0 
Q 1100 0 847 248 
Q 594 497 594 1153 
L 594 3053 
L 172 3053 
L 172 3500 
L 594 3500 
L 594 4494 
L 1172 4494 
z
" transform="scale(0.015625)"/>
       <path id="DejaVuSans-65" d="M 3597 1894 
L 3597 1613 
L 953 1613 
Q 991 1019 1311 708 
Q 1631 397 2203 397 
Q 2534 397 2845 478 
Q 3156 559 3463 722 
L 3463 178 
Q 3153 47 2828 -22 
Q 2503 -91 2169 -91 
Q 1331 -91 842 396 
Q 353 884 353 1716 
Q 353 2575 817 3079 
Q 1281 3584 2069 3584 
Q 2775 3584 3186 3129 
Q 3597 2675 3597 1894 
z
M 3022 2063 
Q 3016 2534 2758 2815 
Q 2500 3097 2075 3097 
Q 1594 3097 1305 2825 
Q 1016 2553 972 2059 
L 3022 2063 
z
" transform="scale(0.015625)"/>
       <path id="DejaVuSans-72" d="M 2631 2963 
Q 2534 3019 2420 3045 
Q 2306 3072 2169 3072 
Q 1681 3072 1420 2755 
Q 1159 2438 1159 1844 
L 1159 0 
L 581 0 
L 581 3500 
L 1159 3500 
L 1159 2956 
Q 1341 3275 1631 3429 
Q 1922 3584 2338 3584 
Q 2397 3584 2469 3576 
Q 2541 3569 2628 3553 
L 2631 2963 
z
" transform="scale(0.015625)"/>
       <path id="DejaVuSans-66" d="M 2375 4863 
L 2375 4384 
L 1825 4384 
Q 1516 4384 1395 4259 
Q 1275 4134 1275 3809 
L 1275 3500 
L 2222 3500 
L 2222 3053 
L 1275 3053 
L 1275 0 
L 697 0 
L 697 3053 
L 147 3053 
L 147 3500 
L 697 3500 
L 697 3744 
Q 697 4328 969 4595 
Q 1241 4863 1831 4863 
L 2375 4863 
z
" transform="scale(0.015625)"/>
       <path id="DejaVuSans-6f" d="M 1959 3097 
Q 1497 3097 1228 2736 
Q 959 2375 959 1747 
Q 959 1119 1226 758 
Q 1494 397 1959 397 
Q 2419 397 2687 759 
Q 2956 1122 2956 1747 
Q 2956 2369 2687 2733 
Q 2419 3097 1959 3097 
z
M 1959 3584 
Q 2709 3584 3137 3096 
Q 3566 2609 3566 1747 
Q 3566 888 3137 398 
Q 2709 -91 1959 -91 
Q 1206 -91 779 398 
Q 353 888 353 1747 
Q 353 2609 779 3096 
Q 1206 3584 1959 3584 
z
" transform="scale(0.015625)"/>
       <path id="DejaVuSans-6d" d="M 3328 2828 
Q 3544 3216 3844 3400 
Q 4144 3584 4550 3584 
Q 5097 3584 5394 3201 
Q 5691 2819 5691 2113 
L 5691 0 
L 5113 0 
L 5113 2094 
Q 5113 2597 4934 2840 
Q 4756 3084 4391 3084 
Q 3944 3084 3684 2787 
Q 3425 2491 3425 1978 
L 3425 0 
L 2847 0 
L 2847 2094 
Q 2847 2600 2669 2842 
Q 2491 3084 2119 3084 
Q 1678 3084 1418 2786 
Q 1159 2488 1159 1978 
L 1159 0 
L 581 0 
L 581 3500 
L 1159 3500 
L 1159 2956 
Q 1356 3278 1631 3431 
Q 1906 3584 2284 3584 
Q 2666 3584 2933 3390 
Q 3200 3197 3328 2828 
z
" transform="scale(0.015625)"/>
       <path id="DejaVuSans-20" transform="scale(0.015625)"/>
       <path id="DejaVuSans-50" d="M 1259 4147 
L 1259 2394 
L 2053 2394 
Q 2494 2394 2734 2622 
Q 2975 2850 2975 3272 
Q 2975 3691 2734 3919 
Q 2494 4147 2053 4147 
L 1259 4147 
z
M 628 4666 
L 2053 4666 
Q 2838 4666 3239 4311 
Q 3641 3956 3641 3272 
Q 3641 2581 3239 2228 
Q 2838 1875 2053 1875 
L 1259 1875 
L 1259 0 
L 628 0 
L 628 4666 
z
" transform="scale(0.015625)"/>
       <path id="DejaVuSans-77" d="M 269 3500 
L 844 3500 
L 1563 769 
L 2278 3500 
L 2956 3500 
L 3675 769 
L 4391 3500 
L 4966 3500 
L 4050 0 
L 3372 0 
L 2619 2869 
L 1863 0 
L 1184 0 
L 269 3500 
z
" transform="scale(0.015625)"/>
       <path id="DejaVuSans-28" d="M 1984 4856 
Q 1566 4138 1362 3434 
Q 1159 2731 1159 2009 
Q 1159 1288 1364 580 
Q 1569 -128 1984 -844 
L 1484 -844 
Q 1016 -109 783 600 
Q 550 1309 550 2009 
Q 550 2706 781 3412 
Q 1013 4119 1484 4856 
L 1984 4856 
z
" transform="scale(0.015625)"/>
       <path id="DejaVuSans-57" d="M 213 4666 
L 850 4666 
L 1831 722 
L 2809 4666 
L 3519 4666 
L 4500 722 
L 5478 4666 
L 6119 4666 
L 4947 0 
L 4153 0 
L 3169 4050 
L 2175 0 
L 1381 0 
L 213 4666 
z
" transform="scale(0.015625)"/>
       <path id="DejaVuSans-29" d="M 513 4856 
L 1013 4856 
Q 1481 4119 1714 3412 
Q 1947 2706 1947 2009 
Q 1947 1309 1714 600 
Q 1481 -109 1013 -844 
L 513 -844 
Q 928 -128 1133 580 
Q 1338 1288 1338 2009 
Q 1338 2731 1133 3434 
Q 928 4138 513 4856 
z
" transform="scale(0.015625)"/>
      </defs>
      <use xlink:href="#DejaVuSans-49"/>
      <use xlink:href="#DejaVuSans-6e" x="29.492188"/>
      <use xlink:href="#DejaVuSans-74" x="92.871094"/>
      <use xlink:href="#DejaVuSans-65" x="132.080078"/>
      <use xlink:href="#DejaVuSans-72" x="193.603516"/>
      <use xlink:href="#DejaVuSans-66" x="234.716797"/>
      <use xlink:href="#DejaVuSans-65" x="269.921875"/>
      <use xlink:href="#DejaVuSans-72" x="331.445312"/>
      <use xlink:href="#DejaVuSans-6f" x="370.308594"/>
      <use xlink:href="#DejaVuSans-6d" x="431.490234"/>
      <use xlink:href="#DejaVuSans-65" x="528.902344"/>
      <use xlink:href="#DejaVuSans-74" x="590.425781"/>
      <use xlink:href="#DejaVuSans-65" x="629.634766"/>
      <use xlink:href="#DejaVuSans-72" x="691.158203"/>
      <use xlink:href="#DejaVuSans-20" x="732.271484"/>
      <use xlink:href="#DejaVuSans-50" x="764.058594"/>
      <use xlink:href="#DejaVuSans-6f" x="820.736328"/>
      <use xlink:href="#DejaVuSans-77" x="881.917969"/>
      <use xlink:href="#DejaVuSans-65" x="963.705078"/>
      <use xlink:href="#DejaVuSans-72" x="1025.228516"/>
      <use xlink:href="#DejaVuSans-20" x="1066.341797"/>
      <use xlink:href="#DejaVuSans-28" x="1098.128906"/>
      <use xlink:href="#DejaVuSans-57" x="1137.142578"/>
      <use xlink:href="#DejaVuSans-29" x="1236.019531"/>
     </g>
    </g>
   </g>
   <g id="matplotlib.axis_2">
    <g id="ytick_1">
     <g id="line2d_15">
      <path d="M 48.275 223.914646 
L 494.675 223.914646 
" clip-path="url(#p103f58e484)" style="fill: none; stroke: #b0b0b0; stroke-opacity: 0.2; stroke-width: 0.8; stroke-linecap: square"/>
     </g>
     <g id="line2d_16">
      <defs>
       <path id="m428638e69a" d="M 0 0 
L -4 0 
" style="stroke: #333333; stroke-width: 1.2"/>
      </defs>
      <g>
       <use xlink:href="#m428638e69a" x="48.275" y="223.914646" style="fill: #333333; stroke: #333333; stroke-width: 1.2"/>
      </g>
     </g>
     <g id="text_9">
      <!-- 0.0 -->
      <g style="fill: #333333" transform="translate(23.781563 228.093786) scale(0.11 -0.11)">
       <use xlink:href="#DejaVuSans-30"/>
       <use xlink:href="#DejaVuSans-2e" x="63.623047"/>
       <use xlink:href="#DejaVuSans-30" x="95.410156"/>
      </g>
     </g>
    </g>
    <g id="ytick_2">
     <g id="line2d_17">
      <path d="M 48.275 182.819073 
L 494.675 182.819073 
" clip-path="url(#p103f58e484)" style="fill: none; stroke: #b0b0b0; stroke-opacity: 0.2; stroke-width: 0.8; stroke-linecap: square"/>
     </g>
     <g id="line2d_18">
      <g>
       <use xlink:href="#m428638e69a" x="48.275" y="182.819073" style="fill: #333333; stroke: #333333; stroke-width: 1.2"/>
      </g>
     </g>
     <g id="text_10">
      <!-- 0.2 -->
      <g style="fill: #333333" transform="translate(23.781563 186.998214) scale(0.11 -0.11)">
       <use xlink:href="#DejaVuSans-30"/>
       <use xlink:href="#DejaVuSans-2e" x="63.623047"/>
       <use xlink:href="#DejaVuSans-32" x="95.410156"/>
      </g>
     </g>
    </g>
    <g id="ytick_3">
     <g id="line2d_19">
      <path d="M 48.275 141.723501 
L 494.675 141.723501 
" clip-path="url(#p103f58e484)" style="fill: none; stroke: #b0b0b0; stroke-opacity: 0.2; stroke-width: 0.8; stroke-linecap: square"/>
     </g>
     <g id="line2d_20">
      <g>
       <use xlink:href="#m428638e69a" x="48.275" y="141.723501" style="fill: #333333; stroke: #333333; stroke-width: 1.2"/>
      </g>
     </g>
     <g id="text_11">
      <!-- 0.4 -->
      <g style="fill: #333333" transform="translate(23.781563 145.902642) scale(0.11 -0.11)">
       <use xlink:href="#DejaVuSans-30"/>
       <use xlink:href="#DejaVuSans-2e" x="63.623047"/>
       <use xlink:href="#DejaVuSans-34" x="95.410156"/>
      </g>
     </g>
    </g>
    <g id="ytick_4">
     <g id="line2d_21">
      <path d="M 48.275 100.627929 
L 494.675 100.627929 
" clip-path="url(#p103f58e484)" style="fill: none; stroke: #b0b0b0; stroke-opacity: 0.2; stroke-width: 0.8; stroke-linecap: square"/>
     </g>
     <g id="line2d_22">
      <g>
       <use xlink:href="#m428638e69a" x="48.275" y="100.627929" style="fill: #333333; stroke: #333333; stroke-width: 1.2"/>
      </g>
     </g>
     <g id="text_12">
      <!-- 0.6 -->
      <g style="fill: #333333" transform="translate(23.781563 104.80707) scale(0.11 -0.11)">
       <use xlink:href="#DejaVuSans-30"/>
       <use xlink:href="#DejaVuSans-2e" x="63.623047"/>
       <use xlink:href="#DejaVuSans-36" x="95.410156"/>
      </g>
     </g>
    </g>
    <g id="ytick_5">
     <g id="line2d_23">
      <path d="M 48.275 59.532357 
L 494.675 59.532357 
" clip-path="url(#p103f58e484)" style="fill: none; stroke: #b0b0b0; stroke-opacity: 0.2; stroke-width: 0.8; stroke-linecap: square"/>
     </g>
     <g id="line2d_24">
      <g>
       <use xlink:href="#m428638e69a" x="48.275" y="59.532357" style="fill: #333333; stroke: #333333; stroke-width: 1.2"/>
      </g>
     </g>
     <g id="text_13">
      <!-- 0.8 -->
      <g style="fill: #333333" transform="translate(23.781563 63.711498) scale(0.11 -0.11)">
       <defs>
        <path id="DejaVuSans-38" d="M 2034 2216 
Q 1584 2216 1326 1975 
Q 1069 1734 1069 1313 
Q 1069 891 1326 650 
Q 1584 409 2034 409 
Q 2484 409 2743 651 
Q 3003 894 3003 1313 
Q 3003 1734 2745 1975 
Q 2488 2216 2034 2216 
z
M 1403 2484 
Q 997 2584 770 2862 
Q 544 3141 544 3541 
Q 544 4100 942 4425 
Q 1341 4750 2034 4750 
Q 2731 4750 3128 4425 
Q 3525 4100 3525 3541 
Q 3525 3141 3298 2862 
Q 3072 2584 2669 2484 
Q 3125 2378 3379 2068 
Q 3634 1759 3634 1313 
Q 3634 634 3220 271 
Q 2806 -91 2034 -91 
Q 1263 -91 848 271 
Q 434 634 434 1313 
Q 434 1759 690 2068 
Q 947 2378 1403 2484 
z
M 1172 3481 
Q 1172 3119 1398 2916 
Q 1625 2713 2034 2713 
Q 2441 2713 2670 2916 
Q 2900 3119 2900 3481 
Q 2900 3844 2670 4047 
Q 2441 4250 2034 4250 
Q 1625 4250 1398 4047 
Q 1172 3844 1172 3481 
z
" transform="scale(0.015625)"/>
       </defs>
       <use xlink:href="#DejaVuSans-30"/>
       <use xlink:href="#DejaVuSans-2e" x="63.623047"/>
       <use xlink:href="#DejaVuSans-38" x="95.410156"/>
      </g>
     </g>
    </g>
    <g id="ytick_6">
     <g id="line2d_25">
      <path d="M 48.275 18.436785 
L 494.675 18.436785 
" clip-path="url(#p103f58e484)" style="fill: none; stroke: #b0b0b0; stroke-opacity: 0.2; stroke-width: 0.8; stroke-linecap: square"/>
     </g>
     <g id="line2d_26">
      <g>
       <use xlink:href="#m428638e69a" x="48.275" y="18.436785" style="fill: #333333; stroke: #333333; stroke-width: 1.2"/>
      </g>
     </g>
     <g id="text_14">
      <!-- 1.0 -->
      <g style="fill: #333333" transform="translate(23.781563 22.615925) scale(0.11 -0.11)">
       <use xlink:href="#DejaVuSans-31"/>
       <use xlink:href="#DejaVuSans-2e" x="63.623047"/>
       <use xlink:href="#DejaVuSans-30" x="95.410156"/>
      </g>
     </g>
    </g>
    <g id="text_15">
     <!-- Normalized Counts -->
     <g style="fill: #333333" transform="translate(17.077969 179.696953) rotate(-90) scale(0.13 -0.13)">
      <defs>
       <path id="DejaVuSans-4e" d="M 628 4666 
L 1478 4666 
L 3547 763 
L 3547 4666 
L 4159 4666 
L 4159 0 
L 3309 0 
L 1241 3903 
L 1241 0 
L 628 0 
L 628 4666 
z
" transform="scale(0.015625)"/>
       <path id="DejaVuSans-61" d="M 2194 1759 
Q 1497 1759 1228 1600 
Q 959 1441 959 1056 
Q 959 750 1161 570 
Q 1363 391 1709 391 
Q 2188 391 2477 730 
Q 2766 1069 2766 1631 
L 2766 1759 
L 2194 1759 
z
M 3341 1997 
L 3341 0 
L 2766 0 
L 2766 531 
Q 2569 213 2275 61 
Q 1981 -91 1556 -91 
Q 1019 -91 701 211 
Q 384 513 384 1019 
Q 384 1609 779 1909 
Q 1175 2209 1959 2209 
L 2766 2209 
L 2766 2266 
Q 2766 2663 2505 2880 
Q 2244 3097 1772 3097 
Q 1472 3097 1187 3025 
Q 903 2953 641 2809 
L 641 3341 
Q 956 3463 1253 3523 
Q 1550 3584 1831 3584 
Q 2591 3584 2966 3190 
Q 3341 2797 3341 1997 
z
" transform="scale(0.015625)"/>
       <path id="DejaVuSans-6c" d="M 603 4863 
L 1178 4863 
L 1178 0 
L 603 0 
L 603 4863 
z
" transform="scale(0.015625)"/>
       <path id="DejaVuSans-69" d="M 603 3500 
L 1178 3500 
L 1178 0 
L 603 0 
L 603 3500 
z
M 603 4863 
L 1178 4863 
L 1178 4134 
L 603 4134 
L 603 4863 
z
" transform="scale(0.015625)"/>
       <path id="DejaVuSans-7a" d="M 353 3500 
L 3084 3500 
L 3084 2975 
L 922 459 
L 3084 459 
L 3084 0 
L 275 0 
L 275 525 
L 2438 3041 
L 353 3041 
L 353 3500 
z
" transform="scale(0.015625)"/>
       <path id="DejaVuSans-64" d="M 2906 2969 
L 2906 4863 
L 3481 4863 
L 3481 0 
L 2906 0 
L 2906 525 
Q 2725 213 2448 61 
Q 2172 -91 1784 -91 
Q 1150 -91 751 415 
Q 353 922 353 1747 
Q 353 2572 751 3078 
Q 1150 3584 1784 3584 
Q 2172 3584 2448 3432 
Q 2725 3281 2906 2969 
z
M 947 1747 
Q 947 1113 1208 752 
Q 1469 391 1925 391 
Q 2381 391 2643 752 
Q 2906 1113 2906 1747 
Q 2906 2381 2643 2742 
Q 2381 3103 1925 3103 
Q 1469 3103 1208 2742 
Q 947 2381 947 1747 
z
" transform="scale(0.015625)"/>
       <path id="DejaVuSans-43" d="M 4122 4306 
L 4122 3641 
Q 3803 3938 3442 4084 
Q 3081 4231 2675 4231 
Q 1875 4231 1450 3742 
Q 1025 3253 1025 2328 
Q 1025 1406 1450 917 
Q 1875 428 2675 428 
Q 3081 428 3442 575 
Q 3803 722 4122 1019 
L 4122 359 
Q 3791 134 3420 21 
Q 3050 -91 2638 -91 
Q 1578 -91 968 557 
Q 359 1206 359 2328 
Q 359 3453 968 4101 
Q 1578 4750 2638 4750 
Q 3056 4750 3426 4639 
Q 3797 4528 4122 4306 
z
" transform="scale(0.015625)"/>
       <path id="DejaVuSans-75" d="M 544 1381 
L 544 3500 
L 1119 3500 
L 1119 1403 
Q 1119 906 1312 657 
Q 1506 409 1894 409 
Q 2359 409 2629 706 
Q 2900 1003 2900 1516 
L 2900 3500 
L 3475 3500 
L 3475 0 
L 2900 0 
L 2900 538 
Q 2691 219 2414 64 
Q 2138 -91 1772 -91 
Q 1169 -91 856 284 
Q 544 659 544 1381 
z
M 1991 3584 
L 1991 3584 
z
" transform="scale(0.015625)"/>
       <path id="DejaVuSans-73" d="M 2834 3397 
L 2834 2853 
Q 2591 2978 2328 3040 
Q 2066 3103 1784 3103 
Q 1356 3103 1142 2972 
Q 928 2841 928 2578 
Q 928 2378 1081 2264 
Q 1234 2150 1697 2047 
L 1894 2003 
Q 2506 1872 2764 1633 
Q 3022 1394 3022 966 
Q 3022 478 2636 193 
Q 2250 -91 1575 -91 
Q 1294 -91 989 -36 
Q 684 19 347 128 
L 347 722 
Q 666 556 975 473 
Q 1284 391 1588 391 
Q 1994 391 2212 530 
Q 2431 669 2431 922 
Q 2431 1156 2273 1281 
Q 2116 1406 1581 1522 
L 1381 1569 
Q 847 1681 609 1914 
Q 372 2147 372 2553 
Q 372 3047 722 3315 
Q 1072 3584 1716 3584 
Q 2034 3584 2315 3537 
Q 2597 3491 2834 3397 
z
" transform="scale(0.015625)"/>
      </defs>
      <use xlink:href="#DejaVuSans-4e"/>
      <use xlink:href="#DejaVuSans-6f" x="74.804688"/>
      <use xlink:href="#DejaVuSans-72" x="135.986328"/>
      <use xlink:href="#DejaVuSans-6d" x="175.349609"/>
      <use xlink:href="#DejaVuSans-61" x="272.761719"/>
      <use xlink:href="#DejaVuSans-6c" x="334.041016"/>
      <use xlink:href="#DejaVuSans-69" x="361.824219"/>
      <use xlink:href="#DejaVuSans-7a" x="389.607422"/>
      <use xlink:href="#DejaVuSans-65" x="442.097656"/>
      <use xlink:href="#DejaVuSans-64" x="503.621094"/>
      <use xlink:href="#DejaVuSans-20" x="567.097656"/>
      <use xlink:href="#DejaVuSans-43" x="598.884766"/>
      <use xlink:href="#DejaVuSans-6f" x="668.708984"/>
      <use xlink:href="#DejaVuSans-75" x="729.890625"/>
      <use xlink:href="#DejaVuSans-6e" x="793.269531"/>
      <use xlink:href="#DejaVuSans-74" x="856.648438"/>
      <use xlink:href="#DejaVuSans-73" x="895.857422"/>
     </g>
    </g>
   </g>
   <g id="PolyCollection_1">
    <defs>
     <path id="m431064ed16" d="M 46.903064 -255.453391 
L 46.903064 -246.638653 
L 49.300232 -242.431047 
L 51.72716 -244.405985 
L 54.183848 -246.358688 
L 56.670296 -240.454973 
L 59.186504 -241.300882 
L 61.732472 -236.938381 
L 64.3082 -237.943172 
L 66.913688 -236.776861 
L 69.548936 -229.472854 
L 72.213944 -230.936717 
L 74.908712 -228.608708 
L 77.77088 -222.981999 
L 80.387528 -222.198959 
L 83.171576 -219.452465 
L 85.985384 -215.163561 
L 88.828952 -211.142643 
L 91.70228 -203.915617 
L 94.605368 -197.358708 
L 97.538216 -192.172099 
L 100.35128 -189.444753 
L 103.34216 -178.908545 
L 106.51532 -175.228987 
L 109.4132 -169.038155 
L 112.49336 -163.287983 
L 115.60328 -154.812796 
L 118.74296 -148.81371 
L 121.9124 -143.271978 
L 125.1116 -137.439055 
L 128.503496 -128.54161 
L 131.763704 -122.929669 
L 135.053672 -115.220871 
L 138.3734 -108.088481 
L 141.722888 -101.843802 
L 144.93176 -96.889468 
L 148.33928 -90.224012 
L 151.77656 -84.031882 
L 155.2436 -79.169958 
L 158.7404 -73.216564 
L 162.26696 -68.82413 
L 165.82328 -64.324697 
L 169.40936 -59.873963 
L 173.0252 -56.755549 
L 176.6708 -53.565215 
L 180.34616 -51.160756 
L 184.05128 -49.632887 
L 187.597928 -48.422681 
L 191.5508 -47.745111 
L 195.153992 -47.703726 
L 198.976664 -48.3097 
L 202.829096 -49.695816 
L 206.711288 -51.732154 
L 210.62324 -54.319075 
L 214.564952 -57.126166 
L 218.536424 -61.523381 
L 222.537656 -65.287487 
L 226.568648 -71.14787 
L 230.6294 -77.761114 
L 234.719912 -83.964587 
L 238.840184 -91.521767 
L 242.990216 -97.60201 
L 247.170008 -107.3491 
L 251.37956 -114.863429 
L 255.618872 -123.737063 
L 259.887944 -135.415956 
L 264.186776 -142.395753 
L 268.515368 -153.479033 
L 272.87372 -162.605046 
L 277.261832 -168.255947 
L 281.679704 -179.599914 
L 286.127336 -188.284376 
L 290.604728 -195.530668 
L 295.11188 -202.389481 
L 299.420384 -210.332858 
L 303.985568 -217.136052 
L 308.580512 -222.850896 
L 313.205216 -231.878897 
L 317.85968 -233.972759 
L 322.543904 -238.043917 
L 327.257888 -241.864507 
L 332.001632 -241.065349 
L 336.775136 -242.205922 
L 341.3366 -242.414597 
L 346.168136 -241.134777 
L 351.029432 -240.551768 
L 355.920488 -237.442194 
L 360.841304 -230.017876 
L 365.79188 -227.718033 
L 370.521488 -217.67795 
L 375.530096 -208.824645 
L 380.568464 -203.066544 
L 385.636592 -192.359993 
L 390.73448 -180.6952 
L 395.862128 -172.913821 
L 400.75988 -162.379409 
L 405.94556 -152.855252 
L 411.161 -139.250354 
L 416.4062 -129.378246 
L 421.68116 -118.253011 
L 426.98588 -106.032318 
L 432.32036 -95.840183 
L 437.6846 -86.5924 
L 443.0786 -76.911613 
L 448.50236 -68.7039 
L 453.95588 -61.521169 
L 459.43916 -56.656668 
L 464.9522 -51.937851 
L 470.495 -49.398898 
L 476.06756 -48.18774 
L 481.66988 -47.78988 
L 487.30196 -49.21693 
L 492.9638 -52.137518 
L 498.6554 -56.825657 
L 504.088832 -62.232172 
L 509.838464 -69.323214 
L 515.90876 -78.30279 
L 521.427008 -88.190062 
L 527.26592 -100.458257 
L 533.134592 -110.116319 
L 539.033024 -122.872345 
L 539.033024 -128.354929 
L 539.033024 -128.354929 
L 533.134592 -115.128757 
L 527.26592 -105.082381 
L 521.427008 -92.266694 
L 515.90876 -81.876026 
L 509.838464 -72.36569 
L 504.088832 -64.775515 
L 498.6554 -58.905843 
L 492.9638 -53.702346 
L 487.30196 -50.33719 
L 481.66988 -48.598444 
L 476.06756 -49.095314 
L 470.495 -50.552325 
L 464.9522 -53.476651 
L 459.43916 -58.720622 
L 453.95588 -64.008729 
L 448.50236 -71.7062 
L 443.0786 -80.408045 
L 437.6846 -90.592088 
L 432.32036 -100.266347 
L 426.98588 -110.884423 
L 421.68116 -123.570231 
L 416.4062 -135.08547 
L 411.161 -145.282238 
L 405.94556 -159.307442 
L 400.75988 -169.110014 
L 395.862128 -179.939357 
L 390.73448 -187.930772 
L 385.636592 -199.899332 
L 380.568464 -210.874174 
L 375.530096 -216.772775 
L 370.521488 -225.83733 
L 365.79188 -236.110476 
L 360.841304 -238.462791 
L 355.920488 -246.054289 
L 351.029432 -249.232918 
L 346.168136 -249.828812 
L 341.3366 -251.136849 
L 336.775136 -250.92358 
L 332.001632 -249.75785 
L 327.257888 -250.574642 
L 322.543904 -246.669419 
L 317.85968 -242.507142 
L 313.205216 -240.36603 
L 308.580512 -231.131186 
L 303.985568 -225.282662 
L 299.420384 -218.317376 
L 295.11188 -210.180422 
L 290.604728 -203.150458 
L 286.127336 -195.71901 
L 281.679704 -186.806297 
L 277.261832 -175.152654 
L 272.87372 -169.342104 
L 268.515368 -159.949831 
L 264.186776 -148.527412 
L 259.887944 -141.323894 
L 255.618872 -129.250041 
L 251.37956 -120.055898 
L 247.170008 -112.253484 
L 242.990216 -102.104746 
L 238.840184 -95.754254 
L 234.719912 -87.834308 
L 230.6294 -81.304648 
L 226.568648 -74.305651 
L 222.537656 -68.057335 
L 218.536424 -64.011116 
L 214.564952 -59.234893 
L 210.62324 -56.142934 
L 206.711288 -53.243641 
L 202.829096 -50.901238 
L 198.976664 -49.245292 
L 195.153992 -48.488982 
L 191.5508 -48.54166 
L 187.597928 -49.383421 
L 184.05128 -50.827494 
L 180.34616 -52.593448 
L 176.6708 -55.304185 
L 173.0252 -58.829016 
L 169.40936 -62.226999 
L 165.82328 -67.025295 
L 162.26696 -71.834273 
L 158.7404 -76.500033 
L 155.2436 -82.790221 
L 151.77656 -87.904988 
L 148.33928 -94.3965 
L 144.93176 -101.361397 
L 141.722888 -106.525654 
L 138.3734 -113.021972 
L 135.053672 -120.426639 
L 131.763704 -128.414272 
L 128.503496 -134.220453 
L 125.1116 -143.412715 
L 121.9124 -149.431138 
L 118.74296 -155.144001 
L 115.60328 -161.323197 
L 112.49336 -170.044539 
L 109.4132 -175.956667 
L 106.51532 -182.317674 
L 103.34216 -186.096443 
L 100.35128 -196.909349 
L 97.538216 -199.706645 
L 94.605368 -205.024492 
L 91.70228 -211.744125 
L 88.828952 -219.146628 
L 85.985384 -223.263512 
L 83.171576 -227.653525 
L 80.387528 -230.46411 
L 77.77088 -231.26533 
L 74.908712 -237.021512 
L 72.213944 -239.402503 
L 69.548936 -237.905364 
L 66.913688 -245.374108 
L 64.3082 -246.56643 
L 61.732472 -245.539235 
L 59.186504 -249.998584 
L 56.670296 -249.133981 
L 54.183848 -255.167326 
L 51.72716 -253.171962 
L 49.300232 -251.153662 
L 46.903064 -255.453391 
z
" style="stroke: #7292c7; stroke-opacity: 0.3; stroke-width: 0.25"/>
    </defs>
    <g clip-path="url(#p103f58e484)">
     <use xlink:href="#m431064ed16" x="0" y="270.3875" style="fill: #7292c7; fill-opacity: 0.3; stroke: #7292c7; stroke-opacity: 0.3; stroke-width: 0.25"/>
    </g>
   </g>
   <g id="PolyCollection_2">
    <defs>
     <path id="m3fede16d7f" d="M 46.903064 -49.784438 
L 46.903064 -48.639019 
L 49.300232 -48.729269 
L 51.72716 -48.707552 
L 54.183848 -49.357491 
L 56.670296 -50.132029 
L 59.186504 -51.336847 
L 61.732472 -52.940195 
L 64.3082 -54.709742 
L 66.913688 -56.170576 
L 69.548936 -58.709832 
L 72.213944 -61.401579 
L 74.908712 -64.396455 
L 77.77088 -67.133292 
L 80.387528 -70.73236 
L 83.171576 -76.001497 
L 85.985384 -80.175196 
L 88.828952 -82.68563 
L 91.70228 -88.840552 
L 94.605368 -93.230439 
L 97.538216 -98.904353 
L 100.35128 -103.887961 
L 103.34216 -111.192852 
L 106.51532 -116.933974 
L 109.4132 -120.298757 
L 112.49336 -127.370841 
L 115.60328 -136.881602 
L 118.74296 -141.88662 
L 121.9124 -146.71072 
L 125.1116 -154.094603 
L 128.503496 -162.630427 
L 131.763704 -168.862983 
L 135.053672 -176.76288 
L 138.3734 -181.946893 
L 141.722888 -189.775306 
L 144.93176 -192.077247 
L 148.33928 -200.426765 
L 151.77656 -209.329091 
L 155.2436 -211.281598 
L 158.7404 -219.261777 
L 162.26696 -220.825683 
L 165.82328 -224.395268 
L 169.40936 -232.42265 
L 173.0252 -230.926218 
L 176.6708 -232.830575 
L 180.34616 -240.279161 
L 184.05128 -242.211411 
L 187.597928 -242.375502 
L 191.5508 -241.204723 
L 195.153992 -242.033447 
L 198.976664 -246.990157 
L 202.829096 -239.966389 
L 206.711288 -239.506471 
L 210.62324 -236.900953 
L 214.564952 -232.949603 
L 218.536424 -228.766606 
L 222.537656 -224.361777 
L 226.568648 -216.044904 
L 230.6294 -213.98943 
L 234.719912 -204.661923 
L 238.840184 -199.196455 
L 242.990216 -193.428113 
L 247.170008 -183.195476 
L 251.37956 -176.276149 
L 255.618872 -166.543576 
L 259.887944 -155.555507 
L 264.186776 -146.297348 
L 268.515368 -138.098152 
L 272.87372 -128.163823 
L 277.261832 -119.297108 
L 281.679704 -110.142114 
L 286.127336 -102.366961 
L 290.604728 -94.379111 
L 295.11188 -84.757527 
L 299.420384 -79.26802 
L 303.985568 -71.964133 
L 308.580512 -65.889878 
L 313.205216 -61.265522 
L 317.85968 -56.620494 
L 322.543904 -53.152312 
L 327.257888 -50.215833 
L 332.001632 -48.930994 
L 336.775136 -48.467336 
L 341.3366 -49.162634 
L 346.168136 -50.33776 
L 351.029432 -52.613098 
L 355.920488 -56.487521 
L 360.841304 -61.310748 
L 365.79188 -66.397882 
L 370.521488 -72.964313 
L 375.530096 -80.847418 
L 380.568464 -88.363045 
L 385.636592 -97.52891 
L 390.73448 -107.189627 
L 395.862128 -117.731805 
L 400.75988 -127.505755 
L 405.94556 -137.402802 
L 411.161 -149.340366 
L 416.4062 -160.265296 
L 421.68116 -175.023115 
L 426.98588 -182.214989 
L 432.32036 -194.048716 
L 437.6846 -201.89706 
L 443.0786 -212.979808 
L 448.50236 -222.685296 
L 453.95588 -227.398122 
L 459.43916 -235.111003 
L 464.9522 -238.414383 
L 470.495 -240.061447 
L 476.06756 -241.606492 
L 481.66988 -239.776218 
L 487.30196 -238.50312 
L 492.9638 -236.338655 
L 498.6554 -230.119383 
L 504.088832 -226.132201 
L 509.838464 -217.841472 
L 515.90876 -208.03485 
L 521.427008 -201.474307 
L 527.26592 -189.215201 
L 533.134592 -177.458945 
L 539.033024 -161.490342 
L 539.033024 -169.033731 
L 539.033024 -169.033731 
L 533.134592 -185.500799 
L 527.26592 -197.604852 
L 521.427008 -210.211693 
L 515.90876 -216.952685 
L 509.838464 -227.022342 
L 504.088832 -235.529631 
L 498.6554 -239.619181 
L 492.9638 -245.995935 
L 487.30196 -248.2146 
L 481.66988 -249.519437 
L 476.06756 -251.395156 
L 470.495 -249.811762 
L 464.9522 -248.123648 
L 459.43916 -244.737403 
L 453.95588 -236.828176 
L 448.50236 -231.99331 
L 443.0786 -222.031246 
L 437.6846 -210.646188 
L 432.32036 -202.577189 
L 426.98588 -190.399353 
L 421.68116 -182.99098 
L 416.4062 -167.769054 
L 411.161 -156.480821 
L 405.94556 -144.123456 
L 400.75988 -133.856959 
L 395.862128 -123.695275 
L 390.73448 -112.703736 
L 385.636592 -102.595518 
L 380.568464 -92.963949 
L 375.530096 -85.026796 
L 370.521488 -76.648385 
L 365.79188 -69.609382 
L 360.841304 -64.099217 
L 355.920488 -58.800812 
L 351.029432 -54.452056 
L 346.168136 -51.823429 
L 341.3366 -50.423796 
L 336.775136 -49.571847 
L 332.001632 -50.142467 
L 327.257888 -51.679952 
L 322.543904 -55.064817 
L 317.85968 -58.948256 
L 313.205216 -64.049928 
L 308.580512 -69.06177 
L 303.985568 -75.58035 
L 299.420384 -83.353122 
L 295.11188 -89.161389 
L 290.604728 -99.290789 
L 286.127336 -107.662514 
L 281.679704 -115.78576 
L 277.261832 -125.324385 
L 272.87372 -134.540269 
L 268.515368 -144.843988 
L 264.186776 -153.333211 
L 259.887944 -162.904883 
L 255.618872 -174.248247 
L 251.37956 -184.282162 
L 247.170008 -191.408907 
L 242.990216 -201.938891 
L 238.840184 -207.870298 
L 234.719912 -213.487452 
L 230.6294 -223.067901 
L 226.568648 -225.178161 
L 222.537656 -233.713389 
L 218.536424 -238.231798 
L 214.564952 -242.521392 
L 210.62324 -246.572343 
L 206.711288 -249.242973 
L 202.829096 -249.71434 
L 198.976664 -256.911274 
L 195.153992 -251.832681 
L 191.5508 -250.983429 
L 187.597928 -252.183197 
L 184.05128 -252.015048 
L 180.34616 -250.034888 
L 176.6708 -242.399347 
L 173.0252 -240.446596 
L 169.40936 -241.981077 
L 165.82328 -233.747748 
L 162.26696 -230.085094 
L 158.7404 -228.480113 
L 155.2436 -220.28738 
L 151.77656 -218.282089 
L 148.33928 -209.134987 
L 144.93176 -200.549377 
L 141.722888 -198.181162 
L 138.3734 -190.123291 
L 135.053672 -184.783662 
L 131.763704 -176.640544 
L 128.503496 -170.210508 
L 125.1116 -161.395417 
L 121.9124 -153.760884 
L 118.74296 -148.76801 
L 115.60328 -143.583316 
L 112.49336 -133.716857 
L 109.4132 -126.366506 
L 106.51532 -122.864652 
L 103.34216 -116.88187 
L 100.35128 -109.253427 
L 97.538216 -104.037114 
L 94.605368 -98.084356 
L 91.70228 -93.466907 
L 88.828952 -86.972048 
L 85.985384 -84.314719 
L 83.171576 -79.884128 
L 80.387528 -74.263156 
L 77.77088 -70.401247 
L 74.908712 -67.448813 
L 72.213944 -64.198187 
L 69.548936 -61.253661 
L 66.913688 -58.448982 
L 64.3082 -56.819472 
L 61.732472 -54.824134 
L 59.186504 -52.987715 
L 56.670296 -51.581134 
L 54.183848 -50.658834 
L 51.72716 -49.868851 
L 49.300232 -49.89555 
L 46.903064 -49.784438 
z
" style="stroke: #e39943; stroke-opacity: 0.3; stroke-width: 0.25"/>
    </defs>
    <g clip-path="url(#p103f58e484)">
     <use xlink:href="#m3fede16d7f" x="0" y="270.3875" style="fill: #e39943; fill-opacity: 0.3; stroke: #e39943; stroke-opacity: 0.3; stroke-width: 0.25"/>
    </g>
   </g>
   <g id="line2d_27">
    <path d="M 46.903064 19.341478 
L 49.300232 23.595145 
L 51.72716 21.598526 
L 54.183848 19.624493 
L 56.670296 25.593023 
L 59.186504 24.737767 
L 61.732472 29.148692 
L 64.3082 28.132699 
L 66.913688 29.312015 
L 69.548936 36.698391 
L 72.213944 35.21789 
L 74.908712 37.57239 
L 77.77088 43.263836 
L 80.387528 44.055965 
L 83.171576 46.834505 
L 85.985384 51.173964 
L 88.828952 55.242865 
L 91.70228 62.557629 
L 94.605368 69.1959 
L 97.538216 74.448128 
L 100.35128 77.210449 
L 103.34216 87.885006 
L 106.51532 91.61417 
L 109.4132 97.890089 
L 112.49336 103.721239 
L 115.60328 112.319503 
L 118.74296 118.408645 
L 121.9124 124.035942 
L 125.1116 129.961615 
L 128.503496 139.006468 
L 131.763704 144.71553 
L 135.053672 152.563745 
L 138.3734 159.832274 
L 141.722888 166.202772 
L 144.93176 171.262067 
L 148.33928 178.077244 
L 151.77656 184.419065 
L 155.2436 189.407411 
L 158.7404 195.529201 
L 162.26696 200.058299 
L 165.82328 204.712504 
L 169.40936 209.337019 
L 173.0252 212.595218 
L 176.6708 215.9528 
L 180.34616 218.510398 
L 184.05128 220.157309 
L 187.597928 221.484449 
L 191.5508 222.244115 
L 195.153992 222.291146 
L 198.976664 221.610004 
L 202.829096 220.088973 
L 206.711288 217.899602 
L 210.62324 215.156496 
L 214.564952 212.20697 
L 218.536424 207.620251 
L 222.537656 203.715089 
L 226.568648 197.660739 
L 230.6294 190.854619 
L 234.719912 184.488052 
L 238.840184 176.749489 
L 242.990216 170.534122 
L 247.170008 160.586208 
L 251.37956 152.927837 
L 255.618872 143.893948 
L 259.887944 132.017575 
L 264.186776 124.925918 
L 268.515368 113.673068 
L 272.87372 104.413925 
L 277.261832 98.683199 
L 281.679704 87.184395 
L 286.127336 78.385807 
L 290.604728 71.046937 
L 295.11188 64.102548 
L 299.420384 56.062383 
L 303.985568 49.178143 
L 308.580512 43.396459 
L 313.205216 34.265036 
L 317.85968 32.14755 
L 322.543904 28.030832 
L 327.257888 24.167926 
L 332.001632 24.9759 
L 336.775136 23.822749 
L 341.3366 23.611777 
L 346.168136 24.905706 
L 351.029432 25.495157 
L 355.920488 28.639259 
L 360.841304 36.147167 
L 365.79188 38.473245 
L 370.521488 48.62986 
L 375.530096 57.58879 
L 380.568464 63.417141 
L 385.636592 74.257837 
L 390.73448 86.074514 
L 395.862128 93.960911 
L 400.75988 104.642789 
L 405.94556 114.306153 
L 411.161 128.121204 
L 416.4062 138.155642 
L 421.68116 149.475879 
L 426.98588 161.929129 
L 432.32036 172.334235 
L 437.6846 181.795256 
L 443.0786 191.727671 
L 448.50236 200.18245 
L 453.95588 207.622551 
L 459.43916 212.698855 
L 464.9522 217.680249 
L 470.495 220.411888 
L 476.06756 221.745973 
L 481.66988 222.193338 
L 487.30196 220.61044 
L 492.9638 217.467568 
L 498.6554 212.52175 
L 504.088832 206.883657 
L 509.838464 199.543048 
L 511.621719 196.827182 
" clip-path="url(#p103f58e484)" style="fill: none; stroke: #7292c7; stroke-width: 1.5; stroke-linecap: square"/>
   </g>
   <g id="line2d_28">
    <path d="M 46.903064 221.175771 
L 49.300232 221.07509 
L 51.72716 221.099298 
L 54.183848 220.379338 
L 56.670296 219.530918 
L 59.186504 218.225219 
L 61.732472 216.505336 
L 64.3082 214.622893 
L 66.913688 213.077721 
L 69.548936 210.405753 
L 72.213944 207.587617 
L 74.908712 204.464866 
L 77.77088 201.620231 
L 80.387528 197.889742 
L 83.171576 192.444688 
L 85.985384 188.142542 
L 88.828952 185.558661 
L 91.70228 179.23377 
L 94.605368 174.730102 
L 97.538216 168.916766 
L 100.35128 163.816806 
L 103.34216 156.350139 
L 106.51532 150.488187 
L 109.4132 147.054868 
L 112.49336 139.843651 
L 115.60328 130.155041 
L 118.74296 125.060185 
L 121.9124 120.151698 
L 125.1116 112.64249 
L 128.503496 103.967032 
L 131.763704 97.635736 
L 135.053672 89.614229 
L 138.3734 84.352408 
L 141.722888 76.409266 
L 144.93176 74.074188 
L 148.33928 65.606624 
L 151.77656 56.58191 
L 155.2436 54.603011 
L 158.7404 46.516555 
L 162.26696 44.932112 
L 165.82328 41.315992 
L 169.40936 33.185637 
L 173.0252 34.701093 
L 176.6708 32.772539 
L 180.34616 25.230476 
L 184.05128 23.274271 
L 187.597928 23.108151 
L 191.5508 24.293424 
L 195.153992 23.454436 
L 198.976664 18.436785 
L 202.829096 25.547136 
L 206.711288 26.012778 
L 210.62324 28.650852 
L 214.564952 32.652003 
L 218.536424 36.888298 
L 222.537656 41.349917 
L 226.568648 49.775968 
L 230.6294 51.858834 
L 234.719912 61.312813 
L 238.840184 66.854123 
L 242.990216 72.703998 
L 247.170008 83.085309 
L 251.37956 90.108344 
L 255.618872 99.991588 
L 259.887944 111.157305 
L 264.186776 120.572221 
L 268.515368 128.91643 
L 272.87372 139.035454 
L 277.261832 148.076754 
L 281.679704 157.423563 
L 286.127336 165.372762 
L 290.604728 173.55255 
L 295.11188 183.428042 
L 299.420384 189.076929 
L 303.985568 196.615258 
L 308.580512 202.911676 
L 313.205216 207.729775 
L 317.85968 212.603125 
L 322.543904 216.278935 
L 327.257888 219.439608 
L 332.001632 220.850769 
L 336.775136 221.367909 
L 341.3366 220.594285 
L 346.168136 219.306905 
L 351.029432 216.854923 
L 355.920488 212.743334 
L 360.841304 207.682518 
L 365.79188 202.383868 
L 370.521488 195.581151 
L 375.530096 187.450393 
L 380.568464 179.724003 
L 385.636592 170.325286 
L 390.73448 160.440818 
L 395.862128 149.67396 
L 400.75988 139.706143 
L 405.94556 129.624371 
L 411.161 117.476907 
L 416.4062 106.370325 
L 421.68116 91.380453 
L 426.98588 84.080329 
L 432.32036 72.074548 
L 437.6846 64.115876 
L 443.0786 52.881973 
L 448.50236 43.048197 
L 453.95588 38.274351 
L 459.43916 30.463297 
L 464.9522 27.118485 
L 470.495 25.450895 
L 476.06756 23.886676 
L 481.66988 25.739672 
L 487.30196 27.02864 
L 492.9638 29.220205 
L 498.6554 35.518218 
L 504.088832 39.556584 
L 509.838464 47.955593 
L 511.621719 50.875094 
" clip-path="url(#p103f58e484)" style="fill: none; stroke: #e39943; stroke-width: 1.5; stroke-linecap: square"/>
   </g>
   <g id="line2d_29">
    <path d="M -1 79.659503 
L 3.525632 70.946799 
L 7.102784 64.422575 
L 10.704488 58.216569 
L 14.516744 52.087541 
L 18.54848 46.144383 
L 22.498376 40.902928 
L 24.568184 38.39951 
L 26.667752 36.03797 
L 28.79708 33.831053 
L 30.956168 31.791624 
L 33.145016 29.932622 
L 35.363624 28.266989 
L 37.611992 26.807614 
L 39.89012 25.567262 
L 42.198008 24.558496 
L 44.535656 23.793601 
L 46.903064 23.284502 
L 49.300232 23.042673 
L 51.72716 23.079049 
L 54.183848 23.403927 
L 56.670296 24.026872 
L 59.186504 24.956613 
L 61.732472 26.200938 
L 64.3082 27.766592 
L 66.913688 29.659168 
L 69.548936 31.883 
L 72.213944 34.441057 
L 74.908712 37.334837 
L 77.77088 40.73531 
L 80.387528 44.127587 
L 83.171576 48.021283 
L 85.985384 52.239966 
L 88.828952 56.776306 
L 91.70228 61.620946 
L 94.605368 66.762436 
L 100.35128 77.587299 
L 106.51532 89.99175 
L 112.49336 102.594924 
L 125.1116 130.059174 
L 131.763704 144.443038 
L 138.3734 158.275656 
L 144.93176 171.260519 
L 148.33928 177.625707 
L 151.77656 183.734479 
L 155.2436 189.543447 
L 158.7404 195.009394 
L 162.26696 200.089618 
L 165.82328 204.742289 
L 169.40936 208.926828 
L 173.0252 212.604302 
L 176.6708 215.737823 
L 180.34616 218.292957 
L 184.05128 220.238147 
L 187.597928 221.495114 
L 191.5508 222.189309 
L 195.153992 222.168765 
L 198.976664 221.465895 
L 202.829096 220.053147 
L 206.711288 217.924378 
L 210.62324 215.078978 
L 214.564952 211.522156 
L 218.536424 207.265196 
L 222.537656 202.325661 
L 226.568648 196.727547 
L 230.6294 190.501392 
L 234.719912 183.684307 
L 238.840184 176.319956 
L 242.990216 168.458456 
L 247.170008 160.156215 
L 255.618872 142.484997 
L 277.261832 95.606793 
L 281.679704 86.444918 
L 286.127336 77.565508 
L 290.604728 69.061004 
L 295.11188 61.023084 
L 299.420384 53.902473 
L 303.985568 47.030119 
L 308.580512 40.880115 
L 313.205216 35.530587 
L 317.85968 31.053464 
L 322.543904 27.513364 
L 327.257888 24.966517 
L 332.001632 23.459722 
L 336.775136 23.02938 
L 341.3366 23.640397 
L 346.168136 25.370135 
L 351.029432 28.215 
L 355.920488 32.162598 
L 360.841304 37.186831 
L 365.79188 43.247652 
L 370.521488 49.91498 
L 375.530096 57.828792 
L 380.568464 66.579994 
L 385.636592 76.074594 
L 390.73448 86.206219 
L 395.862128 96.857053 
L 405.94556 118.623959 
L 416.4062 141.398273 
L 421.68116 152.582407 
L 426.98588 163.424474 
L 432.32036 173.769392 
L 437.6846 183.464776 
L 443.0786 192.363297 
L 448.50236 200.325079 
L 453.95588 207.220104 
L 459.43916 212.930567 
L 464.9522 217.353161 
L 470.495 220.40123 
L 476.06756 222.006761 
L 481.66988 222.122161 
L 487.30196 220.721785 
L 492.9638 217.803166 
L 498.6554 213.387912 
L 504.088832 207.850282 
L 509.838464 200.672317 
L 511.621719 198.05062 
L 511.621719 198.05062 
" clip-path="url(#p103f58e484)" style="fill: none; stroke-dasharray: 6,10; stroke-dashoffset: 0; stroke: #9c372f; stroke-width: 2; stroke-linecap: round"/>
   </g>
   <g id="line2d_30">
    <path d="M 336.775136 23.02938 
" clip-path="url(#p103f58e484)" style="fill: none; stroke: #ce5656; stroke-width: 2.25; stroke-linecap: square"/>
    <defs>
     <path id="m0b00efc77a" d="M 0 7.5 
C 1.989023 7.5 3.896849 6.709753 5.303301 5.303301 
C 6.709753 3.896849 7.5 1.989023 7.5 0 
C 7.5 -1.989023 6.709753 -3.896849 5.303301 -5.303301 
C 3.896849 -6.709753 1.989023 -7.5 0 -7.5 
C -1.989023 -7.5 -3.896849 -6.709753 -5.303301 -5.303301 
C -6.709753 -3.896849 -7.5 -1.989023 -7.5 0 
C -7.5 1.989023 -6.709753 3.896849 -5.303301 5.303301 
C -3.896849 6.709753 -1.989023 7.5 0 7.5 
z
" style="stroke: #ce5656"/>
    </defs>
    <g clip-path="url(#p103f58e484)">
     <use xlink:href="#m0b00efc77a" x="336.775136" y="23.02938" style="fill: #ce5656; stroke: #ce5656"/>
    </g>
   </g>
   <g id="line2d_31">
    <path d="M 191.5508 222.189309 
" clip-path="url(#p103f58e484)" style="fill: none; stroke: #4a6fce; stroke-width: 2.25; stroke-linecap: square"/>
    <defs>
     <path id="m33b7430f33" d="M 0 7.5 
C 1.989023 7.5 3.896849 6.709753 5.303301 5.303301 
C 6.709753 3.896849 7.5 1.989023 7.5 0 
C 7.5 -1.989023 6.709753 -3.896849 5.303301 -5.303301 
C 3.896849 -6.709753 1.989023 -7.5 0 -7.5 
C -1.989023 -7.5 -3.896849 -6.709753 -5.303301 -5.303301 
C -6.709753 -3.896849 -7.5 -1.989023 -7.5 0 
C -7.5 1.989023 -6.709753 3.896849 -5.303301 5.303301 
C -3.896849 6.709753 -1.989023 7.5 0 7.5 
z
" style="stroke: #4a6fce"/>
    </defs>
    <g clip-path="url(#p103f58e484)">
     <use xlink:href="#m33b7430f33" x="191.5508" y="222.189309" style="fill: #4a6fce; stroke: #4a6fce"/>
    </g>
   </g>
   <g id="line2d_32">
    <path d="M 264.186776 123.755705 
" clip-path="url(#p103f58e484)" style="fill: none; stroke: #4ace7f; stroke-width: 2.25; stroke-linecap: square"/>
    <defs>
     <path id="m30b766ed84" d="M 0 7.5 
C 1.989023 7.5 3.896849 6.709753 5.303301 5.303301 
C 6.709753 3.896849 7.5 1.989023 7.5 0 
C 7.5 -1.989023 6.709753 -3.896849 5.303301 -5.303301 
C 3.896849 -6.709753 1.989023 -7.5 0 -7.5 
C -1.989023 -7.5 -3.896849 -6.709753 -5.303301 -5.303301 
C -6.709753 -3.896849 -7.5 -1.989023 -7.5 0 
C -7.5 1.989023 -6.709753 3.896849 -5.303301 5.303301 
C -3.896849 6.709753 -1.989023 7.5 0 7.5 
z
" style="stroke: #4ace7f"/>
    </defs>
    <g clip-path="url(#p103f58e484)">
     <use xlink:href="#m30b766ed84" x="264.186776" y="123.755705" style="fill: #4ace7f; stroke: #4ace7f"/>
    </g>
   </g>
   <g id="patch_3">
    <path d="M 48.275 228.96 
L 48.275 7.2 
" style="fill: none; stroke: #333333; stroke-width: 1.2; stroke-linejoin: miter; stroke-linecap: square"/>
   </g>
   <g id="patch_4">
    <path d="M 48.275 228.96 
L 494.675 228.96 
" style="fill: none; stroke: #333333; stroke-width: 1.2; stroke-linejoin: miter; stroke-linecap: square"/>
   </g>
   <g id="text_16">
    <!-- C -->
    <g style="fill: #ffffff" transform="translate(331.841449 27.36802) scale(0.12 -0.12)">
     <use xlink:href="#DejaVuSans-43"/>
    </g>
   </g>
   <g id="text_17">
    <!-- A -->
    <g style="fill: #ffffff" transform="translate(187.446425 226.527948) scale(0.12 -0.12)">
     <defs>
      <path id="DejaVuSans-41" d="M 2188 4044 
L 1331 1722 
L 3047 1722 
L 2188 4044 
z
M 1831 4666 
L 2547 4666 
L 4325 0 
L 3669 0 
L 3244 1197 
L 1141 1197 
L 716 0 
L 50 0 
L 1831 4666 
z
" transform="scale(0.015625)"/>
     </defs>
     <use xlink:href="#DejaVuSans-41"/>
    </g>
   </g>
   <g id="text_18">
    <!-- B -->
    <g style="fill: #ffffff" transform="translate(260.070214 128.094344) scale(0.12 -0.12)">
     <defs>
      <path id="DejaVuSans-42" d="M 1259 2228 
L 1259 519 
L 2272 519 
Q 2781 519 3026 730 
Q 3272 941 3272 1375 
Q 3272 1813 3026 2020 
Q 2781 2228 2272 2228 
L 1259 2228 
z
M 1259 4147 
L 1259 2741 
L 2194 2741 
Q 2656 2741 2882 2914 
Q 3109 3088 3109 3444 
Q 3109 3797 2882 3972 
Q 2656 4147 2194 4147 
L 1259 4147 
z
M 628 4666 
L 2241 4666 
Q 2963 4666 3353 4366 
Q 3744 4066 3744 3513 
Q 3744 3084 3544 2831 
Q 3344 2578 2956 2516 
Q 3422 2416 3680 2098 
Q 3938 1781 3938 1306 
Q 3938 681 3513 340 
Q 3088 0 2303 0 
L 628 0 
L 628 4666 
z
" transform="scale(0.015625)"/>
     </defs>
     <use xlink:href="#DejaVuSans-42"/>
    </g>
   </g>
   <g id="legend_1">
    <g id="patch_5">
     <path d="M 54.275 69.64125 
L 176.915 69.64125 
L 176.915 13.2 
L 54.275 13.2 
z
" style="fill: #ffffff; opacity: 0.8; stroke: #333333; stroke-width: 0.25; stroke-linejoin: miter"/>
    </g>
    <g id="line2d_33">
     <path d="M 59.075 22.918125 
L 71.075 22.918125 
L 83.075 22.918125 
" style="fill: none; stroke: #7292c7; stroke-width: 1.5; stroke-linecap: square"/>
    </g>
    <g id="text_19">
     <!-- output port 1 -->
     <g style="fill: #333333" transform="translate(92.675 27.118125) scale(0.12 -0.12)">
      <defs>
       <path id="DejaVuSans-70" d="M 1159 525 
L 1159 -1331 
L 581 -1331 
L 581 3500 
L 1159 3500 
L 1159 2969 
Q 1341 3281 1617 3432 
Q 1894 3584 2278 3584 
Q 2916 3584 3314 3078 
Q 3713 2572 3713 1747 
Q 3713 922 3314 415 
Q 2916 -91 2278 -91 
Q 1894 -91 1617 61 
Q 1341 213 1159 525 
z
M 3116 1747 
Q 3116 2381 2855 2742 
Q 2594 3103 2138 3103 
Q 1681 3103 1420 2742 
Q 1159 2381 1159 1747 
Q 1159 1113 1420 752 
Q 1681 391 2138 391 
Q 2594 391 2855 752 
Q 3116 1113 3116 1747 
z
" transform="scale(0.015625)"/>
      </defs>
      <use xlink:href="#DejaVuSans-6f"/>
      <use xlink:href="#DejaVuSans-75" x="61.181641"/>
      <use xlink:href="#DejaVuSans-74" x="124.560547"/>
      <use xlink:href="#DejaVuSans-70" x="163.769531"/>
      <use xlink:href="#DejaVuSans-75" x="227.246094"/>
      <use xlink:href="#DejaVuSans-74" x="290.625"/>
      <use xlink:href="#DejaVuSans-20" x="329.833984"/>
      <use xlink:href="#DejaVuSans-70" x="361.621094"/>
      <use xlink:href="#DejaVuSans-6f" x="425.097656"/>
      <use xlink:href="#DejaVuSans-72" x="486.279297"/>
      <use xlink:href="#DejaVuSans-74" x="527.392578"/>
      <use xlink:href="#DejaVuSans-20" x="566.601562"/>
      <use xlink:href="#DejaVuSans-31" x="598.388672"/>
     </g>
    </g>
    <g id="line2d_34">
     <path d="M 59.075 40.531875 
L 71.075 40.531875 
L 83.075 40.531875 
" style="fill: none; stroke: #e39943; stroke-width: 1.5; stroke-linecap: square"/>
    </g>
    <g id="text_20">
     <!-- output port 2 -->
     <g style="fill: #333333" transform="translate(92.675 44.731875) scale(0.12 -0.12)">
      <use xlink:href="#DejaVuSans-6f"/>
      <use xlink:href="#DejaVuSans-75" x="61.181641"/>
      <use xlink:href="#DejaVuSans-74" x="124.560547"/>
      <use xlink:href="#DejaVuSans-70" x="163.769531"/>
      <use xlink:href="#DejaVuSans-75" x="227.246094"/>
      <use xlink:href="#DejaVuSans-74" x="290.625"/>
      <use xlink:href="#DejaVuSans-20" x="329.833984"/>
      <use xlink:href="#DejaVuSans-70" x="361.621094"/>
      <use xlink:href="#DejaVuSans-6f" x="425.097656"/>
      <use xlink:href="#DejaVuSans-72" x="486.279297"/>
      <use xlink:href="#DejaVuSans-74" x="527.392578"/>
      <use xlink:href="#DejaVuSans-20" x="566.601562"/>
      <use xlink:href="#DejaVuSans-32" x="598.388672"/>
     </g>
    </g>
    <g id="line2d_35">
     <path d="M 59.075 58.145625 
L 71.075 58.145625 
L 83.075 58.145625 
" style="fill: none; stroke-dasharray: 6,10; stroke-dashoffset: 0; stroke: #9c372f; stroke-width: 2; stroke-linecap: round"/>
    </g>
    <g id="text_21">
     <!-- cosine fit -->
     <g style="fill: #333333" transform="translate(92.675 62.345625) scale(0.12 -0.12)">
      <defs>
       <path id="DejaVuSans-63" d="M 3122 3366 
L 3122 2828 
Q 2878 2963 2633 3030 
Q 2388 3097 2138 3097 
Q 1578 3097 1268 2742 
Q 959 2388 959 1747 
Q 959 1106 1268 751 
Q 1578 397 2138 397 
Q 2388 397 2633 464 
Q 2878 531 3122 666 
L 3122 134 
Q 2881 22 2623 -34 
Q 2366 -91 2075 -91 
Q 1284 -91 818 406 
Q 353 903 353 1747 
Q 353 2603 823 3093 
Q 1294 3584 2113 3584 
Q 2378 3584 2631 3529 
Q 2884 3475 3122 3366 
z
" transform="scale(0.015625)"/>
      </defs>
      <use xlink:href="#DejaVuSans-63"/>
      <use xlink:href="#DejaVuSans-6f" x="54.980469"/>
      <use xlink:href="#DejaVuSans-73" x="116.162109"/>
      <use xlink:href="#DejaVuSans-69" x="168.261719"/>
      <use xlink:href="#DejaVuSans-6e" x="196.044922"/>
      <use xlink:href="#DejaVuSans-65" x="259.423828"/>
      <use xlink:href="#DejaVuSans-20" x="320.947266"/>
      <use xlink:href="#DejaVuSans-66" x="352.734375"/>
      <use xlink:href="#DejaVuSans-69" x="387.939453"/>
      <use xlink:href="#DejaVuSans-74" x="415.722656"/>
     </g>
    </g>
   </g>
  </g>
 </g>
 <defs>
  <clipPath id="p103f58e484">
   <rect x="48.275" y="7.2" width="446.4" height="221.76"/>
  </clipPath>
 </defs>
</svg>
